<svg width="65" height="65" viewBox="0 0 65 65" fill="none" xmlns="http://www.w3.org/2000/svg">
<g clip-path="url(#clip0_662_6288)">
<path opacity="0.989" fill-rule="evenodd" clip-rule="evenodd" d="M16.0594 -0.0625C26.9774 -0.0625 37.8954 -0.0625 48.8133 -0.0625C49.1597 0.136707 49.3925 0.432931 49.5116 0.826172C49.6368 7.3082 49.5945 13.7828 49.3846 20.25C49.1609 20.6014 48.8436 20.7918 48.4325 20.8213C37.7684 20.906 27.1044 20.906 16.4403 20.8213C16.0292 20.7918 15.7118 20.6014 15.4881 20.25C15.2783 13.7828 15.236 7.3082 15.3612 0.826172C15.4803 0.432931 15.7131 0.136707 16.0594 -0.0625Z" fill="#838383"/>
<path fill-rule="evenodd" clip-rule="evenodd" d="M40.6875 3.61731C41.1084 3.76356 41.3835 4.05978 41.5127 4.50598C41.5762 8.27202 41.5974 12.0383 41.5762 15.8048C40.1557 13.7921 38.717 11.7819 37.2598 9.77454C36.8575 9.65035 36.4977 9.71383 36.1807 9.96497C35.504 11.0003 34.8058 12.0159 34.086 13.0118C32.6232 10.9145 31.1422 8.81972 29.6426 6.72766C29.2089 6.61426 28.8069 6.67773 28.4366 6.91809C26.1518 10.3232 23.8455 13.7086 21.5176 17.0743C20.797 17.0954 20.0776 17.0742 19.3594 17.0109C19.2959 16.9474 19.2325 16.8839 19.169 16.8204C19.0843 12.504 19.0843 8.18762 19.169 3.87122C19.2325 3.80774 19.2959 3.74426 19.3594 3.68079C26.4687 3.61731 33.578 3.59615 40.6875 3.61731Z" fill="#ADFC99"/>
<path fill-rule="evenodd" clip-rule="evenodd" d="M40.6875 3.6173C42.2961 3.59615 43.9042 3.61732 45.5117 3.68078C45.6642 3.79536 45.7701 3.94347 45.8291 4.12512C45.9138 8.27226 45.9138 12.4194 45.8291 16.5665C45.7701 16.7482 45.6642 16.8962 45.5117 17.0109C44.4546 17.0743 43.3967 17.0954 42.3379 17.0743C42.084 16.6512 41.8301 16.2279 41.5762 15.8048C41.5974 12.0383 41.5762 8.27202 41.5127 4.50598C41.3835 4.05977 41.1083 3.76355 40.6875 3.6173Z" fill="#67FA64"/>
<path fill-rule="evenodd" clip-rule="evenodd" d="M34.0879 13.0145C34.9766 14.3687 35.8652 15.7228 36.7539 17.077C31.6758 17.077 26.5977 17.077 21.5195 17.077C23.8475 13.7112 26.1537 10.3258 28.4385 6.92074C28.8088 6.68038 29.2109 6.61691 29.6445 6.73031C31.1441 8.82237 32.6251 10.9171 34.0879 13.0145Z" fill="#548353"/>
<path fill-rule="evenodd" clip-rule="evenodd" d="M41.5762 15.8068C41.8301 16.2299 42.084 16.6531 42.3379 17.0763C40.4759 17.0763 38.614 17.0763 36.752 17.0763C35.8633 15.7221 34.9746 14.368 34.0859 13.0138C34.8058 12.0179 35.504 11.0023 36.1807 9.96691C36.4977 9.71577 36.8575 9.65229 37.2598 9.77648C38.7169 11.7839 40.1557 13.794 41.5762 15.8068Z" fill="#42593E"/>
<path opacity="0.991" fill-rule="evenodd" clip-rule="evenodd" d="M4.12695 43.2285C2.07747 43.3437 0.68099 44.3593 -0.0625 46.2754C-0.0625 37.5156 -0.0625 28.7559 -0.0625 19.9961C0.298584 19.3703 0.848715 19.0318 1.58789 18.9805C3.74972 19.5132 5.08273 20.8672 5.58691 23.043C5.67155 23.9316 5.67155 24.8203 5.58691 25.709C5.08619 31.5484 4.59954 37.3883 4.12695 43.2285Z" fill="#2FFC2B"/>
<path opacity="0.992" fill-rule="evenodd" clip-rule="evenodd" d="M64.9358 19.9961C64.9358 28.7559 64.9358 37.5156 64.9358 46.2754C64.1954 44.3603 62.7989 43.3447 60.7464 43.2285C60.2667 37.3465 59.7801 31.4644 59.2864 25.582C58.8785 23.1638 59.619 21.1961 61.5081 19.6787C62.0606 19.3389 62.6529 19.106 63.2854 18.9805C64.0245 19.0318 64.5748 19.3703 64.9358 19.9961Z" fill="#2FFC2B"/>
<path opacity="0.978" fill-rule="evenodd" clip-rule="evenodd" d="M19.1074 30.0235C19.333 30.1632 19.5869 30.2691 19.8691 30.3409C19.9594 30.5002 20.0652 30.6483 20.1865 30.7852C20.25 31.9693 20.2711 33.1543 20.25 34.3399C18.9805 34.3399 17.7109 34.3399 16.4414 34.3399C16.3991 34.3399 16.3567 34.3399 16.3145 34.3399C15.8506 33.1577 15.3852 31.9729 14.918 30.7852C14.9632 30.4533 15.1324 30.2206 15.4258 30.087C16.6523 30.0235 17.8795 30.0024 19.1074 30.0235Z" fill="#A7D2D7"/>
<path opacity="0.977" fill-rule="evenodd" clip-rule="evenodd" d="M45.1316 30.0235C45.5642 30.1884 45.8815 30.4847 46.0838 30.9122C46.1472 32.054 46.1683 33.1966 46.1472 34.3399C44.8777 34.3399 43.6082 34.3399 42.3387 34.3399C42.2964 34.3399 42.254 34.3399 42.2117 34.3399C41.8479 33.3122 41.4458 32.2966 41.0056 31.2931C40.9132 30.9465 40.9343 30.6079 41.0691 30.2774C41.1358 30.1896 41.2205 30.1261 41.323 30.087C42.5918 30.0235 43.8613 30.0024 45.1316 30.0235Z" fill="#A7D2D7"/>
<path opacity="0.996" fill-rule="evenodd" clip-rule="evenodd" d="M19.1074 30.0236C20.8006 30.0024 22.4934 30.0236 24.1855 30.0871C24.5397 30.3676 24.6455 30.7274 24.5029 31.1662C24.0872 32.2237 23.6851 33.2816 23.2969 34.34C20.9993 34.5081 18.7141 34.5081 16.4414 34.34C17.7109 34.34 18.9805 34.34 20.25 34.34C20.2711 33.1544 20.25 31.9694 20.1865 30.7853C20.0652 30.6483 19.9594 30.5003 19.8691 30.341C19.5869 30.2691 19.333 30.1632 19.1074 30.0236Z" fill="#8FC39A"/>
<path fill-rule="evenodd" clip-rule="evenodd" d="M45.1328 30.0236C46.7837 30.0024 48.4341 30.0236 50.084 30.0871C50.4382 30.3676 50.5439 30.7274 50.4014 31.1662C49.9357 32.2039 49.5336 33.2618 49.1953 34.34C46.8977 34.5081 44.6126 34.5081 42.3398 34.34C43.6094 34.34 44.8789 34.34 46.1484 34.34C46.1695 33.1966 46.1484 32.0541 46.085 30.9122C45.8827 30.4848 45.5653 30.1885 45.1328 30.0236Z" fill="#90C48F"/>
<path opacity="0.987" fill-rule="evenodd" clip-rule="evenodd" d="M16.3125 34.34C16.3548 34.34 16.3972 34.34 16.4395 34.34C18.7122 34.5081 20.9973 34.5081 23.2949 34.34C29.6003 34.34 35.9056 34.34 42.2109 34.34C42.2532 34.34 42.2956 34.34 42.3379 34.34C44.6106 34.5081 46.8958 34.5081 49.1934 34.34C49.3626 34.34 49.5319 34.34 49.7012 34.34C49.8715 34.5041 50.0832 34.6099 50.3359 34.6574C50.4884 34.772 50.5943 34.92 50.6533 35.1017C50.7168 36.6245 50.738 38.1479 50.7168 39.672C51.4183 39.6313 52.0955 39.6735 52.7481 39.799C51.013 39.799 49.278 39.799 47.543 39.799C37.5137 39.799 27.4844 39.799 17.4551 39.799C15.6777 39.6297 13.9004 39.6297 12.1231 39.799C11.4115 39.8741 10.7344 39.7684 10.0918 39.4816C9.96991 39.3014 9.86411 39.111 9.77442 38.9103C9.68978 37.683 9.68978 36.4559 9.77442 35.2287C9.88021 34.7843 10.1553 34.5092 10.5996 34.4035C12.5034 34.34 14.4077 34.3188 16.3125 34.34Z" fill="#4FAD2E"/>
<path fill-rule="evenodd" clip-rule="evenodd" d="M49.7031 34.34C51.2272 34.3188 52.7506 34.34 54.2734 34.4035C54.7178 34.5092 54.9929 34.7843 55.0986 35.2287C55.1833 36.4559 55.1833 37.683 55.0986 38.9103C54.9929 39.3546 54.7178 39.6297 54.2734 39.7355C53.7674 39.7988 53.2596 39.82 52.75 39.799C52.0975 39.6735 51.4203 39.6313 50.7188 39.672C50.74 38.1479 50.7188 36.6245 50.6553 35.1017C50.5962 34.92 50.4904 34.772 50.3379 34.6574C50.0851 34.6099 49.8735 34.5041 49.7031 34.34Z" fill="#249128"/>
<path opacity="0.982" fill-rule="evenodd" clip-rule="evenodd" d="M17.4557 39.7988C17.293 40.9513 17.0813 42.0939 16.821 43.2265C16.337 44.8844 15.9986 46.5771 15.8053 48.3047C14.7087 53.7243 13.5873 59.1409 12.4411 64.5547C12.3084 64.6655 12.2026 64.7924 12.1237 64.9355C11.3197 64.9355 10.5156 64.9355 9.71158 64.9355C9.40819 64.6974 9.28124 64.38 9.33072 63.9834C9.92853 58.7567 10.521 53.5304 11.1081 48.3047C11.3739 46.6239 11.5854 44.9313 11.7428 43.2265C11.8236 42.0766 11.9505 40.934 12.1237 39.7988C13.901 39.6296 15.6784 39.6296 17.4557 39.7988Z" fill="#FAC46C"/>
<path opacity="0.982" fill-rule="evenodd" clip-rule="evenodd" d="M47.543 39.8008C49.278 39.8008 51.013 39.8008 52.748 39.8008C52.9212 40.936 53.0482 42.0786 53.1289 43.2285C53.2482 44.9381 53.4599 46.6309 53.7637 48.3066C54.405 53.7194 54.9763 59.136 55.4775 64.5566C55.3449 64.6675 55.2391 64.7944 55.1602 64.9375C54.3562 64.9375 53.552 64.9375 52.748 64.9375C52.4687 64.7138 52.3206 64.4175 52.3037 64.0488C51.253 58.8024 50.2162 53.555 49.1934 48.3066C49.0001 46.5791 48.6617 44.8864 48.1777 43.2285C47.9499 42.0891 47.7382 40.9465 47.543 39.8008Z" fill="#FBC46C"/>
<path fill-rule="evenodd" clip-rule="evenodd" d="M4.12695 43.2266C6.66602 43.2266 9.20508 43.2266 11.7441 43.2266C11.5868 44.9313 11.3752 46.624 11.1094 48.3047C9.67058 48.3047 8.23177 48.3047 6.79297 48.3047C5.22722 48.1355 3.66145 48.1355 2.0957 48.3047C1.58614 48.3258 1.07832 48.3046 0.572266 48.2412C0.307645 48.1527 0.0960566 48.0046 -0.0625 47.7969C-0.0625 47.2891 -0.0625 46.7812 -0.0625 46.2734C0.68099 44.3573 2.07747 43.3417 4.12695 43.2266Z" fill="#56FE47"/>
<path opacity="0.99" fill-rule="evenodd" clip-rule="evenodd" d="M16.8203 43.2257C18.6029 43.1792 20.3802 43.2427 22.1523 43.4161C24.0966 44.1103 25.0065 45.4856 24.8818 47.5421C24.4545 48.2005 23.8409 48.4544 23.041 48.3038C21.4629 48.1362 19.897 48.1362 18.3438 48.3038C17.4974 48.3038 16.6511 48.3038 15.8047 48.3038C15.9979 46.5762 16.3364 44.8835 16.8203 43.2257Z" fill="#6CFF47"/>
<path opacity="0.991" fill-rule="evenodd" clip-rule="evenodd" d="M48.1777 43.2267C48.6617 44.8846 49.0001 46.5772 49.1934 48.3048C48.3047 48.3048 47.416 48.3048 46.5273 48.3048C44.9741 48.1372 43.4082 48.1372 41.8301 48.3048C40.69 48.5302 40.0553 48.0858 39.9258 46.9718C40.2203 44.8153 41.4476 43.5881 43.6074 43.2902C45.1302 43.2267 46.6537 43.2055 48.1777 43.2267Z" fill="#6CFF47"/>
<path fill-rule="evenodd" clip-rule="evenodd" d="M53.1289 43.2266C55.668 43.2266 58.207 43.2266 60.7461 43.2266C62.7987 43.3427 64.1952 44.3583 64.9355 46.2734C64.9355 46.7812 64.9355 47.2891 64.9355 47.7969C64.777 48.0046 64.5654 48.1527 64.3008 48.2412C63.7947 48.3046 63.2869 48.3258 62.7773 48.3047C61.2116 48.1355 59.6458 48.1355 58.0801 48.3047C56.6413 48.3047 55.2024 48.3047 53.7637 48.3047C53.4599 46.6289 53.2482 44.9361 53.1289 43.2266Z" fill="#56FE47"/>
<path opacity="0.975" fill-rule="evenodd" clip-rule="evenodd" d="M6.79296 48.3066C5.63285 53.6249 4.51144 58.957 3.4287 64.3027C3.30209 64.5341 3.15399 64.7458 2.98437 64.9375C2.3496 64.9375 1.71484 64.9375 1.08007 64.9375C0.676144 64.6785 0.506874 64.2976 0.572257 63.7949C1.09692 58.6328 1.60474 53.4702 2.09569 48.3066C3.66145 48.1374 5.22721 48.1374 6.79296 48.3066Z" fill="#FBC46C"/>
<path opacity="0.975" fill-rule="evenodd" clip-rule="evenodd" d="M23.041 48.3054C23.49 53.5155 23.9979 58.7206 24.5645 63.9206C24.5264 64.3352 24.3571 64.6738 24.0566 64.9362C23.4219 64.9362 22.7871 64.9362 22.1523 64.9362C21.9436 64.8326 21.7956 64.6633 21.708 64.4284C20.578 59.0535 19.4566 53.6792 18.3438 48.3054C19.897 48.1378 21.4629 48.1378 23.041 48.3054Z" fill="#EAB664"/>
<path opacity="0.974" fill-rule="evenodd" clip-rule="evenodd" d="M46.5293 48.3054C45.4164 53.6792 44.295 59.0535 43.165 64.4284C43.0774 64.6633 42.9294 64.8326 42.7207 64.9362C42.0859 64.9362 41.4512 64.9362 40.8164 64.9362C40.513 64.6948 40.3438 64.3774 40.3086 63.9841C40.8542 58.7607 41.3621 53.5346 41.832 48.3054C43.4102 48.1378 44.976 48.1378 46.5293 48.3054Z" fill="#FBC46C"/>
<path opacity="0.976" fill-rule="evenodd" clip-rule="evenodd" d="M62.7793 48.3066C63.3333 53.6779 63.8201 59.0523 64.2393 64.4297C64.1517 64.6645 64.0036 64.8339 63.7949 64.9375C63.1602 64.9375 62.5254 64.9375 61.8906 64.9375C61.721 64.7458 61.5729 64.5341 61.4463 64.3027C60.3635 58.957 59.2421 53.6249 58.082 48.3066C59.6477 48.1374 61.2136 48.1374 62.7793 48.3066Z" fill="#EAB664"/>
</g>
<defs>
<clipPath id="clip0_662_6288">
<rect width="65" height="65" fill="white"/>
</clipPath>
</defs>
</svg>
