<svg width="65" height="65" viewBox="0 0 65 65" fill="none" xmlns="http://www.w3.org/2000/svg">
<path d="M57.5699 0H7.42969V65H57.5699V0Z" fill="#DFDFE2"/>
<path d="M57.5699 13.082H7.42969V17.0616H57.5699V13.082Z" fill="#1DCF00"/>
<path d="M57.5703 0H32.4922V65H57.5703V0Z" fill="#D7D6D9"/>
<path d="M32.5004 22.1016C24.2351 22.1016 17.5107 28.8259 17.5107 37.0912C17.5107 45.3565 24.2351 52.0809 32.5004 52.0809C40.7656 52.0809 47.49 45.3565 47.49 37.0913C47.49 28.8259 40.7656 22.1016 32.5004 22.1016Z" fill="#1DCF00"/>
<path d="M57.5703 13.082H32.4922V17.0616H57.5703V13.082Z" fill="#0EAF00"/>
<path d="M47.4899 37.0913C47.4899 45.357 40.7657 52.081 32.5002 52.081H32.4922V22.1016H32.5002C40.7659 22.1016 47.4899 28.8258 47.4899 37.0913Z" fill="#0EAF00"/>
<path d="M32.4997 25.3359C25.9654 25.3359 20.6494 30.6518 20.6494 37.1861C20.6494 43.7204 25.9654 49.0362 32.4997 49.0362C39.034 49.0362 44.35 43.7203 44.35 37.186C44.3499 30.652 39.034 25.3359 32.4997 25.3359Z" fill="#57555C"/>
<path d="M44.3508 37.1861C44.3508 43.7207 39.035 49.0364 32.5005 49.0364H32.4941V25.3359H32.5005C39.0349 25.3359 44.3508 30.6518 44.3508 37.1861Z" fill="#3E3D43"/>
<path d="M47.7892 6.98047H44.8047V9.96501H47.7892V6.98047Z" fill="#42FE3E"/>
<path d="M42.2287 6.98047H39.2441V9.96501H42.2287V6.98047Z" fill="#42FE3E"/>
<path d="M49.8042 53.3242H42.7881V58.0361H49.8042V53.3242Z" fill="#57555C"/>
<path d="M49.8043 53.3242H46.1709V58.0361H49.8043V53.3242Z" fill="#3E3D43"/>
</svg>
