<svg width="65" height="65" viewBox="0 0 65 65" fill="none" xmlns="http://www.w3.org/2000/svg">
<g clip-path="url(#clip0_654_2801)">
<path d="M44.688 6.72266H31.6876C30.7397 6.72266 29.964 7.49821 29.964 8.4463V13.0377H16.4475V8.4463C16.4475 7.49834 15.672 6.72266 14.7239 6.72266H1.72364C0.775557 6.72266 0 7.49834 0 8.4463V27.5384C0 28.4864 0.775557 29.262 1.72364 29.262H14.724C15.672 29.262 16.4477 28.4865 16.4477 27.5384V22.947H29.9641V27.5384C29.9641 28.4864 30.7397 29.262 31.6878 29.262H44.6881C45.6361 29.262 46.4118 28.4865 46.4118 27.5384V8.4463C46.4115 7.49834 45.636 6.72266 44.688 6.72266Z" fill="#9CE0B8"/>
<path d="M1.72364 6.72266C0.775557 6.72266 0 7.49834 0 8.4463V27.5384C0 28.4864 0.775557 29.262 1.72364 29.262H5.00551V6.72266H1.72364Z" fill="#54CE8E"/>
<path d="M44.6876 6.72266H40.9023V29.2619H44.6876C45.6355 29.2619 46.4112 28.4864 46.4112 27.5383V8.4463C46.4111 7.49834 45.6355 6.72266 44.6876 6.72266Z" fill="#54CE8E"/>
<path d="M18.5544 13.0391H16.4473V22.9484H18.5544V13.0391Z" fill="#3EC579"/>
<path d="M30.032 13.0391H27.9248V22.9484H30.032V13.0391Z" fill="#3EC579"/>
<path opacity="0.37" d="M30.0319 20.4414H16.4473V22.9452H30.0319V20.4414Z" fill="#24763D"/>
<path d="M63.2427 35.7383H50.2423C49.2944 35.7383 48.5187 36.5138 48.5187 37.4619V42.0533H35.0024V37.4619C35.0024 36.514 34.2268 35.7383 33.2787 35.7383H20.2783C19.3304 35.7383 18.5547 36.5138 18.5547 37.4619V56.554C18.5547 57.502 19.3302 58.2777 20.2783 58.2777H33.2787C34.2267 58.2777 35.0024 57.5021 35.0024 56.554V51.9625H48.5188V56.5539C48.5188 57.5019 49.2944 58.2775 50.2424 58.2775H63.2428C64.1908 58.2775 64.9665 57.502 64.9665 56.5539V37.4618C64.9663 36.514 64.1907 35.7383 63.2427 35.7383Z" fill="#9CE0B8"/>
<path d="M20.2783 35.7383C19.3304 35.7383 18.5547 36.5138 18.5547 37.4619V56.554C18.5547 57.502 19.3302 58.2777 20.2783 58.2777H23.5603V35.7384H20.2783V35.7383Z" fill="#54CE8E"/>
<path d="M63.2423 35.7383H59.457V58.2775H63.2423C64.1902 58.2775 64.9659 57.502 64.9659 56.5539V37.4618C64.9659 36.514 64.1902 35.7383 63.2423 35.7383Z" fill="#54CE8E"/>
<path d="M37.1091 42.0547H35.002V51.964H37.1091V42.0547Z" fill="#3EC579"/>
<path d="M48.5857 42.0547H46.4785V51.964H48.5857V42.0547Z" fill="#3EC579"/>
<path opacity="0.37" d="M48.5866 49.457H35.002V51.9608H48.5866V49.457Z" fill="#24763D"/>
<g opacity="0.37">
<path d="M0 27.5554C0 28.5033 0.775557 29.279 1.72364 29.279H14.7239C15.6719 29.279 16.4475 28.5034 16.4475 27.5554V25.4844H0V27.5554Z" fill="#24763D"/>
<path d="M29.9639 25.4844V27.5554C29.9639 28.5033 30.7394 29.279 31.6875 29.279H44.6878C45.6357 29.279 46.4114 28.5034 46.4114 27.5554V25.4844H29.9639Z" fill="#24763D"/>
</g>
<g opacity="0.37">
<path d="M18.5889 56.5046C18.5889 57.4525 19.3644 58.2282 20.3125 58.2282H33.3128C34.2607 58.2282 35.0364 57.4527 35.0364 56.5046V54.4336H18.5889V56.5046Z" fill="#24763D"/>
<path d="M48.5527 54.4336V56.5046C48.5527 57.4525 49.3283 58.2282 50.2764 58.2282H63.2766C64.2246 58.2282 65.0003 57.4527 65.0003 56.5046V54.4336H48.5527Z" fill="#24763D"/>
</g>
</g>
<defs>
<clipPath id="clip0_654_2801">
<rect width="65" height="65" fill="white"/>
</clipPath>
</defs>
</svg>
