<svg width="65" height="65" viewBox="0 0 65 65" fill="none" xmlns="http://www.w3.org/2000/svg">
<path fill-rule="evenodd" clip-rule="evenodd" d="M12.125 2.98438C12.125 5.01562 12.125 7.04688 12.125 9.07812C9.41667 9.07812 6.70833 9.07812 4 9.07812C3.66145 9.07812 3.32292 9.07812 2.98438 9.07812C2.98438 7.04688 2.98438 5.01562 2.98438 2.98438C6.03125 2.98438 9.07812 2.98438 12.125 2.98438Z" fill="#40A437"/>
<path fill-rule="evenodd" clip-rule="evenodd" d="M12.125 2.98438C14.8333 2.98438 17.5417 2.98438 20.25 2.98438C20.25 5.01562 20.25 7.04688 20.25 9.07812C17.5417 9.07812 14.8333 9.07812 12.125 9.07812C12.125 7.04688 12.125 5.01562 12.125 2.98438Z" fill="#DADBDA"/>
<path fill-rule="evenodd" clip-rule="evenodd" d="M20.25 2.98438C22.9583 2.98438 25.6667 2.98438 28.375 2.98438C28.375 5.01562 28.375 7.04688 28.375 9.07812C25.6667 9.07812 22.9583 9.07812 20.25 9.07812C20.25 7.04688 20.25 5.01562 20.25 2.98438Z" fill="#40A437"/>
<path fill-rule="evenodd" clip-rule="evenodd" d="M28.375 2.98438C31.0833 2.98438 33.7917 2.98438 36.5 2.98438C36.5 5.01562 36.5 7.04688 36.5 9.07812C33.7917 9.07812 31.0833 9.07812 28.375 9.07812C28.375 7.04688 28.375 5.01562 28.375 2.98438Z" fill="#DADBDA"/>
<path fill-rule="evenodd" clip-rule="evenodd" d="M36.5 2.98438C39.2083 2.98438 41.9167 2.98438 44.625 2.98438C44.625 5.01562 44.625 7.04688 44.625 9.07812C41.9167 9.07812 39.2083 9.07812 36.5 9.07812C36.5 7.04688 36.5 5.01562 36.5 2.98438Z" fill="#40A437"/>
<path fill-rule="evenodd" clip-rule="evenodd" d="M44.625 2.98438C47.3333 2.98438 50.0417 2.98438 52.75 2.98438C52.75 5.01562 52.75 7.04688 52.75 9.07812C50.0417 9.07812 47.3333 9.07812 44.625 9.07812C44.625 7.04688 44.625 5.01562 44.625 2.98438Z" fill="#DADBDA"/>
<path fill-rule="evenodd" clip-rule="evenodd" d="M52.75 2.98438C55.7969 2.98438 58.8438 2.98438 61.8906 2.98438C61.8906 5.01562 61.8906 7.04688 61.8906 9.07812C61.552 9.07812 61.2136 9.07812 60.875 9.07812C58.1667 9.07812 55.4583 9.07812 52.75 9.07812C52.75 7.04688 52.75 5.01562 52.75 2.98438Z" fill="#40A437"/>
<path fill-rule="evenodd" clip-rule="evenodd" d="M4 9.07812C6.70833 9.07812 9.41667 9.07812 12.125 9.07812C12.125 9.92448 12.125 10.7708 12.125 11.6172C11.6731 13.8871 10.2766 15.0721 7.93555 15.1719C5.7352 14.9601 4.42335 13.7751 4 11.6172C4 10.7708 4 9.92448 4 9.07812Z" fill="#47CF55"/>
<path fill-rule="evenodd" clip-rule="evenodd" d="M12.125 9.07812C14.8333 9.07812 17.5417 9.07812 20.25 9.07812C20.25 9.92448 20.25 10.7708 20.25 11.6172C19.7885 13.9149 18.3708 15.0998 15.9971 15.1719C13.8305 14.9304 12.5398 13.7454 12.125 11.6172C12.125 10.7708 12.125 9.92448 12.125 9.07812Z" fill="#E3E3E1"/>
<path fill-rule="evenodd" clip-rule="evenodd" d="M20.25 9.07812C22.9583 9.07812 25.6667 9.07812 28.375 9.07812C28.375 9.92448 28.375 10.7708 28.375 11.6172C27.9232 13.8871 26.5267 15.0721 24.1855 15.1719C21.9852 14.9601 20.6734 13.7751 20.25 11.6172C20.25 10.7708 20.25 9.92448 20.25 9.07812Z" fill="#47CF55"/>
<path fill-rule="evenodd" clip-rule="evenodd" d="M28.375 9.07812C31.0833 9.07812 33.7917 9.07812 36.5 9.07812C36.5 9.92448 36.5 10.7708 36.5 11.6172C36.0385 13.9149 34.6208 15.0998 32.2471 15.1719C30.0805 14.9304 28.7898 13.7454 28.375 11.6172C28.375 10.7708 28.375 9.92448 28.375 9.07812Z" fill="#E3E3E1"/>
<path fill-rule="evenodd" clip-rule="evenodd" d="M36.5 9.07812C39.2083 9.07812 41.9167 9.07812 44.625 9.07812C44.625 9.92448 44.625 10.7708 44.625 11.6172C44.1732 13.8871 42.7767 15.0721 40.4355 15.1719C38.2352 14.9601 36.9234 13.7751 36.5 11.6172C36.5 10.7708 36.5 9.92448 36.5 9.07812Z" fill="#47CF55"/>
<path fill-rule="evenodd" clip-rule="evenodd" d="M44.625 9.07812C47.3333 9.07812 50.0417 9.07812 52.75 9.07812C52.75 9.92448 52.75 10.7708 52.75 11.6172C52.2885 13.9149 50.8708 15.0998 48.4971 15.1719C46.3305 14.9304 45.0398 13.7454 44.625 11.6172C44.625 10.7708 44.625 9.92448 44.625 9.07812Z" fill="#E3E3E1"/>
<path fill-rule="evenodd" clip-rule="evenodd" d="M52.75 9.07812C55.4583 9.07812 58.1667 9.07812 60.875 9.07812C60.875 9.92448 60.875 10.7708 60.875 11.6172C60.4232 13.8871 59.0267 15.0721 56.6855 15.1719C54.4852 14.9601 53.1734 13.7751 52.75 11.6172C52.75 10.7708 52.75 9.92448 52.75 9.07812Z" fill="#47CF55"/>
<path fill-rule="evenodd" clip-rule="evenodd" d="M4 11.6172C4.42335 13.7751 5.7352 14.9601 7.93555 15.1719C10.2766 15.0721 11.6731 13.8871 12.125 11.6172C12.5398 13.7454 13.8305 14.9304 15.9971 15.1719C18.3708 15.0998 19.7885 13.9149 20.25 11.6172C20.6734 13.7751 21.9852 14.9601 24.1855 15.1719C26.5267 15.0721 27.9232 13.8871 28.375 11.6172C28.7898 13.7454 30.0805 14.9304 32.2471 15.1719C34.6208 15.0998 36.0385 13.9149 36.5 11.6172C36.9234 13.7751 38.2352 14.9601 40.4355 15.1719C42.7767 15.0721 44.1732 13.8871 44.625 11.6172C45.0398 13.7454 46.3305 14.9304 48.4971 15.1719C50.8708 15.0998 52.2885 13.9149 52.75 11.6172C53.1734 13.7751 54.4852 14.9601 56.6855 15.1719C59.0267 15.0721 60.4232 13.8871 60.875 11.6172C60.875 28.7136 60.875 45.8099 60.875 62.9062C58.2937 62.9062 55.7122 62.9062 53.1309 62.9062C53.7638 62.4992 53.9119 61.9492 53.5752 61.2559C52.3446 60.215 51.1386 59.1571 49.957 58.082C50.9893 56.9862 52.0472 55.9071 53.1309 54.8447C53.8926 54.8025 54.6543 54.76 55.416 54.7178C56.3076 54.3565 56.7731 53.7005 56.8125 52.75C56.6877 51.5249 56.0105 50.8479 54.7812 50.7188C55.0232 48.4195 54.3885 46.4095 52.877 44.6885C52.5389 44.7078 52.3272 44.8982 52.2422 45.2598C50.9682 46.8407 50.4604 48.6605 50.7188 50.7188C49.2376 50.7188 47.7566 50.7188 46.2754 50.7188C46.3544 50.5757 46.4601 50.4487 46.5928 50.3379C46.6775 49.2376 46.6775 48.1374 46.5928 47.0371C46.4609 46.8835 46.3127 46.7565 46.1484 46.6562C46.3571 46.5527 46.5052 46.3833 46.5928 46.1484C46.7121 45.0351 46.6698 43.9349 46.4658 42.8477C46.3706 42.7682 46.2647 42.7047 46.1484 42.6572C44.4134 42.5725 42.6784 42.5725 40.9434 42.6572C40.8376 42.763 40.7317 42.8689 40.626 42.9746C40.5413 44.0325 40.5413 45.0905 40.626 46.1484C40.7136 46.3833 40.8616 46.5527 41.0703 46.6562C40.906 46.7565 40.7579 46.8835 40.626 47.0371C40.5413 48.1374 40.5413 49.2376 40.626 50.3379C40.9938 50.6846 41.4381 50.8116 41.959 50.7188C41.0935 51.119 40.628 51.7961 40.5625 52.75C40.7831 54.2808 41.6718 54.9578 43.2285 54.7812C43.5274 55.2067 43.9082 55.5453 44.3711 55.7969C45.1764 56.602 46.0226 57.3637 46.9102 58.082C45.8991 59.1567 44.8623 60.2146 43.7998 61.2559C43.4631 61.9492 43.6112 62.4992 44.2441 62.9062C41.6628 62.9062 39.0813 62.9062 36.5 62.9062C36.5 57.1511 36.5 51.3958 36.5 45.6406C36.5 44.9636 36.5 44.2864 36.5 43.6094C36.5212 37.727 36.5 31.8449 36.4365 25.9629C36.3178 25.6326 36.0851 25.4421 35.7383 25.3916C34.6389 25.3281 33.5386 25.3071 32.4375 25.3281C22.9583 25.3281 13.4792 25.3281 4 25.3281C4 20.7578 4 16.1875 4 11.6172Z" fill="#A8D5D9"/>
<path fill-rule="evenodd" clip-rule="evenodd" d="M52.1133 23.8041C51.8976 23.7838 51.686 23.8049 51.4785 23.8676C51.3225 24.4144 51.0263 24.8587 50.5898 25.2006C49.9698 24.8876 49.3138 24.6336 48.6221 24.4389C47.9624 24.6109 47.3487 24.8648 46.7812 25.2006C46.3448 24.8587 46.0486 24.4144 45.8926 23.8676C45.6851 23.8049 45.4735 23.7838 45.2578 23.8041C45.4348 23.5238 45.6887 23.3334 46.0195 23.2328C46.5598 23.0034 47.1099 22.813 47.6699 22.6616C47.6488 21.8141 47.6699 20.9678 47.7334 20.1225C48.4454 18.361 49.6938 17.832 51.4785 18.5356C52.6822 19.3092 52.9785 20.3249 52.3672 21.5825C51.3255 21.9816 50.7542 21.6219 50.6533 20.5034C50.3571 20.1648 50.0608 20.1648 49.7646 20.5034C49.6593 21.2265 49.6805 21.9459 49.8281 22.6616C50.4155 22.9067 51.008 23.1395 51.6055 23.3598C51.837 23.4436 52.0063 23.5917 52.1133 23.8041Z" fill="#8D7862"/>
<path fill-rule="evenodd" clip-rule="evenodd" d="M45.2578 23.8043C45.4735 23.784 45.6851 23.8051 45.8926 23.8678C46.0486 24.4146 46.3448 24.8589 46.7812 25.2008C47.2464 25.7291 47.8388 25.983 48.5586 25.9626C49.3682 26.0159 50.0452 25.762 50.5898 25.2008C51.0263 24.8589 51.3225 24.4146 51.4785 23.8678C51.686 23.8051 51.8976 23.784 52.1133 23.8043C52.752 23.9756 53.3445 24.2506 53.8906 24.6295C55.0985 25.8162 56.2834 27.0222 57.4453 28.2477C56.766 29.3539 56.0255 30.4119 55.2236 31.4215C54.5725 31.1064 53.9165 30.8101 53.2559 30.5329C53.2482 30.4639 53.206 30.4217 53.1289 30.4059C53.002 32.6049 52.9597 34.8053 53.002 37.0075C50.1243 37.0075 47.2468 37.0075 44.3691 37.0075C44.4114 34.8053 44.3691 32.6049 44.2422 30.4059C44.1651 30.4217 44.1229 30.4639 44.1152 30.5329C43.4546 30.8101 42.7986 31.1064 42.1475 31.4215C41.3456 30.4119 40.6051 29.3539 39.9258 28.2477C41.0877 27.0222 42.2726 25.8162 43.4805 24.6295C44.0279 24.25 44.6204 23.9748 45.2578 23.8043Z" fill="#57F23E"/>
<path fill-rule="evenodd" clip-rule="evenodd" d="M50.5898 25.1992C50.0452 25.7604 49.3682 26.0143 48.5586 25.9609C47.8388 25.9814 47.2464 25.7275 46.7812 25.1992C47.3487 24.8634 47.9624 24.6095 48.6221 24.4375C49.3138 24.6322 49.9698 24.8862 50.5898 25.1992Z" fill="#A9D3D5"/>
<path fill-rule="evenodd" clip-rule="evenodd" d="M4 25.3281C13.4792 25.3281 22.9583 25.3281 32.4375 25.3281C32.4375 26.6823 32.4375 28.0364 32.4375 29.3906C28.0364 29.3906 23.6355 29.3906 19.2344 29.3906C18.5573 29.3906 17.8802 29.3906 17.2031 29.3906C12.802 29.3906 8.40105 29.3906 4 29.3906C4 28.0364 4 26.6823 4 25.3281Z" fill="#8AFE77"/>
<path fill-rule="evenodd" clip-rule="evenodd" d="M32.4375 25.3282C33.5386 25.3071 34.6389 25.3282 35.7383 25.3917C36.0851 25.4422 36.3178 25.6326 36.4365 25.963C36.5 31.845 36.5212 37.7271 36.5 43.6095C35.1458 43.6095 33.7917 43.6095 32.4375 43.6095C32.4375 38.8699 32.4375 34.1303 32.4375 29.3907C32.4375 28.0365 32.4375 26.6824 32.4375 25.3282Z" fill="#47CF55"/>
<path fill-rule="evenodd" clip-rule="evenodd" d="M4 29.3906C8.40105 29.3906 12.802 29.3906 17.2031 29.3906C17.2031 34.1302 17.2031 38.8698 17.2031 43.6094C12.802 43.6094 8.40105 43.6094 4 43.6094C4 38.8698 4 34.1302 4 29.3906Z" fill="#8BE56C"/>
<path fill-rule="evenodd" clip-rule="evenodd" d="M17.2031 29.3906C17.8802 29.3906 18.5573 29.3906 19.2344 29.3906C19.2344 34.1302 19.2344 38.8698 19.2344 43.6094C18.5573 43.6094 17.8802 43.6094 17.2031 43.6094C17.2031 38.8698 17.2031 34.1302 17.2031 29.3906Z" fill="#47CF55"/>
<path fill-rule="evenodd" clip-rule="evenodd" d="M19.2344 29.3906C23.6355 29.3906 28.0364 29.3906 32.4375 29.3906C32.4375 34.1302 32.4375 38.8698 32.4375 43.6094C28.0364 43.6094 23.6355 43.6094 19.2344 43.6094C19.2344 38.8698 19.2344 34.1302 19.2344 29.3906Z" fill="#8BE56C"/>
<path fill-rule="evenodd" clip-rule="evenodd" d="M44.1172 30.5332C44.1248 30.4643 44.1671 30.422 44.2441 30.4062C44.3711 32.6052 44.4134 34.8057 44.3711 37.0078C44.2864 34.8496 44.2019 32.6914 44.1172 30.5332Z" fill="#D9BC72"/>
<path fill-rule="evenodd" clip-rule="evenodd" d="M53.2561 30.5332C53.1714 32.6914 53.0869 34.8496 53.0022 37.0078C52.9599 34.8057 53.0022 32.6052 53.1291 30.4062C53.2062 30.422 53.2485 30.4643 53.2561 30.5332Z" fill="#D9BC72"/>
<path fill-rule="evenodd" clip-rule="evenodd" d="M10.2207 32.4364C13.5042 32.3137 15.1334 33.8794 15.1084 37.1336C14.4543 39.6471 12.8251 40.7684 10.2207 40.4979C8.18297 39.8525 7.12503 38.456 7.04688 36.3084C7.25175 34.3087 8.30969 33.0179 10.2207 32.4364Z" fill="#8AFE77"/>
<path fill-rule="evenodd" clip-rule="evenodd" d="M24.4395 32.4364C27.723 32.3137 29.3522 33.8794 29.3271 37.1336C28.6731 39.6471 27.0439 40.7684 24.4395 40.4979C22.4017 39.8525 21.3438 38.456 21.2656 36.3084C21.4705 34.3087 22.5284 33.0179 24.4395 32.4364Z" fill="#8AFE77"/>
<path fill-rule="evenodd" clip-rule="evenodd" d="M10.4731 34.4662C12.527 34.424 13.3521 35.3972 12.9487 37.3861C12.2008 38.5379 11.2064 38.813 9.96527 38.2113C8.64276 36.7514 8.81204 35.503 10.4731 34.4662Z" fill="#3AA538"/>
<path fill-rule="evenodd" clip-rule="evenodd" d="M24.6918 34.4662C26.7457 34.424 27.5709 35.3972 27.1674 37.3861C26.4195 38.5379 25.4251 38.813 24.184 38.2113C22.8615 36.7514 23.0308 35.503 24.6918 34.4662Z" fill="#3AA538"/>
<path fill-rule="evenodd" clip-rule="evenodd" d="M46.1465 46.6563C44.4539 46.6563 42.7611 46.6563 41.0684 46.6563C40.8597 46.5527 40.7117 46.3833 40.6241 46.1485C40.5394 45.0906 40.5394 44.0325 40.6241 42.9746C40.7298 42.8689 40.8357 42.763 40.9414 42.6573C42.6765 42.5726 44.4114 42.5726 46.1465 42.6573C46.2628 42.7047 46.3687 42.7682 46.4639 42.8477C46.6679 43.9349 46.7102 45.0351 46.5909 46.1485C46.5033 46.3833 46.3552 46.5527 46.1465 46.6563Z" fill="#DB4D41"/>
<path fill-rule="evenodd" clip-rule="evenodd" d="M4 43.6094C8.40105 43.6094 12.802 43.6094 17.2031 43.6094C17.8802 43.6094 18.5573 43.6094 19.2344 43.6094C23.6355 43.6094 28.0364 43.6094 32.4375 43.6094C32.4375 44.2864 32.4375 44.9636 32.4375 45.6406C32.4375 46.3177 32.4375 46.9948 32.4375 47.6719C28.0364 47.6719 23.6355 47.6719 19.2344 47.6719C18.5573 47.6719 17.8802 47.6719 17.2031 47.6719C12.802 47.6719 8.40105 47.6719 4 47.6719C4 46.3177 4 44.9636 4 43.6094Z" fill="#8AFE77"/>
<path fill-rule="evenodd" clip-rule="evenodd" d="M32.4375 43.6094C33.7917 43.6094 35.1458 43.6094 36.5 43.6094C36.5 44.2864 36.5 44.9636 36.5 45.6406C35.1458 45.6406 33.7917 45.6406 32.4375 45.6406C32.4375 44.9636 32.4375 44.2864 32.4375 43.6094Z" fill="#40A437"/>
<path fill-rule="evenodd" clip-rule="evenodd" d="M54.7812 50.7178C54.4427 50.7178 54.1042 50.7178 53.7656 50.7178C54.0246 48.663 53.5168 46.8433 52.2422 45.2588C52.3272 44.8972 52.5389 44.7068 52.877 44.6875C54.3885 46.4085 55.0232 48.4185 54.7812 50.7178Z" fill="#6CBAE4"/>
<path fill-rule="evenodd" clip-rule="evenodd" d="M52.2411 45.2578C53.5157 46.8423 54.0235 48.6621 53.7646 50.7168C52.7489 50.7168 51.7333 50.7168 50.7177 50.7168C50.4593 48.6585 50.9671 46.8388 52.2411 45.2578Z" fill="#47CF55"/>
<path fill-rule="evenodd" clip-rule="evenodd" d="M32.4375 45.6406C33.7917 45.6406 35.1458 45.6406 36.5 45.6406C36.5 51.3958 36.5 57.1511 36.5 62.9062C35.1458 62.9062 33.7917 62.9062 32.4375 62.9062C32.4375 57.8281 32.4375 52.75 32.4375 47.6719C32.4375 46.9948 32.4375 46.3177 32.4375 45.6406Z" fill="#47CF55"/>
<path fill-rule="evenodd" clip-rule="evenodd" d="M41.0684 46.6562C42.7611 46.6562 44.4539 46.6562 46.1465 46.6562C46.3108 46.7565 46.4589 46.8835 46.5909 47.0371C46.6755 48.1374 46.6755 49.2376 46.5909 50.3379C46.4582 50.4487 46.3524 50.5757 46.2735 50.7188C44.8347 50.7188 43.3958 50.7188 41.9571 50.7188C41.4362 50.8116 40.9918 50.6846 40.6241 50.3379C40.5394 49.2376 40.5394 48.1374 40.6241 47.0371C40.756 46.8835 40.9041 46.7565 41.0684 46.6562Z" fill="#06B093"/>
<path fill-rule="evenodd" clip-rule="evenodd" d="M4 47.6719C8.40105 47.6719 12.802 47.6719 17.2031 47.6719C17.2031 52.75 17.2031 57.8281 17.2031 62.9062C12.802 62.9062 8.40105 62.9062 4 62.9062C4 57.8281 4 52.75 4 47.6719Z" fill="#8BE56C"/>
<path fill-rule="evenodd" clip-rule="evenodd" d="M17.2031 47.6719C17.8802 47.6719 18.5573 47.6719 19.2344 47.6719C19.2344 52.75 19.2344 57.8281 19.2344 62.9062C18.5573 62.9062 17.8802 62.9062 17.2031 62.9062C17.2031 57.8281 17.2031 52.75 17.2031 47.6719Z" fill="#47CF55"/>
<path fill-rule="evenodd" clip-rule="evenodd" d="M19.2344 47.6719C23.6355 47.6719 28.0364 47.6719 32.4375 47.6719C32.4375 52.75 32.4375 57.8281 32.4375 62.9062C28.0364 62.9062 23.6355 62.9062 19.2344 62.9062C19.2344 57.8281 19.2344 52.75 19.2344 47.6719Z" fill="#8BE56C"/>
<path fill-rule="evenodd" clip-rule="evenodd" d="M10.2207 50.7176C13.5042 50.595 15.1334 52.1607 15.1084 55.4149C14.4543 57.9283 12.8251 59.0497 10.2207 58.7791C8.18297 58.1337 7.12503 56.7372 7.04688 54.5897C7.25175 52.5899 8.30969 51.2992 10.2207 50.7176Z" fill="#8AFE77"/>
<path fill-rule="evenodd" clip-rule="evenodd" d="M24.4395 50.7176C27.723 50.595 29.3522 52.1607 29.3271 55.4149C28.6731 57.9283 27.0439 59.0497 24.4395 58.7791C22.4017 58.1337 21.3438 56.7372 21.2656 54.5897C21.4705 52.5899 22.5284 51.2992 24.4395 50.7176Z" fill="#8AFE77"/>
<path fill-rule="evenodd" clip-rule="evenodd" d="M41.959 50.7188C43.3977 50.7188 44.8366 50.7188 46.2754 50.7188C47.7566 50.7188 49.2376 50.7188 50.7188 50.7188C51.7344 50.7188 52.75 50.7188 53.7656 50.7188C54.1042 50.7188 54.4427 50.7188 54.7812 50.7188C56.0105 50.8479 56.6877 51.5249 56.8125 52.75C51.3958 52.75 45.9792 52.75 40.5625 52.75C40.628 51.7961 41.0935 51.119 41.959 50.7188Z" fill="#E9E9E7"/>
<path fill-rule="evenodd" clip-rule="evenodd" d="M40.5625 52.75C45.9792 52.75 51.3958 52.75 56.8125 52.75C56.7731 53.7005 56.3076 54.3565 55.416 54.7178C54.6543 54.76 53.8926 54.8025 53.1309 54.8447C52.0472 55.9071 50.9893 56.9862 49.957 58.082C49.4492 58.5052 48.9837 58.9707 48.5605 59.4785C47.3653 60.6745 46.138 61.8171 44.8789 62.9062C44.6673 62.9062 44.4558 62.9062 44.2441 62.9062C43.6112 62.4992 43.4631 61.9492 43.7998 61.2559C44.8623 60.2146 45.8991 59.1567 46.9102 58.082C47.418 57.6589 47.8835 57.1934 48.3066 56.6855C48.958 56.0978 49.5928 55.4842 50.2109 54.8447C48.8998 54.7812 47.588 54.7602 46.2754 54.7812C45.2598 54.7812 44.2441 54.7812 43.2285 54.7812C41.6718 54.9578 40.7831 54.2808 40.5625 52.75Z" fill="#DADADA"/>
<path fill-rule="evenodd" clip-rule="evenodd" d="M10.4731 52.7474C12.527 52.7053 13.3521 53.6785 12.9487 55.6673C12.2008 56.8192 11.2064 57.0943 9.96527 56.4925C8.64276 55.0327 8.81204 53.7842 10.4731 52.7474Z" fill="#3AA538"/>
<path fill-rule="evenodd" clip-rule="evenodd" d="M24.6918 52.7474C26.7457 52.7053 27.5709 53.6785 27.1674 55.6673C26.4195 56.8192 25.4251 57.0943 24.184 56.4925C22.8615 55.0327 23.0308 53.7842 24.6918 52.7474Z" fill="#3AA538"/>
<path fill-rule="evenodd" clip-rule="evenodd" d="M43.2266 54.7812C44.2422 54.7812 45.2578 54.7812 46.2734 54.7812C46.573 55.1655 46.9116 55.5041 47.2891 55.7969C46.3157 55.7969 45.3425 55.7969 44.3691 55.7969C43.9063 55.5453 43.5254 55.2067 43.2266 54.7812Z" fill="#878888"/>
<path fill-rule="evenodd" clip-rule="evenodd" d="M46.2734 54.7813C47.586 54.7603 48.8978 54.7813 50.209 54.8448C49.5908 55.4843 48.9561 56.0978 48.3047 56.6856C47.9694 56.3931 47.6308 56.0968 47.2891 55.797C46.9116 55.5042 46.573 55.1656 46.2734 54.7813Z" fill="#A8D5D9"/>
<path fill-rule="evenodd" clip-rule="evenodd" d="M44.3711 55.7969C45.3444 55.7969 46.3177 55.7969 47.291 55.7969C47.6328 56.0967 47.9714 56.393 48.3066 56.6855C47.8835 57.1934 47.418 57.6589 46.9102 58.082C46.0226 57.3637 45.1764 56.602 44.3711 55.7969Z" fill="#A8A8A8"/>
<path fill-rule="evenodd" clip-rule="evenodd" d="M49.9551 58.082C51.1366 59.1571 52.3427 60.215 53.5732 61.2559C53.9099 61.9492 53.7619 62.4992 53.1289 62.9062C52.875 62.9062 52.6211 62.9062 52.3672 62.9062C51.0977 61.7637 49.8281 60.6211 48.5586 59.4785C48.9817 58.9707 49.4473 58.5052 49.9551 58.082Z" fill="#A8A8A8"/>
<path fill-rule="evenodd" clip-rule="evenodd" d="M48.5605 59.4766C49.8301 60.6191 51.0996 61.7617 52.3691 62.9043C49.8724 62.9043 47.3757 62.9043 44.8789 62.9043C46.138 61.8152 47.3653 60.6726 48.5605 59.4766Z" fill="#A8D5D9"/>
</svg>
