<svg width="65" height="65" viewBox="0 0 65 65" fill="none" xmlns="http://www.w3.org/2000/svg">
<path d="M63.2899 0H1.71094V65H63.2899V0Z" fill="#D6D9DF"/>
<path d="M63.2899 0H1.71094V11.4035H63.2899V0Z" fill="#E7ECED"/>
<path d="M10.8329 3.42188H6.27148V7.98328H10.8329V3.42188Z" fill="#568055"/>
<path d="M18.8153 3.42188H14.2539V7.98328H18.8153V3.42188Z" fill="#568055"/>
<path d="M59.8684 3.42188H32.5V7.98328H59.8684V3.42188Z" fill="#A4CA83"/>
<path d="M57.5875 19.3867H7.41211V59.299H57.5875V19.3867Z" fill="#C2ECA1"/>
<path d="M7.41211 36.4922H57.5875" stroke="#81DA7F" stroke-width="2" stroke-miterlimit="10" stroke-linejoin="round"/>
<path d="M18.8157 36.49H11.9736V30.7882C11.9736 28.8987 13.5051 27.3672 15.3947 27.3672C17.2842 27.3672 18.8157 28.8987 18.8157 30.7882V36.49Z" fill="#81DA7F"/>
<path d="M13.1143 22.8086H17.6757" stroke="#81DA7F" stroke-width="2" stroke-miterlimit="10" stroke-linecap="round" stroke-linejoin="round"/>
<path d="M15.3945 22.8086V27.37" stroke="#81DA7F" stroke-width="2" stroke-miterlimit="10" stroke-linecap="round" stroke-linejoin="round"/>
<path d="M30.2191 36.49H23.377V30.7882C23.377 28.8987 24.9084 27.3672 26.798 27.3672C28.6876 27.3672 30.2191 28.8987 30.2191 30.7882V36.49Z" fill="#81DA7F"/>
<path d="M24.5176 22.8086H29.079" stroke="#81DA7F" stroke-width="2" stroke-miterlimit="10" stroke-linecap="round" stroke-linejoin="round"/>
<path d="M26.7979 22.8086V27.37" stroke="#81DA7F" stroke-width="2" stroke-miterlimit="10" stroke-linecap="round" stroke-linejoin="round"/>
<path d="M41.6224 36.49H34.7803V30.7882C34.7803 28.8987 36.3118 27.3672 38.2013 27.3672C40.0909 27.3672 41.6224 28.8987 41.6224 30.7882V36.49Z" fill="#81DA7F"/>
<path d="M35.9209 22.8086H40.4823" stroke="#81DA7F" stroke-width="2" stroke-miterlimit="10" stroke-linecap="round" stroke-linejoin="round"/>
<path d="M38.2021 22.8086V27.37" stroke="#81DA7F" stroke-width="2" stroke-miterlimit="10" stroke-linecap="round" stroke-linejoin="round"/>
<path d="M53.0267 36.49H46.1846V30.7882C46.1846 28.8987 47.7161 27.3672 49.6056 27.3672C51.4952 27.3672 53.0267 28.8987 53.0267 30.7882V36.49Z" fill="#81DA7F"/>
<path d="M47.3242 22.8086H51.8856" stroke="#81DA7F" stroke-width="2" stroke-miterlimit="10" stroke-linecap="round" stroke-linejoin="round"/>
<path d="M49.6055 22.8086V27.37" stroke="#81DA7F" stroke-width="2" stroke-miterlimit="10" stroke-linecap="round" stroke-linejoin="round"/>
<path d="M26.7981 54.735C26.7981 47.1779 20.671 41.0508 13.1139 41.0508C11.0761 41.0508 9.15 41.5081 7.41211 42.3074V59.2964H25.9804C26.4913 57.8675 26.7981 56.3406 26.7981 54.735Z" fill="#7ABC6F"/>
<path d="M22.2367 54.7361C22.2367 49.698 18.1519 45.6133 13.1139 45.6133C10.9552 45.6133 8.97439 46.3671 7.41211 47.6203V59.2975H21.0028C21.784 57.9553 22.2367 56.401 22.2367 54.7361Z" fill="#81DA7F"/>
<path d="M23.3768 41.0508C21.5682 41.0508 19.8566 41.4271 18.2783 42.0668C23.2742 44.1058 26.7979 49.0059 26.7979 54.735C26.7979 56.3406 26.4911 57.8675 25.9803 59.2964H36.2434C36.7543 57.8675 37.061 56.3406 37.061 54.735C37.061 47.1779 30.9339 41.0508 23.3768 41.0508Z" fill="#68B256"/>
<path d="M23.3769 45.6133C23.3495 45.6133 23.3233 45.6167 23.2959 45.6167C25.4671 48.0388 26.7979 51.2284 26.7979 54.7361C26.7979 56.3417 26.4912 57.8686 25.9803 59.2975H31.267C32.0481 57.9553 32.5008 56.401 32.5008 54.7361C32.4997 49.698 28.4149 45.6133 23.3769 45.6133Z" fill="#81DA7F"/>
<path d="M33.6405 41.0508C31.8319 41.0508 30.1202 41.4271 28.542 42.0668C33.5379 44.1058 37.0616 49.0059 37.0616 54.735C37.0616 56.3406 36.7548 57.8675 36.2439 59.2964H46.5071C47.018 57.8675 47.3247 56.3406 47.3247 54.735C47.3247 47.1779 41.1976 41.0508 33.6405 41.0508Z" fill="#7ABC6F"/>
<path d="M33.6405 45.6133C33.6132 45.6133 33.5869 45.6167 33.5596 45.6167C35.7308 48.0388 37.0616 51.2284 37.0616 54.7361C37.0616 56.3417 36.7548 57.8686 36.244 59.2975H41.5306C42.3118 57.9553 42.7645 56.401 42.7645 54.7361C42.7633 49.698 38.6786 45.6133 33.6405 45.6133Z" fill="#81DA7F"/>
<path d="M43.9032 41.0508C42.0946 41.0508 40.3829 41.4271 38.8047 42.0668C43.8006 44.1058 47.3243 49.0059 47.3243 54.735C47.3243 56.3406 47.0175 57.8675 46.5066 59.2964H56.7698C57.2807 57.8675 57.5874 56.3406 57.5874 54.735C57.5874 47.1779 51.4603 41.0508 43.9032 41.0508Z" fill="#68B256"/>
<path d="M43.9032 45.6133C43.8759 45.6133 43.8496 45.6167 43.8223 45.6167C45.9935 48.0388 47.3243 51.2284 47.3243 54.7361C47.3243 56.3417 47.0175 57.8686 46.5067 59.2975H51.7933C52.5745 57.9553 53.0272 56.401 53.0272 54.7361C53.026 49.698 48.9413 45.6133 43.9032 45.6133Z" fill="#81DA7F"/>
<path d="M58.7276 60.4391H6.27148V18.2461H58.7276V60.4391ZM8.55219 58.1584H56.4469V20.5268H8.55219V58.1584Z" fill="white"/>
</svg>
