<svg width="65" height="65" viewBox="0 0 65 65" fill="none" xmlns="http://www.w3.org/2000/svg">
<g clip-path="url(#clip0_654_2916)">
<path d="M65 0H0V65H65V0Z" fill="url(#paint0_linear_654_2916)"/>
<path d="M16.8103 62.7593C18.6671 62.7593 20.1724 61.254 20.1724 59.3972C20.1724 57.5404 18.6671 56.0352 16.8103 56.0352C14.9535 56.0352 13.4482 57.5404 13.4482 59.3972C13.4482 61.254 14.9535 62.7593 16.8103 62.7593Z" fill="#D1C17C"/>
<path d="M26.8962 62.7593C28.7531 62.7593 30.2583 61.254 30.2583 59.3972C30.2583 57.5404 28.7531 56.0352 26.8962 56.0352C25.0394 56.0352 23.5342 57.5404 23.5342 59.3972C23.5342 61.254 25.0394 62.7593 26.8962 62.7593Z" fill="#D1C17C"/>
<path d="M38.1033 62.7593C39.9601 62.7593 41.4653 61.254 41.4653 59.3972C41.4653 57.5404 39.9601 56.0352 38.1033 56.0352C36.2465 56.0352 34.7412 57.5404 34.7412 59.3972C34.7412 61.254 36.2465 62.7593 38.1033 62.7593Z" fill="#D1C17C"/>
<path d="M48.1892 62.7593C50.046 62.7593 51.5513 61.254 51.5513 59.3972C51.5513 57.5404 50.046 56.0352 48.1892 56.0352C46.3324 56.0352 44.8271 57.5404 44.8271 59.3972C44.8271 61.254 46.3324 62.7593 48.1892 62.7593Z" fill="#D1C17C"/>
<path d="M17.9315 26.8982C24.1209 26.8982 29.1384 21.8807 29.1384 15.6913C29.1384 9.50187 24.1209 4.48438 17.9315 4.48438C11.7421 4.48438 6.72461 9.50187 6.72461 15.6913C6.72461 21.8807 11.7421 26.8982 17.9315 26.8982Z" fill="#69F488" stroke="#69F488" stroke-width="2" stroke-miterlimit="10" stroke-linecap="round" stroke-linejoin="round"/>
<path d="M47.069 48.1888C52.0206 48.1888 56.0345 44.1748 56.0345 39.2233C56.0345 34.2718 52.0206 30.2578 47.069 30.2578C42.1175 30.2578 38.1035 34.2718 38.1035 39.2233C38.1035 44.1748 42.1175 48.1888 47.069 48.1888Z" fill="#69F488" stroke="#69F488" stroke-width="2" stroke-miterlimit="10" stroke-linecap="round" stroke-linejoin="round"/>
<path d="M11.2066 13.4484C11.8256 13.4484 12.3273 12.9467 12.3273 12.3277C12.3273 11.7088 11.8256 11.207 11.2066 11.207C10.5877 11.207 10.0859 11.7088 10.0859 12.3277C10.0859 12.9467 10.5877 13.4484 11.2066 13.4484Z" fill="#305124"/>
<path d="M17.9312 13.4484C18.5502 13.4484 19.0519 12.9467 19.0519 12.3277C19.0519 11.7088 18.5502 11.207 17.9312 11.207C17.3123 11.207 16.8105 11.7088 16.8105 12.3277C16.8105 12.9467 17.3123 13.4484 17.9312 13.4484Z" fill="#305124"/>
<path d="M14.5689 10.0851C15.1879 10.0851 15.6896 9.58338 15.6896 8.96444C15.6896 8.3455 15.1879 7.84375 14.5689 7.84375C13.95 7.84375 13.4482 8.3455 13.4482 8.96444C13.4482 9.58338 13.95 10.0851 14.5689 10.0851Z" fill="#305124"/>
<path d="M21.2935 10.0851C21.9125 10.0851 22.4142 9.58338 22.4142 8.96444C22.4142 8.3455 21.9125 7.84375 21.2935 7.84375C20.6746 7.84375 20.1729 8.3455 20.1729 8.96444C20.1729 9.58338 20.6746 10.0851 21.2935 10.0851Z" fill="#305124"/>
<path d="M14.5689 16.8117C15.1879 16.8117 15.6896 16.3099 15.6896 15.691C15.6896 15.0721 15.1879 14.5703 14.5689 14.5703C13.95 14.5703 13.4482 15.0721 13.4482 15.691C13.4482 16.3099 13.95 16.8117 14.5689 16.8117Z" fill="#305124"/>
<path d="M21.2935 16.8117C21.9125 16.8117 22.4142 16.3099 22.4142 15.691C22.4142 15.0721 21.9125 14.5703 21.2935 14.5703C20.6746 14.5703 20.1729 15.0721 20.1729 15.691C20.1729 16.3099 20.6746 16.8117 21.2935 16.8117Z" fill="#305124"/>
<path d="M24.6549 13.4484C25.2738 13.4484 25.7756 12.9467 25.7756 12.3277C25.7756 11.7088 25.2738 11.207 24.6549 11.207C24.0359 11.207 23.5342 11.7088 23.5342 12.3277C23.5342 12.9467 24.0359 13.4484 24.6549 13.4484Z" fill="#305124"/>
<path d="M28.0172 16.8117C28.6361 16.8117 29.1379 16.3099 29.1379 15.691C29.1379 15.0721 28.6361 14.5703 28.0172 14.5703C27.3982 14.5703 26.8965 15.0721 26.8965 15.691C26.8965 16.3099 27.3982 16.8117 28.0172 16.8117Z" fill="#305124"/>
<path d="M7.8453 16.8117C8.46424 16.8117 8.96599 16.3099 8.96599 15.691C8.96599 15.0721 8.46424 14.5703 7.8453 14.5703C7.22636 14.5703 6.72461 15.0721 6.72461 15.691C6.72461 16.3099 7.22636 16.8117 7.8453 16.8117Z" fill="#305124"/>
<path d="M43.7066 36.9836C44.3256 36.9836 44.8273 36.4818 44.8273 35.8629C44.8273 35.2439 44.3256 34.7422 43.7066 34.7422C43.0877 34.7422 42.5859 35.2439 42.5859 35.8629C42.5859 36.4818 43.0877 36.9836 43.7066 36.9836Z" fill="#305124"/>
<path d="M47.0689 33.6203C47.6879 33.6203 48.1896 33.1185 48.1896 32.4996C48.1896 31.8807 47.6879 31.3789 47.0689 31.3789C46.45 31.3789 45.9482 31.8807 45.9482 32.4996C45.9482 33.1185 46.45 33.6203 47.0689 33.6203Z" fill="#305124"/>
<path d="M40.3453 40.3429C40.9642 40.3429 41.466 39.8412 41.466 39.2223C41.466 38.6033 40.9642 38.1016 40.3453 38.1016C39.7264 38.1016 39.2246 38.6033 39.2246 39.2223C39.2246 39.8412 39.7264 40.3429 40.3453 40.3429Z" fill="#305124"/>
<path d="M47.0689 40.3429C47.6879 40.3429 48.1896 39.8412 48.1896 39.2223C48.1896 38.6033 47.6879 38.1016 47.0689 38.1016C46.45 38.1016 45.9482 38.6033 45.9482 39.2223C45.9482 39.8412 46.45 40.3429 47.0689 40.3429Z" fill="#305124"/>
<path d="M50.4312 36.9836C51.0502 36.9836 51.5519 36.4818 51.5519 35.8629C51.5519 35.2439 51.0502 34.7422 50.4312 34.7422C49.8123 34.7422 49.3105 35.2439 49.3105 35.8629C49.3105 36.4818 49.8123 36.9836 50.4312 36.9836Z" fill="#305124"/>
<path d="M53.7935 40.3429C54.4125 40.3429 54.9142 39.8412 54.9142 39.2223C54.9142 38.6033 54.4125 38.1016 53.7935 38.1016C53.1746 38.1016 52.6729 38.6033 52.6729 39.2223C52.6729 39.8412 53.1746 40.3429 53.7935 40.3429Z" fill="#305124"/>
<path d="M11.2066 20.1711C11.8256 20.1711 12.3273 19.6693 12.3273 19.0504C12.3273 18.4314 11.8256 17.9297 11.2066 17.9297C10.5877 17.9297 10.0859 18.4314 10.0859 19.0504C10.0859 19.6693 10.5877 20.1711 11.2066 20.1711Z" fill="#305124"/>
<path d="M17.9312 20.1711C18.5502 20.1711 19.0519 19.6693 19.0519 19.0504C19.0519 18.4314 18.5502 17.9297 17.9312 17.9297C17.3123 17.9297 16.8105 18.4314 16.8105 19.0504C16.8105 19.6693 17.3123 20.1711 17.9312 20.1711Z" fill="#305124"/>
<path d="M17.9312 26.8976C18.5502 26.8976 19.0519 26.3959 19.0519 25.7769C19.0519 25.158 18.5502 24.6562 17.9312 24.6562C17.3123 24.6562 16.8105 25.158 16.8105 25.7769C16.8105 26.3959 17.3123 26.8976 17.9312 26.8976Z" fill="#305124"/>
<path d="M17.9312 6.72575C18.5502 6.72575 19.0519 6.224 19.0519 5.60506C19.0519 4.98612 18.5502 4.48438 17.9312 4.48438C17.3123 4.48438 16.8105 4.98612 16.8105 5.60506C16.8105 6.224 17.3123 6.72575 17.9312 6.72575Z" fill="#305124"/>
<path d="M14.5689 23.5343C15.1879 23.5343 15.6896 23.0326 15.6896 22.4137C15.6896 21.7947 15.1879 21.293 14.5689 21.293C13.95 21.293 13.4482 21.7947 13.4482 22.4137C13.4482 23.0326 13.95 23.5343 14.5689 23.5343Z" fill="#305124"/>
<path d="M21.2935 23.5343C21.9125 23.5343 22.4142 23.0326 22.4142 22.4137C22.4142 21.7947 21.9125 21.293 21.2935 21.293C20.6746 21.293 20.1729 21.7947 20.1729 22.4137C20.1729 23.0326 20.6746 23.5343 21.2935 23.5343Z" fill="#305124"/>
<path d="M24.6549 20.1711C25.2738 20.1711 25.7756 19.6693 25.7756 19.0504C25.7756 18.4314 25.2738 17.9297 24.6549 17.9297C24.0359 17.9297 23.5342 18.4314 23.5342 19.0504C23.5342 19.6693 24.0359 20.1711 24.6549 20.1711Z" fill="#305124"/>
<path d="M47.0692 26.8982C53.2586 26.8982 58.2761 21.8807 58.2761 15.6913C58.2761 9.50187 53.2586 4.48438 47.0692 4.48438C40.8798 4.48438 35.8623 9.50187 35.8623 15.6913C35.8623 21.8807 40.8798 26.8982 47.0692 26.8982Z" fill="#69F488" stroke="#69F488" stroke-width="2" stroke-miterlimit="10" stroke-linecap="round" stroke-linejoin="round"/>
<path d="M40.3453 13.4484C40.9642 13.4484 41.466 12.9467 41.466 12.3277C41.466 11.7088 40.9642 11.207 40.3453 11.207C39.7264 11.207 39.2246 11.7088 39.2246 12.3277C39.2246 12.9467 39.7264 13.4484 40.3453 13.4484Z" fill="#305124"/>
<path d="M47.0689 13.4484C47.6879 13.4484 48.1896 12.9467 48.1896 12.3277C48.1896 11.7088 47.6879 11.207 47.0689 11.207C46.45 11.207 45.9482 11.7088 45.9482 12.3277C45.9482 12.9467 46.45 13.4484 47.0689 13.4484Z" fill="#305124"/>
<path d="M43.7066 10.0851C44.3256 10.0851 44.8273 9.58338 44.8273 8.96444C44.8273 8.3455 44.3256 7.84375 43.7066 7.84375C43.0877 7.84375 42.5859 8.3455 42.5859 8.96444C42.5859 9.58338 43.0877 10.0851 43.7066 10.0851Z" fill="#305124"/>
<path d="M50.4312 10.0851C51.0502 10.0851 51.5519 9.58338 51.5519 8.96444C51.5519 8.3455 51.0502 7.84375 50.4312 7.84375C49.8123 7.84375 49.3105 8.3455 49.3105 8.96444C49.3105 9.58338 49.8123 10.0851 50.4312 10.0851Z" fill="#305124"/>
<path d="M43.7066 16.8117C44.3256 16.8117 44.8273 16.3099 44.8273 15.691C44.8273 15.0721 44.3256 14.5703 43.7066 14.5703C43.0877 14.5703 42.5859 15.0721 42.5859 15.691C42.5859 16.3099 43.0877 16.8117 43.7066 16.8117Z" fill="#305124"/>
<path d="M50.4312 16.8117C51.0502 16.8117 51.5519 16.3099 51.5519 15.691C51.5519 15.0721 51.0502 14.5703 50.4312 14.5703C49.8123 14.5703 49.3105 15.0721 49.3105 15.691C49.3105 16.3099 49.8123 16.8117 50.4312 16.8117Z" fill="#305124"/>
<path d="M53.7935 13.4484C54.4125 13.4484 54.9142 12.9467 54.9142 12.3277C54.9142 11.7088 54.4125 11.207 53.7935 11.207C53.1746 11.207 52.6729 11.7088 52.6729 12.3277C52.6729 12.9467 53.1746 13.4484 53.7935 13.4484Z" fill="#305124"/>
<path d="M57.1549 16.8117C57.7738 16.8117 58.2756 16.3099 58.2756 15.691C58.2756 15.0721 57.7738 14.5703 57.1549 14.5703C56.5359 14.5703 56.0342 15.0721 56.0342 15.691C56.0342 16.3099 56.5359 16.8117 57.1549 16.8117Z" fill="#305124"/>
<path d="M36.983 16.8117C37.6019 16.8117 38.1037 16.3099 38.1037 15.691C38.1037 15.0721 37.6019 14.5703 36.983 14.5703C36.3641 14.5703 35.8623 15.0721 35.8623 15.691C35.8623 16.3099 36.3641 16.8117 36.983 16.8117Z" fill="#305124"/>
<path d="M40.3453 20.1711C40.9642 20.1711 41.466 19.6693 41.466 19.0504C41.466 18.4314 40.9642 17.9297 40.3453 17.9297C39.7264 17.9297 39.2246 18.4314 39.2246 19.0504C39.2246 19.6693 39.7264 20.1711 40.3453 20.1711Z" fill="#305124"/>
<path d="M47.0689 20.1711C47.6879 20.1711 48.1896 19.6693 48.1896 19.0504C48.1896 18.4314 47.6879 17.9297 47.0689 17.9297C46.45 17.9297 45.9482 18.4314 45.9482 19.0504C45.9482 19.6693 46.45 20.1711 47.0689 20.1711Z" fill="#305124"/>
<path d="M47.0689 26.8976C47.6879 26.8976 48.1896 26.3959 48.1896 25.7769C48.1896 25.158 47.6879 24.6562 47.0689 24.6562C46.45 24.6562 45.9482 25.158 45.9482 25.7769C45.9482 26.3959 46.45 26.8976 47.0689 26.8976Z" fill="#305124"/>
<path d="M47.0689 6.72575C47.6879 6.72575 48.1896 6.224 48.1896 5.60506C48.1896 4.98612 47.6879 4.48438 47.0689 4.48438C46.45 4.48438 45.9482 4.98612 45.9482 5.60506C45.9482 6.224 46.45 6.72575 47.0689 6.72575Z" fill="#305124"/>
<path d="M43.7066 23.5343C44.3256 23.5343 44.8273 23.0326 44.8273 22.4137C44.8273 21.7947 44.3256 21.293 43.7066 21.293C43.0877 21.293 42.5859 21.7947 42.5859 22.4137C42.5859 23.0326 43.0877 23.5343 43.7066 23.5343Z" fill="#305124"/>
<path d="M50.4312 23.5343C51.0502 23.5343 51.5519 23.0326 51.5519 22.4137C51.5519 21.7947 51.0502 21.293 50.4312 21.293C49.8123 21.293 49.3105 21.7947 49.3105 22.4137C49.3105 23.0326 49.8123 23.5343 50.4312 23.5343Z" fill="#305124"/>
<path d="M53.7935 20.1711C54.4125 20.1711 54.9142 19.6693 54.9142 19.0504C54.9142 18.4314 54.4125 17.9297 53.7935 17.9297C53.1746 17.9297 52.6729 18.4314 52.6729 19.0504C52.6729 19.6693 53.1746 20.1711 53.7935 20.1711Z" fill="#305124"/>
<path d="M43.7066 43.7062C44.3256 43.7062 44.8273 43.2045 44.8273 42.5855C44.8273 41.9666 44.3256 41.4648 43.7066 41.4648C43.0877 41.4648 42.5859 41.9666 42.5859 42.5855C42.5859 43.2045 43.0877 43.7062 43.7066 43.7062Z" fill="#305124"/>
<path d="M47.0689 47.0695C47.6879 47.0695 48.1896 46.5678 48.1896 45.9488C48.1896 45.3299 47.6879 44.8281 47.0689 44.8281C46.45 44.8281 45.9482 45.3299 45.9482 45.9488C45.9482 46.5678 46.45 47.0695 47.0689 47.0695Z" fill="#305124"/>
<path d="M50.4312 43.7062C51.0502 43.7062 51.5519 43.2045 51.5519 42.5855C51.5519 41.9666 51.0502 41.4648 50.4312 41.4648C49.8123 41.4648 49.3105 41.9666 49.3105 42.5855C49.3105 43.2045 49.8123 43.7062 50.4312 43.7062Z" fill="#305124"/>
<path d="M17.9313 48.1888C22.8829 48.1888 26.8969 44.1748 26.8969 39.2233C26.8969 34.2718 22.8829 30.2578 17.9313 30.2578C12.9798 30.2578 8.96582 34.2718 8.96582 39.2233C8.96582 44.1748 12.9798 48.1888 17.9313 48.1888Z" fill="#69F488" stroke="#69F488" stroke-width="2" stroke-miterlimit="10" stroke-linecap="round" stroke-linejoin="round"/>
<path d="M14.5689 36.9836C15.1879 36.9836 15.6896 36.4818 15.6896 35.8629C15.6896 35.2439 15.1879 34.7422 14.5689 34.7422C13.95 34.7422 13.4482 35.2439 13.4482 35.8629C13.4482 36.4818 13.95 36.9836 14.5689 36.9836Z" fill="#305124"/>
<path d="M17.9312 33.6203C18.5502 33.6203 19.0519 33.1185 19.0519 32.4996C19.0519 31.8807 18.5502 31.3789 17.9312 31.3789C17.3123 31.3789 16.8105 31.8807 16.8105 32.4996C16.8105 33.1185 17.3123 33.6203 17.9312 33.6203Z" fill="#305124"/>
<path d="M11.2066 40.3429C11.8256 40.3429 12.3273 39.8412 12.3273 39.2223C12.3273 38.6033 11.8256 38.1016 11.2066 38.1016C10.5877 38.1016 10.0859 38.6033 10.0859 39.2223C10.0859 39.8412 10.5877 40.3429 11.2066 40.3429Z" fill="#305124"/>
<path d="M17.9312 40.3429C18.5502 40.3429 19.0519 39.8412 19.0519 39.2223C19.0519 38.6033 18.5502 38.1016 17.9312 38.1016C17.3123 38.1016 16.8105 38.6033 16.8105 39.2223C16.8105 39.8412 17.3123 40.3429 17.9312 40.3429Z" fill="#305124"/>
<path d="M21.2935 36.9836C21.9125 36.9836 22.4142 36.4818 22.4142 35.8629C22.4142 35.2439 21.9125 34.7422 21.2935 34.7422C20.6746 34.7422 20.1729 35.2439 20.1729 35.8629C20.1729 36.4818 20.6746 36.9836 21.2935 36.9836Z" fill="#305124"/>
<path d="M24.6549 40.3429C25.2738 40.3429 25.7756 39.8412 25.7756 39.2223C25.7756 38.6033 25.2738 38.1016 24.6549 38.1016C24.0359 38.1016 23.5342 38.6033 23.5342 39.2223C23.5342 39.8412 24.0359 40.3429 24.6549 40.3429Z" fill="#305124"/>
<path d="M14.5689 43.7062C15.1879 43.7062 15.6896 43.2045 15.6896 42.5855C15.6896 41.9666 15.1879 41.4648 14.5689 41.4648C13.95 41.4648 13.4482 41.9666 13.4482 42.5855C13.4482 43.2045 13.95 43.7062 14.5689 43.7062Z" fill="#305124"/>
<path d="M17.9312 47.0695C18.5502 47.0695 19.0519 46.5678 19.0519 45.9488C19.0519 45.3299 18.5502 44.8281 17.9312 44.8281C17.3123 44.8281 16.8105 45.3299 16.8105 45.9488C16.8105 46.5678 17.3123 47.0695 17.9312 47.0695Z" fill="#305124"/>
<path d="M21.2935 43.7062C21.9125 43.7062 22.4142 43.2045 22.4142 42.5855C22.4142 41.9666 21.9125 41.4648 21.2935 41.4648C20.6746 41.4648 20.1729 41.9666 20.1729 42.5855C20.1729 43.2045 20.6746 43.7062 21.2935 43.7062Z" fill="#305124"/>
<path d="M16.8103 60.5171C18.6671 60.5171 20.1724 59.0119 20.1724 57.155C20.1724 55.2982 18.6671 53.793 16.8103 53.793C14.9535 53.793 13.4482 55.2982 13.4482 57.155C13.4482 59.0119 14.9535 60.5171 16.8103 60.5171Z" fill="#F2ECBF"/>
<path d="M26.8962 60.5171C28.7531 60.5171 30.2583 59.0119 30.2583 57.155C30.2583 55.2982 28.7531 53.793 26.8962 53.793C25.0394 53.793 23.5342 55.2982 23.5342 57.155C23.5342 59.0119 25.0394 60.5171 26.8962 60.5171Z" fill="#F2ECBF"/>
<path d="M38.1033 60.5171C39.9601 60.5171 41.4653 59.0119 41.4653 57.155C41.4653 55.2982 39.9601 53.793 38.1033 53.793C36.2465 53.793 34.7412 55.2982 34.7412 57.155C34.7412 59.0119 36.2465 60.5171 38.1033 60.5171Z" fill="#F2ECBF"/>
<path d="M48.1892 60.5171C50.046 60.5171 51.5513 59.0119 51.5513 57.155C51.5513 55.2982 50.046 53.793 48.1892 53.793C46.3324 53.793 44.8271 55.2982 44.8271 57.155C44.8271 59.0119 46.3324 60.5171 48.1892 60.5171Z" fill="#F2ECBF"/>
</g>
<defs>
<linearGradient id="paint0_linear_654_2916" x1="32.5" y1="0" x2="32.5" y2="65" gradientUnits="userSpaceOnUse">
<stop offset="0.619792" stop-color="#16D3B1"/>
<stop offset="1" stop-color="#00FF01"/>
</linearGradient>
<clipPath id="clip0_654_2916">
<rect width="65" height="65" fill="white"/>
</clipPath>
</defs>
</svg>
