<svg width="65" height="65" viewBox="0 0 65 65" fill="none" xmlns="http://www.w3.org/2000/svg">
<g clip-path="url(#clip0_663_6733)">
<path opacity="0.988" fill-rule="evenodd" clip-rule="evenodd" d="M12.6328 1.71496C9.81906 4.21117 8.38026 7.34268 8.31641 11.1095C6.11589 11.1095 3.91536 11.1095 1.71484 11.1095C0.873127 10.8176 0.280678 10.2675 -0.0625 9.4591C-0.0625 7.47017 -0.0625 5.48124 -0.0625 3.49231C0.303464 2.64049 0.93823 2.0692 1.8418 1.77844C5.43856 1.71496 9.03556 1.69381 12.6328 1.71496Z" fill="#71FF5A"/>
<path opacity="0.992" fill-rule="evenodd" clip-rule="evenodd" d="M12.6328 1.71425C21.2713 1.65249 29.9042 1.71596 38.5312 1.90468C39.2372 2.2299 39.7238 2.75887 39.9912 3.49159C40.0759 5.48053 40.0759 7.46945 39.9912 9.45839C39.6925 10.2435 39.1635 10.7937 38.4043 11.1088C28.375 11.1088 18.3457 11.1088 8.31641 11.1088C8.38026 7.34197 9.81906 4.21045 12.6328 1.71425Z" fill="#88FF86"/>
<path opacity="0.999" fill-rule="evenodd" clip-rule="evenodd" d="M1.71484 11.1094C3.91536 11.1094 6.11589 11.1094 8.31641 11.1094C8.31641 19.5306 8.31641 27.9519 8.31641 36.373C6.1783 36.3312 4.06241 36.3734 1.96875 36.5C1.92644 36.5 1.88411 36.5 1.8418 36.5C0.932411 36.2678 0.297646 35.7176 -0.0625 34.8496C-0.0625 27.5286 -0.0625 20.2077 -0.0625 12.8867C0.318359 12.0827 0.910808 11.4902 1.71484 11.1094Z" fill="#71FE77"/>
<path opacity="0.997" fill-rule="evenodd" clip-rule="evenodd" d="M8.31641 11.1094C18.3457 11.1094 28.375 11.1094 38.4043 11.1094C39.2011 11.3348 39.7301 11.8426 39.9912 12.6328C40.0547 16.9067 40.0759 21.1808 40.0547 25.4551C39.2264 26.8984 38.3166 28.2949 37.3252 29.6445C37.1066 30.7571 37.5509 31.3919 38.6582 31.5488C37.8567 31.9061 37.2855 32.4986 36.9443 33.3262C36.8809 34.3409 36.8598 35.3565 36.8809 36.373C34.1929 36.331 31.5269 36.3734 28.8828 36.5C28.8405 36.5 28.7981 36.5 28.7559 36.5C27.849 36.2922 27.2355 35.742 26.915 34.8496C26.8973 32.6456 26.8126 30.4451 26.6611 28.248C25.7728 24.7997 23.5512 22.9379 19.9961 22.6621C16.7328 22.8862 14.5534 24.5366 13.458 27.6133C13.3319 28.1137 13.2473 28.6215 13.2041 29.1367C13.1618 31.041 13.1194 32.9453 13.0771 34.8496C12.7491 35.7399 12.1355 36.29 11.2363 36.5C10.274 36.3774 9.30067 36.3351 8.31641 36.373C8.31641 27.9519 8.31641 19.5306 8.31641 11.1094Z" fill="#9FFBAE"/>
<path fill-rule="evenodd" clip-rule="evenodd" d="M11.7422 15.044C12.3941 14.9076 12.8807 15.1193 13.2022 15.6787C13.2868 16.3558 13.2868 17.033 13.2022 17.71C12.5494 18.7139 11.9147 18.7139 11.2979 17.71C11.2132 17.033 11.2132 16.3558 11.2979 15.6787C11.4245 15.4473 11.5726 15.2357 11.7422 15.044Z" fill="#414958"/>
<path fill-rule="evenodd" clip-rule="evenodd" d="M27.2305 15.044C27.8824 14.9076 28.369 15.1193 28.6905 15.6787C28.7751 16.3558 28.7751 17.033 28.6905 17.71C28.0443 18.712 27.4095 18.712 26.7862 17.71C26.7015 17.033 26.7015 16.3558 26.7862 15.6787C26.9127 15.4473 27.0609 15.2357 27.2305 15.044Z" fill="#414958"/>
<path fill-rule="evenodd" clip-rule="evenodd" d="M17.5829 16.4411C17.7986 16.4208 18.0102 16.4418 18.2177 16.5045C19.3694 17.5979 20.512 17.5979 21.6454 16.5045C22.5776 16.3791 23.022 16.7812 22.9784 17.7106C22.0539 18.9786 20.8056 19.5076 19.2333 19.2975C18.3996 19.0607 17.7014 18.6164 17.1386 17.9645C16.8159 17.3121 16.9639 16.8043 17.5829 16.4411Z" fill="#3F4757"/>
<path opacity="0.992" fill-rule="evenodd" clip-rule="evenodd" d="M56.8125 31.5494C52.1575 31.5494 47.5026 31.5494 42.8477 31.5494C42.8477 28.2063 42.8477 24.8631 42.8477 21.5201C43.8152 20.0305 44.8308 18.5706 45.8945 17.1402C47.007 16.4305 48.1496 16.3883 49.3223 17.0133C52.2281 21.0618 55.0845 25.1455 57.8916 29.2642C58.3476 30.0438 58.2417 30.7421 57.5742 31.359C57.34 31.5022 57.0861 31.5656 56.8125 31.5494Z" fill="#8EFE99"/>
<path opacity="0.995" fill-rule="evenodd" clip-rule="evenodd" d="M42.8461 21.5195C42.8461 24.8626 42.8461 28.2058 42.8461 31.5488C41.4496 31.5488 40.0531 31.5488 38.6566 31.5488C37.5493 31.3919 37.105 30.7571 37.3236 29.6445C38.315 28.2949 39.2248 26.8984 40.0531 25.4551C40.984 24.1433 41.9151 22.8313 42.8461 21.5195Z" fill="#66EA5B"/>
<path fill-rule="evenodd" clip-rule="evenodd" d="M38.6563 31.5469C40.0528 31.5469 41.4493 31.5469 42.8458 31.5469C42.8458 38.3177 42.8458 45.0886 42.8458 51.8594C41.4064 51.8806 39.9675 51.8594 38.5294 51.7959C37.5645 51.3604 37.0145 50.6199 36.879 49.5742C36.879 45.1731 36.879 40.7722 36.879 36.3711C36.8579 35.3546 36.879 34.339 36.9425 33.3242C37.2836 32.4966 37.8549 31.9041 38.6563 31.5469Z" fill="#00CE8E"/>
<path opacity="0.995" fill-rule="evenodd" clip-rule="evenodd" d="M42.8477 31.5469C47.5026 31.5469 52.1575 31.5469 56.8125 31.5469C57.7226 31.9287 58.2939 32.6059 58.5264 33.5781C58.611 39.0371 58.611 44.4961 58.5264 49.9551C58.2457 50.8062 57.7167 51.4409 56.9395 51.8594C56.7702 51.8594 56.6009 51.8594 56.4316 51.8594C51.9036 51.8594 47.3757 51.8594 42.8477 51.8594C42.8477 45.0886 42.8477 38.3177 42.8477 31.5469Z" fill="#60DAA8"/>
<path opacity="0.998" fill-rule="evenodd" clip-rule="evenodd" d="M1.8418 36.5C1.88411 36.5 1.92644 36.5 1.96875 36.5C4.08464 36.5 6.20052 36.5 8.31641 36.5C8.29524 42.4669 8.31641 48.4337 8.37988 54.4004C9.25399 54.6468 10.1638 54.7315 11.1094 54.6543C10.2444 54.7801 9.35572 54.8225 8.44336 54.7812C6.24284 54.7812 4.04231 54.7812 1.8418 54.7812C0.964078 54.4538 0.329313 53.8613 -0.0625 53.0039C-0.0625 48.0527 -0.0625 43.1016 -0.0625 38.1504C0.296947 37.2832 0.931713 36.7331 1.8418 36.5Z" fill="#58FB2F"/>
<path opacity="0.995" fill-rule="evenodd" clip-rule="evenodd" d="M1.96875 36.4981C4.06241 36.3715 6.1783 36.3292 8.31641 36.3711C9.30067 36.3331 10.274 36.3754 11.2363 36.4981C12.198 36.719 12.8116 37.3114 13.0771 38.2754C13.1618 43.1419 13.1618 48.0085 13.0771 52.875C12.8394 53.6829 12.3528 54.2754 11.6172 54.6524C11.4479 54.6524 11.2786 54.6524 11.1094 54.6524C10.1638 54.7295 9.25399 54.6449 8.37988 54.3984C8.31641 48.4318 8.29524 42.465 8.31641 36.4981C6.20052 36.4981 4.08464 36.4981 1.96875 36.4981Z" fill="#8EFE7C"/>
<path opacity="0.998" fill-rule="evenodd" clip-rule="evenodd" d="M28.7539 36.5C28.7962 36.5 28.8386 36.5 28.8809 36.5C31.5046 36.5 34.1282 36.5 36.752 36.5C36.7098 40.8804 36.7522 45.2391 36.8789 49.5762C37.0144 50.6219 37.5645 51.3624 38.5293 51.7979C39.9675 51.8613 41.4063 51.8825 42.8457 51.8613C47.3738 51.8613 51.9017 51.8613 56.4297 51.8613C51.9234 51.988 47.3954 52.0304 42.8457 51.9883C39.2908 51.9671 35.7361 51.9883 32.1817 52.0518C31.0037 52.5749 30.4113 53.4847 30.4043 54.7812C29.7226 54.795 29.0455 54.7527 28.3731 54.6543C27.6917 54.2896 27.2051 53.7395 26.9131 53.0039C26.8284 48.0527 26.8284 43.1016 26.9131 38.1504C27.2328 37.2588 27.8465 36.7086 28.7539 36.5Z" fill="#8EFE7C"/>
<path fill-rule="evenodd" clip-rule="evenodd" d="M28.8828 36.4981C31.5269 36.3715 34.1929 36.3291 36.8809 36.3712C36.8809 40.7722 36.8809 45.1732 36.8809 49.5743C36.7542 45.2372 36.7118 40.8785 36.7539 36.4981C34.1302 36.4981 31.5066 36.4981 28.8828 36.4981Z" fill="#73DEDE"/>
<path fill-rule="evenodd" clip-rule="evenodd" d="M46.6548 37.8967C49.8047 37.6572 51.4339 39.0959 51.5425 42.2131C50.9606 44.6524 49.416 45.7738 46.9088 45.5774C44.5429 44.8048 43.5484 43.1756 43.9254 40.6897C44.4356 39.3544 45.3455 38.4233 46.6548 37.8967Z" fill="#FDF0CE"/>
<path opacity="0.991" fill-rule="evenodd" clip-rule="evenodd" d="M56.4298 51.8595C56.5991 51.8595 56.7684 51.8595 56.9376 51.8595C58.8847 51.8383 60.8313 51.8595 62.7775 51.923C63.8669 52.1257 64.5863 52.7393 64.9357 53.7638C64.9357 56.3029 64.9357 58.8419 64.9357 61.381C64.5569 62.2876 63.8798 62.8589 62.9044 63.0949C57.1917 63.1583 51.4788 63.1795 45.7658 63.1583C44.1702 62.001 43.2181 60.4352 42.9093 58.4611C42.8458 56.3033 42.8246 54.1451 42.8458 51.9865C47.3955 52.0286 51.9235 51.9862 56.4298 51.8595Z" fill="#A9F2B5"/>
<path opacity="0.993" fill-rule="evenodd" clip-rule="evenodd" d="M42.8458 51.9884C42.8246 54.147 42.8458 56.3052 42.9093 58.463C43.2181 60.4372 44.1702 62.003 45.7658 63.1603C41.3647 63.1603 36.9637 63.1603 32.5626 63.1603C31.5188 62.8573 30.8206 62.1802 30.4679 61.129C30.4044 59.0136 30.3832 56.8977 30.4044 54.7814C30.4114 53.4848 31.0038 52.5751 32.1818 52.0519C35.7362 51.9884 39.2909 51.9672 42.8458 51.9884Z" fill="#8CE38A"/>
<path opacity="0.982" fill-rule="evenodd" clip-rule="evenodd" d="M11.1074 54.6523C11.2767 54.6523 11.446 54.6523 11.6152 54.6523C17.2012 54.6523 22.7871 54.6523 28.373 54.6523C29.0455 54.7507 29.7226 54.793 30.4043 54.7793C30.3831 56.8956 30.4043 59.0115 30.4678 61.127C30.8204 62.1781 31.5187 62.8552 32.5625 63.1582C26.4265 63.1582 20.2903 63.1582 14.1543 63.1582C11.0565 61.1991 9.15223 58.4061 8.44141 54.7793C9.35377 54.8206 10.2424 54.7782 11.1074 54.6523Z" fill="#8FFE8D"/>
<path opacity="0.997" fill-rule="evenodd" clip-rule="evenodd" d="M1.8418 54.7812C4.04231 54.7812 6.24284 54.7812 8.44336 54.7812C9.15418 58.408 11.0585 61.201 14.1562 63.1602C10.0935 63.1814 6.03103 63.1602 1.96875 63.0967C0.993425 62.8607 0.316342 62.2894 -0.0625 61.3828C-0.0625 59.7747 -0.0625 58.1667 -0.0625 56.5586C0.238846 55.6228 0.873612 55.0305 1.8418 54.7812Z" fill="#66EA5B"/>
</g>
<defs>
<clipPath id="clip0_663_6733">
<rect width="65" height="65" fill="white"/>
</clipPath>
</defs>
</svg>
