<svg width="65" height="65" viewBox="0 0 65 65" fill="none" xmlns="http://www.w3.org/2000/svg">
<g clip-path="url(#clip0_663_6774)">
<path opacity="0.975" fill-rule="evenodd" clip-rule="evenodd" d="M0.316406 -0.0625C3.15169 -0.0625 5.98698 -0.0625 8.82227 -0.0625C8.82227 4.97331 8.82227 10.0091 8.82227 15.0449C5.98698 15.0449 3.15169 15.0449 0.316406 15.0449C0.316406 10.0091 0.316406 4.97331 0.316406 -0.0625Z" fill="#A8FFA6"/>
<path fill-rule="evenodd" clip-rule="evenodd" d="M31.168 -0.0625C32.0144 -0.0625 32.8606 -0.0625 33.707 -0.0625C37.6464 1.2549 39.1909 3.96323 38.3408 8.0625C37.9796 9.14302 37.3659 10.0528 36.5 10.792C40.4189 12.5953 43.233 15.4941 44.9424 19.4883C45.367 20.5717 45.7267 21.6719 46.0215 22.7891C44.2441 22.7891 42.4668 22.7891 40.6895 22.7891C39.8418 18.7017 37.8105 15.3374 34.5957 12.6963C33.5329 11.9956 32.4325 11.3609 31.2949 10.792C33.7409 8.33321 34.1007 5.60372 32.374 2.60352C31.7043 1.68967 30.8792 0.970269 29.8984 0.445312C30.3129 0.250808 30.7361 0.0815371 31.168 -0.0625Z" fill="#6BFF71"/>
<path fill-rule="evenodd" clip-rule="evenodd" d="M56.0508 -0.0625C58.886 -0.0625 61.7214 -0.0625 64.5566 -0.0625C64.5566 4.97331 64.5566 10.0091 64.5566 15.0449C61.7214 15.0449 58.886 15.0449 56.0508 15.0449C56.0508 10.0091 56.0508 4.97331 56.0508 -0.0625Z" fill="#BFEDBB"/>
<path opacity="0.994" fill-rule="evenodd" clip-rule="evenodd" d="M29.8965 0.445312C30.8772 0.970269 31.7024 1.68967 32.3721 2.60352C34.0988 5.60372 33.739 8.33321 31.293 10.792C32.4306 11.3609 33.5309 11.9956 34.5938 12.6963C37.8086 15.3374 39.8398 18.7017 40.6875 22.7891C42.4648 22.7891 44.2422 22.7891 46.0195 22.7891C43.8835 22.9156 41.7253 22.9579 39.5449 22.916C39.5868 25.1387 39.5445 27.3392 39.418 29.5176C37.9034 29.7452 36.38 29.8722 34.8477 29.8984C33.2395 29.8984 31.6316 29.8984 30.0234 29.8984C28.4911 29.8722 26.9677 29.7452 25.4531 29.5176C25.3281 27.3269 25.2857 25.1263 25.3262 22.916C23.6335 22.916 21.9407 22.916 20.248 22.916C19.7566 22.956 19.2911 22.9137 18.8516 22.7891C19.8498 18.3962 22.135 14.8627 25.707 12.1885C26.5797 11.6887 27.4684 11.2232 28.373 10.792C25.881 8.23167 25.5636 5.41753 27.4209 2.34961C28.088 1.48987 28.9132 0.855106 29.8965 0.445312Z" fill="#93FEB1"/>
<path opacity="0.986" fill-rule="evenodd" clip-rule="evenodd" d="M13.6484 1.20703C16.4414 1.20703 19.2344 1.20703 22.0273 1.20703C22.0273 4.38086 22.0273 7.55469 22.0273 10.7285C19.2344 10.7285 16.4414 10.7285 13.6484 10.7285C13.6484 7.55469 13.6484 4.38086 13.6484 1.20703Z" fill="#60F7A6"/>
<path opacity="0.986" fill-rule="evenodd" clip-rule="evenodd" d="M42.8477 1.20703C45.6406 1.20703 48.4336 1.20703 51.2266 1.20703C51.2266 4.38086 51.2266 7.55469 51.2266 10.7285C48.4336 10.7285 45.6406 10.7285 42.8477 10.7285C42.8477 7.55469 42.8477 4.38086 42.8477 1.20703Z" fill="#1CFF17"/>
<path opacity="0.945" fill-rule="evenodd" clip-rule="evenodd" d="M13.9005 19.6133C13.2234 19.6133 12.5463 19.6133 11.8692 19.6133C11.8481 18.7236 11.8693 17.835 11.9327 16.9473C12.5675 16.1009 13.2022 16.1009 13.837 16.9473C13.9005 17.835 13.9216 18.7236 13.9005 19.6133Z" fill="#53A945"/>
<path opacity="0.945" fill-rule="evenodd" clip-rule="evenodd" d="M53.002 19.6133C52.325 19.6133 51.6478 19.6133 50.9708 19.6133C50.9497 18.7236 50.9708 17.835 51.0343 16.9473C51.669 16.1009 52.3038 16.1009 52.9386 16.9473C53.002 17.835 53.0231 18.7236 53.002 19.6133Z" fill="#53A945"/>
<path opacity="0.995" fill-rule="evenodd" clip-rule="evenodd" d="M11.8711 19.6133C12.5482 19.6133 13.2253 19.6133 13.9023 19.6133C14.7487 19.6133 15.595 19.6133 16.4414 19.6133C16.4414 20.6712 16.4414 21.7292 16.4414 22.7871C14.0716 22.9563 11.7018 22.9563 9.33203 22.7871C9.33203 21.7292 9.33203 20.6712 9.33203 19.6133C10.1784 19.6133 11.0247 19.6133 11.8711 19.6133Z" fill="#62D658"/>
<path opacity="0.995" fill-rule="evenodd" clip-rule="evenodd" d="M50.9727 19.6133C51.6497 19.6133 52.3269 19.6133 53.0039 19.6133C53.8503 19.6133 54.6966 19.6133 55.543 19.6133C55.543 20.6712 55.543 21.7292 55.543 22.7871C53.1731 22.9563 50.8034 22.9563 48.4336 22.7871C48.4336 21.7292 48.4336 20.6712 48.4336 19.6133C49.28 19.6133 50.1263 19.6133 50.9727 19.6133Z" fill="#62D658"/>
<path opacity="0.997" fill-rule="evenodd" clip-rule="evenodd" d="M9.33008 22.7891C11.6999 22.9583 14.0696 22.9583 16.4395 22.7891C17.2434 22.7891 18.0476 22.7891 18.8516 22.7891C19.2911 22.9137 19.7566 22.956 20.248 22.916C20.248 31.4642 20.248 40.0124 20.248 48.5605C14.7675 48.5184 9.30851 48.5607 3.87109 48.6875C3.87109 49.7454 3.87109 50.8034 3.87109 51.8613C3.74648 51.4218 3.70415 50.9563 3.74414 50.4648C2.66708 50.3388 1.56682 50.2965 0.443359 50.3379C0.485486 45.5344 0.443169 40.7524 0.316406 35.9922C0.316406 31.5911 0.316406 27.1901 0.316406 22.7891C3.32097 22.7891 6.32552 22.7891 9.33008 22.7891Z" fill="#EEFEE7"/>
<path fill-rule="evenodd" clip-rule="evenodd" d="M20.248 22.9141C21.9407 22.9141 23.6335 22.9141 25.3262 22.9141C25.2857 25.1243 25.3281 27.3249 25.4531 29.5156C25.4531 31.6738 25.4531 33.832 25.4531 35.9902C25.3271 40.8052 25.2847 45.6294 25.3262 50.4629C24.2259 50.4629 23.1257 50.4629 22.0254 50.4629C22.0654 50.9543 22.0231 51.4199 21.8984 51.8594C21.8984 50.8015 21.8984 49.7434 21.8984 48.6855C15.8894 48.6855 9.8802 48.6855 3.87109 48.6855C9.30851 48.5587 14.7675 48.5164 20.248 48.5586C20.248 40.0105 20.248 31.4622 20.248 22.9141Z" fill="#EAFEDD"/>
<path opacity="0.998" fill-rule="evenodd" clip-rule="evenodd" d="M46.0195 22.7891C46.8235 22.7891 47.6276 22.7891 48.4316 22.7891C50.8015 22.9583 53.1712 22.9583 55.541 22.7891C56.8105 22.7891 58.0801 22.7891 59.3496 22.7891C59.3496 31.3796 59.3496 39.97 59.3496 48.5605C53.869 48.5184 48.4101 48.5607 42.9727 48.6875C42.9727 49.7454 42.9727 50.8034 42.9727 51.8613C42.8479 51.3792 42.8055 50.8713 42.8457 50.3379C41.7454 50.3379 40.6452 50.3379 39.5449 50.3379C39.5871 45.5344 39.5447 40.7524 39.418 35.9922C39.418 33.834 39.418 31.6758 39.418 29.5176C39.5445 27.3392 39.5868 25.1387 39.5449 22.916C41.7253 22.9579 43.8835 22.9156 46.0195 22.7891Z" fill="#EEFEE7"/>
<path fill-rule="evenodd" clip-rule="evenodd" d="M59.3496 22.7891C61.0847 22.7891 62.8196 22.7891 64.5547 22.7891C64.5547 27.2324 64.5547 31.6758 64.5547 36.1191C64.428 40.8371 64.3856 45.5766 64.4277 50.3379C63.3043 50.2965 62.204 50.3388 61.127 50.4648C61.1669 50.9563 61.1247 51.4218 61 51.8613C61 50.8034 61 49.7454 61 48.6875C54.9909 48.6875 48.9817 48.6875 42.9727 48.6875C48.4101 48.5607 53.869 48.5184 59.3496 48.5605C59.3496 39.97 59.3496 31.3796 59.3496 22.7891Z" fill="#EAFEDD"/>
<path fill-rule="evenodd" clip-rule="evenodd" d="M12.1249 29.8994C13.9243 29.6876 15.1728 30.4071 15.87 32.0576C15.9547 32.4807 15.9547 32.904 15.87 33.3271C15.3734 33.9525 14.8233 33.9948 14.2196 33.4541C14.081 33.1311 13.9963 32.7925 13.9657 32.4385C13.4924 31.8945 12.9211 31.7887 12.2518 32.1211C11.9112 32.3553 11.6996 32.6727 11.6171 33.0732C11.8126 33.5446 12.0877 33.9679 12.4423 34.3428C12.5603 34.768 12.4545 35.1277 12.1249 35.4219C10.2107 36.3074 9.19503 37.8096 9.078 39.9287C11.9891 40.5289 14.8667 40.402 17.7108 39.5478C18.5308 39.6631 18.8482 40.1285 18.663 40.9443C18.5572 41.0713 18.4513 41.1982 18.3456 41.3252C15.7909 42.1726 13.1672 42.4477 10.4745 42.1504C9.57162 41.9987 8.68295 41.7872 7.80847 41.5156C7.49879 41.4173 7.26604 41.2269 7.11023 40.9443C6.91384 38.1847 7.90831 35.9631 10.0936 34.2793C9.44817 32.2059 10.1253 30.7459 12.1249 29.8994Z" fill="#95FEA0"/>
<path fill-rule="evenodd" clip-rule="evenodd" d="M51.6056 29.8985C53.3937 29.8882 54.5574 30.7346 55.0968 32.4376C55.1708 33.1323 55.1286 33.8093 54.9699 34.4688C57.0692 36.1092 58.0425 38.2674 57.8898 40.9435C57.7901 41.1702 57.6421 41.3606 57.4455 41.5147C53.8029 42.7814 50.1636 42.7814 46.5275 41.5147C46.1129 41.1928 45.9435 40.7697 46.0197 40.2452C46.1612 38.2281 46.9229 36.493 48.3048 35.0401C49.1399 34.739 49.6477 35.0352 49.8283 35.9288C49.2968 36.7148 48.8102 37.54 48.3683 38.4044C48.1271 38.929 48.0213 39.4792 48.0509 40.0548C49.9357 40.4219 51.84 40.5277 53.7638 40.3722C54.4798 40.2848 55.1781 40.1367 55.8585 39.9278C55.7654 37.8593 54.7708 36.3993 52.8751 35.5479C52.4954 35.2761 52.3473 34.9164 52.4308 34.4688C52.6424 34.1727 52.8539 33.8764 53.0656 33.5802C53.2912 32.4088 52.8046 31.7952 51.6056 31.7394C50.9368 31.1263 50.9368 30.5126 51.6056 29.8985Z" fill="#ABFE96"/>
<path opacity="0.984" fill-rule="evenodd" clip-rule="evenodd" d="M30.0234 29.8984C31.6316 29.8984 33.2395 29.8984 34.8477 29.8984C34.8477 31.9297 34.8477 33.9609 34.8477 35.9922C34.7453 37.125 34.6819 38.2676 34.6572 39.4199C33.1707 40.253 31.6896 40.253 30.2139 39.4199C30.1892 38.2676 30.1258 37.125 30.0234 35.9922C30.0234 33.9609 30.0234 31.9297 30.0234 29.8984Z" fill="#6BE370"/>
<path opacity="0.997" fill-rule="evenodd" clip-rule="evenodd" d="M25.4531 35.9922C26.9766 35.9922 28.5 35.9922 30.0234 35.9922C30.1258 37.125 30.1892 38.2676 30.2139 39.4199C31.6896 40.253 33.1707 40.253 34.6572 39.4199C34.6819 38.2676 34.7453 37.125 34.8477 35.9922C36.3711 35.9922 37.8945 35.9922 39.418 35.9922C39.5447 40.7524 39.5871 45.5344 39.5449 50.3379C40.6452 50.3379 41.7454 50.3379 42.8457 50.3379C42.8055 50.8713 42.8479 51.3792 42.9727 51.8613C43.9883 51.8613 45.0039 51.8613 46.0195 51.8613C44.6189 55.9367 43.2224 59.9992 41.8301 64.0488C35.5671 64.0488 29.304 64.0488 23.041 64.0488C21.6487 59.9992 20.2522 55.9367 18.8516 51.8613C19.8672 51.8613 20.8828 51.8613 21.8984 51.8613C22.0231 51.4218 22.0654 50.9563 22.0254 50.4648C23.1257 50.4648 24.2259 50.4648 25.3262 50.4648C25.2847 45.6314 25.3271 40.8071 25.4531 35.9922Z" fill="#E2FEE6"/>
<path opacity="0.349" fill-rule="evenodd" clip-rule="evenodd" d="M0.316406 35.9922C0.443169 40.7524 0.485486 45.5344 0.443359 50.3379C1.56682 50.2965 2.66708 50.3388 3.74414 50.4648C2.60156 50.4648 1.45898 50.4648 0.316406 50.4648C0.316406 45.6406 0.316406 40.8164 0.316406 35.9922Z" fill="#EDF4EB"/>
<path opacity="0.475" fill-rule="evenodd" clip-rule="evenodd" d="M64.5566 36.1172C64.5566 40.8991 64.5566 45.6809 64.5566 50.4629C63.4141 50.4629 62.2715 50.4629 61.1289 50.4629C62.206 50.3368 63.3063 50.2946 64.4297 50.3359C64.3875 45.5747 64.4299 40.8351 64.5566 36.1172Z" fill="#EAF8EA"/>
<path fill-rule="evenodd" clip-rule="evenodd" d="M3.87109 48.6875C9.8802 48.6875 15.8894 48.6875 21.8984 48.6875C21.8984 49.7454 21.8984 50.8034 21.8984 51.8613C20.8828 51.8613 19.8672 51.8613 18.8516 51.8613C18.1745 51.8613 17.4974 51.8613 16.8203 51.8613C15.847 51.8613 14.8737 51.8613 13.9004 51.8613C13.8581 51.8613 13.8157 51.8613 13.7734 51.8613C13.1809 51.8613 12.5885 51.8613 11.9961 51.8613C11.9538 51.8613 11.9115 51.8613 11.8691 51.8613C10.8958 51.8613 9.92253 51.8613 8.94922 51.8613C8.27214 51.8613 7.59505 51.8613 6.91797 51.8613C5.90234 51.8613 4.88672 51.8613 3.87109 51.8613C3.87109 50.8034 3.87109 49.7454 3.87109 48.6875Z" fill="#69D557"/>
<path fill-rule="evenodd" clip-rule="evenodd" d="M42.9727 48.6875C48.9817 48.6875 54.9909 48.6875 61 48.6875C61 49.7454 61 50.8034 61 51.8613C59.9844 51.8613 58.9688 51.8613 57.9531 51.8613C57.2761 51.8613 56.5989 51.8613 55.9219 51.8613C54.9485 51.8613 53.9753 51.8613 53.002 51.8613C52.9597 51.8613 52.9173 51.8613 52.875 51.8613C52.2825 51.8613 51.6901 51.8613 51.0977 51.8613C51.0554 51.8613 51.013 51.8613 50.9707 51.8613C49.9974 51.8613 49.0241 51.8613 48.0508 51.8613C47.3737 51.8613 46.6966 51.8613 46.0195 51.8613C45.0039 51.8613 43.9883 51.8613 42.9727 51.8613C42.9727 50.8034 42.9727 49.7454 42.9727 48.6875Z" fill="#69D557"/>
<path opacity="0.975" fill-rule="evenodd" clip-rule="evenodd" d="M0.316406 50.4648C1.45898 50.4648 2.60156 50.4648 3.74414 50.4648C3.70415 50.9563 3.74648 51.4218 3.87109 51.8613C4.88672 51.8613 5.90234 51.8613 6.91797 51.8613C5.51377 55.9353 4.11728 59.9978 2.72852 64.0488C1.92448 64.0488 1.12044 64.0488 0.316406 64.0488C0.316406 59.5208 0.316406 54.9929 0.316406 50.4648Z" fill="#E2FEE6"/>
<path opacity="0.975" fill-rule="evenodd" clip-rule="evenodd" d="M61.127 50.4648C62.2695 50.4648 63.4121 50.4648 64.5547 50.4648C64.5547 54.9929 64.5547 59.5208 64.5547 64.0488C63.7507 64.0488 62.9466 64.0488 62.1426 64.0488C60.7538 59.9978 59.3574 55.9353 57.9531 51.8613C58.9688 51.8613 59.9844 51.8613 61 51.8613C61.1247 51.4218 61.1669 50.9563 61.127 50.4648Z" fill="#E2FEE6"/>
<path opacity="0.996" fill-rule="evenodd" clip-rule="evenodd" d="M6.91992 51.8594C7.597 51.8594 8.27409 51.8594 8.95117 51.8594C8.33314 53.6288 7.74069 55.4062 7.17383 57.1914C8.75935 57.3177 10.3674 57.3601 11.998 57.3184C11.998 55.4987 11.998 53.679 11.998 51.8594C12.5905 51.8594 13.1829 51.8594 13.7754 51.8594C13.7754 53.679 13.7754 55.4987 13.7754 57.3184C15.406 57.3601 17.0141 57.3177 18.5996 57.1914C18.0328 55.4062 17.4403 53.6288 16.8223 51.8594C17.4993 51.8594 18.1765 51.8594 18.8535 51.8594C20.2542 55.9347 21.6507 59.9972 23.043 64.0469C22.9715 64.4017 22.8023 64.6979 22.5352 64.9355C22.1966 64.9355 21.8581 64.9355 21.5195 64.9355C21.1901 64.7433 21.0207 64.447 21.0117 64.0469C20.4798 62.454 19.9297 60.8671 19.3613 59.2861C17.5422 59.2227 15.7225 59.2015 13.9023 59.2227C13.9023 60.8308 13.9023 62.4388 13.9023 64.0469C13.8391 64.4056 13.6699 64.702 13.3945 64.9355C13.0559 64.9355 12.7175 64.9355 12.3789 64.9355C12.1036 64.702 11.9343 64.4056 11.8711 64.0469C11.8711 62.4388 11.8711 60.8308 11.8711 59.2227C10.0509 59.2015 8.23128 59.2227 6.41211 59.2861C5.79908 60.8501 5.24895 62.437 4.76172 64.0469C4.75267 64.447 4.5834 64.7433 4.25391 64.9355C3.91536 64.9355 3.57683 64.9355 3.23828 64.9355C2.97121 64.6979 2.80194 64.4017 2.73047 64.0469C4.11923 59.9958 5.51572 55.9333 6.91992 51.8594Z" fill="#50AA48"/>
<path opacity="0.996" fill-rule="evenodd" clip-rule="evenodd" d="M46.0215 51.8594C46.6985 51.8594 47.3757 51.8594 48.0527 51.8594C47.4347 53.6288 46.8422 55.4062 46.2754 57.1914C47.8609 57.3177 49.469 57.3601 51.0996 57.3184C51.0996 55.4987 51.0996 53.679 51.0996 51.8594C51.6921 51.8594 52.2845 51.8594 52.877 51.8594C52.877 53.679 52.877 55.4987 52.877 57.3184C54.5075 57.3601 56.1157 57.3177 57.7012 57.1914C57.1343 55.4062 56.5418 53.6288 55.9238 51.8594C56.6009 51.8594 57.278 51.8594 57.9551 51.8594C59.3593 55.9333 60.7558 59.9958 62.1445 64.0469C62.0731 64.4017 61.9038 64.6979 61.6367 64.9355C61.2981 64.9355 60.9597 64.9355 60.6211 64.9355C60.2917 64.7433 60.1223 64.447 60.1133 64.0469C59.5813 62.454 59.0313 60.8671 58.4629 59.2861C56.6438 59.2227 54.824 59.2015 53.0039 59.2227C53.0039 60.8308 53.0039 62.4388 53.0039 64.0469C52.9407 64.4056 52.7715 64.702 52.4961 64.9355C52.1575 64.9355 51.8191 64.9355 51.4805 64.9355C51.2051 64.702 51.0359 64.4056 50.9727 64.0469C50.9727 62.4388 50.9727 60.8308 50.9727 59.2227C49.1525 59.2015 47.3328 59.2227 45.5137 59.2861C44.9453 60.8671 44.3952 62.454 43.8633 64.0469C43.8543 64.447 43.6849 64.7433 43.3555 64.9355C43.0169 64.9355 42.6784 64.9355 42.3398 64.9355C42.0727 64.6979 41.9035 64.4017 41.832 64.0469C43.2243 59.9972 44.6208 55.9347 46.0215 51.8594Z" fill="#50AA48"/>
<path fill-rule="evenodd" clip-rule="evenodd" d="M8.94922 51.8594C9.92253 51.8594 10.8958 51.8594 11.8691 51.8594C11.8691 53.6367 11.8691 55.4141 11.8691 57.1914C10.3034 57.1914 8.73763 57.1914 7.17188 57.1914C7.73873 55.4062 8.33119 53.6288 8.94922 51.8594Z" fill="#E6FDE2"/>
<path fill-rule="evenodd" clip-rule="evenodd" d="M13.9023 51.8594C14.8757 51.8594 15.8489 51.8594 16.8223 51.8594C17.4403 53.6288 18.0328 55.4062 18.5996 57.1914C17.0339 57.1914 15.4681 57.1914 13.9023 57.1914C13.9023 55.4141 13.9023 53.6367 13.9023 51.8594Z" fill="#E6FDE2"/>
<path fill-rule="evenodd" clip-rule="evenodd" d="M48.0508 51.8594C49.0241 51.8594 49.9974 51.8594 50.9707 51.8594C50.9707 53.6367 50.9707 55.4141 50.9707 57.1914C49.405 57.1914 47.8392 57.1914 46.2734 57.1914C46.8403 55.4062 47.4328 53.6288 48.0508 51.8594Z" fill="#E6FDE2"/>
<path fill-rule="evenodd" clip-rule="evenodd" d="M53.0039 51.8594C53.9773 51.8594 54.9505 51.8594 55.9238 51.8594C56.5418 53.6288 57.1343 55.4062 57.7012 57.1914C56.1355 57.1914 54.5696 57.1914 53.0039 57.1914C53.0039 55.4141 53.0039 53.6367 53.0039 51.8594Z" fill="#E6FDE2"/>
<path fill-rule="evenodd" clip-rule="evenodd" d="M11.8691 51.8594C11.9115 51.8594 11.9538 51.8594 11.9961 51.8594C11.9961 53.679 11.9961 55.4987 11.9961 57.3184C10.3655 57.3601 8.75739 57.3177 7.17188 57.1914C8.73763 57.1914 10.3034 57.1914 11.8691 57.1914C11.8691 55.4141 11.8691 53.6367 11.8691 51.8594Z" fill="#BACCB6"/>
<path fill-rule="evenodd" clip-rule="evenodd" d="M13.7734 51.8594C13.8157 51.8594 13.8581 51.8594 13.9004 51.8594C13.9004 53.6367 13.9004 55.4141 13.9004 57.1914C15.4661 57.1914 17.0319 57.1914 18.5977 57.1914C17.0121 57.3177 15.404 57.3601 13.7734 57.3184C13.7734 55.4987 13.7734 53.679 13.7734 51.8594Z" fill="#BDCDB7"/>
<path fill-rule="evenodd" clip-rule="evenodd" d="M50.9707 51.8594C51.013 51.8594 51.0554 51.8594 51.0977 51.8594C51.0977 53.679 51.0977 55.4987 51.0977 57.3184C49.4671 57.3601 47.859 57.3177 46.2734 57.1914C47.8392 57.1914 49.405 57.1914 50.9707 57.1914C50.9707 55.4141 50.9707 53.6367 50.9707 51.8594Z" fill="#BDCDB7"/>
<path fill-rule="evenodd" clip-rule="evenodd" d="M52.875 51.8594C52.9173 51.8594 52.9597 51.8594 53.002 51.8594C53.002 53.6367 53.002 55.4141 53.002 57.1914C54.5677 57.1914 56.1335 57.1914 57.6992 57.1914C56.1137 57.3177 54.5056 57.3601 52.875 57.3184C52.875 55.4987 52.875 53.679 52.875 51.8594Z" fill="#BACCB6"/>
<path opacity="0.991" fill-rule="evenodd" clip-rule="evenodd" d="M11.8711 64.047C9.5013 64.047 7.13151 64.047 4.76172 64.047C5.24895 62.4371 5.79908 60.8502 6.41211 59.2863C8.23128 59.2228 10.0509 59.2016 11.8711 59.2228C11.8711 60.8309 11.8711 62.4389 11.8711 64.047Z" fill="#E2FEE6"/>
<path opacity="0.991" fill-rule="evenodd" clip-rule="evenodd" d="M21.0117 64.047C18.6419 64.047 16.2722 64.047 13.9023 64.047C13.9023 62.4389 13.9023 60.8309 13.9023 59.2228C15.7225 59.2016 17.5422 59.2228 19.3613 59.2863C19.9297 60.8672 20.4798 62.4541 21.0117 64.047Z" fill="#E2FEE6"/>
<path opacity="0.991" fill-rule="evenodd" clip-rule="evenodd" d="M50.9727 64.047C48.6028 64.047 46.2331 64.047 43.8633 64.047C44.3952 62.4541 44.9453 60.8672 45.5137 59.2863C47.3328 59.2228 49.1525 59.2016 50.9727 59.2228C50.9727 60.8309 50.9727 62.4389 50.9727 64.047Z" fill="#E2FEE6"/>
<path opacity="0.991" fill-rule="evenodd" clip-rule="evenodd" d="M60.1133 64.047C57.7434 64.047 55.3737 64.047 53.0039 64.047C53.0039 62.4389 53.0039 60.8309 53.0039 59.2228C54.824 59.2016 56.6438 59.2228 58.4629 59.2863C59.0313 60.8672 59.5813 62.4541 60.1133 64.047Z" fill="#E2FEE6"/>
</g>
<defs>
<clipPath id="clip0_663_6774">
<rect width="65" height="65" fill="white"/>
</clipPath>
</defs>
</svg>
