<svg width="65" height="65" viewBox="0 0 65 65" fill="none" xmlns="http://www.w3.org/2000/svg">
<g clip-path="url(#clip0_662_6438)">
<path opacity="0.992" fill-rule="evenodd" clip-rule="evenodd" d="M32.0549 -0.0625C32.3088 -0.0625 32.5627 -0.0625 32.8167 -0.0625C37.8764 1.73709 42.9545 3.51443 48.051 5.26953C43.0661 9.68942 37.6495 13.5192 31.801 16.7588C29.8625 17.7913 27.9159 18.7857 25.9612 19.7422C18.9365 19.7422 11.9117 19.7422 4.88696 19.7422C4.88696 20.8425 4.88696 21.9427 4.88696 23.043C4.88696 23.8047 4.88696 24.5664 4.88696 25.3281C4.88696 26.4284 4.88696 27.5286 4.88696 28.6289C4.88696 40.7317 4.88696 52.8347 4.88696 64.9375C3.40584 64.9375 1.92473 64.9375 0.443603 64.9375C0.401286 46.9099 0.443604 28.8826 0.570556 10.8555C11.0873 7.23722 21.5821 3.5979 32.0549 -0.0625Z" fill="#4DD042"/>
<path fill-rule="evenodd" clip-rule="evenodd" d="M48.0508 5.26953C53.474 7.10549 58.8907 8.96747 64.3008 10.8555C64.4277 28.8826 64.47 46.9099 64.4277 64.9375C62.9466 64.9375 61.4655 64.9375 59.9844 64.9375C59.9844 52.8347 59.9844 40.7317 59.9844 28.6289C59.9844 27.5286 59.9844 26.4284 59.9844 25.3281C59.9844 24.5664 59.9844 23.8047 59.9844 23.043C59.9844 21.9427 59.9844 20.8425 59.9844 19.7422C48.6433 19.7422 37.302 19.7422 25.9609 19.7422C27.9156 18.7857 29.8622 17.7913 31.8008 16.7588C37.6493 13.5192 43.0658 9.68942 48.0508 5.26953Z" fill="#3EC754"/>
<path fill-rule="evenodd" clip-rule="evenodd" d="M25.9609 19.7422C37.302 19.7422 48.6433 19.7422 59.9844 19.7422C59.9844 20.8425 59.9844 21.9427 59.9844 23.043C41.6184 23.043 23.2526 23.043 4.88672 23.043C4.88672 21.9427 4.88672 20.8425 4.88672 19.7422C11.9115 19.7422 18.9362 19.7422 25.9609 19.7422Z" fill="#DCDCDD"/>
<path fill-rule="evenodd" clip-rule="evenodd" d="M4.88672 23.043C23.2526 23.043 41.6184 23.043 59.9844 23.043C59.9844 23.8047 59.9844 24.5664 59.9844 25.3281C41.6184 25.3281 23.2526 25.3281 4.88672 25.3281C4.88672 24.5664 4.88672 23.8047 4.88672 23.043Z" fill="#CECECE"/>
<path fill-rule="evenodd" clip-rule="evenodd" d="M5.01562 23.168C23.2969 23.168 41.5781 23.168 59.8594 23.168C59.8594 23.845 59.8594 24.5222 59.8594 25.1992C41.5781 25.1992 23.2969 25.1992 5.01562 25.1992C5.01562 24.5222 5.01562 23.845 5.01562 23.168Z" fill="#C6C7C6"/>
<path fill-rule="evenodd" clip-rule="evenodd" d="M4.88672 25.3281C23.2526 25.3281 41.6184 25.3281 59.9844 25.3281C59.9844 26.4284 59.9844 27.5286 59.9844 28.6289C41.6184 28.6289 23.2526 28.6289 4.88672 28.6289C4.88672 27.5286 4.88672 26.4284 4.88672 25.3281Z" fill="#DCDCDC"/>
<path fill-rule="evenodd" clip-rule="evenodd" d="M4.88672 28.6289C23.2526 28.6289 41.6184 28.6289 59.9844 28.6289C59.9844 40.7317 59.9844 52.8347 59.9844 64.9375C41.6184 64.9375 23.2526 64.9375 4.88672 64.9375C4.88672 52.8347 4.88672 40.7317 4.88672 28.6289Z" fill="#727373"/>
<path fill-rule="evenodd" clip-rule="evenodd" d="M21.2637 36.3712C27.146 36.35 33.0282 36.3712 38.9102 36.4347C36.0749 39.27 33.2395 42.1053 30.4043 44.9406C25.6009 45.0461 20.8191 45.0249 16.0586 44.8771C17.2287 42.4099 18.4348 39.9554 19.6768 37.5138C20.0133 36.8591 20.5423 36.4783 21.2637 36.3712Z" fill="#86CDD8"/>
<path fill-rule="evenodd" clip-rule="evenodd" d="M21.2653 36.3716C28.692 36.2237 36.1398 36.2025 43.6091 36.3082C44.3217 36.4709 44.8507 36.873 45.196 37.5142C46.4803 40.0405 47.7287 42.5795 48.9411 45.1314C47.6716 45.1314 46.4021 45.1314 45.1325 45.1314C35.3994 45.1314 25.6664 45.1314 15.9333 45.1314C15.9115 45.0055 15.9539 44.9209 16.0603 44.8775C20.8207 45.0253 25.6026 45.0465 30.406 44.941C33.2412 42.1057 36.0766 39.2704 38.9118 36.4351C33.0298 36.3716 27.1477 36.3504 21.2653 36.3716Z" fill="#71C3CF"/>
<path fill-rule="evenodd" clip-rule="evenodd" d="M15.9336 45.1328C25.6667 45.1328 35.3997 45.1328 45.1328 45.1328C43.048 46.7508 40.8898 48.2743 38.6582 49.7031C36.59 49.6204 34.5165 49.5779 32.4375 49.5762C30.3527 49.5567 28.2792 49.6202 26.2168 49.7666C26.0643 49.8812 25.9584 50.0293 25.8994 50.2109C25.8147 51.2266 25.8147 52.2422 25.8994 53.2578C26.0476 53.4905 26.238 53.6809 26.4707 53.8291C28.0359 53.8926 29.6016 53.9138 31.168 53.8926C29.9031 54.6096 28.5913 55.2656 27.2324 55.8604C25.1175 56.7268 23.0016 57.552 20.8848 58.3359C19.9538 58.3359 19.0227 58.3359 18.0918 58.3359C15.9558 58.2094 13.7976 58.1671 11.6172 58.209C11.6172 54.5696 11.6172 50.9304 11.6172 47.291C13.0157 46.5071 14.4545 45.7878 15.9336 45.1328Z" fill="#66DD3C"/>
<path fill-rule="evenodd" clip-rule="evenodd" d="M45.1309 45.1328C46.4004 45.1328 47.6699 45.1328 48.9395 45.1328C50.422 45.8001 51.882 46.5194 53.3193 47.291C53.3828 50.9724 53.404 54.654 53.3828 58.3359C51.1823 58.3359 48.9817 58.3359 46.7812 58.3359C38.1484 58.3359 29.5156 58.3359 20.8828 58.3359C22.9996 57.552 25.1156 56.7268 27.2305 55.8604C28.5894 55.2656 29.9012 54.6096 31.166 53.8926C33.5785 53.9138 35.9906 53.8926 38.4023 53.8291C38.7334 53.6542 38.9239 53.3791 38.9736 53.0039C39.0583 52.073 39.0583 51.1419 38.9736 50.2109C38.8896 50.0225 38.7837 49.8533 38.6562 49.7031C40.8878 48.2743 43.046 46.7508 45.1309 45.1328Z" fill="#36D533"/>
<path fill-rule="evenodd" clip-rule="evenodd" d="M16.8203 49.4493C18.0482 49.4282 19.2755 49.4493 20.502 49.5128C20.8934 49.6126 21.1684 49.8453 21.3272 50.211C21.4465 51.3244 21.4042 52.4246 21.2002 53.5118C21.0856 53.6643 20.9376 53.7702 20.7559 53.8292C19.3594 53.9139 17.9629 53.9139 16.5664 53.8292C16.3337 53.681 16.1433 53.4906 15.9951 53.2579C15.9105 52.2423 15.9105 51.2266 15.9951 50.211C16.1848 49.8538 16.4598 49.5999 16.8203 49.4493Z" fill="#DEDBDB"/>
<path fill-rule="evenodd" clip-rule="evenodd" d="M38.6563 49.7007C38.7837 49.8509 38.8896 50.0201 38.9737 50.2085C39.0583 51.1394 39.0583 52.0705 38.9737 53.0015C38.9239 53.3766 38.7335 53.6517 38.4024 53.8267C35.9906 53.8901 33.5785 53.9113 31.166 53.8901C29.5997 53.9113 28.034 53.8901 26.4688 53.8267C26.2361 53.6785 26.0456 53.4881 25.8975 53.2554C25.8128 52.2397 25.8128 51.2241 25.8975 50.2085C25.9565 50.0268 26.0624 49.8788 26.2149 49.7642C28.2772 49.6178 30.3508 49.5543 32.4356 49.5737C34.5146 49.5755 36.5881 49.6179 38.6563 49.7007Z" fill="#2CBF55"/>
<path fill-rule="evenodd" clip-rule="evenodd" d="M44.3692 49.4493C45.5971 49.4282 46.8243 49.4493 48.0508 49.5128C48.4422 49.6126 48.7172 49.8453 48.876 50.211C48.9607 51.2266 48.9607 52.2423 48.876 53.2579C48.7279 53.4906 48.5374 53.681 48.3047 53.8292C46.8112 53.9507 45.3302 53.9083 43.8614 53.7022C43.7089 53.5876 43.603 53.4396 43.544 53.2579C43.4593 52.2423 43.4593 51.2266 43.544 50.211C43.7336 49.8538 44.0086 49.5999 44.3692 49.4493Z" fill="#DEDBDB"/>
<path fill-rule="evenodd" clip-rule="evenodd" d="M11.6153 47.2891C11.6153 50.9284 11.6153 54.5677 11.6153 58.207C13.7958 58.1651 15.954 58.2074 18.0899 58.334C15.8895 58.334 13.6889 58.334 11.4884 58.334C11.4463 54.6306 11.4886 50.949 11.6153 47.2891Z" fill="#42CB58"/>
<path fill-rule="evenodd" clip-rule="evenodd" d="M11.4883 58.3359C13.6888 58.3359 15.8894 58.3359 18.0898 58.3359C18.0898 59.0554 18.0898 59.7747 18.0898 60.4941C15.8894 60.4941 13.6888 60.4941 11.4883 60.4941C11.4883 59.7747 11.4883 59.0554 11.4883 58.3359Z" fill="#565657"/>
<path fill-rule="evenodd" clip-rule="evenodd" d="M46.7812 58.3359C48.9817 58.3359 51.1823 58.3359 53.3828 58.3359C53.3828 59.0554 53.3828 59.7747 53.3828 60.4941C51.1823 60.4941 48.9817 60.4941 46.7812 60.4941C46.7812 59.7747 46.7812 59.0554 46.7812 58.3359Z" fill="#565657"/>
<path fill-rule="evenodd" clip-rule="evenodd" d="M11.4884 60.4922C13.6889 60.4922 15.8895 60.4922 18.0899 60.4922C18.8096 63.4119 17.7093 64.5122 14.7892 63.793C13.9005 63.7718 13.0118 63.7507 12.1231 63.7295C11.8405 63.5737 11.6501 63.3409 11.5519 63.0312C11.4884 62.186 11.4673 61.3396 11.4884 60.4922Z" fill="#5D5D5F"/>
<path fill-rule="evenodd" clip-rule="evenodd" d="M46.7818 60.4922C48.9823 60.4922 51.1829 60.4922 53.3834 60.4922C53.4044 61.3396 53.3834 62.186 53.3199 63.0312C53.2216 63.3409 53.0312 63.5737 52.7486 63.7295C51.8599 63.7507 50.9713 63.7718 50.0826 63.793C47.1624 64.5122 46.0621 63.4119 46.7818 60.4922Z" fill="#5D5D5F"/>
</g>
<defs>
<clipPath id="clip0_662_6438">
<rect width="65" height="65" fill="white"/>
</clipPath>
</defs>
</svg>
