<svg width="65" height="65" viewBox="0 0 65 65" fill="none" xmlns="http://www.w3.org/2000/svg">
<g clip-path="url(#clip0_663_6851)">
<path opacity="0.898" fill-rule="evenodd" clip-rule="evenodd" d="M8.82383 6.66332C9.01144 6.63006 9.18072 6.67237 9.33164 6.79028C9.47679 7.37511 9.73069 7.90409 10.0934 8.37719C10.5658 8.69803 11.0736 8.95193 11.6168 9.13891C11.7751 9.32853 11.7751 9.51896 11.6168 9.7102C10.3896 10.0064 9.62786 10.7681 9.33164 11.9954C9.12005 12.3339 8.90847 12.3339 8.69688 11.9954C8.40405 10.7715 7.64233 10.0098 6.41172 9.7102C6.25338 9.51896 6.25338 9.32853 6.41172 9.13891C6.98663 8.94671 7.5156 8.67165 7.99863 8.31371C8.31013 7.78092 8.58518 7.23079 8.82383 6.66332Z" fill="#AEFE49"/>
<path opacity="0.982" fill-rule="evenodd" clip-rule="evenodd" d="M15.4239 9.71106C25.4956 9.6899 35.5671 9.71106 45.6387 9.77454C45.7445 9.88033 45.8503 9.98613 45.9561 10.0919C46.0408 15.7201 46.0408 21.3485 45.9561 26.9767C45.8503 27.0824 45.7445 27.1883 45.6387 27.2941C35.5671 27.3787 25.4954 27.3787 15.4239 27.2941C15.247 27.1454 15.1411 26.955 15.1065 26.7228C15.0218 21.2638 15.0218 15.8048 15.1065 10.3458C15.1529 10.0981 15.2587 9.88646 15.4239 9.71106Z" fill="#46AB36"/>
<path fill-rule="evenodd" clip-rule="evenodd" d="M20.1211 12.5062C20.0791 15.5749 20.1214 18.6218 20.2481 21.6468C20.2058 21.7315 20.1634 21.816 20.1211 21.9007C19.4988 22.7628 18.9064 23.6515 18.3438 24.5667C18.2173 24.5776 18.1116 24.5352 18.0264 24.4398C17.9417 20.5042 17.9417 16.5687 18.0264 12.6331C18.7128 12.5096 19.4111 12.4672 20.1211 12.5062Z" fill="#A2D3E7"/>
<path fill-rule="evenodd" clip-rule="evenodd" d="M20.1212 12.504C27.7385 12.4829 35.3557 12.504 42.9727 12.5675C43.0362 12.631 43.0997 12.6945 43.1632 12.7579C43.2478 16.6088 43.2478 20.4598 43.1632 24.3107C43.0596 24.4786 42.9114 24.5632 42.7188 24.5646C41.382 22.339 39.9431 20.1808 38.4024 18.09C37.4217 19.5339 36.4484 20.9727 35.4825 22.4064C33.8354 19.9541 32.185 17.4998 30.5313 15.0431C30.3645 15.1463 30.2164 15.2733 30.087 15.424C28.6258 17.6704 27.1658 19.9133 25.7071 22.1525C24.7038 20.7819 23.7305 19.3854 22.7872 17.963C21.8472 19.1229 21.0008 20.3501 20.2481 21.6447C20.1214 18.6196 20.0792 15.5727 20.1212 12.504Z" fill="#B0E7FD"/>
<path opacity="0.925" fill-rule="evenodd" clip-rule="evenodd" d="M57.1914 12.6328C57.4034 12.6647 57.5939 12.7494 57.7627 12.8867C58.1353 14.5923 59.172 15.6502 60.8731 16.0605C61.0423 16.2722 61.0423 16.4837 60.8731 16.6953C60.0832 16.9575 59.3637 17.3383 58.7149 17.8379C58.2889 18.4574 57.9716 19.1345 57.7627 19.8691C57.5088 20.2077 57.2549 20.2077 57.001 19.8691C56.7691 18.9603 56.3247 18.1774 55.668 17.5205C55.0963 17.2171 54.504 16.9632 53.8907 16.7588C53.5521 16.5049 53.5521 16.251 53.8907 15.9971C54.7278 15.7613 55.4683 15.3594 56.1123 14.791C56.4606 14.0622 56.8202 13.3429 57.1914 12.6328Z" fill="#AEFE49"/>
<path fill-rule="evenodd" clip-rule="evenodd" d="M35.4824 22.4062C35.9163 23.1473 36.3818 23.8667 36.8789 24.5645C33.6204 24.5645 30.362 24.5645 27.1035 24.5645C26.606 23.7812 26.1404 22.9772 25.707 22.1523C27.1657 19.9131 28.6257 17.6703 30.0869 15.4238C30.2163 15.2731 30.3644 15.1462 30.5312 15.043C32.1849 17.4996 33.8353 19.954 35.4824 22.4062Z" fill="#3EAF91"/>
<path opacity="0.987" fill-rule="evenodd" clip-rule="evenodd" d="M3.23828 16.5665C3.08742 16.6762 2.93932 16.8031 2.79395 16.9474C2.70931 21.0945 2.70931 25.2416 2.79395 29.3888C2.97127 29.5881 3.1617 29.7574 3.36523 29.8966C2.39101 29.9176 1.4177 29.8966 0.445312 29.8331C0.256924 29.7491 0.0876539 29.6432 -0.0625 29.5157C-0.0625 25.284 -0.0625 21.0521 -0.0625 16.8204C0.0610818 16.7586 0.188034 16.6951 0.318359 16.63C1.29074 16.5665 2.26406 16.5454 3.23828 16.5665Z" fill="#3AE9BF"/>
<path opacity="0.987" fill-rule="evenodd" clip-rule="evenodd" d="M3.23633 16.5665C5.56419 16.5453 7.89166 16.5665 10.2188 16.63C10.3669 16.6935 10.4727 16.7993 10.5361 16.9474C10.6208 21.1369 10.6208 25.3263 10.5361 29.5158C10.4216 29.6682 10.2734 29.7741 10.0918 29.8331C8.82298 29.8966 7.55345 29.9177 6.28321 29.8966C5.60613 29.7274 4.92904 29.7274 4.25196 29.8966C3.95574 29.8966 3.6595 29.8966 3.36328 29.8966C3.15975 29.7575 2.96932 29.5881 2.792 29.3888C2.70736 25.2416 2.70736 21.0946 2.792 16.9474C2.93737 16.8032 3.08547 16.6762 3.23633 16.5665Z" fill="#3CFEB8"/>
<path fill-rule="evenodd" clip-rule="evenodd" d="M25.707 22.1543C26.1404 22.9791 26.606 23.7831 27.1035 24.5664C24.7761 24.5664 22.4485 24.5664 20.1211 24.5664C20.1211 23.6777 20.1211 22.7891 20.1211 21.9004C20.1634 21.8157 20.2058 21.7312 20.248 21.6465C21.0008 20.3519 21.8471 19.1247 22.7871 17.9648C23.7304 19.3872 24.7037 20.7837 25.707 22.1543Z" fill="#86D5B5"/>
<path fill-rule="evenodd" clip-rule="evenodd" d="M42.7207 24.5645C40.7741 24.5645 38.8274 24.5645 36.8809 24.5645C36.3837 23.8667 35.9183 23.1473 35.4844 22.4062C36.4502 20.9726 37.4236 19.5338 38.4043 18.0898C39.945 20.1806 41.3839 22.3388 42.7207 24.5645Z" fill="#86D5B5"/>
<path fill-rule="evenodd" clip-rule="evenodd" d="M20.1211 21.8984C20.1211 22.7871 20.1211 23.6758 20.1211 24.5645C19.5286 24.5645 18.9362 24.5645 18.3438 24.5645C18.9064 23.6492 19.4988 22.7606 20.1211 21.8984Z" fill="#7CC2A7"/>
<path opacity="0.913" fill-rule="evenodd" clip-rule="evenodd" d="M52.3672 27.36C52.6072 27.3342 52.7976 27.4188 52.9385 27.6139C53.2559 29.1161 54.1658 30.026 55.668 30.3434C56.0066 30.5973 56.0066 30.8512 55.668 31.1051C54.1658 31.4225 53.2559 32.3324 52.9385 33.8346C52.6846 34.1732 52.4307 34.1732 52.1768 33.8346C51.8594 32.3324 50.9495 31.4225 49.4473 31.1051C49.1087 30.8512 49.1087 30.5973 49.4473 30.3434C50.2722 30.1533 50.9705 29.7514 51.542 29.1373C51.7863 28.5224 52.0613 27.93 52.3672 27.36Z" fill="#AEFE49"/>
<path opacity="0.938" fill-rule="evenodd" clip-rule="evenodd" d="M6.28516 29.8965C6.28516 38.2754 6.28516 46.6543 6.28516 55.0332C6.24284 55.0332 6.20052 55.0332 6.1582 55.0332C5.52344 55.0332 4.88867 55.0332 4.25391 55.0332C4.25391 46.6543 4.25391 38.2754 4.25391 29.8965C4.93099 29.7272 5.60808 29.7272 6.28516 29.8965Z" fill="#085D39"/>
<path opacity="0.989" fill-rule="evenodd" clip-rule="evenodd" d="M16.9474 33.961C16.463 34.0892 16.1033 34.3854 15.8683 34.8497C15.8048 39.2505 15.7836 43.6516 15.8048 48.0528C15.4662 48.0528 15.1278 48.0528 14.7892 48.0528C14.7892 50.2957 14.7892 52.5385 14.7892 54.7813C14.6836 51.2058 14.6201 47.6089 14.5988 43.9903C14.3638 43.5261 14.0041 43.2299 13.5197 43.1016C13.4985 40.3083 13.5197 37.5153 13.5831 34.7227C13.742 34.357 14.0169 34.1243 14.4083 34.0245C15.2536 33.961 16.1 33.9399 16.9474 33.961Z" fill="#46E94D"/>
<path opacity="0.995" fill-rule="evenodd" clip-rule="evenodd" d="M16.9474 33.9609C21.1369 33.9609 25.3263 33.9609 29.5158 33.9609C29.5158 38.6582 29.5158 43.3555 29.5158 48.0527C28.3309 48.0527 27.1459 48.0527 25.9611 48.0527C25.9823 45.9787 25.9611 43.9052 25.8976 41.832C25.7918 41.6416 25.6437 41.4934 25.4533 41.3877C23.3373 41.303 21.2215 41.303 19.1056 41.3877C18.9999 41.4934 18.894 41.5993 18.7882 41.7051C18.7247 43.8205 18.7035 45.9364 18.7247 48.0527C17.7514 48.0527 16.7782 48.0527 15.8048 48.0527C15.7836 43.6515 15.8048 39.2504 15.8683 34.8496C16.1033 34.3853 16.463 34.0892 16.9474 33.9609Z" fill="#4AFEA8"/>
<path opacity="0.99" fill-rule="evenodd" clip-rule="evenodd" d="M31.5469 33.9611C36.5829 33.9399 41.6187 33.9611 46.6543 34.0246C47.1964 34.1858 47.5138 34.5456 47.6064 35.1037C47.6699 37.7693 47.6911 40.4353 47.6699 43.1017C47.1196 43.197 46.7175 43.4932 46.4639 43.9904C46.4004 45.3438 46.3792 46.698 46.4004 48.0529C45.2578 48.0529 44.1152 48.0529 42.9727 48.0529C43.0325 45.8826 42.969 43.7244 42.7822 41.5783C42.687 41.4988 42.5811 41.4353 42.4648 41.3878C40.3489 41.3032 38.2331 41.3032 36.1172 41.3878C36.0114 41.4936 35.9056 41.5995 35.7998 41.7052C35.7363 43.8206 35.7151 45.9366 35.7363 48.0529C34.3398 48.0529 32.9434 48.0529 31.5469 48.0529C31.5469 43.3556 31.5469 38.6583 31.5469 33.9611Z" fill="#4AFEA8"/>
<path opacity="0.986" fill-rule="evenodd" clip-rule="evenodd" d="M29.5156 33.9609C30.1927 33.9609 30.8698 33.9609 31.5469 33.9609C31.5469 38.6582 31.5469 43.3555 31.5469 48.0527C32.9434 48.0527 34.3398 48.0527 35.7363 48.0527C38.1484 48.0527 40.5605 48.0527 42.9727 48.0527C44.1152 48.0527 45.2578 48.0527 46.4004 48.0527C46.4423 50.36 46.4 52.6451 46.2734 54.9082C35.7786 54.9082 25.2839 54.9082 14.7891 54.9082C14.7891 54.8659 14.7891 54.8235 14.7891 54.7812C14.7891 52.5384 14.7891 50.2956 14.7891 48.0527C15.1276 48.0527 15.4661 48.0527 15.8047 48.0527C16.778 48.0527 17.7513 48.0527 18.7246 48.0527C21.1367 48.0527 23.5488 48.0527 25.9609 48.0527C27.1458 48.0527 28.3308 48.0527 29.5156 48.0527C29.5156 43.3555 29.5156 38.6582 29.5156 33.9609Z" fill="#6FFE3D"/>
<path opacity="0.981" fill-rule="evenodd" clip-rule="evenodd" d="M63.1598 43.3535C60.0707 43.3535 56.9814 43.3535 53.8922 43.3535C53.5259 42.6429 53.42 41.8811 53.5749 41.0684C53.6095 40.8362 53.7154 40.6458 53.8922 40.4971C57.0238 40.4124 60.1552 40.4124 63.2868 40.4971C63.3503 40.5606 63.4137 40.6241 63.4772 40.6875C63.5619 41.4493 63.5619 42.211 63.4772 42.9727C63.3886 43.1239 63.2828 43.2508 63.1598 43.3535Z" fill="#63EA70"/>
<path fill-rule="evenodd" clip-rule="evenodd" d="M25.9611 48.0528C23.549 48.0528 21.1369 48.0528 18.7247 48.0528C18.7035 45.9365 18.7247 43.8205 18.7882 41.7051C18.894 41.5994 18.9999 41.4935 19.1056 41.3877C21.2215 41.303 23.3373 41.303 25.4533 41.3877C25.6437 41.4935 25.7918 41.6416 25.8976 41.8321C25.9611 43.9052 25.9823 45.9787 25.9611 48.0528Z" fill="#43AF8F"/>
<path fill-rule="evenodd" clip-rule="evenodd" d="M42.9728 48.0528C40.5607 48.0528 38.1486 48.0528 35.7365 48.0528C35.7153 45.9365 35.7365 43.8205 35.7999 41.7051C35.9057 41.5994 36.0116 41.4935 36.1173 41.3877C38.2333 41.303 40.3491 41.303 42.465 41.3877C42.5813 41.4352 42.6872 41.4987 42.7824 41.5782C42.9691 43.7243 43.0326 45.8825 42.9728 48.0528Z" fill="#42AF90"/>
<path opacity="0.982" fill-rule="evenodd" clip-rule="evenodd" d="M12.7579 43.1016C12.1975 43.3454 11.8378 43.7685 11.6788 44.3712C11.5942 48.8145 11.5942 53.2579 11.6788 57.7013C11.8535 57.8542 12.0016 58.0235 12.1232 58.2091C11.1922 58.2091 10.2612 58.2091 9.3302 58.2091C9.20861 58.0235 9.0605 57.8542 8.88586 57.7013C8.82243 56.8136 8.80127 55.9249 8.82238 55.0352C8.80123 51.3533 8.82238 47.6717 8.88586 43.9903C9.08734 43.577 9.40472 43.3019 9.83801 43.1651C10.8104 43.1016 11.7837 43.0806 12.7579 43.1016Z" fill="#76E564"/>
<path opacity="0.991" fill-rule="evenodd" clip-rule="evenodd" d="M12.7578 43.1016C13.0117 43.1016 13.2656 43.1016 13.5195 43.1016C14.004 43.2298 14.3636 43.526 14.5986 43.9902C14.62 47.6088 14.6834 51.2057 14.7891 54.7812C14.7891 54.8235 14.7891 54.8659 14.7891 54.9082C14.8101 55.8824 14.7891 56.8558 14.7256 57.8281C14.6198 57.9339 14.514 58.0398 14.4082 58.1455C13.6476 58.2089 12.8859 58.2301 12.1231 58.209C12.0015 58.0234 11.8534 57.8542 11.6787 57.7012C11.5941 53.2578 11.5941 48.8145 11.6787 44.3711C11.8377 43.7684 12.1974 43.3453 12.7578 43.1016Z" fill="#7FFB6B"/>
<path opacity="0.993" fill-rule="evenodd" clip-rule="evenodd" d="M47.6713 43.1016C48.3483 43.1016 49.0255 43.1016 49.7025 43.1016C49.2181 43.2298 48.8584 43.526 48.6234 43.9902C48.5388 48.6028 48.5388 53.2155 48.6234 57.8281C48.7561 57.939 48.8619 58.0659 48.9408 58.209C48.178 58.2301 47.4162 58.2089 46.6557 58.1455C46.5922 58.082 46.5287 58.0186 46.4652 57.9551C46.2874 56.9502 46.2239 55.9346 46.2748 54.9082C46.4014 52.6451 46.4437 50.36 46.4018 48.0527C46.3806 46.6979 46.4018 45.3437 46.4652 43.9902C46.7189 43.4931 47.1209 43.1969 47.6713 43.1016Z" fill="#76E664"/>
<path opacity="0.992" fill-rule="evenodd" clip-rule="evenodd" d="M49.7012 43.1009C51.8703 42.8159 52.7166 43.7468 52.2403 45.8939C52.2403 47.8828 52.2403 49.8717 52.2403 51.8606C52.2403 52.7916 52.2403 53.7227 52.2403 54.6536C52.2403 55.7539 52.2403 56.8541 52.2403 57.9544C52.1167 58.0162 51.9898 58.0797 51.8594 58.1448C50.8871 58.2083 49.9137 58.2294 48.9395 58.2083C48.8605 58.0652 48.7548 57.9383 48.6221 57.8274C48.5374 53.2149 48.5374 48.6021 48.6221 43.9896C48.8571 43.5253 49.2168 43.2291 49.7012 43.1009Z" fill="#7FFB6B"/>
<path opacity="0.996" fill-rule="evenodd" clip-rule="evenodd" d="M53.8907 43.3555C56.9798 43.3555 60.0691 43.3555 63.1583 43.3555C63.2799 43.413 63.3858 43.4975 63.4757 43.6094C63.539 44.2851 63.5602 44.9622 63.5391 45.6406C60.1961 45.6406 56.8529 45.6406 53.5098 45.6406C53.4888 45.0466 53.51 44.4542 53.5733 43.8633C53.6505 43.6645 53.7564 43.4951 53.8907 43.3555Z" fill="#9CE7FF"/>
<path opacity="0.997" fill-rule="evenodd" clip-rule="evenodd" d="M53.5117 45.6393C56.8548 45.6393 60.198 45.6393 63.541 45.6393C64.0379 45.59 64.5033 45.6746 64.9375 45.8933C64.9375 47.8822 64.9375 49.8711 64.9375 51.86C60.7058 51.86 56.4739 51.86 52.2422 51.86C52.2422 49.8711 52.2422 47.8822 52.2422 45.8933C52.6237 45.6649 53.0468 45.5802 53.5117 45.6393Z" fill="#78AB37"/>
<path fill-rule="evenodd" clip-rule="evenodd" d="M57.0646 48.1777C58.1754 48.1257 59.2756 48.1892 60.3654 48.3682C61.0632 49.0071 61.0209 49.5996 60.2384 50.1455C59.1381 50.2302 58.0379 50.2302 56.9376 50.1455C56.384 49.8629 56.1936 49.4186 56.3663 48.8125C56.5448 48.5276 56.7775 48.3161 57.0646 48.1777Z" fill="#52C950"/>
<path opacity="0.98" fill-rule="evenodd" clip-rule="evenodd" d="M52.2422 51.8594C56.4739 51.8594 60.7058 51.8594 64.9375 51.8594C64.9375 52.7903 64.9375 53.7214 64.9375 54.6523C64.0377 54.6149 63.149 54.6572 62.2715 54.7793C59.7747 54.7793 57.278 54.7793 54.7812 54.7793C53.9587 54.6535 53.1123 54.6112 52.2422 54.6523C52.2422 53.7214 52.2422 52.7903 52.2422 51.8594Z" fill="#71CB52"/>
<path opacity="0.967" fill-rule="evenodd" clip-rule="evenodd" d="M52.2422 54.6519C53.1123 54.6108 53.9587 54.6531 54.7812 54.7789C54.8197 55.8439 54.7774 56.9018 54.6543 57.9527C54.5876 58.0406 54.503 58.104 54.4004 58.1431C53.7656 58.2278 53.1309 58.2278 52.4961 58.1431C52.427 58.0521 52.3424 57.9886 52.2422 57.9527C52.2422 56.8524 52.2422 55.7522 52.2422 54.6519Z" fill="#6AFE67"/>
<path opacity="0.942" fill-rule="evenodd" clip-rule="evenodd" d="M64.9372 54.6538C64.9372 55.7541 64.9372 56.8543 64.9372 57.9546C64.2022 58.2112 63.4405 58.2746 62.6521 58.145C62.5886 58.0816 62.5251 58.0181 62.4617 57.9546C62.2832 56.9074 62.2197 55.8493 62.2712 54.7808C63.1487 54.6586 64.0374 54.6164 64.9372 54.6538Z" fill="#6AFE67"/>
<path opacity="0.94" fill-rule="evenodd" clip-rule="evenodd" d="M4.25195 55.0352C4.88672 55.0352 5.52148 55.0352 6.15625 55.0352C5.42831 55.1223 4.68776 55.2069 3.93457 55.2891C3.73379 56.0792 3.69148 56.8832 3.80762 57.7013C3.89518 57.9361 4.04329 58.1055 4.25195 58.2091C3.23545 58.2301 2.21983 58.2091 1.20508 58.1456C1.05255 58.031 0.946759 57.8829 0.887696 57.7013C0.80306 56.9818 0.80306 56.2625 0.887696 55.5431C0.946759 55.3614 1.05255 55.2134 1.20508 55.0987C2.21983 55.0352 3.23545 55.0142 4.25195 55.0352Z" fill="#66D55C"/>
<path opacity="0.978" fill-rule="evenodd" clip-rule="evenodd" d="M6.15661 55.0352C6.19893 55.0352 6.24125 55.0352 6.28357 55.0352C7.12993 55.0352 7.97627 55.0352 8.82263 55.0352C8.80152 55.9248 8.82268 56.8135 8.88611 57.7012C9.06074 57.8542 9.20886 58.0234 9.33044 58.209C7.63774 58.209 5.94502 58.209 4.25232 58.209C4.04366 58.1054 3.89554 57.936 3.80798 57.7012C3.69185 56.8831 3.73416 56.0791 3.93494 55.2891C4.68812 55.2068 5.42868 55.1222 6.15661 55.0352Z" fill="#63E989"/>
</g>
<defs>
<clipPath id="clip0_663_6851">
<rect width="65" height="65" fill="white"/>
</clipPath>
</defs>
</svg>
