<svg width="65" height="65" viewBox="0 0 65 65" fill="none" xmlns="http://www.w3.org/2000/svg">
<path fill-rule="evenodd" clip-rule="evenodd" d="M16.1875 2.98438C16.1875 6.03125 16.1875 9.07812 16.1875 12.125C16.1875 14.8333 16.1875 17.5417 16.1875 20.25C11.7865 20.25 7.38542 20.25 2.98438 20.25C2.98438 14.4948 2.98438 8.73958 2.98438 2.98438C7.38542 2.98438 11.7865 2.98438 16.1875 2.98438Z" fill="#459145"/>
<path fill-rule="evenodd" clip-rule="evenodd" d="M16.1875 2.98438C16.4414 2.98438 16.6953 2.98438 16.9492 2.98438C16.9492 6.03125 16.9492 9.07812 16.9492 12.125C16.6953 12.125 16.4414 12.125 16.1875 12.125C16.1875 9.07812 16.1875 6.03125 16.1875 2.98438Z" fill="#323332"/>
<path fill-rule="evenodd" clip-rule="evenodd" d="M16.9492 2.98438C21.6465 2.98438 26.3438 2.98438 31.041 2.98438C31.041 6.03125 31.041 9.07812 31.041 12.125C28.7981 12.125 26.5554 12.125 24.3125 12.125C23.6355 12.125 22.9583 12.125 22.2812 12.125C20.5039 12.125 18.7266 12.125 16.9492 12.125C16.9492 9.07812 16.9492 6.03125 16.9492 2.98438Z" fill="#395639"/>
<path fill-rule="evenodd" clip-rule="evenodd" d="M31.0391 2.98438C31.293 2.98438 31.5469 2.98438 31.8008 2.98438C31.8008 6.03125 31.8008 9.07812 31.8008 12.125C31.5469 12.125 31.293 12.125 31.0391 12.125C31.0391 9.07812 31.0391 6.03125 31.0391 2.98438Z" fill="#323332"/>
<path fill-rule="evenodd" clip-rule="evenodd" d="M31.8008 2.98438C36.625 2.98438 41.4492 2.98438 46.2734 2.98438C46.2734 6.03125 46.2734 9.07812 46.2734 12.125C43.6921 12.125 41.1106 12.125 38.5293 12.125C37.8523 12.125 37.1751 12.125 36.498 12.125C34.9323 12.125 33.3665 12.125 31.8008 12.125C31.8008 9.07812 31.8008 6.03125 31.8008 2.98438Z" fill="#395639"/>
<path fill-rule="evenodd" clip-rule="evenodd" d="M46.2734 2.98438C46.5273 2.98438 46.7812 2.98438 47.0352 2.98438C47.0352 6.03125 47.0352 9.07812 47.0352 12.125C46.7812 12.125 46.5273 12.125 46.2734 12.125C46.2734 9.07812 46.2734 6.03125 46.2734 2.98438Z" fill="#323332"/>
<path fill-rule="evenodd" clip-rule="evenodd" d="M47.0352 2.98438C51.9863 2.98438 56.9375 2.98438 61.8887 2.98438C61.8887 6.03125 61.8887 9.07812 61.8887 12.125C56.9375 12.125 51.9863 12.125 47.0352 12.125C47.0352 9.07812 47.0352 6.03125 47.0352 2.98438Z" fill="#395639"/>
<path fill-rule="evenodd" clip-rule="evenodd" d="M6.03125 6.03125C8.40105 6.03125 10.7708 6.03125 13.1406 6.03125C13.1406 9.7552 13.1406 13.4792 13.1406 17.2031C10.7708 17.2031 8.40105 17.2031 6.03125 17.2031C6.03125 13.4792 6.03125 9.7552 6.03125 6.03125Z" fill="#323332"/>
<path fill-rule="evenodd" clip-rule="evenodd" d="M27.9922 6.03115C28.5828 5.96564 29.0271 6.17723 29.3252 6.66591C29.4317 7.35415 29.3895 8.03123 29.1983 8.69716C28.7537 9.09082 28.2671 9.15429 27.7383 8.88759C27.5615 8.73892 27.4556 8.54849 27.4209 8.3163C27.3363 7.76618 27.3363 7.21604 27.4209 6.66591C27.5511 6.38827 27.7415 6.17669 27.9922 6.03115Z" fill="#353535"/>
<path fill-rule="evenodd" clip-rule="evenodd" d="M35.1016 6.03115C35.6922 5.96564 36.1365 6.17723 36.4346 6.66591C36.5411 7.35415 36.4988 8.03123 36.3076 8.69716C35.8631 9.09082 35.3764 9.15429 34.8477 8.88759C34.6708 8.73892 34.565 8.54849 34.5303 8.3163C34.4456 7.76618 34.4456 7.21604 34.5303 6.66591C34.6604 6.38827 34.8509 6.17669 35.1016 6.03115Z" fill="#353535"/>
<path fill-rule="evenodd" clip-rule="evenodd" d="M49.3203 6.03115C49.9109 5.96564 50.3553 6.17723 50.6534 6.66591C50.7599 7.35415 50.7176 8.03123 50.5264 8.69716C50.0818 9.09082 49.5952 9.15429 49.0664 8.88759C48.8896 8.73892 48.7837 8.54849 48.7491 8.3163C48.6644 7.76618 48.6644 7.21604 48.7491 6.66591C48.8792 6.38827 49.0696 6.17669 49.3203 6.03115Z" fill="#353535"/>
<path opacity="0.998" fill-rule="evenodd" clip-rule="evenodd" d="M22.2808 12.125C22.9579 12.125 23.635 12.125 24.3121 12.125C24.3121 13.1406 24.3121 14.1562 24.3121 15.1719C28.3746 15.1719 32.4371 15.1719 36.4996 15.1719C36.4996 14.1562 36.4996 13.1406 36.4996 12.125C37.1766 12.125 37.8538 12.125 38.5308 12.125C38.5893 13.7457 38.5259 15.3538 38.3404 16.9492C38.2452 17.0287 38.1393 17.0922 38.023 17.1396C37.0507 17.2031 36.0773 17.2242 35.1031 17.2031C34.68 17.2031 34.2567 17.2031 33.8336 17.2031C31.5484 17.2031 29.2632 17.2031 26.9781 17.2031C26.555 17.2031 26.1317 17.2031 25.7086 17.2031C24.7343 17.2242 23.761 17.2031 22.7886 17.1396C22.6723 17.0922 22.5665 17.0287 22.4713 16.9492C22.2858 15.3538 22.2223 13.7457 22.2808 12.125ZM24.3121 12.125C26.555 12.125 28.7977 12.125 31.0406 12.125C31.2945 12.125 31.5484 12.125 31.8023 12.125C33.368 12.125 34.9339 12.125 36.4996 12.125C36.4996 13.1406 36.4996 14.1562 36.4996 15.1719C32.4371 15.1719 28.3746 15.1719 24.3121 15.1719C24.3121 14.1562 24.3121 13.1406 24.3121 12.125Z" fill="#7CF55E"/>
<path opacity="0.992" fill-rule="evenodd" clip-rule="evenodd" d="M25.7071 17.2031C26.1303 17.2031 26.5535 17.2031 26.9766 17.2031C26.9556 17.8816 26.9768 18.5586 27.0401 19.2344C27.6326 19.4883 28.0558 19.9114 28.3097 20.5039C28.3731 21.7727 28.3942 23.0422 28.3731 24.3125C27.0189 24.3125 25.6648 24.3125 24.3106 24.3125C24.2896 23.0422 24.3106 21.7727 24.3741 20.5039C24.628 19.9114 25.0512 19.4883 25.6436 19.2344C25.707 18.5586 25.7282 17.8816 25.7071 17.2031Z" fill="#82F494"/>
<path opacity="0.983" fill-rule="evenodd" clip-rule="evenodd" d="M33.834 17.2031C34.2571 17.2031 34.6804 17.2031 35.1035 17.2031C35.0619 17.8855 35.1042 18.5625 35.2305 19.2344C35.9306 19.4483 36.4596 19.8714 36.8174 20.5039C37.1298 21.4153 37.3626 22.3463 37.5156 23.2969C35.4844 23.2969 33.4531 23.2969 31.4219 23.2969C31.5749 22.3463 31.8077 21.4153 32.1201 20.5039C32.4779 19.8714 33.0069 19.4483 33.707 19.2344C33.8333 18.5625 33.8756 17.8855 33.834 17.2031Z" fill="#82F49B"/>
<path opacity="0.994" fill-rule="evenodd" clip-rule="evenodd" d="M62.0158 35.8653C56.5568 35.8653 51.0978 35.8653 45.6388 35.8653C45.6176 33.0719 45.6388 30.2789 45.7023 27.4864C46.0619 26.4495 46.7602 25.7513 47.797 25.3916C51.7748 25.307 55.7528 25.307 59.7306 25.3916C60.9452 25.7258 61.6857 26.5087 61.9523 27.7403C62.0158 30.4483 62.037 33.1566 62.0158 35.8653Z" fill="#354736"/>
<path fill-rule="evenodd" clip-rule="evenodd" d="M49.3203 28.3755C49.9272 28.2664 50.3715 28.478 50.6534 29.0102C50.738 29.9412 50.738 30.8723 50.6534 31.8032C50.2708 32.4424 49.7418 32.5906 49.0664 32.2475C48.914 32.1329 48.8081 31.9849 48.7491 31.8032C48.6644 30.8723 48.6644 29.9412 48.7491 29.0102C48.8792 28.7326 49.0696 28.521 49.3203 28.3755Z" fill="#010101"/>
<path opacity="0.983" fill-rule="evenodd" clip-rule="evenodd" d="M36.4981 40.5598C35.821 40.5598 35.1439 40.5598 34.4668 40.5598C34.488 38.5282 34.4668 36.4969 34.4034 34.466C34.1293 33.5657 33.579 33.3542 32.753 33.8313C32.5385 34.6561 32.3481 35.4813 32.1817 36.3069C31.7752 36.4951 31.3519 36.5375 30.9121 36.4338C30.6794 36.3703 30.5313 36.2222 30.4678 35.9895C30.3831 35.1855 30.3831 34.3814 30.4678 33.5774C31.1606 31.8023 32.4513 31.1041 34.3399 31.4826C35.231 31.7811 35.8869 32.3524 36.3076 33.1965C36.4934 35.6423 36.5569 38.0968 36.4981 40.5598Z" fill="#6BF55F"/>
<path fill-rule="evenodd" clip-rule="evenodd" d="M13.1406 34.4688C13.1406 37.5156 13.1406 40.5625 13.1406 43.6094C9.7552 43.6094 6.3698 43.6094 2.98438 43.6094C2.98438 40.5625 2.98438 37.5156 2.98438 34.4688C6.3698 34.4688 9.7552 34.4688 13.1406 34.4688Z" fill="#3A613A"/>
<path fill-rule="evenodd" clip-rule="evenodd" d="M13.1406 34.4688C14.8333 34.4688 16.5261 34.4688 18.2188 34.4688C18.2188 36.1614 18.2188 37.8542 18.2188 39.5469C18.2188 40.9011 18.2188 42.2552 18.2188 43.6094C19.9114 43.6094 21.6042 43.6094 23.2969 43.6094C23.2969 45.302 23.2969 46.9948 23.2969 48.6875C16.5261 48.6875 9.7552 48.6875 2.98438 48.6875C2.98438 46.9948 2.98438 45.302 2.98438 43.6094C6.3698 43.6094 9.7552 43.6094 13.1406 43.6094C13.1406 40.5625 13.1406 37.5156 13.1406 34.4688Z" fill="#354736"/>
<path opacity="0.962" fill-rule="evenodd" clip-rule="evenodd" d="M23.8037 39.546C23.042 39.546 22.2803 39.546 21.5186 39.546C21.5886 39.2138 21.631 38.8753 21.6455 38.5303C21.4431 37.6927 21.3374 36.8463 21.3281 35.9913C21.5222 35.6084 21.8396 35.4392 22.2803 35.4835C22.9671 35.4713 23.3692 35.8099 23.4863 36.4991C23.7603 37.4955 23.866 38.5112 23.8037 39.546Z" fill="#9EC698"/>
<path opacity="0.962" fill-rule="evenodd" clip-rule="evenodd" d="M26.8506 39.546C26.0889 39.546 25.3271 39.546 24.5654 39.546C24.6355 39.2138 24.6779 38.8753 24.6924 38.5303C24.49 37.6927 24.3843 36.8463 24.375 35.9913C24.5691 35.6084 24.8865 35.4392 25.3271 35.4835C26.014 35.4713 26.416 35.8099 26.5332 36.4991C26.8072 37.4955 26.9129 38.5112 26.8506 39.546Z" fill="#9EC698"/>
<path fill-rule="evenodd" clip-rule="evenodd" d="M4.37891 35.8633C6.83333 35.8633 9.28776 35.8633 11.7422 35.8633C11.7422 37.9792 11.7422 40.095 11.7422 42.2109C9.28776 42.2109 6.83333 42.2109 4.37891 42.2109C4.37891 40.095 4.37891 37.9792 4.37891 35.8633Z" fill="#A7D3A0"/>
<path fill-rule="evenodd" clip-rule="evenodd" d="M45.6406 35.8633C51.0996 35.8633 56.5586 35.8633 62.0176 35.8633C62.0176 36.2864 62.0176 36.7097 62.0176 37.1328C56.5586 37.1328 51.0996 37.1328 45.6406 37.1328C45.6406 36.7097 45.6406 36.2864 45.6406 35.8633Z" fill="black"/>
<path fill-rule="evenodd" clip-rule="evenodd" d="M15.2987 36.7549C16.1011 36.732 16.4184 37.1129 16.2509 37.8975C15.8277 38.4053 15.4045 38.4053 14.9813 37.8975C14.8451 37.4404 14.9509 37.0596 15.2987 36.7549Z" fill="#020202"/>
<path fill-rule="evenodd" clip-rule="evenodd" d="M7.68066 36.8789C7.95774 36.9805 8.16933 37.1709 8.31543 37.4502C7.65352 38.1502 6.95528 38.8062 6.2207 39.418C5.96899 39.2572 5.84204 39.0457 5.83984 38.7832C6.48545 38.1591 7.09905 37.5243 7.68066 36.8789Z" fill="#2C442E"/>
<path opacity="0.995" fill-rule="evenodd" clip-rule="evenodd" d="M45.6406 37.1328C51.0996 37.1328 56.5586 37.1328 62.0176 37.1328C62.0388 44.5809 62.0176 52.0287 61.9541 59.4766C61.6875 60.7081 60.947 61.4911 59.7324 61.8252C55.7546 61.9099 51.7767 61.9099 47.7988 61.8252C46.7598 61.4419 46.0404 60.7437 45.6406 59.7305C45.6406 54.3562 45.6406 48.9817 45.6406 43.6074C45.6406 41.4492 45.6406 39.291 45.6406 37.1328Z" fill="#2A4F2A"/>
<path fill-rule="evenodd" clip-rule="evenodd" d="M9.33105 37.3867C9.69941 37.4503 9.88984 37.6618 9.90234 38.0215C8.84061 39.1256 7.74034 40.1836 6.60156 41.1953C6.34985 41.0346 6.2229 40.8231 6.2207 40.5605C7.28317 39.5193 8.31996 38.4614 9.33105 37.3867Z" fill="#3B3B3B"/>
<path opacity="0.987" fill-rule="evenodd" clip-rule="evenodd" d="M33.4513 40.5616C32.7742 40.5616 32.097 40.5616 31.42 40.5616C31.3989 39.7142 31.42 38.8678 31.4835 38.0225C31.6776 37.6396 31.995 37.4704 32.4356 37.5147C32.8763 37.4704 33.1937 37.6396 33.3878 38.0225C33.4513 38.8678 33.4723 39.7142 33.4513 40.5616Z" fill="#6BF55F"/>
<path opacity="0.987" fill-rule="evenodd" clip-rule="evenodd" d="M39.545 40.5616C38.868 40.5616 38.1908 40.5616 37.5138 40.5616C37.4927 39.7142 37.5138 38.8678 37.5772 38.0225C37.7713 37.6396 38.0887 37.4704 38.5294 37.5147C38.97 37.4704 39.2874 37.6396 39.4815 38.0225C39.545 38.8678 39.5661 39.7142 39.545 40.5616Z" fill="#6BF55F"/>
<path fill-rule="evenodd" clip-rule="evenodd" d="M9.58594 39.1641C9.86889 39.2345 10.0805 39.4039 10.2207 39.6719C9.79753 40.1797 9.33203 40.6452 8.82422 41.0684C8.63615 40.9439 8.46688 40.7958 8.31641 40.624C8.81353 40.1911 9.23671 39.7045 9.58594 39.1641Z" fill="#2C442E"/>
<path fill-rule="evenodd" clip-rule="evenodd" d="M18.2188 39.5469C19.3191 39.5469 20.4192 39.5469 21.5195 39.5469C22.2812 39.5469 23.043 39.5469 23.8047 39.5469C24.0586 39.5469 24.3125 39.5469 24.5664 39.5469C25.3281 39.5469 26.0898 39.5469 26.8516 39.5469C27.3594 39.5469 27.8672 39.5469 28.375 39.5469C28.375 39.8855 28.375 40.2239 28.375 40.5625C29.3906 40.5625 30.4062 40.5625 31.4219 40.5625C32.0989 40.5625 32.7761 40.5625 33.4531 40.5625C33.7917 40.5625 34.1302 40.5625 34.4688 40.5625C35.1458 40.5625 35.823 40.5625 36.5 40.5625C36.8386 40.5625 37.177 40.5625 37.5156 40.5625C38.1927 40.5625 38.8698 40.5625 39.5469 40.5625C40.5625 40.5625 41.5781 40.5625 42.5938 40.5625C42.5938 41.5781 42.5938 42.5938 42.5938 43.6094C40.0124 43.6094 37.4309 43.6094 34.8496 43.6094C34.5957 43.6094 34.3418 43.6094 34.0879 43.6094C30.4909 43.6094 26.8938 43.6094 23.2969 43.6094C21.6042 43.6094 19.9114 43.6094 18.2188 43.6094C18.2188 42.2552 18.2188 40.9011 18.2188 39.5469Z" fill="#B7D7B7"/>
<path fill-rule="evenodd" clip-rule="evenodd" d="M15.2987 39.8018C16.1011 39.7789 16.4184 40.1598 16.2509 40.9443C15.8277 41.4521 15.4045 41.4521 14.9813 40.9443C14.8451 40.4873 14.9509 40.1064 15.2987 39.8018Z" fill="#020202"/>
<path fill-rule="evenodd" clip-rule="evenodd" d="M49.3203 40.563C49.9272 40.4539 50.3715 40.6655 50.6534 41.1977C50.738 42.4673 50.738 43.7368 50.6534 45.0063C50.2708 45.6455 49.7418 45.7937 49.0664 45.4507C48.914 45.336 48.8081 45.188 48.7491 45.0063C48.6644 43.7368 48.6644 42.4673 48.7491 41.1977C48.8792 40.9201 49.0696 40.7085 49.3203 40.563Z" fill="black"/>
<path fill-rule="evenodd" clip-rule="evenodd" d="M23.2969 43.6094C26.8938 43.6094 30.4909 43.6094 34.0879 43.6094C34.0879 49.7031 34.0879 55.7969 34.0879 61.8906C30.4909 61.8906 26.8938 61.8906 23.2969 61.8906C23.2969 57.4895 23.2969 53.0886 23.2969 48.6875C23.2969 46.9948 23.2969 45.302 23.2969 43.6094Z" fill="#395639"/>
<path fill-rule="evenodd" clip-rule="evenodd" d="M34.0859 43.6094C34.3398 43.6094 34.5938 43.6094 34.8477 43.6094C34.8477 49.7031 34.8477 55.7969 34.8477 61.8906C34.5938 61.8906 34.3398 61.8906 34.0859 61.8906C34.0859 55.7969 34.0859 49.7031 34.0859 43.6094Z" fill="#323332"/>
<path fill-rule="evenodd" clip-rule="evenodd" d="M34.8477 43.6094C37.429 43.6094 40.0105 43.6094 42.5918 43.6094C43.6074 43.6094 44.623 43.6094 45.6387 43.6094C45.6387 48.9837 45.6387 54.3581 45.6387 59.7324C45.6387 60.4519 45.6387 61.1712 45.6387 61.8906C42.0417 61.8906 38.4446 61.8906 34.8477 61.8906C34.8477 55.7969 34.8477 49.7031 34.8477 43.6094Z" fill="#395639"/>
<path fill-rule="evenodd" clip-rule="evenodd" d="M10.7267 45.1311C11.7623 45.0452 12.2067 45.5107 12.0597 46.5276C11.7771 47.0813 11.3328 47.2717 10.7267 47.0989C10.1731 46.8163 9.98262 46.372 10.1554 45.7659C10.2855 45.4883 10.4759 45.2766 10.7267 45.1311Z" fill="#020202"/>
<path fill-rule="evenodd" clip-rule="evenodd" d="M13.7736 45.1311C14.8092 45.0452 15.2536 45.5107 15.1066 46.5276C14.824 47.0813 14.3796 47.2717 13.7736 47.0989C13.2199 46.8163 13.0295 46.372 13.2023 45.7659C13.3324 45.4883 13.5228 45.2766 13.7736 45.1311Z" fill="#020202"/>
<path fill-rule="evenodd" clip-rule="evenodd" d="M5.01562 45.6406C6.3698 45.6406 7.72395 45.6406 9.07812 45.6406C9.07812 45.9792 9.07812 46.3177 9.07812 46.6562C7.72395 46.6562 6.3698 46.6562 5.01562 46.6562C5.01562 46.3177 5.01562 45.9792 5.01562 45.6406Z" fill="black"/>
<path fill-rule="evenodd" clip-rule="evenodd" d="M16.4403 45.6406C17.2005 45.6614 17.3697 45.9788 16.9481 46.5928C16.174 46.6114 16.0048 46.2941 16.4403 45.6406Z" fill="#030303"/>
<path fill-rule="evenodd" clip-rule="evenodd" d="M2.98438 48.6875C9.7552 48.6875 16.5261 48.6875 23.2969 48.6875C23.2969 53.0886 23.2969 57.4895 23.2969 61.8906C16.5261 61.8906 9.7552 61.8906 2.98438 61.8906C2.98438 57.4895 2.98438 53.0886 2.98438 48.6875Z" fill="#426842"/>
<path fill-rule="evenodd" clip-rule="evenodd" d="M30.0235 48.6874C30.6141 48.6219 31.0584 48.8335 31.3565 49.3222C31.463 50.0104 31.4207 50.6874 31.2295 51.3534C30.7849 51.7471 30.2983 51.8106 29.7696 51.5438C29.5927 51.3952 29.4868 51.2047 29.4522 50.9726C29.3675 50.4225 29.3675 49.8722 29.4522 49.3222C29.5823 49.0445 29.7727 48.8329 30.0235 48.6874Z" fill="#353535"/>
<path fill-rule="evenodd" clip-rule="evenodd" d="M38.1485 48.6874C38.7391 48.6219 39.1834 48.8335 39.4815 49.3222C39.588 50.0104 39.5457 50.6874 39.3545 51.3534C38.9099 51.7471 38.4233 51.8106 37.8946 51.5438C37.7177 51.3952 37.6118 51.2047 37.5772 50.9726C37.4925 50.4225 37.4925 49.8722 37.5772 49.3222C37.7073 49.0445 37.8977 48.8329 38.1485 48.6874Z" fill="#353535"/>
<path fill-rule="evenodd" clip-rule="evenodd" d="M6.03125 51.7344C10.7708 51.7344 15.5105 51.7344 20.25 51.7344C20.25 54.1042 20.25 56.4739 20.25 58.8438C15.5105 58.8438 10.7708 58.8438 6.03125 58.8438C6.03125 56.4739 6.03125 54.1042 6.03125 51.7344Z" fill="#A8BFAA"/>
<path fill-rule="evenodd" clip-rule="evenodd" d="M14.4098 52.6211C14.7682 52.7034 14.9587 52.9149 14.9811 53.2559C13.4322 54.847 11.9298 56.4762 10.4743 58.1436C9.9099 58.172 9.76179 57.9393 10.03 57.4453C11.5631 55.8917 13.023 54.2835 14.4098 52.6211Z" fill="#213522"/>
<path fill-rule="evenodd" clip-rule="evenodd" d="M11.6172 53.3828C11.8767 53.4502 12.0883 53.5984 12.252 53.8271C11.4902 54.6735 10.7285 55.5198 9.9668 56.3662C9.70431 56.3641 9.49272 56.2371 9.33203 55.9854C10.1202 55.1341 10.882 54.2667 11.6172 53.3828Z" fill="#213522"/>
<path fill-rule="evenodd" clip-rule="evenodd" d="M26.9771 53.765C28.3412 53.7105 29.6954 53.774 31.0396 53.9554C31.4647 54.3894 31.5281 54.8761 31.2301 55.4153C31.0814 55.5922 30.891 55.6981 30.6588 55.7327C29.4315 55.8174 28.2044 55.8174 26.9771 55.7327C26.1378 55.0723 26.1378 54.4164 26.9771 53.765Z" fill="#343434"/>
<path fill-rule="evenodd" clip-rule="evenodd" d="M38.149 53.765C39.5131 53.7105 40.8673 53.774 42.2115 53.9554C42.6365 54.3894 42.7 54.8761 42.4019 55.4153C42.2533 55.5922 42.0628 55.6981 41.8306 55.7327C40.6034 55.8174 39.3763 55.8174 38.149 55.7327C37.3097 55.0723 37.3097 54.4164 38.149 53.765Z" fill="#343434"/>
<path fill-rule="evenodd" clip-rule="evenodd" d="M14.791 54.6523C15.0315 54.7219 15.243 54.8489 15.4258 55.0332C14.8295 55.7557 14.2371 56.4751 13.6484 57.1914C13.4368 57.0645 13.2676 56.8952 13.1406 56.6836C13.6938 56.0041 14.2438 55.327 14.791 54.6523Z" fill="#213522"/>
<path fill-rule="evenodd" clip-rule="evenodd" d="M26.9771 56.8118C28.3412 56.7574 29.6954 56.8208 31.0396 57.0023C31.4647 57.4363 31.5281 57.9229 31.2301 58.4622C31.0814 58.6391 30.891 58.7449 30.6588 58.7796C29.4315 58.8643 28.2044 58.8643 26.9771 58.7796C26.1378 58.1192 26.1378 57.4632 26.9771 56.8118Z" fill="#343434"/>
<path fill-rule="evenodd" clip-rule="evenodd" d="M38.149 56.8118C39.5131 56.7574 40.8673 56.8208 42.2115 57.0023C42.6365 57.4363 42.7 57.9229 42.4019 58.4622C42.2533 58.6391 42.0628 58.7449 41.8306 58.7796C40.6034 58.8643 39.3763 58.8643 38.149 58.7796C37.3097 58.1192 37.3097 57.4632 38.149 56.8118Z" fill="#343434"/>
</svg>
