<svg width="65" height="65" viewBox="0 0 65 65" fill="none" xmlns="http://www.w3.org/2000/svg">
<g clip-path="url(#clip0_665_7570)">
<path d="M53.2844 17.6667H11.7155C10.519 17.6667 9.54883 16.6967 9.54883 15.5V7.23702C9.54883 6.04049 10.5189 5.07031 11.7155 5.07031H53.2843C54.4808 5.07031 55.451 6.04036 55.451 7.23702V15.5001C55.4511 16.6967 54.481 17.6667 53.2844 17.6667Z" fill="#366332"/>
<path d="M53.2844 5.07031H32.5V17.6667H53.2844C54.4809 17.6667 55.4511 16.6967 55.4511 15.5V7.23689C55.4511 6.04036 54.4809 5.07031 53.2844 5.07031Z" fill="#153D07"/>
<path d="M61.0417 30.3107C58.0454 25.9046 51.9812 24.9334 47.7648 28.1915C42.8824 31.9698 36.0609 31.9724 31.1765 28.1914C27.9198 25.6692 23.2894 25.567 19.8929 28.1915C13.8668 32.8554 4.87741 31.7061 0.374004 25.0702C0.130127 24.7111 0 24.2873 0 23.8534V15.4987C0 14.3022 0.970049 13.332 2.16671 13.332H62.8334C64.0299 13.332 65.0001 14.3021 65.0001 15.4987V29.0924C65 31.2243 62.2361 32.0674 61.0417 30.3107Z" fill="#4AFF72"/>
<path d="M62.8333 13.332H32.5V29.0943C37.6542 32.1904 43.9526 31.3265 47.8155 28.151C51.9995 24.9566 58.0426 25.9004 61.0417 30.3107C62.236 32.0674 65 31.2242 65 29.0924V15.4987C65 14.3021 64.03 13.332 62.8333 13.332Z" fill="#16D929"/>
<path d="M62.8333 59.9306H2.16671C0.970049 59.9306 0 58.9605 0 57.764V23.8542C0 22.9026 0.620801 22.0626 1.53029 21.7832C2.43966 21.5039 3.42507 21.8502 3.95941 22.6376C6.92974 27.0142 12.968 28.0481 17.2406 24.764C22.1242 20.9834 28.9458 20.9838 33.8295 24.7658C37.1497 27.3362 41.7926 27.3371 45.1125 24.7639C51.1365 20.1013 60.1195 21.2498 64.6249 27.8748C64.8692 28.2342 65 28.6587 65 29.0931V57.764C65 58.9605 64.03 59.9306 62.8333 59.9306Z" fill="#A7FF99"/>
<path d="M64.6251 27.8764C59.9287 20.9705 50.5896 20.2706 45.0626 24.8055C41.7437 27.3376 37.1334 27.325 33.8295 24.7674C33.4006 24.4353 32.9561 24.1341 32.5 23.8603V59.9323H62.8333C64.0298 59.9323 65 58.9622 65 57.7656V29.0947C65.0003 28.6603 64.8696 28.2358 64.6251 27.8764Z" fill="#4AFF72"/>
<path d="M17.16 48.1953C16.4567 47.2271 16.6714 45.8722 17.6394 45.1689L22.2041 41.8529L17.6395 38.537C16.6713 37.8337 16.4567 36.4788 17.16 35.5105C17.8631 34.5425 19.2181 34.3277 20.1863 35.031L27.1642 40.0999C28.3553 40.9648 28.3531 42.7422 27.1642 43.6057L20.1865 48.6746C19.219 49.3778 17.8635 49.164 17.16 48.1953Z" fill="#F3F66E"/>
<path d="M23.993 42.8968C23.6351 42.2464 23.6351 41.4578 23.993 40.8074C28.5289 32.5657 43.4587 32.5731 47.991 40.8074C48.3491 41.4578 48.3491 42.2464 47.991 42.8969C43.4546 51.139 28.5246 51.1308 23.993 42.8968Z" fill="#F4FAAC"/>
<path d="M47.9907 40.8064C45.1767 35.6937 38.3542 33.7537 32.5 34.9897V48.7118C38.3529 49.9486 45.1744 48.0126 47.9907 42.896C48.3488 42.2453 48.3487 41.4568 47.9907 40.8064Z" fill="#F8FB71"/>
</g>
<defs>
<clipPath id="clip0_665_7570">
<rect width="65" height="65" fill="white"/>
</clipPath>
</defs>
</svg>
