<svg width="65" height="65" viewBox="0 0 65 65" fill="none" xmlns="http://www.w3.org/2000/svg">
<g clip-path="url(#clip0_662_5876)">
<path opacity="0.986" fill-rule="evenodd" clip-rule="evenodd" d="M51.7325 9.96534C53.4198 10.5459 54.2239 11.7308 54.1447 13.52C51.7322 13.5412 49.3201 13.52 46.9083 13.4565C45.0172 13.0084 43.4303 12.0562 42.1476 10.6001C40.274 6.43464 37.0367 4.36107 32.4357 4.3794C27.8416 4.35827 24.6043 6.43184 22.7238 10.6001C21.4238 12.192 19.7523 13.1441 17.7091 13.4565C15.3397 13.52 12.9699 13.5412 10.5997 13.52C10.5997 20.1639 10.5997 26.8078 10.5997 33.4517C9.39177 33.4932 8.20688 33.4509 7.04505 33.3247C7.02388 26.3844 7.04505 19.4444 7.10852 12.5044C7.41204 11.2275 8.19491 10.4023 9.45716 10.0288C11.9539 9.9865 14.4506 9.94417 16.9474 9.90186C18.0176 9.77934 18.9274 9.335 19.6769 8.56885C21.7942 4.17027 25.2854 1.61006 30.1505 0.888187C35.0155 0.214955 39.2261 1.54796 42.7823 4.88721C43.681 6.0493 44.4852 7.27652 45.1945 8.56885C45.944 9.335 46.8537 9.77934 47.924 9.90186C49.1927 9.96531 50.4623 9.98647 51.7325 9.96534Z" fill="#5BFE89"/>
<path fill-rule="evenodd" clip-rule="evenodd" d="M54.1465 13.5197C54.2733 20.1421 54.3156 26.7859 54.2734 33.4513C49.8724 33.4513 45.4714 33.4513 41.0703 33.4513C42.2074 33.0969 42.9479 32.3352 43.292 31.1662C43.3767 28.3732 43.3767 25.5802 43.292 22.7873C43.0377 21.7714 42.4241 21.0731 41.4512 20.6925C40.1494 20.5115 38.8375 20.448 37.5156 20.5021C32.9451 20.4809 28.3747 20.5021 23.8047 20.5656C22.6409 20.883 21.9004 21.6235 21.583 22.7873C21.4983 25.5802 21.4983 28.3732 21.583 31.1662C21.9121 32.2776 22.6103 33.0394 23.6777 33.4513C19.3191 33.4513 14.9602 33.4513 10.6016 33.4513C10.6016 26.8075 10.6016 20.1635 10.6016 13.5197C12.9718 13.5409 15.3415 13.5197 17.7109 13.4562C19.7541 13.1438 21.4256 12.1917 22.7256 10.5998C24.6061 6.4315 27.8434 4.35794 32.4375 4.37907C37.0385 4.36073 40.2758 6.43431 42.1494 10.5998C43.4321 12.0559 45.0191 13.0081 46.9102 13.4562C49.3219 13.5197 51.734 13.5409 54.1465 13.5197Z" fill="#92DC58"/>
<path fill-rule="evenodd" clip-rule="evenodd" d="M51.7344 9.96416C53.0985 9.90972 54.4527 9.9732 55.7969 10.1546C56.6643 10.5143 57.278 11.1279 57.6377 11.9954C57.8261 19.0989 57.8896 26.2083 57.8281 33.3235C57.7847 33.4299 57.7002 33.4723 57.5742 33.4505C56.4739 33.4505 55.3737 33.4505 54.2734 33.4505C54.3156 26.7851 54.2733 20.1412 54.1465 13.5188C54.2257 11.7296 53.4216 10.5447 51.7344 9.96416Z" fill="#74FE44"/>
<path fill-rule="evenodd" clip-rule="evenodd" d="M50.7178 13.6484C51.8603 13.6484 53.0029 13.6484 54.1455 13.6484C54.1455 20.2077 54.1455 26.7669 54.1455 33.3262C52.9606 33.3262 51.7757 33.3262 50.5908 33.3262C50.5507 26.764 50.5931 20.2048 50.7178 13.6484Z" fill="#5AD147"/>
<path fill-rule="evenodd" clip-rule="evenodd" d="M37.5137 20.504C38.766 20.8896 39.5065 21.7359 39.7354 23.0431C39.8201 25.7514 39.8201 28.4598 39.7354 31.1681C39.3948 32.3338 38.6541 33.0955 37.5137 33.4533C32.9011 33.4533 28.2884 33.4533 23.6758 33.4533C22.6084 33.0413 21.9101 32.2796 21.5811 31.1681C21.4964 28.3751 21.4964 25.5822 21.5811 22.7892C21.8985 21.6254 22.639 20.8849 23.8028 20.5675C28.3728 20.504 32.9431 20.4828 37.5137 20.504Z" fill="#F1FAFE"/>
<path fill-rule="evenodd" clip-rule="evenodd" d="M37.5156 20.503C38.8375 20.449 40.1494 20.5124 41.4512 20.6935C42.4241 21.0741 43.0377 21.7723 43.292 22.7882C43.3767 25.5812 43.3767 28.3741 43.292 31.1671C42.9479 32.3361 42.2074 33.0978 41.0703 33.4523C39.8855 33.4523 38.7005 33.4523 37.5156 33.4523C38.656 33.0945 39.3967 32.3328 39.7373 31.1671C39.822 28.4588 39.822 25.7504 39.7373 23.0421C39.5084 21.7349 38.7679 20.8886 37.5156 20.503Z" fill="#DFF5FC"/>
<path opacity="0.999" fill-rule="evenodd" clip-rule="evenodd" d="M7.04688 33.3247C8.20871 33.4509 9.3936 33.4932 10.6016 33.4517C14.9602 33.4517 19.3191 33.4517 23.6777 33.4517C28.2903 33.4517 32.903 33.4517 37.5156 33.4517C38.7005 33.4517 39.8855 33.4517 41.0703 33.4517C45.4714 33.4517 49.8724 33.4517 54.2734 33.4517C55.3737 33.4517 56.4739 33.4517 57.5742 33.4517C58.4991 33.7361 59.1549 34.3286 59.542 35.229C59.6055 37.4291 59.6267 39.6296 59.6055 41.8306C39.7161 41.8306 19.8269 41.8306 -0.0625 41.8306C-0.0625 39.6301 -0.0625 37.4295 -0.0625 35.229C0.294789 34.4276 0.887238 33.8563 1.71484 33.5152C3.48647 33.339 5.26382 33.2755 7.04688 33.3247Z" fill="#98FCA2"/>
<path fill-rule="evenodd" clip-rule="evenodd" d="M57.8281 33.3247C59.6112 33.2755 61.3885 33.339 63.1602 33.5152C63.9878 33.8563 64.5803 34.4276 64.9375 35.229C64.9375 37.4295 64.9375 39.6301 64.9375 41.8306C63.1602 41.8306 61.3828 41.8306 59.6055 41.8306C59.6267 39.6296 59.6055 37.4291 59.542 35.229C59.1549 34.3286 58.4991 33.7361 57.5742 33.4517C57.7002 33.4735 57.7847 33.4311 57.8281 33.3247Z" fill="#62FBC4"/>
<path fill-rule="evenodd" clip-rule="evenodd" d="M-0.0625 41.957C19.8269 41.957 39.7161 41.957 59.6055 41.957C59.6267 44.0733 59.6055 46.1893 59.542 48.3047C59.2755 49.2058 58.7042 49.8195 57.8281 50.1455C59.4582 50.167 61.0663 50.2304 62.6523 50.3359C61.002 50.3359 59.3516 50.3359 57.7012 50.3359C39.0813 50.3359 20.4616 50.3359 1.8418 50.3359C0.964078 50.0085 0.329313 49.416 -0.0625 48.5586C-0.0625 46.3581 -0.0625 44.1575 -0.0625 41.957Z" fill="#F1FAFE"/>
<path fill-rule="evenodd" clip-rule="evenodd" d="M-0.0625 41.959C-0.0625 41.9167 -0.0625 41.8743 -0.0625 41.832C19.8269 41.832 39.7161 41.832 59.6055 41.832C61.3828 41.832 63.1602 41.832 64.9375 41.832C64.9375 44.0749 64.9375 46.3177 64.9375 48.5605C64.5457 49.418 63.911 50.0105 63.0332 50.3379C62.9062 50.3379 62.7793 50.3379 62.6523 50.3379C61.0663 50.2324 59.4582 50.1689 57.8281 50.1475C58.7042 49.8214 59.2755 49.2078 59.542 48.3066C59.6055 46.1912 59.6267 44.0753 59.6055 41.959C39.7161 41.959 19.8269 41.959 -0.0625 41.959Z" fill="#DDF5FD"/>
<path opacity="0.996" fill-rule="evenodd" clip-rule="evenodd" d="M1.8418 50.3359C20.4616 50.3359 39.0813 50.3359 57.7012 50.3359C59.4134 51.1382 60.0482 52.4924 59.6055 54.3984C59.6194 55.2968 59.556 56.1854 59.415 57.0645C59.0136 57.8688 58.3999 58.4189 57.5742 58.7148C56.8972 58.7148 56.22 58.7148 55.543 58.7148C40.1394 58.7148 24.7356 58.7148 9.33203 58.7148C8.65495 58.7148 7.97786 58.7148 7.30078 58.7148C5.48063 58.736 3.66097 58.7148 1.8418 58.6514C0.941364 58.3641 0.306598 57.7928 -0.0625 56.9375C-0.0625 55.3294 -0.0625 53.7214 -0.0625 52.1133C0.238846 51.1775 0.873612 50.5851 1.8418 50.3359Z" fill="#58DB8C"/>
<path fill-rule="evenodd" clip-rule="evenodd" d="M57.7012 50.3359C59.3516 50.3359 61.002 50.3359 62.6523 50.3359C62.7793 50.3359 62.9062 50.3359 63.0332 50.3359C64.0011 50.5854 64.6359 51.1778 64.9375 52.1133C64.9375 53.7214 64.9375 55.3294 64.9375 56.9375C64.5684 57.7928 63.9337 58.3641 63.0332 58.6514C61.2141 58.7148 59.3943 58.736 57.5742 58.7148C58.3999 58.4189 59.0136 57.8688 59.415 57.0645C59.556 56.1854 59.6194 55.2968 59.6055 54.3984C60.0482 52.4924 59.4134 51.1382 57.7012 50.3359Z" fill="#5AD147"/>
<path opacity="0.962" fill-rule="evenodd" clip-rule="evenodd" d="M7.29894 58.7148C7.97602 58.7148 8.65312 58.7148 9.33019 58.7148C9.35135 60.3657 9.33018 62.0161 9.26672 63.666C8.57641 64.3709 7.94165 64.3286 7.36242 63.5391C7.29896 61.9316 7.27779 60.3235 7.29894 58.7148Z" fill="#829182"/>
<path opacity="0.964" fill-rule="evenodd" clip-rule="evenodd" d="M55.5412 58.7148C56.2182 58.7148 56.8954 58.7148 57.5724 58.7148C57.5936 60.3235 57.5724 61.9316 57.5089 63.5391C56.9298 64.3286 56.295 64.3709 55.6046 63.666C55.5412 62.0161 55.52 60.3657 55.5412 58.7148Z" fill="#829182"/>
</g>
<defs>
<clipPath id="clip0_662_5876">
<rect width="65" height="65" fill="white"/>
</clipPath>
</defs>
</svg>
