<svg width="65" height="65" viewBox="0 0 65 65" fill="none" xmlns="http://www.w3.org/2000/svg">
<path opacity="0.994" fill-rule="evenodd" clip-rule="evenodd" d="M51.4796 28.375C47.7977 28.3538 44.116 28.375 40.4347 28.4385C39.9287 29.3048 39.3787 30.13 38.7843 30.9141C37.9379 30.9141 37.0916 30.9141 36.2452 30.9141C36.2241 29.6438 36.2452 28.3742 36.3087 27.1055C36.5414 26.5342 36.9434 26.1321 37.5147 25.8994C40.392 25.8359 43.2696 25.8147 46.1475 25.8359C46.4725 20.9634 46.8745 16.0969 47.3536 11.2363C47.4533 11.0096 47.6013 10.8192 47.7979 10.665C48.8558 10.5804 49.9139 10.5804 50.9718 10.665C51.2045 10.7285 51.3526 10.8766 51.4161 11.1094C51.4796 16.8644 51.5008 22.6196 51.4796 28.375Z" fill="#478946"/>
<path opacity="0.968" fill-rule="evenodd" clip-rule="evenodd" d="M30.5323 23.041C30.1937 22.4485 29.7283 21.9831 29.1358 21.6445C28.5903 21.0354 28.019 20.4429 27.4219 19.8672C26.7944 18.6681 27.133 17.9064 28.4375 17.582C28.6772 17.6196 28.9101 17.6831 29.1358 17.7725C30.938 19.5323 32.6942 21.3308 34.4043 23.168C34.5215 24.7419 33.8233 25.2708 32.3096 24.7549C31.7339 24.1578 31.1414 23.5865 30.5323 23.041Z" fill="#6EB66D"/>
<path opacity="0.982" fill-rule="evenodd" clip-rule="evenodd" d="M29.1357 21.6445C29.7282 21.9831 30.1936 22.4485 30.5322 23.041C29.5589 23.9297 28.6279 24.8606 27.7393 25.834C27.1468 25.4954 26.6814 25.03 26.3428 24.4375C27.2314 23.4642 28.1624 22.5332 29.1357 21.6445Z" fill="#478946"/>
<path opacity="0.996" fill-rule="evenodd" clip-rule="evenodd" d="M26.343 24.4395C26.6816 25.032 27.147 25.4974 27.7395 25.836C28.2003 26.3604 28.6869 26.8682 29.1995 27.3594C29.2629 28.5435 29.284 29.7285 29.2629 30.9141C29.1577 31.8648 29.0942 32.8382 29.0725 33.834C28.3108 34.5957 27.5491 35.3575 26.7873 36.1192C26.7239 38.9964 26.7027 41.8741 26.7239 44.752C22.8306 44.752 18.9375 44.752 15.0442 44.752C13.1602 42.901 10.9597 42.4144 8.44262 43.292C7.6946 43.6865 7.01752 44.1732 6.41137 44.752C5.5227 44.752 4.63402 44.752 3.74535 44.752C3.70305 40.0962 3.74537 35.4414 3.87231 30.7871C10.6481 28.1548 17.419 25.5098 24.1848 22.8526C24.354 22.7679 24.5234 22.7679 24.6926 22.8526C25.2261 23.4074 25.7763 23.9364 26.343 24.4395Z" fill="#ABFEA9"/>
<path opacity="0.996" fill-rule="evenodd" clip-rule="evenodd" d="M51.4795 28.3751C53.9765 28.3539 56.4733 28.3751 58.9697 28.4386C60.6006 31.1501 62.1664 33.9006 63.667 36.6906C62.67 37.5683 61.5697 38.2454 60.3662 38.7218C59.448 37.1586 58.5169 35.614 57.5732 34.088C57.3931 33.4411 57.0969 32.8486 56.6846 32.3107C51.9879 32.1625 47.2907 32.1415 42.5928 32.2472C39.2219 37.6992 35.8365 43.1371 32.4365 48.5607C28.6279 48.5607 24.8193 48.5607 21.0107 48.5607C19.4873 48.5607 17.9639 48.5607 16.4404 48.5607C16.4252 47.118 15.9598 45.8485 15.0439 44.7521C18.9372 44.7521 22.8304 44.7521 26.7236 44.7521C27.9092 44.7732 29.0942 44.7521 30.2783 44.6886C33.196 40.1432 36.0312 35.5517 38.7842 30.9142C39.3786 30.1301 39.9287 29.3049 40.4346 28.4386C44.116 28.3751 47.7976 28.3539 51.4795 28.3751Z" fill="#ECF0EC"/>
<path fill-rule="evenodd" clip-rule="evenodd" d="M29.2628 30.9141C31.5903 30.9141 33.9178 30.9141 36.2453 30.9141C37.0917 30.9141 37.9379 30.9141 38.7843 30.9141C36.0313 35.5515 33.1961 40.143 30.2785 44.6885C29.0944 44.752 27.9094 44.773 26.7238 44.752C26.7026 41.8741 26.7238 38.9964 26.7872 36.1191C27.549 35.3574 28.3107 34.5957 29.0724 33.834C29.0941 32.8382 29.1576 31.8648 29.2628 30.9141Z" fill="#6FB772"/>
<path fill-rule="evenodd" clip-rule="evenodd" d="M57.5732 34.0866C57.5732 35.2715 57.5732 36.4565 57.5732 37.6413C54.4629 34.2925 50.6967 33.2557 46.2744 34.531C41.6265 36.5248 39.4049 40.0582 39.6094 45.1315C39.7498 46.3283 40.0672 47.4709 40.5615 48.5593C39.1228 48.5593 37.6839 48.5593 36.2451 48.5593C34.9756 48.5593 33.7061 48.5593 32.4365 48.5593C35.8365 43.1357 39.2219 37.6978 42.5928 32.2458C47.2907 32.1401 51.9879 32.1611 56.6846 32.3093C57.0969 32.8472 57.3931 33.4397 57.5732 34.0866Z" fill="#D2D3D2"/>
<path opacity="0.995" fill-rule="evenodd" clip-rule="evenodd" d="M57.5735 37.6418C59.4972 40.0029 60.2378 42.7112 59.7952 45.7668C58.843 50.4429 56.0288 53.257 51.3528 54.2092C47.4214 54.7052 44.1841 53.4567 41.6409 50.4641C41.1496 49.9048 40.7899 49.2701 40.5618 48.5598C40.0674 47.4714 39.75 46.3288 39.6096 45.132C39.4051 40.0587 41.6268 36.5252 46.2746 34.5314C50.6969 33.2562 54.4631 34.293 57.5735 37.6418Z" fill="#6EB67A"/>
<path fill-rule="evenodd" clip-rule="evenodd" d="M7.0459 34.7227C7.46907 34.7227 7.89226 34.7227 8.31543 34.7227C8.31543 36.4153 8.31543 38.1081 8.31543 39.8008C7.89226 39.8008 7.46907 39.8008 7.0459 39.8008C7.0459 38.1081 7.0459 36.4153 7.0459 34.7227Z" fill="#95FF7B"/>
<path fill-rule="evenodd" clip-rule="evenodd" d="M9.58496 34.7227C10.0081 34.7227 10.4313 34.7227 10.8545 34.7227C10.8545 36.4153 10.8545 38.1081 10.8545 39.8008C10.4313 39.8008 10.0081 39.8008 9.58496 39.8008C9.58496 38.1081 9.58496 36.4153 9.58496 34.7227Z" fill="#95FF7B"/>
<path fill-rule="evenodd" clip-rule="evenodd" d="M12.124 34.7227C12.5472 34.7227 12.9704 34.7227 13.3936 34.7227C13.3936 36.4153 13.3936 38.1081 13.3936 39.8008C12.9704 39.8008 12.5472 39.8008 12.124 39.8008C12.124 38.1081 12.124 36.4153 12.124 34.7227Z" fill="#95FF7B"/>
<path fill-rule="evenodd" clip-rule="evenodd" d="M14.6631 34.7227C15.0862 34.7227 15.5095 34.7227 15.9326 34.7227C15.9326 36.4153 15.9326 38.1081 15.9326 39.8008C15.5095 39.8008 15.0862 39.8008 14.6631 39.8008C14.6631 38.1081 14.6631 36.4153 14.6631 34.7227Z" fill="#95FF7B"/>
<path fill-rule="evenodd" clip-rule="evenodd" d="M17.2021 34.7227C17.6253 34.7227 18.0485 34.7227 18.4717 34.7227C18.4717 36.4153 18.4717 38.1081 18.4717 39.8008C18.0485 39.8008 17.6253 39.8008 17.2021 39.8008C17.2021 38.1081 17.2021 36.4153 17.2021 34.7227Z" fill="#95FF7B"/>
<path fill-rule="evenodd" clip-rule="evenodd" d="M19.7412 34.7227C20.1643 34.7227 20.5876 34.7227 21.0107 34.7227C21.0107 36.4153 21.0107 38.1081 21.0107 39.8008C20.5876 39.8008 20.1643 39.8008 19.7412 39.8008C19.7412 38.1081 19.7412 36.4153 19.7412 34.7227Z" fill="#95FF7B"/>
<path fill-rule="evenodd" clip-rule="evenodd" d="M48.8131 38.4017C52.2216 38.2743 54.401 39.8401 55.3512 43.099C55.6355 46.4059 54.2178 48.5853 51.0983 49.6371C47.7097 50.1851 45.4033 48.8521 44.1793 45.6381C43.6159 41.8526 45.1606 39.4405 48.8131 38.4017Z" fill="#478946"/>
<path opacity="0.993" fill-rule="evenodd" clip-rule="evenodd" d="M15.0443 44.7506C15.9602 45.847 16.4256 47.1165 16.4408 48.5592C16.3432 51.5247 14.862 53.4078 11.9975 54.2086C9.03863 54.6651 6.85928 53.586 5.45938 50.9713C5.09523 50.2083 4.94711 49.4043 5.01504 48.5592C5.03047 47.1156 5.49597 45.8461 6.41153 44.7506C7.01768 44.1718 7.69476 43.6851 8.44278 43.2906C10.9599 42.413 13.1604 42.8996 15.0443 44.7506Z" fill="#6FB76E"/>
<path fill-rule="evenodd" clip-rule="evenodd" d="M3.74512 44.75C4.63379 44.75 5.52246 44.75 6.41113 44.75C5.49557 45.8455 5.03007 47.115 5.01465 48.5586C3.74512 48.5586 2.47559 48.5586 1.20605 48.5586C1.20605 47.2891 1.20605 46.0195 1.20605 44.75C2.05241 44.75 2.89876 44.75 3.74512 44.75Z" fill="#ECF0EC"/>
<path fill-rule="evenodd" clip-rule="evenodd" d="M10.093 46.5293C11.9737 46.4421 12.8412 47.3307 12.6956 49.1953C12.0149 50.583 10.9781 50.9428 9.58521 50.2744C8.64392 49.4752 8.45349 48.5231 9.01392 47.418C9.32384 47.0429 9.68353 46.7468 10.093 46.5293Z" fill="#468A4D"/>
<path fill-rule="evenodd" clip-rule="evenodd" d="M21.0107 48.5586C24.8193 48.5586 28.6279 48.5586 32.4365 48.5586C33.7061 48.5586 34.9756 48.5586 36.2451 48.5586C36.2451 49.1934 36.2451 49.8281 36.2451 50.4629C31.167 50.4629 26.0889 50.4629 21.0107 50.4629C21.0107 49.8281 21.0107 49.1934 21.0107 48.5586Z" fill="#478946"/>
<path fill-rule="evenodd" clip-rule="evenodd" d="M21.0107 50.4648C26.0889 50.4648 31.167 50.4648 36.2451 50.4648C37.5146 50.4648 38.7842 50.4648 40.0537 50.4648C40.0537 51.7344 40.0537 53.0039 40.0537 54.2734C32.4365 54.2734 24.8193 54.2734 17.2021 54.2734C17.2021 53.0039 17.2021 51.7344 17.2021 50.4648C18.4717 50.4648 19.7412 50.4648 21.0107 50.4648Z" fill="#6FB76E"/>
</svg>
