<svg width="65" height="65" viewBox="0 0 65 65" fill="none" xmlns="http://www.w3.org/2000/svg">
<path fill-rule="evenodd" clip-rule="evenodd" d="M61.8906 26.3438C60.5364 26.3438 59.1823 26.3438 57.8281 26.3438C57.8281 23.2969 57.8281 20.25 57.8281 17.2031C57.8281 15.8489 57.8281 14.4948 57.8281 13.1406C59.1823 13.1406 60.5364 13.1406 61.8906 13.1406C61.8906 17.5417 61.8906 21.9427 61.8906 26.3438Z" fill="#405242"/>
<path fill-rule="evenodd" clip-rule="evenodd" d="M59.3512 15.0458C60.6409 14.8755 61.1699 15.4256 60.9381 16.6962C60.5703 17.2872 60.0415 17.4776 59.3512 17.2675C58.7602 16.8997 58.5698 16.3709 58.7799 15.6806C58.9101 15.403 59.1005 15.1913 59.3512 15.0458Z" fill="#2B3A2D"/>
<path opacity="0.998" fill-rule="evenodd" clip-rule="evenodd" d="M24.3114 24.3125C18.8947 24.3125 13.4781 24.3125 8.06137 24.3125C8.00057 21.4235 8.06405 18.5458 8.2518 15.6797C8.40592 15.4831 8.59635 15.335 8.82309 15.2354C13.732 15.1507 18.6408 15.1507 23.5497 15.2354C23.7764 15.335 23.9668 15.4831 24.1209 15.6797C24.3087 18.5458 24.3722 21.4235 24.3114 24.3125Z" fill="#CFF4D0"/>
<path fill-rule="evenodd" clip-rule="evenodd" d="M48.6875 19.2344C45.9792 19.2344 43.2708 19.2344 40.5625 19.2344C40.5625 17.8802 40.5625 16.5261 40.5625 15.1719C43.2708 15.1719 45.9792 15.1719 48.6875 15.1719C48.6875 16.5261 48.6875 17.8802 48.6875 19.2344Z" fill="#C9ECC9"/>
<path fill-rule="evenodd" clip-rule="evenodd" d="M59.4779 15.4243C60.5787 15.3835 60.8749 15.849 60.3666 16.8208C59.3989 17.1435 58.9969 16.805 59.1605 15.8052C59.2491 15.654 59.3549 15.5271 59.4779 15.4243Z" fill="#405242"/>
<path fill-rule="evenodd" clip-rule="evenodd" d="M57.8281 17.2031C57.8281 20.25 57.8281 23.2969 57.8281 26.3438C56.4739 26.3438 55.1198 26.3438 53.7656 26.3438C53.7656 23.2969 53.7656 20.25 53.7656 17.2031C55.1198 17.2031 56.4739 17.2031 57.8281 17.2031Z" fill="#077F05"/>
<path fill-rule="evenodd" clip-rule="evenodd" d="M55.2887 19.1083C56.5784 18.938 57.1074 19.4881 56.8756 20.7587C56.5078 21.3497 55.979 21.5401 55.2887 21.33C54.6977 20.9622 54.5073 20.4334 54.7174 19.7431C54.8476 19.4655 55.038 19.2538 55.2887 19.1083Z" fill="#25D84C"/>
<path opacity="0.997" fill-rule="evenodd" clip-rule="evenodd" d="M40.5607 19.2344C43.269 19.2344 45.9774 19.2344 48.6857 19.2344C49.111 19.2134 49.5341 19.2346 49.9552 19.2978C50.2726 19.446 50.5053 19.6787 50.6535 19.9961C50.7169 22.1115 50.7381 24.2274 50.7169 26.3437C46.6544 26.3437 42.5919 26.3437 38.5294 26.3437C38.5082 24.2274 38.5294 22.1115 38.5929 19.9961C38.7411 19.6787 38.9738 19.446 39.2912 19.2978C39.7123 19.2346 40.1354 19.2134 40.5607 19.2344Z" fill="#33432C"/>
<path fill-rule="evenodd" clip-rule="evenodd" d="M55.4154 19.4868C56.5162 19.446 56.8124 19.9115 56.3041 20.8833C55.3364 21.206 54.9344 20.8675 55.098 19.8677C55.1866 19.7165 55.2924 19.5896 55.4154 19.4868Z" fill="#168005"/>
<path fill-rule="evenodd" clip-rule="evenodd" d="M41.1959 22.2814C43.4391 22.2602 45.6819 22.2814 47.9244 22.3449C48.6813 22.6502 48.8717 23.1791 48.4957 23.9318C48.347 24.1086 48.1566 24.2145 47.9244 24.2492C45.6815 24.3338 43.4388 24.3338 41.1959 24.2492C40.3566 23.5888 40.3566 22.9328 41.1959 22.2814Z" fill="#223122"/>
<path opacity="0.994" fill-rule="evenodd" clip-rule="evenodd" d="M8.06064 24.3125C13.4773 24.3125 18.8939 24.3125 24.3106 24.3125C24.3317 25.0754 24.3105 25.8371 24.2472 26.5977C24.1475 26.8244 23.9995 27.0148 23.8028 27.1689C21.9531 27.3552 20.0912 27.4187 18.2169 27.3594C16.8627 27.3594 15.5086 27.3594 14.1544 27.3594C12.3765 27.3806 10.5992 27.3594 8.82235 27.2959C8.50497 27.1477 8.27223 26.915 8.12411 26.5977C8.0607 25.8371 8.03954 25.0754 8.06064 24.3125Z" fill="#223122"/>
<path fill-rule="evenodd" clip-rule="evenodd" d="M38.5312 26.3438C42.5938 26.3438 46.6562 26.3438 50.7188 26.3438C51.7344 26.3438 52.75 26.3438 53.7656 26.3438C55.1198 26.3438 56.4739 26.3438 57.8281 26.3438C59.1823 26.3438 60.5364 26.3438 61.8906 26.3438C61.8906 30.0677 61.8906 33.7917 61.8906 37.5156C61.552 37.5156 61.2136 37.5156 60.875 37.5156C60.875 35.1458 60.875 32.7761 60.875 30.4062C59.8594 30.4062 58.8438 30.4062 57.8281 30.4062C57.8281 30.7448 57.8281 31.0833 57.8281 31.4219C56.8125 31.4219 55.7969 31.4219 54.7812 31.4219C54.7812 33.4531 54.7812 35.4844 54.7812 37.5156C53.5964 37.5156 52.4114 37.5156 51.2266 37.5156C51.4353 37.412 51.5833 37.2427 51.6709 37.0078C51.7556 36.2884 51.7556 35.5691 51.6709 34.8496C51.5563 34.6971 51.4082 34.5913 51.2266 34.5322C50.8209 34.5092 50.4401 34.4458 50.084 34.3418C50.4252 34.2753 50.6157 34.0636 50.6553 33.707C50.768 33.0573 50.7257 32.4225 50.5283 31.8027C50.3797 31.6259 50.1892 31.52 49.957 31.4854C48.3913 31.4007 46.8255 31.4007 45.2598 31.4854C45.0781 31.5444 44.9301 31.6503 44.8154 31.8027C44.618 32.4225 44.5757 33.0573 44.6885 33.707C44.7168 34.0093 44.8649 34.2208 45.1328 34.3418C44.6895 34.764 44.5203 35.2929 44.625 35.9287C44.5615 36.5173 44.6885 37.0463 45.0059 37.5156C43.8633 37.5156 42.7207 37.5156 41.5781 37.5156C41.5781 35.1458 41.5781 32.7761 41.5781 30.4062C40.2239 30.4062 38.8698 30.4062 37.5156 30.4062C37.5156 32.7761 37.5156 35.1458 37.5156 37.5156C37.177 37.5156 36.8386 37.5156 36.5 37.5156C36.5 33.7917 36.5 30.0677 36.5 26.3438C37.177 26.3438 37.8542 26.3438 38.5312 26.3438Z" fill="#99C698"/>
<path fill-rule="evenodd" clip-rule="evenodd" d="M14.1562 27.3594C15.5105 27.3594 16.8645 27.3594 18.2188 27.3594C18.2188 28.375 18.2188 29.3906 18.2188 30.4062C16.8645 30.4062 15.5105 30.4062 14.1562 30.4062C14.1562 29.3906 14.1562 28.375 14.1562 27.3594Z" fill="black"/>
<path opacity="0.987" fill-rule="evenodd" clip-rule="evenodd" d="M14.1557 30.4057C15.5099 30.4057 16.864 30.4057 18.2182 30.4057C19.2438 30.327 20.0901 30.6655 20.7572 31.4213C21.5244 32.2841 21.863 33.2997 21.7729 34.4682C21.4262 36.3807 20.2836 37.3963 18.3451 37.515C18.3662 36.7522 18.345 35.9905 18.2817 35.2299C17.9008 34.7221 17.5199 34.7221 17.1391 35.2299C17.0757 35.9905 17.0545 36.7522 17.0756 37.515C16.4831 37.515 15.8907 37.515 15.2983 37.515C15.3193 36.7522 15.2981 35.9905 15.2348 35.2299C14.8539 34.7221 14.4731 34.7221 14.0922 35.2299C14.0289 35.9905 14.0077 36.7522 14.0287 37.515C12.0903 37.3963 10.9477 36.3807 10.601 34.4682C10.5079 33.302 10.8465 32.2863 11.6166 31.4213C12.2837 30.6655 13.13 30.327 14.1557 30.4057Z" fill="#33432C"/>
<path fill-rule="evenodd" clip-rule="evenodd" d="M41.5781 37.5156C40.2239 37.5156 38.8698 37.5156 37.5156 37.5156C37.5156 35.1458 37.5156 32.7761 37.5156 30.4062C38.8698 30.4062 40.2239 30.4062 41.5781 30.4062C41.5781 32.7761 41.5781 35.1458 41.5781 37.5156Z" fill="#077F05"/>
<path fill-rule="evenodd" clip-rule="evenodd" d="M60.875 37.5156C59.8594 37.5156 58.8438 37.5156 57.8281 37.5156C57.8281 35.4844 57.8281 33.4531 57.8281 31.4219C57.8281 31.0833 57.8281 30.7448 57.8281 30.4062C58.8438 30.4062 59.8594 30.4062 60.875 30.4062C60.875 32.7761 60.875 35.1458 60.875 37.5156Z" fill="#006836"/>
<path fill-rule="evenodd" clip-rule="evenodd" d="M11.6172 31.4219C10.847 32.2869 10.5085 33.3026 10.6016 34.4688C9.41667 34.4688 8.23177 34.4688 7.04688 34.4688C5.98894 34.4688 4.93099 34.4688 3.87305 34.4688C3.57683 34.4688 3.28059 34.4688 2.98438 34.4688C2.98438 33.4531 2.98438 32.4375 2.98438 31.4219C5.86198 31.4219 8.73958 31.4219 11.6172 31.4219Z" fill="#415342"/>
<path fill-rule="evenodd" clip-rule="evenodd" d="M20.7578 31.4219C24.6511 31.4219 28.5442 31.4219 32.4375 31.4219C32.4375 32.4375 32.4375 33.4531 32.4375 34.4688C30.0677 34.4688 27.698 34.4688 25.3281 34.4688C24.1433 34.4688 22.9583 34.4688 21.7734 34.4688C21.8636 33.3003 21.525 32.2846 20.7578 31.4219Z" fill="#415342"/>
<path fill-rule="evenodd" clip-rule="evenodd" d="M50.0839 34.3418C48.4374 34.5089 46.787 34.5089 45.1328 34.3418C44.8649 34.2208 44.7167 34.0093 44.6884 33.7071C44.5757 33.0573 44.618 32.4226 44.8154 31.8028C44.93 31.6503 45.0781 31.5444 45.2597 31.4854C46.8254 31.4007 48.3913 31.4007 49.957 31.4854C50.1892 31.52 50.3796 31.6259 50.5283 31.8028C50.7257 32.4226 50.768 33.0573 50.6552 33.7071C50.6156 34.0637 50.4252 34.2753 50.0839 34.3418Z" fill="#097F07"/>
<path fill-rule="evenodd" clip-rule="evenodd" d="M57.8281 31.4219C57.8281 33.4531 57.8281 35.4844 57.8281 37.5156C56.8125 37.5156 55.7969 37.5156 54.7812 37.5156C54.7812 35.4844 54.7812 33.4531 54.7812 31.4219C55.7969 31.4219 56.8125 31.4219 57.8281 31.4219Z" fill="#61F45E"/>
<path opacity="0.969" fill-rule="evenodd" clip-rule="evenodd" d="M3.8711 34.4688C4.92904 34.4688 5.98699 34.4688 7.04493 34.4688C6.8149 38.5805 6.49752 42.6853 6.09278 46.7832C5.52315 47.6781 4.74028 47.9109 3.74414 47.4814C3.50569 47.2856 3.31526 47.0529 3.17285 46.7832C3.08822 45.9792 3.08822 45.1751 3.17285 44.3711C3.44775 41.0726 3.68049 37.7718 3.8711 34.4688Z" fill="#749878"/>
<path fill-rule="evenodd" clip-rule="evenodd" d="M25.3281 34.4688C27.698 34.4688 30.0677 34.4688 32.4375 34.4688C32.4375 36.1614 32.4375 37.8542 32.4375 39.5469C31.9297 39.5469 31.4219 39.5469 30.9141 39.5469C29.8562 39.5469 28.7981 39.5469 27.7402 39.5469C26.9362 39.5469 26.1321 39.5469 25.3281 39.5469C25.3281 37.8542 25.3281 36.1614 25.3281 34.4688Z" fill="#33432C"/>
<path fill-rule="evenodd" clip-rule="evenodd" d="M45.1316 34.3398C46.7858 34.5069 48.4362 34.5069 50.0828 34.3398C50.4389 34.4438 50.8197 34.5073 51.2253 34.5303C51.407 34.5893 51.555 34.6952 51.6697 34.8477C51.7544 35.5671 51.7544 36.2864 51.6697 37.0059C51.5821 37.2407 51.4341 37.4101 51.2253 37.5137C49.1518 37.5137 47.0782 37.5137 45.0046 37.5137C44.6873 37.0443 44.5603 36.5153 44.6238 35.9268C44.519 35.291 44.6883 34.7621 45.1316 34.3398Z" fill="#30482C"/>
<path fill-rule="evenodd" clip-rule="evenodd" d="M15.2969 37.5137C15.2969 38.5293 15.2969 39.5449 15.2969 40.5605C14.8738 40.5605 14.4505 40.5605 14.0274 40.5605C14.0274 39.5449 14.0274 38.5293 14.0274 37.5137C14.0063 36.7508 14.0275 35.9891 14.0909 35.2285C14.4717 34.7207 14.8526 34.7207 15.2335 35.2285C15.2968 35.9891 15.318 36.7508 15.2969 37.5137Z" fill="#223122"/>
<path fill-rule="evenodd" clip-rule="evenodd" d="M18.3438 37.5137C18.3438 38.5293 18.3438 39.5449 18.3438 40.5605C17.9207 40.5605 17.4974 40.5605 17.0743 40.5605C17.0743 39.5449 17.0743 38.5293 17.0743 37.5137C17.0532 36.7508 17.0744 35.9891 17.1378 35.2285C17.5186 34.7207 17.8995 34.7207 18.2803 35.2285C18.3437 35.9891 18.3649 36.7508 18.3438 37.5137Z" fill="#223122"/>
<path fill-rule="evenodd" clip-rule="evenodd" d="M28.6278 35.4844C29.388 35.5052 29.5572 35.8226 29.1356 36.4365C28.3615 36.4552 28.1923 36.1378 28.6278 35.4844Z" fill="#363636"/>
<path fill-rule="evenodd" clip-rule="evenodd" d="M36.5 37.5156C36.8386 37.5156 37.177 37.5156 37.5156 37.5156C38.8698 37.5156 40.2239 37.5156 41.5781 37.5156C42.7207 37.5156 43.8633 37.5156 45.0059 37.5156C47.0794 37.5156 49.153 37.5156 51.2266 37.5156C52.4114 37.5156 53.5964 37.5156 54.7812 37.5156C55.7969 37.5156 56.8125 37.5156 57.8281 37.5156C58.8438 37.5156 59.8594 37.5156 60.875 37.5156C61.2136 37.5156 61.552 37.5156 61.8906 37.5156C61.8906 40.9011 61.8906 44.2864 61.8906 47.6719C53.427 47.6719 44.9636 47.6719 36.5 47.6719C36.5 44.2864 36.5 40.9011 36.5 37.5156Z" fill="#415240"/>
<path opacity="0.968" fill-rule="evenodd" clip-rule="evenodd" d="M27.7383 39.5469C28.7962 39.5469 29.8542 39.5469 30.9121 39.5469C31.1056 41.9564 31.2115 44.3686 31.2295 46.7832C30.6599 47.6781 29.8769 47.9109 28.8809 47.4814C28.6424 47.2856 28.452 47.0529 28.3096 46.7832C28.0383 44.3777 27.8478 41.9656 27.7383 39.5469Z" fill="#789875"/>
<path opacity="0.987" fill-rule="evenodd" clip-rule="evenodd" d="M14.028 40.5626C14.4511 40.5626 14.8744 40.5626 15.2975 40.5626C15.89 40.5626 16.4824 40.5626 17.0748 40.5626C17.498 40.5626 17.9212 40.5626 18.3444 40.5626C19.4032 40.5415 20.4611 40.5626 21.5182 40.6261C22.6585 41.1939 23.0606 42.1038 22.7243 43.3556C22.4915 43.9268 22.0895 44.3289 21.5182 44.5616C20.0801 44.6251 18.6412 44.6463 17.2018 44.6251C16.5248 44.6251 15.8476 44.6251 15.1705 44.6251C13.7311 44.6463 12.2923 44.6251 10.8541 44.5616C9.71382 43.9937 9.3118 43.0839 9.64808 41.8321C9.88083 41.2608 10.2828 40.8588 10.8541 40.6261C11.9112 40.5626 12.9692 40.5415 14.028 40.5626Z" fill="#222C24"/>
<path opacity="0.994" fill-rule="evenodd" clip-rule="evenodd" d="M15.1711 44.625C15.8482 44.625 16.5253 44.625 17.2024 44.625C17.2024 45.9792 17.2024 47.3333 17.2024 48.6875C18.0498 48.6664 18.8962 48.6875 19.7414 48.751C20.125 48.9464 20.2942 49.2637 20.2493 49.7031C19.6145 49.7454 19.2759 50.084 19.2336 50.7188C17.2024 50.7188 15.1711 50.7188 13.1399 50.7188C13.0976 50.084 12.759 49.7454 12.1243 49.7031C12.0793 49.2637 12.2486 48.9464 12.6321 48.751C13.4773 48.6875 14.3237 48.6664 15.1711 48.6875C15.1711 47.3333 15.1711 45.9792 15.1711 44.625Z" fill="#2E3A2C"/>
<path opacity="0.915" fill-rule="evenodd" clip-rule="evenodd" d="M12.1236 49.7017C12.7583 49.744 13.0969 50.0826 13.1392 50.7173C13.1841 51.1567 13.0149 51.4741 12.6314 51.6695C11.1877 51.832 10.7645 51.2395 11.3618 49.8921C11.5961 49.7489 11.85 49.6855 12.1236 49.7017Z" fill="black"/>
<path opacity="0.914" fill-rule="evenodd" clip-rule="evenodd" d="M20.2486 49.7024C20.688 49.6574 21.0053 49.8267 21.2007 50.2102C21.3632 51.6539 20.7707 52.077 19.4234 51.4797C19.2802 51.2455 19.2167 50.9916 19.233 50.718C19.2752 50.0832 19.6138 49.7447 20.2486 49.7024Z" fill="black"/>
</svg>
