<svg width="65" height="65" viewBox="0 0 65 65" fill="none" xmlns="http://www.w3.org/2000/svg">
<path d="M52.8621 61.5511C52.8621 63.4559 51.3178 65 49.4132 65H15.5866C13.6818 65 12.1377 63.4557 12.1377 61.5511V3.44894C12.1376 1.54426 13.6818 0 15.5866 0H49.4132C51.318 0 52.8621 1.54426 52.8621 3.44894V61.5511Z" fill="#71FE88"/>
<path d="M15.5866 0C13.6818 0 12.1377 1.54426 12.1377 3.44894V61.5509C12.1377 63.4557 13.682 64.9999 15.5866 64.9999H32.4998V0H15.5866Z" fill="#B5FE9B"/>
<path d="M22.172 31.9062H18.1924V40.1299H22.172V31.9062Z" fill="#19FE75"/>
<path d="M22.172 7.89453H18.1924V16.1182H22.172V7.89453Z" fill="#19FE75"/>
<path d="M52.8622 22.0234H12.1377V26.003H52.8622V22.0234Z" fill="#19FE75"/>
</svg>
