<svg width="65" height="65" viewBox="0 0 65 65" fill="none" xmlns="http://www.w3.org/2000/svg">
<path d="M12.1875 12.1875C12.1875 12.1875 21.6667 14.625 21.6667 24.1042C21.6667 27.2188 20.3125 45.0938 35.2083 48.75C28.5729 48.75 13.5417 47.3958 13.5417 31.1458C13.5417 20.9896 15.5729 15.3021 12.1875 12.1875Z" fill="#77CD75"/>
<path d="M52.8125 36.5612C52.8125 36.5612 51.1875 32.4987 47.3958 32.4987C44.5521 32.4987 41.9792 35.4779 41.9792 39.5404C41.5729 40.4883 40.0833 41.9779 36.5625 41.9779C33.0417 41.9779 31.8229 40.8945 31.1458 39.2695C31.1458 25.8633 47.3958 13.2695 23.0208 6.76953C30.4687 17.332 21.5312 23.832 21.5312 33.8529C21.5312 42.3841 28.0312 48.7487 36.5625 48.7487C48.2083 48.7487 46.1771 36.5612 52.8125 36.5612Z" fill="#A6DB9D"/>
<path d="M31.1455 39.2721C31.1455 40.7087 31.7162 42.0865 32.732 43.1023C33.7478 44.1181 35.1256 44.6888 36.5622 44.6888C37.9988 44.6888 39.3765 44.1181 40.3923 43.1023C41.4082 42.0865 41.9788 40.7087 41.9788 39.2721C41.9788 38.5608 41.8387 37.8564 41.5665 37.1993C41.2943 36.5421 40.8953 35.945 40.3923 35.442C39.8894 34.939 39.2922 34.54 38.635 34.2678C37.9779 33.9956 37.2735 33.8555 36.5622 33.8555C35.8508 33.8555 35.1465 33.9956 34.4893 34.2678C33.8321 34.54 33.235 34.939 32.732 35.442C32.229 35.945 31.83 36.5421 31.5578 37.1993C31.2856 37.8564 31.1455 38.5608 31.1455 39.2721Z" fill="#5EBC47"/>
<path d="M44.6872 58.2292H23.0205V55.5208C23.0205 54.0313 24.2393 52.8125 25.7288 52.8125H41.9788C43.4684 52.8125 44.6872 54.0313 44.6872 55.5208V58.2292Z" fill="#546E7A"/>
<path d="M18.958 47.3945H48.7497V50.1029C48.7497 51.5924 47.5309 52.8112 46.0413 52.8112H21.6663C20.1768 52.8112 18.958 51.5924 18.958 50.1029V47.3945Z" fill="#607D8B"/>
</svg>
