<svg width="65" height="65" viewBox="0 0 65 65" fill="none" xmlns="http://www.w3.org/2000/svg">
<path d="M17.3377 59.4922V64.9984H12.9812L13.7481 63.7763C14.2401 62.9938 14.1068 61.9476 13.3909 61.3621C12.8507 60.9184 12.5049 60.2464 12.5049 59.4922" fill="#87EA6E"/>
<path d="M52.495 59.4922C52.495 60.2464 52.149 60.9184 51.609 61.3621C50.8931 61.9476 50.7598 62.9938 51.2517 63.7763L52.0186 64.9984H47.6621V59.4922" fill="#87EA6E"/>
<path d="M51.0001 4.05859H13.999V55.5738H51.0001V4.05859Z" fill="#B2FC77"/>
<path d="M51.0001 4.37109H13.999V6.78117H51.0001V4.37109Z" fill="#87EA6E"/>
<path d="M51.0001 53.3281H13.999V55.7382H51.0001V53.3281Z" fill="#87EA6E"/>
<path d="M10.2871 56.8111V59.635H54.7121V56.8111C53.3882 56.8111 52.3151 55.7379 52.3151 54.4141H12.6842C12.6842 55.7379 11.6111 56.8111 10.2871 56.8111Z" fill="#B2FC77"/>
<path d="M54.7122 0V2.82395C53.3894 2.82395 52.3163 3.89708 52.3163 5.2212H12.6839C12.6839 3.89708 11.6108 2.82395 10.2881 2.82395V0H54.7122Z" fill="#B2FC77"/>
<path d="M46.7471 22.3025V12.4625C43.6282 10.6564 38.4098 9.47266 32.4995 9.47266C26.5892 9.47266 21.3708 10.6564 18.252 12.4625V22.3025H46.7471Z" fill="#4E6B7C"/>
<path d="M46.7471 40.1641H18.252V50.1586H46.7471V40.1641Z" fill="#4E6B7C"/>
<path d="M46.7471 26.1289H18.252V36.3361H46.7471V26.1289Z" fill="#4E6B7C"/>
<path d="M25.5889 14.4375H22.1865V22.3055H25.5889V14.4375Z" fill="#4EBFED"/>
<path d="M23.4039 14.4375H22.1865V22.3055H23.4039V14.4375Z" fill="#45B8DB"/>
<path d="M28.9912 14.4375H25.5889V22.3055H28.9912V14.4375Z" fill="#81CC96"/>
<path d="M32.3936 14.4375H28.9912V22.3055H32.3936V14.4375Z" fill="#FF6F52"/>
<path d="M35.7959 14.4375H32.3936V22.3055H35.7959V14.4375Z" fill="#81CC96"/>
<path d="M43.3096 14.4375H39.9072V22.3055H43.3096V14.4375Z" fill="#FF6F52"/>
<path d="M43.0615 30.0312H39.6592V36.3398H43.0615V30.0312Z" fill="#81CC96"/>
<path d="M39.6592 30.0312H36.2568V36.3398H39.6592V30.0312Z" fill="#FF6F52"/>
<path d="M32.8545 30.0312H29.4521V36.3398H32.8545V30.0312Z" fill="#FF6F52"/>
<path d="M25.3408 30.0312H21.9385V36.3398H25.3408V30.0312Z" fill="#4EBFED"/>
<path d="M42.707 43.8555H39.3047V50.164H42.707V43.8555Z" fill="#4EBFED"/>
<path d="M40.6492 43.8555H39.3047V50.164H40.6492V43.8555Z" fill="#45B8DB"/>
<path d="M23.283 30.0312H21.9385V36.3398H23.283V30.0312Z" fill="#45B8DB"/>
<path d="M39.3047 43.8516H35.9023V50.1601H39.3047V43.8516Z" fill="#81CC96"/>
<path d="M35.9023 43.8516H32.5V50.1601H35.9023V43.8516Z" fill="#FF6F52"/>
<path d="M37.2469 43.8555H35.9023V50.164H37.2469V43.8555Z" fill="#71BC82"/>
<path d="M41.0037 30.0312H39.6592V36.3398H41.0037V30.0312Z" fill="#71BC82"/>
<path d="M33.8446 43.8516H32.5V50.1601H33.8446V43.8516Z" fill="#EF5E45"/>
<path d="M29.0977 43.8516H25.6953V50.1601H29.0977V43.8516Z" fill="#81CC96"/>
<path d="M25.6953 43.8516H22.293V50.1601H25.6953V43.8516Z" fill="#FF6F52"/>
<path d="M32.5 43.8516H29.0977V50.1601H32.5V43.8516Z" fill="#81CC96"/>
<path d="M54.7122 2.82422C53.3894 2.82422 52.3163 3.89735 52.3163 5.22147H12.6839C12.6839 3.89735 11.6108 2.82422 10.2881 2.82422H54.7122Z" fill="#87EA6E"/>
<path d="M30.4422 43.8516H29.0977V50.1601H30.4422V43.8516Z" fill="#71BC82"/>
<path d="M27.0399 43.8516H25.6953V50.1601H27.0399V43.8516Z" fill="#71BC82"/>
<path d="M23.6375 43.8555H22.293V50.164H23.6375V43.8555Z" fill="#EF5E45"/>
<path d="M30.7967 30.0312H29.4521V36.3398H30.7967V30.0312Z" fill="#EF5E45"/>
<path d="M37.6014 30.0312H36.2568V36.3398H37.6014V30.0312Z" fill="#EF5E45"/>
<path d="M26.8062 14.4375H25.5889V22.3055H26.8062V14.4375Z" fill="#71BC82"/>
<path d="M33.6109 14.4375H32.3936V22.3055H33.6109V14.4375Z" fill="#71BC82"/>
<path d="M30.2086 14.4375H28.9912V22.3055H30.2086V14.4375Z" fill="#EF5E45"/>
<path d="M41.1246 14.4375H39.9072V22.3055H41.1246V14.4375Z" fill="#EF5E45"/>
</svg>
