<svg width="65" height="65" viewBox="0 0 65 65" fill="none" xmlns="http://www.w3.org/2000/svg">
<path opacity="0.998" fill-rule="evenodd" clip-rule="evenodd" d="M52.876 24.3125C52.5767 24.2918 52.2806 24.3129 51.9873 24.376C52.3341 24.4265 52.5668 24.6169 52.6855 24.9473C52.749 29.5173 52.7702 34.0876 52.749 38.6582C52.77 39.1256 52.7489 39.5911 52.6855 40.0547C52.6221 40.2874 52.4739 40.4356 52.2412 40.499C49.3636 40.5413 46.486 40.5837 43.6084 40.626C42.4446 40.7741 41.7888 41.43 41.6406 42.5938C41.5983 47.1641 41.5559 51.7344 41.5137 56.3047C41.3183 56.6882 41.0009 56.8574 40.5615 56.8125C40.096 56.8125 39.6306 56.8125 39.165 56.8125C38.8602 56.6543 38.6698 56.4004 38.5938 56.0508C38.5515 51.3535 38.5091 46.6563 38.4668 41.959C38.1917 41.3454 37.7474 40.9011 37.1338 40.626C36.2461 40.5625 35.3575 40.5414 34.4678 40.5625C34.0022 40.5625 33.5368 40.5625 33.0713 40.5625C32.7665 40.4043 32.576 40.1504 32.5 39.8008C32.4153 37.5579 32.4153 35.3152 32.5 33.0723C32.6301 32.7946 32.8206 32.583 33.0713 32.4375C33.156 32.4375 33.2405 32.4375 33.3252 32.4375C35.8847 32.7144 37.5986 31.6565 38.4668 29.2637C38.5091 27.8249 38.5515 26.386 38.5938 24.9473C38.6995 24.6722 38.8899 24.4817 39.165 24.376C38.4893 24.3126 37.8122 24.2914 37.1338 24.3125C36.2451 24.3125 35.3564 24.3125 34.4678 24.3125C34.4678 24.9895 34.4678 25.6667 34.4678 26.3438C34.1292 26.3438 33.7907 26.3438 33.4521 26.3438C33.4733 24.8621 33.4521 23.3809 33.3887 21.9004C33.27 21.5701 33.0373 21.3796 32.6904 21.3291C32.2693 21.2659 31.8462 21.2447 31.4209 21.2656C31.3815 20.3151 30.916 19.6592 30.0244 19.2979C27.1047 19.2344 24.1848 19.2132 21.2646 19.2344C24.8435 15.5074 28.5251 11.8893 32.3096 8.37989C32.5635 8.29525 32.8174 8.21062 33.0713 8.12598C37.6416 8.04134 42.2119 8.04134 46.7822 8.12598C47.2617 8.50109 47.4098 8.98774 47.2266 9.58594C46.1647 10.6054 45.1491 11.6633 44.1797 12.7598C44.0339 13.4611 44.3091 13.9054 45.0049 14.0928C47.8042 14.0982 50.5972 14.1829 53.3838 14.3467C56.064 15.4665 57.1854 17.4766 56.748 20.377C56.1959 22.4312 54.9052 23.7431 52.876 24.3125Z" fill="#3C4B3F"/>
<path fill-rule="evenodd" clip-rule="evenodd" d="M32.1823 11.6166C32.3566 11.5967 32.526 11.6179 32.6901 11.6801C36.8796 15.8695 41.0691 20.059 45.2585 24.2484C44.793 24.3331 44.3276 24.3331 43.862 24.2484C39.9053 20.2917 35.9487 16.3351 31.9919 12.3783C31.8969 12.0812 31.9604 11.8273 32.1823 11.6166Z" fill="#546D57"/>
<path opacity="0.998" fill-rule="evenodd" clip-rule="evenodd" d="M21.2646 19.2345C24.1848 19.2133 27.1047 19.2345 30.0243 19.298C30.9159 19.6593 31.3815 20.3153 31.4208 21.2658C31.8461 21.2448 32.2693 21.266 32.6904 21.3292C33.0372 21.3798 33.2699 21.5702 33.3886 21.9005C33.4521 23.3811 33.4733 24.8622 33.4521 26.3439C28.0354 26.3439 22.6188 26.3439 17.2021 26.3439C17.2021 25.3283 17.2021 24.3126 17.2021 23.297C17.154 22.688 17.2174 22.0955 17.3925 21.5197C17.4877 21.4402 17.5936 21.3767 17.7099 21.3292C18.2159 21.2659 18.7237 21.2447 19.2333 21.2658C19.2756 19.954 19.9528 19.2768 21.2646 19.2345Z" fill="#546D57"/>
<path opacity="0.998" fill-rule="evenodd" clip-rule="evenodd" d="M17.2022 23.2969C17.2022 24.3125 17.2022 25.3281 17.2022 26.3438C15.1709 26.3438 13.1397 26.3438 11.1084 26.3438C11.1084 28.375 11.1084 30.4062 11.1084 32.4375C11.1084 33.1145 11.1084 33.7917 11.1084 34.4688C8.73863 34.4688 6.36884 34.4688 3.99905 34.4688C3.97806 34.0013 3.99923 33.5359 4.06252 33.0723C4.12158 32.8906 4.22739 32.7426 4.37991 32.6279C5.08519 32.4706 5.8046 32.386 6.53811 32.374C8.37823 32.0998 9.54197 31.063 10.0293 29.2637C10.0716 27.8249 10.114 26.386 10.1563 24.9473C10.2864 24.6696 10.4768 24.458 10.7276 24.3125C12.5477 24.3337 14.3674 24.3125 16.1865 24.249C16.5085 23.9056 16.8471 23.5882 17.2022 23.2969Z" fill="#3C4B3F"/>
<path opacity="0.997" fill-rule="evenodd" clip-rule="evenodd" d="M10.7275 24.3126C10.4768 24.4581 10.2864 24.6697 10.1563 24.9473C10.1139 26.3861 10.0716 27.825 10.0293 29.2637C9.54195 31.063 8.37821 32.0999 6.53809 32.3741C5.80458 32.386 5.08517 32.4707 4.37989 32.628C4.22736 32.7426 4.12156 32.8907 4.0625 33.0723C3.9992 33.536 3.97804 34.0014 3.99903 34.4688C3.99903 35.1459 3.99903 35.823 3.99903 36.5001C12.8011 36.5001 21.6032 36.5001 30.4053 36.5001C30.4053 35.823 30.4053 35.1459 30.4053 34.4688C23.9729 34.4688 17.5407 34.4688 11.1084 34.4688C11.1084 33.7918 11.1084 33.1146 11.1084 32.4376C18.4294 32.4376 25.7503 32.4376 33.0713 32.4376C32.8206 32.5831 32.6301 32.7947 32.5 33.0723C32.4153 35.3152 32.4153 37.558 32.5 39.8009C32.576 40.1505 32.7665 40.4044 33.0713 40.5626C32.1826 40.5626 31.2939 40.5626 30.4053 40.5626C29.3897 40.5626 28.374 40.5626 27.3584 40.5626C24.9886 40.5626 22.6189 40.5626 20.249 40.5626C19.2334 40.5626 18.2178 40.5626 17.2022 40.5626C15.8479 40.5626 14.4939 40.5626 13.1397 40.5626C10.981 40.5414 8.82283 40.5626 6.66504 40.626C7.27865 40.9012 7.72298 41.3455 7.99805 41.9591C8.04036 46.6563 8.08269 51.3536 8.125 56.0508C8.20098 56.4005 8.39141 56.6544 8.69629 56.8126C8.14617 56.8126 7.59603 56.8126 7.0459 56.8126C6.60649 56.8575 6.28911 56.6883 6.09375 56.3048C6.08982 51.518 6.00518 46.736 5.83985 41.9591C5.50967 41.1271 4.89605 40.6828 3.99903 40.626C3.49121 40.5838 2.9834 40.5414 2.47559 40.4991C2.24285 40.4356 2.09473 40.2875 2.03125 40.0548C1.94661 37.6849 1.94661 35.3152 2.03125 32.9454C2.09473 32.7127 2.24285 32.5645 2.47559 32.501C3.46139 32.4647 4.4347 32.3378 5.39551 32.1202C6.72053 31.5993 7.54573 30.6471 7.8711 29.2637C7.98292 27.6903 8.10987 26.1244 8.25196 24.5665C8.34722 24.487 8.45302 24.4235 8.56934 24.376C9.2875 24.3127 10.0069 24.2915 10.7275 24.3126Z" fill="#546D57"/>
<path fill-rule="evenodd" clip-rule="evenodd" d="M37.1338 24.3125C36.8831 24.458 36.6926 24.6696 36.5625 24.9473C36.4992 25.4109 36.4781 25.8763 36.499 26.3438C35.822 26.3438 35.1448 26.3438 34.4678 26.3438C34.4678 25.6667 34.4678 24.9895 34.4678 24.3125C35.3564 24.3125 36.2451 24.3125 37.1338 24.3125Z" fill="#40EF23"/>
<path fill-rule="evenodd" clip-rule="evenodd" d="M37.1338 24.3126C37.8122 24.2915 38.4893 24.3127 39.165 24.376C38.8899 24.4818 38.6995 24.6722 38.5938 24.9473C38.5515 26.3861 38.5091 27.825 38.4668 29.2637C37.5986 31.6566 35.8847 32.7145 33.3252 32.4376C34.9312 31.9529 35.968 30.895 36.4355 29.2637C36.499 28.2914 36.5201 27.3181 36.499 26.3438C36.4781 25.8764 36.4992 25.411 36.5625 24.9473C36.6926 24.6697 36.8831 24.4581 37.1338 24.3126Z" fill="#566D57"/>
<path opacity="0.999" fill-rule="evenodd" clip-rule="evenodd" d="M52.876 24.3124C55.542 24.3124 58.208 24.3124 60.874 24.3124C60.874 29.0519 60.874 33.7916 60.874 38.5311C59.0539 38.5099 57.2342 38.5311 55.415 38.5946C56.0286 38.8697 56.4729 39.314 56.748 39.9276C56.7903 45.3019 56.8327 50.6763 56.875 56.0507C56.951 56.4003 57.1415 56.6542 57.4463 56.8124C56.8962 56.8124 56.346 56.8124 55.7959 56.8124C55.3565 56.8573 55.0391 56.6881 54.8438 56.3046C54.8015 51.0572 54.7591 45.8097 54.7168 40.5624C54.5758 39.3845 53.9199 38.7497 52.749 38.6581C52.7702 34.0875 52.749 29.5172 52.6855 24.9471C52.5668 24.6168 52.3341 24.4264 51.9873 24.3758C52.2806 24.3128 52.5767 24.2917 52.876 24.3124Z" fill="#546D57"/>
<path opacity="0.999" fill-rule="evenodd" clip-rule="evenodd" d="M60.874 24.3126C61.3836 24.2915 61.8914 24.3127 62.3975 24.376C62.6302 24.4395 62.7783 24.5877 62.8418 24.8204C62.9265 29.2215 62.9265 33.6224 62.8418 38.0235C62.7783 38.2562 62.6302 38.4044 62.3975 38.4678C61.312 38.4911 60.5292 38.9777 60.0488 39.9278C59.883 45.382 59.7983 50.8409 59.7949 56.3048C59.5995 56.6883 59.2822 56.8575 58.8428 56.8126C58.3772 56.8126 57.9118 56.8126 57.4463 56.8126C57.1415 56.6544 56.951 56.4005 56.875 56.0508C56.8327 50.6765 56.7903 45.3021 56.748 39.9278C56.4729 39.3142 56.0286 38.8699 55.415 38.5948C57.2342 38.5313 59.0539 38.5101 60.874 38.5313C60.874 33.7918 60.874 29.0521 60.874 24.3126Z" fill="#3C4B3F"/>
<path fill-rule="evenodd" clip-rule="evenodd" d="M17.2021 26.3438C22.6189 26.3438 28.0354 26.3438 33.4521 26.3438C33.7907 26.3438 34.1292 26.3438 34.4678 26.3438C35.1448 26.3438 35.822 26.3438 36.499 26.3438C36.5201 27.318 36.499 28.2913 36.4355 29.2637C35.968 30.8949 34.9312 31.9528 33.3252 32.4375C33.2405 32.4375 33.156 32.4375 33.0713 32.4375C25.7503 32.4375 18.4294 32.4375 11.1084 32.4375C11.1084 30.4062 11.1084 28.375 11.1084 26.3438C13.1396 26.3438 15.1709 26.3438 17.2021 26.3438Z" fill="#22F91E"/>
<path fill-rule="evenodd" clip-rule="evenodd" d="M20.8838 29.3908C23.8464 29.3696 26.8086 29.3908 29.7705 29.4542C30.4139 29.8329 30.562 30.3618 30.2148 31.0412C30.0662 31.218 29.8757 31.3239 29.6435 31.3585C26.7236 31.4432 23.8037 31.4432 20.8838 31.3585C20.2446 30.976 20.0964 30.447 20.4394 29.7716C20.5848 29.6274 20.733 29.5005 20.8838 29.3908Z" fill="#4BF022"/>
<path fill-rule="evenodd" clip-rule="evenodd" d="M3.99902 34.4688C6.36882 34.4688 8.7386 34.4688 11.1084 34.4688C17.5407 34.4688 23.9729 34.4688 30.4053 34.4688C30.4053 35.1458 30.4053 35.823 30.4053 36.5C21.6032 36.5 12.8011 36.5 3.99902 36.5C3.99902 35.823 3.99902 35.1458 3.99902 34.4688Z" fill="#D7EFD6"/>
<path fill-rule="evenodd" clip-rule="evenodd" d="M13.1396 40.5626C11.9987 40.7517 11.3427 41.4287 11.1719 42.5939C11.1296 47.1642 11.0872 51.7345 11.0449 56.3048C10.8496 56.6884 10.5322 56.8576 10.0928 56.8126C9.62727 56.8126 9.16179 56.8126 8.69629 56.8126C8.39141 56.6545 8.20098 56.4005 8.125 56.0509C8.08269 51.3537 8.04036 46.6564 7.99805 41.9591C7.72298 41.3456 7.27864 40.9012 6.66504 40.6261C8.82282 40.5626 10.981 40.5414 13.1396 40.5626Z" fill="#3C4B3F"/>
<path fill-rule="evenodd" clip-rule="evenodd" d="M17.2021 40.5625C18.2178 40.5625 19.2334 40.5625 20.249 40.5625C20.249 45.302 20.249 50.0417 20.249 54.7812C19.9104 54.7812 19.572 54.7812 19.2334 54.7812C19.2334 50.7188 19.2334 46.6562 19.2334 42.5938C18.5564 42.5938 17.8792 42.5938 17.2021 42.5938C17.2021 41.9167 17.2021 41.2395 17.2021 40.5625Z" fill="#3C4A3C"/>
<path opacity="0.998" fill-rule="evenodd" clip-rule="evenodd" d="M27.3584 40.5625C28.374 40.5625 29.3896 40.5625 30.4053 40.5625C30.4053 45.302 30.4053 50.0417 30.4053 54.7812C30.8447 54.7363 31.162 54.9055 31.3574 55.2891C31.4768 56.4024 31.4345 57.5026 31.2305 58.5898C31.1353 58.6693 31.0294 58.7328 30.9131 58.7803C29.475 58.8438 28.0361 58.865 26.5967 58.8438C26.7987 58.7525 26.9891 58.6255 27.168 58.4629C27.367 57.4573 27.4093 56.4417 27.2949 55.416C27.1544 55.0843 26.9217 54.8727 26.5967 54.7812C26.8506 54.7812 27.1045 54.7812 27.3584 54.7812C28.0354 54.7812 28.7126 54.7812 29.3896 54.7812C29.3896 50.7188 29.3896 46.6562 29.3896 42.5938C28.7126 42.5938 28.0354 42.5938 27.3584 42.5938C27.3584 41.9167 27.3584 41.2395 27.3584 40.5625Z" fill="#3C4B3F"/>
<path opacity="0.994" fill-rule="evenodd" clip-rule="evenodd" d="M34.4678 40.5626C35.3575 40.5415 36.2461 40.5626 37.1338 40.6261C37.7474 40.9012 38.1917 41.3455 38.4668 41.9591C38.5091 46.6563 38.5515 51.3536 38.5938 56.0509C38.6698 56.4005 38.8602 56.6544 39.165 56.8126C38.615 56.8126 38.0647 56.8126 37.5146 56.8126C37.0753 56.8575 36.7579 56.6883 36.5625 56.3048C36.5202 51.7345 36.4778 47.1641 36.4355 42.5938C36.2647 41.4287 35.6087 40.7516 34.4678 40.5626Z" fill="#546D57"/>
<path fill-rule="evenodd" clip-rule="evenodd" d="M17.2022 42.5938C17.8793 42.5938 18.5564 42.5938 19.2335 42.5938C19.2335 46.6562 19.2335 50.7188 19.2335 54.7812C19.5721 54.7812 19.9105 54.7812 20.2491 54.7812C22.365 54.7812 24.4808 54.7812 26.5967 54.7812C26.9217 54.8727 27.1545 55.0843 27.295 55.416C27.4094 56.4417 27.3671 57.4573 27.168 58.4629C26.9892 58.6255 26.7987 58.7525 26.5967 58.8438C26.5121 58.8438 26.4275 58.8438 26.3428 58.8438C26.3428 58.5052 26.3428 58.1667 26.3428 57.8281C26.3428 57.4895 26.3428 57.1511 26.3428 56.8125C25.7504 56.8125 25.158 56.8125 24.5655 56.8125C23.8885 56.8125 23.2113 56.8125 22.5342 56.8125C21.8572 56.8125 21.18 56.8125 20.503 56.8125C19.826 56.8125 19.1488 56.8125 18.4717 56.8125C17.7947 56.8125 17.1175 56.8125 16.4405 56.8125C16.3558 56.8125 16.2713 56.8125 16.1866 56.8125C16.1655 56.3029 16.1867 55.7951 16.2501 55.2891C16.4454 54.9055 16.7628 54.7363 17.2022 54.7812C17.2022 50.7188 17.2022 46.6562 17.2022 42.5938Z" fill="#546D57"/>
<path fill-rule="evenodd" clip-rule="evenodd" d="M27.3584 42.5938C28.0354 42.5938 28.7126 42.5938 29.3896 42.5938C29.3896 46.6562 29.3896 50.7188 29.3896 54.7812C28.7126 54.7812 28.0354 54.7812 27.3584 54.7812C27.3584 50.7188 27.3584 46.6562 27.3584 42.5938Z" fill="#546D57"/>
<path opacity="0.971" fill-rule="evenodd" clip-rule="evenodd" d="M7.04569 56.8125C7.59582 56.8125 8.14596 56.8125 8.69608 56.8125C9.16158 56.8125 9.62707 56.8125 10.0926 56.8125C10.2007 58.3759 9.48125 59.0319 7.93436 58.7803C7.14215 58.3589 6.84593 57.7031 7.04569 56.8125Z" fill="#1DF940"/>
<path opacity="0.987" fill-rule="evenodd" clip-rule="evenodd" d="M16.1865 56.8126C16.2712 56.8126 16.3557 56.8126 16.4404 56.8126C16.1018 57.1512 16.1018 57.4896 16.4404 57.8282C16.3557 57.8282 16.2712 57.8282 16.1865 57.8282C15.5503 57.8493 14.9156 57.8281 14.2822 57.7647C14.113 57.4685 14.113 57.1722 14.2822 56.876C14.9156 56.8127 15.5503 56.7915 16.1865 56.8126Z" fill="#1DF940"/>
<path fill-rule="evenodd" clip-rule="evenodd" d="M16.4405 56.8125C17.1175 56.8125 17.7947 56.8125 18.4717 56.8125C18.1331 57.1511 18.1331 57.4895 18.4717 57.8281C18.0486 57.8281 17.6253 57.8281 17.2022 57.8281C16.9483 57.8281 16.6944 57.8281 16.4405 57.8281C16.1019 57.4895 16.1019 57.1511 16.4405 56.8125Z" fill="#32F022"/>
<path fill-rule="evenodd" clip-rule="evenodd" d="M18.4717 56.8125C19.1488 56.8125 19.8259 56.8125 20.503 56.8125C20.1644 57.1511 20.1644 57.4895 20.503 57.8281C19.8259 57.8281 19.1488 57.8281 18.4717 57.8281C18.1331 57.4895 18.1331 57.1511 18.4717 56.8125Z" fill="#22F91E"/>
<path fill-rule="evenodd" clip-rule="evenodd" d="M20.503 56.8125C21.18 56.8125 21.8572 56.8125 22.5342 56.8125C22.1956 57.1511 22.1956 57.4895 22.5342 57.8281C21.8572 57.8281 21.18 57.8281 20.503 57.8281C20.1644 57.4895 20.1644 57.1511 20.503 56.8125Z" fill="#32F022"/>
<path fill-rule="evenodd" clip-rule="evenodd" d="M22.5342 56.8125C23.2113 56.8125 23.8884 56.8125 24.5655 56.8125C24.2269 57.1511 24.2269 57.4895 24.5655 57.8281C23.8884 57.8281 23.2113 57.8281 22.5342 57.8281C22.1956 57.4895 22.1956 57.1511 22.5342 56.8125Z" fill="#22F91E"/>
<path fill-rule="evenodd" clip-rule="evenodd" d="M24.5655 56.8125C25.158 56.8125 25.7503 56.8125 26.3428 56.8125C26.3428 57.1511 26.3428 57.4895 26.3428 57.8281C25.7503 57.8281 25.158 57.8281 24.5655 57.8281C24.2269 57.4895 24.2269 57.1511 24.5655 56.8125Z" fill="#4BF022"/>
<path opacity="0.971" fill-rule="evenodd" clip-rule="evenodd" d="M37.5145 56.8125C38.0646 56.8125 38.6148 56.8125 39.1649 56.8125C39.6304 56.8125 40.0958 56.8125 40.5613 56.8125C40.6694 58.3759 39.9501 59.0319 38.4031 58.7803C37.6109 58.3589 37.3146 57.7031 37.5145 56.8125Z" fill="#1DF940"/>
<path opacity="0.971" fill-rule="evenodd" clip-rule="evenodd" d="M55.7957 56.8125C56.3458 56.8125 56.896 56.8125 57.4461 56.8125C57.9116 56.8125 58.3771 56.8125 58.8426 56.8125C58.9506 58.3759 58.2313 59.0319 56.6844 58.7803C55.8922 58.3589 55.5959 57.7031 55.7957 56.8125Z" fill="#1DF940"/>
<path fill-rule="evenodd" clip-rule="evenodd" d="M16.1861 57.8281C16.2708 57.8281 16.3554 57.8281 16.44 57.8281C16.694 57.8281 16.9479 57.8281 17.2018 57.8281C17.2018 58.1667 17.2018 58.5052 17.2018 58.8438C16.4823 58.886 16.1439 58.5476 16.1861 57.8281Z" fill="#546C5B"/>
<path fill-rule="evenodd" clip-rule="evenodd" d="M17.2021 57.8281C17.6253 57.8281 18.0485 57.8281 18.4717 57.8281C19.1487 57.8281 19.8259 57.8281 20.5029 57.8281C21.18 57.8281 21.8571 57.8281 22.5342 57.8281C23.2112 57.8281 23.8884 57.8281 24.5654 57.8281C25.1579 57.8281 25.7503 57.8281 26.3428 57.8281C26.3428 58.1667 26.3428 58.5052 26.3428 58.8438C23.2959 58.8438 20.249 58.8438 17.2021 58.8438C17.2021 58.5052 17.2021 58.1667 17.2021 57.8281Z" fill="#3C4A3C"/>
</svg>
