<svg width="65" height="65" viewBox="0 0 65 65" fill="none" xmlns="http://www.w3.org/2000/svg">
<g clip-path="url(#clip0_662_5905)">
<path opacity="0.996" fill-rule="evenodd" clip-rule="evenodd" d="M11.7423 -0.0625C12.4617 -0.0625 13.181 -0.0625 13.9005 -0.0625C14.2643 0.108558 14.5817 0.362464 14.8526 0.699219C14.9373 5.14258 14.9373 9.58594 14.8526 14.0293C14.7869 14.3496 14.6175 14.6035 14.3448 14.791C14.3154 14.634 14.2519 14.507 14.1544 14.4102C14.0167 13.8701 13.6781 13.5104 13.1388 13.3311C12.4206 13.2677 11.7012 13.2465 10.9806 13.2676C10.9806 12.5059 10.9806 11.7441 10.9806 10.9824C10.9806 8.61263 10.9806 6.24284 10.9806 3.87305C10.9594 2.81426 10.9806 1.75632 11.044 0.699219C11.2167 0.378966 11.4494 0.12506 11.7423 -0.0625Z" fill="#577A54"/>
<path fill-rule="evenodd" clip-rule="evenodd" d="M13.9023 -0.0625C15.2988 -0.0625 16.6953 -0.0625 18.0918 -0.0625C18.3847 0.12506 18.6174 0.378966 18.79 0.699219C18.8535 2.2644 18.8747 3.83016 18.8535 5.39648C18.8535 6.75066 18.8535 8.10481 18.8535 9.45898C18.9123 11.1642 18.8488 12.8569 18.6631 14.5371C18.4626 14.7327 18.2298 14.8809 17.9648 14.9814C16.7383 15.0449 15.5111 15.066 14.2832 15.0449C14.1625 14.8648 14.1202 14.6533 14.1562 14.4102C14.2538 14.507 14.3172 14.634 14.3467 14.791C14.6194 14.6035 14.7887 14.3496 14.8545 14.0293C14.9392 9.58594 14.9392 5.14258 14.8545 0.699219C14.5836 0.362464 14.2662 0.108558 13.9023 -0.0625Z" fill="#496445"/>
<path opacity="0.996" fill-rule="evenodd" clip-rule="evenodd" d="M28.754 -0.0625C29.9813 -0.0625 31.2084 -0.0625 32.4357 -0.0625C32.4357 1.75716 32.4357 3.57683 32.4357 5.39648C31.1239 5.39648 29.8119 5.39648 28.5001 5.39648C28.4789 3.70325 28.5001 2.01054 28.5636 0.318359C28.6287 0.188034 28.6922 0.0610818 28.754 -0.0625Z" fill="#E0E0E0"/>
<path fill-rule="evenodd" clip-rule="evenodd" d="M32.4355 -0.0625C33.6204 -0.0625 34.8054 -0.0625 35.9902 -0.0625C36.1133 0.0402592 36.219 0.167213 36.3076 0.318359C36.3711 2.01054 36.3923 3.70325 36.3711 5.39648C33.7474 5.56575 31.1237 5.56575 28.5 5.39648C29.8118 5.39648 31.1237 5.39648 32.4355 5.39648C32.4355 3.57683 32.4355 1.75716 32.4355 -0.0625Z" fill="#BCBCBC"/>
<path opacity="0.993" fill-rule="evenodd" clip-rule="evenodd" d="M46.656 -0.0625C47.587 -0.0625 48.5181 -0.0625 49.449 -0.0625C49.6564 0.124333 49.8469 0.335922 50.0203 0.572266C50.105 5.14258 50.105 9.71289 50.0203 14.2832C49.8306 14.6404 49.5556 14.8944 49.1951 15.0449C48.39 15.066 47.586 15.0449 46.783 14.9814C46.6013 14.9224 46.4533 14.8165 46.3386 14.6641C46.1528 12.9416 46.0893 11.2065 46.1482 9.45898C46.1482 8.10481 46.1482 6.75066 46.1482 5.39648C46.127 3.74555 46.1482 2.09516 46.2117 0.445312C46.3864 0.292325 46.5344 0.123055 46.656 -0.0625Z" fill="#547953"/>
<path fill-rule="evenodd" clip-rule="evenodd" d="M49.4492 -0.0625C50.8034 -0.0625 52.1575 -0.0625 53.5117 -0.0625C53.6333 0.123055 53.7814 0.292325 53.9561 0.445312C54.0195 1.5871 54.0406 2.72968 54.0195 3.87305C54.0195 6.24284 54.0195 8.61263 54.0195 10.9824C54.0195 11.7441 54.0195 12.5059 54.0195 13.2676C53.9761 13.374 53.8916 13.4164 53.7656 13.3945C52.9044 13.3412 52.0581 13.4047 51.2266 13.585C50.8281 14.0017 50.6164 14.4885 50.5918 15.0449C50.1263 15.0449 49.6608 15.0449 49.1953 15.0449C49.5559 14.8944 49.8308 14.6404 50.0205 14.2832C50.1052 9.71289 50.1052 5.14258 50.0205 0.572266C49.8471 0.335922 49.6567 0.124333 49.4492 -0.0625Z" fill="#496445"/>
<path opacity="0.982" fill-rule="evenodd" clip-rule="evenodd" d="M10.9805 3.8712C10.9805 6.24099 10.9805 8.61078 10.9805 10.9806C9.73981 11.0374 8.51259 10.9739 7.29883 10.7901C7.23535 10.7267 7.17188 10.6632 7.1084 10.5997C7.02376 8.52615 7.02376 6.45257 7.1084 4.37901C7.26532 4.12023 7.49807 3.97211 7.80664 3.93467C8.86374 3.87123 9.92168 3.85007 10.9805 3.8712Z" fill="#BDBDBD"/>
<path opacity="0.984" fill-rule="evenodd" clip-rule="evenodd" d="M54.0195 3.8712C55.0783 3.85007 56.1362 3.87123 57.1934 3.93467C57.502 3.97211 57.7347 4.12023 57.8916 4.37901C57.9763 6.45257 57.9763 8.52615 57.8916 10.5997C57.7858 10.7055 57.68 10.8113 57.5742 10.9171C56.3901 10.9805 55.2051 11.0017 54.0195 10.9806C54.0195 8.61078 54.0195 6.24099 54.0195 3.8712Z" fill="#BDBDBD"/>
<path opacity="0.97" fill-rule="evenodd" clip-rule="evenodd" d="M18.8516 5.39453C21.7715 5.39453 24.6914 5.39453 27.6113 5.39453C27.6113 6.70638 27.6113 8.01823 27.6113 9.33008C30.8274 9.33008 34.0437 9.33008 37.2598 9.33008C37.2598 9.37239 37.2598 9.41472 37.2598 9.45703C32.6895 9.45703 28.1191 9.45703 23.5488 9.45703C21.9831 9.45703 20.4173 9.45703 18.8516 9.45703C18.8516 8.10286 18.8516 6.7487 18.8516 5.39453Z" fill="#BCBCBA"/>
<path opacity="0.97" fill-rule="evenodd" clip-rule="evenodd" d="M37.3867 5.39453C40.3066 5.39453 43.2266 5.39453 46.1465 5.39453C46.1465 6.7487 46.1465 8.10286 46.1465 9.45703C44.5384 9.45703 42.9304 9.45703 41.3223 9.45703C40.0209 9.33325 38.7089 9.29094 37.3867 9.33008C37.3867 8.01823 37.3867 6.70638 37.3867 5.39453Z" fill="#BDBDBD"/>
<path fill-rule="evenodd" clip-rule="evenodd" d="M27.6133 5.39453C27.9095 5.39453 28.2058 5.39453 28.502 5.39453C31.1257 5.5638 33.7493 5.5638 36.373 5.39453C36.7116 5.39453 37.0501 5.39453 37.3887 5.39453C37.3887 6.70638 37.3887 8.01823 37.3887 9.33008C37.3464 9.33008 37.304 9.33008 37.2617 9.33008C34.0456 9.33008 30.8294 9.33008 27.6133 9.33008C27.6133 8.01823 27.6133 6.70638 27.6133 5.39453Z" fill="#577A54"/>
<path opacity="0.994" fill-rule="evenodd" clip-rule="evenodd" d="M23.5489 9.45703C28.1192 9.45703 32.6895 9.45703 37.2599 9.45703C37.2809 10.389 37.2599 11.32 37.1964 12.25C36.9883 12.689 36.7133 13.0699 36.3712 13.3926C35.0594 13.3926 33.7474 13.3926 32.4356 13.3926C31.1238 13.3926 29.8119 13.3926 28.5001 13.3926C27.2298 13.4137 25.9603 13.3926 24.6915 13.3291C23.9912 13.0942 23.6314 12.6076 23.6124 11.8691C23.5489 11.0662 23.5278 10.2622 23.5489 9.45703Z" fill="#50FE76"/>
<path fill-rule="evenodd" clip-rule="evenodd" d="M37.2598 9.33051C37.302 9.33051 37.3444 9.33051 37.3867 9.33051C38.7089 9.29137 40.0209 9.33369 41.3223 9.45746C41.363 10.4808 41.2995 11.4964 41.1318 12.5043C40.9334 12.9141 40.616 13.1893 40.1797 13.3295C38.9109 13.393 37.6414 13.4141 36.3711 13.393C36.7132 13.0703 36.9882 12.6895 37.1963 12.2504C37.2598 11.3204 37.2808 10.3894 37.2598 9.45746C37.2598 9.41515 37.2598 9.37283 37.2598 9.33051Z" fill="#55FE2B"/>
<path opacity="0.991" fill-rule="evenodd" clip-rule="evenodd" d="M9.07744 13.2657C9.56188 13.3939 9.92159 13.6901 10.1565 14.1544C10.22 19.4439 10.2412 24.7336 10.22 30.0235C8.90817 30.0235 7.59632 30.0235 6.28447 30.0235C6.28447 29.1771 6.28447 28.3308 6.28447 27.4844C6.4529 24.4251 6.4529 21.3783 6.28447 18.3438C6.22642 16.8498 6.28989 15.3687 6.4749 13.9005C6.68277 13.6072 6.95783 13.4168 7.3001 13.3292C7.89104 13.2658 8.48349 13.2446 9.07744 13.2657Z" fill="#51F74E"/>
<path fill-rule="evenodd" clip-rule="evenodd" d="M9.07812 13.2657C9.71289 13.2657 10.3477 13.2657 10.9824 13.2657C11.7031 13.2446 12.4225 13.2658 13.1406 13.3292C13.6799 13.5086 14.0185 13.8682 14.1562 14.4083C14.1202 14.6514 14.1625 14.8629 14.2832 15.043C14.2832 16.9896 14.2832 18.9363 14.2832 20.8829C14.2832 22.2371 14.2832 23.5912 14.2832 24.9454C14.3044 27.1886 14.2832 29.4314 14.2197 31.6739C14.0716 32.1605 13.7542 32.4779 13.2676 32.626C12.7615 32.6894 12.2537 32.7106 11.7441 32.6895C11.7872 32.0002 11.7237 31.323 11.5537 30.6583C11.3458 30.3747 11.0707 30.2054 10.7285 30.1505C10.593 30.0319 10.4237 29.9895 10.2207 30.0235C10.2419 24.7336 10.2207 19.4439 10.1572 14.1544C9.92227 13.6901 9.56257 13.3939 9.07812 13.2657Z" fill="#3BE84C"/>
<path opacity="0.997" fill-rule="evenodd" clip-rule="evenodd" d="M28.5 13.3945C29.8118 13.3945 31.1237 13.3945 32.4355 13.3945C32.4355 15.8913 32.4355 18.388 32.4355 20.8848C31.1237 20.8848 29.8118 20.8848 28.5 20.8848C28.5 18.388 28.5 15.8913 28.5 13.3945Z" fill="#DFE0DF"/>
<path fill-rule="evenodd" clip-rule="evenodd" d="M32.4375 13.3945C33.7493 13.3945 35.0612 13.3945 36.373 13.3945C36.373 15.8913 36.373 18.388 36.373 20.8848C35.0612 20.8848 33.7493 20.8848 32.4375 20.8848C32.4375 18.388 32.4375 15.8913 32.4375 13.3945Z" fill="#BDBDBD"/>
<path opacity="0.982" fill-rule="evenodd" clip-rule="evenodd" d="M53.7638 13.3933C54.0988 13.6229 54.3739 13.9191 54.589 14.2819C54.6525 19.5292 54.6737 24.7765 54.6525 30.0241C53.9338 30.034 53.4471 30.3725 53.1925 31.0397C53.1292 31.5883 53.108 32.1384 53.129 32.6901C52.4175 32.7653 51.7403 32.6595 51.0978 32.3727C50.9022 32.1723 50.754 31.9395 50.6535 31.6745C50.59 29.432 50.5688 27.1893 50.59 24.946C50.7573 23.5793 50.7573 22.2253 50.59 20.8835C50.59 18.9369 50.59 16.9902 50.59 15.0436C50.6146 14.4872 50.8262 14.0005 51.2247 13.5837C52.0563 13.4034 52.9026 13.3399 53.7638 13.3933Z" fill="#66F64E"/>
<path fill-rule="evenodd" clip-rule="evenodd" d="M54.0195 13.2657C55.2051 13.2446 56.3901 13.2657 57.5742 13.3292C57.9165 13.4168 58.1916 13.6072 58.3994 13.9005C58.5844 15.3687 58.6479 16.8499 58.5898 18.3438C58.4214 21.3783 58.4214 24.4251 58.5898 27.4845C58.5898 28.3309 58.5898 29.1771 58.5898 30.0235C57.278 30.0235 55.9661 30.0235 54.6543 30.0235C54.6755 24.7759 54.6543 19.5286 54.5908 14.2813C54.3758 13.9185 54.1007 13.6223 53.7656 13.3927C53.8916 13.4145 53.9761 13.3721 54.0195 13.2657Z" fill="#3AE84B"/>
<path opacity="0.975" fill-rule="evenodd" clip-rule="evenodd" d="M6.28386 18.3438C6.45229 21.3783 6.45229 24.4251 6.28386 27.4845C5.30963 27.5055 4.33632 27.4845 3.36394 27.421C3.02167 27.3334 2.74661 27.143 2.53874 26.8497C2.39509 25.5254 2.33162 24.1924 2.34831 22.8507C2.36947 21.6446 2.39062 20.4386 2.41179 19.2325C2.51157 18.8411 2.74432 18.5661 3.11003 18.4073C4.16713 18.3438 5.22507 18.3228 6.28386 18.3438Z" fill="#BDBBBC"/>
<path opacity="0.974" fill-rule="evenodd" clip-rule="evenodd" d="M58.5892 18.3438C59.7326 18.3228 60.8752 18.3438 62.017 18.4073C62.1227 18.5131 62.2286 18.6189 62.3344 18.7247C62.4797 20.0882 62.5432 21.4635 62.5248 22.8507C62.5432 24.2379 62.4797 25.6132 62.3344 26.9766C62.1802 27.1733 61.9898 27.3213 61.7631 27.421C60.7059 27.4845 59.648 27.5055 58.5892 27.4845C58.4208 24.4251 58.4208 21.3783 58.5892 18.3438Z" fill="#BEBBBB"/>
<path opacity="0.972" fill-rule="evenodd" clip-rule="evenodd" d="M14.2812 20.8828C18.3438 20.8828 22.4062 20.8828 26.4688 20.8828C26.4688 22.1946 26.4688 23.5066 26.4688 24.8184C25.4845 24.7804 24.5111 24.8227 23.5488 24.9453C20.4597 24.9453 17.3704 24.9453 14.2812 24.9453C14.2812 23.5911 14.2812 22.237 14.2812 20.8828Z" fill="#BDBDBC"/>
<path opacity="0.972" fill-rule="evenodd" clip-rule="evenodd" d="M38.4023 20.8828C42.4648 20.8828 46.5273 20.8828 50.5898 20.8828C50.7572 22.2246 50.7572 23.5787 50.5898 24.9453C47.5007 24.9453 44.4114 24.9453 41.3223 24.9453C40.36 24.8227 39.3866 24.7804 38.4023 24.8184C38.4023 23.5066 38.4023 22.1946 38.4023 20.8828Z" fill="#BDBCBC"/>
<path fill-rule="evenodd" clip-rule="evenodd" d="M26.4688 20.8828C27.1458 20.8828 27.823 20.8828 28.5 20.8828C29.8118 20.8828 31.1237 20.8828 32.4355 20.8828C33.7474 20.8828 35.0593 20.8828 36.3711 20.8828C37.0481 20.8828 37.7253 20.8828 38.4023 20.8828C38.4023 22.1946 38.4023 23.5066 38.4023 24.8184C38.0215 24.8184 37.6406 24.8184 37.2598 24.8184C33.6628 24.8184 30.0657 24.8184 26.4688 24.8184C26.4688 23.5066 26.4688 22.1946 26.4688 20.8828Z" fill="#587A55"/>
<path opacity="0.998" fill-rule="evenodd" clip-rule="evenodd" d="M26.4688 24.8182C30.0658 24.8182 33.6629 24.8182 37.2599 24.8182C37.2809 25.7501 37.2599 26.6811 37.1964 27.6111C37.0675 28.2263 36.7077 28.6072 36.1173 28.7537C34.89 28.7537 33.6629 28.7537 32.4356 28.7537C31.1008 28.7121 29.789 28.7545 28.5001 28.8807C27.3567 28.9017 26.2142 28.8807 25.0724 28.8172C24.2472 28.669 23.7605 28.1824 23.6124 27.3572C23.5489 26.5542 23.5278 25.7502 23.5489 24.9451C24.5112 24.8225 25.4846 24.7802 26.4688 24.8182Z" fill="#5DFE4F"/>
<path fill-rule="evenodd" clip-rule="evenodd" d="M37.2598 24.8182C37.6406 24.8182 38.0215 24.8182 38.4023 24.8182C39.3866 24.7802 40.36 24.8225 41.3223 24.9451C41.3433 25.7502 41.3223 26.5542 41.2588 27.3572C41.1106 28.1824 40.624 28.669 39.7988 28.8172C38.657 28.8807 37.5144 28.9017 36.3711 28.8807C36.3277 28.7743 36.2431 28.7319 36.1172 28.7537C36.7076 28.6072 37.0674 28.2263 37.1963 27.6111C37.2598 26.6811 37.2808 25.7501 37.2598 24.8182Z" fill="#61FF29"/>
<path opacity="0.997" fill-rule="evenodd" clip-rule="evenodd" d="M32.4355 28.7538C32.4355 32.0545 32.4355 35.3553 32.4355 38.6561C31.1237 38.6561 29.8118 38.6561 28.5 38.6561C28.5 35.3976 28.5 32.1392 28.5 28.8807C29.789 28.7545 31.1008 28.7121 32.4355 28.7538Z" fill="#E0DFDF"/>
<path fill-rule="evenodd" clip-rule="evenodd" d="M32.4375 28.7556C33.6648 28.7556 34.8919 28.7556 36.1191 28.7556C36.2451 28.7337 36.3296 28.7761 36.373 28.8825C36.373 32.141 36.373 35.3994 36.373 38.6579C35.0612 38.6579 33.7493 38.6579 32.4375 38.6579C32.4375 35.3571 32.4375 32.0563 32.4375 28.7556Z" fill="#BDBDBC"/>
<path opacity="0.985" fill-rule="evenodd" clip-rule="evenodd" d="M6.28331 30.0231C7.59516 30.0231 8.90701 30.0231 10.2189 30.0231C10.4219 29.9891 10.5911 30.0315 10.7267 30.15C9.49873 30.129 8.27151 30.15 7.04503 30.2135C7.41075 30.3723 7.64349 30.6473 7.74327 31.0387C7.82791 37.5133 7.82791 43.9879 7.74327 50.4625C7.56278 51.0877 7.16076 51.4685 6.53722 51.6051C5.94327 51.6262 5.35082 51.605 4.75988 51.5416C4.15968 51.3644 3.8423 50.9625 3.80773 50.3356C3.74428 49.0244 3.72311 47.7126 3.74425 46.4C3.91352 42.5914 3.91352 38.7828 3.74425 34.9743C3.72311 33.704 3.74428 32.4344 3.80773 31.1657C3.90394 30.6043 4.22133 30.2446 4.75988 30.0866C5.26594 30.0232 5.77375 30.002 6.28331 30.0231Z" fill="#81E97F"/>
<path fill-rule="evenodd" clip-rule="evenodd" d="M10.7285 30.1524C11.0707 30.2074 11.3458 30.3766 11.5537 30.6602C11.7237 31.325 11.7872 32.0021 11.7441 32.6915C11.7441 34.6805 11.7441 36.6693 11.7441 38.6583C11.7441 40.0125 11.7441 41.3666 11.7441 42.7208C11.8048 45.483 11.7413 48.2337 11.5537 50.9727C11.3458 51.266 11.0708 51.4564 10.7285 51.544C9.33267 51.6075 7.93618 51.6287 6.53906 51.6075C7.16261 51.4709 7.56463 51.09 7.74512 50.4649C7.82976 43.9903 7.82976 37.5157 7.74512 31.0411C7.64533 30.6497 7.41259 30.3747 7.04688 30.2159C8.27336 30.1524 9.50057 30.1314 10.7285 30.1524Z" fill="#4DE176"/>
<path opacity="0.991" fill-rule="evenodd" clip-rule="evenodd" d="M54.6525 30.0234C55.9643 30.0234 57.2762 30.0234 58.588 30.0234C57.8493 30.1286 57.0876 30.192 56.3029 30.2139C56.6203 30.362 56.853 30.5947 57.0011 30.9121C57.0858 37.4714 57.0858 44.0306 57.0011 50.5898C56.8046 51.1822 56.4025 51.5208 55.7951 51.6055C55.1057 51.6485 54.4285 51.585 53.7638 51.415C53.5254 51.2192 53.335 50.9864 53.1925 50.7168C53.129 48.0512 53.1078 45.3851 53.129 42.7188C53.129 41.3645 53.129 40.0105 53.129 38.6562C53.129 36.6673 53.129 34.6784 53.129 32.6895C53.108 32.1377 53.1292 31.5876 53.1925 31.0391C53.4471 30.3718 53.9338 30.0333 54.6525 30.0234Z" fill="#80E98B"/>
<path fill-rule="evenodd" clip-rule="evenodd" d="M58.5898 30.0235C59.0994 30.0024 59.6072 30.0236 60.1133 30.087C60.6518 30.245 60.9692 30.6047 61.0654 31.1661C61.1289 32.4349 61.15 33.7044 61.1289 34.9747C60.9603 38.7957 60.9603 42.6043 61.1289 46.4005C61.15 47.713 61.1289 49.0248 61.0654 50.336C61.0309 50.9629 60.7135 51.3648 60.1133 51.5421C58.6752 51.6055 57.2363 51.6267 55.7969 51.6055C56.4043 51.5209 56.8064 51.1823 57.0029 50.5899C57.0876 44.0306 57.0876 37.4715 57.0029 30.9122C56.8548 30.5948 56.6221 30.3621 56.3047 30.2139C57.0894 30.1921 57.8511 30.1286 58.5898 30.0235Z" fill="#4DE176"/>
<path opacity="0.982" fill-rule="evenodd" clip-rule="evenodd" d="M3.74609 34.9766C3.91536 38.7852 3.91536 42.5938 3.74609 46.4024C2.77187 46.4235 1.79856 46.4024 0.826172 46.339C0.429996 46.2162 0.133772 45.9835 -0.0625 45.6407C-0.0625 42.3399 -0.0625 39.0391 -0.0625 35.7384C0.205648 35.413 0.54419 35.1803 0.953125 35.0401C1.88316 34.9766 2.81414 34.9556 3.74609 34.9766Z" fill="#BCBDBD"/>
<path opacity="0.983" fill-rule="evenodd" clip-rule="evenodd" d="M61.1284 34.9766C62.1449 34.9556 63.1605 34.9766 64.1753 35.0401C64.5112 35.1422 64.7651 35.3326 64.937 35.6114C64.937 38.9969 64.937 42.3822 64.937 45.7677C64.7788 46.0725 64.5249 46.2629 64.1753 46.339C63.1605 46.4024 62.1449 46.4235 61.1284 46.4024C60.9598 42.6063 60.9598 38.7977 61.1284 34.9766Z" fill="#BCBDBD"/>
<path opacity="0.966" fill-rule="evenodd" clip-rule="evenodd" d="M11.7422 38.6562C15.043 38.6562 18.3438 38.6562 21.6445 38.6562C21.6445 40.0105 21.6445 41.3645 21.6445 42.7188C18.3438 42.7188 15.043 42.7188 11.7422 42.7188C11.7422 41.3645 11.7422 40.0105 11.7422 38.6562Z" fill="#BCBDBC"/>
<path fill-rule="evenodd" clip-rule="evenodd" d="M21.6445 38.6562C23.9297 38.6562 26.2148 38.6562 28.5 38.6562C29.8118 38.6562 31.1237 38.6562 32.4355 38.6562C33.7474 38.6562 35.0593 38.6562 36.3711 38.6562C38.6562 38.6562 40.9414 38.6562 43.2266 38.6562C43.2266 40.0105 43.2266 41.3645 43.2266 42.7188C43.1843 42.7188 43.1419 42.7188 43.0996 42.7188C43.0996 41.4069 43.0996 40.095 43.0996 38.7832C35.9902 38.7832 28.8809 38.7832 21.7715 38.7832C21.7715 40.095 21.7715 41.4069 21.7715 42.7188C21.7292 42.7188 21.6868 42.7188 21.6445 42.7188C21.6445 41.3645 21.6445 40.0105 21.6445 38.6562Z" fill="#949EA3"/>
<path opacity="0.966" fill-rule="evenodd" clip-rule="evenodd" d="M43.2266 38.6562C46.5273 38.6562 49.8281 38.6562 53.1289 38.6562C53.1289 40.0105 53.1289 41.3645 53.1289 42.7188C49.8281 42.7188 46.5273 42.7188 43.2266 42.7188C43.2266 41.3645 43.2266 40.0105 43.2266 38.6562Z" fill="#BCBDBC"/>
<path fill-rule="evenodd" clip-rule="evenodd" d="M43.1016 42.7207C42.5091 42.7207 41.9167 42.7207 41.3242 42.7207C41.2819 42.7207 41.2395 42.7207 41.1973 42.7207C35.3275 42.5519 29.4453 42.5519 23.5508 42.7207C22.9583 42.7207 22.3659 42.7207 21.7734 42.7207C21.7734 41.4089 21.7734 40.097 21.7734 38.7852C28.8828 38.7852 35.9922 38.7852 43.1016 38.7852C43.1016 40.097 43.1016 41.4089 43.1016 42.7207Z" fill="#577A54"/>
<path opacity="0.993" fill-rule="evenodd" clip-rule="evenodd" d="M41.1954 42.7204C39.8836 42.7204 38.5717 42.7204 37.2599 42.7204C37.2809 43.6523 37.2599 44.5833 37.1964 45.5134C37.0307 45.9527 36.7557 46.2913 36.3712 46.529C33.7255 46.487 31.1017 46.5294 28.5001 46.6559C27.2298 46.677 25.9603 46.6559 24.6915 46.5925C23.9912 46.3576 23.6314 45.871 23.6124 45.1325C23.5489 44.3295 23.5278 43.5255 23.5489 42.7204C29.4435 42.5515 35.3256 42.5515 41.1954 42.7204Z" fill="#4FFD75"/>
<path fill-rule="evenodd" clip-rule="evenodd" d="M41.1953 42.7188C41.2376 42.7188 41.28 42.7188 41.3223 42.7188C41.363 43.7421 41.2995 44.7577 41.1318 45.7656C40.9334 46.1754 40.616 46.4505 40.1797 46.5908C38.9109 46.6543 37.6414 46.6754 36.3711 46.6543C36.3711 46.612 36.3711 46.5696 36.3711 46.5273C36.7556 46.2897 37.0306 45.9511 37.1963 45.5117C37.2598 44.5817 37.2808 43.6507 37.2598 42.7188C38.5716 42.7188 39.8835 42.7188 41.1953 42.7188Z" fill="#61FF29"/>
<path opacity="0.997" fill-rule="evenodd" clip-rule="evenodd" d="M28.5 46.6562C29.8118 46.6562 31.1237 46.6562 32.4355 46.6562C32.4355 50.6341 32.4355 54.612 32.4355 58.5898C31.1237 58.5898 29.8118 58.5898 28.5 58.5898C28.5 54.612 28.5 50.6341 28.5 46.6562Z" fill="#DFE0DF"/>
<path fill-rule="evenodd" clip-rule="evenodd" d="M28.5 46.6544C31.1017 46.5278 33.7254 46.4854 36.3711 46.5274C36.3711 46.5697 36.3711 46.6121 36.3711 46.6544C36.3711 50.6322 36.3711 54.6101 36.3711 58.588C33.7474 58.7572 31.1237 58.7572 28.5 58.588C29.8118 58.588 31.1237 58.588 32.4355 58.588C32.4355 54.6101 32.4355 50.6322 32.4355 46.6544C31.1237 46.6544 29.8118 46.6544 28.5 46.6544Z" fill="#BEBCBB"/>
<path opacity="0.991" fill-rule="evenodd" clip-rule="evenodd" d="M28.502 58.59C31.1257 58.7592 33.7493 58.7592 36.373 58.59C43.1438 58.59 49.9148 58.59 56.6855 58.59C59.2334 59.1919 60.6721 60.7999 61.002 63.4142C61.0077 64.1673 60.6691 64.6751 59.9863 64.9376C40.2239 64.9376 20.4616 64.9376 0.699219 64.9376C0.402995 64.726 0.149089 64.4721 -0.0625 64.1759C-0.0625 63.5834 -0.0625 62.9911 -0.0625 62.3986C0.589634 60.3294 1.98612 59.0809 4.12695 58.6535C12.2518 58.59 20.3768 58.5688 28.502 58.59Z" fill="#70F64E"/>
<path fill-rule="evenodd" clip-rule="evenodd" d="M56.6836 58.59C58.0384 58.5688 59.3926 58.59 60.7461 58.6535C62.8869 59.0809 64.2834 60.3294 64.9355 62.3986C64.9355 62.9911 64.9355 63.5834 64.9355 64.1759C64.7239 64.4721 64.47 64.726 64.1738 64.9376C62.7773 64.9376 61.3809 64.9376 59.9844 64.9376C60.6671 64.6751 61.0057 64.1673 61 63.4142C60.6702 60.7999 59.2314 59.1919 56.6836 58.59Z" fill="#3AE84B"/>
</g>
<defs>
<clipPath id="clip0_662_5905">
<rect width="65" height="65" fill="white"/>
</clipPath>
</defs>
</svg>
