<svg width="65" height="65" viewBox="0 0 65 65" fill="none" xmlns="http://www.w3.org/2000/svg">
<g clip-path="url(#clip0_662_5801)">
<path fill-rule="evenodd" clip-rule="evenodd" d="M3.61733 -0.0625C21.56 -0.0625 39.5028 -0.0625 57.4455 -0.0625C57.4455 0.910808 57.4455 1.88411 57.4455 2.85742C46.9293 2.81518 36.4345 2.85751 25.9611 2.98438C25.6321 3.08014 25.3994 3.29173 25.2628 3.61914C25.1994 10.3475 25.1782 17.076 25.1994 23.8047C24.6122 24.3536 24.0197 24.9037 23.422 25.4551C23.3373 18.2188 23.2528 10.9824 23.1681 3.74609C23.1172 3.2929 22.8633 3.01784 22.4064 2.9209C17.3283 2.83626 12.2501 2.83626 7.17202 2.9209C7.03509 3.04227 6.88697 3.14807 6.72768 3.23828C6.58005 10.5066 6.51657 17.7852 6.53725 25.0742C6.55841 32.2683 6.57957 39.4622 6.60073 46.6562C6.74884 46.8044 6.89695 46.9524 7.04506 47.1006C12.2501 47.1853 17.4552 47.1853 22.6603 47.1006C22.9685 46.9713 23.1379 46.7385 23.1681 46.4023C23.2528 40.3509 23.3373 34.2995 23.422 28.248C24.0617 28.8875 24.6542 29.5647 25.1994 30.2793C25.1782 35.6539 25.1994 41.0282 25.2628 46.4023C25.3526 46.6031 25.4583 46.7935 25.5802 46.9736C36.1916 47.1633 46.8133 47.2268 57.4455 47.1641C57.4455 48.2644 57.4455 49.3645 57.4455 50.4648C49.6589 50.4436 41.8724 50.4648 34.0861 50.5283C33.8534 50.6765 33.6629 50.8669 33.5148 51.0996C33.4301 54.4004 33.4301 57.7012 33.5148 61.002C33.6604 61.2964 33.8932 61.4656 34.213 61.5098C41.9357 61.6366 49.6799 61.6789 57.4455 61.6367C57.4455 62.737 57.4455 63.8372 57.4455 64.9375C39.4604 64.9375 21.4754 64.9375 3.49038 64.9375C3.44824 43.2619 3.49055 21.5953 3.61733 -0.0625Z" fill="#A9FAA7"/>
<path fill-rule="evenodd" clip-rule="evenodd" d="M57.4453 -0.0625C58.7148 -0.0625 59.9844 -0.0625 61.2539 -0.0625C61.3804 8.81521 61.4228 17.7019 61.3809 26.5977C60.3112 25.6817 59.2955 24.7085 58.334 23.6777C58.3552 16.9491 58.334 10.2206 58.2705 3.49219C58.223 3.37587 58.1596 3.27007 58.0801 3.1748C47.3842 2.98507 36.6777 2.9216 25.9609 2.98438C36.4343 2.85751 46.9292 2.81518 57.4453 2.85742C57.4453 1.88411 57.4453 0.910808 57.4453 -0.0625Z" fill="#90F194"/>
<path fill-rule="evenodd" clip-rule="evenodd" d="M23.1698 3.74414C23.1277 11.0443 23.17 18.3229 23.2968 25.5801C23.0848 25.8977 22.8098 26.1516 22.4716 26.3418C22.3724 26.4978 22.309 26.6671 22.2812 26.8496C22.5704 27.3085 22.9089 27.7317 23.2968 28.1191C23.17 34.1913 23.1277 40.2851 23.1698 46.4004C23.1396 46.7366 22.9703 46.9694 22.662 47.0986C17.4569 47.1833 12.2519 47.1833 7.04678 47.0986C6.89866 46.9505 6.75056 46.8025 6.60244 46.6543C6.58128 39.4602 6.56013 32.2663 6.53897 25.0723C6.51829 17.7833 6.58176 10.5046 6.7294 3.23633C6.88869 3.14612 7.0368 3.04032 7.17373 2.91895C12.2519 2.83431 17.33 2.83431 22.4081 2.91895C22.865 3.01589 23.1189 3.29095 23.1698 3.74414Z" fill="#7FE996"/>
<path fill-rule="evenodd" clip-rule="evenodd" d="M25.9611 2.98435C36.6778 2.92157 47.3843 2.98505 58.0802 3.17478C58.1597 3.27004 58.2232 3.37585 58.2706 3.49216C58.3341 10.2206 58.3553 16.9491 58.3341 23.6777C57.6195 23.1748 56.9847 22.5825 56.4298 21.9004C56.4298 20.3347 56.4298 18.7688 56.4298 17.2031C56.4298 16.5683 56.4298 15.9336 56.4298 15.2988C56.4715 11.7982 56.4292 8.30697 56.3029 4.82517C46.6544 4.74053 37.006 4.74053 27.3576 4.82517C27.2941 4.88865 27.2306 4.95212 27.1671 5.0156C27.1037 8.44307 27.0825 11.8708 27.1037 15.2988C27.1037 15.9336 27.1037 16.5683 27.1037 17.2031C27.1037 18.8112 27.1037 20.4192 27.1037 22.0273C26.4983 22.6481 25.8636 23.2405 25.1994 23.8047C25.1782 17.076 25.1994 10.3475 25.2628 3.61911C25.3994 3.2917 25.6321 3.08011 25.9611 2.98435Z" fill="#87E97E"/>
<path fill-rule="evenodd" clip-rule="evenodd" d="M23.1681 3.74609C23.2528 10.9824 23.3374 18.2188 23.422 25.4551C23.422 25.5398 23.3798 25.582 23.2951 25.582C23.1683 18.3249 23.126 11.0462 23.1681 3.74609Z" fill="#B6F292"/>
<path fill-rule="evenodd" clip-rule="evenodd" d="M21.1368 4.88854C20.2059 4.88854 19.2748 4.88854 18.3439 4.88854C18.3439 18.3456 18.3439 31.8026 18.3439 45.2596C15.0431 45.2596 11.7423 45.2596 8.44153 45.2596C8.42037 31.8025 8.44153 18.3454 8.50501 4.88854C12.728 4.71945 16.9386 4.71945 21.1368 4.88854Z" fill="#B5F5FE"/>
<path fill-rule="evenodd" clip-rule="evenodd" d="M21.1367 4.88672C21.215 4.90077 21.2785 4.94309 21.3271 5.01367C21.4118 18.386 21.4118 31.7585 21.3271 45.1309C20.3436 45.2555 19.3492 45.2978 18.3438 45.2578C18.3438 31.8008 18.3438 18.3438 18.3438 4.88672C19.2747 4.88672 20.2058 4.88672 21.1367 4.88672Z" fill="#8EFC92"/>
<path fill-rule="evenodd" clip-rule="evenodd" d="M56.4298 15.2988C53.8908 15.2988 51.3517 15.2988 48.8126 15.2988C48.8126 15.2566 48.8126 15.2142 48.8126 15.1719C49.3158 13.9517 48.9772 13.042 47.797 12.4424C46.4858 12.3789 45.174 12.3578 43.8615 12.3789C41.0258 12.3578 38.1906 12.3789 35.3556 12.4424C34.1747 13.0911 33.8361 14.0433 34.34 15.2988C31.9701 15.2988 29.6004 15.2988 27.2306 15.2988C27.1883 15.2988 27.1459 15.2988 27.1037 15.2988C27.0825 11.8708 27.1037 8.4431 27.1671 5.01563C27.2306 4.95215 27.2941 4.88868 27.3576 4.8252C37.006 4.74056 46.6544 4.74056 56.3029 4.8252C56.4292 8.307 56.4715 11.7982 56.4298 15.2988Z" fill="#6AAF64"/>
<path fill-rule="evenodd" clip-rule="evenodd" d="M35.6095 8.44152C38.3604 8.42037 41.1111 8.44152 43.8615 8.505C45.069 9.16328 45.3864 10.1154 44.8136 11.3614C44.504 11.7361 44.1443 12.0323 43.7345 12.2501C40.9412 12.2713 38.1482 12.2501 35.3556 12.1866C33.9874 11.3427 33.7547 10.2636 34.6574 8.94934C34.9313 8.69614 35.2487 8.52688 35.6095 8.44152Z" fill="#59FE60"/>
<path fill-rule="evenodd" clip-rule="evenodd" d="M35.6094 8.44185C39.5657 8.29408 43.5436 8.27292 47.543 8.37838C49.0695 9.0646 49.4291 10.1437 48.6221 11.6157C48.358 11.8218 48.083 12.0122 47.7969 12.187C46.4434 12.2504 45.0892 12.2716 43.7344 12.2504C44.1442 12.0326 44.5038 11.7364 44.8135 11.3618C45.3863 10.1158 45.0689 9.16361 43.8613 8.50533C41.111 8.44185 38.3603 8.4207 35.6094 8.44185Z" fill="#6CFC54"/>
<path fill-rule="evenodd" clip-rule="evenodd" d="M43.8627 12.379C45.0169 12.985 45.3555 13.8948 44.8784 15.1085C46.1895 15.172 47.5014 15.1931 48.8139 15.172C48.8139 15.2143 48.8139 15.2567 48.8139 15.2989C43.9897 15.2989 39.1655 15.2989 34.3413 15.2989C33.8374 14.0434 34.176 13.0912 35.3569 12.4425C38.1919 12.379 41.0271 12.3579 43.8627 12.379Z" fill="#6E6771"/>
<path fill-rule="evenodd" clip-rule="evenodd" d="M43.8633 12.379C45.1758 12.3579 46.4877 12.379 47.7988 12.4425C48.979 13.0421 49.3176 13.9518 48.8145 15.172C47.5019 15.1931 46.1901 15.172 44.8789 15.1085C45.356 13.8948 45.0174 12.985 43.8633 12.379Z" fill="#5B545F"/>
<path fill-rule="evenodd" clip-rule="evenodd" d="M27.2305 15.2969C29.6003 15.2969 31.97 15.2969 34.3398 15.2969C39.1641 15.2969 43.9883 15.2969 48.8125 15.2969C51.3516 15.2969 53.8906 15.2969 56.4297 15.2969C56.4297 15.9316 56.4297 16.5664 56.4297 17.2012C53.5944 17.2012 50.7591 17.2012 47.9238 17.2012C47.3313 17.2012 46.739 17.2012 46.1465 17.2012C46.1876 18.0713 46.1453 18.9177 46.0195 19.7402C46.0195 18.8938 46.0195 18.0476 46.0195 17.2012C44.9192 17.2012 43.8191 17.2012 42.7188 17.2012C42.1263 17.2012 41.5339 17.2012 40.9414 17.2012C40.9414 18.0476 40.9414 18.8938 40.9414 19.7402C40.8991 19.7402 40.8567 19.7402 40.8145 19.7402C40.8145 18.8938 40.8145 18.0476 40.8145 17.2012C39.7566 17.2012 38.6985 17.2012 37.6406 17.2012C37.0059 17.2012 36.3711 17.2012 35.7363 17.2012C32.923 17.0746 30.0877 17.0322 27.2305 17.0742C27.2305 16.4817 27.2305 15.8894 27.2305 15.2969Z" fill="#BFC6D0"/>
<path fill-rule="evenodd" clip-rule="evenodd" d="M27.1055 15.2969C27.1477 15.2969 27.1901 15.2969 27.2324 15.2969C27.2324 15.8894 27.2324 16.4817 27.2324 17.0742C30.0896 17.0322 32.925 17.0746 35.7383 17.2012C32.8606 17.2012 29.9831 17.2012 27.1055 17.2012C27.1055 16.5664 27.1055 15.9316 27.1055 15.2969Z" fill="#BCB5B3"/>
<path fill-rule="evenodd" clip-rule="evenodd" d="M27.1055 17.2031C29.9831 17.2031 32.8606 17.2031 35.7383 17.2031C35.7383 18.0495 35.7383 18.8958 35.7383 19.7422C36.373 19.7422 37.0078 19.7422 37.6426 19.7422C38.7005 19.7422 39.7585 19.7422 40.8164 19.7422C40.8164 19.7845 40.8164 19.8269 40.8164 19.8691C38.0657 19.8691 35.3151 19.8691 32.5645 19.8691C31.5057 19.8481 30.4478 19.8691 29.3906 19.9326C28.6835 20.7039 27.9218 21.4021 27.1055 22.0273C27.1055 20.4192 27.1055 18.8112 27.1055 17.2031Z" fill="#66B164"/>
<path fill-rule="evenodd" clip-rule="evenodd" d="M35.7383 17.2031C36.373 17.2031 37.0078 17.2031 37.6426 17.2031C37.6426 18.0495 37.6426 18.8958 37.6426 19.7422C37.0078 19.7422 36.373 19.7422 35.7383 19.7422C35.7383 18.8958 35.7383 18.0495 35.7383 17.2031Z" fill="#E8EDF1"/>
<path fill-rule="evenodd" clip-rule="evenodd" d="M37.6406 17.2031C38.6985 17.2031 39.7566 17.2031 40.8145 17.2031C40.8145 18.0495 40.8145 18.8958 40.8145 19.7422C39.7566 19.7422 38.6985 19.7422 37.6406 19.7422C37.6406 18.8958 37.6406 18.0495 37.6406 17.2031Z" fill="#6AAF64"/>
<path fill-rule="evenodd" clip-rule="evenodd" d="M42.7188 17.2031C42.7188 18.0495 42.7188 18.8958 42.7188 19.7422C42.1263 19.7422 41.5339 19.7422 40.9414 19.7422C40.9414 18.8958 40.9414 18.0495 40.9414 17.2031C41.5339 17.2031 42.1263 17.2031 42.7188 17.2031Z" fill="#E8EEF1"/>
<path fill-rule="evenodd" clip-rule="evenodd" d="M42.7207 17.2031C43.821 17.2031 44.9212 17.2031 46.0215 17.2031C46.0215 18.0495 46.0215 18.8958 46.0215 19.7422C46.0215 19.7845 46.0215 19.8269 46.0215 19.8691C45.302 19.8691 44.5827 19.8691 43.8633 19.8691C42.8477 19.8691 41.832 19.8691 40.8164 19.8691C40.8164 19.8269 40.8164 19.7845 40.8164 19.7422C40.8587 19.7422 40.9011 19.7422 40.9434 19.7422C41.5358 19.7422 42.1282 19.7422 42.7207 19.7422C42.7207 18.8958 42.7207 18.0495 42.7207 17.2031Z" fill="#68B167"/>
<path fill-rule="evenodd" clip-rule="evenodd" d="M47.9238 17.2031C47.9238 18.0918 47.9238 18.9805 47.9238 19.8691C47.2891 19.8691 46.6543 19.8691 46.0195 19.8691C46.0195 19.8269 46.0195 19.7845 46.0195 19.7422C46.1453 18.9197 46.1876 18.0733 46.1465 17.2031C46.739 17.2031 47.3313 17.2031 47.9238 17.2031Z" fill="#E8ECEE"/>
<path fill-rule="evenodd" clip-rule="evenodd" d="M47.9258 17.2031C50.761 17.2031 53.5964 17.2031 56.4316 17.2031C56.4316 18.7688 56.4316 20.3347 56.4316 21.9004C55.6537 21.2711 54.892 20.6151 54.1465 19.9326C52.5587 19.8276 50.993 19.8488 49.4492 19.9961C48.9541 19.878 48.4463 19.8358 47.9258 19.8691C47.9258 18.9805 47.9258 18.0918 47.9258 17.2031Z" fill="#64AE67"/>
<path fill-rule="evenodd" clip-rule="evenodd" d="M32.5645 19.8673C32.7782 22.2181 34.0688 23.4876 36.4365 23.6759C39.0705 23.7278 40.5305 22.4583 40.8164 19.8673C41.832 19.8673 42.8477 19.8673 43.8633 19.8673C45.7427 21.6404 47.647 23.3967 49.5762 25.1358C50.1324 25.6494 50.6402 26.1994 51.0996 26.7862C49.8838 28.3413 48.572 29.8224 47.1641 31.2296C46.9948 31.3143 46.8255 31.3143 46.6562 31.2296C46.0174 30.5482 45.3404 29.9135 44.625 29.3253C44.3786 29.231 44.1459 29.2522 43.9268 29.3888C43.8845 32.9012 43.8421 36.4135 43.7998 39.9259C43.7088 39.9949 43.6453 40.0796 43.6094 40.1798C38.9965 40.201 34.3839 40.1798 29.7715 40.1163C29.708 40.0528 29.6445 39.9893 29.5811 39.9259C29.5388 36.4559 29.4964 32.9857 29.4541 29.5157C29.1641 29.2004 28.8468 29.1792 28.502 29.4522C28.0106 29.9222 27.5451 30.409 27.1055 30.9122C26.9046 31.0869 26.6719 31.2138 26.4072 31.2931C25.9856 30.9772 25.5836 30.6386 25.2012 30.2774C24.656 29.5628 24.0635 28.8856 23.4238 28.2462C23.4238 28.1615 23.3816 28.1192 23.2969 28.1192C22.909 27.7318 22.5704 27.3086 22.2812 26.8497C22.3091 26.6671 22.3725 26.4979 22.4717 26.3419C22.8099 26.1517 23.0849 25.8978 23.2969 25.5802C23.3816 25.5802 23.4238 25.5379 23.4238 25.4532C24.0215 24.9019 24.614 24.3518 25.2012 23.8028C25.8654 23.2386 26.5002 22.6463 27.1055 22.0255C27.9218 21.4002 28.6835 20.702 29.3906 19.9308C30.4478 19.8673 31.5057 19.8462 32.5645 19.8673Z" fill="#6BFD5E"/>
<path fill-rule="evenodd" clip-rule="evenodd" d="M32.5625 19.8672C35.3132 19.8672 38.0638 19.8672 40.8145 19.8672C40.5286 22.4582 39.0686 23.7277 36.4346 23.6758C34.0669 23.4875 32.7763 22.218 32.5625 19.8672Z" fill="#50D43B"/>
<path fill-rule="evenodd" clip-rule="evenodd" d="M43.8633 19.8665C44.5827 19.8665 45.302 19.8665 46.0215 19.8665C46.6562 19.8665 47.291 19.8665 47.9258 19.8665C48.4463 19.8331 48.9541 19.8754 49.4492 19.9935C51.7304 22.1687 54.0368 24.3269 56.3682 26.4681C56.4528 26.6797 56.4528 26.8912 56.3682 27.1028C55.8176 27.7591 55.2463 28.3938 54.6543 29.0071C54.4559 29.1906 54.2866 29.4021 54.1465 29.6419C53.5465 30.2001 52.954 30.7503 52.3691 31.2923C51.5173 30.7591 50.7556 30.1031 50.084 29.3245C49.7634 29.2108 49.4883 29.2743 49.2588 29.515C49.2366 33.0788 49.1731 36.6335 49.0684 40.179C47.2487 40.179 45.429 40.179 43.6094 40.179C43.6453 40.0789 43.7088 39.9942 43.7998 39.9251C43.8421 36.4127 43.8845 32.9004 43.9268 29.388C44.1459 29.2514 44.3786 29.2302 44.625 29.3245C45.3404 29.9127 46.0174 30.5475 46.6562 31.2288C46.8255 31.3135 46.9948 31.3135 47.1641 31.2288C48.572 29.8217 49.8838 28.3405 51.0996 26.7855C50.6402 26.1987 50.1324 25.6486 49.5762 25.1351C47.647 23.3959 45.7427 21.6397 43.8633 19.8665Z" fill="#59FE60"/>
<path fill-rule="evenodd" clip-rule="evenodd" d="M56.4316 21.9005C56.9866 22.5826 57.6213 23.175 58.3359 23.6778C59.2975 24.7086 60.3131 25.6818 61.3828 26.5977C61.3828 26.7247 61.3828 26.8517 61.3828 26.9786C60.324 28.0374 59.3084 29.1377 58.3359 30.2794C58.0693 30.61 57.7732 30.9274 57.4473 31.2315C57.1502 31.3265 56.8963 31.263 56.6855 31.0411C56.6433 30.9142 56.5586 30.8295 56.4316 30.7872C55.8295 30.1928 55.2371 29.6003 54.6543 29.0099C55.2463 28.3965 55.8176 27.7618 56.3682 27.1056C56.4528 26.8939 56.4528 26.6824 56.3682 26.4708C54.0368 24.3296 51.7304 22.1714 49.4492 19.9962C50.993 19.8489 52.5587 19.8277 54.1465 19.9327C54.892 20.6152 55.6537 21.2712 56.4316 21.9005Z" fill="#6E6670"/>
<path fill-rule="evenodd" clip-rule="evenodd" d="M61.3828 26.9766C61.4248 39.6385 61.3826 52.2915 61.2559 64.9355C59.9863 64.9355 58.7168 64.9355 57.4473 64.9355C57.4473 63.8352 57.4473 62.7351 57.4473 61.6348C49.6817 61.6769 41.9375 61.6346 34.2148 61.5078C42.0861 61.529 49.9572 61.5078 57.8281 61.4443C58.0608 61.3809 58.209 61.2327 58.2725 61C58.3571 57.6992 58.3571 54.3984 58.2725 51.0977C58.0837 50.7803 57.8086 50.5688 57.4473 50.4629C57.4473 49.3626 57.4473 48.2624 57.4473 47.1621C57.798 47.1311 58.073 46.9619 58.2725 46.6543C58.3359 41.1954 58.3571 35.7365 58.3359 30.2773C59.3084 29.1357 60.324 28.0354 61.3828 26.9766Z" fill="#92F190"/>
<path fill-rule="evenodd" clip-rule="evenodd" d="M23.2951 28.1211C23.3798 28.1211 23.422 28.1634 23.422 28.248C23.3374 34.2995 23.2528 40.3509 23.1681 46.4023C23.126 40.287 23.1683 34.1933 23.2951 28.1211Z" fill="#94F292"/>
<path fill-rule="evenodd" clip-rule="evenodd" d="M54.6543 29.0078C55.2371 29.5983 55.8295 30.1908 56.4316 30.7852C56.4316 35.5671 56.4316 40.3489 56.4316 45.1309C46.7198 45.2789 36.9867 45.3 27.2324 45.1943C27.106 40.4429 27.0636 35.6821 27.1055 30.9121C27.5451 30.4089 28.0106 29.9221 28.5019 29.4521C28.8468 29.1791 29.1641 29.2003 29.4541 29.5156C29.4964 32.9856 29.5388 36.4558 29.581 39.9258C29.6445 39.9893 29.708 40.0527 29.7715 40.1162C34.3839 40.1797 38.9965 40.2009 43.6094 40.1797C45.429 40.1797 47.2487 40.1797 49.0684 40.1797C50.677 40.2009 52.2851 40.1797 53.8926 40.1162C53.956 40.0527 54.0195 39.9893 54.083 39.9258C54.1465 36.4983 54.1677 33.0706 54.1465 29.6426C54.2866 29.4028 54.4559 29.1913 54.6543 29.0078Z" fill="#6AAF64"/>
<path fill-rule="evenodd" clip-rule="evenodd" d="M54.1445 29.6417C54.1657 33.0697 54.1445 36.4974 54.0811 39.9249C54.0176 39.9884 53.9541 40.0518 53.8906 40.1153C52.2831 40.1788 50.675 40.2 49.0664 40.1788C49.1711 36.6332 49.2346 33.0785 49.2568 29.5147C49.4864 29.274 49.7615 29.2105 50.082 29.3243C50.7536 30.1029 51.5153 30.7589 52.3672 31.2921C52.9521 30.7501 53.5446 30.1999 54.1445 29.6417Z" fill="#6F676F"/>
<path fill-rule="evenodd" clip-rule="evenodd" d="M25.1994 30.2773C25.5817 30.6385 25.9838 30.9771 26.4054 31.293C26.6701 31.2137 26.9028 31.0868 27.1037 30.9121C27.0618 35.6821 27.1042 40.4429 27.2306 45.1943C36.9849 45.3 46.718 45.2789 56.4298 45.1309C56.5145 40.4336 56.5991 35.7363 56.6837 31.0391C56.8945 31.261 57.1484 31.3245 57.4455 31.2295C57.7713 30.9253 58.0675 30.6079 58.3341 30.2773C58.3553 35.7365 58.3341 41.1954 58.2706 46.6543C58.0712 46.9619 57.7962 47.1311 57.4455 47.1621C46.8133 47.2248 36.1916 47.1613 25.5802 46.9717C25.4583 46.7915 25.3526 46.6011 25.2628 46.4004C25.1994 41.0262 25.1782 35.6519 25.1994 30.2773Z" fill="#A7E97E"/>
<path fill-rule="evenodd" clip-rule="evenodd" d="M56.4297 30.7852C56.5566 30.8274 56.6413 30.9121 56.6836 31.0391C56.5989 35.7363 56.5144 40.4336 56.4297 45.1309C56.4297 40.3489 56.4297 35.5671 56.4297 30.7852Z" fill="#DAB078"/>
<path fill-rule="evenodd" clip-rule="evenodd" d="M7.17188 50.4644C15.0927 50.4023 23.0061 50.4658 30.9121 50.6549C31.1025 50.7606 31.2507 50.9088 31.3564 51.0992C31.4411 54.4 31.4411 57.7008 31.3564 61.0015C31.2507 61.192 31.1025 61.3401 30.9121 61.4459C22.9563 61.5306 15.0007 61.5306 7.04493 61.4459C6.81218 61.3824 6.66407 61.2342 6.60059 61.0015C6.51595 57.7008 6.51595 54.4 6.60059 51.0992C6.75207 50.8457 6.9425 50.634 7.17188 50.4644Z" fill="#73AF64"/>
<path fill-rule="evenodd" clip-rule="evenodd" d="M57.4453 50.465C57.8067 50.5709 58.0818 50.7824 58.2705 51.0997C58.3552 54.4005 58.3552 57.7013 58.2705 61.0021C58.2071 61.2348 58.0589 61.383 57.8262 61.4464C49.9552 61.5099 42.0841 61.5311 34.2129 61.5099C33.8931 61.4657 33.6603 61.2965 33.5147 61.0021C33.43 57.7013 33.43 54.4005 33.5147 51.0997C33.6628 50.867 33.8533 50.6766 34.086 50.5285C41.8723 50.465 49.6588 50.4438 57.4453 50.465Z" fill="#73AF64"/>
<path fill-rule="evenodd" clip-rule="evenodd" d="M8.56975 52.3673C15.51 52.3461 22.45 52.3673 29.3901 52.4308C29.5372 54.8124 29.5583 57.2034 29.4535 59.6037C22.5012 59.7514 15.54 59.7726 8.56975 59.6671C8.40123 57.2338 8.40123 54.8006 8.56975 52.3673Z" fill="#8CE97D"/>
<path fill-rule="evenodd" clip-rule="evenodd" d="M35.4838 52.3673C42.424 52.3461 49.3641 52.3673 56.3041 52.4308C56.4512 54.8124 56.4723 57.2034 56.3676 59.6037C49.4152 59.7514 42.454 59.7726 35.4838 59.6671C35.3153 57.2338 35.3153 54.8006 35.4838 52.3673Z" fill="#8CE97D"/>
<path fill-rule="evenodd" clip-rule="evenodd" d="M17.9634 55.0326C18.6527 54.9895 19.3299 55.053 19.9946 55.223C20.362 55.5923 20.4678 56.0366 20.312 56.556C20.1974 56.7085 20.0493 56.8144 19.8677 56.8734C19.1482 56.9581 18.4289 56.9581 17.7095 56.8734C16.9794 56.1447 17.0639 55.5311 17.9634 55.0326Z" fill="#6AB064"/>
<path fill-rule="evenodd" clip-rule="evenodd" d="M45.0048 55.0326C45.6942 54.9895 46.3714 55.053 47.0361 55.223C47.7131 55.7731 47.7131 56.3233 47.0361 56.8734C46.2744 56.9581 45.5126 56.9581 44.7509 56.8734C44.1865 56.1621 44.2712 55.5485 45.0048 55.0326Z" fill="#64B16C"/>
</g>
<defs>
<clipPath id="clip0_662_5801">
<rect width="65" height="65" fill="white"/>
</clipPath>
</defs>
</svg>
