<svg width="65" height="65" viewBox="0 0 65 65" fill="none" xmlns="http://www.w3.org/2000/svg">
<g clip-path="url(#clip0_665_7197)">
<path opacity="0.991" fill-rule="evenodd" clip-rule="evenodd" d="M7.93457 -0.0625C11.32 -0.0625 14.7054 -0.0625 18.0908 -0.0625C18.112 2.30766 18.0908 4.67746 18.0273 7.04688C17.5042 8.71253 16.3827 9.70699 14.6631 10.0303C12.4206 10.0937 10.1778 10.1149 7.93457 10.0938C7.93457 6.70833 7.93457 3.32292 7.93457 -0.0625Z" fill="#01BA9E"/>
<path fill-rule="evenodd" clip-rule="evenodd" d="M18.0908 -0.0625C22.8728 -0.0625 27.6546 -0.0625 32.4365 -0.0625C32.4365 6.70833 32.4365 13.4792 32.4365 20.25C29.3514 20.7317 28.0607 22.509 28.5645 25.582C29.2725 27.3275 30.5632 28.2586 32.4365 28.375C32.4365 29.4329 32.4365 30.4909 32.4365 31.5488C31.672 29.3274 30.1063 28.2907 27.7393 28.4385C25.1375 29.1365 24.0584 30.8079 24.502 33.4531C25.2861 35.7182 26.8731 36.7126 29.2627 36.4365C30.8919 35.9922 31.9287 34.9554 32.373 33.3262C32.4365 34.3833 32.4576 35.4412 32.4365 36.5C30.3643 36.625 29.0525 37.6831 28.501 39.6738C28.4163 39.6316 28.3317 39.5892 28.2471 39.5469C27.4756 37.2353 25.8675 36.2409 23.4229 36.5635C20.8543 37.4893 19.9022 39.2879 20.5664 41.959C21.9327 44.5558 23.9427 45.2118 26.5967 43.9268C27.5144 43.2985 28.0645 42.4309 28.2471 41.3242C28.3317 41.2395 28.4163 41.155 28.501 41.0703C28.9246 43.2286 30.2364 44.4135 32.4365 44.625C32.4365 51.3958 32.4365 58.1667 32.4365 64.9375C27.6546 64.9375 22.8728 64.9375 18.0908 64.9375C18.112 62.5673 18.0908 60.1976 18.0273 57.8281C17.4889 56.1051 16.3253 55.1106 14.5361 54.8447C12.336 54.7812 10.1355 54.76 7.93457 54.7812C7.93457 39.8855 7.93457 24.9895 7.93457 10.0938C10.1778 10.1149 12.4206 10.0937 14.6631 10.0303C16.3827 9.70699 17.5042 8.71253 18.0273 7.04688C18.0908 4.67746 18.112 2.30766 18.0908 -0.0625Z" fill="#8FE98F"/>
<path opacity="0.997" fill-rule="evenodd" clip-rule="evenodd" d="M32.4368 -0.0625C37.2187 -0.0625 42.0005 -0.0625 46.7825 -0.0625C46.7613 2.30766 46.7825 4.67746 46.8459 7.04688C47.3557 8.65678 48.4348 9.65125 50.0832 10.0303C52.368 10.0937 54.6532 10.1149 56.9387 10.0938C56.9387 24.9895 56.9387 39.8855 56.9387 54.7812C54.6532 54.76 52.368 54.7812 50.0832 54.8447C48.4348 55.2238 47.3557 56.2182 46.8459 57.8281C46.7825 60.1976 46.7613 62.5673 46.7825 64.9375C42.0005 64.9375 37.2187 64.9375 32.4368 64.9375C32.4368 58.1667 32.4368 51.3958 32.4368 44.625C32.4368 44.5827 32.4368 44.5403 32.4368 44.498C33.9702 44.5459 35.134 43.9111 35.928 42.5938C36.0825 42.1502 36.2729 41.727 36.4993 41.3242C37.417 43.9834 39.2366 44.9779 41.9582 44.3076C44.1694 43.206 44.9523 41.4499 44.3069 39.0391C43.3178 37.0949 41.7309 36.2697 39.5461 36.5635C38.0015 37.0925 36.9648 38.1292 36.4358 39.6738C35.8345 37.6913 34.5015 36.6334 32.4368 36.5C32.4578 35.4412 32.4368 34.3833 32.3733 33.3262C31.9289 34.9554 30.8921 35.9922 29.2629 36.4365C26.8733 36.7126 25.2864 35.7182 24.5022 33.4531C24.0586 30.8079 25.1377 29.1365 27.7395 28.4385C30.1065 28.2907 31.6722 29.3274 32.4368 31.5488C32.4368 30.4909 32.4368 29.4329 32.4368 28.375C34.9257 28.1712 36.2799 26.817 36.4993 24.3125C36.205 21.9023 34.8508 20.5482 32.4368 20.25C32.4368 13.4792 32.4368 6.70833 32.4368 -0.0625Z" fill="#00B99E"/>
<path opacity="0.991" fill-rule="evenodd" clip-rule="evenodd" d="M46.7824 -0.0625C50.1678 -0.0625 53.5532 -0.0625 56.9386 -0.0625C56.9386 3.32292 56.9386 6.70833 56.9386 10.0938C54.6531 10.1149 52.3679 10.0937 50.0831 10.0303C48.4347 9.65125 47.3556 8.65678 46.8458 7.04688C46.7824 4.67746 46.7612 2.30766 46.7824 -0.0625Z" fill="#008475"/>
<path fill-rule="evenodd" clip-rule="evenodd" d="M-0.0634766 3.74609C1.20605 3.74609 2.47559 3.74609 3.74512 3.74609C3.74512 22.8737 3.74512 42.0013 3.74512 61.1289C2.47559 61.1289 1.20605 61.1289 -0.0634766 61.1289C-0.0634766 42.0013 -0.0634766 22.8737 -0.0634766 3.74609Z" fill="#C8885A"/>
<path fill-rule="evenodd" clip-rule="evenodd" d="M64.9365 3.74609C64.9365 22.8737 64.9365 42.0013 64.9365 61.1289C63.667 61.1289 62.3975 61.1289 61.1279 61.1289C61.1279 42.0013 61.1279 22.8737 61.1279 3.74609C62.3975 3.74609 63.667 3.74609 64.9365 3.74609Z" fill="#9F5F4A"/>
<path fill-rule="evenodd" clip-rule="evenodd" d="M32.4361 20.25C32.4361 22.9583 32.4361 25.6667 32.4361 28.375C30.5628 28.2586 29.2721 27.3275 28.5641 25.582C28.0603 22.509 29.3511 20.7317 32.4361 20.25Z" fill="#03BA9E"/>
<path fill-rule="evenodd" clip-rule="evenodd" d="M32.4365 20.25C34.8505 20.5482 36.2047 21.9023 36.499 24.3125C36.2796 26.817 34.9254 28.1712 32.4365 28.375C32.4365 25.6667 32.4365 22.9583 32.4365 20.25Z" fill="#008475"/>
<path fill-rule="evenodd" clip-rule="evenodd" d="M32.4361 31.5495C33.2204 29.2723 34.8285 28.2355 37.2603 28.4391C40.2242 29.5214 41.134 31.5316 39.9898 34.4694C38.9821 35.9993 37.5644 36.6553 35.7369 36.4372C33.332 35.7161 32.2318 34.0869 32.4361 31.5495Z" fill="#008475"/>
<path fill-rule="evenodd" clip-rule="evenodd" d="M28.2467 39.5466C28.4043 40.1403 28.4043 40.7327 28.2467 41.3239C28.0641 42.4306 27.5141 43.2982 26.5963 43.9264C23.9424 45.2115 21.9323 44.5555 20.566 41.9587C19.9018 39.2876 20.854 37.489 23.4225 36.5632C25.8671 36.2406 27.4752 37.235 28.2467 39.5466Z" fill="#02BA9E"/>
<path fill-rule="evenodd" clip-rule="evenodd" d="M32.4365 36.5C32.4365 39.166 32.4365 41.832 32.4365 44.498C32.4365 44.5403 32.4365 44.5827 32.4365 44.625C30.2364 44.4135 28.9246 43.2286 28.501 41.0703C28.501 40.6048 28.501 40.1394 28.501 39.6738C29.0525 37.6831 30.3643 36.625 32.4365 36.5Z" fill="#02BA9E"/>
<path fill-rule="evenodd" clip-rule="evenodd" d="M32.4365 36.5C34.5013 36.6334 35.8343 37.6913 36.4355 39.6738C36.9646 38.1292 38.0013 37.0925 39.5459 36.5635C41.7306 36.2697 43.3175 37.0949 44.3066 39.0391C44.9521 41.4499 44.1692 43.206 41.958 44.3076C39.2364 44.9779 37.4168 43.9834 36.499 41.3242C36.2727 41.727 36.0822 42.1502 35.9277 42.5938C35.1338 43.9111 33.97 44.5459 32.4365 44.498C32.4365 41.832 32.4365 39.166 32.4365 36.5Z" fill="#008475"/>
<path fill-rule="evenodd" clip-rule="evenodd" d="M28.2471 39.5469C28.3317 39.5892 28.4163 39.6316 28.501 39.6738C28.501 40.1394 28.501 40.6048 28.501 41.0703C28.4163 41.155 28.3317 41.2395 28.2471 41.3242C28.4046 40.733 28.4046 40.1406 28.2471 39.5469Z" fill="#2EC79A"/>
<path opacity="0.991" fill-rule="evenodd" clip-rule="evenodd" d="M7.93457 54.7814C10.1355 54.7602 12.336 54.7814 14.5361 54.8449C16.3253 55.1107 17.4889 56.1053 18.0273 57.8283C18.0908 60.1977 18.112 62.5674 18.0908 64.9376C14.7054 64.9376 11.32 64.9376 7.93457 64.9376C7.93457 61.5522 7.93457 58.1668 7.93457 54.7814Z" fill="#01BA9E"/>
<path opacity="0.991" fill-rule="evenodd" clip-rule="evenodd" d="M56.9386 54.7814C56.9386 58.1668 56.9386 61.5522 56.9386 64.9376C53.5532 64.9376 50.1678 64.9376 46.7824 64.9376C46.7612 62.5674 46.7824 60.1977 46.8458 57.8283C47.3556 56.2184 48.4347 55.2239 50.0831 54.8449C52.3679 54.7814 54.6531 54.7602 56.9386 54.7814Z" fill="#008475"/>
</g>
<defs>
<clipPath id="clip0_665_7197">
<rect width="65" height="65" fill="white"/>
</clipPath>
</defs>
</svg>
