<svg width="636" height="440" viewBox="0 0 636 440" fill="none" xmlns="http://www.w3.org/2000/svg">
<path d="M33.7584 26V37C33.7584 41.406 36.0068 45 38.7632 45H39.3888C39.731 45 40.0144 44.547 40.0144 44V42C40.0144 41.453 39.731 41 39.3888 41H38.7632C37.385 41 36.2608 39.203 36.2608 37V36.5C36.2608 35.672 36.6812 35 37.1992 35H39.3888C40.4248 35 41.2656 33.656 41.2656 32V26C41.2656 24.344 40.4248 23 39.3888 23H35.6352C34.5992 23 33.7584 24.344 33.7584 26ZM25 26V37C25 41.406 27.2484 45 30.0048 45H30.6304C30.9726 45 31.256 44.547 31.256 44V42C31.256 41.453 30.9726 41 30.6304 41H30.0048C28.6266 41 27.5024 39.203 27.5024 37V36.5C27.5024 35.672 27.9228 35 28.4408 35H30.6304C31.6664 35 32.5072 33.656 32.5072 32V26C32.5072 24.344 31.6664 23 30.6304 23H26.8768C25.8408 23 25 24.344 25 26Z" fill="#8B9F2C" fill-opacity="0.78"/>
<path d="M603.507 309V320C603.507 324.406 601.259 328 598.502 328H597.877C597.535 328 597.251 327.547 597.251 327V325C597.251 324.453 597.535 324 597.877 324H598.502C599.881 324 601.005 322.203 601.005 320V319.5C601.005 318.672 600.584 318 600.066 318H597.877C596.841 318 596 316.656 596 315V309C596 307.344 596.841 306 597.877 306H601.63C602.666 306 603.507 307.344 603.507 309ZM612.266 309V320C612.266 324.406 610.017 328 607.261 328H606.635C606.293 328 606.01 327.547 606.01 327V325C606.01 324.453 606.293 324 606.635 324H607.261C608.639 324 609.763 322.203 609.763 320V319.5C609.763 318.672 609.343 318 608.825 318H606.635C605.599 318 604.758 316.656 604.758 315V309C604.758 307.344 605.599 306 606.635 306H610.389C611.425 306 612.266 307.344 612.266 309Z" fill="#8B9F2C" fill-opacity="0.78"/>
<path opacity="0.3" d="M-7 339.663L879 339.663" stroke="black" stroke-dasharray="5 5"/>
</svg>
