<svg width="342" height="314" viewBox="0 0 342 314" fill="none" xmlns="http://www.w3.org/2000/svg">
<g clip-path="url(#clip0_42_614)">
<path d="M-105 309.5C-365.678 309.5 -3.49966 268.684 -3.49966 121.5C-4.99966 -23.9997 -96.0002 -2.50008 129.5 0.999935C380.677 0.999935 347.423 -121.724 344.665 1C344.561 5.64219 344.5 10.6356 344.5 16.0001C344.5 27.1525 343.911 38.5239 342.673 50C340.921 66.2315 337.868 82.6725 333.339 99C327.976 118.338 320.542 137.517 310.748 156C300.425 175.483 287.479 194.192 271.57 211.5C250.179 234.772 223.431 255.51 190.5 272.185C164.239 285.483 134.045 296.197 99.5 303.553C43.4057 315.497 -24.1626 318.585 -105 309.5Z" fill="url(#paint0_linear_42_614)"/>
</g>
<defs>
<linearGradient id="paint0_linear_42_614" x1="-763.499" y1="363.908" x2="-269.873" y2="-371.269" gradientUnits="userSpaceOnUse">
<stop stop-color="#8B9F2C"/>
<stop offset="1" stop-color="#1B9A9D" stop-opacity="0"/>
</linearGradient>
<clipPath id="clip0_42_614">
<rect width="342" height="315" fill="white"/>
</clipPath>
</defs>
</svg>
