<svg width="223" height="70" viewBox="0 0 223 70" fill="none" xmlns="http://www.w3.org/2000/svg">
<g filter="url(#filter0_dd_42_635)">
<g clip-path="url(#clip0_42_635)">
<rect x="5" y="1" width="213" height="60" rx="8" fill="white" fill-opacity="0.01" shape-rendering="crispEdges"/>
<g filter="url(#filter1_d_42_635)">
<rect x="11.9166" y="6" width="196.814" height="46" rx="10" fill="#8B9F2C"/>
<g clip-path="url(#clip1_42_635)">
<path d="M31.2614 17.604L33.9693 26.2563H42.732L35.6428 31.6037L38.3506 40.256L31.2614 34.9086L24.1722 40.256L26.8801 31.6037L19.7909 26.2563H28.5536L31.2614 17.604Z" fill="#101117"/>
</g>
<g clip-path="url(#clip2_42_635)">
<path d="M70.0206 17.604L72.7284 26.2563H81.4911L74.4019 31.6037L77.1098 40.256L70.0206 34.9086L62.9314 40.256L65.6392 31.6037L58.55 26.2563H67.3127L70.0206 17.604Z" fill="#101117"/>
</g>
<g clip-path="url(#clip3_42_635)">
<path d="M108.639 18.082L111.346 26.7343H120.109L113.02 32.0817L115.728 40.7341L108.639 35.3866L101.549 40.7341L104.257 32.0817L97.1681 26.7343H105.931L108.639 18.082Z" fill="#101117"/>
</g>
<g clip-path="url(#clip4_42_635)">
<path d="M147.539 17.604L150.246 26.2563H159.009L151.92 31.6037L154.628 40.256L147.539 34.9086L140.449 40.256L143.157 31.6037L136.068 26.2563H144.831L147.539 17.604Z" fill="#101117"/>
</g>
<g clip-path="url(#clip5_42_635)">
<path d="M186.298 17.604L189.006 26.2563H197.768L190.679 31.6037L193.387 40.256L186.298 34.9086L179.209 40.256L181.916 31.6037L174.827 26.2563H183.59L186.298 17.604Z" fill="#101117"/>
</g>
</g>
</g>
<rect x="6" y="2" width="211" height="58" rx="7" stroke="#EEEEEE" stroke-width="2" shape-rendering="crispEdges"/>
</g>
<defs>
<filter id="filter0_dd_42_635" x="0" y="0" width="223" height="70" filterUnits="userSpaceOnUse" color-interpolation-filters="sRGB">
<feFlood flood-opacity="0" result="BackgroundImageFix"/>
<feColorMatrix in="SourceAlpha" type="matrix" values="0 0 0 0 0 0 0 0 0 0 0 0 0 0 0 0 0 0 127 0" result="hardAlpha"/>
<feMorphology radius="1" operator="erode" in="SourceAlpha" result="effect1_dropShadow_42_635"/>
<feOffset dy="2"/>
<feGaussianBlur stdDeviation="2"/>
<feComposite in2="hardAlpha" operator="out"/>
<feColorMatrix type="matrix" values="0 0 0 0 0 0 0 0 0 0 0 0 0 0 0 0 0 0 0.06 0"/>
<feBlend mode="normal" in2="BackgroundImageFix" result="effect1_dropShadow_42_635"/>
<feColorMatrix in="SourceAlpha" type="matrix" values="0 0 0 0 0 0 0 0 0 0 0 0 0 0 0 0 0 0 127 0" result="hardAlpha"/>
<feMorphology radius="1" operator="erode" in="SourceAlpha" result="effect2_dropShadow_42_635"/>
<feOffset dy="4"/>
<feGaussianBlur stdDeviation="3"/>
<feComposite in2="hardAlpha" operator="out"/>
<feColorMatrix type="matrix" values="0 0 0 0 0 0 0 0 0 0 0 0 0 0 0 0 0 0 0.1 0"/>
<feBlend mode="normal" in2="effect1_dropShadow_42_635" result="effect2_dropShadow_42_635"/>
<feBlend mode="normal" in="SourceGraphic" in2="effect2_dropShadow_42_635" result="shape"/>
</filter>
<filter id="filter1_d_42_635" x="0.597046" y="-11" width="221.893" height="75" filterUnits="userSpaceOnUse" color-interpolation-filters="sRGB">
<feFlood flood-opacity="0" result="BackgroundImageFix"/>
<feColorMatrix in="SourceAlpha" type="matrix" values="0 0 0 0 0 0 0 0 0 0 0 0 0 0 0 0 0 0 127 0" result="hardAlpha"/>
<feOffset dy="4"/>
<feGaussianBlur stdDeviation="2"/>
<feComposite in2="hardAlpha" operator="out"/>
<feColorMatrix type="matrix" values="0 0 0 0 0 0 0 0 0 0 0 0 0 0 0 0 0 0 0.25 0"/>
<feBlend mode="normal" in2="BackgroundImageFix" result="effect1_dropShadow_42_635"/>
<feBlend mode="normal" in="SourceGraphic" in2="effect1_dropShadow_42_635" result="shape"/>
</filter>
<clipPath id="clip0_42_635">
<rect x="5" y="1" width="213" height="60" rx="8" fill="white"/>
</clipPath>
<clipPath id="clip1_42_635">
<rect width="24" height="22.9565" fill="white" transform="translate(18.7747 17.522)"/>
</clipPath>
<clipPath id="clip2_42_635">
<rect width="24" height="22.9565" fill="white" transform="translate(57.5338 17.522)"/>
</clipPath>
<clipPath id="clip3_42_635">
<rect width="24" height="22.9565" fill="white" transform="translate(96.1519 18)"/>
</clipPath>
<clipPath id="clip4_42_635">
<rect width="24" height="22.9565" fill="white" transform="translate(135.052 17.522)"/>
</clipPath>
<clipPath id="clip5_42_635">
<rect width="24" height="22.9565" fill="white" transform="translate(173.811 17.522)"/>
</clipPath>
</defs>
</svg>
