<svg width="473" height="504" viewBox="0 0 473 504" fill="none" xmlns="http://www.w3.org/2000/svg">
<path d="M208.283 425.689C208.283 468.595 154.43 503.377 88 503.377C88 503.377 88.0008 468.595 88.0008 425.689C88.0008 382.782 88 348 88 348C154.43 348 208.283 382.782 208.283 425.689Z" fill="#FF9900" fill-opacity="0.5"/>
<ellipse cx="2.69253" cy="2.09419" rx="2.69253" ry="2.09419" transform="matrix(-0.804389 0.594103 -0.804389 -0.594103 63.7314 316.592)" fill="#00FF01" fill-opacity="0.2"/>
<ellipse cx="2.69253" cy="2.09419" rx="2.69253" ry="2.09419" transform="matrix(-0.804389 0.594103 -0.804389 -0.594103 53.5215 316.582)" fill="#00FF01" fill-opacity="0.2"/>
<ellipse cx="2.69253" cy="2.09419" rx="2.69253" ry="2.09419" transform="matrix(-0.804389 0.594103 -0.804389 -0.594103 43.3115 316.573)" fill="#00FF01" fill-opacity="0.2"/>
<ellipse cx="2.69253" cy="2.09419" rx="2.69253" ry="2.09419" transform="matrix(-0.804389 0.594103 -0.804389 -0.594103 33.1025 316.563)" fill="#00FF01" fill-opacity="0.2"/>
<ellipse cx="2.69253" cy="2.39336" rx="2.69253" ry="2.39336" transform="matrix(-0.804389 0.594103 -0.804389 -0.594103 73.8271 325.322)" fill="#00FF01" fill-opacity="0.2"/>
<ellipse cx="2.69253" cy="2.09419" rx="2.69253" ry="2.09419" transform="matrix(-0.804389 0.594103 -0.804389 -0.594103 63.7168 325.138)" fill="#00FF01" fill-opacity="0.2"/>
<ellipse cx="2.69253" cy="2.09419" rx="2.69253" ry="2.09419" transform="matrix(-0.804389 0.594103 -0.804389 -0.594103 53.5078 325.128)" fill="#00FF01" fill-opacity="0.2"/>
<ellipse cx="2.69253" cy="2.09419" rx="2.69253" ry="2.09419" transform="matrix(-0.804389 0.594103 -0.804389 -0.594103 43.2979 325.12)" fill="#00FF01" fill-opacity="0.2"/>
<ellipse cx="2.69253" cy="2.09419" rx="2.69253" ry="2.09419" transform="matrix(-0.804389 0.594103 -0.804389 -0.594103 33.0879 325.111)" fill="#00FF01" fill-opacity="0.2"/>
<ellipse cx="2.69253" cy="2.39336" rx="2.69253" ry="2.39336" transform="matrix(-0.804389 0.594103 -0.804389 -0.594103 23.459 325.279)" fill="#00FF01" fill-opacity="0.2"/>
<ellipse cx="2.69253" cy="2.39336" rx="2.69253" ry="2.39336" transform="matrix(-0.804389 0.594103 -0.804389 -0.594103 73.8145 333.367)" fill="#00FF01" fill-opacity="0.2"/>
<ellipse cx="2.69253" cy="2.09419" rx="2.69253" ry="2.09419" transform="matrix(-0.804389 0.594103 -0.804389 -0.594103 63.7041 333.181)" fill="#00FF01" fill-opacity="0.2"/>
<ellipse cx="2.69253" cy="2.09419" rx="2.69253" ry="2.09419" transform="matrix(-0.804389 0.594103 -0.804389 -0.594103 53.4951 333.173)" fill="#00FF01" fill-opacity="0.2"/>
<ellipse cx="2.69253" cy="2.09419" rx="2.69253" ry="2.09419" transform="matrix(-0.804389 0.594103 -0.804389 -0.594103 43.2852 333.164)" fill="#00FF01" fill-opacity="0.2"/>
<ellipse cx="2.69253" cy="2.09419" rx="2.69253" ry="2.09419" transform="matrix(-0.804389 0.594103 -0.804389 -0.594103 33.0752 333.156)" fill="#00FF01" fill-opacity="0.2"/>
<ellipse cx="2.69253" cy="2.39336" rx="2.69253" ry="2.39336" transform="matrix(-0.804389 0.594103 -0.804389 -0.594103 23.4453 333.323)" fill="#00FF01" fill-opacity="0.2"/>
<ellipse cx="2.69253" cy="2.39336" rx="2.69253" ry="2.39336" transform="matrix(-0.804389 0.594103 -0.804389 -0.594103 84.0098 341.922)" fill="#00FF01" fill-opacity="0.2"/>
<ellipse cx="2.69253" cy="2.39336" rx="2.69253" ry="2.39336" transform="matrix(-0.804389 0.594103 -0.804389 -0.594103 73.8008 341.912)" fill="#00FF01" fill-opacity="0.2"/>
<ellipse cx="2.69253" cy="2.09419" rx="2.69253" ry="2.09419" transform="matrix(-0.804389 0.594103 -0.804389 -0.594103 63.6904 341.729)" fill="#00FF01" fill-opacity="0.2"/>
<ellipse cx="2.69253" cy="2.09419" rx="2.69253" ry="2.09419" transform="matrix(-0.804389 0.594103 -0.804389 -0.594103 53.4805 341.718)" fill="#00FF01" fill-opacity="0.2"/>
<ellipse cx="2.69253" cy="2.09419" rx="2.69253" ry="2.09419" transform="matrix(-0.804389 0.594103 -0.804389 -0.594103 43.2715 341.709)" fill="#00FF01" fill-opacity="0.2"/>
<ellipse cx="2.69253" cy="2.09419" rx="2.69253" ry="2.09419" transform="matrix(-0.804389 0.594103 -0.804389 -0.594103 33.0605 341.7)" fill="#00FF01" fill-opacity="0.2"/>
<ellipse cx="2.69253" cy="2.39336" rx="2.69253" ry="2.39336" transform="matrix(-0.804389 0.594103 -0.804389 -0.594103 23.4316 341.869)" fill="#00FF01" fill-opacity="0.2"/>
<ellipse cx="2.69253" cy="2.39336" rx="2.69253" ry="2.39336" transform="matrix(-0.804389 0.594103 -0.804389 -0.594103 83.9971 349.967)" fill="#00FF01" fill-opacity="0.2"/>
<ellipse cx="2.69253" cy="2.39336" rx="2.69253" ry="2.39336" transform="matrix(-0.804389 0.594103 -0.804389 -0.594103 73.7871 349.957)" fill="#00FF01" fill-opacity="0.2"/>
<ellipse cx="2.69253" cy="2.09419" rx="2.69253" ry="2.09419" transform="matrix(-0.804389 0.594103 -0.804389 -0.594103 63.6777 349.771)" fill="#00FF01" fill-opacity="0.2"/>
<ellipse cx="2.69253" cy="2.09419" rx="2.69253" ry="2.09419" transform="matrix(-0.804389 0.594103 -0.804389 -0.594103 53.4678 349.762)" fill="#00FF01" fill-opacity="0.2"/>
<ellipse cx="2.69253" cy="2.09419" rx="2.69253" ry="2.09419" transform="matrix(-0.804389 0.594103 -0.804389 -0.594103 43.2578 349.753)" fill="#00FF01" fill-opacity="0.2"/>
<ellipse cx="2.69253" cy="2.09419" rx="2.69253" ry="2.09419" transform="matrix(-0.804389 0.594103 -0.804389 -0.594103 33.0479 349.744)" fill="#00FF01" fill-opacity="0.2"/>
<ellipse cx="2.69253" cy="2.39336" rx="2.69253" ry="2.39336" transform="matrix(-0.804389 0.594103 -0.804389 -0.594103 23.4189 349.913)" fill="#00FF01" fill-opacity="0.2"/>
<ellipse cx="2.69253" cy="2.39336" rx="2.69253" ry="2.39336" transform="matrix(-0.804389 0.594103 -0.804389 -0.594103 83.9834 358.514)" fill="#00FF01" fill-opacity="0.2"/>
<ellipse cx="2.69253" cy="2.39336" rx="2.69253" ry="2.39336" transform="matrix(-0.804389 0.594103 -0.804389 -0.594103 73.7734 358.504)" fill="#00FF01" fill-opacity="0.2"/>
<ellipse cx="2.69253" cy="2.09419" rx="2.69253" ry="2.09419" transform="matrix(-0.804389 0.594103 -0.804389 -0.594103 63.6631 358.317)" fill="#00FF01" fill-opacity="0.2"/>
<ellipse cx="2.69253" cy="2.09419" rx="2.69253" ry="2.09419" transform="matrix(-0.804389 0.594103 -0.804389 -0.594103 53.4541 358.309)" fill="#00FF01" fill-opacity="0.2"/>
<ellipse cx="2.69253" cy="2.09419" rx="2.69253" ry="2.09419" transform="matrix(-0.804389 0.594103 -0.804389 -0.594103 43.2432 358.299)" fill="#00FF01" fill-opacity="0.2"/>
<ellipse cx="2.69253" cy="2.09419" rx="2.69253" ry="2.09419" transform="matrix(-0.804389 0.594103 -0.804389 -0.594103 33.0332 358.29)" fill="#00FF01" fill-opacity="0.2"/>
<ellipse cx="2.69253" cy="2.39336" rx="2.69253" ry="2.39336" transform="matrix(-0.804389 0.594103 -0.804389 -0.594103 23.4053 358.458)" fill="#00FF01" fill-opacity="0.2"/>
<ellipse cx="2.69253" cy="2.39336" rx="2.69253" ry="2.39336" transform="matrix(-0.804389 0.594103 -0.804389 -0.594103 83.9707 366.557)" fill="#00FF01" fill-opacity="0.2"/>
<ellipse cx="2.69253" cy="2.39336" rx="2.69253" ry="2.39336" transform="matrix(-0.804389 0.594103 -0.804389 -0.594103 73.7607 366.547)" fill="#00FF01" fill-opacity="0.2"/>
<ellipse cx="2.69253" cy="2.09419" rx="2.69253" ry="2.09419" transform="matrix(-0.804389 0.594103 -0.804389 -0.594103 63.6504 366.36)" fill="#00FF01" fill-opacity="0.2"/>
<ellipse cx="2.69253" cy="2.09419" rx="2.69253" ry="2.09419" transform="matrix(-0.804389 0.594103 -0.804389 -0.594103 53.4404 366.352)" fill="#00FF01" fill-opacity="0.2"/>
<ellipse cx="2.69253" cy="2.09419" rx="2.69253" ry="2.09419" transform="matrix(-0.804389 0.594103 -0.804389 -0.594103 43.2305 366.344)" fill="#00FF01" fill-opacity="0.2"/>
<ellipse cx="2.69253" cy="2.09419" rx="2.69253" ry="2.09419" transform="matrix(-0.804389 0.594103 -0.804389 -0.594103 33.0205 366.333)" fill="#00FF01" fill-opacity="0.2"/>
<ellipse cx="2.69253" cy="2.39336" rx="2.69253" ry="2.39336" transform="matrix(-0.804389 0.594103 -0.804389 -0.594103 23.3926 366.502)" fill="#00FF01" fill-opacity="0.2"/>
<ellipse cx="2.69253" cy="2.39336" rx="2.69253" ry="2.39336" transform="matrix(-0.804389 0.594103 -0.804389 -0.594103 73.7461 375.093)" fill="#00FF01" fill-opacity="0.2"/>
<ellipse cx="2.69253" cy="2.09419" rx="2.69253" ry="2.09419" transform="matrix(-0.804389 0.594103 -0.804389 -0.594103 63.6367 374.906)" fill="#00FF01" fill-opacity="0.2"/>
<ellipse cx="2.69253" cy="2.09419" rx="2.69253" ry="2.09419" transform="matrix(-0.804389 0.594103 -0.804389 -0.594103 53.4258 374.897)" fill="#00FF01" fill-opacity="0.2"/>
<ellipse cx="2.69253" cy="2.09419" rx="2.69253" ry="2.09419" transform="matrix(-0.804389 0.594103 -0.804389 -0.594103 43.2168 374.888)" fill="#00FF01" fill-opacity="0.2"/>
<ellipse cx="2.69253" cy="2.09419" rx="2.69253" ry="2.09419" transform="matrix(-0.804389 0.594103 -0.804389 -0.594103 33.0068 374.879)" fill="#00FF01" fill-opacity="0.2"/>
<ellipse cx="2.69253" cy="2.39336" rx="2.69253" ry="2.39336" transform="matrix(-0.804389 0.594103 -0.804389 -0.594103 23.3779 375.047)" fill="#00FF01" fill-opacity="0.2"/>
<ellipse cx="2.69253" cy="2.39336" rx="2.69253" ry="2.39336" transform="matrix(-0.804389 0.594103 -0.804389 -0.594103 13.2227 341.86)" fill="#00FF01" fill-opacity="0.2"/>
<ellipse cx="2.69253" cy="2.39336" rx="2.69253" ry="2.39336" transform="matrix(-0.804389 0.594103 -0.804389 -0.594103 13.209 349.903)" fill="#00FF01" fill-opacity="0.2"/>
<ellipse cx="2.69253" cy="2.39336" rx="2.69253" ry="2.39336" transform="matrix(-0.804389 0.594103 -0.804389 -0.594103 13.1953 358.449)" fill="#00FF01" fill-opacity="0.2"/>
<ellipse cx="2.69253" cy="2.39336" rx="2.69253" ry="2.39336" transform="matrix(-0.804389 0.594103 -0.804389 -0.594103 13.1816 366.493)" fill="#00FF01" fill-opacity="0.2"/>
<ellipse cx="2.69253" cy="2.39336" rx="2.69253" ry="2.39336" transform="matrix(-0.804389 0.594103 -0.804389 -0.594103 73.7324 383.136)" fill="#00FF01" fill-opacity="0.2"/>
<ellipse cx="2.69253" cy="2.09419" rx="2.69253" ry="2.09419" transform="matrix(-0.804389 0.594103 -0.804389 -0.594103 63.624 382.949)" fill="#00FF01" fill-opacity="0.2"/>
<ellipse cx="2.69253" cy="2.09419" rx="2.69253" ry="2.09419" transform="matrix(-0.804389 0.594103 -0.804389 -0.594103 53.4131 382.94)" fill="#00FF01" fill-opacity="0.2"/>
<ellipse cx="2.69253" cy="2.09419" rx="2.69253" ry="2.09419" transform="matrix(-0.804389 0.594103 -0.804389 -0.594103 43.2031 382.932)" fill="#00FF01" fill-opacity="0.2"/>
<ellipse cx="2.69253" cy="2.09419" rx="2.69253" ry="2.09419" transform="matrix(-0.804389 0.594103 -0.804389 -0.594103 32.9941 382.924)" fill="#00FF01" fill-opacity="0.2"/>
<ellipse cx="2.69253" cy="2.39336" rx="2.69253" ry="2.39336" transform="matrix(-0.804389 0.594103 -0.804389 -0.594103 23.3643 383.091)" fill="#00FF01" fill-opacity="0.2"/>
<ellipse cx="2.69253" cy="2.09419" rx="2.69253" ry="2.09419" transform="matrix(-0.804389 0.594103 -0.804389 -0.594103 63.6084 391.496)" fill="#00FF01" fill-opacity="0.2"/>
<ellipse cx="2.69253" cy="2.09419" rx="2.69253" ry="2.09419" transform="matrix(-0.804389 0.594103 -0.804389 -0.594103 53.3994 391.488)" fill="#00FF01" fill-opacity="0.2"/>
<ellipse cx="2.69253" cy="2.09419" rx="2.69253" ry="2.09419" transform="matrix(-0.804389 0.594103 -0.804389 -0.594103 43.1895 391.477)" fill="#00FF01" fill-opacity="0.2"/>
<ellipse cx="2.69253" cy="2.09419" rx="2.69253" ry="2.09419" transform="matrix(-0.804389 0.594103 -0.804389 -0.594103 32.9795 391.469)" fill="#00FF01" fill-opacity="0.2"/>
<path d="M392.29 483.865L400.936 479.21L397.258 472.3L406.279 476.332L414.925 471.677L411.854 478.824L420.875 482.857L409.957 483.242L406.886 490.389L403.209 483.48L392.29 483.865Z" fill="#9FFFEA" fill-opacity="0.75"/>
<path d="M367.485 474.806L373.757 471.456L371.13 466.52L377.633 469.385L383.905 466.035L381.653 471.156L388.156 474.021L380.26 474.32L378.007 479.441L375.381 474.506L367.485 474.806Z" fill="#9FFFEA" fill-opacity="0.75"/>
<path d="M398.114 457.258L407.568 451.96L403.234 443.817L413.412 448.686L422.867 443.389L419.702 451.696L429.88 456.565L417.746 456.829L414.581 465.136L410.247 456.993L398.114 457.258Z" fill="#9FFFEA" fill-opacity="0.75"/>
<path d="M425.29 45.868L433.936 41.2126L430.258 34.3032L439.279 38.3354L447.925 33.68L444.854 40.8274L453.875 44.8596L442.957 45.2448L439.886 52.3922L436.209 45.4828L425.29 45.868Z" fill="#9FFFEA" fill-opacity="0.75"/>
<path d="M400.485 36.8087L406.757 33.4586L404.13 28.5233L410.633 31.3881L416.905 28.038L414.653 33.1587L421.156 36.0235L413.26 36.3234L411.007 41.4441L408.381 36.5088L400.485 36.8087Z" fill="#9FFFEA" fill-opacity="0.75"/>
<path d="M431.114 19.2625L440.568 13.9651L436.234 5.82192L446.412 10.6912L455.867 5.39377L452.702 13.7005L462.88 18.5698L450.746 18.8344L447.581 27.1411L443.247 18.9979L431.114 19.2625Z" fill="#9FFFEA" fill-opacity="0.75"/>
<rect x="26.5674" y="140.097" width="5.46983" height="19.8354" transform="rotate(180 26.5674 140.097)" fill="#F6FCB1" fill-opacity="0.75"/>
<rect x="16.4092" y="126.707" width="16.4095" height="12.893" transform="rotate(180 16.4092 126.707)" fill="#F6FCB1" fill-opacity="0.75"/>
<rect x="10.1582" y="144.559" width="7.03263" height="14.3807" transform="rotate(180 10.1582 144.559)" fill="#F6FCB1" fill-opacity="0.75"/>
</svg>
