<svg version="1.2" xmlns="http://www.w3.org/2000/svg" viewBox="0 0 446 248" width="446" height="248"><style>.a{fill:#d2d0cd}.b{fill:#d8d6d2}.c{fill:#1c1d17}.d{fill:#c5c4c3}.e{fill:#dedddb}.f{fill:#bdbab9}.g{fill:#2e4042}.h{fill:#41382e}.i{fill:#b1adaa}.j{fill:#0c0e0a}.k{fill:#b19a8b}.l{fill:#252e2e}.m{fill:#50504a}.n{opacity:1;fill:#636a6b}.o{fill:#a08572}.p{fill:#787d7b}.q{fill:#79a6bb}.r{opacity:1;fill:#997358}.s{fill:#77878f}.t{fill:#4e5f68}.u{fill:#765842}.v{opacity:.1;fill:#d7d3cf}.w{opacity:.9;fill:#acaaab}.x{opacity:.1;fill:#9bafb7}.y{opacity:.9;fill:#161713}.z{opacity:.2;fill:#7e8380}.A{opacity:.2;fill:#1c1f1a}.B{opacity:.3;fill:#765c40}</style><path fill-rule="evenodd" class="a" d="m1 7v-6h7l-2 6zm24-6v6l-6 1-6-7zm24 0l-2 4-5 1-1-5zm59 66l-4-4-5 5-4-2 3-16-5-2-1-7-3 1 4-3 3-10-5-6v-5h5l-1-13-3-1 2-3h12v3l-3 5 2 10v6h-3l-1 9 4 5 3-3v6l-3 1v6l3 4zm6-66h11l-1 6-3 1-3 11-4-1zm126 7l-9-4-13 8-3-7 4 1 5-5h16l5 2-5 1zm72-7h4l3 10-7 8zm126 6v-6h7v5zm-432 12l13 2-1 4-5 1 2 6 4-7 5-1v-4h-4l-2-6h5l3 5 15-2 1 2 1-8 13-1 1-4h9v-3l7 3-2 6 3 6h-8v7h-6l2-6-5-2-2 4 2 3-7 1-3 7-9-1-1-9-9 3 3 6-6 2-1 5-7-1-1 6-6 4 3 11-7 3 1 3-3 2h-3l-1-9v-7h1v5h7l-3-5 2-15-3-1 2-4-6 1v-2l1-3zm189-4v-9l3 6zm243 0l7-3v50l-7-2zm-221 6l7-5 4 3-1 7h-3l-2-1 1-1 2-3zm-12 3l9-2 3 5v1l-3 1h-2l-1-2-8 2v-2zm53 4l1-3h12l3 3zm23-1v-2h6l2 2-7 1zm-174 69h-4l-1 6h-14l-4 4-1 8-9 2h-3v-8h5l3-4-8-2v-4h6l7-7 3 1 3-7 6-1 5-7v-7l7 1zm-86-24l2 2 4 3-2 4 2 4h7l-3 7-4-1-1 6-5-3zm-3 34l6-5 1 15-6-2-2 5h-3l-1-4-5-1-7 7v-9h21l-2-5-19 2v-3zm68 49l-5-5 3-1v-6h6l1-5h-7l-1-19h8v-5l3-1 6 1-2-11h9v13l1 20zm251-46l56-1-2 7-6-2v-4h-13l3 25 1-3 3 1v-5l9-2 12 2 20-2 1 6 5 1 2-5h4l1 5h5v32h-12v-9l-9 2-6-8-20 1 1-6-15 1-1-8-1 7-3-1v-5l-6-1v4l-1-2-2-13-1-4v-7l5-1v-5h-5v3l-7 4-14 1-4 5-1 7-3-1v3l3 4v2l-1 2-3-2-1-8-3 2-5-2 1 9 4-3 2 3 1 5-6 4-1-4-5 1-2-7 5 2v-3l-3-7h-3l-3 10-1 5 1 5-2 1 3 11-7 1-1 4h-24l-1-4h-3l-1 4h-6v-4h-5l-1 5h12l-6 1-1 7-6-2 1-4h-5l-3-7-5-1-1 7h-10v-7l-5 2h-7v4l-12 1 2 6 4-2 1 2v-5h25l-3 6-11-1-3 6h-9l-3 6-16-2v-4l-4-2v-24l5 3-4-12h4l4 6 1 8v-9l6 1-7-14 1-16 1-6v10h10l4 7-2 6 2 3 6-3h3l3 3 3-9 3-6 4 1v13l4-3 3 3 3-2 7 1h6v-6l11-8 9 2 4-2 4 3 5-3 4 2 2-3 9 4 7-2v-3l6 2v-6l6-3-2-2 2-4h-7v3l-6 2-2-5h-10v-1zm-56 1l4-1h17l-9 1 1 5-10-4h-3zm157 2h7v7l-7 2zm-179 19v-6h6l-1 7zm-258 8l4-1 1 6h-5zm189 1l10 3-1 40-2 2v-6l-1-5h-8v4l-7 3 1-6 4-7 1-1 2-18 4 1-3-7zm-112 22v-7l7 1zm-77-1v-5h4l2 6zm64 7l1-9h3l1 6zm250 9l-5-9-5 1v5l-6-1-2-5h-6l-6 7-4-8h37v1l-1 1-1 6zm-57-8v5l-3 1-3-6zm-216 32l-3-3 7-4 13-1 3-5 3 1 4-4 9 2 7-2 1-4 4-1-1-4 7-5h1l1 4 11-4 10 11 4 5 7 6 5-3v-4l-1-10 5-1 1 2 5-4v5l8 1 9 9 4 6 6 1 5-9 2-1h3l-2 7 8 1 1 1 6 1 4 2v2l-13-2-89 2v-19h-5l-3 5 4 2 3-2v5l-5 4v5zm-41-16v-7l6 3-1 4zm437 10l7-6v5l-7 2zm-238 3v-7h10l2 6h-7zm194-1l34-1h1l5 1-1 5 3 1-37 1zm-104 7l-4-7h29l9 2-1 5h-23l1-4-3-2-5 1 2 5zm-87 1l37-1h28l-7 8-41-2-8 1-6 5-6-6v-5zm-151 1l44-1v4l-6 2-4-1-6-3-24 1zm45 9v-10h102v10h-7l-2 3-14-2-1 3-14-3-11 3-4-5-8 4-1-2-10 2-6-4-6 4zm-64-8l10-1v6l-1 1-5-4-2 3-11 5v5l4 1 3 1-3 2h-8l-5-3v-11l4-1 6-4zm399 10l5-2v5l-5 3-4 2-2-2z"/><path class="b" d="m299 22v-22h3l1 24v2l-14 1-2-2h12zm-298-15h5l2-6h5l6 7 6-1v-6h16l1 5 5-1 2-4h45l-2 3 3 1 1 13h-5v5l5 6-3 10-4 3 3-1 1 7 5 2-3 16 4 2 5-5 4 4v4l-7-1v7l-5 7-6 1-3 7-3-1-7 7h-6v4l8 2-3 4h-5v8h3l9-2 1-8 4-4h14l1-6h4v7h-9l2 11-6-1-3 1v5h-8l1 19h7l-1 5h-6v6l-3 1 5 5-1 1-7-1v7l-8 3-1-6h-3l-1 9h-3l1 2-14 1 4-1-3-7-10-3-3 9-13 1 1 7-11 5-5-3-2 2-6-3v-17l6 1-2-6h-4v-12h5l-1-6-4 1v-18l7-7 5 1 1 4h3l2-5 6 2-1-15 2-4 1-6 4 1 3-7h-7l-2-4 2-4-4-3 4-2v-7l-23 1 3-2-1-3 7-3-3-11 6-4 1-6 7 1 1-5 6-2-3-6 9-3 1 9 9 1 3-7 7-1-2-3 2-4 5 2-2 6h6v-7h8l-3-6 2-6-7-3v3h-9l-1 4-13 1-1 8-1-2-15 2-3-5h-5l2 6h4v4l-5 1-4 7-2-6 5-1 1-4-13-2-5-2zm194-1v-5h29l-5 5-4-1 3 7 13-8 9 4 1 5-1 3-4 2-3 8h-6l1-7-4-3-7 5-3 1-9 2 1-3-5-1-6 5v-2-8l3-3zm117 13l7-8-3-10h9v25h-7-4-2zm-129-12l2-1v6 2l-2-1zm255 0l7-1v6l-7 3zm-324 11l4 1 3-11 3-1v4 14l-1 2h-9zm137 0v-6h1l1 13 3 3-7-2v-2l2 2zm-118 7l2 1 1-5v4h3l6 3-13-1 1-1zm139 1l-1-1h10v2zm166 39v-5l7 2v4zm-124 40l21-1 2 5h-7v-4zm-39 1l8-1 2 4-4 1h-5zm118 2l52-2h1v3h-1-7v3 2l-10-1-4-4-4 5 18 7 7-2v70l-7 6v-28l-47-1h3 15l29-2v-32h-5l-1-5h-4l-2 5-5-1-1-6-20 2-12-2-9 2v5l-3-1-1 3-3-25h13v4l6 2zm-109 3l10 4-1-5 9-1h10v1h-5v5l12-1 2 3 3-2 6-2 5 1 2 2-6 3v6l-6-2v3l-7 2-9-4-2 3-4-2-5 3-4-3-4 2-9-2-11 8v6h-6v-7l1-7h-6v6l-2 2-3-2-3 2-4-2v-4l-4-1-3 6-3-1v3l-2-3-3 1h-2-5l-4-7h-10v-10l4-2h2v8l10-3 4 3 3-1 2-8 29-1v4h6v-4h7l5 3zm78 1v-3h5v5l-5 1zm-191 2l-2-4h6l-1 3h4zm19 3l11-3v6l-1 23-10-3v-22zm-57 2l5-3 1 3-1 2-5 2zm68 2h9l-1 16v14l-4-6h-4zm35 42l5-2v7h10l1-7 5 1 3 7h-2-6-3-25v5l-1-2-4 2-2-6h19zm-102 12l-1-5h4l2 5-5 1zm-122 14l17 3 2-5h4l4 5 4-5 16-1 7-7 20-2 3-5 7-1-7 5 1 4-4 1-1 4-7 2-9-2-4 4-3-1-3 5-13 1-7 4 3 3-11 2 2 4h-8l-6 4-3-9v-9zm-11 7v-11h5l2 2v4l-1 5zm202 9l4-2-2-6h7 74l4 7h-22-22l-2-6h-3l-1 6zm233-2l-3-1 1-5h4v6zm-141 1l-2-5 5-1 3 2-1 4zm-252 8l4-1 2 3-8 4-5 3-5 3-3-1 9-8 5-2zm-28 14v-3l5 3z"/><path fill-rule="evenodd" class="c" d="m337 15l2 2v-16h10l-3 5 2 6 8-2-1 20-15-4-1-5-4-5zm28-14h4l-3 7-1 1zm-147 26l1-4 4 1-1 1-1 2zm161 22l-6-4-3-10h8l1 2-6 2 4 2zm-247 3l7-1 3 1 16 1h53l23-1h20l3 1 20-1h25l-37 4-4 2v4l-1 3-2 30-1-13v-15l-2-7-4-4h-31l-2 9-2 39-1-13-2 7-4-1-2-6-3-3 7-1v-3l-4-1 7-1 1-12-1-14h-5l-1 3-14-4-7 1-1 6-3-6h-5l-2 10-2 41h-7l-15 1v-3h20l1-21v-23l-1-5h-36v4h-5l-1-6v-2zm167 19v-6l2 1v30l-2-7-3 10-16 1v3h-19v-20h15v5l5 1 1-6 17-1-7-1h-11l7-3-27 1v-6h11v4h5l1-4h5l-1 4h16zm72-1l-1-2 5 1-3-3 8 1v4l-1 2v-4zm-159 8l-1-6 2-2 1 2zm-211-5v5h7l-3-2 3-5 9 1v13h-16l-1-5v-7zm436 0l1-2h7v14h-7v-5l-4-1v-1l4-1zm-30 1l1-1h2l-4 14-4 7h-3l-2-9v-2l3-3 2 9v-7l3-1zm-59 5l7-2 3 1-3 2 7 1 6 11-5 2h-2l2-6-6 2zm-113 2l-17 1 1-3h14zm106 10l4-1-3-1 2-7h1l2 14-5 2zm-155 15l1-4 3 3 2-3v-19h2l-1 23zm32-2v-21h21v1l-5 3 1 5 4 2 9-7v8l8 3v5l-17 1zm-88 0l1-4 4 3 2 7-3 1v4l-5 3zm14-1l1 2 7-3v3l-12 7h-2l2-8zm20 13l9-1 10 2 4-1 2 3-2 10h-1l-8-2-1-2 5-3-4-3-13-1zm181 4l4-2 1 3 5-1-1 4h6l-1 3 4 1v7l-3 3v-6l-6-1 3-4-7 1-1-1-5-2h-1l-2-2zm-207 1v3h4l1-3 8-2 3 1-1 3-9 2-7 2 5 3-9 1 3 4-1 4-4-2 1 3-3 2-2-2 2-7-3 1-1-2 2-3 6-6zm20 11l1-3 3 1 3 3v4l-1 1-4 5v-1l-1-8zm-46 11l5-5 2 2 3 2-1 3h-6v3h-2zm231 3l3-2 3 1-2 5h-6zm-209 1l4-1 1 3-1 8-1 2-3-8zm216 7l7-7 2 2zm-235-2l3-1v1l4 3-1 9 10 2 2 4h-24l-6-5 6-1 1 3h4zm35 5l1-3 4 2 2 6 3-2 3 2h1v1l-8 1-2-4zm31-1l3-2h3v13l-1 1-9 4-13 9-7-1 2-2 2-7 2 5 4-4v-4l1 3 4-2 14-9-6 1zm-76 2l6.5 0.9-1.5 4.1-5-2zm6.5 0.9l1.5-3.9-1 4zm53.5 0.1l3-1 2 2-3 3-2-2zm204 11l5-7 3 4-2 6-1-2-3 4zm-32 10l-3-4 10 5-8 4-6 4v-3l6-3-3-2zm8 1l7-2 4 2 4 1-1 5h-4l-1-4zm30 25l-5-2 2-5-4-3 1-4h3zm-28-11l4-3 8 8zm-5 10l-6-2 4-6h1l7 7-1 1zm-338 7l1-7 10 1v8h-11zm361 7l3-9 8 8 1 7-5-2 1 5 5 5 3-2 1 3 2 3h-4l-2 5-5-10h-4l2 10 2 5h-9l2-4-2-4h4l-2-6 2-10-3-2zm76-8l4 1v2l-4-1zm-392 8l3-5h9v5l-12 11-14 7-1-2zm-13 2l5-3 5 2-9 7zm396 2l5-3 1 4v4l-9-1zm-94 7l1-7 5 2 1 5zm7 2l1-2h3v3zm-13 15v-11h3l-1-5 4 1 5 15zm-283-5l15-6 17 3 6 9h-6l-7-5-4-4-11 1-10 6 8 1v1h-14zm297 1l-1-7h4zm-251 5l4-2-3-9h3l4 11zm283-6l5-2-1 6-3 1zm59 0l1-2 7 1h1v7h-8zm-436 0l14-1h8v6h-22z"/><path fill-rule="evenodd" class="d" d="m249 5v-5h3v12h-1zm-117 14l-6-1v-3h6zm117 5v-6h2v8zm-141 12l-3 3-4-5 1-9h3l3 1h-3v4l1 1zm17-11l7-1 1 2-1 1h-3zm104 4l-5-3h9l4 1zm45-1l-2-2 9 1 1 1h-6l-1 3-6-2zm-8 4l5 2-7-2zm44 1l4-1h2l-1 2zm-310 7v-6h4l3 1-2 15 3 5h-7v-5zm221 0l-1-2h7l1 1-1 1zm31 0l-5-2h8zm-144 13l-3-4v-6l3-1h1v4zm-91 19l2-4 2 15v11l5 3-2 4-6 5v-19h-17v-2h16zm199 33l7-1h16l-5 1-16 1h-9v-1zm-1 8l61-3h5v1h-16l-29 1-19 1zm140 3l7-4v10l-3-2zm-124 22l-1-6h2l2 6zm82 1l4-2 2 7 5-1 1 4 6-4-1-5 2-1 3 2 1-2v7h-4l1 4-9 7-4 8-5-1-4 4h-5l1-4 7-1-3-11 2-1h3v-4l-4 2v-3zm53 2v-4l6 1v5l3 1 1-7 1 8 15-1-1 6 20-1 6 8 9-2v9h12l-29 2 1-4-12-2v5l-4 1h-3l47 1v30h-4l-5-1 4-1v-4h-5v5l-34 1-3-2-8-10 2-12-5-10 3-5-6-3v-1l-4-6-8-2zm-177 8l1-6 3 7zm76 20l-1 4 6 2 1-7 6-1h-12l1-5h5v4h6l1-4h3l1 4h11v1h-12l4 8 6-7h6l2 5 6 1v-5l5-1 5 9 1 7v1l-4 2v10h-100l-2-6h-10v-13l4 2v4l16 2 3-6h9l3-6 11 1 3-6h3l3 6 3-1v-5zm-128 1l8-1 4 4 4 5v1l-8-1v-5l-5 4-1-2zm44 11l7-3v15l-8-1 2-7h-3zm16 4l2-2v14l-4-2zm-189 6v-4l3 2-2 2zm307 6l12-1 1-3v11h-5l1-5zm-300 9l1-4 3 9-4 1zm384-2l37-1h2v1l-8 7-13 1-4-6h-5v4l-5 2zm-199 6l6 6 6-5 8-1 41 2 7-8h54l-6 7-23-1 2 7-2 1-14-2-18 8-20-1v6l-3 1-4-3-5 2v-3l-14 4-15-4zm-157 2v-6h5l1 4-2 1zm36 0l1-5 6 3-5 3 7 3 4 5 5-1 1 4-4 3-11-8-10-5zm11-1l6-2-1 7-4-1zm-62 12l-4-1v-5l11-5 2 3zm-28-3v-6h1l3 2v8h-3zm97-5l18 3 6-4 6 4 10-2 1 2 8-4 4 5 11-3 14 3 1-3 14 2 2-3h7v12l-19 1-5 3-11-3-5 2-1-3-35 2-6 5h-8l-2 10-3-7-3-8 4-7-7-2zm308 2l2-2 6 25-4-3-3-10zm18 10l3-4 2 2-1 3z"/><path fill-rule="evenodd" class="e" d="m183 7v-7h2v6zm-1 18l1-12 2 1v13l-16 2-13-1h-11l-6-3zm51 1l3-8 4-2v5l-2 6h-1zm-38-1l6-5 5 1-1 3-2 3zm61 3l-3-3h6l-1 3zm81 81l-2-5h75l35 2-52 2zm-52 0l-2-4h47v4zm-64-2l38-1h16l1 4-61 3-4 2-1 6h-9v-7l-11 3-1-3-11-1h-4l1-3 5-1zm217 14l-18-7 4-5 4 4 10 1zm-300-6l31-5 2 4-20 1-12 4-1-3zm186 0l-3 2-2-3-12 1v-5h15zm6-2v-3h7l-2 4zm-59-2v4h-6v-4zm13 0l-1 3-5-3zm-67 2l19-1-2 8-3 1-4-3-10 3zm-99 16l13-10h2v4l-6 6-15 12-5-2 10-9zm-55 41h14l23-25 4-1-5 8-1 2-14 15 13 2h-1l-7 1-3 5-20 2-7 7-16 1-4 5-4-5h-4l-2 5-17-3h-1l-3-2-2-2 1-4 2-2 5 3 11-5-1-7 13-1 3-9 10 3 3 7-4 1zm35 5v-5h11v1zm-1 24l89-2 13 2v6h-102zm103-1l5-1 2 6-4 2h-3zm40 6l1-6h3l2 6zm-198-3l49-2h5v6l-44 1h-9l-10 1-2-4zm7 9l7-1 23 3-6 2h-1v-2l-19 2h-4l-2-3z"/><path fill-rule="evenodd" class="f" d="m180 0h3v13l-1 12h-12v-4h10zm123 24l-1-24h1v9h4l-2 2-2-1zm-198-5l-2-10 3-5v15zm144-1v-13l2 7v6zm35 7l12-2v-17l3 16v3zm-160-14v-4h8v4zm-123 15v-9l5 2zm155-1l1-4h4l2 4zm82 2l2-6 8 2-2 6 4 2h-4zm-44 0l1-4v2l8 2v2h-6zm110-1h10l-10 2zm-94 8l2-5h2l4 5zm106-2h6l1-3 4 2v3h-6l-1 4-4-1-1-3zm-316-1l6-1-2 4h-4zm136 4l11-4-3 4-2 2zm142 2l16-2 1 2-1 1-9 2zm-148 3l-8-2h7zm99-1l8-1-3 3h-1zm-102 4l3-3 4 1-1 2zm1 3l7-1v3zm184 8l2-2h5l-3 2 1 3h-5zm-308 12l23-1v7l-4 2-2-2v11l-2-15h-18v-2zm309 5l-6 1 3-3zm125 19h-4l-1-3 5-2h8v2h-1l-7 2zm-120 10h-4l4-2 4 1zm-38 3l21-1h16l6 1-64 2h-25l5-1 17-1zm-87 3l14-1h2v1l-29 2-13-1h9l10-1zm61 34v-9l3 2v5zm109-5l3 6-1 5-7-1-1-4zm-154 16v-14l7 14-6-1v9zm169 11l-1-7 6 3-3 5zm16 4l4-1v-5l12 2-1 4zm-177 2l12-1v-4h7v5zm94-2l4-4 5 1-2 4h-25v-1zm-215 24v-5l-3 2-4-2 3-5h5v12zm216 7v-10l4-2 12 3v5l-1 3-12 1zm116-1v-5h5v4l-4 1zm-228 30l15 4 14-4v3l5-2 4 3 3-1v-6l20 1 18-8 14 2 2-1-2-7 23 1 6-7h6l1 5-2 7-8-1-3 7h-4l-2 7-6-3-2 3-3-1-1 5-19 2-8 7-8-3-19 3-4-4-6 7-10-4-2 5h-3l-4-5-15-1zm203-14l5-2v-4h5l4 6 13-1 8-7v7l-5-1-1 7-1 1-11-1-7 23-6-25-2 2zm-354-2l-1-4h4l4 2v1zm-14 2l2-3 5 4-5 2zm51-2l4 1 1 4-3 1-7-3zm-85 4v-4l3 2v4zm52 0l19-2v2zm45 10l-1-4h1l7 2-4 7zm9 20l2-10h8l6-5 35-2 1 3 5-2 11 3 5-3 19-1v13l-6 1-24-1-7 4-3-5-17 1-4 2-1 5h-10v-7l-8 3-2-2-7 6h-3zm315-9l1-8 4 1z"/><path class="g" d="m358 1v-1h4l1 19v17l-24-7 1-3 15 4 3 1zm-71 19l3-8 5-3v11zm-29 1l2-8 7 1-4 6h22zm-122 39v-4h20l-1 5 6 1v-5l4-1h2l1 5h5v18h-1-1l-9-1 1-6-6 1v5l-13 1-8-1zm41 12l2 1-1-17h5l3 6v6l8 6v4l-11 1h-6zm31-13l1-3h5l1 14-1 2-1-2-2 2 1 6h-17l1-5h4l1-3-1-8 6 3zm10 6l2-9 3 1-3 2 1 5h11v-5l-3-1 3-2h2l2 3-3 3 1 4 10 1 2-3h8l1-4 2 7h-7l1 6h3v4h-5l-3-4-3 1v4l-6 1h-4-14v-1l3-1v-4l-3-1zm64-6l7-3h2l5 3zm-21 3v-1h26l-1 3 9 3-2 4h-5l2-4-4-1-4 4 4 1-25-1 2-3h16v-3h3zm-121 28v-4h-4l1-3h5l31 1-1 21h-5l-1-3 3-1-2-2-4 5-5-2v3h-6v-3l-7 3-1-2-1-4 6-2v-6zm37-1v-6h15v19l-2 3-3-3-1 4-10 1v-1l1-9 3-2zm16 17l1-23h13l4 1v3l-7 1 3 3-4 3 6 3 4 1-3 4 2 2-5 1zm46-22v-1h2l3 3-2 3-4-2zm-134 60l6-2 1 6-7 10v3h-1zm252 3v-2h1l7 1 8 2 4 6h-9l3 1-3 4 3 3-4 2v4h-2l-2-1h-7l2-8 9-4-5-5-3 6-4 1-9 1-3 2-1-4 8-2 9-5zm-37 16l4-8 9-7h4l-2 7 3-2v3h3l-1 7h-7l-2-4 2-6-7 3-2 4 2 3-8 5v-1zm-148-6l9-1-1 5 6-1-14 9 3-5-5-4zm-14 12l2-1 1 3-2 7-2-3zm172 20l6-4 5 12h-1l-7-1 1 7h-3l2 2-4 4-1-5v-10zm27 13l-12-5-1-3 3 1 12 5 6 3zm-7 1l1-3 6 3 9 1-1 2zm-6 7l1-3-3-2h5l5 3zm17 12l-1-6-5-3 3-1-1-4h2l3 1-2 3 5 7v2l-1 4zm-34-1l6-10 11-1 14 13 6 6-3 4-6 1-1-4h-5l2-3-5-4 5-1-11-1h-8l2 2h-3l-2 6zm44 21l2-10 5 10 1 5 3-1v2h-9v-1z"/><path fill-rule="evenodd" class="h" d="m106 0h5v10l1 17 1 5v5h-1v-5l-6-1-1-1h3l2-7-4-1zm227 1v-1h6v17l-4-4v-5zm21 35l12 2-1-20 2 2-1 3 4 1v11l3 10 6 4 1 3v15l-8-1 3 3-5-1 5 10h6l-1-4 2 2 2 4-5 1v6l2 9-2-2-4 2-1-7-7 7-4-2 5-2-6-11-7-1 3-2 4 2 1-5-8-2v4l-7 2-3 3h-1l-3-2v6l-4 2 1 7-2-3-2 2 1 4 5-1v4l-12-1v-24l-1-5v-2l1-5h5v-3l-6-1v-22l1-4 4 1v-4l3-6-3-1 4-1-1-3 4 1 1 5-1 3v1l-1 5h4v-3l7 3-4 5h4l4 1-1-3h3zm-137-8v-1h4l-1 2h9v5h-6zm202 13l4-3v4l1 4-2 3-1-3 1-4zm-3 22l6 4-3-5 6-4-2-4 3-3 10 1-1 2-6 1-2 4-3 1v4l7 1-6 1v3l-1 8 3 2h7l-9 3 1 17-1 1-2-5v-27l-8 2-2 5-3-2h-2l3-5 1-2 1 4 2-6zm-286-9l1 6-1 37h-1v-26l1-7zm269 1h4v9h3l-2 4-1 3-1-7-3 4-3 5-2-2 4-8zm-278 23l-7-4v-7l3-2 4 1 3 6zm93-6l1-2-1 12v-1l-31-2 11-1h18zm-70 7l13-1v-5l6-1-1 6 9 1zm105-2h5v-4h3v8l-1-1-10-1zm-102 4l25-2h1v5l-31-1zm103 2l7-1 1 13v8h-2v-11l-7 2zm144 11l3-9 2 9h3l4-7h4l-1 4h-4l2 5v2l-6-2 2 4v1h-10zm-382 8l-3-15h9v5h-1l-3-3 1 4-3 1 5 1v7zm426-13l7-2v3zm-262 17l1-17 3 6-3 2zm104-3v-3l16-1 3-10 2 7v6zm-163-12l1-1h3l-2 3v11l-1 12v9l-2 3v-18zm251 10v-5l12 1-1 4zm38-1l3-4 6 2zm-56 1v-3l5-1v4zm-13 21l4-5 14-1 4 4h-4l-5 1-1-3-4 2zm-186-3l14-1 13 1h-16l-4 4 6-2-1 3-7 1 7 3-1 2-3-1-15-4 9-2 1-3zm14 8l3-6 5 3zm186 8l6-2v8l1 4h-1l-7-8zm-215 0h1v5h6l4 2-1 2-11-2-1 5v4l-4-1-1-8 3-2-1-3 4 2zm40 3l5-3 2 5-5 11h-2l1-7 2-4-4 2-4-3zm-13 24l-3-2-3 2-2-6 7 2zm-26-3l1-2 2 7h3v1l-4 1zm219 22l8-6 1-7h2v1l-1 5 3 3-9 5zm-40 3l17-3 3 2-6 3-2 2-12-3zm-247 30l-7 5h-1v-5zm9 16l4-2 14 9 3 9-4 2h-6l-1-7v-3h3l-3-2zm-19 6l3-1 18 1 7 5-6-2-17-3-15 6v-1z"/><path class="i" d="m133 25v-25h3v21l-1 5zm52-19v-6h1v3h8v3h-8v5l-1 1zm110-5v-1h4v22l-3-16v17l-12 2h-3-10-12-4l1-4h2l27-1h2 8v-11zm-110 26v-12l1 4 6-1 1 5h-5l-1 4zm-45-2l1-4h3 13l-1 4zm23 0l-2-4h9v4zm164 3l-9-2h7 2zm-171 2v-2l13 1 1 4-2 4h-7l4-2-2-2 2-3zm-12 5l3-4 3 1 1 5zm-18-3l4 2-6 1 1 2-7-1 5-4zm120 2v-2l8 2zm60 3v-3l4-1 5 1 1 3-5-1 1 5-5 1-3-1 5-1zm-129 4l3-1-3-5h6 2l4 2-5 2 2 4h-8zm96 0l5-4 7 3-1 4-2 1-7-3-1 4h8l1 2-10 4-8-1 10-2-7-1 4-3-1-3zm-109-1l2-2v5h-5zm88 0l3-2 2 5-2 2-4-3zm-34 4l3-4h6l-2 3-5 1 3 4h-8zm-67 3l-2-4 11-2-2 5 3 2-2-1h-4l1 4h-6l3-2zm49-1l1-2h-4l-1-3h7v3l6 2-1 2h-10zm93-3l3-2 1 2 6 5-7-1-1 4h-1zm-56 8l-1-2h6l-1-3h8l-1 2-1 3zm67 11v-2l4 2 2-2 1 3h1l-1 3h-5zm132 7l2-4 7 1v2h-7v3l-1 2h-1l-4 3-1-4 3-2zm-122 11h5l-1 5h-8zm112 19l7-6 3 2-1 5h3v2h-15l2-2zm-36-3l3-2h1l-1 7h10 15l-58 2h-37l-6-1 1-2 4-1 6 1 12 1h10 5 4 9 11 9 3l-1-3zm-389 8l5-2v4h-5zm113 4v-3l2 1v4 18l2-3 2 2-2 2-1 1-8 5 3-5h-4l6-4v-6-7zm249 20v-2l2 13-2-4zm-30 20l-1-4h4l1 4zm-242 51v-5l5-4 1 2v7 5h-1v-5zm-90 4v-6h5v7l-1 1-1 7-3-2zm55 5l24-1-1 5-23-3zm376 9l1-7 5 1-1 4zm-232 23l15 1 4 5h3l2-5 10 4 6-7 4 4 19-3 8 3 8-7 19-2 1-5 3 1 2-3 6 3 2-7h4l3-7 8 1v5l2 8 1 18h-130zm213 0l7-23 11 1-5 5-3 4-1 8-4 12h-8l-1-10zm-319-13l4-3 3 5 3 8 1 11h-2l-4-11zm43 20l1-5 4-2 17-1 3 5 7-4 24 1-1 6zm-27 0l7-6 2 2 8-3v7z"/><path fill-rule="evenodd" class="j" d="m355 30l1-20-8 2-2-6 3-5h9v30zm-90 26l37-4h2v10l-1 4h-2l-2-1v-9zm-79 6l1-6 7-1 14 4-2 6-6-3 1 8-1 3h-4l-1 5h-1v-4l-8-6zm-56 35l1-37h5v18l8 1h28l-25 2-10 2-1 3h4v4l-5 13-4-3zm156-25l2-1h11l-1 6h-16l1-4zm-8 1l-1 4h-5v-4zm-64 8l-37 1v-3h6zm21 0l-2-2h11zm21-1l-11-1h1zm89 2l3-3 9 11 2 11h-4v-4l-5 1v3h-10v-4l1-6 1 7 5-2zm-63 1l-1 6-5-1v-5zm-144 38l9-4 17-1 1 2-14 1-8 2-1 3h-4zm26 0l-6 2 4-4h16l4 3-5 3-4-1-5-3zm186 7l7-1-3 4 6 1v6l-3 3v-8l-6 2zm-214 7l-3-4 9-1v5zm-19 3l8-6 1 2-7 6zm229 3l4-4 7 8v2l-7 7-8 2h-4v-3l3-3h6l2-5-3-1zm-168 10l5-11v1l4 9v4h-1v-3zm-26-7l6-3 2 1v1l-2 3h4v3l3 10v2l-1 1h-1l-1-4-7-2-4-2-1 3-7 7h-3l-2-7 1-8 7-5 1-2zm-39 4h2v4l-1 15h-4l-1-3 1-1 3-8zm54 2l9 1h2l-6 6-2 3-2-2zm-45 5l5-5h3l4 1 3 8 2 7h-8l-10-2zm238 27l9-5-3-3 1-5 2 1 2 5 3-4 1 2-3 10v9h-3l-1 4 4 3-2 5 5 2 4 7v4l-3 1-8-8 3-2h-19l-5-3 1-1 2-1 15 3 1-2-9-1v-1l8 1-6-3-8-8-13-8 6-3h1l9 2 1 4h4zm-170 6l-1-13h4v4zm-128 31l8 1 1-3h4l8 2 11 8 5 10h-3l-14-9-18-2-12 4v4l-2-2-4 2-11 14h-12v-7l4-9 10-5 9-7 3-1-15 16 1 2 14-7 12-11zm319 12l-3 2-5-5-1-5 5 2 3 4zm47-6l4-2-3 4 9 1v12l-1 2-6 6h-13v-1l4-12 5-7zm-90 5h8l-1 2v4l1 7 1 4h-4l-5-15zm40 12l2-5h4l-1 3zm-321 5l-8-1 10-6 11-1 4 4h-10zm304 0l3-8 2 4-2 4z"/><path fill-rule="evenodd" class="k" d="m123 27l1-2h1l4 2v2zm123 4h4l-4-2 1-3h2l7 2h2l7 1-5 2v3l4-2 7 2-5-2 3-3 6 2 1-3h6l7-1 14-1h1v2l9 1 1 3-8 2v3l-6-2-1 6-5-3 1-1-1-2-16 2-5 4-1-3h-5l-1 2 5 2-6 1v3l-1-3h-7l-2-5h-8l5 2-1 2-9-1-1-4 5-3h8l-8-2zm-77-2l16-2h2l5 2 2-2 3 2 2 3v4l5-1 3 2 5-3h6l-4-5 3-1 6 6 8 1-4 3h-7l1 2-3 4h-15v-3h-11l3-4h-5v-4l-5 2h-2l-4-5-6 1 2 3-5-1zm-19 3l5-4h1v2l2 4-5 3 11 3-3 3h5l4-2-1 5h10l-10 1-1 2 5 1h-15l1-3 2 1-3-2 2-5-11 2 2 4h-5v4l-4 1-3-1-7-2v3h-2l-2-2-3 2-2-3 5-3 7 2v-3h3l4 4 5-4-3-4-6 3-5-1 1-2-4-1-1-2 7-3 6 2 2-2 7 2zm166 5l4 1 1-4h6v20l-10 3-1-3 3-2h-5l-2-3h7l-2-4 1-2-6-2-1-5zm-139 4l-6-4 6-2 3 5zm-69 1v-6l1 1 1 3 4-2h8l8 2-3 3-6 4-2-3 4-2-10 1-4-1zm126-1l3-3 2 5zm-7-1l1-1h1l4 2 4 7-9-1-3-4zm70 3l2-2 4 2 1-2 3 1 3 4-5 1 7 7v3l-1 2-7-4v-3l-6-3-3 2 1-4 7 1zm-105 0l1 4 7-1-2 2h10v2h-3l-12 2-6-1-4-1 3-2h-6l1-3-3-2zm92 1l9-1 1 8h-11l8-2-2-3-6 2-1-2v-1zm-37 7l1-3 10 1-4 3h-6zm-130 1l5-1 3 1-2 4-10-1zm195 11l6-2 9 1v5l-8 2h8v2l-4-1-1 5-7-4 3-4-8 2-3 3 6-1 3 2-5 1 4 4-4 2h3l-4 5h8l1-5h7l-2 3h4v5h-12l7 4-1 2-12 1-6-2-1-3 5 2v-3h4l-3-5-5 1-1-4v-15l1-4 2 4h5zm-188 9l2-1h3v27h-8l-2 3v-8l6-1 1-6-5-8zm202 24l2-1v5l-6-1-4-1zm-207 8h3v-3l7 1 1 2-1 14 5-3 3-1h1v2l-5 3h-2l-8-2-5 2v-3l1-4 10-1-3-3-6 2 3-5h-4zm-113 2v-4h8l-2 4zm404-2l28-2h8v4h-1zm-74 25l2-4h6l-2 5 3 1-3 1h-6zm6 6l6-1-4 4zm-168 2l2 1-5 1 4 3-7 4-3-5zm1 5l4-2-2 4zm-76 10l5-8h1l-1 17-1-2zm44 12l7-7 4 3-5 3-6 2zm184 2l3-1-2-6h3l2 4 2 5 10 1 12 1-5 1 3 2h5l-1 3-6 1-5-5h-19zm6 14l-6-3 4-1h3l3 4zm105 16l7-2v10l-4 1v8l1 10-4 1-1-4v-5l1-4zm-342 8h1v11l1 5h-1l-5 1-4-5 3-1 4 1 1-7zm-95 20h3v-3l1 1 1 4-5 3zm15 8l4-3 6 3z"/><path fill-rule="evenodd" class="l" d="m256 21l-1-20h40v8l-5 3-3 8h-24l4-6-7-1-2 8zm109-12l1-1 4 6v3h-5zm-38 17l2 1v-4l6 2-3 6-5-3zm22 9l5 1 1 2h-3l-3 2h-4zm-115 21h17l4 4-1 4h-8l-2 3-10-1-1-4 3-3zm-69 0l-4 1v5l-6-1 1-5zm8 5h-5l-1-5h5zm3 5l2-10 1 17-2-1zm56-10l-3 2 3 1v5h-11l-1-5 3-2-3-1zm29 2l4-2h10zm21 1l-5-3h12zm14 0l-5-3h8v15h-6l2-4-9-3 1-3zm-36 6l1-3 21 2h-3v3h-16l-2 3zm139 3l3-4 1 7v3l-3-1v7l-3 3zm-113 3l-4-1 4-4 4 1-2 4-2 1zm85-1l8-1v4l1-2 2 3v2l-2-2 1 4h-6zm-370 1h7l-3 5 3 2h-7zm218 7v-6l3 1v4zm18 1l6-1v-4l3-1 3 4-3 2zm24 0l27-1-7 3h-10l-10-1zm-22 5l-1 3 4 2 2-3-3-3h9l-1 11 7-2v6l-8-3v-8l-9 7-4-2-1-5zm-239 15l1-12h8l3 15h-6l-5 2h-1zm438-10l7 1v-3h1v4l-1 11h-7zm-81 1l6-2-2 6h2l4 2h1v5h-9zm-340 5l-5-1 3-1-1-4 3 3zm192 2l-6-3 4-3zm4 1l2-7 1 13v1h-9l5-1-2-2zm-84-1h1l1 3-1 4-1-2zm29 8v-3l5 2 4-5 2 2-3 1 1 3zm-24 10v-4l3-1v4zm203 7l8-2-4 3 2 2h-5l-2 4zm26 6l-4-1 1-3h-6l1-4h4l3 2 1 4zm-189 3l9-1-2 1v2l-3-2-4 6-9 4-1-3 1-1 4-1v-4zm9 10h4v9zm153-3l6-1-1 2-2 2-1 3h6l-5 2h4l-2 4-3 3-3 2 2-7-1-4zm-184 6l4-6 2 1v2zm-47 14l7-10 1 3v4l-1 4zm57-9l5 1 1 8-3 1zm-44 3l9-2-5 5zm62-1h6v3h-2zm175 6l4-1 3-6 5 5-9 4-2 8h-8l2-3 1 3 3-1zm-37 11l8-5-2-3 2-4 7-3-2 6h-3l2 6-3 1-1 7-9-4zm49-4l4-2-3-3 3-4-3-1h9v1l1 7-1 5-3-4-5 7-2-1zm-34-1h7l1-7h1l1 4 3-2-2 8 3 1-2 2-10-1zm-173 5l4-2v5l2-2 1 3-4 4-2-5zm30 20l3-9 2 5 2-5v6l-2 10-6-1 4-1-2-3 2-2zm146-3l2-1 13 8-4 3-3-1 1 3 12 5v1l-6-3-1 3-2 1-7-7zm-8 3l2-2v3l-2 5zm1 21l4-4-2-2h3l-1-7 7 1-4 6 6 2 3 2-1 3-11 1-6 10v-5zm112 2v-6l4-1v8zm-82-3h12l-3 2-3 9-5-7 2-3zm-354 14l7-1-2-7h5v12l-4 2-5-2zm36-4l8-4h3l-3 5-3 1zm21 1l7-5h4l10 5-8-2h-4l-1 3zm-31 5l5-3 1 6-6 3-11-2 8-2zm298 5l2-6h3l-2-2h8l11 1-5 1 5 4-2 3h-4l-1-5-5-2-1 7v2l-4-1 1 5h-3v11l-1 1h-1v-1zm32-7l3 3 1-4 3 2-2 10 2 6h-4l-3 8v1h-14v-1l-1-4 3-7h-4v-4l4 1v-3h5l1 4 6-1 3-4-6-6zm10 20l-2-10h4zm-370-2h8l3-5 3 6-14 1zm86 8l-6-9 6 2h1l1 7z"/><path class="m" d="m136 21v-21h8v1 20h-3l-1 4h-1-3zm229-20v-1h5v14l-4-6 3-7zm-30 12h-2l2-5zm83 27l2-13 4 2 1 5-2 4-4 3zm-91-9v-3l5 3v4l-4-1-1 4v-4zm15 1v3h-4l1-5zm-234 4l-2-5 6 1v5h-3zm327 4l-2-4 2-1h3v6zm-86 0l3-2 1 3zm62 8l-1-9 3 6 2-4 2 1-1 8 1 3-4 11-2-2-4 4 4 2-3 5-1 1-3-6 2-4h-3v-9h-4l-4-2 4-5-1-4v-3-1l2 4 3-2v4l2-1 1 3-2 7h3l5-2zm11 1l2-3 2 5-3 3 2 4-6 4 3 5-6-4 4-9zm-165 4l7-2h1l8 1h4zm123 12v-7h4l1 4-3 3-2-3zm-53-3v-2l6 1v3h-5l-1-1zm69 5l-3-3 3-3 2 2zm-142 6h-3l-1-6h7v6zm140-2l2 2 3-5-2 15v2l-3 9h-1l-2-9 3 4 2-5-4-9zm-14-1l3-1 1 4-2 1-2-3zm-25 3l8 2-1 5-4-2-3-1zm51 14l4-14 3 2v3l-2 3 3 2 1 2-5 2zm-27-6l5-1v5zm-39 16l-5 1-1-4 2-2 2 3-1-7 4-2v-6l3 2-2 7 3 1-4 1zm41-1l2-4 4 1 1-7 2 10v2l-3-2 1 5h-9l1-4-12-1h-1l7-7 1 7 4-2zm-246 7l5-13 9 1v6l-6 2 1 4-4 1-2 8h2l-2 2h-1v-4zm272-7l-2-5h4 3l1 1-4 4zm8 2h4l-1 3h-15v-1h3zm-197 8l16-1h25v1l-38 1zm-29 13l1-1v22 3l-1 6-2 18v-13-4-19-2zm-15 12v-4h4l8 2-3 1zm162 4l-3-4v-3l3 1v3h6v2zm-23 4l3-10h3l3 7v3l-5-2zm17-1l-2-3-4 3-1-9 5 2 3-2 1 8zm-71-7l5 1v7l-7-1v-5zm-122 4h5v-4l1 9h-6zm95-3l3-1 2 3v-3l3 1-3 9-3-3zm22 8l-3-3-4 3v-9l4 2 3-2zm-96-1l1-5 1 8-2-1zm-74 30l13-4 1-7 1 3 4-2 1 2h1l5 2-1 1-6 1 6 5h-11v5l-1-4zm72-5l8-1v3l-4 2-2 1-3-1zm-7 9l3-2v3l5 1 2 3-2 2-4-2zm39 5v-4h8l1 5-2 5-2-5v-4h-4l1 13h3l-2 2 2 3-4 1-1-1zm-179 13l2-2h1l4 4v9l-1 4-10-1 1-1h3zm43 43v-4l12-4 18 2-4 2-5 1-10-1-7 3zm-51 6v-9l15 1h10 1l-4 9h-8l-3-6-3 5zm437 0v-9h7v10zm-403 8l11-14 4-2 2 2-7 6-7 8zm45-12h8l3 2h-3v3h-1zm351 12l6-6 1 6z"/><path fill-rule="evenodd" class="n" d="m111 10v-10h3v1l-2 6h2v8zm141 2v-12h3v1l1 20-1 4h-2zm111 7l-1-19h3v4zm-258 6v-6h1v3l4 1-2 7h-3v-4h3zm265-1l-4-1 1-3h3zm-156-2l3-1h8l-2 3-4-1-1 4h-1zm171 10l1-9 3 5-2 3zm-163-7l2 1 5 3h-9zm148 10v-4h2l3 4zm28 1l5-1-1 6 2-2 2 3v-4l1 1 1 5-3 1-2 1v-4l-3 2-2-4zm-10 8l2-4h4v6l-3 2 4-1v-5l3 2 1 4-4 5 4 2-1 8-2-2-3 3 3 3-4 8 4 9-2 5-3-4-3-13v-6l3-3-3-3h2l-2-6-1-10zm35-2l7-2 1 5 4-5 3 1v1l-5 6 3-2 2 2v5l-2-1-10-1-2-5zm-44 7l-2-8 4 2 1 8 2-1v2l-1 1-3-1zm34 15l4-11 3 1-4 9-1 1zm-10 7l1-3 3 6-2 7-3 1v7l-2-9v-7l3 1zm-21 3l2-1 2 4 3 4-1 5-1 7-4-1-2 4-2-9 6 2-1-4v-5l-2-4zm-268 11l2-2 5 2-2 2 3 2-4 1-1 1-2-1zm289 15l-2-4 6 2v-2h2l-3 4zm-15 1l-1-5 3 2 1 3zm-129 4l64-2h37v1h-25l-21 1h-31l-8 1h-16zm-79 3l29-2h9l3 1-41 2zm-179 1l19-2 2 5h-21zm437 3v-3h7v3zm-267 2l7-1 11 1 1 3v1l-1 1-2-3-4 1-10-2-9 1-17 1-9 4 1-2 12-4zm-62 21l8-5-10 9 5 2v2l1 5v3l-1-3-1-6-6 2h-1l-4 1-23 25h-14l-1-2h3l5-3 8-3 7-6 1-1 22-19zm65 2l4-6 3 2v2l-5 3zm57 1l-6 3-2-3 2-6h5zm-105-4l3-1-2 7-6 5 1-3-3-2zm-11 11h3l2 3-2 3-3 1zm-17 9l1-2 4 7-4 2-1-3zm279 13l1-5 2 1 5 10-2 12-7-1-1-3-3 2 3-10zm-200 5l9-4-4 7-5-2zm-24 7v-1l4 2 7 1v1l-3 5zm-30 8l12-1v4l-5 3zm43 0l11-1-5 9-6-1-4-6zm-165 9h6l1-5h1v13h-3v-7h-5zm398 8h-22l1-6 13-3 3 2zm-19 25l5-5v-7h-4l2-2h14l-3 2 4 5-3 5 11 2v-2l3 10 1 10h8v1h-24l-6-6 2-7-8-1-1-3zm-323 18l7-4h10l7 5h-24z"/><path fill-rule="evenodd" class="o" d="m240 1v-1h8v7h-7v3l4 1-4 2-1-5v-4l5-1zm-116 24v-14h8v4h-6v3l6 1v5l-7 1zm5 4v-2h3l13 1h10l-5 4-3-1-11 4-7 3h-15l-1-1v-5l5-2 5 2-5 4 7 1-1-2 6-1-4-2zm102 6h3l3-8h1l8 4v3l-5 3 1 4 9 1 4 3 2-2h7l1 3v-3l6-1 1 3-4 3 7 1-10 2h-1l-6-2-10-1 1-2h-8l1 3h-6l1 2-3 1-23 1v-2l-3-1v-2l2-4h8l-3 4h8l-3-4 5-1 3 4 9 1-4-7h1l5 2-2-5-8 1h-1l-1-1zm-75-5h9l-2 3 2 2-4 2h7l2-4 5 1-2-3 6-1 4 5h-6l-6 2 6 4 1 2 3 2-1 3h6l-3 2v2l-15-3 1-2 10-1h-10l1-5-4 2v-5l-2 2-11-3 5-3zm43 2l8-2 2 3-5 2-5 1zm72 10l-5-2 1-2h5l1 3zm14-2l9-2 5 3-2 2-1-2-3 2-9 1zm-172 3l10-1-4 2 2 3-1 2h3l2 3-3-1-7-1 2 2-4 3-4 2 8 4-4 2-3 14 2 13h3l2 1-1 19v-4l-2-1v3l-1 3h-6v-15l1-25v-18l1-7h4zm25 1l6-3 3 4-5 4-4-4zm169-2l5-1 6 2h-8l7 2 2 4h-7l2 3-2 2-7-7 5-1zm-25 4h-8l1-4 7 3zm-140 6l4-1v-4h5l2 2-3 2h6l-1-4h4l-1 3h3l-3 3zm-10 0v-3l7 2zm-7 0l3-2 2 2v5l-1 3h-7l-1-2h4l-2-2zm192 5l10-3v8l-9-1-7 2-1-3-2 2-4-2v-5l7 4 1-2zm-56 1l14-2h2l5 3h14l-9 2h-26zm-139 7l-1-2 4-2h4l1 3-1 7h-3v-5zm200 10l1-5 4 1 1 5-6 2zm-19 15v-9l1 4 5-1 3 5h-4v3zm19 4l1-2-7-4h12v7l-2 1zm-19 8l1-9 6 2 3 4h-6l-2 3zm-184-1l2-3h8v4l-7-1v3h-3zm-12 15v-4l7 1v7zm76 14l3-1h1v2h-6zm153 5l6-1v1l2 3-3 1 1-2-6 1zm-215 10l6-5 2 2 1 8h-3l-9 2v-1l2-3-2-3zm222 1h-4l5-2h-6l1-3h7v3zm-17 27l1-7 2 6zm37-6l-2 5-6 1-3-2 5-1-12-1 2-2zm-11 11l-20-6h16l5 5 6-1zm-296 55l7-3 10 1h-8l3 2-9 3z"/><path fill-rule="evenodd" class="p" d="m325 0h8v1l-3 8-4 2 5 4v4l4-3 4 5-4-1 1 3-4 1-3-1v4l-2-1h-2zm-211 7h-2l2-6zm30 14v-20h36v20zm-32 6l-1-17 3 5v12zm258 4v-7l2 7zm54-2l4-2 6 7 1 1-2 1 2 4-4 5-1-5-5-6zm-37 2l2-3 1 4 3-2 1 10h-4l-2 4zm25 4l2-1 2 5-3 6-3-6 1 9h-5l-1-3 3-1-1-5zm-35 6l-4-2 6-2zm40 1l1-2 1 1 3 1-1 4-2-1-3 5zm21 6l-2-2-3 2 5-6zm-53-3l2-1 1 10-4-2v-2zm-5 13v-6l3 1 1 5zm7 8l1-6 3 3-3 3zm24 2l-4-2 4-4 2 2h2l-2 6-1-4zm-297 17l-1-22 4 2-3 2v7l7 4 5 8-1 6-6 1 2-3h-3l4-1-3-2 2-2-5-2zm7-19l1-1 4 1v5l-2 1zm-120 5v-3h18l-2 4-9-1zm437 0v-3h8v3zm-24 12l-3-2 2-3 6 2v3l-2 1zm5 15l4-3 2 5-2 2h15l-28 2h-50v-1l58-2zm-219 45l1-23v25l4 12-5-3v94h-8v-1l1-6 6-1v-57zm-58-13l-5-3 7-2 15 4-1 3 1 2-1 5-2-1-4 6-5-2-4-2-1-9zm-30 11l15-12-2 3-8 6-5 5zm53-8l3-1h1v4l-4 1zm-81 36l14-15v4l-1 7zm59-4l6-2 2 6-19-1-1-2h8zm-24 17l12-1 3-6v1l1 10-12 1zm42 5l3-5h4l-2 5-4 1zm277 37l4-1 3 4h1v4h-8zm-437 5l5-3 5 2 4-2h13l-8 2 11 2-4 2h-1l-6-3-4 3-15-1zm51 5l4-1 3 3-10 5-4-1z"/><path fill-rule="evenodd" class="q" d="m378 35l-3-9v-25h63v25l-4 8-6-7 1-5-8 2-1 3-2 13-1 2-2-1 1-2 2-6-3-2-1 3-2 1 3-10-11-2-2 3-4-1v16l-4-1-1-10-3 2-1-4-3-5-1 9-2 10 2 3-1 5-2 1-1-8-4-2 2-4zm26-6l4 2-2 7v4l-2-3-2 2zm31 25l1-2 2 1v12l-2 4-3-3-1-7zm-1 24l2-5h1l1 4zm-8 21l-1-17 9-3 4 1v5l-5 2 1 3h4v5h-2l-3-2zm-7-16l4-1v13l-4 3h-4l-6-2 4-4 8-3-4-5zm-9 4l5-2-3 6h-3zm-64 71l9-1-1 9-3 1-1-3-2 3h-1l-3-1z"/><path class="r" d="m186 11v-5h8v-3h-8v-3h9v1 5 9 8l-1 4-2 2-5-2 1-4h5l-1-5 2-7h-4l-1 3zm119 0l3 3 4-5v10 7h-8-1v-2-14zm-1 17l10-2h4l9 2v3l-4-2-1 3h-6-2l-1-3zm-191 4l-1-5h2 9l6 2-3 3h-3l-5-2zm90-3l8-2 1 2-2 5h2l-5 3-3-2 5-2-2-3-8 2-2-3zm26 0l8-2-3 8h-3l-8-1h6zm-44 6l5-2v4h5l-3 4h4l1 3h4l-1 2-7 1-1-4h-6l-2-4 5-2zm114 6l1-6 6 2 3 3-5 1-1 2zm-185-3l-4 2-1-3h3 1zm7 9l6-4h6l5 1v1h-3l-7 1-5 3h-3zm196-2l-7-2h8zm-108 1l-6-2h7zm74 2l6-2 2 3-8 2-1 1h-5-4zm-29 4l4-3 6 2-7 2zm-137 0l-2-2 7 1zm41 1l3-3h12l10 2v-2l4 1-1 2zm35-1l12-2-2 3h-11zm-80 3l10 1 2 2h-4l1 2-5 1-8-4zm198 8l7-2-6 2zm16 6h-8l8-2v-4l1 1zm-69 26l2-30 1 5 25 1v1l-3 1h-5-6-11v6 1l10 1h10 11l7 1-17 1h-6-15v20h-3zm52-26l8-2-3 4 7 4v3l6-2v7h-4l2-3h-7-5-3l4-2-4-4 5-1-3-2zm0 26l12-1 4 2-8 2-4 2h4l-1 2h-12l2-3h6zm-191 17v-7h4l-3 5 6-2 3 3zm-12-1h6l1-3v5l-7-1zm1 25l-1-20 7 4v6l-6 4h4l-3 5zm10-17l5-2 8 2-13 10 2-2-2-2zm47 8l8-3 4 1 1 2h-4v4l-5 1h-1l5-6zm180 4l-3-1 2-5 5 2-1 5zm-164 2v-2h6v10h-4v-1l-2-5zm-47 14l1-5 11 2-7 5-1-3zm221 26l6-1 2-5 2 1-1 7-8 6-4-2v-1l7-2 1-3zm-39 2l1-6 9 4 5 3-4 1 6 3zm-312 41v-2h6l2 7-7 1-1-1z"/><path class="s" d="m370 14v-14h5v1 25l3 9h-3l-3-4-2-7v-4h-3l-2-2 1 20-12-2-5-1-7-3-3-2v-1l24 7v-17l2-15v5 8h5zm-35 2l-4 3v-4l-5-4 4-2 3-8 2 7-2 5h2l2 2zm85 11l1-3 8-2-1 5-4 2zm-22 9v-11l4 1 2-3 11 2-3 10-5 4-1-1 2-7-4-2-1 6zm16-2l1-3 3 2-2 6zm9 4l2-4 5 6-7 2zm-25 6l-3-2v5l-4 1 3-2v-6l4 1zm18 6l3-5 2 1 1 3-2 5-3-1zm-10-2h5l1 5-5 2h-3zm-23 5l1-1 4 2 2 6h-2l-1 6-2 2v-6l-1-4zm42 16v-3l6-1-7-1v-4l3-1h5l1 7h-3l-1 5 3-3 2 2-3 2 1 4 4-3-2 5v1h-7zm-12 6l2-5 8-2v14l-4 1v-3l-6-2zm-27 2l2-5 3 13 2 9-3 2-2-10 1-5zm29 8l-1-2 3 1 4 5-8 3-1-1zm-398 10v-3h1v14h-6l2-4h3zm421 5h-3l1-5h2zm-298 12l12-7v3l15-1 13 1v1l-5 1h-6l-31 5v-1zm-31 59v-1h24l1 5-3 6-12 1zm59 11l6-1 3-8 5 2-1 6-2 4-2 1-11 1zm-63 66l-1-11 3 7v3 1z"/><path fill-rule="evenodd" class="t" d="m434 34l4-8v9h-3zm-49-2l2-1 1 13h-1l-2 1-2-3zm42 27l2-4 6-1-3 5zm-47 3l2 3 3-3v6l2-2h1v6l-2 5-2-4-1-4-3 1zm54 8l-2-2-3 3 1-5h3l3 3zm-7 9l-3-2 1-8zm-48 8v-6l5 4 1 4zm-207 70l6-6h2l4 3-3 2zm-23 6l5-3 2 4-1 4 3 1-1 6-5-1v-3l-3 2-4-4-8 1h-4l-1-2 19 1zm16-2l2 2 3-3 5 4-3 5-4 2-1-3v4l-1-3-2 2v-9zm-1 20l13-9v1l-3 8-6 1h-4zm208 2l3-2 1 3 7 1 8 10-13 3-1 6h22l4 8 2 5 1 10v2l-11-2 3-5-4-5 3-2h-14l-2 2h4v7l-5 5-3-4-1-7 3-1v-4l-4-7-3-14zm-28 27l8-2h5l1 4-3 1 5 3 1 6-3 1zm40 27l-2-3 8 1-2 7 6 6h-12v-2l1-6z"/><path class="u" d="m125 1v-1h8v25 1l-1-2v-5-4-4-4h-8zm116 12l4-2-4-1v-3h7v-7h1v5 13 6 2h-2l1-3-8-2v-5zm64-2l2-2h-4v-9h9v1 8l-4 5zm-120 1l1-1 3 3 1-3h4l-2 7-6 1-1-4v-1zm79 20l-4 2v-3l5-2-7-1h16l-5 1-3 3zm-155 14v-4l4 1v3zm186 5l3-2 6 3h-2-20l1-1h11zm-108 0l6 1-1 1h-6zm16 2l2-3h3l3 1v2zm34-2h10l1 1h-14zm-115 9h7l1-3v7l-1-3h-4l-4 2 1 2-1 1-4-1-4-2 4-2zm-7 30h-3l-2-13 3-14 1 22zm101 14l2-39 1 7v6 1l-1 3 17-1 9-2h1l11 1 1 1v1l-7 1h-9-2-21v21h5l-7 1zm-42 3l2-41 1 6v7 3l37-1v1l-7 1h-13-2-15v6l-1 17v1zm127-11v-30h2v15 9l1 3-1 9h-2zm-164-13l10-2-5 2zm-19 33l1-12v1 7zm46 5h4l-3 6 8-1-5 6-3 1-3-3 1-2-7-3 7-1zm181 10l3 1 1-5 1 1 1 7-1 2-4 4h-7l2-2 3-1 4-4-6 1v-1-2zm-185 12l4-5 1 3 3 5 7-4 2 2-1 7-9-1-5-1v-3h-4zm166 30l3-1h3l20 6v1l-7 2h-1l-10-5h-3zm-11 4l1-2 17 5h4l-4 1-17 3zm127 46l-1-10 4 1v13zm-369 8l5-1 10 6h-8l-18-1 6-2-3-2zm-35 17l7-8 4 1v1l-6 6z"/><path class="v" d="m0 1v-1h106v1h-12-45-8-16-12-5-7zm114 0v-1h11v1zm81 0v-1h45v1h-16zm117 0v-1h13v1h-9zm133 0v-1h1v68h-1v-2-4-50-6zm-445 98v-19l1 5v2zm0 104v-99h1v2 3 3 9 18 5 12 5 17 7 11 1 6zm445-91v-3h1v83h-1v-3-70z"/><path class="w" d="m107 248v-1h3 17 10 55v1zm93 0v-1h130v1z"/><path class="x" d="m375 1v-1h70v1h-7zm-375 28v-28h1v6 10 9zm0 21v-10l1 10zm0 23v-16l1 9v2 3 2zm0 141v-11h1v7 4z"/><path class="y" d="m1 248v-1h22v1zm330 0l1-1h11 4v1zm30 0v-1h3 9v1z"/><path class="z" d="m144 1v-1h36v1zm301 193v-2h1v12h-1z"/><path class="A" d="m339 1v-1h19v1h-9zm106 84v-14h1v14zm0 17l1-11v11zm0 110v-8h1v10h-1z"/><path class="B" d="m445 227v-13h1v13zm0 14v-10h1v10z"/><path class="a" d="m59 30h7v6h-5zm21 0l6 3-1 10h-7zm0 35l5 6-1 2-6-2-1-4zm-25 26h4l1 5h-5z"/><path class="c" d="m335 46h-6l3-4z"/><path class="d" d="m295 37l2-3-6-2h8v5zm-78 103l2-2v3l3-1 2 5-2 3-4-1zm64 11l2-5 2 3 3-2 1 9h-8z"/><path class="e" d="m409 109h6l1 6h-7zm-375 41h3v6l-5-1zm-18 11h4v5h-7z"/><path class="f" d="m242 14l6 1v3h-6zm3 134l3 6-2 3-9-2-3-9 1 3h6zm51 1l5-3-1 10-5-1v-4zm106 37l5 1v4l-5 1v4l-7-4v-4z"/><path class="g" d="m141 21l-2-8 4-6zm209 65l3 4v4l-3 1z"/><path class="i" d="m294 145l3-2 4 3-5 3zm-65 6h-4l-1-4 7-1zm50-5h4l-2 5-6-2zm112 20h-8l3-4h4z"/><path class="j" d="m115 155l3 11h-3z"/><path class="k" d="m275 149l-4 1v-5l7-2 1 3zm-34 0l1-3 3 2z"/><path class="l" d="m343 62v-5h3l5 2h-3l-1 4zm-111 8l5 3-1 5h-7zm32 75l3 2 1-2v5l-2-2-2 2z"/><path fill-rule="evenodd" class="m" d="m332 42v-5l8 4-4 3 3 4-4-2zm10 2h4l1 4-5-1zm4 13l5-2 2 2 3-4 1 6 3 1-9-1zm20-1h6l1 3-4-1 1 4zm-19 7l3 2-7 3-2 7h-4l2-6-4-3h6l2-4zm8 10l-4-1v-4l4-2zm-23 11l4 6-5-2zm-173 1l4 1v3l-4 1zm-4 11l6 1v4l-3-1-2 4zm144 33h3l1 10h-3v-3l-6 3-1-7 3-2 2 2zm6 0l7 1v5l-7 4zm-63 2h3v9h-3zm42 2l1-2 5 7h-5zm-67 7l-1-2v3h-3v-9l5 3 4-3v8l-3 1v-3zm86 5l4 2 1-2v4h-5zm-74 6l2-5 2 5z"/><path class="n" d="m285 131h6l-1 7zm-127 1l-7 7-3-1 2-4-3-2z"/><path fill-rule="evenodd" class="p" d="m285 138l-7 2-3-3 3-7 6 3zm-63 10l-3 3-1-4z"/><path class="r" d="m305 1h6v3zm-112 31l5 3-4 1zm17 5h8v3h-6z"/><path class="s" d="m254 144l7 1 1 4-9 1zm59 5l-1-5v3l4-2v4zm-18 2l-6-4 5-2 2 4z"/><path class="u" d="m283 31l4 3h-5z"/></svg>