<svg width="510" height="499" viewBox="0 0 510 499" fill="none" xmlns="http://www.w3.org/2000/svg">
<path d="M211.5 99C173.668 99 143 75.7188 143 47C143 47 173.668 47.0004 211.5 47.0004C249.331 47.0004 280 47 280 47C280 75.7188 249.331 99 211.5 99Z" fill="#FAFF00" fill-opacity="0.5"/>
<g clip-path="url(#clip0_303_2998)">
<path d="M500.538 103.962C499.089 105.151 499.103 107.089 500.568 108.291C502.032 109.494 504.394 109.505 505.843 108.316C507.292 107.127 507.278 105.188 505.813 103.986C504.348 102.784 501.986 102.773 500.538 103.962Z" fill="#D5435D" fill-opacity="0.6"/>
<path d="M490.047 112.572C488.598 113.761 488.611 115.699 490.076 116.902C491.541 118.104 493.903 118.115 495.352 116.926C496.8 115.737 496.787 113.799 495.322 112.596C493.857 111.394 491.495 111.383 490.047 112.572Z" fill="#D5435D" fill-opacity="0.6"/>
<path d="M479.555 121.183C478.107 122.372 478.12 124.311 479.585 125.513C481.05 126.715 483.412 126.726 484.861 125.537C486.309 124.349 486.296 122.41 484.831 121.208C483.366 120.005 481.004 119.995 479.555 121.183Z" fill="#D5435D" fill-opacity="0.6"/>
<path d="M469.064 129.794C467.616 130.983 467.629 132.921 469.094 134.123C470.559 135.326 472.921 135.337 474.369 134.148C475.818 132.959 475.805 131.02 474.34 129.818C472.875 128.616 470.513 128.605 469.064 129.794Z" fill="#D5435D" fill-opacity="0.6"/>
<path d="M458.573 138.404C457.124 139.593 457.138 141.531 458.603 142.734C460.068 143.936 462.43 143.947 463.878 142.758C465.327 141.569 465.313 139.631 463.848 138.428C462.383 137.226 460.022 137.215 458.573 138.404Z" fill="#D5435D" fill-opacity="0.6"/>
<path d="M448.08 147.016C446.631 148.205 446.645 150.144 448.11 151.346C449.574 152.548 451.936 152.559 453.385 151.37C454.834 150.182 454.82 148.243 453.355 147.041C451.89 145.838 449.528 145.828 448.08 147.016Z" fill="#D5435D" fill-opacity="0.6"/>
<path d="M437.589 155.627C436.14 156.816 436.153 158.754 437.618 159.956C439.083 161.159 441.445 161.17 442.894 159.981C444.342 158.792 444.329 156.853 442.864 155.651C441.399 154.449 439.037 154.438 437.589 155.627Z" fill="#D5435D" fill-opacity="0.6"/>
<path d="M427.097 164.237C425.649 165.426 425.662 167.364 427.127 168.567C428.592 169.769 430.954 169.78 432.403 168.591C433.851 167.402 433.838 165.464 432.373 164.261C430.908 163.059 428.546 163.048 427.097 164.237Z" fill="#D5435D" fill-opacity="0.6"/>
<path d="M416.605 172.847C415.157 174.036 415.17 175.975 416.635 177.177C418.1 178.379 420.462 178.39 421.91 177.201C423.359 176.013 423.346 174.074 421.881 172.872C420.416 171.669 418.054 171.659 416.605 172.847Z" fill="#D5435D" fill-opacity="0.6"/>
<path d="M406.114 181.458C404.665 182.647 404.679 184.585 406.144 185.787C407.609 186.99 409.971 187.001 411.419 185.812C412.868 184.623 412.854 182.685 411.389 181.482C409.924 180.28 407.563 180.269 406.114 181.458Z" fill="#D5435D" fill-opacity="0.6"/>
<path d="M489.928 95.2547C488.48 96.4436 488.493 98.382 489.958 99.5844C491.423 100.787 493.785 100.798 495.234 99.6087C496.682 98.4198 496.669 96.4814 495.204 95.279C493.739 94.0767 491.377 94.0658 489.928 95.2547Z" fill="#D5435D" fill-opacity="0.6"/>
<path d="M479.437 103.864C477.989 105.053 478.002 106.991 479.467 108.194C480.932 109.396 483.294 109.407 484.742 108.218C486.191 107.029 486.178 105.091 484.713 103.888C483.248 102.686 480.886 102.675 479.437 103.864Z" fill="#D5435D" fill-opacity="0.6"/>
<path d="M468.945 112.475C467.497 113.664 467.51 115.603 468.975 116.805C470.44 118.007 472.802 118.018 474.25 116.829C475.699 115.641 475.685 113.702 474.221 112.5C472.756 111.297 470.394 111.287 468.945 112.475Z" fill="#D5435D" fill-opacity="0.6"/>
<path d="M458.454 121.086C457.005 122.275 457.019 124.213 458.484 125.415C459.948 126.618 462.31 126.629 463.759 125.44C465.208 124.251 465.194 122.312 463.729 121.11C462.264 119.908 459.902 119.897 458.454 121.086Z" fill="#D5435D" fill-opacity="0.6"/>
<path d="M447.963 129.696C446.514 130.885 446.527 132.823 447.992 134.026C449.457 135.228 451.819 135.239 453.268 134.05C454.716 132.861 454.703 130.923 453.238 129.72C451.773 128.518 449.411 128.507 447.963 129.696Z" fill="#D5435D" fill-opacity="0.6"/>
<path d="M437.469 138.308C436.021 139.497 436.034 141.436 437.499 142.638C438.964 143.84 441.326 143.851 442.775 142.662C444.223 141.474 444.21 139.535 442.745 138.333C441.28 137.13 438.918 137.12 437.469 138.308Z" fill="#D5435D" fill-opacity="0.6"/>
<path d="M426.978 146.919C425.53 148.108 425.543 150.046 427.008 151.248C428.473 152.451 430.835 152.462 432.283 151.273C433.732 150.084 433.719 148.145 432.254 146.943C430.789 145.741 428.427 145.73 426.978 146.919Z" fill="#D5435D" fill-opacity="0.6"/>
<path d="M416.487 155.529C415.038 156.718 415.052 158.656 416.517 159.859C417.982 161.061 420.344 161.072 421.792 159.883C423.241 158.694 423.227 156.756 421.762 155.553C420.298 154.351 417.936 154.34 416.487 155.529Z" fill="#D5435D" fill-opacity="0.6"/>
<path d="M405.996 164.139C404.547 165.328 404.561 167.267 406.026 168.469C407.49 169.671 409.852 169.682 411.301 168.493C412.75 167.305 412.736 165.366 411.271 164.164C409.806 162.961 407.444 162.951 405.996 164.139Z" fill="#D5435D" fill-opacity="0.6"/>
<path d="M395.505 172.75C394.056 173.939 394.069 175.877 395.534 177.079C396.999 178.282 399.361 178.293 400.81 177.104C402.258 175.915 402.245 173.976 400.78 172.774C399.315 171.572 396.953 171.561 395.505 172.75Z" fill="#D5435D" fill-opacity="0.6"/>
<path d="M479.318 86.5467C477.87 87.7356 477.883 89.674 479.348 90.8764C480.813 92.0787 483.175 92.0896 484.623 90.9007C486.072 89.7118 486.059 87.7734 484.594 86.571C483.129 85.3687 480.767 85.3578 479.318 86.5467Z" fill="#D5435D" fill-opacity="0.6"/>
<path d="M468.827 95.157C467.378 96.3459 467.392 98.2844 468.857 99.4867C470.322 100.689 472.683 100.7 474.132 99.5111C475.581 98.3222 475.567 96.3837 474.102 95.1814C472.637 93.9791 470.275 93.9682 468.827 95.157Z" fill="#D5435D" fill-opacity="0.6"/>
<path d="M458.336 103.767C456.887 104.956 456.9 106.895 458.365 108.097C459.83 109.299 462.192 109.31 463.641 108.121C465.089 106.933 465.076 104.994 463.611 103.792C462.146 102.589 459.784 102.579 458.336 103.767Z" fill="#D5435D" fill-opacity="0.6"/>
<path d="M447.844 112.378C446.396 113.567 446.409 115.505 447.874 116.707C449.339 117.91 451.701 117.921 453.15 116.732C454.598 115.543 454.585 113.604 453.12 112.402C451.655 111.2 449.293 111.189 447.844 112.378Z" fill="#D5435D" fill-opacity="0.6"/>
<path d="M437.353 120.988C435.905 122.177 435.918 124.115 437.383 125.318C438.848 126.52 441.21 126.531 442.658 125.342C444.107 124.153 444.094 122.215 442.629 121.012C441.164 119.81 438.802 119.799 437.353 120.988Z" fill="#D5435D" fill-opacity="0.6"/>
<path d="M426.859 129.6C425.411 130.789 425.424 132.728 426.889 133.93C428.354 135.132 430.716 135.143 432.164 133.954C433.613 132.766 433.6 130.827 432.135 129.625C430.67 128.422 428.308 128.412 426.859 129.6Z" fill="#D5435D" fill-opacity="0.6"/>
<path d="M416.368 138.211C414.919 139.4 414.933 141.338 416.398 142.54C417.863 143.743 420.224 143.754 421.673 142.565C423.122 141.376 423.108 139.437 421.643 138.235C420.178 137.033 417.817 137.022 416.368 138.211Z" fill="#D5435D" fill-opacity="0.6"/>
<path d="M405.877 146.821C404.428 148.01 404.441 149.948 405.906 151.151C407.371 152.353 409.733 152.364 411.182 151.175C412.63 149.986 412.617 148.048 411.152 146.845C409.687 145.643 407.325 145.632 405.877 146.821Z" fill="#D5435D" fill-opacity="0.6"/>
<path d="M395.386 155.431C393.937 156.62 393.95 158.559 395.415 159.761C396.88 160.963 399.242 160.974 400.691 159.785C402.139 158.597 402.126 156.658 400.661 155.456C399.196 154.253 396.834 154.243 395.386 155.431Z" fill="#D5435D" fill-opacity="0.6"/>
<path d="M384.894 164.042C383.446 165.231 383.459 167.169 384.924 168.371C386.389 169.574 388.751 169.585 390.199 168.396C391.648 167.207 391.635 165.268 390.17 164.066C388.705 162.864 386.343 162.853 384.894 164.042Z" fill="#D5435D" fill-opacity="0.6"/>
<path d="M468.708 77.8377C467.259 79.0266 467.272 80.965 468.737 82.1674C470.202 83.3697 472.564 83.3806 474.013 82.1917C475.461 81.0028 475.448 79.0644 473.983 77.8621C472.518 76.6597 470.156 76.6488 468.708 77.8377Z" fill="#D5435D" fill-opacity="0.6"/>
<path d="M458.217 86.4481C456.768 87.6369 456.781 89.5754 458.246 90.7777C459.711 91.9801 462.073 91.991 463.522 90.8021C464.97 89.6132 464.957 87.6747 463.492 86.4724C462.027 85.2701 459.665 85.2592 458.217 86.4481Z" fill="#D5435D" fill-opacity="0.6"/>
<path d="M447.724 95.0584C446.276 96.2473 446.289 98.1857 447.754 99.3881C449.219 100.59 451.581 100.601 453.029 99.4124C454.478 98.2235 454.465 96.2851 453 95.0828C451.535 93.8804 449.173 93.8695 447.724 95.0584Z" fill="#D5435D" fill-opacity="0.6"/>
<path d="M437.233 103.669C435.785 104.858 435.798 106.796 437.263 107.998C438.728 109.201 441.09 109.212 442.538 108.023C443.987 106.834 443.974 104.895 442.509 103.693C441.044 102.491 438.682 102.48 437.233 103.669Z" fill="#D5435D" fill-opacity="0.6"/>
<path d="M426.742 112.279C425.293 113.468 425.307 115.406 426.772 116.609C428.237 117.811 430.598 117.822 432.047 116.633C433.496 115.444 433.482 113.506 432.017 112.303C430.552 111.101 428.191 111.09 426.742 112.279Z" fill="#D5435D" fill-opacity="0.6"/>
<path d="M416.249 120.891C414.8 122.08 414.813 124.019 416.278 125.221C417.743 126.423 420.105 126.434 421.554 125.245C423.002 124.057 422.989 122.118 421.524 120.916C420.059 119.713 417.697 119.703 416.249 120.891Z" fill="#D5435D" fill-opacity="0.6"/>
<path d="M405.758 129.502C404.309 130.691 404.322 132.629 405.787 133.831C407.252 135.034 409.614 135.045 411.063 133.856C412.511 132.667 412.498 130.728 411.033 129.526C409.568 128.324 407.206 128.313 405.758 129.502Z" fill="#D5435D" fill-opacity="0.6"/>
<path d="M395.266 138.113C393.818 139.302 393.831 141.24 395.296 142.443C396.761 143.645 399.123 143.656 400.571 142.467C402.02 141.278 402.007 139.34 400.542 138.137C399.077 136.935 396.715 136.924 395.266 138.113Z" fill="#D5435D" fill-opacity="0.6"/>
<path d="M384.775 146.723C383.327 147.912 383.34 149.851 384.805 151.053C386.27 152.255 388.632 152.266 390.08 151.077C391.529 149.889 391.516 147.95 390.051 146.748C388.586 145.545 386.224 145.535 384.775 146.723Z" fill="#D5435D" fill-opacity="0.6"/>
<path d="M374.284 155.334C372.835 156.523 372.849 158.461 374.314 159.663C375.779 160.866 378.14 160.877 379.589 159.688C381.038 158.499 381.024 156.56 379.559 155.358C378.094 154.156 375.733 154.145 374.284 155.334Z" fill="#D5435D" fill-opacity="0.6"/>
<path d="M458.097 69.1297C456.649 70.3186 456.662 72.257 458.127 73.4594C459.592 74.6617 461.954 74.6726 463.403 73.4837C464.851 72.2948 464.838 70.3564 463.373 69.154C461.908 67.9517 459.546 67.9408 458.097 69.1297Z" fill="#D5435D" fill-opacity="0.6"/>
<path d="M447.606 77.74C446.158 78.9289 446.171 80.8674 447.636 82.0697C449.101 83.272 451.463 83.2829 452.911 82.0941C454.36 80.9052 454.347 78.9667 452.882 77.7644C451.417 76.5621 449.055 76.5512 447.606 77.74Z" fill="#D5435D" fill-opacity="0.6"/>
<path d="M437.114 86.3514C435.665 87.5403 435.679 89.4787 437.144 90.681C438.609 91.8834 440.971 91.8943 442.419 90.7054C443.868 89.5165 443.854 87.5781 442.389 86.3757C440.924 85.1734 438.563 85.1625 437.114 86.3514Z" fill="#D5435D" fill-opacity="0.6"/>
<path d="M426.624 94.9607C425.175 96.1496 425.188 98.0881 426.653 99.2904C428.118 100.493 430.48 100.504 431.929 99.3148C433.377 98.1259 433.364 96.1874 431.899 94.9851C430.434 93.7828 428.072 93.7719 426.624 94.9607Z" fill="#D5435D" fill-opacity="0.6"/>
<path d="M416.133 103.571C414.684 104.76 414.697 106.698 416.162 107.901C417.627 109.103 419.989 109.114 421.438 107.925C422.886 106.736 422.873 104.798 421.408 103.595C419.943 102.393 417.581 102.382 416.133 103.571Z" fill="#D5435D" fill-opacity="0.6"/>
<path d="M405.638 112.183C404.19 113.372 404.203 115.311 405.668 116.513C407.133 117.715 409.495 117.726 410.944 116.537C412.392 115.349 412.379 113.41 410.914 112.208C409.449 111.005 407.087 110.995 405.638 112.183Z" fill="#D5435D" fill-opacity="0.6"/>
<path d="M395.147 120.795C393.699 121.984 393.712 123.922 395.177 125.124C396.642 126.327 399.004 126.338 400.452 125.149C401.901 123.96 401.888 122.021 400.423 120.819C398.958 119.617 396.596 119.606 395.147 120.795Z" fill="#D5435D" fill-opacity="0.6"/>
<path d="M384.656 129.405C383.207 130.594 383.221 132.532 384.686 133.735C386.151 134.937 388.513 134.948 389.961 133.759C391.41 132.57 391.396 130.632 389.931 129.429C388.466 128.227 386.105 128.216 384.656 129.405Z" fill="#D5435D" fill-opacity="0.6"/>
<path d="M374.165 138.015C372.716 139.204 372.73 141.143 374.194 142.345C375.659 143.547 378.021 143.558 379.47 142.369C380.918 141.181 380.905 139.242 379.44 138.04C377.975 136.837 375.613 136.827 374.165 138.015Z" fill="#D5435D" fill-opacity="0.6"/>
<path d="M363.674 146.626C362.225 147.815 362.238 149.753 363.703 150.955C365.168 152.158 367.53 152.169 368.979 150.98C370.427 149.791 370.414 147.852 368.949 146.65C367.484 145.448 365.122 145.437 363.674 146.626Z" fill="#D5435D" fill-opacity="0.6"/>
<path d="M447.487 60.4217C446.038 61.6106 446.052 63.549 447.517 64.7514C448.982 65.9537 451.344 65.9646 452.792 64.7757C454.241 63.5868 454.227 61.6484 452.762 60.446C451.298 59.2437 448.936 59.2328 447.487 60.4217Z" fill="#D5435D" fill-opacity="0.6"/>
<path d="M436.996 69.032C435.547 70.2209 435.561 72.1594 437.026 73.3617C438.49 74.564 440.852 74.5749 442.301 73.3861C443.75 72.1972 443.736 70.2587 442.271 69.0564C440.806 67.8541 438.444 67.8432 436.996 69.032Z" fill="#D5435D" fill-opacity="0.6"/>
<path d="M426.505 77.6434C425.056 78.8322 425.069 80.7707 426.534 81.973C427.999 83.1754 430.361 83.1863 431.81 81.9974C433.258 80.8085 433.245 78.87 431.78 77.6677C430.315 76.4654 427.953 76.4545 426.505 77.6434Z" fill="#D5435D" fill-opacity="0.6"/>
<path d="M416.013 86.2537C414.565 87.4426 414.578 89.3811 416.043 90.5834C417.508 91.7857 419.87 91.7966 421.319 90.6077C422.767 89.4189 422.754 87.4804 421.289 86.2781C419.824 85.0757 417.462 85.0648 416.013 86.2537Z" fill="#D5435D" fill-opacity="0.6"/>
<path d="M405.522 94.8641C404.074 96.053 404.087 97.9914 405.552 99.1937C407.017 100.396 409.379 100.407 410.827 99.2181C412.276 98.0292 412.263 96.0908 410.798 94.8884C409.333 93.6861 406.971 93.6752 405.522 94.8641Z" fill="#D5435D" fill-opacity="0.6"/>
<path d="M395.029 103.476C393.58 104.665 393.594 106.604 395.059 107.806C396.524 109.008 398.886 109.019 400.334 107.83C401.783 106.642 401.769 104.703 400.304 103.501C398.84 102.298 396.478 102.287 395.029 103.476Z" fill="#D5435D" fill-opacity="0.6"/>
<path d="M384.538 112.087C383.089 113.276 383.103 115.214 384.568 116.416C386.032 117.619 388.394 117.63 389.843 116.441C391.292 115.252 391.278 113.313 389.813 112.111C388.348 110.909 385.986 110.898 384.538 112.087Z" fill="#D5435D" fill-opacity="0.6"/>
<path d="M374.047 120.697C372.598 121.886 372.611 123.824 374.076 125.027C375.541 126.229 377.903 126.24 379.352 125.051C380.8 123.862 380.787 121.924 379.322 120.721C377.857 119.519 375.495 119.508 374.047 120.697Z" fill="#D5435D" fill-opacity="0.6"/>
<path d="M363.554 129.307C362.106 130.496 362.119 132.435 363.584 133.637C365.049 134.839 367.411 134.85 368.86 133.661C370.308 132.473 370.295 130.534 368.83 129.332C367.365 128.129 365.003 128.119 363.554 129.307Z" fill="#D5435D" fill-opacity="0.6"/>
<path d="M353.063 137.918C351.615 139.107 351.628 141.045 353.093 142.247C354.558 143.45 356.92 143.461 358.368 142.272C359.817 141.083 359.804 139.144 358.339 137.942C356.874 136.74 354.512 136.729 353.063 137.918Z" fill="#D5435D" fill-opacity="0.6"/>
<path d="M436.878 51.7137C435.429 52.9026 435.442 54.841 436.907 56.0433C438.372 57.2457 440.734 57.2566 442.183 56.0677C443.631 54.8788 443.618 52.9404 442.153 51.738C440.688 50.5357 438.326 50.5248 436.878 51.7137Z" fill="#D5435D" fill-opacity="0.6"/>
<path d="M426.386 60.324C424.938 61.5129 424.951 63.4514 426.416 64.6537C427.881 65.856 430.243 65.8669 431.692 64.678C433.14 63.4892 433.127 61.5507 431.662 60.3484C430.197 59.1461 427.835 59.1352 426.386 60.324Z" fill="#D5435D" fill-opacity="0.6"/>
<path d="M415.894 68.9354C414.446 70.1242 414.459 72.0627 415.924 73.265C417.389 74.4674 419.751 74.4783 421.199 73.2894C422.648 72.1005 422.635 70.162 421.17 68.9597C419.705 67.7574 417.343 67.7465 415.894 68.9354Z" fill="#D5435D" fill-opacity="0.6"/>
<path d="M405.403 77.5457C403.955 78.7346 403.968 80.6731 405.433 81.8754C406.898 83.0777 409.26 83.0886 410.708 81.8997C412.157 80.7108 412.143 78.7724 410.679 77.5701C409.214 76.3677 406.852 76.3568 405.403 77.5457Z" fill="#D5435D" fill-opacity="0.6"/>
<path d="M394.912 86.1561C393.463 87.3449 393.477 89.2834 394.942 90.4857C396.407 91.6881 398.768 91.699 400.217 90.5101C401.666 89.3212 401.652 87.3827 400.187 86.1804C398.722 84.9781 396.36 84.9672 394.912 86.1561Z" fill="#D5435D" fill-opacity="0.6"/>
<path d="M384.419 94.7684C382.97 95.9572 382.983 97.8957 384.448 99.098C385.913 100.3 388.275 100.311 389.724 99.1224C391.172 97.9335 391.159 95.995 389.694 94.7927C388.229 93.5904 385.867 93.5795 384.419 94.7684Z" fill="#D5435D" fill-opacity="0.6"/>
<path d="M373.927 103.379C372.479 104.568 372.492 106.506 373.957 107.708C375.422 108.911 377.784 108.922 379.233 107.733C380.681 106.544 380.668 104.605 379.203 103.403C377.738 102.201 375.376 102.19 373.927 103.379Z" fill="#D5435D" fill-opacity="0.6"/>
<path d="M363.436 111.989C361.988 113.178 362.001 115.116 363.466 116.319C364.931 117.521 367.293 117.532 368.741 116.343C370.19 115.154 370.177 113.216 368.712 112.013C367.247 110.811 364.885 110.8 363.436 111.989Z" fill="#D5435D" fill-opacity="0.6"/>
<path d="M352.945 120.599C351.496 121.788 351.51 123.727 352.975 124.929C354.44 126.131 356.802 126.142 358.25 124.953C359.699 123.765 359.685 121.826 358.221 120.624C356.756 119.421 354.394 119.411 352.945 120.599Z" fill="#D5435D" fill-opacity="0.6"/>
<path d="M342.454 129.21C341.005 130.399 341.019 132.337 342.484 133.539C343.948 134.742 346.31 134.753 347.759 133.564C349.208 132.375 349.194 130.436 347.729 129.234C346.264 128.032 343.902 128.021 342.454 129.21Z" fill="#D5435D" fill-opacity="0.6"/>
<path d="M426.266 43.0057C424.818 44.1946 424.831 46.133 426.296 47.3353C427.761 48.5377 430.123 48.5486 431.571 47.3597C433.02 46.1708 433.007 44.2324 431.542 43.03C430.077 41.8277 427.715 41.8168 426.266 43.0057Z" fill="#D5435D" fill-opacity="0.6"/>
<path d="M415.775 51.616C414.327 52.8049 414.34 54.7434 415.805 55.9457C417.27 57.148 419.632 57.1589 421.08 55.97C422.529 54.7812 422.516 52.8427 421.051 51.6404C419.586 50.438 417.224 50.4271 415.775 51.616Z" fill="#D5435D" fill-opacity="0.6"/>
<path d="M405.284 60.2264C403.835 61.4153 403.849 63.3537 405.314 64.556C406.779 65.7584 409.14 65.7693 410.589 64.5804C412.038 63.3915 412.024 61.4531 410.559 60.2507C409.094 59.0484 406.733 59.0375 405.284 60.2264Z" fill="#D5435D" fill-opacity="0.6"/>
<path d="M394.793 68.8367C393.344 70.0256 393.357 71.9641 394.822 73.1664C396.287 74.3687 398.649 74.3796 400.098 73.1907C401.546 72.0019 401.533 70.0634 400.068 68.8611C398.603 67.6587 396.241 67.6478 394.793 68.8367Z" fill="#D5435D" fill-opacity="0.6"/>
<path d="M384.302 77.4471C382.853 78.636 382.866 80.5744 384.331 81.7767C385.796 82.9791 388.158 82.99 389.607 81.8011C391.055 80.6122 391.042 78.6738 389.577 77.4714C388.112 76.2691 385.75 76.2582 384.302 77.4471Z" fill="#D5435D" fill-opacity="0.6"/>
<path d="M373.807 86.0594C372.359 87.2483 372.372 89.1867 373.837 90.3891C375.302 91.5914 377.664 91.6023 379.112 90.4134C380.561 89.2245 380.548 87.2861 379.083 86.0837C377.618 84.8814 375.256 84.8705 373.807 86.0594Z" fill="#D5435D" fill-opacity="0.6"/>
<path d="M363.316 94.6697C361.868 95.8586 361.881 97.7971 363.346 98.9994C364.811 100.202 367.173 100.213 368.621 99.0238C370.07 97.8349 370.057 95.8964 368.592 94.6941C367.127 93.4918 364.765 93.4809 363.316 94.6697Z" fill="#D5435D" fill-opacity="0.6"/>
<path d="M352.825 103.28C351.376 104.469 351.39 106.407 352.855 107.61C354.32 108.812 356.681 108.823 358.13 107.634C359.579 106.445 359.565 104.507 358.1 103.304C356.635 102.102 354.274 102.091 352.825 103.28Z" fill="#D5435D" fill-opacity="0.6"/>
<path d="M342.334 111.89C340.885 113.079 340.898 115.018 342.363 116.22C343.828 117.422 346.19 117.433 347.639 116.244C349.087 115.056 349.074 113.117 347.609 111.915C346.144 110.712 343.782 110.702 342.334 111.89Z" fill="#D5435D" fill-opacity="0.6"/>
<path d="M331.843 120.501C330.394 121.69 330.407 123.628 331.872 124.83C333.337 126.033 335.699 126.044 337.148 124.855C338.596 123.666 338.583 121.727 337.118 120.525C335.653 119.323 333.291 119.312 331.843 120.501Z" fill="#D5435D" fill-opacity="0.6"/>
<path d="M415.656 34.2977C414.207 35.4865 414.221 37.425 415.686 38.6273C417.151 39.8297 419.513 39.8406 420.961 38.6517C422.41 37.4628 422.396 35.5243 420.931 34.322C419.466 33.1197 417.105 33.1088 415.656 34.2977Z" fill="#D5435D" fill-opacity="0.6"/>
<path d="M405.166 42.908C403.717 44.0969 403.73 46.0354 405.195 47.2377C406.66 48.44 409.022 48.4509 410.471 47.262C411.919 46.0732 411.906 44.1347 410.441 42.9324C408.976 41.73 406.614 41.7191 405.166 42.908Z" fill="#D5435D" fill-opacity="0.6"/>
<path d="M394.674 51.5184C393.225 52.7072 393.238 54.6457 394.703 55.848C396.168 57.0504 398.53 57.0613 399.979 55.8724C401.427 54.6835 401.414 52.745 399.949 51.5427C398.484 50.3404 396.122 50.3295 394.674 51.5184Z" fill="#D5435D" fill-opacity="0.6"/>
<path d="M384.182 60.1287C382.734 61.3176 382.747 63.2561 384.212 64.4584C385.677 65.6607 388.039 65.6716 389.487 64.4827C390.936 63.2939 390.923 61.3554 389.458 60.1531C387.993 58.9507 385.631 58.9398 384.182 60.1287Z" fill="#D5435D" fill-opacity="0.6"/>
<path d="M373.691 68.7391C372.243 69.928 372.256 71.8664 373.721 73.0687C375.186 74.2711 377.548 74.282 378.996 73.0931C380.445 71.9042 380.432 69.9657 378.967 68.7634C377.502 67.5611 375.14 67.5502 373.691 68.7391Z" fill="#D5435D" fill-opacity="0.6"/>
<path d="M363.198 77.3514C361.749 78.5403 361.763 80.4787 363.228 81.681C364.693 82.8834 367.055 82.8943 368.503 81.7054C369.952 80.5165 369.938 78.5781 368.473 77.3757C367.008 76.1734 364.647 76.1625 363.198 77.3514Z" fill="#D5435D" fill-opacity="0.6"/>
<path d="M352.707 85.9617C351.258 87.1506 351.271 89.0891 352.736 90.2914C354.201 91.4937 356.563 91.5046 358.012 90.3157C359.46 89.1269 359.447 87.1884 357.982 85.9861C356.517 84.7837 354.155 84.7728 352.707 85.9617Z" fill="#D5435D" fill-opacity="0.6"/>
<path d="M342.216 94.5721C340.767 95.761 340.78 97.6994 342.245 98.9017C343.71 100.104 346.072 100.115 347.521 98.9261C348.969 97.7372 348.956 95.7988 347.491 94.5964C346.026 93.3941 343.664 93.3832 342.216 94.5721Z" fill="#D5435D" fill-opacity="0.6"/>
<path d="M331.724 103.183C330.276 104.372 330.289 106.311 331.754 107.513C333.219 108.715 335.581 108.726 337.029 107.537C338.478 106.349 338.465 104.41 337 103.208C335.535 102.005 333.173 101.995 331.724 103.183Z" fill="#D5435D" fill-opacity="0.6"/>
<path d="M321.233 111.794C319.785 112.983 319.798 114.921 321.263 116.123C322.728 117.326 325.09 117.337 326.538 116.148C327.987 114.959 327.974 113.02 326.509 111.818C325.044 110.616 322.682 110.605 321.233 111.794Z" fill="#D5435D" fill-opacity="0.6"/>
<path d="M405.047 25.5897C403.598 26.7785 403.611 28.717 405.076 29.9193C406.541 31.1217 408.903 31.1326 410.352 29.9437C411.8 28.7548 411.787 26.8163 410.322 25.614C408.857 24.4117 406.495 24.4008 405.047 25.5897Z" fill="#D5435D" fill-opacity="0.6"/>
<path d="M394.555 34.2C393.107 35.3889 393.12 37.3273 394.585 38.5297C396.05 39.732 398.412 39.7429 399.861 38.554C401.309 37.3651 401.296 35.4267 399.831 34.2244C398.366 33.022 396.004 33.0111 394.555 34.2Z" fill="#D5435D" fill-opacity="0.6"/>
<path d="M384.063 42.8104C382.615 43.9992 382.628 45.9377 384.093 47.14C385.558 48.3424 387.92 48.3533 389.368 47.1644C390.817 45.9755 390.804 44.037 389.339 42.8347C387.874 41.6324 385.512 41.6215 384.063 42.8104Z" fill="#D5435D" fill-opacity="0.6"/>
<path d="M373.573 51.4207C372.124 52.6096 372.138 54.5481 373.603 55.7504C375.068 56.9527 377.43 56.9636 378.878 55.7747C380.327 54.5858 380.313 52.6474 378.848 51.4451C377.383 50.2427 375.022 50.2318 373.573 51.4207Z" fill="#D5435D" fill-opacity="0.6"/>
<path d="M363.082 60.0311C361.633 61.2199 361.647 63.1584 363.111 64.3607C364.576 65.5631 366.938 65.574 368.387 64.3851C369.835 63.1962 369.822 61.2577 368.357 60.0554C366.892 58.8531 364.53 58.8422 363.082 60.0311Z" fill="#D5435D" fill-opacity="0.6"/>
<path d="M352.588 68.6434C351.139 69.8322 351.152 71.7707 352.617 72.973C354.082 74.1754 356.444 74.1863 357.893 72.9974C359.341 71.8085 359.328 69.87 357.863 68.6677C356.398 67.4654 354.036 67.4545 352.588 68.6434Z" fill="#D5435D" fill-opacity="0.6"/>
<path d="M342.096 77.2547C340.648 78.4436 340.661 80.382 342.126 81.5844C343.591 82.7867 345.953 82.7976 347.402 81.6087C348.85 80.4198 348.837 78.4814 347.372 77.279C345.907 76.0767 343.545 76.0658 342.096 77.2547Z" fill="#D5435D" fill-opacity="0.6"/>
<path d="M331.605 85.865C330.157 87.0539 330.17 88.9924 331.635 90.1947C333.1 91.397 335.462 91.4079 336.91 90.2191C338.359 89.0302 338.346 87.0917 336.881 85.8894C335.416 84.6871 333.054 84.6762 331.605 85.865Z" fill="#D5435D" fill-opacity="0.6"/>
<path d="M321.114 94.4754C319.665 95.6643 319.679 97.6027 321.144 98.8051C322.609 100.007 324.971 100.018 326.419 98.8294C327.868 97.6405 327.854 95.7021 326.389 94.4997C324.924 93.2974 322.563 93.2865 321.114 94.4754Z" fill="#D5435D" fill-opacity="0.6"/>
<path d="M310.623 103.086C309.174 104.275 309.188 106.213 310.652 107.415C312.117 108.618 314.479 108.629 315.928 107.44C317.376 106.251 317.363 104.312 315.898 103.11C314.433 101.908 312.071 101.897 310.623 103.086Z" fill="#D5435D" fill-opacity="0.6"/>
</g>
<g opacity="0.7" clip-path="url(#clip1_303_2998)">
<path d="M178.451 459.561C176.1 459.561 174.195 461.098 174.195 462.994C174.195 464.889 176.1 466.426 178.451 466.426C180.801 466.426 182.706 464.889 182.706 462.994C182.706 461.098 180.801 459.561 178.451 459.561Z" fill="#E1EAF1"/>
<path d="M161.429 459.561C159.079 459.561 157.174 461.098 157.174 462.994C157.174 464.889 159.079 466.426 161.429 466.426C163.779 466.426 165.685 464.889 165.685 462.994C165.685 461.098 163.779 459.561 161.429 459.561Z" fill="#E1EAF1"/>
<path d="M144.408 459.561C142.057 459.561 140.152 461.098 140.152 462.994C140.152 464.889 142.057 466.426 144.408 466.426C146.758 466.426 148.663 464.889 148.663 462.994C148.663 461.098 146.758 459.561 144.408 459.561Z" fill="#E1EAF1"/>
<path d="M127.386 459.561C125.036 459.561 123.131 461.098 123.131 462.994C123.131 464.889 125.036 466.426 127.386 466.426C129.736 466.426 131.642 464.889 131.642 462.994C131.642 461.098 129.736 459.561 127.386 459.561Z" fill="#E1EAF1"/>
<path d="M110.366 459.561C108.015 459.561 106.11 461.098 106.11 462.994C106.11 464.889 108.015 466.426 110.366 466.426C112.716 466.426 114.621 464.889 114.621 462.994C114.621 461.098 112.716 459.561 110.366 459.561Z" fill="#E1EAF1"/>
<path d="M93.3403 459.561C90.9901 459.561 89.0849 461.098 89.0849 462.994C89.0849 464.889 90.9901 466.426 93.3403 466.426C95.6905 466.426 97.5957 464.889 97.5957 462.994C97.5957 461.098 95.6905 459.561 93.3403 459.561Z" fill="#E1EAF1"/>
<path d="M76.3188 459.561C73.9686 459.561 72.0634 461.098 72.0634 462.994C72.0634 464.889 73.9686 466.426 76.3188 466.426C78.669 466.426 80.5742 464.889 80.5742 462.994C80.5742 461.098 78.669 459.561 76.3188 459.561Z" fill="#E1EAF1"/>
<path d="M59.2983 459.561C56.9481 459.561 55.0429 461.098 55.0429 462.994C55.0429 464.889 56.9481 466.426 59.2983 466.426C61.6485 466.426 63.5537 464.889 63.5537 462.994C63.5537 461.098 61.6485 459.561 59.2983 459.561Z" fill="#E1EAF1"/>
<path d="M42.2768 459.561C39.9266 459.561 38.0214 461.098 38.0214 462.994C38.0214 464.889 39.9266 466.426 42.2768 466.426C44.627 466.426 46.5322 464.889 46.5322 462.994C46.5322 461.098 44.627 459.561 42.2768 459.561Z" fill="#E1EAF1"/>
<path d="M25.2553 459.561C22.9051 459.561 20.9999 461.098 20.9999 462.994C20.9999 464.889 22.9051 466.426 25.2553 466.426C27.6055 466.426 29.5107 464.889 29.5107 462.994C29.5107 461.098 27.6055 459.561 25.2553 459.561Z" fill="#E1EAF1"/>
<path d="M178.451 445.833C176.1 445.833 174.195 447.369 174.195 449.265C174.195 451.161 176.1 452.697 178.451 452.697C180.801 452.697 182.706 451.161 182.706 449.265C182.706 447.369 180.801 445.833 178.451 445.833Z" fill="#E1EAF1"/>
<path d="M161.429 445.833C159.079 445.833 157.174 447.369 157.174 449.265C157.174 451.161 159.079 452.697 161.429 452.697C163.779 452.697 165.685 451.161 165.685 449.265C165.685 447.369 163.779 445.833 161.429 445.833Z" fill="#E1EAF1"/>
<path d="M144.408 445.833C142.057 445.833 140.152 447.369 140.152 449.265C140.152 451.161 142.057 452.697 144.408 452.697C146.758 452.697 148.663 451.161 148.663 449.265C148.663 447.369 146.758 445.833 144.408 445.833Z" fill="#E1EAF1"/>
<path d="M127.386 445.833C125.036 445.833 123.131 447.369 123.131 449.265C123.131 451.161 125.036 452.697 127.386 452.697C129.736 452.697 131.642 451.161 131.642 449.265C131.642 447.369 129.736 445.833 127.386 445.833Z" fill="#E1EAF1"/>
<path d="M110.366 445.833C108.015 445.833 106.11 447.369 106.11 449.265C106.11 451.161 108.015 452.697 110.366 452.697C112.716 452.697 114.621 451.161 114.621 449.265C114.621 447.369 112.716 445.833 110.366 445.833Z" fill="#E1EAF1"/>
<path d="M93.3403 445.833C90.9901 445.833 89.0849 447.369 89.0849 449.265C89.0849 451.161 90.9901 452.697 93.3403 452.697C95.6905 452.697 97.5957 451.161 97.5957 449.265C97.5957 447.369 95.6905 445.833 93.3403 445.833Z" fill="#E1EAF1"/>
<path d="M76.3188 445.833C73.9686 445.833 72.0634 447.369 72.0634 449.265C72.0634 451.161 73.9686 452.697 76.3188 452.697C78.669 452.697 80.5742 451.161 80.5742 449.265C80.5742 447.369 78.669 445.833 76.3188 445.833Z" fill="#E1EAF1"/>
<path d="M59.2983 445.833C56.9481 445.833 55.0429 447.369 55.0429 449.265C55.0429 451.161 56.9481 452.697 59.2983 452.697C61.6485 452.697 63.5537 451.161 63.5537 449.265C63.5537 447.369 61.6485 445.833 59.2983 445.833Z" fill="#E1EAF1"/>
<path d="M42.2768 445.833C39.9266 445.833 38.0214 447.369 38.0214 449.265C38.0214 451.161 39.9266 452.697 42.2768 452.697C44.627 452.697 46.5322 451.161 46.5322 449.265C46.5322 447.369 44.627 445.833 42.2768 445.833Z" fill="#E1EAF1"/>
<path d="M25.2553 445.833C22.9051 445.833 20.9999 447.369 20.9999 449.265C20.9999 451.161 22.9051 452.697 25.2553 452.697C27.6055 452.697 29.5107 451.161 29.5107 449.265C29.5107 447.369 27.6055 445.833 25.2553 445.833Z" fill="#E1EAF1"/>
<path d="M178.451 432.104C176.1 432.104 174.195 433.641 174.195 435.536C174.195 437.432 176.1 438.969 178.451 438.969C180.801 438.969 182.706 437.432 182.706 435.536C182.706 433.641 180.801 432.104 178.451 432.104Z" fill="#E1EAF1"/>
<path d="M161.429 432.104C159.079 432.104 157.174 433.641 157.174 435.536C157.174 437.432 159.079 438.969 161.429 438.969C163.779 438.969 165.685 437.432 165.685 435.536C165.685 433.641 163.779 432.104 161.429 432.104Z" fill="#E1EAF1"/>
<path d="M144.408 432.104C142.057 432.104 140.152 433.641 140.152 435.536C140.152 437.432 142.057 438.969 144.408 438.969C146.758 438.969 148.663 437.432 148.663 435.536C148.663 433.641 146.758 432.104 144.408 432.104Z" fill="#E1EAF1"/>
<path d="M127.386 432.104C125.036 432.104 123.131 433.641 123.131 435.536C123.131 437.432 125.036 438.969 127.386 438.969C129.736 438.969 131.642 437.432 131.642 435.536C131.642 433.641 129.736 432.104 127.386 432.104Z" fill="#E1EAF1"/>
<path d="M110.366 432.104C108.015 432.104 106.11 433.641 106.11 435.536C106.11 437.432 108.015 438.969 110.366 438.969C112.716 438.969 114.621 437.432 114.621 435.536C114.621 433.641 112.716 432.104 110.366 432.104Z" fill="#E1EAF1"/>
<path d="M93.3403 432.104C90.9901 432.104 89.0849 433.641 89.0849 435.536C89.0849 437.432 90.9901 438.969 93.3403 438.969C95.6905 438.969 97.5957 437.432 97.5957 435.536C97.5957 433.641 95.6905 432.104 93.3403 432.104Z" fill="#E1EAF1"/>
<path d="M76.3188 432.104C73.9686 432.104 72.0634 433.641 72.0634 435.536C72.0634 437.432 73.9686 438.969 76.3188 438.969C78.669 438.969 80.5742 437.432 80.5742 435.536C80.5742 433.641 78.669 432.104 76.3188 432.104Z" fill="#E1EAF1"/>
<path d="M59.2983 432.104C56.9481 432.104 55.0429 433.641 55.0429 435.536C55.0429 437.432 56.9481 438.969 59.2983 438.969C61.6485 438.969 63.5537 437.432 63.5537 435.536C63.5537 433.641 61.6485 432.104 59.2983 432.104Z" fill="#E1EAF1"/>
<path d="M42.2768 432.104C39.9266 432.104 38.0214 433.641 38.0214 435.536C38.0214 437.432 39.9266 438.969 42.2768 438.969C44.627 438.969 46.5322 437.432 46.5322 435.536C46.5322 433.641 44.627 432.104 42.2768 432.104Z" fill="#E1EAF1"/>
<path d="M25.2553 432.104C22.9051 432.104 20.9999 433.641 20.9999 435.536C20.9999 437.432 22.9051 438.969 25.2553 438.969C27.6055 438.969 29.5107 437.432 29.5107 435.536C29.5107 433.641 27.6055 432.104 25.2553 432.104Z" fill="#E1EAF1"/>
<path d="M178.451 418.374C176.1 418.374 174.195 419.91 174.195 421.806C174.195 423.702 176.1 425.238 178.451 425.238C180.801 425.238 182.706 423.702 182.706 421.806C182.706 419.91 180.801 418.374 178.451 418.374Z" fill="#E1EAF1"/>
<path d="M161.429 418.374C159.079 418.374 157.174 419.91 157.174 421.806C157.174 423.702 159.079 425.238 161.429 425.238C163.779 425.238 165.685 423.702 165.685 421.806C165.685 419.91 163.779 418.374 161.429 418.374Z" fill="#E1EAF1"/>
<path d="M144.408 418.374C142.057 418.374 140.152 419.91 140.152 421.806C140.152 423.702 142.057 425.238 144.408 425.238C146.758 425.238 148.663 423.702 148.663 421.806C148.663 419.91 146.758 418.374 144.408 418.374Z" fill="#E1EAF1"/>
<path d="M127.386 418.374C125.036 418.374 123.131 419.91 123.131 421.806C123.131 423.702 125.036 425.238 127.386 425.238C129.736 425.238 131.642 423.702 131.642 421.806C131.642 419.91 129.736 418.374 127.386 418.374Z" fill="#E1EAF1"/>
<path d="M110.366 418.374C108.015 418.374 106.11 419.91 106.11 421.806C106.11 423.702 108.015 425.238 110.366 425.238C112.716 425.238 114.621 423.702 114.621 421.806C114.621 419.91 112.716 418.374 110.366 418.374Z" fill="#E1EAF1"/>
<path d="M93.3403 418.374C90.9901 418.374 89.0849 419.91 89.0849 421.806C89.0849 423.702 90.9901 425.238 93.3403 425.238C95.6905 425.238 97.5957 423.702 97.5957 421.806C97.5957 419.91 95.6905 418.374 93.3403 418.374Z" fill="#E1EAF1"/>
<path d="M76.3188 418.374C73.9686 418.374 72.0634 419.91 72.0634 421.806C72.0634 423.702 73.9686 425.238 76.3188 425.238C78.669 425.238 80.5742 423.702 80.5742 421.806C80.5742 419.91 78.669 418.374 76.3188 418.374Z" fill="#E1EAF1"/>
<path d="M59.2983 418.374C56.9481 418.374 55.0429 419.91 55.0429 421.806C55.0429 423.702 56.9481 425.238 59.2983 425.238C61.6485 425.238 63.5537 423.702 63.5537 421.806C63.5537 419.91 61.6485 418.374 59.2983 418.374Z" fill="#E1EAF1"/>
<path d="M42.2768 418.374C39.9266 418.374 38.0214 419.91 38.0214 421.806C38.0214 423.702 39.9266 425.238 42.2768 425.238C44.627 425.238 46.5322 423.702 46.5322 421.806C46.5322 419.91 44.627 418.374 42.2768 418.374Z" fill="#E1EAF1"/>
<path d="M25.2553 418.374C22.9051 418.374 20.9999 419.91 20.9999 421.806C20.9999 423.702 22.9051 425.238 25.2553 425.238C27.6055 425.238 29.5107 423.702 29.5107 421.806C29.5107 419.91 27.6055 418.374 25.2553 418.374Z" fill="#E1EAF1"/>
<path d="M178.451 404.645C176.1 404.645 174.195 406.182 174.195 408.077C174.195 409.973 176.1 411.51 178.451 411.51C180.801 411.51 182.706 409.973 182.706 408.077C182.706 406.182 180.801 404.645 178.451 404.645Z" fill="#E1EAF1"/>
<path d="M161.429 404.645C159.079 404.645 157.174 406.182 157.174 408.077C157.174 409.973 159.079 411.51 161.429 411.51C163.779 411.51 165.685 409.973 165.685 408.077C165.685 406.182 163.779 404.645 161.429 404.645Z" fill="#E1EAF1"/>
<path d="M144.408 404.645C142.057 404.645 140.152 406.182 140.152 408.077C140.152 409.973 142.057 411.51 144.408 411.51C146.758 411.51 148.663 409.973 148.663 408.077C148.663 406.182 146.758 404.645 144.408 404.645Z" fill="#E1EAF1"/>
<path d="M127.386 404.645C125.036 404.645 123.131 406.182 123.131 408.077C123.131 409.973 125.036 411.51 127.386 411.51C129.736 411.51 131.642 409.973 131.642 408.077C131.642 406.182 129.736 404.645 127.386 404.645Z" fill="#E1EAF1"/>
<path d="M110.366 404.645C108.015 404.645 106.11 406.182 106.11 408.077C106.11 409.973 108.015 411.51 110.366 411.51C112.716 411.51 114.621 409.973 114.621 408.077C114.621 406.182 112.716 404.645 110.366 404.645Z" fill="#E1EAF1"/>
<path d="M93.3403 404.645C90.9901 404.645 89.0849 406.182 89.0849 408.077C89.0849 409.973 90.9901 411.51 93.3403 411.51C95.6905 411.51 97.5957 409.973 97.5957 408.077C97.5957 406.182 95.6905 404.645 93.3403 404.645Z" fill="#E1EAF1"/>
<path d="M76.3188 404.645C73.9686 404.645 72.0634 406.182 72.0634 408.077C72.0634 409.973 73.9686 411.51 76.3188 411.51C78.669 411.51 80.5742 409.973 80.5742 408.077C80.5742 406.182 78.669 404.645 76.3188 404.645Z" fill="#E1EAF1"/>
<path d="M59.2983 404.645C56.9481 404.645 55.0429 406.182 55.0429 408.077C55.0429 409.973 56.9481 411.51 59.2983 411.51C61.6485 411.51 63.5537 409.973 63.5537 408.077C63.5537 406.182 61.6485 404.645 59.2983 404.645Z" fill="#E1EAF1"/>
<path d="M42.2768 404.645C39.9266 404.645 38.0214 406.182 38.0214 408.077C38.0214 409.973 39.9266 411.51 42.2768 411.51C44.627 411.51 46.5322 409.973 46.5322 408.077C46.5322 406.182 44.627 404.645 42.2768 404.645Z" fill="#E1EAF1"/>
<path d="M25.2553 404.645C22.9051 404.645 20.9999 406.182 20.9999 408.077C20.9999 409.973 22.9051 411.51 25.2553 411.51C27.6055 411.51 29.5107 409.973 29.5107 408.077C29.5107 406.182 27.6055 404.645 25.2553 404.645Z" fill="#E1EAF1"/>
<path d="M178.451 390.917C176.1 390.917 174.195 392.453 174.195 394.349C174.195 396.245 176.1 397.781 178.451 397.781C180.801 397.781 182.706 396.245 182.706 394.349C182.706 392.453 180.801 390.917 178.451 390.917Z" fill="#E1EAF1"/>
<path d="M161.429 390.917C159.079 390.917 157.174 392.453 157.174 394.349C157.174 396.245 159.079 397.781 161.429 397.781C163.779 397.781 165.685 396.245 165.685 394.349C165.685 392.453 163.779 390.917 161.429 390.917Z" fill="#E1EAF1"/>
<path d="M144.408 390.917C142.057 390.917 140.152 392.453 140.152 394.349C140.152 396.245 142.057 397.781 144.408 397.781C146.758 397.781 148.663 396.245 148.663 394.349C148.663 392.453 146.758 390.917 144.408 390.917Z" fill="#E1EAF1"/>
<path d="M127.386 390.917C125.036 390.917 123.131 392.453 123.131 394.349C123.131 396.245 125.036 397.781 127.386 397.781C129.736 397.781 131.642 396.245 131.642 394.349C131.642 392.453 129.736 390.917 127.386 390.917Z" fill="#E1EAF1"/>
<path d="M110.366 390.917C108.015 390.917 106.11 392.453 106.11 394.349C106.11 396.245 108.015 397.781 110.366 397.781C112.716 397.781 114.621 396.245 114.621 394.349C114.621 392.453 112.716 390.917 110.366 390.917Z" fill="#E1EAF1"/>
<path d="M93.3403 390.917C90.9901 390.917 89.0849 392.453 89.0849 394.349C89.0849 396.245 90.9901 397.781 93.3403 397.781C95.6905 397.781 97.5957 396.245 97.5957 394.349C97.5957 392.453 95.6905 390.917 93.3403 390.917Z" fill="#E1EAF1"/>
<path d="M76.3188 390.917C73.9686 390.917 72.0634 392.453 72.0634 394.349C72.0634 396.245 73.9686 397.781 76.3188 397.781C78.669 397.781 80.5742 396.245 80.5742 394.349C80.5742 392.453 78.669 390.917 76.3188 390.917Z" fill="#E1EAF1"/>
<path d="M59.2983 390.917C56.9481 390.917 55.0429 392.453 55.0429 394.349C55.0429 396.245 56.9481 397.781 59.2983 397.781C61.6485 397.781 63.5537 396.245 63.5537 394.349C63.5537 392.453 61.6485 390.917 59.2983 390.917Z" fill="#E1EAF1"/>
<path d="M42.2768 390.917C39.9266 390.917 38.0214 392.453 38.0214 394.349C38.0214 396.245 39.9266 397.781 42.2768 397.781C44.627 397.781 46.5322 396.245 46.5322 394.349C46.5322 392.453 44.627 390.917 42.2768 390.917Z" fill="#E1EAF1"/>
<path d="M25.2553 390.917C22.9051 390.917 20.9999 392.453 20.9999 394.349C20.9999 396.245 22.9051 397.781 25.2553 397.781C27.6055 397.781 29.5107 396.245 29.5107 394.349C29.5107 392.453 27.6055 390.917 25.2553 390.917Z" fill="#E1EAF1"/>
<path d="M178.451 377.187C176.1 377.187 174.195 378.724 174.195 380.619C174.195 382.515 176.1 384.052 178.451 384.052C180.801 384.052 182.706 382.515 182.706 380.619C182.706 378.724 180.801 377.187 178.451 377.187Z" fill="#E1EAF1"/>
<path d="M161.429 377.187C159.079 377.187 157.174 378.724 157.174 380.619C157.174 382.515 159.079 384.052 161.429 384.052C163.779 384.052 165.685 382.515 165.685 380.619C165.685 378.724 163.779 377.187 161.429 377.187Z" fill="#E1EAF1"/>
<path d="M144.408 377.187C142.057 377.187 140.152 378.724 140.152 380.619C140.152 382.515 142.057 384.052 144.408 384.052C146.758 384.052 148.663 382.515 148.663 380.619C148.663 378.724 146.758 377.187 144.408 377.187Z" fill="#E1EAF1"/>
<path d="M127.386 377.187C125.036 377.187 123.131 378.724 123.131 380.619C123.131 382.515 125.036 384.052 127.386 384.052C129.736 384.052 131.642 382.515 131.642 380.619C131.642 378.724 129.736 377.187 127.386 377.187Z" fill="#E1EAF1"/>
<path d="M110.366 377.187C108.015 377.187 106.11 378.724 106.11 380.619C106.11 382.515 108.015 384.052 110.366 384.052C112.716 384.052 114.621 382.515 114.621 380.619C114.621 378.724 112.716 377.187 110.366 377.187Z" fill="#E1EAF1"/>
<path d="M93.3403 377.187C90.9901 377.187 89.0849 378.724 89.0849 380.619C89.0849 382.515 90.9901 384.052 93.3403 384.052C95.6905 384.052 97.5957 382.515 97.5957 380.619C97.5957 378.724 95.6905 377.187 93.3403 377.187Z" fill="#E1EAF1"/>
<path d="M76.3188 377.187C73.9686 377.187 72.0634 378.724 72.0634 380.619C72.0634 382.515 73.9686 384.052 76.3188 384.052C78.669 384.052 80.5742 382.515 80.5742 380.619C80.5742 378.724 78.669 377.187 76.3188 377.187Z" fill="#E1EAF1"/>
<path d="M59.2983 377.187C56.9481 377.187 55.0429 378.724 55.0429 380.619C55.0429 382.515 56.9481 384.052 59.2983 384.052C61.6485 384.052 63.5537 382.515 63.5537 380.619C63.5537 378.724 61.6485 377.187 59.2983 377.187Z" fill="#E1EAF1"/>
<path d="M42.2768 377.187C39.9266 377.187 38.0214 378.724 38.0214 380.619C38.0214 382.515 39.9266 384.052 42.2768 384.052C44.627 384.052 46.5322 382.515 46.5322 380.619C46.5322 378.724 44.627 377.187 42.2768 377.187Z" fill="#E1EAF1"/>
<path d="M25.2553 377.187C22.9051 377.187 20.9999 378.724 20.9999 380.619C20.9999 382.515 22.9051 384.052 25.2553 384.052C27.6055 384.052 29.5107 382.515 29.5107 380.619C29.5107 378.724 27.6055 377.187 25.2553 377.187Z" fill="#E1EAF1"/>
<path d="M178.451 363.458C176.1 363.458 174.195 364.994 174.195 366.89C174.195 368.786 176.1 370.322 178.451 370.322C180.801 370.322 182.706 368.786 182.706 366.89C182.706 364.994 180.801 363.458 178.451 363.458Z" fill="#E1EAF1"/>
<path d="M161.429 363.458C159.079 363.458 157.174 364.994 157.174 366.89C157.174 368.786 159.079 370.322 161.429 370.322C163.779 370.322 165.685 368.786 165.685 366.89C165.685 364.994 163.779 363.458 161.429 363.458Z" fill="#E1EAF1"/>
<path d="M144.408 363.458C142.057 363.458 140.152 364.994 140.152 366.89C140.152 368.786 142.057 370.322 144.408 370.322C146.758 370.322 148.663 368.786 148.663 366.89C148.663 364.994 146.758 363.458 144.408 363.458Z" fill="#E1EAF1"/>
<path d="M127.386 363.458C125.036 363.458 123.131 364.994 123.131 366.89C123.131 368.786 125.036 370.322 127.386 370.322C129.736 370.322 131.642 368.786 131.642 366.89C131.642 364.994 129.736 363.458 127.386 363.458Z" fill="#E1EAF1"/>
<path d="M110.366 363.458C108.015 363.458 106.11 364.994 106.11 366.89C106.11 368.786 108.015 370.322 110.366 370.322C112.716 370.322 114.621 368.786 114.621 366.89C114.621 364.994 112.716 363.458 110.366 363.458Z" fill="#E1EAF1"/>
<path d="M93.3403 363.458C90.9901 363.458 89.0849 364.994 89.0849 366.89C89.0849 368.786 90.9901 370.322 93.3403 370.322C95.6905 370.322 97.5957 368.786 97.5957 366.89C97.5957 364.994 95.6905 363.458 93.3403 363.458Z" fill="#E1EAF1"/>
<path d="M76.3188 363.458C73.9686 363.458 72.0634 364.994 72.0634 366.89C72.0634 368.786 73.9686 370.322 76.3188 370.322C78.669 370.322 80.5742 368.786 80.5742 366.89C80.5742 364.994 78.669 363.458 76.3188 363.458Z" fill="#E1EAF1"/>
<path d="M59.2983 363.458C56.9481 363.458 55.0429 364.994 55.0429 366.89C55.0429 368.786 56.9481 370.322 59.2983 370.322C61.6485 370.322 63.5537 368.786 63.5537 366.89C63.5537 364.994 61.6485 363.458 59.2983 363.458Z" fill="#E1EAF1"/>
<path d="M42.2768 363.458C39.9266 363.458 38.0214 364.994 38.0214 366.89C38.0214 368.786 39.9266 370.322 42.2768 370.322C44.627 370.322 46.5322 368.786 46.5322 366.89C46.5322 364.994 44.627 363.458 42.2768 363.458Z" fill="#E1EAF1"/>
<path d="M25.2553 363.458C22.9051 363.458 20.9999 364.994 20.9999 366.89C20.9999 368.786 22.9051 370.322 25.2553 370.322C27.6055 370.322 29.5107 368.786 29.5107 366.89C29.5107 364.994 27.6055 363.458 25.2553 363.458Z" fill="#E1EAF1"/>
<path d="M178.451 349.728C176.1 349.728 174.195 351.265 174.195 353.161C174.195 355.056 176.1 356.593 178.451 356.593C180.801 356.593 182.706 355.056 182.706 353.161C182.706 351.265 180.801 349.728 178.451 349.728Z" fill="#E1EAF1"/>
<path d="M161.429 349.728C159.079 349.728 157.174 351.265 157.174 353.161C157.174 355.056 159.079 356.593 161.429 356.593C163.779 356.593 165.685 355.056 165.685 353.161C165.685 351.265 163.779 349.728 161.429 349.728Z" fill="#E1EAF1"/>
<path d="M144.408 349.728C142.057 349.728 140.152 351.265 140.152 353.161C140.152 355.056 142.057 356.593 144.408 356.593C146.758 356.593 148.663 355.056 148.663 353.161C148.663 351.265 146.758 349.728 144.408 349.728Z" fill="#E1EAF1"/>
<path d="M127.386 349.728C125.036 349.728 123.131 351.265 123.131 353.161C123.131 355.056 125.036 356.593 127.386 356.593C129.736 356.593 131.642 355.056 131.642 353.161C131.642 351.265 129.736 349.728 127.386 349.728Z" fill="#E1EAF1"/>
<path d="M110.366 349.728C108.015 349.728 106.11 351.265 106.11 353.161C106.11 355.056 108.015 356.593 110.366 356.593C112.716 356.593 114.621 355.056 114.621 353.161C114.621 351.265 112.716 349.728 110.366 349.728Z" fill="#E1EAF1"/>
<path d="M93.3403 349.728C90.9901 349.728 89.0849 351.265 89.0849 353.161C89.0849 355.056 90.9901 356.593 93.3403 356.593C95.6905 356.593 97.5957 355.056 97.5957 353.161C97.5957 351.265 95.6905 349.728 93.3403 349.728Z" fill="#E1EAF1"/>
<path d="M76.3188 349.728C73.9686 349.728 72.0634 351.265 72.0634 353.161C72.0634 355.056 73.9686 356.593 76.3188 356.593C78.669 356.593 80.5742 355.056 80.5742 353.161C80.5742 351.265 78.669 349.728 76.3188 349.728Z" fill="#E1EAF1"/>
<path d="M59.2983 349.728C56.9481 349.728 55.0429 351.265 55.0429 353.161C55.0429 355.056 56.9481 356.593 59.2983 356.593C61.6485 356.593 63.5537 355.056 63.5537 353.161C63.5537 351.265 61.6485 349.728 59.2983 349.728Z" fill="#E1EAF1"/>
<path d="M42.2768 349.728C39.9266 349.728 38.0214 351.265 38.0214 353.161C38.0214 355.056 39.9266 356.593 42.2768 356.593C44.627 356.593 46.5322 355.056 46.5322 353.161C46.5322 351.265 44.627 349.728 42.2768 349.728Z" fill="#E1EAF1"/>
<path d="M25.2553 349.728C22.9051 349.728 20.9999 351.265 20.9999 353.161C20.9999 355.056 22.9051 356.593 25.2553 356.593C27.6055 356.593 29.5107 355.056 29.5107 353.161C29.5107 351.265 27.6055 349.728 25.2553 349.728Z" fill="#E1EAF1"/>
<path d="M178.451 336C176.1 336 174.195 337.536 174.195 339.432C174.195 341.328 176.1 342.864 178.451 342.864C180.801 342.864 182.706 341.328 182.706 339.432C182.706 337.536 180.801 336 178.451 336Z" fill="#E1EAF1"/>
<path d="M161.429 336C159.079 336 157.174 337.536 157.174 339.432C157.174 341.328 159.079 342.864 161.429 342.864C163.779 342.864 165.685 341.328 165.685 339.432C165.685 337.536 163.779 336 161.429 336Z" fill="#E1EAF1"/>
<path d="M144.408 336C142.057 336 140.152 337.536 140.152 339.432C140.152 341.328 142.057 342.864 144.408 342.864C146.758 342.864 148.663 341.328 148.663 339.432C148.663 337.536 146.758 336 144.408 336Z" fill="#E1EAF1"/>
<path d="M127.386 336C125.036 336 123.131 337.536 123.131 339.432C123.131 341.328 125.036 342.864 127.386 342.864C129.736 342.864 131.642 341.328 131.642 339.432C131.642 337.536 129.736 336 127.386 336Z" fill="#E1EAF1"/>
<path d="M110.366 336C108.015 336 106.11 337.536 106.11 339.432C106.11 341.328 108.015 342.864 110.366 342.864C112.716 342.864 114.621 341.328 114.621 339.432C114.621 337.536 112.716 336 110.366 336Z" fill="#E1EAF1"/>
<path d="M93.3403 336C90.9901 336 89.0849 337.536 89.0849 339.432C89.0849 341.328 90.9901 342.864 93.3403 342.864C95.6905 342.864 97.5957 341.328 97.5957 339.432C97.5957 337.536 95.6905 336 93.3403 336Z" fill="#E1EAF1"/>
<path d="M76.3188 336C73.9686 336 72.0634 337.536 72.0634 339.432C72.0634 341.328 73.9686 342.864 76.3188 342.864C78.669 342.864 80.5742 341.328 80.5742 339.432C80.5742 337.536 78.669 336 76.3188 336Z" fill="#E1EAF1"/>
<path d="M59.2983 336C56.9481 336 55.0429 337.536 55.0429 339.432C55.0429 341.328 56.9481 342.864 59.2983 342.864C61.6485 342.864 63.5537 341.328 63.5537 339.432C63.5537 337.536 61.6485 336 59.2983 336Z" fill="#E1EAF1"/>
<path d="M42.2768 336C39.9266 336 38.0214 337.536 38.0214 339.432C38.0214 341.328 39.9266 342.864 42.2768 342.864C44.627 342.864 46.5322 341.328 46.5322 339.432C46.5322 337.536 44.627 336 42.2768 336Z" fill="#E1EAF1"/>
<path d="M25.2553 336C22.9051 336 20.9999 337.536 20.9999 339.432C20.9999 341.328 22.9051 342.864 25.2553 342.864C27.6055 342.864 29.5107 341.328 29.5107 339.432C29.5107 337.536 27.6055 336 25.2553 336Z" fill="#E1EAF1"/>
</g>
<path d="M53.8791 14.0373L45.2332 18.6927L48.9108 25.6021L39.8898 21.5699L31.244 26.2253L34.3145 19.0779L25.2936 15.0457L36.2123 14.6605L39.2829 7.51308L42.9604 14.4225L53.8791 14.0373Z" fill="#9FFFEA" fill-opacity="0.75"/>
<path d="M78.6838 23.0965L72.4119 26.4467L75.0387 31.3819L68.5356 28.5171L62.2636 31.8673L64.5164 26.7466L58.0133 23.8818L65.9088 23.5819L68.1616 18.4612L70.7884 23.3965L78.6838 23.0965Z" fill="#9FFFEA" fill-opacity="0.75"/>
<path d="M48.0554 40.6427L38.6005 45.9401L42.9348 54.0833L32.7571 49.2141L23.3022 54.5115L26.467 46.2047L16.2893 41.3355L28.4229 41.0709L31.5876 32.7641L35.9218 40.9074L48.0554 40.6427Z" fill="#9FFFEA" fill-opacity="0.75"/>
<rect x="361" y="471.928" width="5.46983" height="19.8354" fill="#F6FCB1" fill-opacity="0.75"/>
<rect x="371.158" y="485.317" width="16.4095" height="12.893" fill="#F6FCB1" fill-opacity="0.75"/>
<rect x="377.409" y="467.466" width="7.03263" height="14.3807" fill="#F6FCB1" fill-opacity="0.75"/>
<defs>
<clipPath id="clip0_303_2998">
<rect width="129.629" height="131.095" fill="white" transform="matrix(0.772993 -0.634414 0.772993 0.634414 308 105.238)"/>
</clipPath>
<clipPath id="clip1_303_2998">
<rect width="162.57" height="131.123" fill="white" transform="translate(21 336)"/>
</clipPath>
</defs>
</svg>
