<svg width="90" height="18" viewBox="0 0 90 18" fill="none" xmlns="http://www.w3.org/2000/svg">
<g clip-path="url(#clip0_34_1311)">
<path d="M9.5 11.8589L14.135 15L12.905 9.08L17 5.09684L11.6075 4.58316L9.5 -1L7.3925 4.58316L2 5.09684L6.095 9.08L4.865 15L9.5 11.8589Z" fill="#69F490"/>
</g>
<g clip-path="url(#clip1_34_1311)">
<path d="M27.5 12.1112L32.3925 15.375L31.0942 9.22375L35.4167 5.085L29.7246 4.55125L27.5 -1.25L25.2755 4.55125L19.5834 5.085L23.9059 9.22375L22.6075 15.375L27.5 12.1112Z" fill="#69F490"/>
</g>
<g clip-path="url(#clip2_34_1311)">
<path d="M46 11.8589L50.944 15L49.632 9.08L54 5.09684L48.248 4.58316L46 -1L43.752 4.58316L38 5.09684L42.368 9.08L41.056 15L46 11.8589Z" fill="#69F490"/>
</g>
<g clip-path="url(#clip3_34_1311)">
<path d="M64.5 11.8589L69.135 15L67.905 9.08L72 5.09684L66.6075 4.58316L64.5 -1L62.3925 4.58316L57 5.09684L61.095 9.08L59.865 15L64.5 11.8589Z" fill="#69F490"/>
</g>
<g clip-path="url(#clip4_34_1311)">
<path d="M83 12.1112L87.635 15.375L86.405 9.22375L90.5 5.085L85.1075 4.55125L83 -1.25L80.8925 4.55125L75.5 5.085L79.595 9.22375L78.365 15.375L83 12.1112Z" fill="#69F490"/>
</g>
<defs>
<clipPath id="clip0_34_1311">
<rect width="18" height="18" fill="white"/>
</clipPath>
<clipPath id="clip1_34_1311">
<rect width="18" height="18" fill="white" transform="translate(18)"/>
</clipPath>
<clipPath id="clip2_34_1311">
<rect width="18" height="18" fill="white" transform="translate(36)"/>
</clipPath>
<clipPath id="clip3_34_1311">
<rect width="18" height="18" fill="white" transform="translate(54)"/>
</clipPath>
<clipPath id="clip4_34_1311">
<rect width="18" height="18" fill="white" transform="translate(72)"/>
</clipPath>
</defs>
</svg>
