<svg width="60" height="40" viewBox="0 0 60 40" fill="none" xmlns="http://www.w3.org/2000/svg">
<g clip-path="url(#clip0_5_340)">
<path d="M19.8214 0V3.12619C15.3317 5.46448 12.1173 7.90444 10.1786 10.4461C8.2398 12.9876 7.27041 15.7581 7.27041 18.7572C7.27041 20.5363 7.52551 21.7563 8.03571 22.4171C8.4949 23.1287 9.05612 23.4846 9.71939 23.4846C10.3827 23.4846 11.2755 23.3067 12.398 22.9508C13.5204 22.5442 14.5409 22.3409 15.4591 22.3409C17.551 22.3409 19.3622 23.1287 20.8929 24.7046C22.4745 26.2295 23.2653 28.1103 23.2653 30.3469C23.2653 32.7868 22.3215 34.8964 20.4336 36.6755C18.5459 38.4038 16.199 39.268 13.3929 39.268C9.97446 39.268 6.88775 37.7939 4.13265 34.8456C1.37755 31.8973 0 28.2629 0 23.9421C0 18.8588 1.68367 14.1314 5.05102 9.75982C8.46938 5.3374 13.3929 2.08412 19.8214 0ZM56.3265 0.228746V3.12619C51.1735 6.07447 47.7807 8.71775 46.148 11.056C44.5153 13.3944 43.699 16.1393 43.699 19.2909C43.699 20.7142 43.9796 21.7817 44.5409 22.4933C45.102 23.205 45.6888 23.5608 46.301 23.5608C46.8623 23.5608 47.704 23.3575 48.8265 22.9508C49.949 22.5442 51.0714 22.3409 52.1939 22.3409C54.2857 22.3409 56.097 23.1033 57.6275 24.6283C59.2092 26.1025 60 27.9324 60 30.1182C60 32.609 59.0051 34.7693 57.0153 36.5993C55.0766 38.4293 52.6785 39.3443 49.8214 39.3443C46.4541 39.3443 43.4184 37.8955 40.7143 34.9981C38.0102 32.1007 36.6581 28.4915 36.6581 24.1708C36.6581 18.8334 38.3673 13.9789 41.7857 9.60732C45.2041 5.1849 50.051 2.05871 56.3265 0.228746Z" fill="#69F490"/>
</g>
<defs>
<clipPath id="clip0_5_340">
<rect width="60" height="39.3443" fill="white"/>
</clipPath>
</defs>
</svg>
