<svg width="467" height="530" viewBox="0 0 467 530" fill="none" xmlns="http://www.w3.org/2000/svg">
<path d="M206.002 106.181C206.002 164.467 151.726 211.716 84.7717 211.716C84.7717 211.716 84.7726 164.467 84.7726 106.181C84.7726 47.8961 84.7717 0.646484 84.7717 0.646484C151.726 0.646484 206.002 47.8961 206.002 106.181Z" fill="#FF9900" fill-opacity="0.5"/>
<ellipse cx="3.29648" cy="2.56393" rx="3.29648" ry="2.56393" transform="matrix(-0.662192 0.749334 -0.662192 -0.749334 71.3621 402.275)" fill="#00FF01" fill-opacity="0.2"/>
<ellipse cx="3.29648" cy="2.56393" rx="3.29648" ry="2.56393" transform="matrix(-0.662192 0.749334 -0.662192 -0.749334 61.0718 402.26)" fill="#00FF01" fill-opacity="0.2"/>
<ellipse cx="3.29648" cy="2.56393" rx="3.29648" ry="2.56393" transform="matrix(-0.662192 0.749334 -0.662192 -0.749334 50.7812 402.246)" fill="#00FF01" fill-opacity="0.2"/>
<ellipse cx="3.29648" cy="2.56393" rx="3.29648" ry="2.56393" transform="matrix(-0.662192 0.749334 -0.662192 -0.749334 40.4919 402.23)" fill="#00FF01" fill-opacity="0.2"/>
<ellipse cx="3.29648" cy="2.93021" rx="3.29648" ry="2.93021" transform="matrix(-0.662192 0.749334 -0.662192 -0.749334 81.5371 415.756)" fill="#00FF01" fill-opacity="0.2"/>
<ellipse cx="3.29648" cy="2.56393" rx="3.29648" ry="2.56393" transform="matrix(-0.662192 0.749334 -0.662192 -0.749334 71.3474 415.471)" fill="#00FF01" fill-opacity="0.2"/>
<ellipse cx="3.29648" cy="2.56393" rx="3.29648" ry="2.56393" transform="matrix(-0.662192 0.749334 -0.662192 -0.749334 61.0576 415.455)" fill="#00FF01" fill-opacity="0.2"/>
<ellipse cx="3.29648" cy="2.56393" rx="3.29648" ry="2.56393" transform="matrix(-0.662192 0.749334 -0.662192 -0.749334 50.7676 415.441)" fill="#00FF01" fill-opacity="0.2"/>
<ellipse cx="3.29648" cy="2.56393" rx="3.29648" ry="2.56393" transform="matrix(-0.662192 0.749334 -0.662192 -0.749334 40.4768 415.426)" fill="#00FF01" fill-opacity="0.2"/>
<ellipse cx="3.29648" cy="2.93021" rx="3.29648" ry="2.93021" transform="matrix(-0.662192 0.749334 -0.662192 -0.749334 30.7722 415.688)" fill="#00FF01" fill-opacity="0.2"/>
<ellipse cx="3.29648" cy="2.93021" rx="3.29648" ry="2.93021" transform="matrix(-0.662192 0.749334 -0.662192 -0.749334 81.5247 428.18)" fill="#00FF01" fill-opacity="0.2"/>
<ellipse cx="3.29648" cy="2.56393" rx="3.29648" ry="2.56393" transform="matrix(-0.662192 0.749334 -0.662192 -0.749334 71.3345 427.889)" fill="#00FF01" fill-opacity="0.2"/>
<ellipse cx="3.29648" cy="2.56393" rx="3.29648" ry="2.56393" transform="matrix(-0.662192 0.749334 -0.662192 -0.749334 61.0452 427.877)" fill="#00FF01" fill-opacity="0.2"/>
<ellipse cx="3.29648" cy="2.56393" rx="3.29648" ry="2.56393" transform="matrix(-0.662192 0.749334 -0.662192 -0.749334 50.7544 427.863)" fill="#00FF01" fill-opacity="0.2"/>
<ellipse cx="3.29648" cy="2.56393" rx="3.29648" ry="2.56393" transform="matrix(-0.662192 0.749334 -0.662192 -0.749334 40.4644 427.85)" fill="#00FF01" fill-opacity="0.2"/>
<ellipse cx="3.29648" cy="2.93021" rx="3.29648" ry="2.93021" transform="matrix(-0.662192 0.749334 -0.662192 -0.749334 30.7585 428.109)" fill="#00FF01" fill-opacity="0.2"/>
<ellipse cx="3.29648" cy="2.93021" rx="3.29648" ry="2.93021" transform="matrix(-0.662192 0.749334 -0.662192 -0.749334 91.8 441.387)" fill="#00FF01" fill-opacity="0.2"/>
<ellipse cx="3.29648" cy="2.93021" rx="3.29648" ry="2.93021" transform="matrix(-0.662192 0.749334 -0.662192 -0.749334 81.5107 441.373)" fill="#00FF01" fill-opacity="0.2"/>
<ellipse cx="3.29648" cy="2.56393" rx="3.29648" ry="2.56393" transform="matrix(-0.662192 0.749334 -0.662192 -0.749334 71.3208 441.09)" fill="#00FF01" fill-opacity="0.2"/>
<ellipse cx="3.29648" cy="2.56393" rx="3.29648" ry="2.56393" transform="matrix(-0.662192 0.749334 -0.662192 -0.749334 61.0303 441.072)" fill="#00FF01" fill-opacity="0.2"/>
<ellipse cx="3.29648" cy="2.56393" rx="3.29648" ry="2.56393" transform="matrix(-0.662192 0.749334 -0.662192 -0.749334 50.7407 441.059)" fill="#00FF01" fill-opacity="0.2"/>
<ellipse cx="3.29648" cy="2.56393" rx="3.29648" ry="2.56393" transform="matrix(-0.662192 0.749334 -0.662192 -0.749334 40.4497 441.045)" fill="#00FF01" fill-opacity="0.2"/>
<ellipse cx="3.29648" cy="2.93021" rx="3.29648" ry="2.93021" transform="matrix(-0.662192 0.749334 -0.662192 -0.749334 30.7446 441.305)" fill="#00FF01" fill-opacity="0.2"/>
<ellipse cx="3.29648" cy="2.93021" rx="3.29648" ry="2.93021" transform="matrix(-0.662192 0.749334 -0.662192 -0.749334 91.7876 453.809)" fill="#00FF01" fill-opacity="0.2"/>
<ellipse cx="3.29648" cy="2.93021" rx="3.29648" ry="2.93021" transform="matrix(-0.662192 0.749334 -0.662192 -0.749334 81.4968 453.793)" fill="#00FF01" fill-opacity="0.2"/>
<ellipse cx="3.29648" cy="2.56393" rx="3.29648" ry="2.56393" transform="matrix(-0.662192 0.749334 -0.662192 -0.749334 71.3081 453.508)" fill="#00FF01" fill-opacity="0.2"/>
<ellipse cx="3.29648" cy="2.56393" rx="3.29648" ry="2.56393" transform="matrix(-0.662192 0.749334 -0.662192 -0.749334 61.0173 453.496)" fill="#00FF01" fill-opacity="0.2"/>
<ellipse cx="3.29648" cy="2.56393" rx="3.29648" ry="2.56393" transform="matrix(-0.662192 0.749334 -0.662192 -0.749334 50.7273 453.48)" fill="#00FF01" fill-opacity="0.2"/>
<ellipse cx="3.29648" cy="2.56393" rx="3.29648" ry="2.56393" transform="matrix(-0.662192 0.749334 -0.662192 -0.749334 40.4365 453.467)" fill="#00FF01" fill-opacity="0.2"/>
<ellipse cx="3.29648" cy="2.93021" rx="3.29648" ry="2.93021" transform="matrix(-0.662192 0.749334 -0.662192 -0.749334 30.7317 453.727)" fill="#00FF01" fill-opacity="0.2"/>
<ellipse cx="3.29648" cy="2.93021" rx="3.29648" ry="2.93021" transform="matrix(-0.662192 0.749334 -0.662192 -0.749334 91.7734 467.008)" fill="#00FF01" fill-opacity="0.2"/>
<ellipse cx="3.29648" cy="2.93021" rx="3.29648" ry="2.93021" transform="matrix(-0.662192 0.749334 -0.662192 -0.749334 81.4832 466.994)" fill="#00FF01" fill-opacity="0.2"/>
<ellipse cx="3.29648" cy="2.56393" rx="3.29648" ry="2.56393" transform="matrix(-0.662192 0.749334 -0.662192 -0.749334 71.2932 466.705)" fill="#00FF01" fill-opacity="0.2"/>
<ellipse cx="3.29648" cy="2.56393" rx="3.29648" ry="2.56393" transform="matrix(-0.662192 0.749334 -0.662192 -0.749334 61.0039 466.691)" fill="#00FF01" fill-opacity="0.2"/>
<ellipse cx="3.29648" cy="2.56393" rx="3.29648" ry="2.56393" transform="matrix(-0.662192 0.749334 -0.662192 -0.749334 50.7122 466.678)" fill="#00FF01" fill-opacity="0.2"/>
<ellipse cx="3.29648" cy="2.56393" rx="3.29648" ry="2.56393" transform="matrix(-0.662192 0.749334 -0.662192 -0.749334 40.4219 466.664)" fill="#00FF01" fill-opacity="0.2"/>
<ellipse cx="3.29648" cy="2.93021" rx="3.29648" ry="2.93021" transform="matrix(-0.662192 0.749334 -0.662192 -0.749334 30.7183 466.922)" fill="#00FF01" fill-opacity="0.2"/>
<ellipse cx="3.29648" cy="2.93021" rx="3.29648" ry="2.93021" transform="matrix(-0.662192 0.749334 -0.662192 -0.749334 91.7607 479.428)" fill="#00FF01" fill-opacity="0.2"/>
<ellipse cx="3.29648" cy="2.93021" rx="3.29648" ry="2.93021" transform="matrix(-0.662192 0.749334 -0.662192 -0.749334 81.4705 479.412)" fill="#00FF01" fill-opacity="0.2"/>
<ellipse cx="3.29648" cy="2.56393" rx="3.29648" ry="2.56393" transform="matrix(-0.662192 0.749334 -0.662192 -0.749334 71.2803 479.125)" fill="#00FF01" fill-opacity="0.2"/>
<ellipse cx="3.29648" cy="2.56393" rx="3.29648" ry="2.56393" transform="matrix(-0.662192 0.749334 -0.662192 -0.749334 60.99 479.111)" fill="#00FF01" fill-opacity="0.2"/>
<ellipse cx="3.29648" cy="2.56393" rx="3.29648" ry="2.56393" transform="matrix(-0.662192 0.749334 -0.662192 -0.749334 50.6995 479.1)" fill="#00FF01" fill-opacity="0.2"/>
<ellipse cx="3.29648" cy="2.56393" rx="3.29648" ry="2.56393" transform="matrix(-0.662192 0.749334 -0.662192 -0.749334 40.4092 479.086)" fill="#00FF01" fill-opacity="0.2"/>
<ellipse cx="3.29648" cy="2.93021" rx="3.29648" ry="2.93021" transform="matrix(-0.662192 0.749334 -0.662192 -0.749334 30.7053 479.346)" fill="#00FF01" fill-opacity="0.2"/>
<ellipse cx="3.29648" cy="2.93021" rx="3.29648" ry="2.93021" transform="matrix(-0.662192 0.749334 -0.662192 -0.749334 81.4556 492.609)" fill="#00FF01" fill-opacity="0.2"/>
<ellipse cx="3.29648" cy="2.56393" rx="3.29648" ry="2.56393" transform="matrix(-0.662192 0.749334 -0.662192 -0.749334 71.2666 492.322)" fill="#00FF01" fill-opacity="0.2"/>
<ellipse cx="3.29648" cy="2.56393" rx="3.29648" ry="2.56393" transform="matrix(-0.662192 0.749334 -0.662192 -0.749334 60.9751 492.309)" fill="#00FF01" fill-opacity="0.2"/>
<ellipse cx="3.29648" cy="2.56393" rx="3.29648" ry="2.56393" transform="matrix(-0.662192 0.749334 -0.662192 -0.749334 50.686 492.295)" fill="#00FF01" fill-opacity="0.2"/>
<ellipse cx="3.29648" cy="2.56393" rx="3.29648" ry="2.56393" transform="matrix(-0.662192 0.749334 -0.662192 -0.749334 40.3953 492.281)" fill="#00FF01" fill-opacity="0.2"/>
<ellipse cx="3.29648" cy="2.93021" rx="3.29648" ry="2.93021" transform="matrix(-0.662192 0.749334 -0.662192 -0.749334 30.6904 492.541)" fill="#00FF01" fill-opacity="0.2"/>
<ellipse cx="3.29648" cy="2.93021" rx="3.29648" ry="2.93021" transform="matrix(-0.662192 0.749334 -0.662192 -0.749334 20.4553 441.291)" fill="#00FF01" fill-opacity="0.2"/>
<ellipse cx="3.29648" cy="2.93021" rx="3.29648" ry="2.93021" transform="matrix(-0.662192 0.749334 -0.662192 -0.749334 20.4414 453.711)" fill="#00FF01" fill-opacity="0.2"/>
<ellipse cx="3.29648" cy="2.93021" rx="3.29648" ry="2.93021" transform="matrix(-0.662192 0.749334 -0.662192 -0.749334 20.4277 466.908)" fill="#00FF01" fill-opacity="0.2"/>
<ellipse cx="3.29648" cy="2.93021" rx="3.29648" ry="2.93021" transform="matrix(-0.662192 0.749334 -0.662192 -0.749334 20.4138 479.332)" fill="#00FF01" fill-opacity="0.2"/>
<ellipse cx="3.29648" cy="2.93021" rx="3.29648" ry="2.93021" transform="matrix(-0.662192 0.749334 -0.662192 -0.749334 81.4419 505.031)" fill="#00FF01" fill-opacity="0.2"/>
<ellipse cx="3.29648" cy="2.56393" rx="3.29648" ry="2.56393" transform="matrix(-0.662192 0.749334 -0.662192 -0.749334 71.2539 504.742)" fill="#00FF01" fill-opacity="0.2"/>
<ellipse cx="3.29648" cy="2.56393" rx="3.29648" ry="2.56393" transform="matrix(-0.662192 0.749334 -0.662192 -0.749334 60.9624 504.729)" fill="#00FF01" fill-opacity="0.2"/>
<ellipse cx="3.29648" cy="2.56393" rx="3.29648" ry="2.56393" transform="matrix(-0.662192 0.749334 -0.662192 -0.749334 50.6719 504.715)" fill="#00FF01" fill-opacity="0.2"/>
<ellipse cx="3.29648" cy="2.56393" rx="3.29648" ry="2.56393" transform="matrix(-0.662192 0.749334 -0.662192 -0.749334 40.3826 504.703)" fill="#00FF01" fill-opacity="0.2"/>
<ellipse cx="3.29648" cy="2.93021" rx="3.29648" ry="2.93021" transform="matrix(-0.662192 0.749334 -0.662192 -0.749334 30.677 504.961)" fill="#00FF01" fill-opacity="0.2"/>
<ellipse cx="3.29648" cy="2.56393" rx="3.29648" ry="2.56393" transform="matrix(-0.662192 0.749334 -0.662192 -0.749334 71.238 517.941)" fill="#00FF01" fill-opacity="0.2"/>
<ellipse cx="3.29648" cy="2.56393" rx="3.29648" ry="2.56393" transform="matrix(-0.662192 0.749334 -0.662192 -0.749334 60.9487 517.928)" fill="#00FF01" fill-opacity="0.2"/>
<ellipse cx="3.29648" cy="2.56393" rx="3.29648" ry="2.56393" transform="matrix(-0.662192 0.749334 -0.662192 -0.749334 50.6582 517.91)" fill="#00FF01" fill-opacity="0.2"/>
<ellipse cx="3.29648" cy="2.56393" rx="3.29648" ry="2.56393" transform="matrix(-0.662192 0.749334 -0.662192 -0.749334 40.3679 517.898)" fill="#00FF01" fill-opacity="0.2"/>
<path d="M415.163 515.157L421.507 510.321L418.547 502.826L425.427 507.332L431.771 502.495L429.68 510.116L436.56 514.622L428.387 514.826L426.295 522.447L423.336 514.953L415.163 515.157Z" fill="#9FFFEA" fill-opacity="0.75"/>
<path d="M396.304 504.948L400.907 501.469L398.793 496.116L403.752 499.318L408.355 495.839L406.816 501.298L411.775 504.501L405.866 504.672L404.328 510.131L402.214 504.777L396.304 504.948Z" fill="#9FFFEA" fill-opacity="0.75"/>
<path d="M418.747 486.679L425.678 481.168L422.19 472.335L429.962 477.762L436.894 472.251L434.766 481.116L442.538 486.543L433.45 486.595L431.322 495.46L427.834 486.627L418.747 486.679Z" fill="#9FFFEA" fill-opacity="0.75"/>
<path d="M425.295 82.3482L431.821 77.2967L428.691 69.3704L435.855 74.1746L442.381 69.1231L440.282 77.1439L447.446 81.9481L438.985 82.1009L436.886 90.1217L433.756 82.1954L425.295 82.3482Z" fill="#9FFFEA" fill-opacity="0.75"/>
<path d="M405.678 71.434L410.413 67.8001L408.178 62.1385L413.34 65.5542L418.076 61.9204L416.531 67.6653L421.693 71.0811L415.576 71.2159L414.031 76.9608L411.795 71.2992L405.678 71.434Z" fill="#9FFFEA" fill-opacity="0.75"/>
<path d="M428.756 52.3454L435.885 46.5872L432.196 37.2455L440.291 43.0285L447.42 37.2704L445.294 46.6026L453.389 52.3856L443.98 52.3703L441.854 61.7025L438.165 52.3607L428.756 52.3454Z" fill="#9FFFEA" fill-opacity="0.75"/>
<rect x="26.887" y="206.865" width="5.51293" height="26.9451" transform="rotate(180 26.887 206.865)" fill="#F6FCB1" fill-opacity="0.75"/>
<rect x="16.6487" y="188.676" width="16.5388" height="17.5143" transform="rotate(180 16.6487 188.676)" fill="#F6FCB1" fill-opacity="0.75"/>
<rect x="10.3484" y="212.926" width="7.08805" height="19.5352" transform="rotate(180 10.3484 212.926)" fill="#F6FCB1" fill-opacity="0.75"/>
</svg>
