<svg width="507" height="502" viewBox="0 0 507 502" fill="none" xmlns="http://www.w3.org/2000/svg">
<path d="M212.658 95.998C184.695 95.998 162.025 65.5534 162.025 27.998C162.025 27.998 184.695 27.9985 212.658 27.9985C240.622 27.9985 263.292 27.998 263.292 27.998C263.292 65.5534 240.622 95.998 212.658 95.998Z" fill="#FAFF00" fill-opacity="0.5"/>
<g clip-path="url(#clip0_310_2370)">
<path d="M497.853 168.534C496.393 169.981 496.407 172.34 497.883 173.803C499.36 175.267 501.74 175.28 503.2 173.833C504.66 172.386 504.647 170.027 503.17 168.563C501.694 167.1 499.313 167.087 497.853 168.534Z" fill="#D5435D" fill-opacity="0.6"/>
<path d="M487.28 179.014C485.82 180.461 485.833 182.82 487.309 184.284C488.786 185.747 491.166 185.76 492.626 184.313C494.086 182.866 494.073 180.507 492.597 179.044C491.12 177.58 488.74 177.567 487.28 179.014Z" fill="#D5435D" fill-opacity="0.6"/>
<path d="M476.705 189.495C475.245 190.942 475.259 193.301 476.735 194.764C478.212 196.227 480.592 196.241 482.052 194.794C483.512 193.347 483.499 190.988 482.022 189.524C480.546 188.061 478.165 188.048 476.705 189.495Z" fill="#D5435D" fill-opacity="0.6"/>
<path d="M466.131 199.973C464.671 201.42 464.685 203.779 466.161 205.243C467.638 206.706 470.018 206.719 471.478 205.272C472.938 203.825 472.925 201.466 471.448 200.003C469.972 198.539 467.591 198.526 466.131 199.973Z" fill="#D5435D" fill-opacity="0.6"/>
<path d="M455.558 210.454C454.098 211.901 454.111 214.26 455.588 215.723C457.064 217.186 459.445 217.2 460.905 215.753C462.365 214.306 462.351 211.947 460.875 210.483C459.398 209.02 457.018 209.007 455.558 210.454Z" fill="#D5435D" fill-opacity="0.6"/>
<path d="M444.981 220.934C443.521 222.381 443.535 224.74 445.011 226.204C446.488 227.667 448.868 227.68 450.328 226.233C451.788 224.786 451.775 222.427 450.298 220.964C448.822 219.5 446.441 219.487 444.981 220.934Z" fill="#D5435D" fill-opacity="0.6"/>
<path d="M434.408 231.415C432.948 232.861 432.961 235.221 434.437 236.684C435.914 238.147 438.294 238.161 439.754 236.714C441.214 235.267 441.201 232.907 439.725 231.444C438.248 229.981 435.867 229.968 434.408 231.415Z" fill="#D5435D" fill-opacity="0.6"/>
<path d="M423.834 241.895C422.374 243.342 422.387 245.701 423.863 247.165C425.34 248.628 427.72 248.641 429.18 247.194C430.64 245.747 430.627 243.388 429.151 241.925C427.674 240.461 425.294 240.448 423.834 241.895Z" fill="#D5435D" fill-opacity="0.6"/>
<path d="M413.26 252.374C411.8 253.82 411.813 256.18 413.289 257.643C414.766 259.106 417.146 259.12 418.606 257.673C420.066 256.226 420.053 253.866 418.577 252.403C417.1 250.94 414.72 250.927 413.26 252.374Z" fill="#D5435D" fill-opacity="0.6"/>
<path d="M402.686 262.854C401.226 264.301 401.239 266.66 402.715 268.124C404.192 269.587 406.572 269.6 408.032 268.153C409.492 266.706 409.479 264.347 408.003 262.884C406.526 261.42 404.146 261.407 402.686 262.854Z" fill="#D5435D" fill-opacity="0.6"/>
<path d="M487.16 157.936C485.7 159.383 485.713 161.742 487.19 163.206C488.666 164.669 491.047 164.682 492.507 163.235C493.967 161.788 493.953 159.429 492.477 157.966C491 156.502 488.62 156.489 487.16 157.936Z" fill="#D5435D" fill-opacity="0.6"/>
<path d="M476.586 168.416C475.126 169.863 475.139 172.223 476.616 173.686C478.092 175.149 480.473 175.163 481.933 173.716C483.393 172.269 483.379 169.909 481.903 168.446C480.426 166.983 478.046 166.97 476.586 168.416Z" fill="#D5435D" fill-opacity="0.6"/>
<path d="M466.012 178.895C464.552 180.342 464.565 182.701 466.042 184.165C467.518 185.628 469.899 185.641 471.359 184.194C472.819 182.747 472.805 180.388 471.329 178.925C469.852 177.461 467.472 177.448 466.012 178.895Z" fill="#D5435D" fill-opacity="0.6"/>
<path d="M455.438 189.375C453.978 190.822 453.991 193.182 455.468 194.645C456.944 196.108 459.325 196.122 460.785 194.675C462.245 193.228 462.232 190.868 460.755 189.405C459.279 187.942 456.898 187.928 455.438 189.375Z" fill="#D5435D" fill-opacity="0.6"/>
<path d="M444.864 199.854C443.404 201.301 443.417 203.66 444.894 205.124C446.37 206.587 448.751 206.6 450.211 205.153C451.671 203.706 451.658 201.347 450.181 199.884C448.705 198.42 446.324 198.407 444.864 199.854Z" fill="#D5435D" fill-opacity="0.6"/>
<path d="M434.288 210.336C432.828 211.783 432.841 214.143 434.318 215.606C435.794 217.069 438.175 217.083 439.635 215.636C441.095 214.189 441.081 211.829 439.605 210.366C438.128 208.903 435.748 208.889 434.288 210.336Z" fill="#D5435D" fill-opacity="0.6"/>
<path d="M423.714 220.817C422.254 222.264 422.267 224.623 423.744 226.086C425.22 227.55 427.601 227.563 429.061 226.116C430.521 224.669 430.507 222.31 429.031 220.846C427.554 219.383 425.174 219.37 423.714 220.817Z" fill="#D5435D" fill-opacity="0.6"/>
<path d="M413.14 231.295C411.68 232.742 411.693 235.102 413.17 236.565C414.646 238.028 417.027 238.042 418.487 236.595C419.947 235.148 419.933 232.788 418.457 231.325C416.98 229.862 414.6 229.848 413.14 231.295Z" fill="#D5435D" fill-opacity="0.6"/>
<path d="M402.566 241.776C401.106 243.223 401.119 245.582 402.596 247.045C404.072 248.509 406.453 248.522 407.913 247.075C409.373 245.628 409.359 243.269 407.883 241.805C406.406 240.342 404.026 240.329 402.566 241.776Z" fill="#D5435D" fill-opacity="0.6"/>
<path d="M391.992 252.254C390.532 253.701 390.546 256.061 392.022 257.524C393.499 258.987 395.879 259.001 397.339 257.554C398.799 256.107 398.786 253.747 397.309 252.284C395.833 250.821 393.452 250.807 391.992 252.254Z" fill="#D5435D" fill-opacity="0.6"/>
<path d="M476.466 147.338C475.006 148.785 475.02 151.145 476.496 152.608C477.973 154.071 480.353 154.085 481.813 152.638C483.273 151.191 483.26 148.831 481.783 147.368C480.307 145.905 477.926 145.891 476.466 147.338Z" fill="#D5435D" fill-opacity="0.6"/>
<path d="M465.892 157.817C464.432 159.264 464.446 161.623 465.922 163.086C467.399 164.55 469.779 164.563 471.239 163.116C472.699 161.669 472.686 159.31 471.209 157.846C469.733 156.383 467.352 156.37 465.892 157.817Z" fill="#D5435D" fill-opacity="0.6"/>
<path d="M455.318 168.297C453.858 169.744 453.872 172.104 455.348 173.567C456.825 175.03 459.205 175.043 460.665 173.597C462.125 172.15 462.112 169.79 460.635 168.327C459.159 166.864 456.778 166.85 455.318 168.297Z" fill="#D5435D" fill-opacity="0.6"/>
<path d="M444.744 178.778C443.284 180.225 443.298 182.584 444.774 184.047C446.251 185.511 448.631 185.524 450.091 184.077C451.551 182.63 451.538 180.271 450.061 178.807C448.585 177.344 446.204 177.331 444.744 178.778Z" fill="#D5435D" fill-opacity="0.6"/>
<path d="M434.17 189.256C432.71 190.703 432.724 193.063 434.2 194.526C435.677 195.989 438.057 196.002 439.517 194.556C440.977 193.109 440.964 190.749 439.487 189.286C438.011 187.823 435.63 187.809 434.17 189.256Z" fill="#D5435D" fill-opacity="0.6"/>
<path d="M423.594 199.739C422.134 201.186 422.148 203.545 423.624 205.008C425.101 206.472 427.481 206.485 428.941 205.038C430.401 203.591 430.388 201.232 428.911 199.768C427.435 198.305 425.054 198.292 423.594 199.739Z" fill="#D5435D" fill-opacity="0.6"/>
<path d="M413.02 210.217C411.56 211.664 411.574 214.023 413.05 215.487C414.527 216.95 416.907 216.963 418.367 215.516C419.827 214.069 419.814 211.71 418.337 210.247C416.861 208.784 414.48 208.77 413.02 210.217Z" fill="#D5435D" fill-opacity="0.6"/>
<path d="M402.446 220.698C400.986 222.145 401 224.504 402.476 225.967C403.953 227.431 406.333 227.444 407.793 225.997C409.253 224.55 409.24 222.191 407.763 220.727C406.287 219.264 403.906 219.251 402.446 220.698Z" fill="#D5435D" fill-opacity="0.6"/>
<path d="M391.872 231.178C390.412 232.625 390.426 234.984 391.902 236.448C393.379 237.911 395.759 237.924 397.219 236.477C398.679 235.03 398.666 232.671 397.189 231.208C395.713 229.744 393.332 229.731 391.872 231.178Z" fill="#D5435D" fill-opacity="0.6"/>
<path d="M381.299 241.657C379.839 243.104 379.852 245.463 381.329 246.926C382.805 248.39 385.186 248.403 386.646 246.956C388.106 245.509 388.092 243.15 386.616 241.686C385.139 240.223 382.759 240.21 381.299 241.657Z" fill="#D5435D" fill-opacity="0.6"/>
<path d="M465.772 136.739C464.312 138.186 464.325 140.545 465.802 142.008C467.278 143.472 469.659 143.485 471.119 142.038C472.579 140.591 472.565 138.232 471.089 136.768C469.612 135.305 467.232 135.292 465.772 136.739Z" fill="#D5435D" fill-opacity="0.6"/>
<path d="M455.198 147.219C453.738 148.666 453.751 151.025 455.228 152.489C456.704 153.952 459.085 153.965 460.545 152.518C462.005 151.071 461.992 148.712 460.515 147.249C459.039 145.786 456.658 145.772 455.198 147.219Z" fill="#D5435D" fill-opacity="0.6"/>
<path d="M444.624 157.698C443.164 159.145 443.177 161.504 444.653 162.967C446.13 164.431 448.51 164.444 449.97 162.997C451.43 161.55 451.417 159.191 449.941 157.727C448.464 156.264 446.084 156.251 444.624 157.698Z" fill="#D5435D" fill-opacity="0.6"/>
<path d="M434.05 168.178C432.59 169.625 432.603 171.984 434.08 173.448C435.556 174.911 437.937 174.924 439.397 173.477C440.857 172.03 440.843 169.671 439.367 168.208C437.89 166.744 435.51 166.731 434.05 168.178Z" fill="#D5435D" fill-opacity="0.6"/>
<path d="M423.476 178.657C422.016 180.104 422.029 182.463 423.506 183.926C424.982 185.39 427.363 185.403 428.823 183.956C430.283 182.509 430.269 180.15 428.793 178.686C427.316 177.223 424.936 177.21 423.476 178.657Z" fill="#D5435D" fill-opacity="0.6"/>
<path d="M412.9 189.139C411.44 190.586 411.453 192.945 412.93 194.409C414.406 195.872 416.787 195.885 418.247 194.438C419.707 192.991 419.693 190.632 418.217 189.169C416.74 187.705 414.36 187.692 412.9 189.139Z" fill="#D5435D" fill-opacity="0.6"/>
<path d="M402.326 199.62C400.866 201.067 400.879 203.426 402.356 204.889C403.832 206.352 406.213 206.366 407.673 204.919C409.133 203.472 409.119 201.113 407.643 199.649C406.166 198.186 403.786 198.173 402.326 199.62Z" fill="#D5435D" fill-opacity="0.6"/>
<path d="M391.752 210.098C390.292 211.545 390.305 213.904 391.782 215.368C393.258 216.831 395.639 216.844 397.099 215.397C398.559 213.95 398.545 211.591 397.069 210.128C395.592 208.664 393.212 208.651 391.752 210.098Z" fill="#D5435D" fill-opacity="0.6"/>
<path d="M381.178 220.579C379.718 222.026 379.731 224.385 381.208 225.848C382.684 227.311 385.065 227.325 386.525 225.878C387.985 224.431 387.972 222.072 386.495 220.608C385.019 219.145 382.638 219.132 381.178 220.579Z" fill="#D5435D" fill-opacity="0.6"/>
<path d="M370.604 231.057C369.144 232.504 369.157 234.863 370.634 236.327C372.11 237.79 374.491 237.803 375.951 236.356C377.411 234.909 377.398 232.55 375.921 231.087C374.445 229.623 372.064 229.61 370.604 231.057Z" fill="#D5435D" fill-opacity="0.6"/>
<path d="M455.078 126.141C453.618 127.588 453.632 129.947 455.108 131.411C456.585 132.874 458.965 132.887 460.425 131.44C461.885 129.993 461.872 127.634 460.395 126.171C458.919 124.707 456.538 124.694 455.078 126.141Z" fill="#D5435D" fill-opacity="0.6"/>
<path d="M444.504 136.62C443.044 138.067 443.058 140.426 444.534 141.889C446.011 143.352 448.391 143.366 449.851 141.919C451.311 140.472 451.298 138.113 449.821 136.649C448.345 135.186 445.964 135.173 444.504 136.62Z" fill="#D5435D" fill-opacity="0.6"/>
<path d="M433.93 147.1C432.47 148.547 432.483 150.906 433.96 152.37C435.436 153.833 437.817 153.846 439.277 152.399C440.737 150.952 440.723 148.593 439.247 147.13C437.77 145.666 435.39 145.653 433.93 147.1Z" fill="#D5435D" fill-opacity="0.6"/>
<path d="M423.356 157.581C421.896 159.027 421.91 161.387 423.386 162.85C424.863 164.313 427.243 164.327 428.703 162.88C430.163 161.433 430.15 159.073 428.673 157.61C427.197 156.147 424.816 156.134 423.356 157.581Z" fill="#D5435D" fill-opacity="0.6"/>
<path d="M412.782 168.059C411.322 169.506 411.336 171.865 412.812 173.329C414.289 174.792 416.669 174.805 418.129 173.358C419.589 171.911 419.576 169.552 418.099 168.089C416.623 166.625 414.242 166.612 412.782 168.059Z" fill="#D5435D" fill-opacity="0.6"/>
<path d="M402.206 178.541C400.746 179.988 400.759 182.348 402.236 183.811C403.712 185.274 406.093 185.288 407.553 183.841C409.013 182.394 409 180.034 407.523 178.571C406.047 177.108 403.666 177.095 402.206 178.541Z" fill="#D5435D" fill-opacity="0.6"/>
<path d="M391.632 189.02C390.172 190.467 390.186 192.826 391.662 194.29C393.139 195.753 395.519 195.766 396.979 194.319C398.439 192.872 398.426 190.513 396.949 189.05C395.473 187.586 393.092 187.573 391.632 189.02Z" fill="#D5435D" fill-opacity="0.6"/>
<path d="M381.058 199.5C379.598 200.947 379.612 203.307 381.088 204.77C382.565 206.233 384.945 206.247 386.405 204.8C387.865 203.353 387.852 200.993 386.375 199.53C384.899 198.067 382.518 198.053 381.058 199.5Z" fill="#D5435D" fill-opacity="0.6"/>
<path d="M370.484 209.981C369.024 211.428 369.038 213.787 370.514 215.25C371.991 216.714 374.371 216.727 375.831 215.28C377.291 213.833 377.278 211.474 375.801 210.011C374.325 208.547 371.944 208.534 370.484 209.981Z" fill="#D5435D" fill-opacity="0.6"/>
<path d="M359.91 220.459C358.45 221.906 358.464 224.266 359.94 225.729C361.417 227.192 363.797 227.206 365.257 225.759C366.717 224.312 366.704 221.952 365.227 220.489C363.751 219.026 361.37 219.012 359.91 220.459Z" fill="#D5435D" fill-opacity="0.6"/>
<path d="M444.385 115.543C442.925 116.99 442.938 119.35 444.414 120.813C445.891 122.276 448.271 122.29 449.731 120.843C451.191 119.396 451.178 117.036 449.702 115.573C448.225 114.11 445.845 114.096 444.385 115.543Z" fill="#D5435D" fill-opacity="0.6"/>
<path d="M433.811 126.022C432.351 127.469 432.364 129.828 433.841 131.291C435.317 132.755 437.698 132.768 439.158 131.321C440.618 129.874 440.604 127.515 439.128 126.052C437.651 124.588 435.271 124.575 433.811 126.022Z" fill="#D5435D" fill-opacity="0.6"/>
<path d="M423.236 136.502C421.776 137.949 421.79 140.309 423.266 141.772C424.743 143.235 427.123 143.249 428.583 141.802C430.043 140.355 430.03 137.995 428.553 136.532C427.077 135.069 424.696 135.055 423.236 136.502Z" fill="#D5435D" fill-opacity="0.6"/>
<path d="M412.663 146.981C411.203 148.428 411.216 150.787 412.693 152.25C414.169 153.714 416.55 153.727 418.01 152.28C419.47 150.833 419.456 148.474 417.98 147.011C416.503 145.547 414.123 145.534 412.663 146.981Z" fill="#D5435D" fill-opacity="0.6"/>
<path d="M402.089 157.461C400.629 158.908 400.642 161.268 402.119 162.731C403.595 164.194 405.976 164.208 407.436 162.761C408.896 161.314 408.882 158.954 407.406 157.491C405.929 156.028 403.549 156.014 402.089 157.461Z" fill="#D5435D" fill-opacity="0.6"/>
<path d="M391.512 167.944C390.053 169.391 390.066 171.75 391.542 173.213C393.019 174.677 395.399 174.69 396.859 173.243C398.319 171.796 398.306 169.437 396.829 167.973C395.353 166.51 392.972 166.497 391.512 167.944Z" fill="#D5435D" fill-opacity="0.6"/>
<path d="M380.939 178.422C379.479 179.869 379.492 182.229 380.968 183.692C382.445 185.155 384.825 185.168 386.285 183.722C387.745 182.275 387.732 179.915 386.256 178.452C384.779 176.989 382.399 176.975 380.939 178.422Z" fill="#D5435D" fill-opacity="0.6"/>
<path d="M370.365 188.903C368.905 190.35 368.918 192.709 370.395 194.172C371.871 195.636 374.252 195.649 375.712 194.202C377.172 192.755 377.158 190.396 375.682 188.932C374.205 187.469 371.825 187.456 370.365 188.903Z" fill="#D5435D" fill-opacity="0.6"/>
<path d="M359.791 199.381C358.331 200.828 358.344 203.188 359.821 204.651C361.297 206.114 363.678 206.127 365.138 204.681C366.598 203.234 366.584 200.874 365.108 199.411C363.631 197.948 361.251 197.934 359.791 199.381Z" fill="#D5435D" fill-opacity="0.6"/>
<path d="M349.217 209.862C347.757 211.309 347.77 213.668 349.247 215.131C350.723 216.595 353.104 216.608 354.564 215.161C356.024 213.714 356.01 211.355 354.534 209.891C353.057 208.428 350.677 208.415 349.217 209.862Z" fill="#D5435D" fill-opacity="0.6"/>
<path d="M433.691 104.944C432.231 106.391 432.244 108.75 433.721 110.213C435.197 111.677 437.578 111.69 439.038 110.243C440.498 108.796 440.484 106.437 439.008 104.973C437.531 103.51 435.151 103.497 433.691 104.944Z" fill="#D5435D" fill-opacity="0.6"/>
<path d="M423.117 115.424C421.657 116.871 421.671 119.231 423.147 120.694C424.624 122.157 427.004 122.17 428.464 120.723C429.924 119.277 429.911 116.917 428.434 115.454C426.958 113.991 424.577 113.977 423.117 115.424Z" fill="#D5435D" fill-opacity="0.6"/>
<path d="M412.543 125.905C411.083 127.352 411.096 129.711 412.573 131.174C414.049 132.638 416.43 132.651 417.89 131.204C419.35 129.757 419.336 127.398 417.86 125.934C416.383 124.471 414.003 124.458 412.543 125.905Z" fill="#D5435D" fill-opacity="0.6"/>
<path d="M401.969 136.383C400.509 137.83 400.522 140.189 401.999 141.653C403.475 143.116 405.856 143.129 407.316 141.682C408.776 140.235 408.763 137.876 407.286 136.413C405.81 134.95 403.429 134.936 401.969 136.383Z" fill="#D5435D" fill-opacity="0.6"/>
<path d="M391.395 146.864C389.935 148.311 389.949 150.67 391.425 152.133C392.902 153.597 395.282 153.61 396.742 152.163C398.202 150.716 398.189 148.357 396.712 146.893C395.236 145.43 392.855 145.417 391.395 146.864Z" fill="#D5435D" fill-opacity="0.6"/>
<path d="M380.819 157.344C379.359 158.791 379.373 161.15 380.849 162.614C382.326 164.077 384.706 164.09 386.166 162.643C387.626 161.196 387.613 158.837 386.136 157.374C384.66 155.911 382.279 155.897 380.819 157.344Z" fill="#D5435D" fill-opacity="0.6"/>
<path d="M370.245 167.825C368.785 169.272 368.799 171.631 370.275 173.094C371.752 174.558 374.132 174.571 375.592 173.124C377.052 171.677 377.039 169.318 375.562 167.854C374.086 166.391 371.705 166.378 370.245 167.825Z" fill="#D5435D" fill-opacity="0.6"/>
<path d="M359.671 178.303C358.211 179.75 358.225 182.109 359.701 183.573C361.178 185.036 363.558 185.049 365.018 183.602C366.478 182.155 366.465 179.796 364.988 178.333C363.512 176.869 361.131 176.856 359.671 178.303Z" fill="#D5435D" fill-opacity="0.6"/>
<path d="M349.097 188.784C347.637 190.231 347.651 192.59 349.127 194.053C350.604 195.517 352.984 195.53 354.444 194.083C355.904 192.636 355.891 190.277 354.414 188.813C352.938 187.35 350.557 187.337 349.097 188.784Z" fill="#D5435D" fill-opacity="0.6"/>
<path d="M338.523 199.264C337.063 200.711 337.077 203.07 338.553 204.534C340.03 205.997 342.41 206.01 343.87 204.563C345.33 203.116 345.317 200.757 343.84 199.294C342.364 197.83 339.983 197.817 338.523 199.264Z" fill="#D5435D" fill-opacity="0.6"/>
<path d="M422.996 94.3462C421.536 95.7931 421.55 98.1524 423.026 99.6157C424.503 101.079 426.883 101.092 428.343 99.6454C429.803 98.1984 429.79 95.8391 428.313 94.3758C426.837 92.9125 424.456 92.8992 422.996 94.3462Z" fill="#D5435D" fill-opacity="0.6"/>
<path d="M412.423 104.825C410.963 106.272 410.976 108.631 412.453 110.094C413.929 111.558 416.31 111.571 417.77 110.124C419.23 108.677 419.216 106.318 417.74 104.854C416.263 103.391 413.883 103.378 412.423 104.825Z" fill="#D5435D" fill-opacity="0.6"/>
<path d="M401.848 115.305C400.388 116.752 400.402 119.111 401.878 120.575C403.355 122.038 405.735 122.051 407.195 120.604C408.655 119.157 408.642 116.798 407.165 115.335C405.689 113.871 403.308 113.858 401.848 115.305Z" fill="#D5435D" fill-opacity="0.6"/>
<path d="M391.274 125.784C389.814 127.231 389.828 129.59 391.304 131.053C392.781 132.517 395.161 132.53 396.621 131.083C398.081 129.636 398.068 127.277 396.591 125.813C395.115 124.35 392.734 124.337 391.274 125.784Z" fill="#D5435D" fill-opacity="0.6"/>
<path d="M380.7 136.264C379.24 137.711 379.254 140.07 380.73 141.534C382.207 142.997 384.587 143.01 386.047 141.563C387.507 140.116 387.494 137.757 386.017 136.294C384.541 134.83 382.16 134.817 380.7 136.264Z" fill="#D5435D" fill-opacity="0.6"/>
<path d="M370.124 146.747C368.664 148.194 368.678 150.553 370.154 152.016C371.631 153.479 374.011 153.493 375.471 152.046C376.931 150.599 376.918 148.24 375.441 146.776C373.965 145.313 371.584 145.3 370.124 146.747Z" fill="#D5435D" fill-opacity="0.6"/>
<path d="M359.55 157.225C358.09 158.672 358.104 161.031 359.58 162.495C361.057 163.958 363.437 163.971 364.897 162.524C366.357 161.077 366.344 158.718 364.867 157.255C363.391 155.791 361.01 155.778 359.55 157.225Z" fill="#D5435D" fill-opacity="0.6"/>
<path d="M348.976 167.706C347.516 169.152 347.53 171.512 349.006 172.975C350.483 174.438 352.863 174.452 354.323 173.005C355.783 171.558 355.77 169.199 354.293 167.735C352.817 166.272 350.436 166.259 348.976 167.706Z" fill="#D5435D" fill-opacity="0.6"/>
<path d="M338.403 178.184C336.943 179.631 336.956 181.99 338.433 183.454C339.909 184.917 342.29 184.93 343.75 183.483C345.21 182.036 345.196 179.677 343.72 178.214C342.243 176.75 339.863 176.737 338.403 178.184Z" fill="#D5435D" fill-opacity="0.6"/>
<path d="M327.829 188.665C326.369 190.111 326.382 192.471 327.859 193.934C329.335 195.397 331.716 195.411 333.176 193.964C334.636 192.517 334.622 190.157 333.146 188.694C331.669 187.231 329.289 187.218 327.829 188.665Z" fill="#D5435D" fill-opacity="0.6"/>
<path d="M412.303 83.7465C410.843 85.1935 410.856 87.5528 412.333 89.0161C413.809 90.4794 416.19 90.4927 417.65 89.0457C419.11 87.5988 419.096 85.2395 417.62 83.7762C416.143 82.3128 413.763 82.2996 412.303 83.7465Z" fill="#D5435D" fill-opacity="0.6"/>
<path d="M401.729 94.227C400.269 95.674 400.282 98.0332 401.759 99.4966C403.235 100.96 405.616 100.973 407.076 99.5262C408.536 98.0792 408.523 95.72 407.046 94.2567C405.57 92.7933 403.189 92.78 401.729 94.227Z" fill="#D5435D" fill-opacity="0.6"/>
<path d="M391.155 104.707C389.695 106.154 389.708 108.514 391.184 109.977C392.661 111.44 395.041 111.454 396.501 110.007C397.961 108.56 397.948 106.2 396.472 104.737C394.995 103.274 392.615 103.261 391.155 104.707Z" fill="#D5435D" fill-opacity="0.6"/>
<path d="M380.581 115.186C379.121 116.633 379.134 118.992 380.611 120.456C382.087 121.919 384.468 121.932 385.928 120.485C387.388 119.038 387.374 116.679 385.898 115.216C384.421 113.752 382.041 113.739 380.581 115.186Z" fill="#D5435D" fill-opacity="0.6"/>
<path d="M370.007 125.666C368.547 127.113 368.561 129.473 370.037 130.936C371.514 132.399 373.894 132.413 375.354 130.966C376.814 129.519 376.801 127.159 375.324 125.696C373.848 124.233 371.467 124.22 370.007 125.666Z" fill="#D5435D" fill-opacity="0.6"/>
<path d="M359.431 136.147C357.971 137.594 357.984 139.953 359.461 141.416C360.937 142.88 363.318 142.893 364.778 141.446C366.238 139.999 366.224 137.64 364.748 136.177C363.271 134.713 360.891 134.7 359.431 136.147Z" fill="#D5435D" fill-opacity="0.6"/>
<path d="M348.857 146.627C347.397 148.074 347.41 150.434 348.887 151.897C350.363 153.36 352.744 153.374 354.204 151.927C355.664 150.48 355.65 148.12 354.174 146.657C352.697 145.194 350.317 145.18 348.857 146.627Z" fill="#D5435D" fill-opacity="0.6"/>
<path d="M338.283 157.106C336.823 158.553 336.836 160.912 338.313 162.375C339.789 163.839 342.17 163.852 343.63 162.405C345.09 160.958 345.076 158.599 343.6 157.136C342.123 155.672 339.743 155.659 338.283 157.106Z" fill="#D5435D" fill-opacity="0.6"/>
<path d="M327.709 167.586C326.249 169.033 326.262 171.393 327.739 172.856C329.215 174.319 331.596 174.333 333.056 172.886C334.516 171.439 334.503 169.079 333.026 167.616C331.55 166.153 329.169 166.139 327.709 167.586Z" fill="#D5435D" fill-opacity="0.6"/>
<path d="M317.135 178.067C315.675 179.514 315.688 181.873 317.165 183.336C318.641 184.8 321.022 184.813 322.482 183.366C323.942 181.919 323.929 179.56 322.452 178.096C320.976 176.633 318.595 176.62 317.135 178.067Z" fill="#D5435D" fill-opacity="0.6"/>
<path d="M401.609 73.1489C400.149 74.5959 400.163 76.9551 401.639 78.4184C403.116 79.8818 405.496 79.8951 406.956 78.4481C408.416 77.0011 408.403 74.6419 406.926 73.1785C405.45 71.7152 403.069 71.7019 401.609 73.1489Z" fill="#D5435D" fill-opacity="0.6"/>
<path d="M391.035 83.6294C389.575 85.0763 389.589 87.4356 391.065 88.8989C392.542 90.3622 394.922 90.3755 396.382 88.9286C397.842 87.4816 397.829 85.1223 396.352 83.659C394.876 82.1957 392.495 82.1824 391.035 83.6294Z" fill="#D5435D" fill-opacity="0.6"/>
<path d="M380.461 94.1079C379.001 95.5548 379.015 97.9141 380.491 99.3774C381.968 100.841 384.348 100.854 385.808 99.4071C387.268 97.9601 387.255 95.6008 385.778 94.1375C384.302 92.6742 381.921 92.6609 380.461 94.1079Z" fill="#D5435D" fill-opacity="0.6"/>
<path d="M369.887 104.588C368.427 106.035 368.441 108.395 369.917 109.858C371.394 111.321 373.774 111.335 375.234 109.888C376.694 108.441 376.681 106.081 375.204 104.618C373.728 103.155 371.347 103.141 369.887 104.588Z" fill="#D5435D" fill-opacity="0.6"/>
<path d="M359.314 115.067C357.854 116.514 357.867 118.873 359.343 120.336C360.82 121.8 363.2 121.813 364.66 120.366C366.12 118.919 366.107 116.56 364.631 115.096C363.154 113.633 360.774 113.62 359.314 115.067Z" fill="#D5435D" fill-opacity="0.6"/>
<path d="M348.737 125.549C347.277 126.996 347.291 129.356 348.767 130.819C350.244 132.282 352.624 132.295 354.084 130.848C355.544 129.402 355.531 127.042 354.054 125.579C352.578 124.116 350.197 124.102 348.737 125.549Z" fill="#D5435D" fill-opacity="0.6"/>
<path d="M338.163 136.03C336.703 137.477 336.717 139.836 338.193 141.299C339.67 142.763 342.05 142.776 343.51 141.329C344.97 139.882 344.957 137.523 343.48 136.059C342.004 134.596 339.623 134.583 338.163 136.03Z" fill="#D5435D" fill-opacity="0.6"/>
<path d="M327.589 146.508C326.129 147.955 326.143 150.314 327.619 151.778C329.096 153.241 331.476 153.254 332.936 151.807C334.396 150.36 334.383 148.001 332.906 146.538C331.43 145.075 329.049 145.061 327.589 146.508Z" fill="#D5435D" fill-opacity="0.6"/>
<path d="M317.015 156.989C315.555 158.436 315.569 160.795 317.045 162.258C318.522 163.722 320.902 163.735 322.362 162.288C323.822 160.841 323.809 158.482 322.332 157.018C320.856 155.555 318.475 155.542 317.015 156.989Z" fill="#D5435D" fill-opacity="0.6"/>
<path d="M306.441 167.467C304.981 168.914 304.995 171.273 306.471 172.737C307.948 174.2 310.328 174.213 311.788 172.766C313.248 171.319 313.235 168.96 311.758 167.497C310.282 166.034 307.901 166.02 306.441 167.467Z" fill="#D5435D" fill-opacity="0.6"/>
</g>
<g opacity="0.7">
<path d="M140.121 477.637C138.364 477.637 136.94 478.727 136.94 480.072C136.94 481.416 138.364 482.506 140.121 482.506C141.877 482.506 143.302 481.416 143.302 480.072C143.302 478.727 141.877 477.637 140.121 477.637Z" fill="#E1EAF1"/>
<path d="M127.683 477.637C125.926 477.637 124.502 478.727 124.502 480.072C124.502 481.416 125.926 482.506 127.683 482.506C129.44 482.506 130.864 481.416 130.864 480.072C130.864 478.727 129.44 477.637 127.683 477.637Z" fill="#E1EAF1"/>
<path d="M115.245 477.637C113.488 477.637 112.064 478.727 112.064 480.072C112.064 481.416 113.488 482.506 115.245 482.506C117.002 482.506 118.426 481.416 118.426 480.072C118.426 478.727 117.002 477.637 115.245 477.637Z" fill="#E1EAF1"/>
<path d="M102.807 477.637C101.051 477.637 99.6265 478.727 99.6265 480.072C99.6265 481.416 101.051 482.506 102.807 482.506C104.564 482.506 105.988 481.416 105.988 480.072C105.988 478.727 104.564 477.637 102.807 477.637Z" fill="#E1EAF1"/>
<path d="M90.3697 477.637C88.6129 477.637 87.1888 478.727 87.1888 480.072C87.1888 481.416 88.6129 482.506 90.3697 482.506C92.1264 482.506 93.5505 481.416 93.5505 480.072C93.5505 478.727 92.1264 477.637 90.3697 477.637Z" fill="#E1EAF1"/>
<path d="M77.9319 477.637C76.1752 477.637 74.751 478.727 74.751 480.072C74.751 481.416 76.1752 482.506 77.9319 482.506C79.6887 482.506 81.1128 481.416 81.1128 480.072C81.1128 478.727 79.6887 477.637 77.9319 477.637Z" fill="#E1EAF1"/>
<path d="M65.4942 477.637C63.7374 477.637 62.3133 478.727 62.3133 480.072C62.3133 481.416 63.7374 482.506 65.4942 482.506C67.2509 482.506 68.675 481.416 68.675 480.072C68.675 478.727 67.2509 477.637 65.4942 477.637Z" fill="#E1EAF1"/>
<path d="M53.0564 477.637C51.2997 477.637 49.8755 478.727 49.8755 480.072C49.8755 481.416 51.2997 482.506 53.0564 482.506C54.8132 482.506 56.2373 481.416 56.2373 480.072C56.2373 478.727 54.8132 477.637 53.0564 477.637Z" fill="#E1EAF1"/>
<path d="M40.6187 477.637C38.8619 477.637 37.4378 478.727 37.4378 480.072C37.4378 481.416 38.8619 482.506 40.6187 482.506C42.3754 482.506 43.7996 481.416 43.7996 480.072C43.7996 478.727 42.3754 477.637 40.6187 477.637Z" fill="#E1EAF1"/>
<path d="M28.1809 477.637C26.4242 477.637 25.0001 478.727 25.0001 480.072C25.0001 481.416 26.4242 482.506 28.1809 482.506C29.9377 482.506 31.3618 481.416 31.3618 480.072C31.3618 478.727 29.9377 477.637 28.1809 477.637Z" fill="#E1EAF1"/>
<path d="M140.121 467.899C138.364 467.899 136.94 468.989 136.94 470.333C136.94 471.678 138.364 472.768 140.121 472.768C141.877 472.768 143.302 471.678 143.302 470.333C143.302 468.989 141.877 467.899 140.121 467.899Z" fill="#E1EAF1"/>
<path d="M127.683 467.899C125.926 467.899 124.502 468.989 124.502 470.333C124.502 471.678 125.926 472.768 127.683 472.768C129.44 472.768 130.864 471.678 130.864 470.333C130.864 468.989 129.44 467.899 127.683 467.899Z" fill="#E1EAF1"/>
<path d="M115.245 467.899C113.488 467.899 112.064 468.989 112.064 470.333C112.064 471.678 113.488 472.768 115.245 472.768C117.002 472.768 118.426 471.678 118.426 470.333C118.426 468.989 117.002 467.899 115.245 467.899Z" fill="#E1EAF1"/>
<path d="M102.807 467.899C101.051 467.899 99.6265 468.989 99.6265 470.333C99.6265 471.678 101.051 472.768 102.807 472.768C104.564 472.768 105.988 471.678 105.988 470.333C105.988 468.989 104.564 467.899 102.807 467.899Z" fill="#E1EAF1"/>
<path d="M90.3697 467.899C88.6129 467.899 87.1888 468.989 87.1888 470.333C87.1888 471.678 88.6129 472.768 90.3697 472.768C92.1264 472.768 93.5505 471.678 93.5505 470.333C93.5505 468.989 92.1264 467.899 90.3697 467.899Z" fill="#E1EAF1"/>
<path d="M77.9319 467.899C76.1752 467.899 74.751 468.989 74.751 470.333C74.751 471.678 76.1752 472.768 77.9319 472.768C79.6887 472.768 81.1128 471.678 81.1128 470.333C81.1128 468.989 79.6887 467.899 77.9319 467.899Z" fill="#E1EAF1"/>
<path d="M65.4942 467.899C63.7374 467.899 62.3133 468.989 62.3133 470.333C62.3133 471.678 63.7374 472.768 65.4942 472.768C67.2509 472.768 68.675 471.678 68.675 470.333C68.675 468.989 67.2509 467.899 65.4942 467.899Z" fill="#E1EAF1"/>
<path d="M53.0564 467.899C51.2997 467.899 49.8755 468.989 49.8755 470.333C49.8755 471.678 51.2997 472.768 53.0564 472.768C54.8132 472.768 56.2373 471.678 56.2373 470.333C56.2373 468.989 54.8132 467.899 53.0564 467.899Z" fill="#E1EAF1"/>
<path d="M40.6187 467.899C38.8619 467.899 37.4378 468.989 37.4378 470.333C37.4378 471.678 38.8619 472.768 40.6187 472.768C42.3754 472.768 43.7996 471.678 43.7996 470.333C43.7996 468.989 42.3754 467.899 40.6187 467.899Z" fill="#E1EAF1"/>
<path d="M28.1809 467.899C26.4242 467.899 25.0001 468.989 25.0001 470.333C25.0001 471.678 26.4242 472.768 28.1809 472.768C29.9377 472.768 31.3618 471.678 31.3618 470.333C31.3618 468.989 29.9377 467.899 28.1809 467.899Z" fill="#E1EAF1"/>
<path d="M140.121 458.163C138.364 458.163 136.94 459.252 136.94 460.597C136.94 461.941 138.364 463.031 140.121 463.031C141.877 463.031 143.302 461.941 143.302 460.597C143.302 459.252 141.877 458.163 140.121 458.163Z" fill="#E1EAF1"/>
<path d="M127.683 458.163C125.926 458.163 124.502 459.252 124.502 460.597C124.502 461.941 125.926 463.031 127.683 463.031C129.44 463.031 130.864 461.941 130.864 460.597C130.864 459.252 129.44 458.163 127.683 458.163Z" fill="#E1EAF1"/>
<path d="M115.245 458.163C113.488 458.163 112.064 459.252 112.064 460.597C112.064 461.941 113.488 463.031 115.245 463.031C117.002 463.031 118.426 461.941 118.426 460.597C118.426 459.252 117.002 458.163 115.245 458.163Z" fill="#E1EAF1"/>
<path d="M102.807 458.163C101.051 458.163 99.6265 459.252 99.6265 460.597C99.6265 461.941 101.051 463.031 102.807 463.031C104.564 463.031 105.988 461.941 105.988 460.597C105.988 459.252 104.564 458.163 102.807 458.163Z" fill="#E1EAF1"/>
<path d="M90.3697 458.163C88.6129 458.163 87.1888 459.252 87.1888 460.597C87.1888 461.941 88.6129 463.031 90.3697 463.031C92.1264 463.031 93.5505 461.941 93.5505 460.597C93.5505 459.252 92.1264 458.163 90.3697 458.163Z" fill="#E1EAF1"/>
<path d="M77.9319 458.163C76.1752 458.163 74.751 459.252 74.751 460.597C74.751 461.941 76.1752 463.031 77.9319 463.031C79.6887 463.031 81.1128 461.941 81.1128 460.597C81.1128 459.252 79.6887 458.163 77.9319 458.163Z" fill="#E1EAF1"/>
<path d="M65.4942 458.163C63.7374 458.163 62.3133 459.252 62.3133 460.597C62.3133 461.941 63.7374 463.031 65.4942 463.031C67.2509 463.031 68.675 461.941 68.675 460.597C68.675 459.252 67.2509 458.163 65.4942 458.163Z" fill="#E1EAF1"/>
<path d="M53.0564 458.163C51.2997 458.163 49.8755 459.252 49.8755 460.597C49.8755 461.941 51.2997 463.031 53.0564 463.031C54.8132 463.031 56.2373 461.941 56.2373 460.597C56.2373 459.252 54.8132 458.163 53.0564 458.163Z" fill="#E1EAF1"/>
<path d="M40.6187 458.163C38.8619 458.163 37.4378 459.252 37.4378 460.597C37.4378 461.941 38.8619 463.031 40.6187 463.031C42.3754 463.031 43.7996 461.941 43.7996 460.597C43.7996 459.252 42.3754 458.163 40.6187 458.163Z" fill="#E1EAF1"/>
<path d="M28.1809 458.163C26.4242 458.163 25.0001 459.252 25.0001 460.597C25.0001 461.941 26.4242 463.031 28.1809 463.031C29.9377 463.031 31.3618 461.941 31.3618 460.597C31.3618 459.252 29.9377 458.163 28.1809 458.163Z" fill="#E1EAF1"/>
<path d="M140.121 448.424C138.364 448.424 136.94 449.514 136.94 450.859C136.94 452.203 138.364 453.293 140.121 453.293C141.877 453.293 143.302 452.203 143.302 450.859C143.302 449.514 141.877 448.424 140.121 448.424Z" fill="#E1EAF1"/>
<path d="M127.683 448.424C125.926 448.424 124.502 449.514 124.502 450.859C124.502 452.203 125.926 453.293 127.683 453.293C129.44 453.293 130.864 452.203 130.864 450.859C130.864 449.514 129.44 448.424 127.683 448.424Z" fill="#E1EAF1"/>
<path d="M115.245 448.424C113.488 448.424 112.064 449.514 112.064 450.859C112.064 452.203 113.488 453.293 115.245 453.293C117.002 453.293 118.426 452.203 118.426 450.859C118.426 449.514 117.002 448.424 115.245 448.424Z" fill="#E1EAF1"/>
<path d="M102.807 448.424C101.051 448.424 99.6265 449.514 99.6265 450.859C99.6265 452.203 101.051 453.293 102.807 453.293C104.564 453.293 105.988 452.203 105.988 450.859C105.988 449.514 104.564 448.424 102.807 448.424Z" fill="#E1EAF1"/>
<path d="M90.3697 448.424C88.6129 448.424 87.1888 449.514 87.1888 450.859C87.1888 452.203 88.6129 453.293 90.3697 453.293C92.1264 453.293 93.5505 452.203 93.5505 450.859C93.5505 449.514 92.1264 448.424 90.3697 448.424Z" fill="#E1EAF1"/>
<path d="M77.9319 448.424C76.1752 448.424 74.751 449.514 74.751 450.859C74.751 452.203 76.1752 453.293 77.9319 453.293C79.6887 453.293 81.1128 452.203 81.1128 450.859C81.1128 449.514 79.6887 448.424 77.9319 448.424Z" fill="#E1EAF1"/>
<path d="M65.4942 448.424C63.7374 448.424 62.3133 449.514 62.3133 450.859C62.3133 452.203 63.7374 453.293 65.4942 453.293C67.2509 453.293 68.675 452.203 68.675 450.859C68.675 449.514 67.2509 448.424 65.4942 448.424Z" fill="#E1EAF1"/>
<path d="M53.0564 448.424C51.2997 448.424 49.8755 449.514 49.8755 450.859C49.8755 452.203 51.2997 453.293 53.0564 453.293C54.8132 453.293 56.2373 452.203 56.2373 450.859C56.2373 449.514 54.8132 448.424 53.0564 448.424Z" fill="#E1EAF1"/>
<path d="M40.6187 448.424C38.8619 448.424 37.4378 449.514 37.4378 450.859C37.4378 452.203 38.8619 453.293 40.6187 453.293C42.3754 453.293 43.7996 452.203 43.7996 450.859C43.7996 449.514 42.3754 448.424 40.6187 448.424Z" fill="#E1EAF1"/>
<path d="M28.1809 448.424C26.4242 448.424 25.0001 449.514 25.0001 450.859C25.0001 452.203 26.4242 453.293 28.1809 453.293C29.9377 453.293 31.3618 452.203 31.3618 450.859C31.3618 449.514 29.9377 448.424 28.1809 448.424Z" fill="#E1EAF1"/>
<path d="M140.121 438.686C138.364 438.686 136.94 439.776 136.94 441.12C136.94 442.465 138.364 443.555 140.121 443.555C141.877 443.555 143.302 442.465 143.302 441.12C143.302 439.776 141.877 438.686 140.121 438.686Z" fill="#E1EAF1"/>
<path d="M127.683 438.686C125.926 438.686 124.502 439.776 124.502 441.12C124.502 442.465 125.926 443.555 127.683 443.555C129.44 443.555 130.864 442.465 130.864 441.12C130.864 439.776 129.44 438.686 127.683 438.686Z" fill="#E1EAF1"/>
<path d="M115.245 438.686C113.488 438.686 112.064 439.776 112.064 441.12C112.064 442.465 113.488 443.555 115.245 443.555C117.002 443.555 118.426 442.465 118.426 441.12C118.426 439.776 117.002 438.686 115.245 438.686Z" fill="#E1EAF1"/>
<path d="M102.807 438.686C101.051 438.686 99.6265 439.776 99.6265 441.12C99.6265 442.465 101.051 443.555 102.807 443.555C104.564 443.555 105.988 442.465 105.988 441.12C105.988 439.776 104.564 438.686 102.807 438.686Z" fill="#E1EAF1"/>
<path d="M90.3697 438.686C88.6129 438.686 87.1888 439.776 87.1888 441.12C87.1888 442.465 88.6129 443.555 90.3697 443.555C92.1264 443.555 93.5505 442.465 93.5505 441.12C93.5505 439.776 92.1264 438.686 90.3697 438.686Z" fill="#E1EAF1"/>
<path d="M77.9319 438.686C76.1752 438.686 74.751 439.776 74.751 441.12C74.751 442.465 76.1752 443.555 77.9319 443.555C79.6887 443.555 81.1128 442.465 81.1128 441.12C81.1128 439.776 79.6887 438.686 77.9319 438.686Z" fill="#E1EAF1"/>
<path d="M65.4942 438.686C63.7374 438.686 62.3133 439.776 62.3133 441.12C62.3133 442.465 63.7374 443.555 65.4942 443.555C67.2509 443.555 68.675 442.465 68.675 441.12C68.675 439.776 67.2509 438.686 65.4942 438.686Z" fill="#E1EAF1"/>
<path d="M53.0564 438.686C51.2997 438.686 49.8755 439.776 49.8755 441.12C49.8755 442.465 51.2997 443.555 53.0564 443.555C54.8132 443.555 56.2373 442.465 56.2373 441.12C56.2373 439.776 54.8132 438.686 53.0564 438.686Z" fill="#E1EAF1"/>
<path d="M40.6187 438.686C38.8619 438.686 37.4378 439.776 37.4378 441.12C37.4378 442.465 38.8619 443.555 40.6187 443.555C42.3754 443.555 43.7996 442.465 43.7996 441.12C43.7996 439.776 42.3754 438.686 40.6187 438.686Z" fill="#E1EAF1"/>
<path d="M28.1809 438.686C26.4242 438.686 25.0001 439.776 25.0001 441.12C25.0001 442.465 26.4242 443.555 28.1809 443.555C29.9377 443.555 31.3618 442.465 31.3618 441.12C31.3618 439.776 29.9377 438.686 28.1809 438.686Z" fill="#E1EAF1"/>
<path d="M140.121 428.95C138.364 428.95 136.94 430.04 136.94 431.384C136.94 432.728 138.364 433.818 140.121 433.818C141.877 433.818 143.302 432.728 143.302 431.384C143.302 430.04 141.877 428.95 140.121 428.95Z" fill="#E1EAF1"/>
<path d="M127.683 428.95C125.926 428.95 124.502 430.04 124.502 431.384C124.502 432.728 125.926 433.818 127.683 433.818C129.44 433.818 130.864 432.728 130.864 431.384C130.864 430.04 129.44 428.95 127.683 428.95Z" fill="#E1EAF1"/>
<path d="M115.245 428.95C113.488 428.95 112.064 430.04 112.064 431.384C112.064 432.728 113.488 433.818 115.245 433.818C117.002 433.818 118.426 432.728 118.426 431.384C118.426 430.04 117.002 428.95 115.245 428.95Z" fill="#E1EAF1"/>
<path d="M102.807 428.95C101.051 428.95 99.6265 430.04 99.6265 431.384C99.6265 432.728 101.051 433.818 102.807 433.818C104.564 433.818 105.988 432.728 105.988 431.384C105.988 430.04 104.564 428.95 102.807 428.95Z" fill="#E1EAF1"/>
<path d="M90.3697 428.95C88.6129 428.95 87.1888 430.04 87.1888 431.384C87.1888 432.728 88.6129 433.818 90.3697 433.818C92.1264 433.818 93.5505 432.728 93.5505 431.384C93.5505 430.04 92.1264 428.95 90.3697 428.95Z" fill="#E1EAF1"/>
<path d="M77.9319 428.95C76.1752 428.95 74.751 430.04 74.751 431.384C74.751 432.728 76.1752 433.818 77.9319 433.818C79.6887 433.818 81.1128 432.728 81.1128 431.384C81.1128 430.04 79.6887 428.95 77.9319 428.95Z" fill="#E1EAF1"/>
<path d="M65.4942 428.95C63.7374 428.95 62.3133 430.04 62.3133 431.384C62.3133 432.728 63.7374 433.818 65.4942 433.818C67.2509 433.818 68.675 432.728 68.675 431.384C68.675 430.04 67.2509 428.95 65.4942 428.95Z" fill="#E1EAF1"/>
<path d="M53.0564 428.95C51.2997 428.95 49.8755 430.04 49.8755 431.384C49.8755 432.728 51.2997 433.818 53.0564 433.818C54.8132 433.818 56.2373 432.728 56.2373 431.384C56.2373 430.04 54.8132 428.95 53.0564 428.95Z" fill="#E1EAF1"/>
<path d="M40.6187 428.95C38.8619 428.95 37.4378 430.04 37.4378 431.384C37.4378 432.728 38.8619 433.818 40.6187 433.818C42.3754 433.818 43.7996 432.728 43.7996 431.384C43.7996 430.04 42.3754 428.95 40.6187 428.95Z" fill="#E1EAF1"/>
<path d="M28.1809 428.95C26.4242 428.95 25.0001 430.04 25.0001 431.384C25.0001 432.728 26.4242 433.818 28.1809 433.818C29.9377 433.818 31.3618 432.728 31.3618 431.384C31.3618 430.04 29.9377 428.95 28.1809 428.95Z" fill="#E1EAF1"/>
<path d="M140.121 419.213C138.364 419.213 136.94 420.303 136.94 421.648C136.94 422.992 138.364 424.082 140.121 424.082C141.877 424.082 143.302 422.992 143.302 421.648C143.302 420.303 141.877 419.213 140.121 419.213Z" fill="#E1EAF1"/>
<path d="M127.683 419.213C125.926 419.213 124.502 420.303 124.502 421.648C124.502 422.992 125.926 424.082 127.683 424.082C129.44 424.082 130.864 422.992 130.864 421.648C130.864 420.303 129.44 419.213 127.683 419.213Z" fill="#E1EAF1"/>
<path d="M115.245 419.213C113.488 419.213 112.064 420.303 112.064 421.648C112.064 422.992 113.488 424.082 115.245 424.082C117.002 424.082 118.426 422.992 118.426 421.648C118.426 420.303 117.002 419.213 115.245 419.213Z" fill="#E1EAF1"/>
<path d="M102.807 419.213C101.051 419.213 99.6265 420.303 99.6265 421.648C99.6265 422.992 101.051 424.082 102.807 424.082C104.564 424.082 105.988 422.992 105.988 421.648C105.988 420.303 104.564 419.213 102.807 419.213Z" fill="#E1EAF1"/>
<path d="M90.3697 419.213C88.6129 419.213 87.1888 420.303 87.1888 421.648C87.1888 422.992 88.6129 424.082 90.3697 424.082C92.1264 424.082 93.5505 422.992 93.5505 421.648C93.5505 420.303 92.1264 419.213 90.3697 419.213Z" fill="#E1EAF1"/>
<path d="M77.9319 419.213C76.1752 419.213 74.751 420.303 74.751 421.648C74.751 422.992 76.1752 424.082 77.9319 424.082C79.6887 424.082 81.1128 422.992 81.1128 421.648C81.1128 420.303 79.6887 419.213 77.9319 419.213Z" fill="#E1EAF1"/>
<path d="M65.4942 419.213C63.7374 419.213 62.3133 420.303 62.3133 421.648C62.3133 422.992 63.7374 424.082 65.4942 424.082C67.2509 424.082 68.675 422.992 68.675 421.648C68.675 420.303 67.2509 419.213 65.4942 419.213Z" fill="#E1EAF1"/>
<path d="M53.0564 419.213C51.2997 419.213 49.8755 420.303 49.8755 421.648C49.8755 422.992 51.2997 424.082 53.0564 424.082C54.8132 424.082 56.2373 422.992 56.2373 421.648C56.2373 420.303 54.8132 419.213 53.0564 419.213Z" fill="#E1EAF1"/>
<path d="M40.6187 419.213C38.8619 419.213 37.4378 420.303 37.4378 421.648C37.4378 422.992 38.8619 424.082 40.6187 424.082C42.3754 424.082 43.7996 422.992 43.7996 421.648C43.7996 420.303 42.3754 419.213 40.6187 419.213Z" fill="#E1EAF1"/>
<path d="M28.1809 419.213C26.4242 419.213 25.0001 420.303 25.0001 421.648C25.0001 422.992 26.4242 424.082 28.1809 424.082C29.9377 424.082 31.3618 422.992 31.3618 421.648C31.3618 420.303 29.9377 419.213 28.1809 419.213Z" fill="#E1EAF1"/>
<path d="M140.121 409.475C138.364 409.475 136.94 410.565 136.94 411.909C136.94 413.254 138.364 414.344 140.121 414.344C141.877 414.344 143.302 413.254 143.302 411.909C143.302 410.565 141.877 409.475 140.121 409.475Z" fill="#E1EAF1"/>
<path d="M127.683 409.475C125.926 409.475 124.502 410.565 124.502 411.909C124.502 413.254 125.926 414.344 127.683 414.344C129.44 414.344 130.864 413.254 130.864 411.909C130.864 410.565 129.44 409.475 127.683 409.475Z" fill="#E1EAF1"/>
<path d="M115.245 409.475C113.488 409.475 112.064 410.565 112.064 411.909C112.064 413.254 113.488 414.344 115.245 414.344C117.002 414.344 118.426 413.254 118.426 411.909C118.426 410.565 117.002 409.475 115.245 409.475Z" fill="#E1EAF1"/>
<path d="M102.807 409.475C101.051 409.475 99.6265 410.565 99.6265 411.909C99.6265 413.254 101.051 414.344 102.807 414.344C104.564 414.344 105.988 413.254 105.988 411.909C105.988 410.565 104.564 409.475 102.807 409.475Z" fill="#E1EAF1"/>
<path d="M90.3697 409.475C88.6129 409.475 87.1888 410.565 87.1888 411.909C87.1888 413.254 88.6129 414.344 90.3697 414.344C92.1264 414.344 93.5505 413.254 93.5505 411.909C93.5505 410.565 92.1264 409.475 90.3697 409.475Z" fill="#E1EAF1"/>
<path d="M77.9319 409.475C76.1752 409.475 74.751 410.565 74.751 411.909C74.751 413.254 76.1752 414.344 77.9319 414.344C79.6887 414.344 81.1128 413.254 81.1128 411.909C81.1128 410.565 79.6887 409.475 77.9319 409.475Z" fill="#E1EAF1"/>
<path d="M65.4942 409.475C63.7374 409.475 62.3133 410.565 62.3133 411.909C62.3133 413.254 63.7374 414.344 65.4942 414.344C67.2509 414.344 68.675 413.254 68.675 411.909C68.675 410.565 67.2509 409.475 65.4942 409.475Z" fill="#E1EAF1"/>
<path d="M53.0564 409.475C51.2997 409.475 49.8755 410.565 49.8755 411.909C49.8755 413.254 51.2997 414.344 53.0564 414.344C54.8132 414.344 56.2373 413.254 56.2373 411.909C56.2373 410.565 54.8132 409.475 53.0564 409.475Z" fill="#E1EAF1"/>
<path d="M40.6187 409.475C38.8619 409.475 37.4378 410.565 37.4378 411.909C37.4378 413.254 38.8619 414.344 40.6187 414.344C42.3754 414.344 43.7996 413.254 43.7996 411.909C43.7996 410.565 42.3754 409.475 40.6187 409.475Z" fill="#E1EAF1"/>
<path d="M28.1809 409.475C26.4242 409.475 25.0001 410.565 25.0001 411.909C25.0001 413.254 26.4242 414.344 28.1809 414.344C29.9377 414.344 31.3618 413.254 31.3618 411.909C31.3618 410.565 29.9377 409.475 28.1809 409.475Z" fill="#E1EAF1"/>
<path d="M140.121 399.737C138.364 399.737 136.94 400.827 136.94 402.171C136.94 403.516 138.364 404.605 140.121 404.605C141.877 404.605 143.302 403.516 143.302 402.171C143.302 400.827 141.877 399.737 140.121 399.737Z" fill="#E1EAF1"/>
<path d="M127.683 399.737C125.926 399.737 124.502 400.827 124.502 402.171C124.502 403.516 125.926 404.605 127.683 404.605C129.44 404.605 130.864 403.516 130.864 402.171C130.864 400.827 129.44 399.737 127.683 399.737Z" fill="#E1EAF1"/>
<path d="M115.245 399.737C113.488 399.737 112.064 400.827 112.064 402.171C112.064 403.516 113.488 404.605 115.245 404.605C117.002 404.605 118.426 403.516 118.426 402.171C118.426 400.827 117.002 399.737 115.245 399.737Z" fill="#E1EAF1"/>
<path d="M102.807 399.737C101.051 399.737 99.6265 400.827 99.6265 402.171C99.6265 403.516 101.051 404.605 102.807 404.605C104.564 404.605 105.988 403.516 105.988 402.171C105.988 400.827 104.564 399.737 102.807 399.737Z" fill="#E1EAF1"/>
<path d="M90.3697 399.737C88.6129 399.737 87.1888 400.827 87.1888 402.171C87.1888 403.516 88.6129 404.605 90.3697 404.605C92.1264 404.605 93.5505 403.516 93.5505 402.171C93.5505 400.827 92.1264 399.737 90.3697 399.737Z" fill="#E1EAF1"/>
<path d="M77.9319 399.737C76.1752 399.737 74.751 400.827 74.751 402.171C74.751 403.516 76.1752 404.605 77.9319 404.605C79.6887 404.605 81.1128 403.516 81.1128 402.171C81.1128 400.827 79.6887 399.737 77.9319 399.737Z" fill="#E1EAF1"/>
<path d="M65.4942 399.737C63.7374 399.737 62.3133 400.827 62.3133 402.171C62.3133 403.516 63.7374 404.605 65.4942 404.605C67.2509 404.605 68.675 403.516 68.675 402.171C68.675 400.827 67.2509 399.737 65.4942 399.737Z" fill="#E1EAF1"/>
<path d="M53.0564 399.737C51.2997 399.737 49.8755 400.827 49.8755 402.171C49.8755 403.516 51.2997 404.605 53.0564 404.605C54.8132 404.605 56.2373 403.516 56.2373 402.171C56.2373 400.827 54.8132 399.737 53.0564 399.737Z" fill="#E1EAF1"/>
<path d="M40.6187 399.737C38.8619 399.737 37.4378 400.827 37.4378 402.171C37.4378 403.516 38.8619 404.605 40.6187 404.605C42.3754 404.605 43.7996 403.516 43.7996 402.171C43.7996 400.827 42.3754 399.737 40.6187 399.737Z" fill="#E1EAF1"/>
<path d="M28.1809 399.737C26.4242 399.737 25.0001 400.827 25.0001 402.171C25.0001 403.516 26.4242 404.605 28.1809 404.605C29.9377 404.605 31.3618 403.516 31.3618 402.171C31.3618 400.827 29.9377 399.737 28.1809 399.737Z" fill="#E1EAF1"/>
<path d="M140.121 390C138.364 390 136.94 391.09 136.94 392.435C136.94 393.779 138.364 394.869 140.121 394.869C141.877 394.869 143.302 393.779 143.302 392.435C143.302 391.09 141.877 390 140.121 390Z" fill="#E1EAF1"/>
<path d="M127.683 390C125.926 390 124.502 391.09 124.502 392.435C124.502 393.779 125.926 394.869 127.683 394.869C129.44 394.869 130.864 393.779 130.864 392.435C130.864 391.09 129.44 390 127.683 390Z" fill="#E1EAF1"/>
<path d="M115.245 390C113.488 390 112.064 391.09 112.064 392.435C112.064 393.779 113.488 394.869 115.245 394.869C117.002 394.869 118.426 393.779 118.426 392.435C118.426 391.09 117.002 390 115.245 390Z" fill="#E1EAF1"/>
<path d="M102.807 390C101.051 390 99.6265 391.09 99.6265 392.435C99.6265 393.779 101.051 394.869 102.807 394.869C104.564 394.869 105.988 393.779 105.988 392.435C105.988 391.09 104.564 390 102.807 390Z" fill="#E1EAF1"/>
<path d="M90.3697 390C88.6129 390 87.1888 391.09 87.1888 392.435C87.1888 393.779 88.6129 394.869 90.3697 394.869C92.1264 394.869 93.5505 393.779 93.5505 392.435C93.5505 391.09 92.1264 390 90.3697 390Z" fill="#E1EAF1"/>
<path d="M77.9319 390C76.1752 390 74.751 391.09 74.751 392.435C74.751 393.779 76.1752 394.869 77.9319 394.869C79.6887 394.869 81.1128 393.779 81.1128 392.435C81.1128 391.09 79.6887 390 77.9319 390Z" fill="#E1EAF1"/>
<path d="M65.4942 390C63.7374 390 62.3133 391.09 62.3133 392.435C62.3133 393.779 63.7374 394.869 65.4942 394.869C67.2509 394.869 68.675 393.779 68.675 392.435C68.675 391.09 67.2509 390 65.4942 390Z" fill="#E1EAF1"/>
<path d="M53.0564 390C51.2997 390 49.8755 391.09 49.8755 392.435C49.8755 393.779 51.2997 394.869 53.0564 394.869C54.8132 394.869 56.2373 393.779 56.2373 392.435C56.2373 391.09 54.8132 390 53.0564 390Z" fill="#E1EAF1"/>
<path d="M40.6187 390C38.8619 390 37.4378 391.09 37.4378 392.435C37.4378 393.779 38.8619 394.869 40.6187 394.869C42.3754 394.869 43.7996 393.779 43.7996 392.435C43.7996 391.09 42.3754 390 40.6187 390Z" fill="#E1EAF1"/>
<path d="M28.1809 390C26.4242 390 25.0001 391.09 25.0001 392.435C25.0001 393.779 26.4242 394.869 28.1809 394.869C29.9377 394.869 31.3618 393.779 31.3618 392.435C31.3618 391.09 29.9377 390 28.1809 390Z" fill="#E1EAF1"/>
</g>
<path d="M54.3037 18.0822L45.5898 23.7482L49.2963 32.1575L40.2042 27.25L31.4903 32.916L34.585 24.217L25.493 19.3095L36.4977 18.8407L39.5925 10.1417L43.299 18.551L54.3037 18.0822Z" fill="#9FFFEA" fill-opacity="0.75"/>
<path d="M79.3039 29.1092L72.9825 33.1866L75.63 39.1932L69.0757 35.7065L62.7543 39.7839L65.0248 33.5517L58.4705 30.065L66.4281 29.6999L68.6987 23.4676L71.3462 29.4743L79.3039 29.1092Z" fill="#9FFFEA" fill-opacity="0.75"/>
<path d="M48.4342 50.4635L38.9048 56.9109L43.2732 66.8218L33.0154 60.8956L23.486 67.3429L26.6756 57.2329L16.4178 51.3067L28.647 50.9846L31.8366 40.8746L36.205 50.7856L48.4342 50.4635Z" fill="#9FFFEA" fill-opacity="0.75"/>
<rect x="392" y="469.43" width="5.51293" height="24.1413" fill="#EBFA3E" fill-opacity="0.75"/>
<rect x="402.239" y="485.727" width="16.5388" height="15.6919" fill="#EBFA3E" fill-opacity="0.75"/>
<rect x="408.539" y="464" width="7.08805" height="17.5025" fill="#EBFA3E" fill-opacity="0.75"/>
<defs>
<clipPath id="clip0_310_2370">
<rect width="142.188" height="143.796" fill="white" transform="matrix(0.710268 -0.703931 0.710268 0.703931 303.798 170.088)"/>
</clipPath>
</defs>
</svg>
