<svg width="477" height="500" viewBox="0 0 477 500" fill="none" xmlns="http://www.w3.org/2000/svg">
<g opacity="0.7" clip-path="url(#clip0_310_2178)">
<path d="M456.975 122.676C454.748 122.676 452.943 124.164 452.943 126C452.943 127.836 454.748 129.324 456.975 129.324C459.201 129.324 461.006 127.836 461.006 126C461.006 124.164 459.201 122.676 456.975 122.676Z" fill="#E1EAF1"/>
<path d="M440.912 122.676C438.686 122.676 436.881 124.164 436.881 126C436.881 127.836 438.686 129.324 440.912 129.324C443.139 129.324 444.943 127.836 444.943 126C444.943 124.164 443.139 122.676 440.912 122.676Z" fill="#E1EAF1"/>
<path d="M424.85 122.676C422.624 122.676 420.819 124.164 420.819 126C420.819 127.836 422.624 129.324 424.85 129.324C427.076 129.324 428.881 127.836 428.881 126C428.881 124.164 427.076 122.676 424.85 122.676Z" fill="#E1EAF1"/>
<path d="M408.788 122.676C406.561 122.676 404.757 124.164 404.757 126C404.757 127.836 406.561 129.324 408.788 129.324C411.014 129.324 412.819 127.836 412.819 126C412.819 124.164 411.014 122.676 408.788 122.676Z" fill="#E1EAF1"/>
<path d="M392.726 122.676C390.499 122.676 388.694 124.164 388.694 126C388.694 127.836 390.499 129.324 392.726 129.324C394.952 129.324 396.757 127.836 396.757 126C396.757 124.164 394.952 122.676 392.726 122.676Z" fill="#E1EAF1"/>
<path d="M376.663 122.676C374.437 122.676 372.632 124.164 372.632 126C372.632 127.836 374.437 129.324 376.663 129.324C378.89 129.324 380.694 127.836 380.694 126C380.694 124.164 378.89 122.676 376.663 122.676Z" fill="#E1EAF1"/>
<path d="M360.601 122.676C358.375 122.676 356.57 124.164 356.57 126C356.57 127.836 358.375 129.324 360.601 129.324C362.827 129.324 364.632 127.836 364.632 126C364.632 124.164 362.827 122.676 360.601 122.676Z" fill="#E1EAF1"/>
<path d="M344.539 122.676C342.312 122.676 340.508 124.164 340.508 126C340.508 127.836 342.312 129.324 344.539 129.324C346.765 129.324 348.57 127.836 348.57 126C348.57 124.164 346.765 122.676 344.539 122.676Z" fill="#E1EAF1"/>
<path d="M328.476 122.676C326.25 122.676 324.445 124.164 324.445 126C324.445 127.836 326.25 129.324 328.476 129.324C330.703 129.324 332.508 127.836 332.508 126C332.508 124.164 330.703 122.676 328.476 122.676Z" fill="#E1EAF1"/>
<path d="M312.414 122.676C310.188 122.676 308.383 124.164 308.383 126C308.383 127.836 310.188 129.324 312.414 129.324C314.641 129.324 316.445 127.836 316.445 126C316.445 124.164 314.641 122.676 312.414 122.676Z" fill="#E1EAF1"/>
<path d="M456.975 109.379C454.748 109.379 452.943 110.867 452.943 112.703C452.943 114.539 454.748 116.027 456.975 116.027C459.201 116.027 461.006 114.539 461.006 112.703C461.006 110.867 459.201 109.379 456.975 109.379Z" fill="#E1EAF1"/>
<path d="M440.912 109.379C438.686 109.379 436.881 110.867 436.881 112.703C436.881 114.539 438.686 116.027 440.912 116.027C443.139 116.027 444.943 114.539 444.943 112.703C444.943 110.867 443.139 109.379 440.912 109.379Z" fill="#E1EAF1"/>
<path d="M424.85 109.379C422.624 109.379 420.819 110.867 420.819 112.703C420.819 114.539 422.624 116.027 424.85 116.027C427.076 116.027 428.881 114.539 428.881 112.703C428.881 110.867 427.076 109.379 424.85 109.379Z" fill="#E1EAF1"/>
<path d="M408.788 109.379C406.561 109.379 404.757 110.867 404.757 112.703C404.757 114.539 406.561 116.027 408.788 116.027C411.014 116.027 412.819 114.539 412.819 112.703C412.819 110.867 411.014 109.379 408.788 109.379Z" fill="#E1EAF1"/>
<path d="M392.726 109.379C390.499 109.379 388.694 110.867 388.694 112.703C388.694 114.539 390.499 116.027 392.726 116.027C394.952 116.027 396.757 114.539 396.757 112.703C396.757 110.867 394.952 109.379 392.726 109.379Z" fill="#E1EAF1"/>
<path d="M376.663 109.379C374.437 109.379 372.632 110.867 372.632 112.703C372.632 114.539 374.437 116.027 376.663 116.027C378.89 116.027 380.694 114.539 380.694 112.703C380.694 110.867 378.89 109.379 376.663 109.379Z" fill="#E1EAF1"/>
<path d="M360.601 109.379C358.375 109.379 356.57 110.867 356.57 112.703C356.57 114.539 358.375 116.027 360.601 116.027C362.827 116.027 364.632 114.539 364.632 112.703C364.632 110.867 362.827 109.379 360.601 109.379Z" fill="#E1EAF1"/>
<path d="M344.539 109.379C342.312 109.379 340.508 110.867 340.508 112.703C340.508 114.539 342.312 116.027 344.539 116.027C346.765 116.027 348.57 114.539 348.57 112.703C348.57 110.867 346.765 109.379 344.539 109.379Z" fill="#E1EAF1"/>
<path d="M328.476 109.379C326.25 109.379 324.445 110.867 324.445 112.703C324.445 114.539 326.25 116.027 328.476 116.027C330.703 116.027 332.508 114.539 332.508 112.703C332.508 110.867 330.703 109.379 328.476 109.379Z" fill="#E1EAF1"/>
<path d="M312.414 109.379C310.188 109.379 308.383 110.867 308.383 112.703C308.383 114.539 310.188 116.027 312.414 116.027C314.641 116.027 316.445 114.539 316.445 112.703C316.445 110.867 314.641 109.379 312.414 109.379Z" fill="#E1EAF1"/>
<path d="M456.975 96.0818C454.748 96.0818 452.943 97.5702 452.943 99.4061C452.943 101.242 454.748 102.73 456.975 102.73C459.201 102.73 461.006 101.242 461.006 99.4061C461.006 97.5702 459.201 96.0818 456.975 96.0818Z" fill="#E1EAF1"/>
<path d="M440.912 96.0818C438.686 96.0818 436.881 97.5702 436.881 99.4061C436.881 101.242 438.686 102.73 440.912 102.73C443.139 102.73 444.943 101.242 444.943 99.4061C444.943 97.5702 443.139 96.0818 440.912 96.0818Z" fill="#E1EAF1"/>
<path d="M424.85 96.0818C422.624 96.0818 420.819 97.5702 420.819 99.4061C420.819 101.242 422.624 102.73 424.85 102.73C427.076 102.73 428.881 101.242 428.881 99.4061C428.881 97.5702 427.076 96.0818 424.85 96.0818Z" fill="#E1EAF1"/>
<path d="M408.788 96.0818C406.561 96.0818 404.757 97.5702 404.757 99.4061C404.757 101.242 406.561 102.73 408.788 102.73C411.014 102.73 412.819 101.242 412.819 99.4061C412.819 97.5702 411.014 96.0818 408.788 96.0818Z" fill="#E1EAF1"/>
<path d="M392.726 96.0818C390.499 96.0818 388.694 97.5702 388.694 99.4061C388.694 101.242 390.499 102.73 392.726 102.73C394.952 102.73 396.757 101.242 396.757 99.4061C396.757 97.5702 394.952 96.0818 392.726 96.0818Z" fill="#E1EAF1"/>
<path d="M376.663 96.0818C374.437 96.0818 372.632 97.5702 372.632 99.4061C372.632 101.242 374.437 102.73 376.663 102.73C378.89 102.73 380.694 101.242 380.694 99.4061C380.694 97.5702 378.89 96.0818 376.663 96.0818Z" fill="#E1EAF1"/>
<path d="M360.601 96.0818C358.375 96.0818 356.57 97.5702 356.57 99.4061C356.57 101.242 358.375 102.73 360.601 102.73C362.827 102.73 364.632 101.242 364.632 99.4061C364.632 97.5702 362.827 96.0818 360.601 96.0818Z" fill="#E1EAF1"/>
<path d="M344.539 96.0818C342.312 96.0818 340.508 97.5702 340.508 99.4061C340.508 101.242 342.312 102.73 344.539 102.73C346.765 102.73 348.57 101.242 348.57 99.4061C348.57 97.5702 346.765 96.0818 344.539 96.0818Z" fill="#E1EAF1"/>
<path d="M328.476 96.0818C326.25 96.0818 324.445 97.5702 324.445 99.4061C324.445 101.242 326.25 102.73 328.476 102.73C330.703 102.73 332.508 101.242 332.508 99.4061C332.508 97.5702 330.703 96.0818 328.476 96.0818Z" fill="#E1EAF1"/>
<path d="M312.414 96.0818C310.188 96.0818 308.383 97.5702 308.383 99.4061C308.383 101.242 310.188 102.73 312.414 102.73C314.641 102.73 316.445 101.242 316.445 99.4061C316.445 97.5702 314.641 96.0818 312.414 96.0818Z" fill="#E1EAF1"/>
<path d="M456.975 82.783C454.748 82.783 452.943 84.2713 452.943 86.1073C452.943 87.9433 454.748 89.4316 456.975 89.4316C459.201 89.4316 461.006 87.9433 461.006 86.1073C461.006 84.2713 459.201 82.783 456.975 82.783Z" fill="#E1EAF1"/>
<path d="M440.912 82.783C438.686 82.783 436.881 84.2713 436.881 86.1073C436.881 87.9433 438.686 89.4316 440.912 89.4316C443.139 89.4316 444.943 87.9433 444.943 86.1073C444.943 84.2713 443.139 82.783 440.912 82.783Z" fill="#E1EAF1"/>
<path d="M424.85 82.783C422.624 82.783 420.819 84.2713 420.819 86.1073C420.819 87.9433 422.624 89.4316 424.85 89.4316C427.076 89.4316 428.881 87.9433 428.881 86.1073C428.881 84.2713 427.076 82.783 424.85 82.783Z" fill="#E1EAF1"/>
<path d="M408.788 82.783C406.561 82.783 404.757 84.2713 404.757 86.1073C404.757 87.9433 406.561 89.4316 408.788 89.4316C411.014 89.4316 412.819 87.9433 412.819 86.1073C412.819 84.2713 411.014 82.783 408.788 82.783Z" fill="#E1EAF1"/>
<path d="M392.726 82.783C390.499 82.783 388.694 84.2713 388.694 86.1073C388.694 87.9433 390.499 89.4316 392.726 89.4316C394.952 89.4316 396.757 87.9433 396.757 86.1073C396.757 84.2713 394.952 82.783 392.726 82.783Z" fill="#E1EAF1"/>
<path d="M376.663 82.783C374.437 82.783 372.632 84.2713 372.632 86.1073C372.632 87.9433 374.437 89.4316 376.663 89.4316C378.89 89.4316 380.694 87.9433 380.694 86.1073C380.694 84.2713 378.89 82.783 376.663 82.783Z" fill="#E1EAF1"/>
<path d="M360.601 82.783C358.375 82.783 356.57 84.2713 356.57 86.1073C356.57 87.9433 358.375 89.4316 360.601 89.4316C362.827 89.4316 364.632 87.9433 364.632 86.1073C364.632 84.2713 362.827 82.783 360.601 82.783Z" fill="#E1EAF1"/>
<path d="M344.539 82.783C342.312 82.783 340.508 84.2713 340.508 86.1073C340.508 87.9433 342.312 89.4316 344.539 89.4316C346.765 89.4316 348.57 87.9433 348.57 86.1073C348.57 84.2713 346.765 82.783 344.539 82.783Z" fill="#E1EAF1"/>
<path d="M328.476 82.783C326.25 82.783 324.445 84.2713 324.445 86.1073C324.445 87.9433 326.25 89.4316 328.476 89.4316C330.703 89.4316 332.508 87.9433 332.508 86.1073C332.508 84.2713 330.703 82.783 328.476 82.783Z" fill="#E1EAF1"/>
<path d="M312.414 82.783C310.188 82.783 308.383 84.2713 308.383 86.1073C308.383 87.9433 310.188 89.4316 312.414 89.4316C314.641 89.4316 316.445 87.9433 316.445 86.1073C316.445 84.2713 314.641 82.783 312.414 82.783Z" fill="#E1EAF1"/>
<path d="M456.975 69.4861C454.748 69.4861 452.943 70.9744 452.943 72.8104C452.943 74.6464 454.748 76.1348 456.975 76.1348C459.201 76.1348 461.006 74.6464 461.006 72.8104C461.006 70.9744 459.201 69.4861 456.975 69.4861Z" fill="#E1EAF1"/>
<path d="M440.912 69.4861C438.686 69.4861 436.881 70.9744 436.881 72.8104C436.881 74.6464 438.686 76.1348 440.912 76.1348C443.139 76.1348 444.943 74.6464 444.943 72.8104C444.943 70.9744 443.139 69.4861 440.912 69.4861Z" fill="#E1EAF1"/>
<path d="M424.85 69.4861C422.624 69.4861 420.819 70.9744 420.819 72.8104C420.819 74.6464 422.624 76.1348 424.85 76.1348C427.076 76.1348 428.881 74.6464 428.881 72.8104C428.881 70.9744 427.076 69.4861 424.85 69.4861Z" fill="#E1EAF1"/>
<path d="M408.788 69.4861C406.561 69.4861 404.757 70.9744 404.757 72.8104C404.757 74.6464 406.561 76.1348 408.788 76.1348C411.014 76.1348 412.819 74.6464 412.819 72.8104C412.819 70.9744 411.014 69.4861 408.788 69.4861Z" fill="#E1EAF1"/>
<path d="M392.726 69.4861C390.499 69.4861 388.694 70.9744 388.694 72.8104C388.694 74.6464 390.499 76.1348 392.726 76.1348C394.952 76.1348 396.757 74.6464 396.757 72.8104C396.757 70.9744 394.952 69.4861 392.726 69.4861Z" fill="#E1EAF1"/>
<path d="M376.663 69.4861C374.437 69.4861 372.632 70.9744 372.632 72.8104C372.632 74.6464 374.437 76.1348 376.663 76.1348C378.89 76.1348 380.694 74.6464 380.694 72.8104C380.694 70.9744 378.89 69.4861 376.663 69.4861Z" fill="#E1EAF1"/>
<path d="M360.601 69.4861C358.375 69.4861 356.57 70.9744 356.57 72.8104C356.57 74.6464 358.375 76.1348 360.601 76.1348C362.827 76.1348 364.632 74.6464 364.632 72.8104C364.632 70.9744 362.827 69.4861 360.601 69.4861Z" fill="#E1EAF1"/>
<path d="M344.539 69.4861C342.312 69.4861 340.508 70.9744 340.508 72.8104C340.508 74.6464 342.312 76.1348 344.539 76.1348C346.765 76.1348 348.57 74.6464 348.57 72.8104C348.57 70.9744 346.765 69.4861 344.539 69.4861Z" fill="#E1EAF1"/>
<path d="M328.476 69.4861C326.25 69.4861 324.445 70.9744 324.445 72.8104C324.445 74.6464 326.25 76.1348 328.476 76.1348C330.703 76.1348 332.508 74.6464 332.508 72.8104C332.508 70.9744 330.703 69.4861 328.476 69.4861Z" fill="#E1EAF1"/>
<path d="M312.414 69.4861C310.188 69.4861 308.383 70.9744 308.383 72.8104C308.383 74.6464 310.188 76.1348 312.414 76.1348C314.641 76.1348 316.445 74.6464 316.445 72.8104C316.445 70.9744 314.641 69.4861 312.414 69.4861Z" fill="#E1EAF1"/>
<path d="M456.975 56.1892C454.748 56.1892 452.943 57.6776 452.943 59.5136C452.943 61.3495 454.748 62.8379 456.975 62.8379C459.201 62.8379 461.006 61.3495 461.006 59.5136C461.006 57.6776 459.201 56.1892 456.975 56.1892Z" fill="#E1EAF1"/>
<path d="M440.912 56.1892C438.686 56.1892 436.881 57.6776 436.881 59.5136C436.881 61.3495 438.686 62.8379 440.912 62.8379C443.139 62.8379 444.943 61.3495 444.943 59.5136C444.943 57.6776 443.139 56.1892 440.912 56.1892Z" fill="#E1EAF1"/>
<path d="M424.85 56.1892C422.624 56.1892 420.819 57.6776 420.819 59.5136C420.819 61.3495 422.624 62.8379 424.85 62.8379C427.076 62.8379 428.881 61.3495 428.881 59.5136C428.881 57.6776 427.076 56.1892 424.85 56.1892Z" fill="#E1EAF1"/>
<path d="M408.788 56.1892C406.561 56.1892 404.757 57.6776 404.757 59.5136C404.757 61.3495 406.561 62.8379 408.788 62.8379C411.014 62.8379 412.819 61.3495 412.819 59.5136C412.819 57.6776 411.014 56.1892 408.788 56.1892Z" fill="#E1EAF1"/>
<path d="M392.726 56.1892C390.499 56.1892 388.694 57.6776 388.694 59.5136C388.694 61.3495 390.499 62.8379 392.726 62.8379C394.952 62.8379 396.757 61.3495 396.757 59.5136C396.757 57.6776 394.952 56.1892 392.726 56.1892Z" fill="#E1EAF1"/>
<path d="M376.663 56.1892C374.437 56.1892 372.632 57.6776 372.632 59.5136C372.632 61.3495 374.437 62.8379 376.663 62.8379C378.89 62.8379 380.694 61.3495 380.694 59.5136C380.694 57.6776 378.89 56.1892 376.663 56.1892Z" fill="#E1EAF1"/>
<path d="M360.601 56.1892C358.375 56.1892 356.57 57.6776 356.57 59.5136C356.57 61.3495 358.375 62.8379 360.601 62.8379C362.827 62.8379 364.632 61.3495 364.632 59.5136C364.632 57.6776 362.827 56.1892 360.601 56.1892Z" fill="#E1EAF1"/>
<path d="M344.539 56.1892C342.312 56.1892 340.508 57.6776 340.508 59.5136C340.508 61.3495 342.312 62.8379 344.539 62.8379C346.765 62.8379 348.57 61.3495 348.57 59.5136C348.57 57.6776 346.765 56.1892 344.539 56.1892Z" fill="#E1EAF1"/>
<path d="M328.476 56.1892C326.25 56.1892 324.445 57.6776 324.445 59.5136C324.445 61.3495 326.25 62.8379 328.476 62.8379C330.703 62.8379 332.508 61.3495 332.508 59.5136C332.508 57.6776 330.703 56.1892 328.476 56.1892Z" fill="#E1EAF1"/>
<path d="M312.414 56.1892C310.188 56.1892 308.383 57.6776 308.383 59.5136C308.383 61.3495 310.188 62.8379 312.414 62.8379C314.641 62.8379 316.445 61.3495 316.445 59.5136C316.445 57.6776 314.641 56.1892 312.414 56.1892Z" fill="#E1EAF1"/>
<path d="M456.975 42.8923C454.748 42.8923 452.943 44.3807 452.943 46.2167C452.943 48.0527 454.748 49.541 456.975 49.541C459.201 49.541 461.006 48.0527 461.006 46.2167C461.006 44.3807 459.201 42.8923 456.975 42.8923Z" fill="#E1EAF1"/>
<path d="M440.912 42.8923C438.686 42.8923 436.881 44.3807 436.881 46.2167C436.881 48.0527 438.686 49.541 440.912 49.541C443.139 49.541 444.943 48.0527 444.943 46.2167C444.943 44.3807 443.139 42.8923 440.912 42.8923Z" fill="#E1EAF1"/>
<path d="M424.85 42.8923C422.624 42.8923 420.819 44.3807 420.819 46.2167C420.819 48.0527 422.624 49.541 424.85 49.541C427.076 49.541 428.881 48.0527 428.881 46.2167C428.881 44.3807 427.076 42.8923 424.85 42.8923Z" fill="#E1EAF1"/>
<path d="M408.788 42.8923C406.561 42.8923 404.757 44.3807 404.757 46.2167C404.757 48.0527 406.561 49.541 408.788 49.541C411.014 49.541 412.819 48.0527 412.819 46.2167C412.819 44.3807 411.014 42.8923 408.788 42.8923Z" fill="#E1EAF1"/>
<path d="M392.726 42.8923C390.499 42.8923 388.694 44.3807 388.694 46.2167C388.694 48.0527 390.499 49.541 392.726 49.541C394.952 49.541 396.757 48.0527 396.757 46.2167C396.757 44.3807 394.952 42.8923 392.726 42.8923Z" fill="#E1EAF1"/>
<path d="M376.663 42.8923C374.437 42.8923 372.632 44.3807 372.632 46.2167C372.632 48.0527 374.437 49.541 376.663 49.541C378.89 49.541 380.694 48.0527 380.694 46.2167C380.694 44.3807 378.89 42.8923 376.663 42.8923Z" fill="#E1EAF1"/>
<path d="M360.601 42.8923C358.375 42.8923 356.57 44.3807 356.57 46.2167C356.57 48.0527 358.375 49.541 360.601 49.541C362.827 49.541 364.632 48.0527 364.632 46.2167C364.632 44.3807 362.827 42.8923 360.601 42.8923Z" fill="#E1EAF1"/>
<path d="M344.539 42.8923C342.312 42.8923 340.508 44.3807 340.508 46.2167C340.508 48.0527 342.312 49.541 344.539 49.541C346.765 49.541 348.57 48.0527 348.57 46.2167C348.57 44.3807 346.765 42.8923 344.539 42.8923Z" fill="#E1EAF1"/>
<path d="M328.476 42.8923C326.25 42.8923 324.445 44.3807 324.445 46.2167C324.445 48.0527 326.25 49.541 328.476 49.541C330.703 49.541 332.508 48.0527 332.508 46.2167C332.508 44.3807 330.703 42.8923 328.476 42.8923Z" fill="#E1EAF1"/>
<path d="M312.414 42.8923C310.188 42.8923 308.383 44.3807 308.383 46.2167C308.383 48.0527 310.188 49.541 312.414 49.541C314.641 49.541 316.445 48.0527 316.445 46.2167C316.445 44.3807 314.641 42.8923 312.414 42.8923Z" fill="#E1EAF1"/>
<path d="M456.975 29.5935C454.748 29.5935 452.943 31.0819 452.943 32.9179C452.943 34.7538 454.748 36.2422 456.975 36.2422C459.201 36.2422 461.006 34.7538 461.006 32.9179C461.006 31.0819 459.201 29.5935 456.975 29.5935Z" fill="#E1EAF1"/>
<path d="M440.912 29.5935C438.686 29.5935 436.881 31.0819 436.881 32.9179C436.881 34.7538 438.686 36.2422 440.912 36.2422C443.139 36.2422 444.943 34.7538 444.943 32.9179C444.943 31.0819 443.139 29.5935 440.912 29.5935Z" fill="#E1EAF1"/>
<path d="M424.85 29.5935C422.624 29.5935 420.819 31.0819 420.819 32.9179C420.819 34.7538 422.624 36.2422 424.85 36.2422C427.076 36.2422 428.881 34.7538 428.881 32.9179C428.881 31.0819 427.076 29.5935 424.85 29.5935Z" fill="#E1EAF1"/>
<path d="M408.788 29.5935C406.561 29.5935 404.757 31.0819 404.757 32.9179C404.757 34.7538 406.561 36.2422 408.788 36.2422C411.014 36.2422 412.819 34.7538 412.819 32.9179C412.819 31.0819 411.014 29.5935 408.788 29.5935Z" fill="#E1EAF1"/>
<path d="M392.726 29.5935C390.499 29.5935 388.694 31.0819 388.694 32.9179C388.694 34.7538 390.499 36.2422 392.726 36.2422C394.952 36.2422 396.757 34.7538 396.757 32.9179C396.757 31.0819 394.952 29.5935 392.726 29.5935Z" fill="#E1EAF1"/>
<path d="M376.663 29.5935C374.437 29.5935 372.632 31.0819 372.632 32.9179C372.632 34.7538 374.437 36.2422 376.663 36.2422C378.89 36.2422 380.694 34.7538 380.694 32.9179C380.694 31.0819 378.89 29.5935 376.663 29.5935Z" fill="#E1EAF1"/>
<path d="M360.601 29.5935C358.375 29.5935 356.57 31.0819 356.57 32.9179C356.57 34.7538 358.375 36.2422 360.601 36.2422C362.827 36.2422 364.632 34.7538 364.632 32.9179C364.632 31.0819 362.827 29.5935 360.601 29.5935Z" fill="#E1EAF1"/>
<path d="M344.539 29.5935C342.312 29.5935 340.508 31.0819 340.508 32.9179C340.508 34.7538 342.312 36.2422 344.539 36.2422C346.765 36.2422 348.57 34.7538 348.57 32.9179C348.57 31.0819 346.765 29.5935 344.539 29.5935Z" fill="#E1EAF1"/>
<path d="M328.476 29.5935C326.25 29.5935 324.445 31.0819 324.445 32.9179C324.445 34.7538 326.25 36.2422 328.476 36.2422C330.703 36.2422 332.508 34.7538 332.508 32.9179C332.508 31.0819 330.703 29.5935 328.476 29.5935Z" fill="#E1EAF1"/>
<path d="M312.414 29.5935C310.188 29.5935 308.383 31.0819 308.383 32.9179C308.383 34.7538 310.188 36.2422 312.414 36.2422C314.641 36.2422 316.445 34.7538 316.445 32.9179C316.445 31.0819 314.641 29.5935 312.414 29.5935Z" fill="#E1EAF1"/>
<path d="M456.975 16.2966C454.748 16.2966 452.943 17.785 452.943 19.621C452.943 21.457 454.748 22.9453 456.975 22.9453C459.201 22.9453 461.006 21.457 461.006 19.621C461.006 17.785 459.201 16.2966 456.975 16.2966Z" fill="#E1EAF1"/>
<path d="M440.912 16.2966C438.686 16.2966 436.881 17.785 436.881 19.621C436.881 21.457 438.686 22.9453 440.912 22.9453C443.139 22.9453 444.943 21.457 444.943 19.621C444.943 17.785 443.139 16.2966 440.912 16.2966Z" fill="#E1EAF1"/>
<path d="M424.85 16.2966C422.624 16.2966 420.819 17.785 420.819 19.621C420.819 21.457 422.624 22.9453 424.85 22.9453C427.076 22.9453 428.881 21.457 428.881 19.621C428.881 17.785 427.076 16.2966 424.85 16.2966Z" fill="#E1EAF1"/>
<path d="M408.788 16.2966C406.561 16.2966 404.757 17.785 404.757 19.621C404.757 21.457 406.561 22.9453 408.788 22.9453C411.014 22.9453 412.819 21.457 412.819 19.621C412.819 17.785 411.014 16.2966 408.788 16.2966Z" fill="#E1EAF1"/>
<path d="M392.726 16.2966C390.499 16.2966 388.694 17.785 388.694 19.621C388.694 21.457 390.499 22.9453 392.726 22.9453C394.952 22.9453 396.757 21.457 396.757 19.621C396.757 17.785 394.952 16.2966 392.726 16.2966Z" fill="#E1EAF1"/>
<path d="M376.663 16.2966C374.437 16.2966 372.632 17.785 372.632 19.621C372.632 21.457 374.437 22.9453 376.663 22.9453C378.89 22.9453 380.694 21.457 380.694 19.621C380.694 17.785 378.89 16.2966 376.663 16.2966Z" fill="#E1EAF1"/>
<path d="M360.601 16.2966C358.375 16.2966 356.57 17.785 356.57 19.621C356.57 21.457 358.375 22.9453 360.601 22.9453C362.827 22.9453 364.632 21.457 364.632 19.621C364.632 17.785 362.827 16.2966 360.601 16.2966Z" fill="#E1EAF1"/>
<path d="M344.539 16.2966C342.312 16.2966 340.508 17.785 340.508 19.621C340.508 21.457 342.312 22.9453 344.539 22.9453C346.765 22.9453 348.57 21.457 348.57 19.621C348.57 17.785 346.765 16.2966 344.539 16.2966Z" fill="#E1EAF1"/>
<path d="M328.476 16.2966C326.25 16.2966 324.445 17.785 324.445 19.621C324.445 21.457 326.25 22.9453 328.476 22.9453C330.703 22.9453 332.508 21.457 332.508 19.621C332.508 17.785 330.703 16.2966 328.476 16.2966Z" fill="#E1EAF1"/>
<path d="M312.414 16.2966C310.188 16.2966 308.383 17.785 308.383 19.621C308.383 21.457 310.188 22.9453 312.414 22.9453C314.641 22.9453 316.445 21.457 316.445 19.621C316.445 17.785 314.641 16.2966 312.414 16.2966Z" fill="#E1EAF1"/>
<path d="M456.975 2.99976C454.748 2.99976 452.943 4.48812 452.943 6.3241C452.943 8.16008 454.748 9.64844 456.975 9.64844C459.201 9.64844 461.006 8.16008 461.006 6.3241C461.006 4.48812 459.201 2.99976 456.975 2.99976Z" fill="#E1EAF1"/>
<path d="M440.912 2.99976C438.686 2.99976 436.881 4.48812 436.881 6.3241C436.881 8.16008 438.686 9.64844 440.912 9.64844C443.139 9.64844 444.943 8.16008 444.943 6.3241C444.943 4.48812 443.139 2.99976 440.912 2.99976Z" fill="#E1EAF1"/>
<path d="M424.85 2.99976C422.624 2.99976 420.819 4.48812 420.819 6.3241C420.819 8.16008 422.624 9.64844 424.85 9.64844C427.076 9.64844 428.881 8.16008 428.881 6.3241C428.881 4.48812 427.076 2.99976 424.85 2.99976Z" fill="#E1EAF1"/>
<path d="M408.788 2.99976C406.561 2.99976 404.757 4.48812 404.757 6.3241C404.757 8.16008 406.561 9.64844 408.788 9.64844C411.014 9.64844 412.819 8.16008 412.819 6.3241C412.819 4.48812 411.014 2.99976 408.788 2.99976Z" fill="#E1EAF1"/>
<path d="M392.726 2.99976C390.499 2.99976 388.694 4.48812 388.694 6.3241C388.694 8.16008 390.499 9.64844 392.726 9.64844C394.952 9.64844 396.757 8.16008 396.757 6.3241C396.757 4.48812 394.952 2.99976 392.726 2.99976Z" fill="#E1EAF1"/>
<path d="M376.663 2.99976C374.437 2.99976 372.632 4.48812 372.632 6.3241C372.632 8.16008 374.437 9.64844 376.663 9.64844C378.89 9.64844 380.694 8.16008 380.694 6.3241C380.694 4.48812 378.89 2.99976 376.663 2.99976Z" fill="#E1EAF1"/>
<path d="M360.601 2.99976C358.375 2.99976 356.57 4.48812 356.57 6.3241C356.57 8.16008 358.375 9.64844 360.601 9.64844C362.827 9.64844 364.632 8.16008 364.632 6.3241C364.632 4.48812 362.827 2.99976 360.601 2.99976Z" fill="#E1EAF1"/>
<path d="M344.539 2.99976C342.312 2.99976 340.508 4.48812 340.508 6.3241C340.508 8.16008 342.312 9.64844 344.539 9.64844C346.765 9.64844 348.57 8.16008 348.57 6.3241C348.57 4.48812 346.765 2.99976 344.539 2.99976Z" fill="#E1EAF1"/>
<path d="M328.476 2.99976C326.25 2.99976 324.445 4.48812 324.445 6.3241C324.445 8.16008 326.25 9.64844 328.476 9.64844C330.703 9.64844 332.508 8.16008 332.508 6.3241C332.508 4.48812 330.703 2.99976 328.476 2.99976Z" fill="#E1EAF1"/>
<path d="M312.414 2.99976C310.188 2.99976 308.383 4.48812 308.383 6.3241C308.383 8.16008 310.188 9.64844 312.414 9.64844C314.641 9.64844 316.445 8.16008 316.445 6.3241C316.445 4.48812 314.641 2.99976 312.414 2.99976Z" fill="#E1EAF1"/>
</g>
<path d="M404.306 472.338C404.306 477.843 399.843 482.307 394.337 482.307C388.832 482.307 384.369 477.843 384.369 472.338V451.721C384.369 446.216 388.832 441.753 394.337 441.753C399.843 441.753 404.306 446.216 404.306 451.721V472.338Z" fill="#9E97F3" fill-opacity="0.6"/>
<path d="M374.924 451.827C374.924 453.565 373.515 454.975 371.776 454.975C370.038 454.975 368.628 453.565 368.628 451.827V428.148C368.628 426.409 370.038 425 371.776 425C373.515 425 374.924 426.409 374.924 428.148V451.827Z" fill="#9E97F3" fill-opacity="0.6"/>
<path d="M378.073 487.347C378.073 494.302 372.435 499.939 365.481 499.939C358.526 499.939 352.889 494.302 352.889 487.347V482.557C352.889 475.602 358.526 469.965 365.481 469.965C372.435 469.965 378.073 475.602 378.073 482.557V487.347Z" fill="#9E97F3" fill-opacity="0.6"/>
<path d="M6.55835 15.3296C6.55835 11.9234 9.31961 9.16211 12.7258 9.16211C16.132 9.16211 18.8932 11.9234 18.8932 15.3295V24.0665C18.8932 27.4726 16.132 30.2339 12.7258 30.2339C9.31961 30.2339 6.55835 27.4727 6.55835 24.0665V15.3296Z" fill="#9E97F3" fill-opacity="0.6"/>
<path d="M24.7366 25.3109C24.7366 24.2353 25.6085 23.3633 26.6842 23.3633C27.7598 23.3633 28.6318 24.2353 28.6318 25.3109V36.9905C28.6318 38.0661 27.7598 38.9381 26.6842 38.9381C25.6085 38.9381 24.7366 38.0661 24.7366 36.9905V25.3109Z" fill="#9E97F3" fill-opacity="0.6"/>
<path d="M22.7886 7.7874C22.7886 3.48654 26.2782 0 30.579 0C34.8799 0 38.3695 3.48654 38.3695 7.7874C38.3695 12.0883 34.8799 15.5748 30.579 15.5748C26.2782 15.5748 22.7886 12.0883 22.7886 7.7874Z" fill="#9E97F3" fill-opacity="0.6"/>
<ellipse cx="92.1285" cy="381" rx="91.6459" ry="75" fill="#218207" fill-opacity="0.5"/>
<defs>
<clipPath id="clip0_310_2178">
<rect width="154" height="127" fill="white" transform="translate(308.383 3)"/>
</clipPath>
</defs>
</svg>
