<svg width="515" height="442" viewBox="0 0 515 442" fill="none" xmlns="http://www.w3.org/2000/svg">
<path d="M213.614 99C175.405 99 144.43 75.7188 144.43 47C144.43 47 175.405 47.0004 213.614 47.0004C251.824 47.0004 282.799 47 282.799 47C282.799 75.7188 251.824 99 213.614 99Z" fill="#FAFF00" fill-opacity="0.5"/>
<g clip-path="url(#clip0_319_10245)">
<path d="M505.543 209.963C504.08 211.152 504.093 213.09 505.573 214.292C507.052 215.495 509.438 215.506 510.901 214.317C512.364 213.128 512.35 211.189 510.871 209.987C509.391 208.785 507.006 208.774 505.543 209.963Z" fill="#D5435D" fill-opacity="0.6"/>
<path d="M494.947 218.572C493.484 219.761 493.497 221.699 494.977 222.902C496.456 224.104 498.842 224.115 500.305 222.926C501.768 221.737 501.754 219.799 500.275 218.596C498.795 217.394 496.41 217.383 494.947 218.572Z" fill="#D5435D" fill-opacity="0.6"/>
<path d="M484.35 227.183C482.887 228.372 482.9 230.311 484.38 231.513C485.86 232.715 488.245 232.726 489.708 231.537C491.171 230.349 491.158 228.41 489.678 227.208C488.199 226.005 485.813 225.995 484.35 227.183Z" fill="#D5435D" fill-opacity="0.6"/>
<path d="M473.754 235.793C472.291 236.982 472.304 238.92 473.784 240.122C475.264 241.325 477.649 241.336 479.112 240.147C480.575 238.958 480.562 237.019 479.082 235.817C477.603 234.615 475.217 234.604 473.754 235.793Z" fill="#D5435D" fill-opacity="0.6"/>
<path d="M463.158 244.404C461.695 245.593 461.708 247.531 463.188 248.734C464.667 249.936 467.053 249.947 468.516 248.758C469.979 247.569 469.966 245.631 468.486 244.428C467.006 243.226 464.621 243.215 463.158 244.404Z" fill="#D5435D" fill-opacity="0.6"/>
<path d="M452.559 253.015C451.096 254.204 451.11 256.143 452.589 257.345C454.069 258.547 456.454 258.558 457.918 257.369C459.381 256.181 459.367 254.242 457.888 253.04C456.408 251.837 454.022 251.827 452.559 253.015Z" fill="#D5435D" fill-opacity="0.6"/>
<path d="M441.963 261.627C440.5 262.816 440.514 264.754 441.993 265.956C443.473 267.159 445.858 267.17 447.321 265.981C448.784 264.792 448.771 262.853 447.291 261.651C445.812 260.449 443.426 260.438 441.963 261.627Z" fill="#D5435D" fill-opacity="0.6"/>
<path d="M431.367 270.236C429.904 271.425 429.917 273.363 431.397 274.566C432.877 275.768 435.262 275.779 436.725 274.59C438.188 273.401 438.175 271.463 436.695 270.26C435.216 269.058 432.83 269.047 431.367 270.236Z" fill="#D5435D" fill-opacity="0.6"/>
<path d="M420.771 278.847C419.308 280.036 419.321 281.975 420.801 283.177C422.28 284.379 424.666 284.39 426.129 283.201C427.592 282.013 427.579 280.074 426.099 278.872C424.619 277.669 422.234 277.659 420.771 278.847Z" fill="#D5435D" fill-opacity="0.6"/>
<path d="M410.175 287.459C408.712 288.648 408.725 290.586 410.205 291.788C411.684 292.991 414.07 293.002 415.533 291.813C416.996 290.624 416.983 288.685 415.503 287.483C414.023 286.281 411.638 286.27 410.175 287.459Z" fill="#D5435D" fill-opacity="0.6"/>
<path d="M494.827 201.254C493.363 202.443 493.377 204.381 494.856 205.583C496.336 206.786 498.722 206.797 500.185 205.608C501.648 204.419 501.634 202.48 500.155 201.278C498.675 200.076 496.29 200.065 494.827 201.254Z" fill="#D5435D" fill-opacity="0.6"/>
<path d="M484.231 209.865C482.767 211.054 482.781 212.992 484.261 214.195C485.74 215.397 488.126 215.408 489.589 214.219C491.052 213.03 491.038 211.092 489.559 209.889C488.079 208.687 485.694 208.676 484.231 209.865Z" fill="#D5435D" fill-opacity="0.6"/>
<path d="M473.634 218.474C472.171 219.663 472.184 221.602 473.664 222.804C475.143 224.006 477.529 224.017 478.992 222.828C480.455 221.64 480.442 219.701 478.962 218.499C477.482 217.296 475.097 217.286 473.634 218.474Z" fill="#D5435D" fill-opacity="0.6"/>
<path d="M463.038 227.086C461.575 228.275 461.588 230.213 463.068 231.415C464.548 232.618 466.933 232.629 468.396 231.44C469.859 230.251 469.846 228.312 468.366 227.11C466.886 225.908 464.501 225.897 463.038 227.086Z" fill="#D5435D" fill-opacity="0.6"/>
<path d="M452.442 235.695C450.979 236.884 450.992 238.822 452.472 240.025C453.951 241.227 456.337 241.238 457.8 240.049C459.263 238.86 459.25 236.922 457.77 235.719C456.29 234.517 453.905 234.506 452.442 235.695Z" fill="#D5435D" fill-opacity="0.6"/>
<path d="M441.843 244.308C440.38 245.497 440.394 247.436 441.873 248.638C443.353 249.84 445.738 249.851 447.201 248.662C448.665 247.474 448.651 245.535 447.172 244.333C445.692 243.13 443.306 243.12 441.843 244.308Z" fill="#D5435D" fill-opacity="0.6"/>
<path d="M431.247 252.918C429.784 254.107 429.798 256.045 431.277 257.247C432.757 258.45 435.142 258.461 436.605 257.272C438.068 256.083 438.055 254.144 436.575 252.942C435.096 251.74 432.71 251.729 431.247 252.918Z" fill="#D5435D" fill-opacity="0.6"/>
<path d="M420.651 261.529C419.188 262.718 419.201 264.656 420.681 265.859C422.161 267.061 424.546 267.072 426.009 265.883C427.472 264.694 427.459 262.756 425.979 261.553C424.5 260.351 422.114 260.34 420.651 261.529Z" fill="#D5435D" fill-opacity="0.6"/>
<path d="M410.055 270.14C408.592 271.329 408.605 273.268 410.085 274.47C411.564 275.672 413.95 275.683 415.413 274.494C416.876 273.306 416.863 271.367 415.383 270.165C413.903 268.962 411.518 268.952 410.055 270.14Z" fill="#D5435D" fill-opacity="0.6"/>
<path d="M399.459 278.75C397.996 279.939 398.009 281.877 399.489 283.079C400.968 284.282 403.354 284.293 404.817 283.104C406.28 281.915 406.267 279.976 404.787 278.774C403.307 277.572 400.922 277.561 399.459 278.75Z" fill="#D5435D" fill-opacity="0.6"/>
<path d="M484.11 192.547C482.647 193.736 482.661 195.674 484.14 196.876C485.62 198.079 488.006 198.09 489.469 196.901C490.932 195.712 490.918 193.773 489.439 192.571C487.959 191.369 485.574 191.358 484.11 192.547Z" fill="#D5435D" fill-opacity="0.6"/>
<path d="M473.514 201.156C472.051 202.345 472.065 204.283 473.544 205.486C475.024 206.688 477.41 206.699 478.873 205.51C480.336 204.321 480.322 202.383 478.843 201.18C477.363 199.978 474.978 199.967 473.514 201.156Z" fill="#D5435D" fill-opacity="0.6"/>
<path d="M462.918 209.767C461.455 210.956 461.468 212.895 462.948 214.097C464.427 215.299 466.813 215.31 468.276 214.121C469.739 212.933 469.726 210.994 468.246 209.792C466.766 208.589 464.381 208.579 462.918 209.767Z" fill="#D5435D" fill-opacity="0.6"/>
<path d="M452.322 218.377C450.859 219.566 450.872 221.504 452.352 222.706C453.831 223.909 456.217 223.92 457.68 222.731C459.143 221.542 459.13 219.603 457.65 218.401C456.17 217.199 453.785 217.188 452.322 218.377Z" fill="#D5435D" fill-opacity="0.6"/>
<path d="M441.726 226.988C440.263 228.177 440.276 230.115 441.756 231.318C443.235 232.52 445.621 232.531 447.084 231.342C448.547 230.153 448.533 228.215 447.054 227.012C445.574 225.81 443.189 225.799 441.726 226.988Z" fill="#D5435D" fill-opacity="0.6"/>
<path d="M431.127 235.601C429.664 236.79 429.678 238.729 431.157 239.931C432.637 241.133 435.022 241.144 436.485 239.955C437.948 238.767 437.935 236.828 436.455 235.626C434.976 234.423 432.59 234.412 431.127 235.601Z" fill="#D5435D" fill-opacity="0.6"/>
<path d="M420.531 244.211C419.068 245.4 419.081 247.338 420.561 248.54C422.041 249.743 424.426 249.754 425.889 248.565C427.352 247.376 427.339 245.437 425.859 244.235C424.38 243.033 421.994 243.022 420.531 244.211Z" fill="#D5435D" fill-opacity="0.6"/>
<path d="M409.935 252.822C408.472 254.011 408.485 255.949 409.965 257.152C411.444 258.354 413.83 258.365 415.293 257.176C416.756 255.987 416.743 254.049 415.263 252.846C413.783 251.644 411.398 251.633 409.935 252.822Z" fill="#D5435D" fill-opacity="0.6"/>
<path d="M399.339 261.431C397.876 262.62 397.889 264.559 399.369 265.761C400.848 266.963 403.234 266.974 404.697 265.785C406.16 264.597 406.146 262.658 404.667 261.456C403.187 260.253 400.802 260.243 399.339 261.431Z" fill="#D5435D" fill-opacity="0.6"/>
<path d="M388.743 270.043C387.28 271.232 387.293 273.17 388.773 274.372C390.252 275.575 392.638 275.586 394.101 274.397C395.564 273.208 395.551 271.269 394.071 270.067C392.591 268.865 390.206 268.854 388.743 270.043Z" fill="#D5435D" fill-opacity="0.6"/>
<path d="M473.393 183.838C471.93 185.027 471.944 186.965 473.423 188.167C474.903 189.37 477.288 189.381 478.752 188.192C480.215 187.003 480.201 185.064 478.722 183.862C477.242 182.66 474.856 182.649 473.393 183.838Z" fill="#D5435D" fill-opacity="0.6"/>
<path d="M462.797 192.447C461.334 193.636 461.348 195.574 462.827 196.777C464.307 197.979 466.693 197.99 468.156 196.801C469.619 195.612 469.605 193.674 468.126 192.471C466.646 191.269 464.261 191.258 462.797 192.447Z" fill="#D5435D" fill-opacity="0.6"/>
<path d="M452.201 201.058C450.738 202.247 450.751 204.186 452.231 205.388C453.71 206.59 456.096 206.601 457.559 205.412C459.022 204.224 459.009 202.285 457.529 201.083C456.049 199.88 453.664 199.87 452.201 201.058Z" fill="#D5435D" fill-opacity="0.6"/>
<path d="M441.605 209.67C440.142 210.859 440.155 212.797 441.635 213.999C443.114 215.202 445.5 215.213 446.963 214.024C448.426 212.835 448.413 210.896 446.933 209.694C445.453 208.492 443.068 208.481 441.605 209.67Z" fill="#D5435D" fill-opacity="0.6"/>
<path d="M431.009 218.279C429.546 219.468 429.559 221.406 431.039 222.609C432.518 223.811 434.904 223.822 436.367 222.633C437.83 221.444 437.816 219.506 436.337 218.303C434.857 217.101 432.472 217.09 431.009 218.279Z" fill="#D5435D" fill-opacity="0.6"/>
<path d="M420.41 226.892C418.947 228.081 418.961 230.02 420.44 231.222C421.92 232.424 424.305 232.435 425.768 231.246C427.231 230.058 427.218 228.119 425.738 226.917C424.259 225.714 421.873 225.704 420.41 226.892Z" fill="#D5435D" fill-opacity="0.6"/>
<path d="M409.814 235.502C408.351 236.691 408.364 238.629 409.844 239.831C411.324 241.034 413.709 241.045 415.172 239.856C416.635 238.667 416.622 236.728 415.142 235.526C413.663 234.324 411.277 234.313 409.814 235.502Z" fill="#D5435D" fill-opacity="0.6"/>
<path d="M399.218 244.113C397.755 245.302 397.768 247.24 399.248 248.443C400.727 249.645 403.113 249.656 404.576 248.467C406.039 247.278 406.026 245.34 404.546 244.137C403.066 242.935 400.681 242.924 399.218 244.113Z" fill="#D5435D" fill-opacity="0.6"/>
<path d="M388.622 252.722C387.159 253.911 387.172 255.85 388.652 257.052C390.131 258.254 392.517 258.265 393.98 257.076C395.443 255.888 395.43 253.949 393.95 252.747C392.47 251.544 390.085 251.534 388.622 252.722Z" fill="#D5435D" fill-opacity="0.6"/>
<path d="M378.026 261.334C376.563 262.523 376.576 264.461 378.056 265.663C379.535 266.866 381.921 266.877 383.384 265.688C384.847 264.499 384.834 262.56 383.354 261.358C381.874 260.156 379.489 260.145 378.026 261.334Z" fill="#D5435D" fill-opacity="0.6"/>
<path d="M462.677 175.131C461.214 176.32 461.228 178.258 462.707 179.46C464.187 180.663 466.572 180.674 468.035 179.485C469.499 178.296 469.485 176.357 468.005 175.155C466.526 173.953 464.14 173.942 462.677 175.131Z" fill="#D5435D" fill-opacity="0.6"/>
<path d="M452.081 183.74C450.618 184.929 450.632 186.867 452.111 188.07C453.591 189.272 455.976 189.283 457.44 188.094C458.903 186.905 458.889 184.967 457.41 183.764C455.93 182.562 453.544 182.551 452.081 183.74Z" fill="#D5435D" fill-opacity="0.6"/>
<path d="M441.485 192.351C440.022 193.54 440.035 195.479 441.515 196.681C442.994 197.883 445.38 197.894 446.843 196.705C448.306 195.517 448.292 193.578 446.813 192.376C445.333 191.173 442.948 191.162 441.485 192.351Z" fill="#D5435D" fill-opacity="0.6"/>
<path d="M430.889 200.961C429.426 202.15 429.439 204.088 430.919 205.29C432.398 206.493 434.784 206.504 436.247 205.315C437.71 204.126 437.697 202.187 436.217 200.985C434.737 199.783 432.352 199.772 430.889 200.961Z" fill="#D5435D" fill-opacity="0.6"/>
<path d="M420.293 209.572C418.83 210.761 418.843 212.699 420.323 213.902C421.802 215.104 424.188 215.115 425.651 213.926C427.114 212.737 427.1 210.799 425.621 209.596C424.141 208.394 421.756 208.383 420.293 209.572Z" fill="#D5435D" fill-opacity="0.6"/>
<path d="M409.694 218.183C408.231 219.372 408.245 221.311 409.724 222.513C411.204 223.715 413.589 223.726 415.052 222.537C416.515 221.349 416.502 219.41 415.022 218.208C413.543 217.005 411.157 216.995 409.694 218.183Z" fill="#D5435D" fill-opacity="0.6"/>
<path d="M399.098 226.795C397.635 227.984 397.648 229.922 399.128 231.124C400.608 232.327 402.993 232.338 404.456 231.149C405.919 229.96 405.906 228.021 404.426 226.819C402.947 225.617 400.561 225.606 399.098 226.795Z" fill="#D5435D" fill-opacity="0.6"/>
<path d="M388.502 235.404C387.039 236.593 387.052 238.531 388.532 239.734C390.011 240.936 392.397 240.947 393.86 239.758C395.323 238.569 395.31 236.631 393.83 235.428C392.35 234.226 389.965 234.215 388.502 235.404Z" fill="#D5435D" fill-opacity="0.6"/>
<path d="M377.906 244.015C376.443 245.204 376.456 247.143 377.936 248.345C379.415 249.547 381.801 249.558 383.264 248.369C384.727 247.181 384.713 245.242 383.234 244.04C381.754 242.837 379.369 242.827 377.906 244.015Z" fill="#D5435D" fill-opacity="0.6"/>
<path d="M367.31 252.625C365.847 253.814 365.86 255.752 367.34 256.954C368.819 258.157 371.205 258.168 372.668 256.979C374.131 255.79 374.117 253.851 372.638 252.649C371.158 251.447 368.773 251.436 367.31 252.625Z" fill="#D5435D" fill-opacity="0.6"/>
<path d="M451.961 166.422C450.498 167.611 450.512 169.549 451.991 170.751C453.471 171.954 455.856 171.965 457.319 170.776C458.782 169.587 458.769 167.648 457.289 166.446C455.81 165.244 453.424 165.233 451.961 166.422Z" fill="#D5435D" fill-opacity="0.6"/>
<path d="M441.365 175.033C439.902 176.222 439.916 178.16 441.395 179.363C442.875 180.565 445.26 180.576 446.723 179.387C448.187 178.198 448.173 176.26 446.693 175.057C445.214 173.855 442.828 173.844 441.365 175.033Z" fill="#D5435D" fill-opacity="0.6"/>
<path d="M430.769 183.642C429.306 184.831 429.319 186.77 430.799 187.972C432.278 189.174 434.664 189.185 436.127 187.996C437.59 186.808 437.576 184.869 436.097 183.667C434.617 182.464 432.232 182.454 430.769 183.642Z" fill="#D5435D" fill-opacity="0.6"/>
<path d="M420.173 192.254C418.71 193.443 418.723 195.381 420.203 196.583C421.682 197.786 424.068 197.797 425.531 196.608C426.994 195.419 426.98 193.48 425.501 192.278C424.021 191.076 421.636 191.065 420.173 192.254Z" fill="#D5435D" fill-opacity="0.6"/>
<path d="M409.577 200.863C408.113 202.052 408.127 203.99 409.606 205.193C411.086 206.395 413.472 206.406 414.935 205.217C416.398 204.028 416.384 202.09 414.905 200.887C413.425 199.685 411.04 199.674 409.577 200.863Z" fill="#D5435D" fill-opacity="0.6"/>
<path d="M398.978 209.476C397.515 210.665 397.528 212.604 399.008 213.806C400.488 215.008 402.873 215.019 404.336 213.83C405.799 212.642 405.786 210.703 404.306 209.501C402.827 208.298 400.441 208.287 398.978 209.476Z" fill="#D5435D" fill-opacity="0.6"/>
<path d="M388.382 218.086C386.919 219.275 386.932 221.213 388.412 222.415C389.891 223.618 392.277 223.629 393.74 222.44C395.203 221.251 395.19 219.312 393.71 218.11C392.23 216.908 389.845 216.897 388.382 218.086Z" fill="#D5435D" fill-opacity="0.6"/>
<path d="M377.786 226.697C376.323 227.886 376.336 229.824 377.816 231.027C379.295 232.229 381.681 232.24 383.144 231.051C384.607 229.862 384.594 227.924 383.114 226.721C381.634 225.519 379.249 225.508 377.786 226.697Z" fill="#D5435D" fill-opacity="0.6"/>
<path d="M367.19 235.306C365.727 236.495 365.74 238.434 367.22 239.636C368.699 240.838 371.085 240.849 372.548 239.66C374.011 238.472 373.998 236.533 372.518 235.331C371.038 234.128 368.653 234.118 367.19 235.306Z" fill="#D5435D" fill-opacity="0.6"/>
<path d="M356.594 243.918C355.131 245.107 355.144 247.045 356.624 248.247C358.103 249.45 360.489 249.461 361.952 248.272C363.415 247.083 363.401 245.144 361.922 243.942C360.442 242.74 358.057 242.729 356.594 243.918Z" fill="#D5435D" fill-opacity="0.6"/>
<path d="M441.245 157.715C439.782 158.904 439.796 160.842 441.275 162.044C442.755 163.247 445.14 163.258 446.603 162.069C448.066 160.88 448.053 158.941 446.573 157.739C445.094 156.537 442.708 156.526 441.245 157.715Z" fill="#D5435D" fill-opacity="0.6"/>
<path d="M430.649 166.324C429.186 167.513 429.2 169.451 430.679 170.654C432.159 171.856 434.544 171.867 436.007 170.678C437.47 169.489 437.457 167.551 435.977 166.348C434.498 165.146 432.112 165.135 430.649 166.324Z" fill="#D5435D" fill-opacity="0.6"/>
<path d="M420.053 174.935C418.59 176.124 418.603 178.063 420.083 179.265C421.562 180.467 423.948 180.478 425.411 179.289C426.874 178.1 426.86 176.162 425.381 174.96C423.901 173.757 421.516 173.746 420.053 174.935Z" fill="#D5435D" fill-opacity="0.6"/>
<path d="M409.457 183.545C407.994 184.734 408.007 186.672 409.487 187.874C410.966 189.077 413.352 189.088 414.815 187.899C416.278 186.71 416.264 184.771 414.785 183.569C413.305 182.367 410.92 182.356 409.457 183.545Z" fill="#D5435D" fill-opacity="0.6"/>
<path d="M398.861 192.156C397.398 193.345 397.411 195.283 398.891 196.486C400.37 197.688 402.756 197.699 404.219 196.51C405.682 195.321 405.668 193.383 404.189 192.18C402.709 190.978 400.324 190.967 398.861 192.156Z" fill="#D5435D" fill-opacity="0.6"/>
<path d="M388.262 200.767C386.799 201.956 386.812 203.895 388.292 205.097C389.772 206.299 392.157 206.31 393.62 205.121C395.083 203.933 395.07 201.994 393.59 200.792C392.111 199.589 389.725 199.579 388.262 200.767Z" fill="#D5435D" fill-opacity="0.6"/>
<path d="M377.666 209.379C376.203 210.568 376.216 212.506 377.696 213.708C379.176 214.911 381.561 214.922 383.024 213.733C384.487 212.544 384.474 210.605 382.994 209.403C381.515 208.201 379.129 208.19 377.666 209.379Z" fill="#D5435D" fill-opacity="0.6"/>
<path d="M367.07 217.99C365.607 219.179 365.62 221.117 367.1 222.32C368.579 223.522 370.965 223.533 372.428 222.344C373.891 221.155 373.878 219.217 372.398 218.014C370.918 216.812 368.533 216.801 367.07 217.99Z" fill="#D5435D" fill-opacity="0.6"/>
<path d="M356.474 226.599C355.011 227.788 355.024 229.727 356.504 230.929C357.983 232.131 360.369 232.142 361.832 230.953C363.295 229.765 363.281 227.826 361.802 226.624C360.322 225.421 357.937 225.411 356.474 226.599Z" fill="#D5435D" fill-opacity="0.6"/>
<path d="M345.878 235.211C344.414 236.4 344.428 238.338 345.907 239.54C347.387 240.743 349.773 240.754 351.236 239.565C352.699 238.376 352.685 236.437 351.206 235.235C349.726 234.033 347.341 234.022 345.878 235.211Z" fill="#D5435D" fill-opacity="0.6"/>
<path d="M430.528 149.006C429.065 150.195 429.079 152.133 430.558 153.335C432.038 154.538 434.423 154.549 435.886 153.36C437.349 152.171 437.336 150.232 435.856 149.03C434.377 147.828 431.991 147.817 430.528 149.006Z" fill="#D5435D" fill-opacity="0.6"/>
<path d="M419.932 157.615C418.469 158.804 418.483 160.742 419.962 161.945C421.442 163.147 423.827 163.158 425.29 161.969C426.753 160.78 426.74 158.842 425.26 157.639C423.781 156.437 421.395 156.426 419.932 157.615Z" fill="#D5435D" fill-opacity="0.6"/>
<path d="M409.336 166.226C407.872 167.415 407.886 169.354 409.366 170.556C410.845 171.758 413.231 171.769 414.694 170.58C416.157 169.392 416.143 167.453 414.664 166.251C413.184 165.048 410.799 165.037 409.336 166.226Z" fill="#D5435D" fill-opacity="0.6"/>
<path d="M398.74 174.838C397.277 176.027 397.29 177.965 398.77 179.167C400.249 180.37 402.635 180.381 404.098 179.192C405.561 178.003 405.547 176.064 404.068 174.862C402.588 173.66 400.203 173.649 398.74 174.838Z" fill="#D5435D" fill-opacity="0.6"/>
<path d="M388.143 183.447C386.68 184.636 386.694 186.574 388.173 187.777C389.653 188.979 392.038 188.99 393.502 187.801C394.965 186.612 394.951 184.674 393.472 183.471C391.992 182.269 389.606 182.258 388.143 183.447Z" fill="#D5435D" fill-opacity="0.6"/>
<path d="M377.545 192.06C376.082 193.249 376.095 195.188 377.575 196.39C379.055 197.592 381.44 197.603 382.903 196.414C384.366 195.225 384.353 193.287 382.873 192.085C381.394 190.882 379.008 190.871 377.545 192.06Z" fill="#D5435D" fill-opacity="0.6"/>
<path d="M366.949 200.67C365.486 201.859 365.499 203.797 366.979 204.999C368.458 206.202 370.844 206.213 372.307 205.024C373.77 203.835 373.757 201.896 372.277 200.694C370.797 199.492 368.412 199.481 366.949 200.67Z" fill="#D5435D" fill-opacity="0.6"/>
<path d="M356.353 209.281C354.89 210.47 354.903 212.408 356.383 213.611C357.862 214.813 360.248 214.824 361.711 213.635C363.174 212.446 363.16 210.508 361.681 209.305C360.201 208.103 357.816 208.092 356.353 209.281Z" fill="#D5435D" fill-opacity="0.6"/>
<path d="M345.756 217.89C344.293 219.079 344.307 221.018 345.786 222.22C347.266 223.422 349.652 223.433 351.115 222.244C352.578 221.056 352.564 219.117 351.085 217.915C349.605 216.712 347.219 216.702 345.756 217.89Z" fill="#D5435D" fill-opacity="0.6"/>
<path d="M335.16 226.502C333.697 227.691 333.711 229.629 335.19 230.831C336.67 232.034 339.056 232.045 340.519 230.856C341.982 229.667 341.968 227.728 340.489 226.526C339.009 225.324 336.624 225.313 335.16 226.502Z" fill="#D5435D" fill-opacity="0.6"/>
<path d="M419.812 140.297C418.349 141.486 418.362 143.424 419.842 144.626C421.322 145.829 423.707 145.84 425.17 144.651C426.633 143.462 426.62 141.523 425.14 140.321C423.661 139.119 421.275 139.108 419.812 140.297Z" fill="#D5435D" fill-opacity="0.6"/>
<path d="M409.216 148.908C407.753 150.097 407.767 152.035 409.246 153.238C410.726 154.44 413.111 154.451 414.574 153.262C416.037 152.073 416.024 150.135 414.544 148.932C413.065 147.73 410.679 147.719 409.216 148.908Z" fill="#D5435D" fill-opacity="0.6"/>
<path d="M398.619 157.519C397.156 158.708 397.17 160.647 398.649 161.849C400.129 163.051 402.515 163.062 403.978 161.873C405.441 160.684 405.427 158.746 403.948 157.544C402.468 156.341 400.083 156.33 398.619 157.519Z" fill="#D5435D" fill-opacity="0.6"/>
<path d="M388.024 166.129C386.56 167.318 386.574 169.256 388.053 170.458C389.533 171.661 391.919 171.672 393.382 170.483C394.845 169.294 394.831 167.355 393.352 166.153C391.872 164.951 389.487 164.94 388.024 166.129Z" fill="#D5435D" fill-opacity="0.6"/>
<path d="M377.427 174.74C375.964 175.929 375.978 177.867 377.457 179.07C378.937 180.272 381.322 180.283 382.785 179.094C384.249 177.905 384.235 175.967 382.756 174.764C381.276 173.562 378.89 173.551 377.427 174.74Z" fill="#D5435D" fill-opacity="0.6"/>
<path d="M366.829 183.351C365.366 184.54 365.379 186.479 366.859 187.681C368.339 188.883 370.724 188.894 372.187 187.705C373.65 186.517 373.637 184.578 372.157 183.376C370.678 182.173 368.292 182.162 366.829 183.351Z" fill="#D5435D" fill-opacity="0.6"/>
<path d="M356.233 191.963C354.77 193.152 354.783 195.09 356.263 196.292C357.742 197.495 360.128 197.506 361.591 196.317C363.054 195.128 363.041 193.189 361.561 191.987C360.081 190.785 357.696 190.774 356.233 191.963Z" fill="#D5435D" fill-opacity="0.6"/>
<path d="M345.637 200.572C344.173 201.761 344.187 203.699 345.667 204.902C347.146 206.104 349.532 206.115 350.995 204.926C352.458 203.737 352.444 201.799 350.965 200.596C349.485 199.394 347.1 199.383 345.637 200.572Z" fill="#D5435D" fill-opacity="0.6"/>
<path d="M335.04 209.183C333.577 210.372 333.591 212.311 335.07 213.513C336.55 214.715 338.935 214.726 340.399 213.537C341.862 212.349 341.848 210.41 340.369 209.208C338.889 208.005 336.503 207.995 335.04 209.183Z" fill="#D5435D" fill-opacity="0.6"/>
<path d="M324.444 217.793C322.981 218.982 322.995 220.92 324.474 222.122C325.954 223.325 328.339 223.336 329.803 222.147C331.266 220.958 331.252 219.019 329.773 217.817C328.293 216.615 325.907 216.604 324.444 217.793Z" fill="#D5435D" fill-opacity="0.6"/>
<path d="M409.096 131.59C407.633 132.779 407.646 134.717 409.126 135.919C410.606 137.122 412.991 137.133 414.454 135.944C415.917 134.755 415.904 132.816 414.424 131.614C412.945 130.412 410.559 130.401 409.096 131.59Z" fill="#D5435D" fill-opacity="0.6"/>
<path d="M398.5 140.201C397.037 141.39 397.05 143.328 398.53 144.531C400.01 145.733 402.395 145.744 403.858 144.555C405.321 143.366 405.308 141.428 403.828 140.225C402.349 139.023 399.963 139.012 398.5 140.201Z" fill="#D5435D" fill-opacity="0.6"/>
<path d="M387.903 148.81C386.44 149.999 386.454 151.938 387.933 153.14C389.413 154.342 391.798 154.353 393.262 153.164C394.725 151.975 394.711 150.037 393.232 148.835C391.752 147.632 389.366 147.621 387.903 148.81Z" fill="#D5435D" fill-opacity="0.6"/>
<path d="M377.307 157.422C375.844 158.611 375.858 160.549 377.337 161.751C378.817 162.954 381.203 162.965 382.666 161.776C384.129 160.587 384.115 158.648 382.636 157.446C381.156 156.244 378.771 156.233 377.307 157.422Z" fill="#D5435D" fill-opacity="0.6"/>
<path d="M366.712 166.031C365.248 167.22 365.262 169.158 366.741 170.361C368.221 171.563 370.607 171.574 372.07 170.385C373.533 169.196 373.519 167.258 372.04 166.055C370.56 164.853 368.175 164.842 366.712 166.031Z" fill="#D5435D" fill-opacity="0.6"/>
<path d="M356.113 174.644C354.65 175.833 354.663 177.772 356.143 178.974C357.622 180.176 360.008 180.187 361.471 178.998C362.934 177.809 362.921 175.871 361.441 174.669C359.961 173.466 357.576 173.455 356.113 174.644Z" fill="#D5435D" fill-opacity="0.6"/>
<path d="M345.517 183.254C344.054 184.443 344.067 186.381 345.547 187.583C347.026 188.786 349.412 188.797 350.875 187.608C352.338 186.419 352.324 184.48 350.845 183.278C349.365 182.076 346.98 182.065 345.517 183.254Z" fill="#D5435D" fill-opacity="0.6"/>
<path d="M334.921 191.865C333.458 193.054 333.471 194.992 334.951 196.195C336.43 197.397 338.816 197.408 340.279 196.219C341.742 195.03 341.729 193.092 340.249 191.889C338.769 190.687 336.384 190.676 334.921 191.865Z" fill="#D5435D" fill-opacity="0.6"/>
<path d="M324.325 200.474C322.861 201.663 322.875 203.602 324.355 204.804C325.834 206.006 328.22 206.017 329.683 204.828C331.146 203.64 331.132 201.701 329.653 200.499C328.173 199.296 325.788 199.286 324.325 200.474Z" fill="#D5435D" fill-opacity="0.6"/>
<path d="M313.728 209.086C312.265 210.275 312.278 212.213 313.758 213.415C315.238 214.618 317.623 214.629 319.086 213.44C320.549 212.251 320.536 210.312 319.056 209.11C317.577 207.908 315.191 207.897 313.728 209.086Z" fill="#D5435D" fill-opacity="0.6"/>
</g>
<g opacity="0.7" clip-path="url(#clip1_319_10245)">
<path d="M138.316 406.041C136.624 406.041 135.253 407.049 135.253 408.292C135.253 409.535 136.624 410.543 138.316 410.543C140.007 410.543 141.378 409.535 141.378 408.292C141.378 407.049 140.007 406.041 138.316 406.041Z" fill="#E1EAF1"/>
<path d="M126.066 406.041C124.374 406.041 123.003 407.049 123.003 408.292C123.003 409.535 124.374 410.543 126.066 410.543C127.757 410.543 129.128 409.535 129.128 408.292C129.128 407.049 127.757 406.041 126.066 406.041Z" fill="#E1EAF1"/>
<path d="M113.815 406.041C112.124 406.041 110.753 407.049 110.753 408.292C110.753 409.535 112.124 410.543 113.815 410.543C115.507 410.543 116.878 409.535 116.878 408.292C116.878 407.049 115.507 406.041 113.815 406.041Z" fill="#E1EAF1"/>
<path d="M101.565 406.041C99.8739 406.041 98.5028 407.049 98.5028 408.292C98.5028 409.535 99.8739 410.543 101.565 410.543C103.257 410.543 104.628 409.535 104.628 408.292C104.628 407.049 103.257 406.041 101.565 406.041Z" fill="#E1EAF1"/>
<path d="M89.3154 406.041C87.6239 406.041 86.2528 407.049 86.2528 408.292C86.2528 409.535 87.6239 410.543 89.3154 410.543C91.0068 410.543 92.3779 409.535 92.3779 408.292C92.3779 407.049 91.0068 406.041 89.3154 406.041Z" fill="#E1EAF1"/>
<path d="M77.0627 406.041C75.3713 406.041 74.0001 407.049 74.0001 408.292C74.0001 409.535 75.3713 410.543 77.0627 410.543C78.7541 410.543 80.1252 409.535 80.1252 408.292C80.1252 407.049 78.7541 406.041 77.0627 406.041Z" fill="#E1EAF1"/>
<path d="M64.8127 406.041C63.1212 406.041 61.7501 407.049 61.7501 408.292C61.7501 409.535 63.1212 410.543 64.8127 410.543C66.5041 410.543 67.8752 409.535 67.8752 408.292C67.8752 407.049 66.5041 406.041 64.8127 406.041Z" fill="#E1EAF1"/>
<path d="M52.5627 406.041C50.8712 406.041 49.5001 407.049 49.5001 408.292C49.5001 409.535 50.8712 410.543 52.5627 410.543C54.2541 410.543 55.6252 409.535 55.6252 408.292C55.6252 407.049 54.2541 406.041 52.5627 406.041Z" fill="#E1EAF1"/>
<path d="M40.3127 406.041C38.6212 406.041 37.2501 407.049 37.2501 408.292C37.2501 409.535 38.6212 410.543 40.3127 410.543C42.0041 410.543 43.3752 409.535 43.3752 408.292C43.3752 407.049 42.0041 406.041 40.3127 406.041Z" fill="#E1EAF1"/>
<path d="M28.0627 406.041C26.3712 406.041 25.0001 407.049 25.0001 408.292C25.0001 409.535 26.3712 410.543 28.0627 410.543C29.7541 410.543 31.1252 409.535 31.1252 408.292C31.1252 407.049 29.7541 406.041 28.0627 406.041Z" fill="#E1EAF1"/>
<path d="M138.316 397.037C136.624 397.037 135.253 398.045 135.253 399.288C135.253 400.531 136.624 401.539 138.316 401.539C140.007 401.539 141.378 400.531 141.378 399.288C141.378 398.045 140.007 397.037 138.316 397.037Z" fill="#E1EAF1"/>
<path d="M126.066 397.037C124.374 397.037 123.003 398.045 123.003 399.288C123.003 400.531 124.374 401.539 126.066 401.539C127.757 401.539 129.128 400.531 129.128 399.288C129.128 398.045 127.757 397.037 126.066 397.037Z" fill="#E1EAF1"/>
<path d="M113.815 397.037C112.124 397.037 110.753 398.045 110.753 399.288C110.753 400.531 112.124 401.539 113.815 401.539C115.507 401.539 116.878 400.531 116.878 399.288C116.878 398.045 115.507 397.037 113.815 397.037Z" fill="#E1EAF1"/>
<path d="M101.565 397.037C99.8739 397.037 98.5028 398.045 98.5028 399.288C98.5028 400.531 99.8739 401.539 101.565 401.539C103.257 401.539 104.628 400.531 104.628 399.288C104.628 398.045 103.257 397.037 101.565 397.037Z" fill="#E1EAF1"/>
<path d="M89.3154 397.037C87.6239 397.037 86.2528 398.045 86.2528 399.288C86.2528 400.531 87.6239 401.539 89.3154 401.539C91.0068 401.539 92.3779 400.531 92.3779 399.288C92.3779 398.045 91.0068 397.037 89.3154 397.037Z" fill="#E1EAF1"/>
<path d="M77.0627 397.037C75.3713 397.037 74.0001 398.045 74.0001 399.288C74.0001 400.531 75.3713 401.539 77.0627 401.539C78.7541 401.539 80.1252 400.531 80.1252 399.288C80.1252 398.045 78.7541 397.037 77.0627 397.037Z" fill="#E1EAF1"/>
<path d="M64.8127 397.037C63.1212 397.037 61.7501 398.045 61.7501 399.288C61.7501 400.531 63.1212 401.539 64.8127 401.539C66.5041 401.539 67.8752 400.531 67.8752 399.288C67.8752 398.045 66.5041 397.037 64.8127 397.037Z" fill="#E1EAF1"/>
<path d="M52.5627 397.037C50.8712 397.037 49.5001 398.045 49.5001 399.288C49.5001 400.531 50.8712 401.539 52.5627 401.539C54.2541 401.539 55.6252 400.531 55.6252 399.288C55.6252 398.045 54.2541 397.037 52.5627 397.037Z" fill="#E1EAF1"/>
<path d="M40.3127 397.037C38.6212 397.037 37.2501 398.045 37.2501 399.288C37.2501 400.531 38.6212 401.539 40.3127 401.539C42.0041 401.539 43.3752 400.531 43.3752 399.288C43.3752 398.045 42.0041 397.037 40.3127 397.037Z" fill="#E1EAF1"/>
<path d="M28.0627 397.037C26.3712 397.037 25.0001 398.045 25.0001 399.288C25.0001 400.531 26.3712 401.539 28.0627 401.539C29.7541 401.539 31.1252 400.531 31.1252 399.288C31.1252 398.045 29.7541 397.037 28.0627 397.037Z" fill="#E1EAF1"/>
<path d="M138.316 388.031C136.624 388.031 135.253 389.039 135.253 390.282C135.253 391.525 136.624 392.533 138.316 392.533C140.007 392.533 141.378 391.525 141.378 390.282C141.378 389.039 140.007 388.031 138.316 388.031Z" fill="#E1EAF1"/>
<path d="M126.066 388.031C124.374 388.031 123.003 389.039 123.003 390.282C123.003 391.525 124.374 392.533 126.066 392.533C127.757 392.533 129.128 391.525 129.128 390.282C129.128 389.039 127.757 388.031 126.066 388.031Z" fill="#E1EAF1"/>
<path d="M113.815 388.031C112.124 388.031 110.753 389.039 110.753 390.282C110.753 391.525 112.124 392.533 113.815 392.533C115.507 392.533 116.878 391.525 116.878 390.282C116.878 389.039 115.507 388.031 113.815 388.031Z" fill="#E1EAF1"/>
<path d="M101.565 388.031C99.8739 388.031 98.5028 389.039 98.5028 390.282C98.5028 391.525 99.8739 392.533 101.565 392.533C103.257 392.533 104.628 391.525 104.628 390.282C104.628 389.039 103.257 388.031 101.565 388.031Z" fill="#E1EAF1"/>
<path d="M89.3154 388.031C87.6239 388.031 86.2528 389.039 86.2528 390.282C86.2528 391.525 87.6239 392.533 89.3154 392.533C91.0068 392.533 92.3779 391.525 92.3779 390.282C92.3779 389.039 91.0068 388.031 89.3154 388.031Z" fill="#E1EAF1"/>
<path d="M77.0627 388.031C75.3713 388.031 74.0001 389.039 74.0001 390.282C74.0001 391.525 75.3713 392.533 77.0627 392.533C78.7541 392.533 80.1252 391.525 80.1252 390.282C80.1252 389.039 78.7541 388.031 77.0627 388.031Z" fill="#E1EAF1"/>
<path d="M64.8127 388.031C63.1212 388.031 61.7501 389.039 61.7501 390.282C61.7501 391.525 63.1212 392.533 64.8127 392.533C66.5041 392.533 67.8752 391.525 67.8752 390.282C67.8752 389.039 66.5041 388.031 64.8127 388.031Z" fill="#E1EAF1"/>
<path d="M52.5627 388.031C50.8712 388.031 49.5001 389.039 49.5001 390.282C49.5001 391.525 50.8712 392.533 52.5627 392.533C54.2541 392.533 55.6252 391.525 55.6252 390.282C55.6252 389.039 54.2541 388.031 52.5627 388.031Z" fill="#E1EAF1"/>
<path d="M40.3127 388.031C38.6212 388.031 37.2501 389.039 37.2501 390.282C37.2501 391.525 38.6212 392.533 40.3127 392.533C42.0041 392.533 43.3752 391.525 43.3752 390.282C43.3752 389.039 42.0041 388.031 40.3127 388.031Z" fill="#E1EAF1"/>
<path d="M28.0627 388.031C26.3712 388.031 25.0001 389.039 25.0001 390.282C25.0001 391.525 26.3712 392.533 28.0627 392.533C29.7541 392.533 31.1252 391.525 31.1252 390.282C31.1252 389.039 29.7541 388.031 28.0627 388.031Z" fill="#E1EAF1"/>
<path d="M138.316 379.027C136.624 379.027 135.253 380.035 135.253 381.278C135.253 382.521 136.624 383.529 138.316 383.529C140.007 383.529 141.378 382.521 141.378 381.278C141.378 380.035 140.007 379.027 138.316 379.027Z" fill="#E1EAF1"/>
<path d="M126.066 379.027C124.374 379.027 123.003 380.035 123.003 381.278C123.003 382.521 124.374 383.529 126.066 383.529C127.757 383.529 129.128 382.521 129.128 381.278C129.128 380.035 127.757 379.027 126.066 379.027Z" fill="#E1EAF1"/>
<path d="M113.815 379.027C112.124 379.027 110.753 380.035 110.753 381.278C110.753 382.521 112.124 383.529 113.815 383.529C115.507 383.529 116.878 382.521 116.878 381.278C116.878 380.035 115.507 379.027 113.815 379.027Z" fill="#E1EAF1"/>
<path d="M101.565 379.027C99.8739 379.027 98.5028 380.035 98.5028 381.278C98.5028 382.521 99.8739 383.529 101.565 383.529C103.257 383.529 104.628 382.521 104.628 381.278C104.628 380.035 103.257 379.027 101.565 379.027Z" fill="#E1EAF1"/>
<path d="M89.3154 379.027C87.6239 379.027 86.2528 380.035 86.2528 381.278C86.2528 382.521 87.6239 383.529 89.3154 383.529C91.0068 383.529 92.3779 382.521 92.3779 381.278C92.3779 380.035 91.0068 379.027 89.3154 379.027Z" fill="#E1EAF1"/>
<path d="M77.0627 379.027C75.3713 379.027 74.0001 380.035 74.0001 381.278C74.0001 382.521 75.3713 383.529 77.0627 383.529C78.7541 383.529 80.1252 382.521 80.1252 381.278C80.1252 380.035 78.7541 379.027 77.0627 379.027Z" fill="#E1EAF1"/>
<path d="M64.8127 379.027C63.1212 379.027 61.7501 380.035 61.7501 381.278C61.7501 382.521 63.1212 383.529 64.8127 383.529C66.5041 383.529 67.8752 382.521 67.8752 381.278C67.8752 380.035 66.5041 379.027 64.8127 379.027Z" fill="#E1EAF1"/>
<path d="M52.5627 379.027C50.8712 379.027 49.5001 380.035 49.5001 381.278C49.5001 382.521 50.8712 383.529 52.5627 383.529C54.2541 383.529 55.6252 382.521 55.6252 381.278C55.6252 380.035 54.2541 379.027 52.5627 379.027Z" fill="#E1EAF1"/>
<path d="M40.3127 379.027C38.6212 379.027 37.2501 380.035 37.2501 381.278C37.2501 382.521 38.6212 383.529 40.3127 383.529C42.0041 383.529 43.3752 382.521 43.3752 381.278C43.3752 380.035 42.0041 379.027 40.3127 379.027Z" fill="#E1EAF1"/>
<path d="M28.0627 379.027C26.3712 379.027 25.0001 380.035 25.0001 381.278C25.0001 382.521 26.3712 383.529 28.0627 383.529C29.7541 383.529 31.1252 382.521 31.1252 381.278C31.1252 380.035 29.7541 379.027 28.0627 379.027Z" fill="#E1EAF1"/>
<path d="M138.316 370.023C136.624 370.023 135.253 371.031 135.253 372.274C135.253 373.518 136.624 374.525 138.316 374.525C140.007 374.525 141.378 373.518 141.378 372.274C141.378 371.031 140.007 370.023 138.316 370.023Z" fill="#E1EAF1"/>
<path d="M126.066 370.023C124.374 370.023 123.003 371.031 123.003 372.274C123.003 373.518 124.374 374.525 126.066 374.525C127.757 374.525 129.128 373.518 129.128 372.274C129.128 371.031 127.757 370.023 126.066 370.023Z" fill="#E1EAF1"/>
<path d="M113.815 370.023C112.124 370.023 110.753 371.031 110.753 372.274C110.753 373.518 112.124 374.525 113.815 374.525C115.507 374.525 116.878 373.518 116.878 372.274C116.878 371.031 115.507 370.023 113.815 370.023Z" fill="#E1EAF1"/>
<path d="M101.565 370.023C99.8739 370.023 98.5028 371.031 98.5028 372.274C98.5028 373.518 99.8739 374.525 101.565 374.525C103.257 374.525 104.628 373.518 104.628 372.274C104.628 371.031 103.257 370.023 101.565 370.023Z" fill="#E1EAF1"/>
<path d="M89.3154 370.023C87.6239 370.023 86.2528 371.031 86.2528 372.274C86.2528 373.518 87.6239 374.525 89.3154 374.525C91.0068 374.525 92.3779 373.518 92.3779 372.274C92.3779 371.031 91.0068 370.023 89.3154 370.023Z" fill="#E1EAF1"/>
<path d="M77.0627 370.023C75.3713 370.023 74.0001 371.031 74.0001 372.274C74.0001 373.518 75.3713 374.525 77.0627 374.525C78.7541 374.525 80.1252 373.518 80.1252 372.274C80.1252 371.031 78.7541 370.023 77.0627 370.023Z" fill="#E1EAF1"/>
<path d="M64.8127 370.023C63.1212 370.023 61.7501 371.031 61.7501 372.274C61.7501 373.518 63.1212 374.525 64.8127 374.525C66.5041 374.525 67.8752 373.518 67.8752 372.274C67.8752 371.031 66.5041 370.023 64.8127 370.023Z" fill="#E1EAF1"/>
<path d="M52.5627 370.023C50.8712 370.023 49.5001 371.031 49.5001 372.274C49.5001 373.518 50.8712 374.525 52.5627 374.525C54.2541 374.525 55.6252 373.518 55.6252 372.274C55.6252 371.031 54.2541 370.023 52.5627 370.023Z" fill="#E1EAF1"/>
<path d="M40.3127 370.023C38.6212 370.023 37.2501 371.031 37.2501 372.274C37.2501 373.518 38.6212 374.525 40.3127 374.525C42.0041 374.525 43.3752 373.518 43.3752 372.274C43.3752 371.031 42.0041 370.023 40.3127 370.023Z" fill="#E1EAF1"/>
<path d="M28.0627 370.023C26.3712 370.023 25.0001 371.031 25.0001 372.274C25.0001 373.518 26.3712 374.525 28.0627 374.525C29.7541 374.525 31.1252 373.518 31.1252 372.274C31.1252 371.031 29.7541 370.023 28.0627 370.023Z" fill="#E1EAF1"/>
<path d="M138.316 361.017C136.624 361.017 135.253 362.025 135.253 363.268C135.253 364.512 136.624 365.52 138.316 365.52C140.007 365.52 141.378 364.512 141.378 363.268C141.378 362.025 140.007 361.017 138.316 361.017Z" fill="#E1EAF1"/>
<path d="M126.066 361.017C124.374 361.017 123.003 362.025 123.003 363.268C123.003 364.512 124.374 365.52 126.066 365.52C127.757 365.52 129.128 364.512 129.128 363.268C129.128 362.025 127.757 361.017 126.066 361.017Z" fill="#E1EAF1"/>
<path d="M113.815 361.017C112.124 361.017 110.753 362.025 110.753 363.268C110.753 364.512 112.124 365.52 113.815 365.52C115.507 365.52 116.878 364.512 116.878 363.268C116.878 362.025 115.507 361.017 113.815 361.017Z" fill="#E1EAF1"/>
<path d="M101.565 361.017C99.8739 361.017 98.5028 362.025 98.5028 363.268C98.5028 364.512 99.8739 365.52 101.565 365.52C103.257 365.52 104.628 364.512 104.628 363.268C104.628 362.025 103.257 361.017 101.565 361.017Z" fill="#E1EAF1"/>
<path d="M89.3154 361.017C87.6239 361.017 86.2528 362.025 86.2528 363.268C86.2528 364.512 87.6239 365.52 89.3154 365.52C91.0068 365.52 92.3779 364.512 92.3779 363.268C92.3779 362.025 91.0068 361.017 89.3154 361.017Z" fill="#E1EAF1"/>
<path d="M77.0627 361.017C75.3713 361.017 74.0001 362.025 74.0001 363.268C74.0001 364.512 75.3713 365.52 77.0627 365.52C78.7541 365.52 80.1252 364.512 80.1252 363.268C80.1252 362.025 78.7541 361.017 77.0627 361.017Z" fill="#E1EAF1"/>
<path d="M64.8127 361.017C63.1212 361.017 61.7501 362.025 61.7501 363.268C61.7501 364.512 63.1212 365.52 64.8127 365.52C66.5041 365.52 67.8752 364.512 67.8752 363.268C67.8752 362.025 66.5041 361.017 64.8127 361.017Z" fill="#E1EAF1"/>
<path d="M52.5627 361.017C50.8712 361.017 49.5001 362.025 49.5001 363.268C49.5001 364.512 50.8712 365.52 52.5627 365.52C54.2541 365.52 55.6252 364.512 55.6252 363.268C55.6252 362.025 54.2541 361.017 52.5627 361.017Z" fill="#E1EAF1"/>
<path d="M40.3127 361.017C38.6212 361.017 37.2501 362.025 37.2501 363.268C37.2501 364.512 38.6212 365.52 40.3127 365.52C42.0041 365.52 43.3752 364.512 43.3752 363.268C43.3752 362.025 42.0041 361.017 40.3127 361.017Z" fill="#E1EAF1"/>
<path d="M28.0627 361.017C26.3712 361.017 25.0001 362.025 25.0001 363.268C25.0001 364.512 26.3712 365.52 28.0627 365.52C29.7541 365.52 31.1252 364.512 31.1252 363.268C31.1252 362.025 29.7541 361.017 28.0627 361.017Z" fill="#E1EAF1"/>
<path d="M138.316 352.013C136.624 352.013 135.253 353.021 135.253 354.264C135.253 355.508 136.624 356.516 138.316 356.516C140.007 356.516 141.378 355.508 141.378 354.264C141.378 353.021 140.007 352.013 138.316 352.013Z" fill="#E1EAF1"/>
<path d="M126.066 352.013C124.374 352.013 123.003 353.021 123.003 354.264C123.003 355.508 124.374 356.516 126.066 356.516C127.757 356.516 129.128 355.508 129.128 354.264C129.128 353.021 127.757 352.013 126.066 352.013Z" fill="#E1EAF1"/>
<path d="M113.815 352.013C112.124 352.013 110.753 353.021 110.753 354.264C110.753 355.508 112.124 356.516 113.815 356.516C115.507 356.516 116.878 355.508 116.878 354.264C116.878 353.021 115.507 352.013 113.815 352.013Z" fill="#E1EAF1"/>
<path d="M101.565 352.013C99.8739 352.013 98.5028 353.021 98.5028 354.264C98.5028 355.508 99.8739 356.516 101.565 356.516C103.257 356.516 104.628 355.508 104.628 354.264C104.628 353.021 103.257 352.013 101.565 352.013Z" fill="#E1EAF1"/>
<path d="M89.3154 352.013C87.6239 352.013 86.2528 353.021 86.2528 354.264C86.2528 355.508 87.6239 356.516 89.3154 356.516C91.0068 356.516 92.3779 355.508 92.3779 354.264C92.3779 353.021 91.0068 352.013 89.3154 352.013Z" fill="#E1EAF1"/>
<path d="M77.0627 352.013C75.3713 352.013 74.0001 353.021 74.0001 354.264C74.0001 355.508 75.3713 356.516 77.0627 356.516C78.7541 356.516 80.1252 355.508 80.1252 354.264C80.1252 353.021 78.7541 352.013 77.0627 352.013Z" fill="#E1EAF1"/>
<path d="M64.8127 352.013C63.1212 352.013 61.7501 353.021 61.7501 354.264C61.7501 355.508 63.1212 356.516 64.8127 356.516C66.5041 356.516 67.8752 355.508 67.8752 354.264C67.8752 353.021 66.5041 352.013 64.8127 352.013Z" fill="#E1EAF1"/>
<path d="M52.5627 352.013C50.8712 352.013 49.5001 353.021 49.5001 354.264C49.5001 355.508 50.8712 356.516 52.5627 356.516C54.2541 356.516 55.6252 355.508 55.6252 354.264C55.6252 353.021 54.2541 352.013 52.5627 352.013Z" fill="#E1EAF1"/>
<path d="M40.3127 352.013C38.6212 352.013 37.2501 353.021 37.2501 354.264C37.2501 355.508 38.6212 356.516 40.3127 356.516C42.0041 356.516 43.3752 355.508 43.3752 354.264C43.3752 353.021 42.0041 352.013 40.3127 352.013Z" fill="#E1EAF1"/>
<path d="M28.0627 352.013C26.3712 352.013 25.0001 353.021 25.0001 354.264C25.0001 355.508 26.3712 356.516 28.0627 356.516C29.7541 356.516 31.1252 355.508 31.1252 354.264C31.1252 353.021 29.7541 352.013 28.0627 352.013Z" fill="#E1EAF1"/>
<path d="M138.316 343.008C136.624 343.008 135.253 344.015 135.253 345.259C135.253 346.502 136.624 347.51 138.316 347.51C140.007 347.51 141.378 346.502 141.378 345.259C141.378 344.015 140.007 343.008 138.316 343.008Z" fill="#E1EAF1"/>
<path d="M126.066 343.008C124.374 343.008 123.003 344.015 123.003 345.259C123.003 346.502 124.374 347.51 126.066 347.51C127.757 347.51 129.128 346.502 129.128 345.259C129.128 344.015 127.757 343.008 126.066 343.008Z" fill="#E1EAF1"/>
<path d="M113.815 343.008C112.124 343.008 110.753 344.015 110.753 345.259C110.753 346.502 112.124 347.51 113.815 347.51C115.507 347.51 116.878 346.502 116.878 345.259C116.878 344.015 115.507 343.008 113.815 343.008Z" fill="#E1EAF1"/>
<path d="M101.565 343.008C99.8739 343.008 98.5028 344.015 98.5028 345.259C98.5028 346.502 99.8739 347.51 101.565 347.51C103.257 347.51 104.628 346.502 104.628 345.259C104.628 344.015 103.257 343.008 101.565 343.008Z" fill="#E1EAF1"/>
<path d="M89.3154 343.008C87.6239 343.008 86.2528 344.015 86.2528 345.259C86.2528 346.502 87.6239 347.51 89.3154 347.51C91.0068 347.51 92.3779 346.502 92.3779 345.259C92.3779 344.015 91.0068 343.008 89.3154 343.008Z" fill="#E1EAF1"/>
<path d="M77.0627 343.008C75.3713 343.008 74.0001 344.015 74.0001 345.259C74.0001 346.502 75.3713 347.51 77.0627 347.51C78.7541 347.51 80.1252 346.502 80.1252 345.259C80.1252 344.015 78.7541 343.008 77.0627 343.008Z" fill="#E1EAF1"/>
<path d="M64.8127 343.008C63.1212 343.008 61.7501 344.015 61.7501 345.259C61.7501 346.502 63.1212 347.51 64.8127 347.51C66.5041 347.51 67.8752 346.502 67.8752 345.259C67.8752 344.015 66.5041 343.008 64.8127 343.008Z" fill="#E1EAF1"/>
<path d="M52.5627 343.008C50.8712 343.008 49.5001 344.015 49.5001 345.259C49.5001 346.502 50.8712 347.51 52.5627 347.51C54.2541 347.51 55.6252 346.502 55.6252 345.259C55.6252 344.015 54.2541 343.008 52.5627 343.008Z" fill="#E1EAF1"/>
<path d="M40.3127 343.008C38.6212 343.008 37.2501 344.015 37.2501 345.259C37.2501 346.502 38.6212 347.51 40.3127 347.51C42.0041 347.51 43.3752 346.502 43.3752 345.259C43.3752 344.015 42.0041 343.008 40.3127 343.008Z" fill="#E1EAF1"/>
<path d="M28.0627 343.008C26.3712 343.008 25.0001 344.015 25.0001 345.259C25.0001 346.502 26.3712 347.51 28.0627 347.51C29.7541 347.51 31.1252 346.502 31.1252 345.259C31.1252 344.015 29.7541 343.008 28.0627 343.008Z" fill="#E1EAF1"/>
<path d="M138.316 334.004C136.624 334.004 135.253 335.011 135.253 336.255C135.253 337.498 136.624 338.506 138.316 338.506C140.007 338.506 141.378 337.498 141.378 336.255C141.378 335.011 140.007 334.004 138.316 334.004Z" fill="#E1EAF1"/>
<path d="M126.066 334.004C124.374 334.004 123.003 335.011 123.003 336.255C123.003 337.498 124.374 338.506 126.066 338.506C127.757 338.506 129.128 337.498 129.128 336.255C129.128 335.011 127.757 334.004 126.066 334.004Z" fill="#E1EAF1"/>
<path d="M113.815 334.004C112.124 334.004 110.753 335.011 110.753 336.255C110.753 337.498 112.124 338.506 113.815 338.506C115.507 338.506 116.878 337.498 116.878 336.255C116.878 335.011 115.507 334.004 113.815 334.004Z" fill="#E1EAF1"/>
<path d="M101.565 334.004C99.8739 334.004 98.5028 335.011 98.5028 336.255C98.5028 337.498 99.8739 338.506 101.565 338.506C103.257 338.506 104.628 337.498 104.628 336.255C104.628 335.011 103.257 334.004 101.565 334.004Z" fill="#E1EAF1"/>
<path d="M89.3154 334.004C87.6239 334.004 86.2528 335.011 86.2528 336.255C86.2528 337.498 87.6239 338.506 89.3154 338.506C91.0068 338.506 92.3779 337.498 92.3779 336.255C92.3779 335.011 91.0068 334.004 89.3154 334.004Z" fill="#E1EAF1"/>
<path d="M77.0627 334.004C75.3713 334.004 74.0001 335.011 74.0001 336.255C74.0001 337.498 75.3713 338.506 77.0627 338.506C78.7541 338.506 80.1252 337.498 80.1252 336.255C80.1252 335.011 78.7541 334.004 77.0627 334.004Z" fill="#E1EAF1"/>
<path d="M64.8127 334.004C63.1212 334.004 61.7501 335.011 61.7501 336.255C61.7501 337.498 63.1212 338.506 64.8127 338.506C66.5041 338.506 67.8752 337.498 67.8752 336.255C67.8752 335.011 66.5041 334.004 64.8127 334.004Z" fill="#E1EAF1"/>
<path d="M52.5627 334.004C50.8712 334.004 49.5001 335.011 49.5001 336.255C49.5001 337.498 50.8712 338.506 52.5627 338.506C54.2541 338.506 55.6252 337.498 55.6252 336.255C55.6252 335.011 54.2541 334.004 52.5627 334.004Z" fill="#E1EAF1"/>
<path d="M40.3127 334.004C38.6212 334.004 37.2501 335.011 37.2501 336.255C37.2501 337.498 38.6212 338.506 40.3127 338.506C42.0041 338.506 43.3752 337.498 43.3752 336.255C43.3752 335.011 42.0041 334.004 40.3127 334.004Z" fill="#E1EAF1"/>
<path d="M28.0627 334.004C26.3712 334.004 25.0001 335.011 25.0001 336.255C25.0001 337.498 26.3712 338.506 28.0627 338.506C29.7541 338.506 31.1252 337.498 31.1252 336.255C31.1252 335.011 29.7541 334.004 28.0627 334.004Z" fill="#E1EAF1"/>
<path d="M138.316 325C136.624 325 135.253 326.008 135.253 327.251C135.253 328.494 136.624 329.502 138.316 329.502C140.007 329.502 141.378 328.494 141.378 327.251C141.378 326.008 140.007 325 138.316 325Z" fill="#E1EAF1"/>
<path d="M126.066 325C124.374 325 123.003 326.008 123.003 327.251C123.003 328.494 124.374 329.502 126.066 329.502C127.757 329.502 129.128 328.494 129.128 327.251C129.128 326.008 127.757 325 126.066 325Z" fill="#E1EAF1"/>
<path d="M113.815 325C112.124 325 110.753 326.008 110.753 327.251C110.753 328.494 112.124 329.502 113.815 329.502C115.507 329.502 116.878 328.494 116.878 327.251C116.878 326.008 115.507 325 113.815 325Z" fill="#E1EAF1"/>
<path d="M101.565 325C99.8739 325 98.5028 326.008 98.5028 327.251C98.5028 328.494 99.8739 329.502 101.565 329.502C103.257 329.502 104.628 328.494 104.628 327.251C104.628 326.008 103.257 325 101.565 325Z" fill="#E1EAF1"/>
<path d="M89.3154 325C87.6239 325 86.2528 326.008 86.2528 327.251C86.2528 328.494 87.6239 329.502 89.3154 329.502C91.0068 329.502 92.3779 328.494 92.3779 327.251C92.3779 326.008 91.0068 325 89.3154 325Z" fill="#E1EAF1"/>
<path d="M77.0627 325C75.3713 325 74.0001 326.008 74.0001 327.251C74.0001 328.494 75.3713 329.502 77.0627 329.502C78.7541 329.502 80.1252 328.494 80.1252 327.251C80.1252 326.008 78.7541 325 77.0627 325Z" fill="#E1EAF1"/>
<path d="M64.8127 325C63.1212 325 61.7501 326.008 61.7501 327.251C61.7501 328.494 63.1212 329.502 64.8127 329.502C66.5041 329.502 67.8752 328.494 67.8752 327.251C67.8752 326.008 66.5041 325 64.8127 325Z" fill="#E1EAF1"/>
<path d="M52.5627 325C50.8712 325 49.5001 326.008 49.5001 327.251C49.5001 328.494 50.8712 329.502 52.5627 329.502C54.2541 329.502 55.6252 328.494 55.6252 327.251C55.6252 326.008 54.2541 325 52.5627 325Z" fill="#E1EAF1"/>
<path d="M40.3127 325C38.6212 325 37.2501 326.008 37.2501 327.251C37.2501 328.494 38.6212 329.502 40.3127 329.502C42.0041 329.502 43.3752 328.494 43.3752 327.251C43.3752 326.008 42.0041 325 40.3127 325Z" fill="#E1EAF1"/>
<path d="M28.0627 325C26.3712 325 25.0001 326.008 25.0001 327.251C25.0001 328.494 26.3712 329.502 28.0627 329.502C29.7541 329.502 31.1252 328.494 31.1252 327.251C31.1252 326.008 29.7541 325 28.0627 325Z" fill="#E1EAF1"/>
</g>
<path d="M54.4182 14.0373L45.6859 18.6927L49.4002 25.6021L40.2891 21.5699L31.5568 26.2253L34.6581 19.0779L25.5469 15.0457L36.5748 14.6605L39.6761 7.51308L43.3904 14.4225L54.4182 14.0373Z" fill="#9FFFEA" fill-opacity="0.75"/>
<path d="M79.4712 23.0956L73.1365 26.4457L75.7896 31.381L69.2215 28.5162L62.8868 31.8663L65.1622 26.7456L58.594 23.8808L66.5684 23.5809L68.8438 18.4602L71.4968 23.3955L79.4712 23.0956Z" fill="#9FFFEA" fill-opacity="0.75"/>
<path d="M48.5362 40.6437L38.9868 45.9411L43.3644 54.0843L33.0849 49.2151L23.5355 54.5125L26.7319 46.2057L16.4525 41.3365L28.7074 41.0719L31.9037 32.7651L36.2813 40.9083L48.5362 40.6437Z" fill="#9FFFEA" fill-opacity="0.75"/>
<rect x="361.63" y="415.479" width="5.52452" height="19.8354" fill="#F6FCB1" fill-opacity="0.75"/>
<rect x="371.89" y="428.867" width="16.5735" height="12.893" fill="#F6FCB1" fill-opacity="0.75"/>
<rect x="378.203" y="411.016" width="7.10295" height="14.3807" fill="#F6FCB1" fill-opacity="0.75"/>
<defs>
<clipPath id="clip0_319_10245">
<rect width="130.405" height="131.88" fill="white" transform="matrix(0.776076 -0.630639 0.776076 0.630639 311.079 211.238)"/>
</clipPath>
<clipPath id="clip1_319_10245">
<rect width="117" height="86" fill="white" transform="translate(25 325)"/>
</clipPath>
</defs>
</svg>
