<svg width="1508" height="960" viewBox="0 0 1508 960" fill="none" xmlns="http://www.w3.org/2000/svg">
<g opacity="0.2" clip-path="url(#clip0_644_3391)">
<path opacity="0.1" d="M1508 634.688C1508.08 683.474 1496.14 731.345 1473.48 773.073C1473.48 824.106 1452.15 870.362 1417.54 904.074C1408.88 912.515 1399.56 920.068 1389.68 926.642C1389.29 926.922 1388.88 927.187 1388.47 927.452C1387.73 927.939 1386.99 928.425 1386.23 928.926L1385.53 929.383C1352.78 949.742 1315.87 960.313 1278.37 960.073H283.028C214.394 960.073 152.262 933.422 107.245 890.35C62.2288 847.278 34.4868 787.667 34.4868 721.923C9.279 678.632 -4.09333 628.097 -4.0005 576.477C-4.0005 430.338 100.729 311.868 229.937 311.868C234.51 311.868 239.043 312.045 243.55 312.325C324.622 158.137 507.489 50.6191 719.936 50.6191C850.544 50.6191 969.931 91.2296 1061.38 158.329C1096.02 136.489 1135.14 125.037 1174.94 125.089C1304.12 125.089 1408.87 243.56 1408.87 389.698C1408.85 398.945 1408.41 408.185 1407.55 417.381C1438.69 441.966 1464.07 474.542 1481.55 512.363C1499.04 550.183 1508.11 592.138 1508 634.688Z" fill="#00FF01"/>
<path opacity="0.1" d="M541.853 718.254C827.99 718.254 1059.95 711.325 1059.95 702.777C1059.95 694.228 827.99 687.299 541.853 687.299C255.715 687.299 23.7549 694.228 23.7549 702.777C23.7549 711.325 255.715 718.254 541.853 718.254Z" fill="#00FF01"/>
<g opacity="0.7">
<path d="M348.889 588.535H183.679V690.246H348.889V588.535Z" fill="#65617D"/>
<path opacity="0.1" d="M292.057 606.225H241.833V618.017H292.057V606.225Z" fill="black"/>
<path opacity="0.1" d="M285.778 607.699H248.11V616.544H285.778V607.699Z" fill="black"/>
<path d="M516.742 588.535H351.532V690.246H516.742V588.535Z" fill="#65617D"/>
<path opacity="0.1" d="M459.909 606.225H409.686V618.017H459.909V606.225Z" fill="black"/>
<path opacity="0.1" d="M453.632 607.699H415.964V616.544H453.632V607.699Z" fill="black"/>
<path d="M348.889 483.877H183.679V585.587H348.889V483.877Z" fill="#65617D"/>
<path opacity="0.1" d="M292.057 501.566H241.833V513.359H292.057V501.566Z" fill="black"/>
<path opacity="0.1" d="M285.778 503.039H248.11V511.883H285.778V503.039Z" fill="black"/>
<path d="M516.742 483.877H351.532V585.587H516.742V483.877Z" fill="#65617D"/>
<path opacity="0.1" d="M459.909 501.566H409.686V513.359H459.909V501.566Z" fill="black"/>
<path opacity="0.1" d="M453.632 503.039H415.964V511.883H453.632V503.039Z" fill="black"/>
<path d="M348.889 377.744H183.679V479.455H348.889V377.744Z" fill="#65617D"/>
<path opacity="0.1" d="M292.057 395.434H241.833V407.226H292.057V395.434Z" fill="black"/>
<path opacity="0.1" d="M285.778 396.906H248.11V405.751H285.778V396.906Z" fill="black"/>
<path d="M516.742 377.744H351.532V479.455H516.742V377.744Z" fill="#65617D"/>
<path opacity="0.1" d="M459.909 395.434H409.686V407.226H459.909V395.434Z" fill="black"/>
<path opacity="0.1" d="M453.632 396.906H415.964V405.751H453.632V396.906Z" fill="black"/>
<path d="M516.742 271.611H351.532V373.322H516.742V271.611Z" fill="#65617D"/>
<path opacity="0.1" d="M459.909 289.301H409.686V301.093H459.909V289.301Z" fill="black"/>
<path opacity="0.1" d="M453.632 290.773H415.964V299.618H453.632V290.773Z" fill="black"/>
</g>
<g opacity="0.7">
<path d="M684.595 587.061H519.385V688.771H684.595V587.061Z" fill="#65617D"/>
<path opacity="0.1" d="M627.763 604.75H577.539V616.543H627.763V604.75Z" fill="black"/>
<path opacity="0.1" d="M621.484 606.225H583.816V615.069H621.484V606.225Z" fill="black"/>
<path d="M852.448 587.061H687.238V688.771H852.448V587.061Z" fill="#65617D"/>
<path opacity="0.1" d="M795.615 604.75H745.392V616.543H795.615V604.75Z" fill="black"/>
<path opacity="0.1" d="M789.338 606.225H751.67V615.069H789.338V606.225Z" fill="black"/>
<path d="M684.595 482.402H519.385V584.113H684.595V482.402Z" fill="#65617D"/>
<path opacity="0.1" d="M627.763 500.092H577.539V511.884H627.763V500.092Z" fill="black"/>
<path opacity="0.1" d="M621.484 501.564H583.816V510.409H621.484V501.564Z" fill="black"/>
<path d="M852.448 482.402H687.238V584.113H852.448V482.402Z" fill="#65617D"/>
<path opacity="0.1" d="M795.615 500.092H745.392V511.884H795.615V500.092Z" fill="black"/>
<path opacity="0.1" d="M789.338 501.564H751.67V510.409H789.338V501.564Z" fill="black"/>
<path d="M684.595 376.27H519.385V477.98H684.595V376.27Z" fill="#65617D"/>
<path opacity="0.1" d="M627.763 393.959H577.539V405.752H627.763V393.959Z" fill="black"/>
<path opacity="0.1" d="M621.484 395.432H583.816V404.276H621.484V395.432Z" fill="black"/>
<path d="M852.448 376.27H687.238V477.98H852.448V376.27Z" fill="#65617D"/>
<path opacity="0.1" d="M795.615 393.959H745.392V405.752H795.615V393.959Z" fill="black"/>
<path opacity="0.1" d="M789.338 395.432H751.67V404.276H789.338V395.432Z" fill="black"/>
<path d="M852.448 270.137H687.238V371.847H852.448V270.137Z" fill="#65617D"/>
<path opacity="0.1" d="M795.615 287.826H745.392V299.619H795.615V287.826Z" fill="black"/>
<path opacity="0.1" d="M789.338 289.299H751.67V298.143H789.338V289.299Z" fill="black"/>
</g>
<path opacity="0.1" d="M1156.82 0.161607C1156.82 0.161607 1045.55 -7.32666 1058.63 79.6432C1058.63 79.6432 1055.99 95.0177 1068.52 101.99C1068.52 101.99 1068.71 95.5484 1079.94 97.7447C1083.93 98.4833 1087.99 98.701 1092.03 98.3933C1097.49 97.973 1102.67 95.5825 1106.81 91.5831C1106.81 91.5831 1138.09 77.1668 1150.25 20.1499C1150.25 20.1499 1159.25 7.70882 1158.89 4.5101L1140.11 13.4577C1140.11 13.4577 1146.54 28.5669 1141.43 41.1259C1141.43 41.1259 1140.83 14.0031 1137.22 14.5927C1136.49 14.7254 1127.46 19.8256 1127.46 19.8256C1127.46 19.8256 1138.5 46.1377 1130.17 65.2711C1130.17 65.2711 1133.33 32.8416 1124.01 21.7272L1110.8 30.3357C1110.8 30.3357 1123.7 57.5175 1114.95 79.7022C1114.95 79.7022 1117.19 45.6807 1108.01 32.4289L1096.03 42.8505C1096.03 42.8505 1108.15 69.6491 1100.77 88.0454C1100.77 88.0454 1099.8 48.4372 1093.44 45.4449C1093.44 45.4449 1082.96 55.7634 1081.36 59.9792C1081.36 59.9792 1089.66 79.4369 1084.51 89.6963C1084.51 89.6963 1081.35 63.3106 1078.76 63.1632C1078.76 63.1632 1068.32 80.6456 1067.23 92.6445C1067.23 92.6445 1067.68 74.8083 1076.24 61.4975C1076.24 61.4975 1066.14 63.4285 1060.24 70.7399C1060.24 70.7399 1061.87 58.3725 1078.81 57.2964C1078.81 57.2964 1087.44 44.0298 1089.74 43.2191C1089.74 43.2191 1072.9 41.6566 1062.69 46.6979C1062.69 46.6979 1071.68 35.038 1092.84 40.3446L1104.66 29.5692C1104.66 29.5692 1082.49 26.1936 1073.08 29.923C1073.08 29.923 1083.9 19.6045 1107.85 27.137L1120.75 18.6169C1120.75 18.6169 1101.84 14.0768 1090.58 15.6688C1090.58 15.6688 1102.47 8.51956 1124.53 16.2731L1133.78 11.6593C1133.78 11.6593 1119.93 8.62274 1115.87 8.1363C1111.81 7.64985 1111.6 6.41164 1111.6 6.41164C1120.38 4.77963 1129.39 5.89722 1137.63 9.63985C1137.63 9.63985 1157.16 1.53249 1156.82 0.161607Z" fill="#00FF01"/>
<path opacity="0.1" d="M1019.57 22.2882C1019.57 22.2882 969.349 18.8979 975.231 58.2112C975.231 58.2112 974.055 65.154 979.685 68.3085C979.685 68.3085 979.777 65.3604 984.853 66.3775C986.655 66.7159 988.488 66.8148 990.311 66.6723C992.778 66.4853 995.122 65.4034 996.986 63.5915C996.986 63.5915 1011.13 57.0909 1016.63 31.3242C1016.63 31.3242 1020.68 25.6933 1020.52 24.2487L1012.04 28.2876C1012.04 28.2876 1014.95 35.1273 1012.66 40.8025C1012.66 40.8025 1012.38 28.5382 1010.76 28.833C1010.43 28.833 1006.34 31.1916 1006.34 31.1916C1006.34 31.1916 1011.34 43.0873 1007.57 51.74C1007.57 51.74 1009 37.0878 1004.78 32.0613L998.81 35.9528C998.81 35.9528 1004.65 48.2318 1000.69 58.2554C1000.69 58.2554 1001.7 42.8809 997.554 36.8962L992.148 41.5985C992.148 41.5985 997.62 53.7153 994.29 62.029C994.29 62.029 993.853 44.1191 990.972 42.7777C990.972 42.7777 986.24 47.4358 985.514 49.3521C985.514 49.3521 989.267 58.1964 986.941 62.766C986.941 62.766 985.514 50.8409 984.298 50.7966C984.298 50.7966 979.592 58.6976 979.09 64.0632C979.326 59.0557 980.729 54.2034 983.161 49.9859C980.438 50.5611 977.925 52.0111 975.931 54.1575C975.931 54.1575 976.672 48.5855 984.324 48.0844C984.324 48.0844 988.289 42.0996 989.267 41.7311C989.267 41.7311 981.654 41.0236 977.042 43.3084C977.042 43.3084 981.099 38.0312 990.668 40.434L995.955 35.5695C995.955 35.5695 985.937 34.0955 981.681 35.7317C981.681 35.7317 986.571 31.0736 997.395 34.464L1003.21 30.5872C1003.21 30.5872 994.673 28.5235 989.571 29.2753C989.571 29.2753 994.95 26.0323 1004.92 29.5406L1009.08 27.4622C1009.08 27.4622 1002.81 26.0765 1000.98 25.8702C999.14 25.6638 999.048 25.0889 999.048 25.0889C1003.02 24.3528 1007.09 24.8632 1010.81 26.563C1010.81 26.563 1019.73 22.9073 1019.57 22.2882Z" fill="#00FF01"/>
<path d="M292.307 950.418C321.658 950.418 345.451 945.931 345.451 940.395C345.451 934.859 321.658 930.371 292.307 930.371C262.956 930.371 239.162 934.859 239.162 940.395C239.162 945.931 262.956 950.418 292.307 950.418Z" fill="#00FF01"/>
<path d="M314.286 924.004C316.713 921.799 318.479 918.822 319.348 915.469C320.009 912.093 318.714 908.098 315.806 906.787C312.555 905.401 309.079 907.922 306.449 910.457C303.819 912.992 300.792 915.896 297.356 915.351C299.127 913.557 300.451 911.282 301.202 908.749C301.952 906.215 302.102 903.508 301.638 900.89C301.488 899.806 301.077 898.787 300.448 897.942C298.638 895.79 295.373 896.704 293.206 898.399C286.333 903.794 284.417 914.216 284.377 923.576C283.69 920.2 284.271 916.677 284.258 913.258C284.245 909.838 283.386 905.887 280.755 904.074C279.133 903.101 277.31 902.623 275.469 902.689C272.389 902.556 268.94 902.91 266.838 905.43C264.195 908.555 264.895 913.803 267.169 917.223C269.442 920.643 272.918 922.839 276.116 925.212C278.675 926.914 280.857 929.237 282.5 932.008C282.698 932.395 282.858 932.805 282.976 933.231H302.352C306.685 930.77 310.7 927.666 314.286 924.004Z" fill="#00FF01"/>
<path d="M944.12 504.144C944.011 503.028 943.653 501.959 943.078 501.037C942.503 500.115 941.73 499.369 940.829 498.867C940.07 498.507 939.255 498.32 938.43 498.318C937.606 498.317 936.789 498.5 936.029 498.858C935.27 499.215 934.582 499.74 934.008 500.4C933.434 501.06 932.985 501.842 932.688 502.7L903.333 571.583L896.725 842.811H907.298L911.263 572.187L943.565 508.419C944.149 507.095 944.343 505.599 944.12 504.144Z" fill="#3F3D56"/>
<path opacity="0.1" d="M1417.54 904.075C1408.88 912.516 1399.56 920.07 1389.68 926.643C1389.53 926.885 1389.36 927.112 1389.17 927.321C1388.12 928.313 1386.87 929.011 1385.53 929.355C1352.78 949.713 1315.87 960.285 1278.37 960.045H551.686C468.421 950.493 417.615 937.831 417.615 923.93C417.615 913.155 448.12 903.117 500.643 894.715C506.088 893.83 511.767 892.975 517.679 892.15C521.319 891.639 525.041 891.147 528.848 890.676L535.311 889.835C540.104 889.226 545.025 888.632 550.074 888.052H550.484L555.77 887.462C560.238 886.946 564.797 886.46 569.45 885.988L572.833 885.649L581.464 884.794C587.068 884.234 592.795 883.698 598.646 883.187C603.5 882.765 608.435 882.342 613.448 881.92C664.28 877.719 722.883 874.549 786.654 872.5L804.867 871.808L811 871.66L823.952 871.336L829.146 871.218L834.605 871.1L838.49 871.026L856.73 870.702L866.1 870.555H868.017C890.177 870.26 912.751 870.107 935.74 870.098C981.179 870.098 1025.24 870.702 1067.23 871.852C1091.34 872.5 1114.71 873.326 1137.35 874.328H1137.56C1202.82 877.188 1261.24 881.404 1309.59 886.637L1310.47 886.74C1322.89 888.081 1334.64 889.511 1345.66 890.985C1356.03 892.371 1365.77 893.83 1374.81 895.319C1377.95 895.835 1380.99 896.365 1383.95 896.881L1384.7 897.029C1397.23 899.284 1408.23 901.584 1417.54 904.075Z" fill="#00FF01"/>
<path d="M1389.68 926.642C1389.53 926.885 1389.36 927.111 1389.17 927.32C1388.12 928.313 1386.87 929.01 1385.53 929.355C1382.86 930.191 1380.11 930.685 1377.34 930.829H1376.51C1374.92 930.888 1373.34 930.828 1371.76 930.652C1370.61 930.466 1369.45 930.382 1368.29 930.401H1368.13C1366.44 930.666 1364.78 931.125 1363.17 931.772C1359.59 932.866 1355.91 933.45 1352.2 933.511H1350.88C1346.73 933.511 1342.53 933.349 1338.36 933.379C1337.69 933.379 1337.04 933.379 1336.34 933.379C1329.2 933.585 1322.11 934.853 1314.97 934.986H1312.68C1305.69 934.794 1298.54 933.128 1292.98 928.411C1291.85 927.584 1290.94 926.446 1290.33 925.109C1289.86 923.699 1289.7 922.181 1289.87 920.687C1290 918.019 1290.47 915.115 1292.26 913.317C1293.39 912.351 1294.69 911.653 1296.07 911.268C1298.49 910.398 1300.92 909.558 1303.34 908.718C1305.76 907.878 1308.52 906.978 1311.12 906.123L1311.63 905.947L1313.08 905.46L1314.02 905.106C1315.16 904.699 1316.25 904.145 1317.27 903.455C1318.62 902.504 1319.76 901.23 1320.61 899.726C1320.76 899.461 1320.92 899.181 1321.05 898.9C1321.18 898.62 1321.05 898.444 1320.96 898.208C1320.73 896.365 1320.56 894.478 1320.27 892.68C1316.55 891.718 1313.16 889.578 1310.5 886.518C1308.22 883.996 1306.3 881.097 1304.81 877.924C1301.51 871.026 1299.82 863.317 1297.36 855.99C1293.6 844.846 1288.11 834.557 1282.59 824.357C1277.54 814.952 1272.46 805.518 1266.73 796.63C1262.91 790.734 1258.8 785.117 1255.02 779.206C1244.32 762.712 1236.65 744.028 1232.44 724.224C1231.8 720.424 1230.88 716.688 1229.71 713.05C1227.43 706.859 1223.27 701.818 1220.05 696.158C1216.58 690.056 1214.2 683.263 1213.05 676.154C1212.39 672.115 1211.28 667.752 1207.68 667.31L1207.29 668.15C1199.81 684.365 1192.13 700.874 1180.86 714.112C1179.05 716.057 1177.41 718.173 1175.93 720.435C1174.74 722.629 1173.68 724.903 1172.76 727.245C1170.97 731.451 1168.6 735.317 1165.74 738.699C1164.89 739.661 1163.96 740.534 1162.96 741.308C1161.64 742.379 1160.17 743.2 1158.61 743.74C1158 743.95 1157.37 744.107 1156.74 744.212C1156.74 744.389 1156.8 744.551 1156.82 744.728C1156.83 744.905 1156.9 745.111 1156.92 745.303C1158.87 757.096 1158.03 769.251 1154.5 780.577C1154.41 780.931 1154.31 781.27 1154.19 781.624C1153.64 783.275 1153.05 784.896 1152.4 786.488C1150.79 790.394 1148.87 794.139 1147.37 798.104C1147.12 798.782 1146.86 799.46 1146.64 800.138C1141.35 815.925 1142.68 833.555 1141.99 850.522C1141.93 854.232 1141.53 857.925 1140.81 861.548C1139.91 865.631 1138.47 869.847 1137.68 874.062C1136.96 877.223 1136.9 880.527 1137.51 883.718L1137.19 883.85C1135.78 884.44 1134.34 884.971 1132.89 885.472V885.693C1133.41 888.995 1133.91 892.297 1134.43 895.584C1134.86 898.414 1135.38 901.48 1137.15 903.485C1137.63 903.928 1138.08 904.421 1138.47 904.959C1139.52 906.787 1138.59 909.204 1138.79 911.371C1139.08 914.437 1141.62 917.046 1141.22 920.098C1141.04 921.009 1140.67 921.859 1140.13 922.573C1139.59 923.287 1138.9 923.844 1138.13 924.195C1137.48 924.524 1136.79 924.767 1136.09 924.918L1135.66 925.021C1134.86 925.183 1134.07 925.271 1133.28 925.36C1123.43 926.451 1113.45 927.542 1103.7 925.684C1101.77 925.316 1099.85 924.829 1097.9 924.652C1095.43 924.529 1092.95 924.643 1090.5 924.991C1072.4 926.902 1054.2 927.296 1036.06 926.171C1031.34 925.876 1025.92 925.021 1023.42 920.525C1021.34 916.796 1022.1 911.975 1023.14 907.715C1023.44 906.149 1023.98 904.653 1024.74 903.293C1024.83 903.146 1024.92 903.008 1025.03 902.88C1027.46 899.505 1032.04 899.298 1035.98 899.431L1048.85 899.859C1050.12 899.973 1051.39 899.864 1052.63 899.534C1054.72 898.856 1056.3 896.999 1058.26 895.952C1060.72 894.64 1063.81 894.478 1065.58 892.238L1065.81 891.913C1066.12 891.439 1066.41 890.947 1066.68 890.439C1066.68 890.336 1066.8 890.233 1066.86 890.13C1066.91 890.038 1066.96 889.949 1067.02 889.864C1068.65 887.476 1071.49 886.68 1073.8 885.162C1074.15 884.934 1074.48 884.673 1074.79 884.381L1075.06 884.116C1072.57 882.134 1070.4 879.697 1068.63 876.907C1067.95 876.093 1067.45 875.114 1067.17 874.048C1067.01 873.247 1067.06 872.411 1067.33 871.645C1067.38 871.457 1067.45 871.275 1067.54 871.1L1067.6 870.952C1068.5 868.977 1070.35 867.193 1071.37 865.174C1071.41 865.11 1071.44 865.04 1071.46 864.967C1072.86 862.019 1073.14 857.45 1071.07 855.077C1072.12 835.663 1076.91 816.751 1077.97 797.278C1078.39 789.569 1078.22 781.83 1078.53 774.091C1078.85 766.352 1079.59 758.849 1080.37 751.258C1082.12 733.908 1086.35 716.912 1085.75 699.489C1085.7 697.865 1085.76 696.238 1085.94 694.624C1085.93 694.507 1085.93 694.388 1085.94 694.271C1086.36 690.7 1087.36 687.245 1088.88 684.07C1090.8 680.483 1092.97 677.072 1095.37 673.87C1103.5 662.077 1113.27 650.285 1116.16 635.78C1117.66 628.291 1120.96 621.437 1124.25 614.701C1126.19 610.691 1128.22 606.578 1131.32 603.63C1133 602.331 1134.57 600.85 1135.99 599.208C1138.15 596.083 1138.23 591.764 1139.52 588.049C1140.18 586.118 1141.19 584.35 1141.7 582.36C1141.7 582.153 1141.79 581.962 1141.83 581.755C1142.12 579.747 1142.28 577.717 1142.29 575.682C1142.29 575.092 1142.37 574.518 1142.44 573.943C1143.21 568.115 1144.73 562.441 1146.94 557.094C1147.22 556.416 1147.49 555.723 1147.75 555.045C1141.65 551.077 1136.27 545.873 1131.89 539.7C1130.4 537.703 1129.11 535.533 1128.04 533.229C1125.32 527.2 1124.7 520.331 1123.42 513.727C1120.35 497.984 1113.33 483.155 1112.36 467.058C1112.06 462.15 1112.36 457.079 1110.82 452.435C1110.4 451.18 1109.9 449.959 1109.33 448.78C1109.09 448.279 1108.87 447.777 1108.63 447.306L1108.36 446.746L1107.69 445.271L1106.61 446.215C1079.57 469.828 1051.18 491.454 1021.62 510.956L1019.08 512.636C1017.76 513.347 1016.61 514.398 1015.73 515.702C1015.62 515.894 1015.53 516.086 1015.44 516.277C1014.83 517.678 1014.67 519.225 1014.12 520.699C1012.93 524.075 1009.87 526.227 1006.75 527.23C1001.11 528.848 995.125 527.988 990.034 524.827C989.387 524.458 988.713 524.075 988.131 523.648C986.585 524.603 984.956 525.379 983.267 525.962C977.981 527.672 972.443 527.598 966.971 527.583C961.499 527.569 955.909 527.583 950.728 529.588C947.265 530.9 943.908 533.067 940.313 533.273C939.899 533.303 939.484 533.303 939.07 533.273C937.021 533.011 935.027 532.358 933.176 531.342L932.092 530.797C931.531 530.5 930.984 530.17 930.453 529.809C929.875 529.411 929.338 528.941 928.854 528.409C928.154 527.626 927.645 526.657 927.374 525.593C927.195 524.825 927.195 524.018 927.374 523.25C927.425 522.905 927.584 522.591 927.823 522.365C928.059 522.21 928.329 522.133 928.603 522.144C930.118 522.126 931.632 522.269 933.123 522.572C933.999 522.705 934.883 522.76 935.766 522.734H936.242C937.021 522.64 937.775 522.37 938.457 521.939C939.139 521.508 939.735 520.925 940.207 520.228C940.352 520.012 940.468 519.773 940.551 519.52C940.711 519.106 940.792 518.659 940.789 518.208C940.796 518.095 940.796 517.982 940.789 517.869C940.234 517.589 939.678 517.309 939.15 516.97C938.872 516.808 938.608 516.631 938.344 516.454L938.185 516.336C937.71 515.976 937.268 515.567 936.863 515.113C936.606 514.829 936.38 514.512 936.189 514.169C935.838 513.635 935.574 513.037 935.409 512.4C934.32 512.147 933.193 512.182 932.118 512.504C930.678 512.946 929.224 513.889 927.797 514.214C927.076 514.416 926.318 514.38 925.616 514.11C923.554 513.285 922.827 510.484 922.391 508.081C922.312 507.624 922.219 507.153 922.153 506.681C922.001 505.775 922.001 504.845 922.153 503.939C922.792 501.88 924.011 500.106 925.629 498.883L929.964 494.83L930.281 494.535C930.281 494.137 930.136 493.739 930.083 493.341C929.931 492.43 929.931 491.495 930.083 490.584C930.722 488.529 931.942 486.76 933.559 485.543L943.154 476.536C944.952 474.856 946.908 473.087 949.247 472.91C952.723 472.645 955.499 475.858 958.103 478.438C961.38 481.681 965.359 484.334 969.733 484.659C971.816 484.765 973.899 484.445 975.879 483.715L977.003 483.302C976.765 482.757 976.527 482.212 976.302 481.666C975.919 480.767 975.536 479.853 975.165 478.939C980.796 478.541 985.911 475.092 990.18 470.964C994.449 466.837 998.11 461.958 1002.42 457.904C1007.07 453.482 1012.41 450.195 1017.13 445.935C1028.1 436.014 1035.38 421.436 1047.12 412.695C1051.19 409.643 1055.89 407.211 1058.67 402.671C1059.53 401.197 1060.18 399.723 1061.06 398.249C1063.88 393.827 1068.7 391.792 1072.68 388.726C1076.66 385.66 1080.12 381.164 1083.36 376.845C1085.66 373.765 1087.97 370.684 1090.16 367.515C1092.19 363.313 1093.89 358.921 1096.01 354.779C1097.8 351.279 1099.89 347.982 1102.26 344.932C1102.8 343.753 1103.36 342.573 1103.95 341.424C1104.54 340.274 1104.98 339.493 1105.54 338.475C1105.92 337.812 1106.32 337.178 1106.73 336.53C1105.52 334.156 1104.37 332.107 1103.83 331.208L1103.57 330.81C1102.4 329.425 1101.16 328.125 1099.84 326.919C1098.46 326.685 1097.09 326.361 1095.74 325.946C1087.59 323.453 1080.39 318.037 1075.26 310.533C1070.14 303.03 1067.37 293.854 1067.38 284.421C1067.37 284.378 1067.37 284.333 1067.38 284.289C1067.38 277.533 1068.82 270.875 1071.58 264.861C1072.14 263.652 1072.73 262.487 1073.38 261.352C1072.78 261.14 1072.19 260.873 1071.62 260.556C1070.66 260.026 1069.82 259.254 1069.16 258.301C1068.62 257.452 1068.28 256.471 1068.15 255.441C1067.92 253.012 1068.25 250.559 1069.1 248.307C1069.46 247.223 1069.87 246.16 1070.33 245.123C1070.36 245.062 1070.39 244.998 1070.42 244.931C1076.33 231.665 1088.92 223.513 1101.5 222.938C1115.08 222.334 1128.3 229.439 1139 239.61C1142.2 242.533 1145.05 245.885 1147.51 249.589C1153.1 258.257 1155.63 269.342 1156.37 280.324C1156.65 283.72 1156.59 287.14 1156.21 290.524C1156.07 291.73 1155.85 292.922 1155.55 294.091C1155.38 294.784 1155.15 295.477 1154.91 296.17C1154.68 296.863 1154.53 297.172 1154.32 297.644V297.718C1154.12 298.189 1153.9 298.631 1153.67 299.074L1153.55 299.265L1153.38 299.575C1153.49 299.855 1153.61 300.15 1153.72 300.43C1153.84 300.71 1153.95 300.975 1154.08 301.241H1154.24C1156.88 301.476 1159.33 301.889 1162.02 302.125C1163.29 302.192 1164.55 302.41 1165.78 302.774C1168.42 303.658 1170.42 305.81 1172.64 307.55C1178.14 311.883 1184.9 313.903 1190.31 318.384C1198.24 324.988 1202.2 335.896 1207.01 345.669C1213.36 358.759 1223.69 369.903 1228.25 383.906C1230.32 390.264 1232.39 396.613 1234.47 402.951C1238.52 415.377 1242.58 427.863 1248.09 439.582C1255.76 455.885 1266.13 470.537 1272.28 487.666C1272.89 489.382 1274.03 490.795 1275.5 491.646C1283.88 504.835 1291.32 518.728 1297.77 533.199C1301.17 540.85 1304.38 548.795 1305.37 557.271C1306.15 564.817 1305.59 572.46 1303.72 579.765C1302.67 584.105 1301.37 588.369 1299.85 592.531C1299.25 593.988 1298.81 595.516 1298.53 597.086C1298.53 597.248 1298.53 597.41 1298.53 597.572C1298.26 600.402 1299.23 603.203 1299.49 606.033C1299.71 608.311 1299.48 610.616 1298.82 612.784C1298.71 613.123 1298.59 613.462 1298.47 613.801C1297.65 615.525 1296.96 617.319 1296.4 619.167C1296.35 619.39 1296.32 619.617 1296.29 619.845C1295.86 623.044 1296.99 626.272 1297.62 629.471C1299.94 641.027 1299.52 653.056 1298.94 664.848C1298.63 670.745 1302.9 675.476 1306.47 679.825C1313.08 687.976 1318.25 697.514 1323.23 707.007C1325.95 711.826 1328.24 716.931 1330.06 722.248C1331.95 728.322 1332.71 734.749 1333.75 741.043C1337.12 760.5 1348.13 777.688 1351.12 797.19C1352.5 806.121 1356.03 814.465 1361.33 821.335C1362.93 823.175 1364.4 825.146 1365.73 827.231C1366.66 828.893 1367.39 830.675 1367.92 832.538C1369.22 836.873 1369.83 841.427 1369.73 845.996C1369.52 848.183 1369.63 850.394 1370.06 852.541C1371.3 857.066 1375.74 859.558 1377.58 863.818C1379.41 868.078 1378.15 873.532 1378.9 878.367C1379.49 882.265 1381.38 885.771 1384.19 888.184C1383.13 889.216 1382.02 890.159 1380.88 891.132C1381.93 892.043 1382.86 893.127 1383.62 894.346C1384.14 895.162 1384.58 896.036 1384.94 896.955C1386.68 901.48 1386.74 906.86 1388.16 911.695C1388.77 913.7 1389.63 915.823 1389.1 917.857C1388.88 918.44 1388.72 919.055 1388.65 919.685C1388.65 921.011 1389.89 921.881 1390.37 923.09C1390.54 923.698 1390.57 924.345 1390.45 924.968C1390.33 925.591 1390.07 926.168 1389.68 926.642Z" fill="url(#paint0_linear_644_3391)"/>
<path d="M1109.96 351.756C1118.05 349.324 1125.26 344.238 1132.31 339.212L1156.91 321.744C1150.24 321.155 1144.47 315.848 1141.05 309.421C1137.63 302.994 1136.21 295.521 1135.05 288.18C1124.48 292.779 1115.32 300.577 1106.78 308.817C1103.39 312.074 1096.21 316.998 1095.16 322.083C1094.12 327.169 1100.78 331.296 1103.36 334.701C1104.24 335.836 1112.58 350.945 1109.96 351.756Z" fill="#FBBEBE"/>
<path opacity="0.1" d="M1109.96 351.756C1118.05 349.324 1125.26 344.238 1132.31 339.212L1156.91 321.744C1150.24 321.155 1144.47 315.848 1141.05 309.421C1137.63 302.994 1136.21 295.521 1135.05 288.18C1124.48 292.779 1115.32 300.577 1106.78 308.817C1103.39 312.074 1096.21 316.998 1095.16 322.083C1094.12 327.169 1100.78 331.296 1103.36 334.701C1104.24 335.836 1112.58 350.945 1109.96 351.756Z" fill="black"/>
<path d="M975.562 496.038C971.226 498.514 966.614 501.05 961.763 500.696C957.402 500.386 953.423 497.748 950.146 494.52C947.502 491.955 944.78 488.756 941.304 489.021C938.977 489.198 937.021 490.952 935.224 492.618L925.642 501.566C924.029 502.775 922.81 504.533 922.166 506.577C921.976 507.965 922.053 509.382 922.39 510.734C922.827 513.122 923.553 515.908 925.615 516.719C927.677 517.53 929.924 515.79 932.105 515.127C933.437 514.747 934.836 514.775 936.155 515.209C937.474 515.642 938.664 516.464 939.599 517.589C940.378 518.443 940.848 519.587 940.92 520.802C940.92 523.47 938.277 525.224 935.845 525.357C933.413 525.49 931.087 524.605 928.682 524.767C928.536 524.747 928.389 524.759 928.248 524.803C928.107 524.847 927.975 524.922 927.861 525.024C927.746 525.125 927.651 525.252 927.581 525.395C927.511 525.538 927.467 525.696 927.452 525.858C927.303 526.789 927.367 527.747 927.637 528.644C927.907 529.54 928.375 530.347 928.999 530.988C930.255 532.266 931.717 533.267 933.307 533.936C935.156 534.956 937.152 535.604 939.202 535.852C943.26 536.147 946.987 533.641 950.833 532.182C956.014 530.236 961.591 530.177 967.063 530.192C972.535 530.207 978.086 530.295 983.333 528.585C988.58 526.875 993.563 523.087 995.611 517.441C995.853 516.915 995.932 516.313 995.836 515.731C995.632 515.11 995.239 514.589 994.726 514.257C987.351 508.169 984.364 500.77 976.064 496.392L975.562 496.038Z" fill="#FBBEBE"/>
<path opacity="0.1" d="M975.562 496.038C971.226 498.514 966.614 501.05 961.763 500.696C957.402 500.386 953.423 497.748 950.146 494.52C947.502 491.955 944.78 488.756 941.304 489.021C938.977 489.198 937.021 490.952 935.224 492.618L925.642 501.566C924.029 502.775 922.81 504.533 922.166 506.577C921.976 507.965 922.053 509.382 922.39 510.734C922.827 513.122 923.553 515.908 925.615 516.719C927.677 517.53 929.924 515.79 932.105 515.127C933.437 514.747 934.836 514.775 936.155 515.209C937.474 515.642 938.664 516.464 939.599 517.589C940.378 518.443 940.848 519.587 940.92 520.802C940.92 523.47 938.277 525.224 935.845 525.357C933.413 525.49 931.087 524.605 928.682 524.767C928.536 524.747 928.389 524.759 928.248 524.803C928.107 524.847 927.975 524.922 927.861 525.024C927.746 525.125 927.651 525.252 927.581 525.395C927.511 525.538 927.467 525.696 927.452 525.858C927.303 526.789 927.367 527.747 927.637 528.644C927.907 529.54 928.375 530.347 928.999 530.988C930.255 532.266 931.717 533.267 933.307 533.936C935.156 534.956 937.152 535.604 939.202 535.852C943.26 536.147 946.987 533.641 950.833 532.182C956.014 530.236 961.591 530.177 967.063 530.192C972.535 530.207 978.086 530.295 983.333 528.585C988.58 526.875 993.563 523.087 995.611 517.441C995.853 516.915 995.932 516.313 995.836 515.731C995.632 515.11 995.239 514.589 994.726 514.257C987.351 508.169 984.364 500.77 976.064 496.392L975.562 496.038Z" fill="black"/>
<path d="M1130.33 338.829C1128.28 337.353 1125.95 336.422 1123.53 336.107C1121.1 335.793 1118.65 336.104 1116.35 337.016C1111.74 338.866 1107.61 341.936 1104.31 345.963C1101.01 349.715 1098.15 353.92 1095.81 358.478C1093.56 362.9 1091.84 367.529 1089.6 371.936C1085.63 379.823 1080.45 386.78 1075.24 393.679C1072 397.968 1068.73 402.317 1064.58 405.471C1060.43 408.626 1055.79 410.557 1052.97 414.935C1052.09 416.32 1051.45 417.883 1050.58 419.283C1047.82 423.794 1043.13 426.211 1039.04 429.233C1027.33 437.93 1020.05 452.406 1009.11 462.267C1004.39 466.512 999.061 469.844 994.422 474.177C990.1 478.202 986.492 483.022 982.183 487.149C977.874 491.277 972.812 494.682 967.195 495.065C970.949 504.396 975.429 513.55 981.866 520.817C988.302 528.084 997.951 532.727 1006.74 529.882C1009.86 528.88 1012.91 526.757 1014.1 523.397C1014.48 521.669 1015 519.986 1015.66 518.37C1016.54 517.073 1017.69 516.027 1019.01 515.319C1054.29 492.349 1087.92 466.362 1119.6 437.591C1128.1 429.867 1136.53 422.954 1145.25 415.48C1148.38 413.006 1151.27 410.181 1153.88 407.049C1157.52 402.203 1159.79 396.267 1160.41 389.985C1161.03 383.703 1159.98 377.357 1157.37 371.745C1155.03 367.451 1152.35 363.4 1149.36 359.643C1143.92 351.745 1137.52 344.739 1130.33 338.829Z" fill="#00FF01"/>
<path opacity="0.1" d="M1130.33 338.829C1128.28 337.353 1125.95 336.422 1123.53 336.107C1121.1 335.793 1118.65 336.104 1116.35 337.016C1111.74 338.866 1107.61 341.936 1104.31 345.963C1101.01 349.715 1098.15 353.92 1095.81 358.478C1093.56 362.9 1091.84 367.529 1089.6 371.936C1085.63 379.823 1080.45 386.78 1075.24 393.679C1072 397.968 1068.73 402.317 1064.58 405.471C1060.43 408.626 1055.79 410.557 1052.97 414.935C1052.09 416.32 1051.45 417.883 1050.58 419.283C1047.82 423.794 1043.13 426.211 1039.04 429.233C1027.33 437.93 1020.05 452.406 1009.11 462.267C1004.39 466.512 999.061 469.844 994.422 474.177C990.1 478.202 986.492 483.022 982.183 487.149C977.874 491.277 972.812 494.682 967.195 495.065C970.949 504.396 975.429 513.55 981.866 520.817C988.302 528.084 997.951 532.727 1006.74 529.882C1009.86 528.88 1012.91 526.757 1014.1 523.397C1014.48 521.669 1015 519.986 1015.66 518.37C1016.54 517.073 1017.69 516.027 1019.01 515.319C1054.29 492.349 1087.92 466.362 1119.6 437.591C1128.1 429.867 1136.53 422.954 1145.25 415.48C1148.38 413.006 1151.27 410.181 1153.88 407.049C1157.52 402.203 1159.79 396.267 1160.41 389.985C1161.03 383.703 1159.98 377.357 1157.37 371.745C1155.03 367.451 1152.35 363.4 1149.36 359.643C1143.92 351.745 1137.52 344.739 1130.33 338.829Z" fill="black"/>
<path d="M1073.54 885.662C1071.22 887.136 1068.38 887.962 1066.76 890.35C1066.23 891.116 1065.87 892.016 1065.3 892.753C1063.55 895.052 1060.43 895.155 1057.98 896.467C1056.03 897.499 1054.44 899.415 1052.36 900.02C1051.12 900.349 1049.84 900.458 1048.57 900.344L1035.72 899.917C1031.65 899.784 1026.88 900.02 1024.52 903.72C1023.75 905.075 1023.2 906.573 1022.9 908.142C1021.91 912.372 1021.11 917.163 1023.18 920.878C1025.67 925.3 1031.11 926.199 1035.8 926.494C1053.93 927.612 1072.1 927.218 1090.18 925.315C1092.62 924.966 1095.09 924.853 1097.55 924.976C1099.51 925.153 1101.43 925.639 1103.35 926.007C1113.1 927.85 1123.06 926.774 1132.89 925.683C1134.56 925.594 1136.19 925.206 1137.74 924.533C1138.52 924.182 1139.2 923.627 1139.74 922.916C1140.27 922.204 1140.65 921.358 1140.82 920.45C1141.23 917.414 1138.68 914.834 1138.41 911.783C1138.21 909.631 1139.13 907.228 1138.08 905.4C1137.68 904.861 1137.24 904.367 1136.75 903.926C1134.98 901.877 1134.47 898.885 1134.03 896.084L1131.72 880.945C1131.65 879.878 1131.26 878.868 1130.61 878.086C1130.12 877.695 1129.56 877.438 1128.97 877.334C1118.9 874.798 1108.58 877.113 1098.57 878.528C1093.42 879.37 1088.21 879.661 1083.01 879.398C1080.77 879.235 1079.89 878.941 1078.22 880.577C1076.54 882.213 1075.64 884.291 1073.54 885.662Z" fill="#3F3D56"/>
<path d="M1316.74 903.882C1314.97 904.984 1313.08 905.812 1311.11 906.344C1305.92 908.034 1300.74 909.798 1295.57 911.635C1294.19 912.015 1292.9 912.708 1291.77 913.67C1289.98 915.439 1289.51 918.328 1289.38 921.04C1289.21 922.534 1289.37 924.052 1289.84 925.462C1290.46 926.784 1291.37 927.91 1292.49 928.735C1298.41 933.732 1306.14 935.279 1313.57 935.279C1321 935.279 1328.37 933.879 1335.8 933.658C1344.77 933.393 1353.98 934.808 1362.62 932.007C1364.26 931.328 1365.97 930.863 1367.72 930.621C1368.88 930.602 1370.03 930.685 1371.18 930.872C1375.81 931.382 1380.48 930.907 1384.95 929.472C1386.3 929.139 1387.55 928.446 1388.6 927.452C1389.12 926.95 1389.49 926.284 1389.67 925.543C1389.84 924.801 1389.81 924.017 1389.58 923.295C1389.1 922.101 1387.89 921.232 1387.87 919.92C1387.94 919.29 1388.08 918.673 1388.31 918.092C1388.85 916.072 1387.98 913.964 1387.37 911.974C1385.67 906.285 1385.94 899.74 1382.89 894.802C1379.84 889.864 1374.23 887.829 1368.91 887.048C1364.58 886.366 1360.18 886.506 1355.89 887.461C1351.06 888.611 1346.56 891.013 1341.83 892.546C1336.33 894.308 1330.6 894.912 1324.91 894.33C1321.13 893.976 1322.42 894.639 1321.14 898.177C1320.23 900.536 1318.7 902.528 1316.74 903.882Z" fill="#3F3D56"/>
<path d="M1105.55 331.31C1126.72 331.31 1143.88 312.171 1143.88 288.562C1143.88 264.953 1126.72 245.814 1105.55 245.814C1084.38 245.814 1067.22 264.953 1067.22 288.562C1067.22 312.171 1084.38 331.31 1105.55 331.31Z" fill="#FBBEBE"/>
<path d="M1383.42 888.596C1371.52 899.991 1355.46 904.973 1339.8 905.15C1333.19 905.224 1326.33 904.428 1320.7 900.61C1320.31 898.193 1320.15 895.584 1319.75 893.166C1312.92 891.574 1307.62 885.368 1304.32 878.499C1301.01 871.63 1299.33 863.994 1296.87 856.712C1293.12 845.628 1287.62 835.412 1282.12 825.271C1277.08 815.925 1272.01 806.55 1266.26 797.72C1262.46 791.824 1258.33 786.282 1254.57 780.4C1243.9 764.028 1236.24 745.461 1232.03 725.771C1231.39 721.995 1230.48 718.283 1229.3 714.672C1227.02 708.51 1222.86 703.498 1219.65 697.882C1216.19 691.821 1213.81 685.068 1212.66 677.997C1212.01 673.987 1210.9 669.654 1207.29 669.241C1199.7 685.677 1191.97 702.378 1180.5 715.748C1178.7 717.678 1177.05 719.779 1175.57 722.027C1174.39 724.21 1173.33 726.475 1172.4 728.808C1170.62 732.991 1168.25 736.832 1165.39 740.188C1163 743.048 1159.84 744.971 1156.38 745.671C1158.93 759.835 1157.41 774.534 1152.05 787.682C1150.45 791.573 1148.53 795.288 1147.02 799.224C1140.86 815.439 1142.29 833.732 1141.64 851.317C1141.59 855.003 1141.2 858.672 1140.48 862.27C1138.88 869.463 1135.58 877.114 1137.18 884.307C1120.6 891.368 1102.19 890.926 1084.64 887.948C1081.21 887.598 1077.87 886.469 1074.85 884.631C1072.36 882.666 1070.18 880.243 1068.42 877.467C1067.74 876.658 1067.24 875.684 1066.96 874.622C1066.27 871.262 1069.6 868.726 1071.15 865.778C1072.69 862.83 1072.97 858.157 1070.84 855.74C1071.9 836.444 1076.68 817.606 1077.74 798.251C1078.16 790.586 1077.99 782.891 1078.31 775.211C1078.63 767.532 1079.37 760.058 1080.13 752.511C1081.88 735.279 1086.11 718.386 1085.51 701.066C1085.33 695.735 1086.43 690.448 1088.7 685.75C1090.61 682.181 1092.77 678.789 1095.17 675.609C1103.29 663.919 1113.04 652.201 1115.94 637.77C1117.43 630.326 1120.73 623.515 1124.01 616.823C1125.96 612.828 1127.98 608.745 1131.07 605.812C1132.75 604.513 1134.32 603.032 1135.74 601.39C1137.9 598.279 1137.98 594.019 1139.26 590.305C1139.93 588.388 1140.94 586.619 1141.43 584.644C1141.84 582.462 1142.03 580.239 1142.03 578.011C1142.45 570.876 1144.91 563.978 1147.5 557.448C1141.41 553.514 1136.03 548.344 1131.64 542.206C1130.16 540.213 1128.88 538.054 1127.81 535.764C1125.08 529.779 1124.46 522.955 1123.18 516.395C1120.13 500.74 1113.11 486.014 1112.13 470.021C1111.84 465.142 1112.13 460.1 1110.61 455.487C1109.91 453.534 1109.09 451.638 1108.15 449.811C1107.23 448.017 1106.53 446.094 1106.06 444.092C1105.22 439.744 1106.38 435.248 1106.06 430.825C1105.75 426.919 1104.25 423.263 1103.51 419.446C1102.76 414.478 1102.63 409.417 1103.13 404.41C1103.46 398.514 1104.61 392.426 1104.16 386.603C1103.43 376.969 1104.53 367.271 1107.39 358.143C1110.25 349.014 1114.8 340.66 1120.75 333.626L1121.05 333.287C1123.58 330.338 1126.34 327.729 1128.61 324.604C1131.7 320.418 1133.9 315.495 1137.16 311.426C1138.59 309.613 1140.2 307.992 1141.62 306.164C1142.91 304.247 1144.35 302.452 1145.91 300.798C1146.7 299.98 1147.66 299.39 1148.7 299.079C1149.74 298.768 1150.84 298.746 1151.89 299.014C1152.15 301.213 1152.77 303.34 1153.71 305.294C1156.46 305.53 1158.9 305.957 1161.64 306.193C1162.91 306.26 1164.17 306.478 1165.39 306.842C1167.97 307.711 1170.03 309.79 1172.24 311.574C1177.74 315.893 1184.49 317.897 1189.9 322.349C1197.83 328.909 1201.79 339.743 1206.58 349.457C1212.91 362.473 1223.23 373.543 1227.72 387.458L1233.92 406.385C1237.98 418.738 1242.04 431.135 1247.54 442.78C1255.19 458.995 1265.55 473.603 1271.7 490.569C1272.31 492.271 1273.45 493.672 1274.91 494.52C1283.28 507.61 1290.71 521.41 1297.15 535.794C1300.55 543.4 1303.76 551.301 1304.74 559.718C1306.18 571.613 1303.27 583.642 1299.23 594.756C1298.57 596.348 1298.13 598.035 1297.91 599.768C1297.64 602.584 1298.61 605.355 1298.87 608.17C1299.13 610.8 1298.78 613.458 1297.85 615.894C1297.03 617.607 1296.34 619.391 1295.78 621.23C1295.06 624.621 1296.33 628.07 1297.02 631.461C1299.35 642.943 1298.92 654.839 1298.34 666.602C1298.04 672.499 1302.31 677.171 1305.86 681.49C1312.47 689.583 1317.62 699.046 1322.61 708.495C1325.32 713.287 1327.6 718.362 1329.43 723.649C1331.32 729.677 1332.07 736.06 1333.12 742.325C1336.47 761.65 1347.47 778.734 1350.46 798.118C1351.84 806.999 1355.37 815.29 1360.66 822.101C1362.25 823.944 1363.72 825.914 1365.06 827.998C1365.97 829.651 1366.7 831.423 1367.23 833.275C1368.53 837.579 1369.14 842.104 1369.04 846.645C1368.83 848.817 1368.94 851.013 1369.37 853.145C1370.61 857.641 1375.05 860.118 1376.88 864.348C1378.7 868.579 1377.44 874.003 1378.2 878.809C1378.77 882.69 1380.63 886.187 1383.42 888.596Z" fill="#00FF01"/>
<path d="M983.491 482.77C979.156 485.247 974.543 487.782 969.693 487.428C965.331 487.119 961.353 484.48 958.075 481.252C955.432 478.687 952.709 475.488 949.233 475.754C946.907 475.931 944.951 477.685 943.154 479.35L933.571 488.298C931.959 489.507 930.739 491.265 930.095 493.31C929.906 494.698 929.983 496.114 930.32 497.467C930.756 499.855 931.483 502.641 933.545 503.451C935.607 504.262 937.854 502.523 940.034 501.859C941.367 501.48 942.766 501.508 944.085 501.941C945.404 502.374 946.593 503.197 947.528 504.321C948.307 505.175 948.778 506.319 948.85 507.535C948.85 510.203 946.207 511.957 943.775 512.089C941.343 512.222 939.017 511.338 936.611 511.5C936.466 511.479 936.319 511.491 936.178 511.536C936.037 511.58 935.905 511.655 935.791 511.756C935.676 511.858 935.581 511.984 935.511 512.127C935.441 512.271 935.397 512.428 935.382 512.591C935.233 513.522 935.296 514.48 935.567 515.376C935.837 516.273 936.305 517.079 936.928 517.72C938.184 518.999 939.646 519.999 941.237 520.669C943.086 521.688 945.081 522.337 947.132 522.585C951.189 522.88 954.917 520.374 958.763 518.914C963.944 516.969 969.521 516.91 974.993 516.924C980.465 516.939 986.016 517.028 991.263 515.318C996.51 513.608 1001.49 509.819 1003.54 504.174C1003.78 503.647 1003.86 503.046 1003.77 502.464C1003.56 501.843 1003.17 501.321 1002.66 500.99C995.281 494.902 992.294 487.502 983.994 483.124L983.491 482.77Z" fill="#FBBEBE"/>
<path d="M1086.9 262.295C1084.61 262.708 1082.67 264.432 1080.5 265.39C1079.05 266.021 1077.49 266.299 1075.93 266.208C1074.37 266.116 1072.85 265.657 1071.46 264.86C1070.49 264.335 1069.65 263.569 1068.99 262.619C1067.22 259.877 1067.84 255.897 1068.92 252.684C1074.05 237.486 1087.75 228.082 1101.31 227.477C1114.87 226.873 1128.06 233.934 1138.75 244.031C1141.93 246.945 1144.78 250.276 1147.25 253.952C1152.82 262.575 1155.35 273.586 1156.09 284.494C1156.53 289.072 1156.26 293.7 1155.28 298.174C1154.81 300.347 1153.96 302.393 1152.76 304.189C1151.57 305.985 1150.06 307.494 1148.33 308.625C1144.55 310.777 1140.02 310.099 1136.2 308.035C1132.38 305.971 1129.1 302.714 1125.82 299.603C1124.34 298.007 1122.58 296.758 1120.65 295.933C1119.69 295.552 1118.66 295.488 1117.66 295.749C1116.67 296.011 1115.77 296.586 1115.06 297.407C1113.29 299.78 1113.74 303.672 1112.13 306.251C1110.52 308.831 1107.16 309.2 1104.33 309.2C1101.5 309.2 1098.64 308.934 1096.94 306.428C1095.4 304.158 1095.62 300.842 1096.2 297.982C1096.79 295.122 1097.78 292.292 1097.53 289.359C1096.98 283.462 1092.36 279.836 1090.92 274.412C1089.98 270.859 1092.04 269.356 1091.83 266.142C1091.67 263.312 1088.95 261.926 1086.9 262.295Z" fill="#3F3D56"/>
<path opacity="0.1" d="M1207.32 668.871V669.24C1199.73 685.676 1192 702.377 1180.53 715.747C1178.72 717.677 1177.07 719.778 1175.6 722.026C1174.41 724.209 1173.35 726.474 1172.43 728.807C1170.65 732.99 1168.28 736.831 1165.42 740.187L1155.85 745.523L1186.25 568.635L1207.32 668.871Z" fill="black"/>
<path opacity="0.1" d="M1163.13 401.153C1160.52 404.285 1157.63 407.111 1154.5 409.585C1145.78 416.955 1137.32 423.912 1128.85 431.696C1122.02 437.896 1115.1 443.97 1108.07 449.915C1107.15 448.121 1106.45 446.197 1105.99 444.196C1105.14 439.847 1106.3 435.351 1105.99 430.929C1105.67 427.023 1104.17 423.367 1103.43 419.549C1102.68 414.582 1102.55 409.521 1103.05 404.514C1103.38 398.618 1104.53 392.53 1104.08 386.707C1103.35 377.049 1104.46 367.328 1107.33 358.18C1110.2 349.033 1114.77 340.665 1120.75 333.626L1121.05 333.287C1122.47 332.365 1123.98 331.613 1125.55 331.046C1127.85 330.145 1130.31 329.846 1132.73 330.174C1135.16 330.501 1137.48 331.445 1139.53 332.933C1146.72 338.843 1153.12 345.849 1158.56 353.747C1161.55 357.505 1164.23 361.555 1166.57 365.849C1169.18 371.456 1170.25 377.799 1169.64 384.08C1169.03 390.362 1166.76 396.302 1163.13 401.153Z" fill="black"/>
<path d="M1138.26 325.561C1136.21 324.085 1133.88 323.154 1131.46 322.84C1129.03 322.525 1126.58 322.836 1124.28 323.748C1119.67 325.598 1115.54 328.669 1112.24 332.696C1108.94 336.447 1106.08 340.653 1103.74 345.21C1101.49 349.633 1099.77 354.261 1097.53 358.669C1093.56 366.555 1088.38 373.513 1083.17 380.411C1079.93 384.701 1076.66 389.049 1072.51 392.204C1068.36 395.358 1063.72 397.289 1060.9 401.667C1060.02 403.053 1059.38 404.615 1058.51 406.016C1055.75 410.526 1051.06 412.944 1046.97 415.966C1035.26 424.663 1027.98 439.138 1017.04 448.999C1012.32 453.245 1006.99 456.576 1002.35 460.91C998.03 464.934 994.421 469.754 990.113 473.882C985.804 478.009 980.742 481.414 975.125 481.797C978.879 491.128 983.359 500.282 989.796 507.549C996.232 514.816 1005.88 519.46 1014.67 516.615C1017.79 515.612 1020.84 513.49 1022.03 510.129C1022.41 508.402 1022.93 506.718 1023.59 505.102C1024.47 503.805 1025.62 502.76 1026.93 502.051C1062.22 479.081 1095.85 453.094 1127.53 424.324C1136.03 416.6 1144.46 409.686 1153.18 402.213C1156.31 399.739 1159.2 396.913 1161.81 393.781C1165.45 388.936 1167.72 382.999 1168.34 376.717C1168.96 370.436 1167.91 364.09 1165.3 358.477C1162.96 354.183 1160.28 350.133 1157.29 346.375C1151.85 338.478 1145.45 331.471 1138.26 325.561Z" fill="#00FF01"/>
<g opacity="0.1">
<path d="M1106.98 303.26C1104.33 303.26 1101.28 302.994 1099.59 300.488C1098.06 298.218 1098.27 294.902 1098.85 292.042C1099.43 289.182 1100.42 286.352 1100.17 283.419C1099.63 277.523 1095 273.896 1093.56 268.472C1092.62 264.919 1094.69 263.416 1094.47 260.202C1094.29 257.416 1091.58 256.031 1089.53 256.399C1087.24 256.812 1085.3 258.537 1083.13 259.495C1081.68 260.125 1080.12 260.404 1078.56 260.312C1077 260.221 1075.48 259.761 1074.09 258.964C1073.13 258.44 1072.28 257.673 1071.62 256.723C1069.85 253.982 1070.47 250.002 1071.56 246.788C1071.56 246.67 1071.65 246.567 1071.69 246.449C1070.58 248.422 1069.65 250.51 1068.91 252.685C1067.83 255.898 1067.21 259.878 1068.98 262.62C1069.64 263.569 1070.48 264.336 1071.45 264.86C1072.84 265.657 1074.36 266.117 1075.92 266.208C1077.48 266.3 1079.04 266.021 1080.49 265.391C1082.66 264.433 1084.6 262.708 1086.89 262.295C1088.94 261.927 1091.65 263.313 1091.83 266.099C1092.04 269.312 1089.98 270.816 1090.92 274.368C1092.33 279.793 1096.96 283.478 1097.53 289.315C1097.79 292.263 1096.83 295.093 1096.21 297.938C1095.58 300.783 1095.41 304.115 1096.95 306.385C1098.64 308.891 1101.66 309.127 1104.33 309.156C1107 309.185 1110.44 308.979 1112.13 306.208C1112.86 304.816 1113.34 303.279 1113.55 301.682C1111.75 303.112 1109.24 303.289 1106.98 303.26Z" fill="black"/>
<path d="M1150.98 302.729C1147.2 304.881 1142.66 304.203 1138.84 302.139C1135.02 300.076 1131.74 296.818 1128.47 293.708C1126.98 292.111 1125.22 290.863 1123.3 290.037C1122.34 289.656 1121.3 289.592 1120.31 289.853C1119.32 290.115 1118.41 290.691 1117.71 291.511C1116.81 292.991 1116.24 294.69 1116.06 296.464C1116.74 296.013 1117.51 295.73 1118.3 295.636C1119.1 295.542 1119.9 295.638 1120.66 295.919C1122.58 296.744 1124.34 297.992 1125.82 299.589C1129.1 302.699 1132.43 305.972 1136.2 308.021C1139.97 310.07 1144.55 310.763 1148.33 308.611C1151.68 306.428 1154.11 302.864 1155.11 298.69C1154.03 300.369 1152.61 301.75 1150.98 302.729Z" fill="black"/>
</g>
<path d="M822.049 936.415C843.947 936.415 861.699 916.616 861.699 892.193C861.699 867.77 843.947 847.971 822.049 847.971C800.151 847.971 782.398 867.77 782.398 892.193C782.398 916.616 800.151 936.415 822.049 936.415Z" fill="#3F3D56"/>
<path opacity="0.1" d="M822.049 936.415C843.947 936.415 861.699 916.616 861.699 892.193C861.699 867.77 843.947 847.971 822.049 847.971C800.151 847.971 782.398 867.77 782.398 892.193C782.398 916.616 800.151 936.415 822.049 936.415Z" fill="black"/>
<path d="M822.049 920.2C835.918 920.2 847.161 907.661 847.161 892.193C847.161 876.725 835.918 864.186 822.049 864.186C808.18 864.186 796.938 876.725 796.938 892.193C796.938 907.661 808.18 920.2 822.049 920.2Z" fill="#65617D"/>
<path opacity="0.1" d="M822.049 920.2C835.918 920.2 847.161 907.661 847.161 892.193C847.161 876.725 835.918 864.186 822.049 864.186C808.18 864.186 796.938 876.725 796.938 892.193C796.938 907.661 808.18 920.2 822.049 920.2Z" fill="black"/>
<path d="M791.65 822.912L817.661 888.508C818.048 889.492 818.68 890.331 819.481 890.927C820.282 891.523 821.219 891.852 822.182 891.873C823.144 891.895 824.093 891.609 824.915 891.05C825.736 890.49 826.398 889.68 826.82 888.715L857.734 818.49L791.65 822.912Z" fill="#3F3D56"/>
<path opacity="0.1" d="M791.65 822.912L817.661 888.508C818.048 889.492 818.68 890.331 819.481 890.927C820.282 891.523 821.219 891.852 822.182 891.873C823.144 891.895 824.093 891.609 824.915 891.05C825.736 890.49 826.398 889.68 826.82 888.715L857.734 818.49L791.65 822.912Z" fill="black"/>
<path d="M574.895 936.415C596.794 936.415 614.546 916.616 614.546 892.193C614.546 867.77 596.794 847.971 574.895 847.971C552.997 847.971 535.245 867.77 535.245 892.193C535.245 916.616 552.997 936.415 574.895 936.415Z" fill="#3F3D56"/>
<path opacity="0.1" d="M574.895 936.415C596.794 936.415 614.546 916.616 614.546 892.193C614.546 867.77 596.794 847.971 574.895 847.971C552.997 847.971 535.245 867.77 535.245 892.193C535.245 916.616 552.997 936.415 574.895 936.415Z" fill="black"/>
<path d="M574.895 920.2C588.764 920.2 600.007 907.661 600.007 892.193C600.007 876.725 588.764 864.186 574.895 864.186C561.026 864.186 549.783 876.725 549.783 892.193C549.783 907.661 561.026 920.2 574.895 920.2Z" fill="#65617D"/>
<path opacity="0.1" d="M574.895 920.2C588.764 920.2 600.007 907.661 600.007 892.193C600.007 876.725 588.764 864.186 574.895 864.186C561.026 864.186 549.783 876.725 549.783 892.193C549.783 907.661 561.026 920.2 574.895 920.2Z" fill="black"/>
<path d="M544.496 822.912L570.507 888.508C570.894 889.492 571.525 890.331 572.326 890.927C573.127 891.523 574.064 891.852 575.027 891.873C575.99 891.895 576.938 891.609 577.76 891.05C578.582 890.49 579.243 889.68 579.666 888.715L610.58 818.49L544.496 822.912Z" fill="#3F3D56"/>
<path opacity="0.1" d="M544.496 822.912L570.507 888.508C570.894 889.492 571.525 890.331 572.326 890.927C573.127 891.523 574.064 891.852 575.027 891.873C575.99 891.895 576.938 891.609 577.76 891.05C578.582 890.49 579.243 889.68 579.666 888.715L610.58 818.49L544.496 822.912Z" fill="black"/>
<path d="M950.728 507.094C950.62 505.977 950.262 504.909 949.687 503.987C949.112 503.065 948.338 502.318 947.437 501.816C946.679 501.456 945.863 501.269 945.038 501.268C944.214 501.266 943.398 501.449 942.638 501.807C941.878 502.165 941.191 502.689 940.617 503.349C940.043 504.009 939.593 504.791 939.296 505.649L916.55 568.636L909.941 851.656H920.515L924.48 569.24L950.173 511.368C950.758 510.044 950.952 508.548 950.728 507.094Z" fill="#3F3D56"/>
<path d="M483.038 829.545L518.723 804.486L903.993 800.801L913.905 829.545H483.038Z" fill="#00FF01"/>
<path d="M483.038 856.078V829.545L920.884 824.828L920.461 842.812H490.968V856.078H483.038Z" fill="#3F3D56"/>
<path d="M538.549 951.893C560.447 951.893 578.199 932.094 578.199 907.671C578.199 883.248 560.447 863.449 538.549 863.449C516.651 863.449 498.898 883.248 498.898 907.671C498.898 932.094 516.651 951.893 538.549 951.893Z" fill="#3F3D56"/>
<path d="M538.549 935.679C552.418 935.679 563.661 923.139 563.661 907.671C563.661 892.203 552.418 879.664 538.549 879.664C524.68 879.664 513.438 892.203 513.438 907.671C513.438 923.139 524.68 935.679 538.549 935.679Z" fill="#65617D"/>
<path d="M508.15 838.389L534.161 903.985C534.548 904.968 535.18 905.807 535.981 906.404C536.782 907 537.719 907.328 538.682 907.35C539.644 907.372 540.593 907.086 541.415 906.526C542.236 905.967 542.898 905.156 543.32 904.191L574.234 833.967L508.15 838.389Z" fill="#3F3D56"/>
<path d="M846.5 951.893C868.398 951.893 886.15 932.094 886.15 907.671C886.15 883.248 868.398 863.449 846.5 863.449C824.602 863.449 806.85 883.248 806.85 907.671C806.85 932.094 824.602 951.893 846.5 951.893Z" fill="#3F3D56"/>
<path d="M846.5 935.679C860.368 935.679 871.611 923.139 871.611 907.671C871.611 892.203 860.368 879.664 846.5 879.664C832.631 879.664 821.388 892.203 821.388 907.671C821.388 923.139 832.631 935.679 846.5 935.679Z" fill="#65617D"/>
<path d="M816.102 838.389L842.112 903.985C842.499 904.968 843.131 905.807 843.932 906.404C844.733 907 845.67 907.328 846.633 907.35C847.595 907.372 848.544 907.086 849.366 906.526C850.188 905.967 850.849 905.156 851.271 904.191L882.185 833.967L816.102 838.389Z" fill="#3F3D56"/>
<path d="M697.811 713.83H532.602V815.541H697.811V713.83Z" fill="#65617D"/>
<path opacity="0.1" d="M640.979 731.52H590.755V743.312H640.979V731.52Z" fill="black"/>
<path opacity="0.1" d="M634.701 732.994H597.033V741.839H634.701V732.994Z" fill="black"/>
<path d="M865.664 713.83H700.454V815.541H865.664V713.83Z" fill="#65617D"/>
<path opacity="0.1" d="M808.832 731.52H758.608V743.312H808.832V731.52Z" fill="black"/>
<path opacity="0.1" d="M802.555 732.994H764.887V741.839H802.555V732.994Z" fill="black"/>
<path d="M697.811 609.172H532.602V710.882H697.811V609.172Z" fill="#65617D"/>
<path opacity="0.1" d="M640.979 626.861H590.755V638.654H640.979V626.861Z" fill="black"/>
<path opacity="0.1" d="M634.701 628.336H597.033V637.18H634.701V628.336Z" fill="black"/>
<path d="M865.664 609.172H700.454V710.882H865.664V609.172Z" fill="#65617D"/>
<path opacity="0.1" d="M808.832 626.861H758.608V638.654H808.832V626.861Z" fill="black"/>
<path opacity="0.1" d="M802.555 628.336H764.887V637.18H802.555V628.336Z" fill="black"/>
<path d="M697.811 503.039H532.602V604.75H697.811V503.039Z" fill="#65617D"/>
<path opacity="0.1" d="M640.979 520.729H590.755V532.521H640.979V520.729Z" fill="black"/>
<path opacity="0.1" d="M634.701 522.203H597.033V531.048H634.701V522.203Z" fill="black"/>
<path d="M865.664 503.039H700.454V604.75H865.664V503.039Z" fill="#65617D"/>
<path opacity="0.1" d="M808.832 520.729H758.608V532.521H808.832V520.729Z" fill="black"/>
<path opacity="0.1" d="M802.555 522.203H764.887V531.048H802.555V522.203Z" fill="black"/>
<path d="M865.664 396.906H700.454V498.617H865.664V396.906Z" fill="#65617D"/>
<path opacity="0.1" d="M808.832 414.596H758.608V426.388H808.832V414.596Z" fill="black"/>
<path opacity="0.1" d="M802.555 416.07H764.887V424.915H802.555V416.07Z" fill="black"/>
</g>
<defs>
<linearGradient id="paint0_linear_644_3391" x1="1156.21" y1="935.148" x2="1156.21" y2="222.968" gradientUnits="userSpaceOnUse">
<stop stop-color="#808080" stop-opacity="0.25"/>
<stop offset="0.54" stop-color="#808080" stop-opacity="0.12"/>
<stop offset="1" stop-color="#808080" stop-opacity="0.1"/>
</linearGradient>
<clipPath id="clip0_644_3391">
<rect width="1512" height="960" fill="white" transform="translate(-4)"/>
</clipPath>
</defs>
</svg>
