<svg width="500" height="506" viewBox="0 0 500 506" fill="none" xmlns="http://www.w3.org/2000/svg">
<g opacity="0.7" clip-path="url(#clip0_303_2806)">
<path d="M474.552 173.333C472.051 173.333 470.023 175.36 470.023 177.861C470.023 180.362 472.051 182.39 474.552 182.39C477.053 182.39 479.08 180.362 479.08 177.861C479.08 175.36 477.053 173.333 474.552 173.333Z" fill="#E1EAF1"/>
<path d="M456.439 173.333C453.938 173.333 451.911 175.36 451.911 177.861C451.911 180.362 453.938 182.39 456.439 182.39C458.94 182.39 460.968 180.362 460.968 177.861C460.968 175.36 458.94 173.333 456.439 173.333Z" fill="#E1EAF1"/>
<path d="M438.325 173.333C435.824 173.333 433.797 175.36 433.797 177.861C433.797 180.362 435.824 182.39 438.325 182.39C440.826 182.39 442.854 180.362 442.854 177.861C442.854 175.36 440.826 173.333 438.325 173.333Z" fill="#E1EAF1"/>
<path d="M420.212 173.333C417.711 173.333 415.683 175.36 415.683 177.861C415.683 180.362 417.711 182.39 420.212 182.39C422.713 182.39 424.74 180.362 424.74 177.861C424.74 175.36 422.713 173.333 420.212 173.333Z" fill="#E1EAF1"/>
<path d="M402.099 173.333C399.598 173.333 397.57 175.36 397.57 177.861C397.57 180.362 399.598 182.39 402.099 182.39C404.6 182.39 406.627 180.362 406.627 177.861C406.627 175.36 404.6 173.333 402.099 173.333Z" fill="#E1EAF1"/>
<path d="M383.981 173.333C381.48 173.333 379.453 175.36 379.453 177.861C379.453 180.362 381.48 182.39 383.981 182.39C386.482 182.39 388.51 180.362 388.51 177.861C388.51 175.36 386.482 173.333 383.981 173.333Z" fill="#E1EAF1"/>
<path d="M365.868 173.333C363.367 173.333 361.34 175.36 361.34 177.861C361.34 180.362 363.367 182.39 365.868 182.39C368.369 182.39 370.396 180.362 370.396 177.861C370.396 175.36 368.369 173.333 365.868 173.333Z" fill="#E1EAF1"/>
<path d="M347.755 173.333C345.254 173.333 343.226 175.36 343.226 177.861C343.226 180.362 345.254 182.39 347.755 182.39C350.256 182.39 352.283 180.362 352.283 177.861C352.283 175.36 350.256 173.333 347.755 173.333Z" fill="#E1EAF1"/>
<path d="M329.641 173.333C327.141 173.333 325.113 175.36 325.113 177.861C325.113 180.362 327.141 182.39 329.641 182.39C332.142 182.39 334.17 180.362 334.17 177.861C334.17 175.36 332.142 173.333 329.641 173.333Z" fill="#E1EAF1"/>
<path d="M311.528 173.333C309.027 173.333 307 175.36 307 177.861C307 180.362 309.027 182.39 311.528 182.39C314.029 182.39 316.057 180.362 316.057 177.861C316.057 175.36 314.029 173.333 311.528 173.333Z" fill="#E1EAF1"/>
<path d="M474.552 155.22C472.051 155.22 470.023 157.247 470.023 159.748C470.023 162.249 472.051 164.276 474.552 164.276C477.053 164.276 479.08 162.249 479.08 159.748C479.08 157.247 477.053 155.22 474.552 155.22Z" fill="#E1EAF1"/>
<path d="M456.439 155.22C453.938 155.22 451.911 157.247 451.911 159.748C451.911 162.249 453.938 164.276 456.439 164.276C458.94 164.276 460.968 162.249 460.968 159.748C460.968 157.247 458.94 155.22 456.439 155.22Z" fill="#E1EAF1"/>
<path d="M438.325 155.22C435.824 155.22 433.797 157.247 433.797 159.748C433.797 162.249 435.824 164.276 438.325 164.276C440.826 164.276 442.854 162.249 442.854 159.748C442.854 157.247 440.826 155.22 438.325 155.22Z" fill="#E1EAF1"/>
<path d="M420.212 155.22C417.711 155.22 415.683 157.247 415.683 159.748C415.683 162.249 417.711 164.276 420.212 164.276C422.713 164.276 424.74 162.249 424.74 159.748C424.74 157.247 422.713 155.22 420.212 155.22Z" fill="#E1EAF1"/>
<path d="M402.099 155.22C399.598 155.22 397.57 157.247 397.57 159.748C397.57 162.249 399.598 164.276 402.099 164.276C404.6 164.276 406.627 162.249 406.627 159.748C406.627 157.247 404.6 155.22 402.099 155.22Z" fill="#E1EAF1"/>
<path d="M383.981 155.22C381.48 155.22 379.453 157.247 379.453 159.748C379.453 162.249 381.48 164.276 383.981 164.276C386.482 164.276 388.51 162.249 388.51 159.748C388.51 157.247 386.482 155.22 383.981 155.22Z" fill="#E1EAF1"/>
<path d="M365.868 155.22C363.367 155.22 361.34 157.247 361.34 159.748C361.34 162.249 363.367 164.276 365.868 164.276C368.369 164.276 370.396 162.249 370.396 159.748C370.396 157.247 368.369 155.22 365.868 155.22Z" fill="#E1EAF1"/>
<path d="M347.755 155.22C345.254 155.22 343.226 157.247 343.226 159.748C343.226 162.249 345.254 164.276 347.755 164.276C350.256 164.276 352.283 162.249 352.283 159.748C352.283 157.247 350.256 155.22 347.755 155.22Z" fill="#E1EAF1"/>
<path d="M329.641 155.22C327.141 155.22 325.113 157.247 325.113 159.748C325.113 162.249 327.141 164.276 329.641 164.276C332.142 164.276 334.17 162.249 334.17 159.748C334.17 157.247 332.142 155.22 329.641 155.22Z" fill="#E1EAF1"/>
<path d="M311.528 155.22C309.027 155.22 307 157.247 307 159.748C307 162.249 309.027 164.276 311.528 164.276C314.029 164.276 316.057 162.249 316.057 159.748C316.057 157.247 314.029 155.22 311.528 155.22Z" fill="#E1EAF1"/>
<path d="M474.552 137.106C472.051 137.106 470.023 139.134 470.023 141.635C470.023 144.136 472.051 146.163 474.552 146.163C477.053 146.163 479.08 144.136 479.08 141.635C479.08 139.134 477.053 137.106 474.552 137.106Z" fill="#E1EAF1"/>
<path d="M456.439 137.106C453.938 137.106 451.911 139.134 451.911 141.635C451.911 144.136 453.938 146.163 456.439 146.163C458.94 146.163 460.968 144.136 460.968 141.635C460.968 139.134 458.94 137.106 456.439 137.106Z" fill="#E1EAF1"/>
<path d="M438.325 137.106C435.824 137.106 433.797 139.134 433.797 141.635C433.797 144.136 435.824 146.163 438.325 146.163C440.826 146.163 442.854 144.136 442.854 141.635C442.854 139.134 440.826 137.106 438.325 137.106Z" fill="#E1EAF1"/>
<path d="M420.212 137.106C417.711 137.106 415.683 139.134 415.683 141.635C415.683 144.136 417.711 146.163 420.212 146.163C422.713 146.163 424.74 144.136 424.74 141.635C424.74 139.134 422.713 137.106 420.212 137.106Z" fill="#E1EAF1"/>
<path d="M402.099 137.106C399.598 137.106 397.57 139.134 397.57 141.635C397.57 144.136 399.598 146.163 402.099 146.163C404.6 146.163 406.627 144.136 406.627 141.635C406.627 139.134 404.6 137.106 402.099 137.106Z" fill="#E1EAF1"/>
<path d="M383.981 137.106C381.48 137.106 379.453 139.134 379.453 141.635C379.453 144.136 381.48 146.163 383.981 146.163C386.482 146.163 388.51 144.136 388.51 141.635C388.51 139.134 386.482 137.106 383.981 137.106Z" fill="#E1EAF1"/>
<path d="M365.868 137.106C363.367 137.106 361.34 139.134 361.34 141.635C361.34 144.136 363.367 146.163 365.868 146.163C368.369 146.163 370.396 144.136 370.396 141.635C370.396 139.134 368.369 137.106 365.868 137.106Z" fill="#E1EAF1"/>
<path d="M347.755 137.106C345.254 137.106 343.226 139.134 343.226 141.635C343.226 144.136 345.254 146.163 347.755 146.163C350.256 146.163 352.283 144.136 352.283 141.635C352.283 139.134 350.256 137.106 347.755 137.106Z" fill="#E1EAF1"/>
<path d="M329.641 137.106C327.141 137.106 325.113 139.134 325.113 141.635C325.113 144.136 327.141 146.163 329.641 146.163C332.142 146.163 334.17 144.136 334.17 141.635C334.17 139.134 332.142 137.106 329.641 137.106Z" fill="#E1EAF1"/>
<path d="M311.528 137.106C309.027 137.106 307 139.134 307 141.635C307 144.136 309.027 146.163 311.528 146.163C314.029 146.163 316.057 144.136 316.057 141.635C316.057 139.134 314.029 137.106 311.528 137.106Z" fill="#E1EAF1"/>
<path d="M474.552 118.991C472.051 118.991 470.023 121.018 470.023 123.519C470.023 126.02 472.051 128.048 474.552 128.048C477.053 128.048 479.08 126.02 479.08 123.519C479.08 121.018 477.053 118.991 474.552 118.991Z" fill="#E1EAF1"/>
<path d="M456.439 118.991C453.938 118.991 451.911 121.018 451.911 123.519C451.911 126.02 453.938 128.048 456.439 128.048C458.94 128.048 460.968 126.02 460.968 123.519C460.968 121.018 458.94 118.991 456.439 118.991Z" fill="#E1EAF1"/>
<path d="M438.325 118.991C435.824 118.991 433.797 121.018 433.797 123.519C433.797 126.02 435.824 128.048 438.325 128.048C440.826 128.048 442.854 126.02 442.854 123.519C442.854 121.018 440.826 118.991 438.325 118.991Z" fill="#E1EAF1"/>
<path d="M420.212 118.991C417.711 118.991 415.683 121.018 415.683 123.519C415.683 126.02 417.711 128.048 420.212 128.048C422.713 128.048 424.74 126.02 424.74 123.519C424.74 121.018 422.713 118.991 420.212 118.991Z" fill="#E1EAF1"/>
<path d="M402.099 118.991C399.598 118.991 397.57 121.018 397.57 123.519C397.57 126.02 399.598 128.048 402.099 128.048C404.6 128.048 406.627 126.02 406.627 123.519C406.627 121.018 404.6 118.991 402.099 118.991Z" fill="#E1EAF1"/>
<path d="M383.981 118.991C381.48 118.991 379.453 121.018 379.453 123.519C379.453 126.02 381.48 128.048 383.981 128.048C386.482 128.048 388.51 126.02 388.51 123.519C388.51 121.018 386.482 118.991 383.981 118.991Z" fill="#E1EAF1"/>
<path d="M365.868 118.991C363.367 118.991 361.34 121.018 361.34 123.519C361.34 126.02 363.367 128.048 365.868 128.048C368.369 128.048 370.396 126.02 370.396 123.519C370.396 121.018 368.369 118.991 365.868 118.991Z" fill="#E1EAF1"/>
<path d="M347.755 118.991C345.254 118.991 343.226 121.018 343.226 123.519C343.226 126.02 345.254 128.048 347.755 128.048C350.256 128.048 352.283 126.02 352.283 123.519C352.283 121.018 350.256 118.991 347.755 118.991Z" fill="#E1EAF1"/>
<path d="M329.641 118.991C327.141 118.991 325.113 121.018 325.113 123.519C325.113 126.02 327.141 128.048 329.641 128.048C332.142 128.048 334.17 126.02 334.17 123.519C334.17 121.018 332.142 118.991 329.641 118.991Z" fill="#E1EAF1"/>
<path d="M311.528 118.991C309.027 118.991 307 121.018 307 123.519C307 126.02 309.027 128.048 311.528 128.048C314.029 128.048 316.057 126.02 316.057 123.519C316.057 121.018 314.029 118.991 311.528 118.991Z" fill="#E1EAF1"/>
<path d="M474.552 100.878C472.051 100.878 470.023 102.905 470.023 105.406C470.023 107.907 472.051 109.935 474.552 109.935C477.053 109.935 479.08 107.907 479.08 105.406C479.08 102.905 477.053 100.878 474.552 100.878Z" fill="#E1EAF1"/>
<path d="M456.439 100.878C453.938 100.878 451.911 102.905 451.911 105.406C451.911 107.907 453.938 109.935 456.439 109.935C458.94 109.935 460.968 107.907 460.968 105.406C460.968 102.905 458.94 100.878 456.439 100.878Z" fill="#E1EAF1"/>
<path d="M438.325 100.878C435.824 100.878 433.797 102.905 433.797 105.406C433.797 107.907 435.824 109.935 438.325 109.935C440.826 109.935 442.854 107.907 442.854 105.406C442.854 102.905 440.826 100.878 438.325 100.878Z" fill="#E1EAF1"/>
<path d="M420.212 100.878C417.711 100.878 415.683 102.905 415.683 105.406C415.683 107.907 417.711 109.935 420.212 109.935C422.713 109.935 424.74 107.907 424.74 105.406C424.74 102.905 422.713 100.878 420.212 100.878Z" fill="#E1EAF1"/>
<path d="M402.099 100.878C399.598 100.878 397.57 102.905 397.57 105.406C397.57 107.907 399.598 109.935 402.099 109.935C404.6 109.935 406.627 107.907 406.627 105.406C406.627 102.905 404.6 100.878 402.099 100.878Z" fill="#E1EAF1"/>
<path d="M383.981 100.878C381.48 100.878 379.453 102.905 379.453 105.406C379.453 107.907 381.48 109.935 383.981 109.935C386.482 109.935 388.51 107.907 388.51 105.406C388.51 102.905 386.482 100.878 383.981 100.878Z" fill="#E1EAF1"/>
<path d="M365.868 100.878C363.367 100.878 361.34 102.905 361.34 105.406C361.34 107.907 363.367 109.935 365.868 109.935C368.369 109.935 370.396 107.907 370.396 105.406C370.396 102.905 368.369 100.878 365.868 100.878Z" fill="#E1EAF1"/>
<path d="M347.755 100.878C345.254 100.878 343.226 102.905 343.226 105.406C343.226 107.907 345.254 109.935 347.755 109.935C350.256 109.935 352.283 107.907 352.283 105.406C352.283 102.905 350.256 100.878 347.755 100.878Z" fill="#E1EAF1"/>
<path d="M329.641 100.878C327.141 100.878 325.113 102.905 325.113 105.406C325.113 107.907 327.141 109.935 329.641 109.935C332.142 109.935 334.17 107.907 334.17 105.406C334.17 102.905 332.142 100.878 329.641 100.878Z" fill="#E1EAF1"/>
<path d="M311.528 100.878C309.027 100.878 307 102.905 307 105.406C307 107.907 309.027 109.935 311.528 109.935C314.029 109.935 316.057 107.907 316.057 105.406C316.057 102.905 314.029 100.878 311.528 100.878Z" fill="#E1EAF1"/>
<path d="M474.552 82.7644C472.051 82.7644 470.023 84.7919 470.023 87.2929C470.023 89.7938 472.051 91.8213 474.552 91.8213C477.053 91.8213 479.08 89.7938 479.08 87.2929C479.08 84.7919 477.053 82.7644 474.552 82.7644Z" fill="#E1EAF1"/>
<path d="M456.439 82.7644C453.938 82.7644 451.911 84.7919 451.911 87.2929C451.911 89.7938 453.938 91.8213 456.439 91.8213C458.94 91.8213 460.968 89.7938 460.968 87.2929C460.968 84.7919 458.94 82.7644 456.439 82.7644Z" fill="#E1EAF1"/>
<path d="M438.325 82.7644C435.824 82.7644 433.797 84.7919 433.797 87.2929C433.797 89.7938 435.824 91.8213 438.325 91.8213C440.826 91.8213 442.854 89.7938 442.854 87.2929C442.854 84.7919 440.826 82.7644 438.325 82.7644Z" fill="#E1EAF1"/>
<path d="M420.212 82.7644C417.711 82.7644 415.683 84.7919 415.683 87.2929C415.683 89.7938 417.711 91.8213 420.212 91.8213C422.713 91.8213 424.74 89.7938 424.74 87.2929C424.74 84.7919 422.713 82.7644 420.212 82.7644Z" fill="#E1EAF1"/>
<path d="M402.099 82.7644C399.598 82.7644 397.57 84.7919 397.57 87.2929C397.57 89.7938 399.598 91.8213 402.099 91.8213C404.6 91.8213 406.627 89.7938 406.627 87.2929C406.627 84.7919 404.6 82.7644 402.099 82.7644Z" fill="#E1EAF1"/>
<path d="M383.981 82.7644C381.48 82.7644 379.453 84.7919 379.453 87.2929C379.453 89.7938 381.48 91.8213 383.981 91.8213C386.482 91.8213 388.51 89.7938 388.51 87.2929C388.51 84.7919 386.482 82.7644 383.981 82.7644Z" fill="#E1EAF1"/>
<path d="M365.868 82.7644C363.367 82.7644 361.34 84.7919 361.34 87.2929C361.34 89.7938 363.367 91.8213 365.868 91.8213C368.369 91.8213 370.396 89.7938 370.396 87.2929C370.396 84.7919 368.369 82.7644 365.868 82.7644Z" fill="#E1EAF1"/>
<path d="M347.755 82.7644C345.254 82.7644 343.226 84.7919 343.226 87.2929C343.226 89.7938 345.254 91.8213 347.755 91.8213C350.256 91.8213 352.283 89.7938 352.283 87.2929C352.283 84.7919 350.256 82.7644 347.755 82.7644Z" fill="#E1EAF1"/>
<path d="M329.641 82.7644C327.141 82.7644 325.113 84.7919 325.113 87.2929C325.113 89.7938 327.141 91.8213 329.641 91.8213C332.142 91.8213 334.17 89.7938 334.17 87.2929C334.17 84.7919 332.142 82.7644 329.641 82.7644Z" fill="#E1EAF1"/>
<path d="M311.528 82.7644C309.027 82.7644 307 84.7919 307 87.2929C307 89.7938 309.027 91.8213 311.528 91.8213C314.029 91.8213 316.057 89.7938 316.057 87.2929C316.057 84.7919 314.029 82.7644 311.528 82.7644Z" fill="#E1EAF1"/>
<path d="M474.552 64.6511C472.051 64.6511 470.023 66.6786 470.023 69.1796C470.023 71.6806 472.051 73.708 474.552 73.708C477.053 73.708 479.08 71.6806 479.08 69.1796C479.08 66.6786 477.053 64.6511 474.552 64.6511Z" fill="#E1EAF1"/>
<path d="M456.439 64.6511C453.938 64.6511 451.911 66.6786 451.911 69.1796C451.911 71.6806 453.938 73.708 456.439 73.708C458.94 73.708 460.968 71.6806 460.968 69.1796C460.968 66.6786 458.94 64.6511 456.439 64.6511Z" fill="#E1EAF1"/>
<path d="M438.325 64.6511C435.824 64.6511 433.797 66.6786 433.797 69.1796C433.797 71.6806 435.824 73.708 438.325 73.708C440.826 73.708 442.854 71.6806 442.854 69.1796C442.854 66.6786 440.826 64.6511 438.325 64.6511Z" fill="#E1EAF1"/>
<path d="M420.212 64.6511C417.711 64.6511 415.683 66.6786 415.683 69.1796C415.683 71.6806 417.711 73.708 420.212 73.708C422.713 73.708 424.74 71.6806 424.74 69.1796C424.74 66.6786 422.713 64.6511 420.212 64.6511Z" fill="#E1EAF1"/>
<path d="M402.099 64.6511C399.598 64.6511 397.57 66.6786 397.57 69.1796C397.57 71.6806 399.598 73.708 402.099 73.708C404.6 73.708 406.627 71.6806 406.627 69.1796C406.627 66.6786 404.6 64.6511 402.099 64.6511Z" fill="#E1EAF1"/>
<path d="M383.981 64.6511C381.48 64.6511 379.453 66.6786 379.453 69.1796C379.453 71.6806 381.48 73.708 383.981 73.708C386.482 73.708 388.51 71.6806 388.51 69.1796C388.51 66.6786 386.482 64.6511 383.981 64.6511Z" fill="#E1EAF1"/>
<path d="M365.868 64.6511C363.367 64.6511 361.34 66.6786 361.34 69.1796C361.34 71.6806 363.367 73.708 365.868 73.708C368.369 73.708 370.396 71.6806 370.396 69.1796C370.396 66.6786 368.369 64.6511 365.868 64.6511Z" fill="#E1EAF1"/>
<path d="M347.755 64.6511C345.254 64.6511 343.226 66.6786 343.226 69.1796C343.226 71.6806 345.254 73.708 347.755 73.708C350.256 73.708 352.283 71.6806 352.283 69.1796C352.283 66.6786 350.256 64.6511 347.755 64.6511Z" fill="#E1EAF1"/>
<path d="M329.641 64.6511C327.141 64.6511 325.113 66.6786 325.113 69.1796C325.113 71.6806 327.141 73.708 329.641 73.708C332.142 73.708 334.17 71.6806 334.17 69.1796C334.17 66.6786 332.142 64.6511 329.641 64.6511Z" fill="#E1EAF1"/>
<path d="M311.528 64.6511C309.027 64.6511 307 66.6786 307 69.1796C307 71.6806 309.027 73.708 311.528 73.708C314.029 73.708 316.057 71.6806 316.057 69.1796C316.057 66.6786 314.029 64.6511 311.528 64.6511Z" fill="#E1EAF1"/>
<path d="M474.552 46.5359C472.051 46.5359 470.023 48.5634 470.023 51.0643C470.023 53.5653 472.051 55.5928 474.552 55.5928C477.053 55.5928 479.08 53.5653 479.08 51.0643C479.08 48.5634 477.053 46.5359 474.552 46.5359Z" fill="#E1EAF1"/>
<path d="M456.439 46.5359C453.938 46.5359 451.911 48.5634 451.911 51.0643C451.911 53.5653 453.938 55.5928 456.439 55.5928C458.94 55.5928 460.968 53.5653 460.968 51.0643C460.968 48.5634 458.94 46.5359 456.439 46.5359Z" fill="#E1EAF1"/>
<path d="M438.325 46.5359C435.824 46.5359 433.797 48.5634 433.797 51.0643C433.797 53.5653 435.824 55.5928 438.325 55.5928C440.826 55.5928 442.854 53.5653 442.854 51.0643C442.854 48.5634 440.826 46.5359 438.325 46.5359Z" fill="#E1EAF1"/>
<path d="M420.212 46.5359C417.711 46.5359 415.683 48.5634 415.683 51.0643C415.683 53.5653 417.711 55.5928 420.212 55.5928C422.713 55.5928 424.74 53.5653 424.74 51.0643C424.74 48.5634 422.713 46.5359 420.212 46.5359Z" fill="#E1EAF1"/>
<path d="M402.099 46.5359C399.598 46.5359 397.57 48.5634 397.57 51.0643C397.57 53.5653 399.598 55.5928 402.099 55.5928C404.6 55.5928 406.627 53.5653 406.627 51.0643C406.627 48.5634 404.6 46.5359 402.099 46.5359Z" fill="#E1EAF1"/>
<path d="M383.981 46.5359C381.48 46.5359 379.453 48.5634 379.453 51.0643C379.453 53.5653 381.48 55.5928 383.981 55.5928C386.482 55.5928 388.51 53.5653 388.51 51.0643C388.51 48.5634 386.482 46.5359 383.981 46.5359Z" fill="#E1EAF1"/>
<path d="M365.868 46.5359C363.367 46.5359 361.34 48.5634 361.34 51.0643C361.34 53.5653 363.367 55.5928 365.868 55.5928C368.369 55.5928 370.396 53.5653 370.396 51.0643C370.396 48.5634 368.369 46.5359 365.868 46.5359Z" fill="#E1EAF1"/>
<path d="M347.755 46.5359C345.254 46.5359 343.226 48.5634 343.226 51.0643C343.226 53.5653 345.254 55.5928 347.755 55.5928C350.256 55.5928 352.283 53.5653 352.283 51.0643C352.283 48.5634 350.256 46.5359 347.755 46.5359Z" fill="#E1EAF1"/>
<path d="M329.641 46.5359C327.141 46.5359 325.113 48.5634 325.113 51.0643C325.113 53.5653 327.141 55.5928 329.641 55.5928C332.142 55.5928 334.17 53.5653 334.17 51.0643C334.17 48.5634 332.142 46.5359 329.641 46.5359Z" fill="#E1EAF1"/>
<path d="M311.528 46.5359C309.027 46.5359 307 48.5634 307 51.0643C307 53.5653 309.027 55.5928 311.528 55.5928C314.029 55.5928 316.057 53.5653 316.057 51.0643C316.057 48.5634 314.029 46.5359 311.528 46.5359Z" fill="#E1EAF1"/>
<path d="M474.552 28.4226C472.051 28.4226 470.023 30.4501 470.023 32.9511C470.023 35.452 472.051 37.4795 474.552 37.4795C477.053 37.4795 479.08 35.452 479.08 32.9511C479.08 30.4501 477.053 28.4226 474.552 28.4226Z" fill="#E1EAF1"/>
<path d="M456.439 28.4226C453.938 28.4226 451.911 30.4501 451.911 32.9511C451.911 35.452 453.938 37.4795 456.439 37.4795C458.94 37.4795 460.968 35.452 460.968 32.9511C460.968 30.4501 458.94 28.4226 456.439 28.4226Z" fill="#E1EAF1"/>
<path d="M438.325 28.4226C435.824 28.4226 433.797 30.4501 433.797 32.9511C433.797 35.452 435.824 37.4795 438.325 37.4795C440.826 37.4795 442.854 35.452 442.854 32.9511C442.854 30.4501 440.826 28.4226 438.325 28.4226Z" fill="#E1EAF1"/>
<path d="M420.212 28.4226C417.711 28.4226 415.683 30.4501 415.683 32.9511C415.683 35.452 417.711 37.4795 420.212 37.4795C422.713 37.4795 424.74 35.452 424.74 32.9511C424.74 30.4501 422.713 28.4226 420.212 28.4226Z" fill="#E1EAF1"/>
<path d="M402.099 28.4226C399.598 28.4226 397.57 30.4501 397.57 32.9511C397.57 35.452 399.598 37.4795 402.099 37.4795C404.6 37.4795 406.627 35.452 406.627 32.9511C406.627 30.4501 404.6 28.4226 402.099 28.4226Z" fill="#E1EAF1"/>
<path d="M383.981 28.4226C381.48 28.4226 379.453 30.4501 379.453 32.9511C379.453 35.452 381.48 37.4795 383.981 37.4795C386.482 37.4795 388.51 35.452 388.51 32.9511C388.51 30.4501 386.482 28.4226 383.981 28.4226Z" fill="#E1EAF1"/>
<path d="M365.868 28.4226C363.367 28.4226 361.34 30.4501 361.34 32.9511C361.34 35.452 363.367 37.4795 365.868 37.4795C368.369 37.4795 370.396 35.452 370.396 32.9511C370.396 30.4501 368.369 28.4226 365.868 28.4226Z" fill="#E1EAF1"/>
<path d="M347.755 28.4226C345.254 28.4226 343.226 30.4501 343.226 32.9511C343.226 35.452 345.254 37.4795 347.755 37.4795C350.256 37.4795 352.283 35.452 352.283 32.9511C352.283 30.4501 350.256 28.4226 347.755 28.4226Z" fill="#E1EAF1"/>
<path d="M329.641 28.4226C327.141 28.4226 325.113 30.4501 325.113 32.9511C325.113 35.452 327.141 37.4795 329.641 37.4795C332.142 37.4795 334.17 35.452 334.17 32.9511C334.17 30.4501 332.142 28.4226 329.641 28.4226Z" fill="#E1EAF1"/>
<path d="M311.528 28.4226C309.027 28.4226 307 30.4501 307 32.9511C307 35.452 309.027 37.4795 311.528 37.4795C314.029 37.4795 316.057 35.452 316.057 32.9511C316.057 30.4501 314.029 28.4226 311.528 28.4226Z" fill="#E1EAF1"/>
<path d="M474.552 10.3094C472.051 10.3094 470.023 12.3368 470.023 14.8378C470.023 17.3388 472.051 19.3662 474.552 19.3662C477.053 19.3662 479.08 17.3388 479.08 14.8378C479.08 12.3368 477.053 10.3094 474.552 10.3094Z" fill="#E1EAF1"/>
<path d="M456.439 10.3094C453.938 10.3094 451.911 12.3368 451.911 14.8378C451.911 17.3388 453.938 19.3662 456.439 19.3662C458.94 19.3662 460.968 17.3388 460.968 14.8378C460.968 12.3368 458.94 10.3094 456.439 10.3094Z" fill="#E1EAF1"/>
<path d="M438.325 10.3094C435.824 10.3094 433.797 12.3368 433.797 14.8378C433.797 17.3388 435.824 19.3662 438.325 19.3662C440.826 19.3662 442.854 17.3388 442.854 14.8378C442.854 12.3368 440.826 10.3094 438.325 10.3094Z" fill="#E1EAF1"/>
<path d="M420.212 10.3094C417.711 10.3094 415.683 12.3368 415.683 14.8378C415.683 17.3388 417.711 19.3662 420.212 19.3662C422.713 19.3662 424.74 17.3388 424.74 14.8378C424.74 12.3368 422.713 10.3094 420.212 10.3094Z" fill="#E1EAF1"/>
<path d="M402.099 10.3094C399.598 10.3094 397.57 12.3368 397.57 14.8378C397.57 17.3388 399.598 19.3662 402.099 19.3662C404.6 19.3662 406.627 17.3388 406.627 14.8378C406.627 12.3368 404.6 10.3094 402.099 10.3094Z" fill="#E1EAF1"/>
<path d="M383.981 10.3094C381.48 10.3094 379.453 12.3368 379.453 14.8378C379.453 17.3388 381.48 19.3662 383.981 19.3662C386.482 19.3662 388.51 17.3388 388.51 14.8378C388.51 12.3368 386.482 10.3094 383.981 10.3094Z" fill="#E1EAF1"/>
<path d="M365.868 10.3094C363.367 10.3094 361.34 12.3368 361.34 14.8378C361.34 17.3388 363.367 19.3662 365.868 19.3662C368.369 19.3662 370.396 17.3388 370.396 14.8378C370.396 12.3368 368.369 10.3094 365.868 10.3094Z" fill="#E1EAF1"/>
<path d="M347.755 10.3094C345.254 10.3094 343.226 12.3368 343.226 14.8378C343.226 17.3388 345.254 19.3662 347.755 19.3662C350.256 19.3662 352.283 17.3388 352.283 14.8378C352.283 12.3368 350.256 10.3094 347.755 10.3094Z" fill="#E1EAF1"/>
<path d="M329.641 10.3094C327.141 10.3094 325.113 12.3368 325.113 14.8378C325.113 17.3388 327.141 19.3662 329.641 19.3662C332.142 19.3662 334.17 17.3388 334.17 14.8378C334.17 12.3368 332.142 10.3094 329.641 10.3094Z" fill="#E1EAF1"/>
<path d="M311.528 10.3094C309.027 10.3094 307 12.3368 307 14.8378C307 17.3388 309.027 19.3662 311.528 19.3662C314.029 19.3662 316.057 17.3388 316.057 14.8378C316.057 12.3368 314.029 10.3094 311.528 10.3094Z" fill="#E1EAF1"/>
</g>
<ellipse cx="379.283" cy="406.689" rx="120.283" ry="77.6887" fill="#218207" fill-opacity="0.5"/>
<path d="M141.016 481.195C141.016 486.658 136.587 491.086 131.125 491.086C125.662 491.086 121.234 486.658 121.234 481.195V467.656C121.234 462.194 125.662 457.765 131.125 457.765C136.587 457.765 141.016 462.194 141.016 467.656V481.195Z" fill="#9E97F3" fill-opacity="0.6"/>
<path d="M111.863 465.505C111.863 467.231 110.465 468.629 108.74 468.629C107.015 468.629 105.616 467.231 105.616 465.505V447.124C105.616 445.399 107.015 444.001 108.74 444.001C110.465 444.001 111.863 445.399 111.863 447.124V465.505Z" fill="#9E97F3" fill-opacity="0.6"/>
<path d="M114.987 493.259C114.987 500.06 109.474 505.573 102.673 505.573H102.314C95.5132 505.573 90 500.06 90 493.259C90 486.458 95.5132 480.945 102.314 480.945H102.673C109.474 480.945 114.987 486.458 114.987 493.259Z" fill="#9E97F3" fill-opacity="0.6"/>
<path d="M0 24.3781C0 18.9156 4.42827 14.4873 9.89082 14.4873C15.3534 14.4873 19.7816 18.9156 19.7816 24.3781V37.9171C19.7816 43.3797 15.3534 47.8079 9.89082 47.8079C4.42827 47.8079 0 43.3797 0 37.9171V24.3781Z" fill="#9E97F3" fill-opacity="0.6"/>
<path d="M29.1523 40.0668C29.1523 38.3418 30.5507 36.9434 32.2758 36.9434C34.0008 36.9434 35.3992 38.3418 35.3992 40.0668V58.4482C35.3992 60.1733 34.0008 61.5717 32.2758 61.5717C30.5507 61.5717 29.1523 60.1733 29.1523 58.4482V40.0668Z" fill="#9E97F3" fill-opacity="0.6"/>
<path d="M26.0283 12.3141C26.0283 5.51323 31.5416 0 38.3425 0H38.7015C45.5024 0 51.0157 5.51323 51.0157 12.3141C51.0157 19.1151 45.5024 24.6283 38.7015 24.6283H38.3425C31.5416 24.6283 26.0283 19.1151 26.0283 12.3141Z" fill="#9E97F3" fill-opacity="0.6"/>
<defs>
<clipPath id="clip0_303_2806">
<rect width="173" height="173" fill="white" transform="translate(307 10.3096)"/>
</clipPath>
</defs>
</svg>
