<svg width="580" height="115" viewBox="0 0 580 115" fill="none" xmlns="http://www.w3.org/2000/svg">
<g clip-path="url(#clip0_645_1968)">
<path d="M590.512 107L355 99.7603L14 89.1723V18.4207L355 5.94221L590.512 4.00005C595.391 3.99352 600.221 4.65409 604.714 5.94221C609.05 7.18293 612.989 8.98205 616.313 11.2397C619.645 13.4915 622.301 16.16 624.132 19.0974C626.034 22.1415 627.009 25.4144 627 28.72V82.28C627.009 85.5856 626.034 88.8585 624.132 91.9026C622.301 94.84 619.645 97.5085 616.313 99.7603C612.989 102.018 609.05 103.817 604.714 105.058C600.221 106.346 595.391 107.007 590.512 107Z" fill="#7BFF7C"/>
</g>
<defs>
<clipPath id="clip0_645_1968">
<rect width="580" height="114" fill="white" transform="matrix(-1 0 0 1 580 0)"/>
</clipPath>
</defs>
</svg>
