<svg width="706" height="273" viewBox="0 0 706 273" fill="none" xmlns="http://www.w3.org/2000/svg">
<path d="M430.238 24.2532C464.573 24.2532 492.407 60.633 492.407 105.51C492.407 105.51 464.573 105.509 430.238 105.509C395.904 105.509 368.07 105.51 368.07 105.51C368.07 60.633 395.904 24.2532 430.238 24.2532Z" fill="#FAFF00" fill-opacity="0.5"/>
<g clip-path="url(#clip0_390_2559)">
<path d="M522.299 169.782C520.753 171.23 520.767 173.592 522.331 175.057C523.894 176.521 526.414 176.535 527.96 175.086C529.505 173.638 529.491 171.276 527.928 169.812C526.365 168.347 523.845 168.334 522.299 169.782Z" fill="#D5435D" fill-opacity="0.6"/>
<path d="M511.105 180.271C509.559 181.72 509.573 184.081 511.136 185.546C512.699 187.011 515.22 187.024 516.765 185.576C518.311 184.127 518.297 181.766 516.734 180.301C515.17 178.836 512.65 178.823 511.105 180.271Z" fill="#D5435D" fill-opacity="0.6"/>
<path d="M499.909 190.762C498.364 192.21 498.378 194.571 499.941 196.036C501.504 197.501 504.024 197.514 505.57 196.066C507.116 194.617 507.102 192.256 505.539 190.791C503.975 189.326 501.455 189.313 499.909 190.762Z" fill="#D5435D" fill-opacity="0.6"/>
<path d="M488.715 201.252C487.169 202.7 487.183 205.062 488.747 206.526C490.31 207.991 492.83 208.004 494.376 206.556C495.921 205.108 495.907 202.746 494.344 201.281C492.781 199.817 490.261 199.803 488.715 201.252Z" fill="#D5435D" fill-opacity="0.6"/>
<path d="M477.52 211.741C475.975 213.189 475.989 215.551 477.552 217.016C479.115 218.48 481.635 218.494 483.181 217.045C484.727 215.597 484.713 213.235 483.149 211.771C481.586 210.306 479.066 210.293 477.52 211.741Z" fill="#D5435D" fill-opacity="0.6"/>
<path d="M466.323 222.233C464.777 223.682 464.792 226.043 466.355 227.508C467.918 228.973 470.438 228.986 471.984 227.538C473.53 226.089 473.515 223.728 471.952 222.263C470.389 220.798 467.869 220.785 466.323 222.233Z" fill="#D5435D" fill-opacity="0.6"/>
<path d="M455.128 232.723C453.583 234.172 453.597 236.533 455.16 237.998C456.723 239.463 459.244 239.476 460.789 238.028C462.335 236.579 462.321 234.218 460.758 232.753C459.194 231.288 456.674 231.275 455.128 232.723Z" fill="#D5435D" fill-opacity="0.6"/>
<path d="M443.934 243.213C442.388 244.661 442.402 247.023 443.965 248.487C445.529 249.952 448.049 249.965 449.595 248.517C451.14 247.069 451.126 244.707 449.563 243.242C448 241.778 445.479 241.764 443.934 243.213Z" fill="#D5435D" fill-opacity="0.6"/>
<path d="M432.739 253.703C431.193 255.151 431.208 257.513 432.771 258.978C434.334 260.442 436.854 260.456 438.4 259.007C439.946 257.559 439.931 255.197 438.368 253.733C436.805 252.268 434.285 252.255 432.739 253.703Z" fill="#D5435D" fill-opacity="0.6"/>
<path d="M421.544 264.192C419.999 265.641 420.013 268.002 421.576 269.467C423.139 270.932 425.66 270.945 427.205 269.497C428.751 268.048 428.737 265.687 427.174 264.222C425.61 262.757 423.09 262.744 421.544 264.192Z" fill="#D5435D" fill-opacity="0.6"/>
<path d="M510.978 159.174C509.432 160.622 509.446 162.984 511.009 164.448C512.573 165.913 515.093 165.926 516.638 164.478C518.184 163.03 518.17 160.668 516.607 159.203C515.044 157.739 512.523 157.725 510.978 159.174Z" fill="#D5435D" fill-opacity="0.6"/>
<path d="M499.783 169.663C498.237 171.111 498.252 173.473 499.815 174.938C501.378 176.402 503.898 176.416 505.444 174.967C506.99 173.519 506.975 171.157 505.412 169.693C503.849 168.228 501.329 168.215 499.783 169.663Z" fill="#D5435D" fill-opacity="0.6"/>
<path d="M488.588 180.153C487.042 181.601 487.057 183.963 488.62 185.428C490.183 186.893 492.703 186.906 494.249 185.457C495.795 184.009 495.78 181.648 494.217 180.183C492.654 178.718 490.134 178.705 488.588 180.153Z" fill="#D5435D" fill-opacity="0.6"/>
<path d="M477.394 190.643C475.848 192.092 475.862 194.453 477.425 195.918C478.988 197.383 481.509 197.396 483.054 195.948C484.6 194.499 484.586 192.138 483.023 190.673C481.46 189.208 478.939 189.195 477.394 190.643Z" fill="#D5435D" fill-opacity="0.6"/>
<path d="M466.199 201.133C464.653 202.581 464.667 204.943 466.231 206.407C467.794 207.872 470.314 207.885 471.86 206.437C473.405 204.989 473.391 202.627 471.828 201.162C470.265 199.698 467.745 199.684 466.199 201.133Z" fill="#D5435D" fill-opacity="0.6"/>
<path d="M455.002 211.625C453.456 213.073 453.47 215.435 455.034 216.899C456.597 218.364 459.117 218.378 460.663 216.929C462.208 215.481 462.194 213.119 460.631 211.654C459.068 210.19 456.548 210.176 455.002 211.625Z" fill="#D5435D" fill-opacity="0.6"/>
<path d="M443.807 222.115C442.261 223.563 442.276 225.925 443.839 227.39C445.402 228.854 447.922 228.868 449.468 227.419C451.014 225.971 450.999 223.609 449.436 222.145C447.873 220.68 445.353 220.667 443.807 222.115Z" fill="#D5435D" fill-opacity="0.6"/>
<path d="M432.613 232.604C431.067 234.053 431.081 236.414 432.644 237.879C434.207 239.344 436.728 239.357 438.273 237.909C439.819 236.46 439.805 234.099 438.242 232.634C436.678 231.169 434.158 231.156 432.613 232.604Z" fill="#D5435D" fill-opacity="0.6"/>
<path d="M421.418 243.095C419.872 244.543 419.886 246.904 421.449 248.369C423.013 249.834 425.533 249.847 427.079 248.399C428.624 246.951 428.61 244.589 427.047 243.124C425.484 241.659 422.963 241.646 421.418 243.095Z" fill="#D5435D" fill-opacity="0.6"/>
<path d="M410.223 253.584C408.677 255.032 408.692 257.394 410.255 258.858C411.818 260.323 414.338 260.337 415.884 258.888C417.43 257.44 417.415 255.078 415.852 253.613C414.289 252.149 411.769 252.135 410.223 253.584Z" fill="#D5435D" fill-opacity="0.6"/>
<path d="M499.656 148.565C498.111 150.014 498.125 152.375 499.688 153.84C501.251 155.305 503.771 155.318 505.317 153.87C506.863 152.421 506.849 150.06 505.285 148.595C503.722 147.13 501.202 147.117 499.656 148.565Z" fill="#D5435D" fill-opacity="0.6"/>
<path d="M488.462 159.054C486.916 160.503 486.93 162.864 488.493 164.329C490.057 165.794 492.577 165.807 494.123 164.359C495.668 162.91 495.654 160.549 494.091 159.084C492.528 157.619 490.008 157.606 488.462 159.054Z" fill="#D5435D" fill-opacity="0.6"/>
<path d="M477.267 169.545C475.721 170.993 475.735 173.355 477.298 174.819C478.862 176.284 481.382 176.297 482.927 174.849C484.473 173.401 484.459 171.039 482.896 169.574C481.333 168.11 478.812 168.096 477.267 169.545Z" fill="#D5435D" fill-opacity="0.6"/>
<path d="M466.072 180.035C464.527 181.483 464.541 183.845 466.104 185.31C467.667 186.774 470.187 186.788 471.733 185.339C473.279 183.891 473.265 181.529 471.701 180.065C470.138 178.6 467.618 178.587 466.072 180.035Z" fill="#D5435D" fill-opacity="0.6"/>
<path d="M454.878 190.524C453.332 191.973 453.346 194.334 454.909 195.799C456.472 197.264 458.993 197.277 460.538 195.829C462.084 194.38 462.07 192.019 460.507 190.554C458.944 189.089 456.423 189.076 454.878 190.524Z" fill="#D5435D" fill-opacity="0.6"/>
<path d="M443.68 201.016C442.135 202.465 442.149 204.826 443.712 206.291C445.275 207.756 447.796 207.769 449.341 206.321C450.887 204.872 450.873 202.511 449.31 201.046C447.746 199.581 445.226 199.568 443.68 201.016Z" fill="#D5435D" fill-opacity="0.6"/>
<path d="M432.486 211.507C430.94 212.955 430.954 215.317 432.517 216.781C434.081 218.246 436.601 218.259 438.147 216.811C439.692 215.363 439.678 213.001 438.115 211.536C436.552 210.072 434.031 210.058 432.486 211.507Z" fill="#D5435D" fill-opacity="0.6"/>
<path d="M421.291 221.996C419.745 223.444 419.76 225.806 421.323 227.271C422.886 228.735 425.406 228.749 426.952 227.3C428.498 225.852 428.483 223.49 426.92 222.026C425.357 220.561 422.837 220.548 421.291 221.996Z" fill="#D5435D" fill-opacity="0.6"/>
<path d="M410.096 232.486C408.551 233.935 408.565 236.296 410.128 237.761C411.691 239.226 414.212 239.239 415.757 237.79C417.303 236.342 417.289 233.981 415.726 232.516C414.162 231.051 411.642 231.038 410.096 232.486Z" fill="#D5435D" fill-opacity="0.6"/>
<path d="M398.902 242.975C397.356 244.424 397.37 246.785 398.933 248.25C400.497 249.715 403.017 249.728 404.563 248.28C406.108 246.831 406.094 244.47 404.531 243.005C402.968 241.54 400.448 241.527 398.902 242.975Z" fill="#D5435D" fill-opacity="0.6"/>
<path d="M488.334 137.956C486.788 139.404 486.802 141.766 488.366 143.231C489.929 144.695 492.449 144.709 493.995 143.26C495.54 141.812 495.526 139.45 493.963 137.986C492.4 136.521 489.88 136.507 488.334 137.956Z" fill="#D5435D" fill-opacity="0.6"/>
<path d="M477.139 148.445C475.594 149.893 475.608 152.255 477.171 153.72C478.734 155.185 481.255 155.198 482.8 153.749C484.346 152.301 484.332 149.94 482.769 148.475C481.205 147.01 478.685 146.997 477.139 148.445Z" fill="#D5435D" fill-opacity="0.6"/>
<path d="M465.944 158.935C464.399 160.384 464.413 162.745 465.976 164.21C467.539 165.675 470.059 165.688 471.605 164.24C473.151 162.791 473.137 160.43 471.573 158.965C470.01 157.5 467.49 157.487 465.944 158.935Z" fill="#D5435D" fill-opacity="0.6"/>
<path d="M454.75 169.426C453.204 170.874 453.218 173.236 454.781 174.7C456.345 176.165 458.865 176.178 460.411 174.73C461.956 173.282 461.942 170.92 460.379 169.455C458.816 167.99 456.296 167.977 454.75 169.426Z" fill="#D5435D" fill-opacity="0.6"/>
<path d="M443.555 179.915C442.009 181.363 442.024 183.725 443.587 185.19C445.15 186.654 447.67 186.668 449.216 185.219C450.762 183.771 450.748 181.409 449.184 179.945C447.621 178.48 445.101 178.466 443.555 179.915Z" fill="#D5435D" fill-opacity="0.6"/>
<path d="M432.358 190.407C430.812 191.855 430.827 194.217 432.39 195.682C433.953 197.146 436.473 197.16 438.019 195.711C439.565 194.263 439.55 191.901 437.987 190.437C436.424 188.972 433.904 188.959 432.358 190.407Z" fill="#D5435D" fill-opacity="0.6"/>
<path d="M421.163 200.897C419.618 202.346 419.632 204.707 421.195 206.172C422.758 207.637 425.278 207.65 426.824 206.202C428.37 204.753 428.356 202.392 426.793 200.927C425.229 199.462 422.709 199.449 421.163 200.897Z" fill="#D5435D" fill-opacity="0.6"/>
<path d="M409.969 211.387C408.423 212.835 408.437 215.196 410 216.661C411.564 218.126 414.084 218.139 415.63 216.691C417.175 215.242 417.161 212.881 415.598 211.416C414.035 209.951 411.514 209.938 409.969 211.387Z" fill="#D5435D" fill-opacity="0.6"/>
<path d="M398.774 221.877C397.228 223.325 397.243 225.687 398.806 227.151C400.369 228.616 402.889 228.629 404.435 227.181C405.981 225.733 405.966 223.371 404.403 221.906C402.84 220.442 400.32 220.428 398.774 221.877Z" fill="#D5435D" fill-opacity="0.6"/>
<path d="M387.579 232.366C386.034 233.814 386.048 236.176 387.611 237.641C389.174 239.105 391.695 239.119 393.24 237.67C394.786 236.222 394.772 233.86 393.209 232.396C391.645 230.931 389.125 230.918 387.579 232.366Z" fill="#D5435D" fill-opacity="0.6"/>
<path d="M477.013 127.347C475.467 128.796 475.481 131.157 477.044 132.622C478.607 134.087 481.128 134.1 482.673 132.652C484.219 131.203 484.205 128.842 482.642 127.377C481.079 125.912 478.558 125.899 477.013 127.347Z" fill="#D5435D" fill-opacity="0.6"/>
<path d="M465.818 137.837C464.272 139.285 464.287 141.647 465.85 143.111C467.413 144.576 469.933 144.589 471.479 143.141C473.025 141.693 473.01 139.331 471.447 137.866C469.884 136.402 467.364 136.388 465.818 137.837Z" fill="#D5435D" fill-opacity="0.6"/>
<path d="M454.623 148.327C453.077 149.775 453.091 152.137 454.655 153.602C456.218 155.066 458.738 155.08 460.284 153.631C461.829 152.183 461.815 149.821 460.252 148.357C458.689 146.892 456.169 146.879 454.623 148.327Z" fill="#D5435D" fill-opacity="0.6"/>
<path d="M443.428 158.816C441.883 160.265 441.897 162.626 443.46 164.091C445.023 165.556 447.544 165.569 449.089 164.121C450.635 162.672 450.621 160.311 449.058 158.846C447.494 157.381 444.974 157.368 443.428 158.816Z" fill="#D5435D" fill-opacity="0.6"/>
<path d="M432.234 169.306C430.688 170.755 430.702 173.116 432.265 174.581C433.829 176.046 436.349 176.059 437.895 174.611C439.44 173.162 439.426 170.801 437.863 169.336C436.3 167.871 433.78 167.858 432.234 169.306Z" fill="#D5435D" fill-opacity="0.6"/>
<path d="M421.037 179.799C419.491 181.247 419.505 183.609 421.068 185.073C422.632 186.538 425.152 186.551 426.698 185.103C428.243 183.655 428.229 181.293 426.666 179.828C425.103 178.364 422.582 178.35 421.037 179.799Z" fill="#D5435D" fill-opacity="0.6"/>
<path d="M409.842 190.288C408.296 191.736 408.311 194.098 409.874 195.563C411.437 197.027 413.957 197.041 415.503 195.592C417.049 194.144 417.034 191.782 415.471 190.318C413.908 188.853 411.388 188.84 409.842 190.288Z" fill="#D5435D" fill-opacity="0.6"/>
<path d="M398.647 200.778C397.102 202.226 397.116 204.588 398.679 206.053C400.242 207.518 402.762 207.531 404.308 206.082C405.854 204.634 405.84 202.273 404.276 200.808C402.713 199.343 400.193 199.33 398.647 200.778Z" fill="#D5435D" fill-opacity="0.6"/>
<path d="M387.453 211.268C385.907 212.717 385.921 215.078 387.484 216.543C389.048 218.008 391.568 218.021 393.113 216.573C394.659 215.124 394.645 212.763 393.082 211.298C391.519 209.833 388.998 209.82 387.453 211.268Z" fill="#D5435D" fill-opacity="0.6"/>
<path d="M376.258 221.758C374.712 223.206 374.727 225.568 376.29 227.032C377.853 228.497 380.373 228.51 381.919 227.062C383.465 225.614 383.45 223.252 381.887 221.787C380.324 220.323 377.804 220.309 376.258 221.758Z" fill="#D5435D" fill-opacity="0.6"/>
<path d="M465.691 116.739C464.146 118.187 464.16 120.549 465.723 122.014C467.286 123.478 469.806 123.492 471.352 122.043C472.898 120.595 472.884 118.233 471.32 116.769C469.757 115.304 467.237 115.291 465.691 116.739Z" fill="#D5435D" fill-opacity="0.6"/>
<path d="M454.497 127.228C452.951 128.677 452.965 131.038 454.528 132.503C456.092 133.968 458.612 133.981 460.158 132.533C461.703 131.084 461.689 128.723 460.126 127.258C458.563 125.793 456.042 125.78 454.497 127.228Z" fill="#D5435D" fill-opacity="0.6"/>
<path d="M443.302 137.719C441.756 139.167 441.77 141.528 443.333 142.993C444.896 144.458 447.417 144.471 448.962 143.023C450.508 141.575 450.494 139.213 448.931 137.748C447.368 136.283 444.847 136.27 443.302 137.719Z" fill="#D5435D" fill-opacity="0.6"/>
<path d="M432.107 148.208C430.561 149.656 430.576 152.018 432.139 153.482C433.702 154.947 436.222 154.961 437.768 153.512C439.314 152.064 439.299 149.702 437.736 148.237C436.173 146.773 433.653 146.759 432.107 148.208Z" fill="#D5435D" fill-opacity="0.6"/>
<path d="M420.913 158.698C419.367 160.146 419.381 162.508 420.944 163.973C422.507 165.437 425.028 165.451 426.573 164.002C428.119 162.554 428.105 160.192 426.542 158.728C424.978 157.263 422.458 157.25 420.913 158.698Z" fill="#D5435D" fill-opacity="0.6"/>
<path d="M409.715 169.19C408.17 170.639 408.184 173 409.747 174.465C411.31 175.93 413.831 175.943 415.376 174.495C416.922 173.046 416.908 170.685 415.345 169.22C413.781 167.755 411.261 167.742 409.715 169.19Z" fill="#D5435D" fill-opacity="0.6"/>
<path d="M398.521 179.679C396.975 181.128 396.989 183.489 398.552 184.954C400.116 186.419 402.636 186.432 404.182 184.984C405.727 183.535 405.713 181.174 404.15 179.709C402.587 178.244 400.066 178.231 398.521 179.679Z" fill="#D5435D" fill-opacity="0.6"/>
<path d="M387.326 190.17C385.78 191.618 385.795 193.98 387.358 195.444C388.921 196.909 391.441 196.922 392.987 195.474C394.533 194.026 394.518 191.664 392.955 190.199C391.392 188.735 388.872 188.721 387.326 190.17Z" fill="#D5435D" fill-opacity="0.6"/>
<path d="M376.131 200.659C374.586 202.107 374.6 204.469 376.163 205.934C377.726 207.398 380.246 207.412 381.792 205.963C383.338 204.515 383.324 202.153 381.76 200.689C380.197 199.224 377.677 199.211 376.131 200.659Z" fill="#D5435D" fill-opacity="0.6"/>
<path d="M364.937 211.149C363.391 212.598 363.405 214.959 364.968 216.424C366.532 217.889 369.052 217.902 370.598 216.454C372.143 215.005 372.129 212.644 370.566 211.179C369.003 209.714 366.482 209.701 364.937 211.149Z" fill="#D5435D" fill-opacity="0.6"/>
<path d="M454.37 106.131C452.824 107.579 452.838 109.941 454.402 111.405C455.965 112.87 458.485 112.883 460.031 111.435C461.576 109.987 461.562 107.625 459.999 106.16C458.436 104.696 455.916 104.682 454.37 106.131Z" fill="#D5435D" fill-opacity="0.6"/>
<path d="M443.175 116.62C441.63 118.068 441.644 120.43 443.207 121.895C444.77 123.359 447.291 123.373 448.836 121.924C450.382 120.476 450.368 118.114 448.805 116.65C447.241 115.185 444.721 115.172 443.175 116.62Z" fill="#D5435D" fill-opacity="0.6"/>
<path d="M431.98 127.11C430.435 128.559 430.449 130.92 432.012 132.385C433.575 133.85 436.095 133.863 437.641 132.415C439.187 130.966 439.173 128.605 437.609 127.14C436.046 125.675 433.526 125.662 431.98 127.11Z" fill="#D5435D" fill-opacity="0.6"/>
<path d="M420.786 137.599C419.24 139.048 419.254 141.409 420.817 142.874C422.381 144.339 424.901 144.352 426.447 142.904C427.992 141.455 427.978 139.094 426.415 137.629C424.852 136.164 422.332 136.151 420.786 137.599Z" fill="#D5435D" fill-opacity="0.6"/>
<path d="M409.591 148.09C408.046 149.538 408.06 151.9 409.623 153.364C411.186 154.829 413.706 154.842 415.252 153.394C416.798 151.946 416.784 149.584 415.22 148.119C413.657 146.655 411.137 146.641 409.591 148.09Z" fill="#D5435D" fill-opacity="0.6"/>
<path d="M398.394 158.582C396.848 160.03 396.863 162.392 398.426 163.857C399.989 165.321 402.509 165.335 404.055 163.886C405.601 162.438 405.586 160.076 404.023 158.611C402.46 157.147 399.94 157.133 398.394 158.582Z" fill="#D5435D" fill-opacity="0.6"/>
<path d="M387.199 169.071C385.654 170.519 385.668 172.881 387.231 174.346C388.794 175.811 391.315 175.824 392.86 174.375C394.406 172.927 394.392 170.566 392.829 169.101C391.265 167.636 388.745 167.623 387.199 169.071Z" fill="#D5435D" fill-opacity="0.6"/>
<path d="M376.005 179.561C374.459 181.01 374.473 183.371 376.036 184.836C377.6 186.301 380.12 186.314 381.666 184.866C383.211 183.417 383.197 181.056 381.634 179.591C380.071 178.126 377.55 178.113 376.005 179.561Z" fill="#D5435D" fill-opacity="0.6"/>
<path d="M364.81 190.051C363.264 191.499 363.279 193.861 364.842 195.325C366.405 196.79 368.925 196.803 370.471 195.355C372.017 193.907 372.002 191.545 370.439 190.08C368.876 188.615 366.356 188.602 364.81 190.051Z" fill="#D5435D" fill-opacity="0.6"/>
<path d="M353.615 200.541C352.07 201.989 352.084 204.351 353.647 205.816C355.21 207.28 357.731 207.294 359.276 205.845C360.822 204.397 360.808 202.035 359.245 200.57C357.681 199.106 355.161 199.092 353.615 200.541Z" fill="#D5435D" fill-opacity="0.6"/>
<path d="M443.047 95.5203C441.502 96.9687 441.516 99.3302 443.079 100.795C444.642 102.26 447.163 102.273 448.708 100.825C450.254 99.3763 450.24 97.0147 448.677 95.55C447.113 94.0852 444.593 94.0719 443.047 95.5203Z" fill="#D5435D" fill-opacity="0.6"/>
<path d="M431.853 106.011C430.307 107.459 430.321 109.82 431.885 111.285C433.448 112.75 435.968 112.763 437.514 111.315C439.059 109.867 439.045 107.505 437.482 106.04C435.919 104.575 433.399 104.562 431.853 106.011Z" fill="#D5435D" fill-opacity="0.6"/>
<path d="M420.658 116.501C419.112 117.949 419.126 120.311 420.69 121.775C422.253 123.24 424.773 123.253 426.319 121.805C427.864 120.357 427.85 117.995 426.287 116.53C424.724 115.066 422.204 115.052 420.658 116.501Z" fill="#D5435D" fill-opacity="0.6"/>
<path d="M409.463 126.99C407.918 128.438 407.932 130.8 409.495 132.265C411.058 133.729 413.578 133.743 415.124 132.294C416.67 130.846 416.656 128.484 415.092 127.02C413.529 125.555 411.009 125.542 409.463 126.99Z" fill="#D5435D" fill-opacity="0.6"/>
<path d="M398.269 137.48C396.723 138.929 396.737 141.29 398.3 142.755C399.864 144.22 402.384 144.233 403.929 142.785C405.475 141.336 405.461 138.975 403.898 137.51C402.335 136.045 399.814 136.032 398.269 137.48Z" fill="#D5435D" fill-opacity="0.6"/>
<path d="M387.072 147.972C385.526 149.421 385.54 151.782 387.103 153.247C388.666 154.712 391.187 154.725 392.732 153.277C394.278 151.828 394.264 149.467 392.701 148.002C391.138 146.537 388.617 146.524 387.072 147.972Z" fill="#D5435D" fill-opacity="0.6"/>
<path d="M375.877 158.462C374.331 159.91 374.345 162.272 375.909 163.736C377.472 165.201 379.992 165.214 381.538 163.766C383.083 162.318 383.069 159.956 381.506 158.491C379.943 157.027 377.423 157.013 375.877 158.462Z" fill="#D5435D" fill-opacity="0.6"/>
<path d="M364.682 168.952C363.137 170.4 363.151 172.762 364.714 174.227C366.277 175.691 368.797 175.705 370.343 174.256C371.889 172.808 371.875 170.446 370.311 168.982C368.748 167.517 366.228 167.504 364.682 168.952Z" fill="#D5435D" fill-opacity="0.6"/>
<path d="M353.488 179.441C351.942 180.89 351.956 183.251 353.519 184.716C355.082 186.181 357.603 186.194 359.148 184.746C360.694 183.297 360.68 180.936 359.117 179.471C357.554 178.006 355.033 177.993 353.488 179.441Z" fill="#D5435D" fill-opacity="0.6"/>
<path d="M342.293 189.931C340.747 191.38 340.761 193.741 342.325 195.206C343.888 196.671 346.408 196.684 347.954 195.236C349.499 193.787 349.485 191.426 347.922 189.961C346.359 188.496 343.839 188.483 342.293 189.931Z" fill="#D5435D" fill-opacity="0.6"/>
<path d="M431.726 84.9119C430.18 86.3603 430.195 88.7218 431.758 90.1866C433.321 91.6513 435.841 91.6646 437.387 90.2163C438.933 88.7679 438.918 86.4063 437.355 84.9416C435.792 83.4768 433.272 83.4635 431.726 84.9119Z" fill="#D5435D" fill-opacity="0.6"/>
<path d="M420.532 95.4021C418.986 96.8505 419 99.2121 420.563 100.677C422.126 102.142 424.647 102.155 426.192 100.706C427.738 99.2581 427.724 96.8966 426.161 95.4318C424.598 93.9671 422.077 93.9538 420.532 95.4021Z" fill="#D5435D" fill-opacity="0.6"/>
<path d="M409.336 105.892C407.791 107.341 407.805 109.702 409.368 111.167C410.931 112.632 413.452 112.645 414.997 111.197C416.543 109.748 416.529 107.387 414.966 105.922C413.402 104.457 410.882 104.444 409.336 105.892Z" fill="#D5435D" fill-opacity="0.6"/>
<path d="M398.142 116.382C396.596 117.83 396.611 120.192 398.174 121.656C399.737 123.121 402.257 123.134 403.803 121.686C405.349 120.238 405.334 117.876 403.771 116.411C402.208 114.947 399.688 114.933 398.142 116.382Z" fill="#D5435D" fill-opacity="0.6"/>
<path d="M386.947 126.872C385.402 128.32 385.416 130.682 386.979 132.147C388.542 133.611 391.062 133.625 392.608 132.176C394.154 130.728 394.14 128.366 392.577 126.902C391.013 125.437 388.493 125.423 386.947 126.872Z" fill="#D5435D" fill-opacity="0.6"/>
<path d="M375.75 137.363C374.205 138.811 374.219 141.173 375.782 142.638C377.345 144.103 379.865 144.116 381.411 142.667C382.957 141.219 382.943 138.858 381.379 137.393C379.816 135.928 377.296 135.915 375.75 137.363Z" fill="#D5435D" fill-opacity="0.6"/>
<path d="M364.556 147.853C363.01 149.302 363.024 151.663 364.587 153.128C366.15 154.593 368.671 154.606 370.216 153.158C371.762 151.709 371.748 149.348 370.185 147.883C368.622 146.418 366.101 146.405 364.556 147.853Z" fill="#D5435D" fill-opacity="0.6"/>
<path d="M353.361 158.344C351.815 159.792 351.829 162.153 353.393 163.618C354.956 165.083 357.476 165.096 359.022 163.648C360.567 162.2 360.553 159.838 358.99 158.373C357.427 156.908 354.907 156.895 353.361 158.344Z" fill="#D5435D" fill-opacity="0.6"/>
<path d="M342.166 168.833C340.621 170.281 340.635 172.643 342.198 174.107C343.761 175.572 346.281 175.586 347.827 174.137C349.373 172.689 349.359 170.327 347.795 168.862C346.232 167.398 343.712 167.384 342.166 168.833Z" fill="#D5435D" fill-opacity="0.6"/>
<path d="M330.972 179.323C329.426 180.771 329.44 183.133 331.003 184.598C332.566 186.062 335.087 186.076 336.632 184.627C338.178 183.179 338.164 180.817 336.601 179.353C335.038 177.888 332.517 177.875 330.972 179.323Z" fill="#D5435D" fill-opacity="0.6"/>
<path d="M420.405 74.3035C418.859 75.7519 418.873 78.1134 420.436 79.5782C422 81.0429 424.52 81.0562 426.066 79.6079C427.611 78.1595 427.597 75.7979 426.034 74.3332C424.471 72.8684 421.95 72.8551 420.405 74.3035Z" fill="#D5435D" fill-opacity="0.6"/>
<path d="M409.21 84.7937C407.665 86.2421 407.679 88.6037 409.242 90.0684C410.805 91.5332 413.325 91.5465 414.871 90.0981C416.417 88.6497 416.403 86.2882 414.839 84.8234C413.276 83.3587 410.756 83.3454 409.21 84.7937Z" fill="#D5435D" fill-opacity="0.6"/>
<path d="M398.015 95.284C396.47 96.7324 396.484 99.0939 398.047 100.559C399.61 102.023 402.13 102.037 403.676 100.588C405.222 99.14 405.208 96.7784 403.644 95.3136C402.081 93.8489 399.561 93.8356 398.015 95.284Z" fill="#D5435D" fill-opacity="0.6"/>
<path d="M386.821 105.773C385.275 107.222 385.289 109.583 386.852 111.048C388.416 112.513 390.936 112.526 392.481 111.078C394.027 109.629 394.013 107.268 392.45 105.803C390.887 104.338 388.366 104.325 386.821 105.773Z" fill="#D5435D" fill-opacity="0.6"/>
<path d="M375.626 116.263C374.08 117.712 374.095 120.073 375.658 121.538C377.221 123.003 379.741 123.016 381.287 121.568C382.833 120.119 382.818 117.758 381.255 116.293C379.692 114.828 377.172 114.815 375.626 116.263Z" fill="#D5435D" fill-opacity="0.6"/>
<path d="M364.429 126.755C362.883 128.203 362.898 130.565 364.461 132.029C366.024 133.494 368.544 133.507 370.09 132.059C371.636 130.611 371.621 128.249 370.058 126.784C368.495 125.32 365.975 125.306 364.429 126.755Z" fill="#D5435D" fill-opacity="0.6"/>
<path d="M353.234 137.245C351.689 138.693 351.703 141.055 353.266 142.52C354.829 143.984 357.349 143.998 358.895 142.549C360.441 141.101 360.427 138.739 358.863 137.275C357.3 135.81 354.78 135.797 353.234 137.245Z" fill="#D5435D" fill-opacity="0.6"/>
<path d="M342.04 147.735C340.494 149.184 340.508 151.545 342.071 153.01C343.634 154.475 346.155 154.488 347.7 153.04C349.246 151.591 349.232 149.23 347.669 147.765C346.106 146.3 343.585 146.287 342.04 147.735Z" fill="#D5435D" fill-opacity="0.6"/>
<path d="M330.845 158.224C329.299 159.673 329.313 162.034 330.877 163.499C332.44 164.964 334.96 164.977 336.506 163.529C338.051 162.08 338.037 159.719 336.474 158.254C334.911 156.789 332.391 156.776 330.845 158.224Z" fill="#D5435D" fill-opacity="0.6"/>
<path d="M319.65 168.714C318.104 170.162 318.119 172.524 319.682 173.988C321.245 175.453 323.765 175.466 325.311 174.018C326.857 172.57 326.842 170.208 325.279 168.743C323.716 167.279 321.196 167.265 319.65 168.714Z" fill="#D5435D" fill-opacity="0.6"/>
</g>
<g clip-path="url(#clip1_390_2559)">
<path d="M167.552 124.003C165.051 124.003 163.024 125.221 163.024 126.725C163.024 128.228 165.051 129.447 167.552 129.447C170.053 129.447 172.08 128.228 172.08 126.725C172.08 125.221 170.053 124.003 167.552 124.003Z" fill="#E1EAF1"/>
<path d="M149.439 124.003C146.938 124.003 144.911 125.221 144.911 126.725C144.911 128.228 146.938 129.447 149.439 129.447C151.94 129.447 153.967 128.228 153.967 126.725C153.967 125.221 151.94 124.003 149.439 124.003Z" fill="#E1EAF1"/>
<path d="M131.325 124.003C128.824 124.003 126.797 125.221 126.797 126.725C126.797 128.228 128.824 129.447 131.325 129.447C133.826 129.447 135.853 128.228 135.853 126.725C135.853 125.221 133.826 124.003 131.325 124.003Z" fill="#E1EAF1"/>
<path d="M113.212 124.003C110.711 124.003 108.684 125.221 108.684 126.725C108.684 128.228 110.711 129.447 113.212 129.447C115.713 129.447 117.74 128.228 117.74 126.725C117.74 125.221 115.713 124.003 113.212 124.003Z" fill="#E1EAF1"/>
<path d="M95.0988 124.003C92.5978 124.003 90.5704 125.221 90.5704 126.725C90.5704 128.228 92.5978 129.447 95.0988 129.447C97.5998 129.447 99.6272 128.228 99.6272 126.725C99.6272 125.221 97.5998 124.003 95.0988 124.003Z" fill="#E1EAF1"/>
<path d="M76.9816 124.003C74.4806 124.003 72.4531 125.221 72.4531 126.725C72.4531 128.228 74.4806 129.447 76.9816 129.447C79.4826 129.447 81.51 128.228 81.51 126.725C81.51 125.221 79.4826 124.003 76.9816 124.003Z" fill="#E1EAF1"/>
<path d="M58.8683 124.003C56.3673 124.003 54.3399 125.221 54.3399 126.725C54.3399 128.228 56.3673 129.447 58.8683 129.447C61.3693 129.447 63.3967 128.228 63.3967 126.725C63.3967 125.221 61.3693 124.003 58.8683 124.003Z" fill="#E1EAF1"/>
<path d="M40.755 124.003C38.254 124.003 36.2266 125.221 36.2266 126.725C36.2266 128.228 38.254 129.447 40.755 129.447C43.256 129.447 45.2834 128.228 45.2834 126.725C45.2834 125.221 43.256 124.003 40.755 124.003Z" fill="#E1EAF1"/>
<path d="M22.6417 124.003C20.1407 124.003 18.1133 125.221 18.1133 126.725C18.1133 128.228 20.1407 129.447 22.6417 129.447C25.1427 129.447 27.1701 128.228 27.1701 126.725C27.1701 125.221 25.1427 124.003 22.6417 124.003Z" fill="#E1EAF1"/>
<path d="M4.52845 124.003C2.02747 124.003 2.47955e-05 125.221 2.47955e-05 126.725C2.47955e-05 128.228 2.02747 129.447 4.52845 129.447C7.02944 129.447 9.05688 128.228 9.05688 126.725C9.05688 125.221 7.02944 124.003 4.52845 124.003Z" fill="#E1EAF1"/>
<path d="M167.552 113.113C165.051 113.113 163.024 114.332 163.024 115.835C163.024 117.339 165.051 118.558 167.552 118.558C170.053 118.558 172.08 117.339 172.08 115.835C172.08 114.332 170.053 113.113 167.552 113.113Z" fill="#E1EAF1"/>
<path d="M149.439 113.113C146.938 113.113 144.911 114.332 144.911 115.835C144.911 117.339 146.938 118.558 149.439 118.558C151.94 118.558 153.967 117.339 153.967 115.835C153.967 114.332 151.94 113.113 149.439 113.113Z" fill="#E1EAF1"/>
<path d="M131.325 113.113C128.824 113.113 126.797 114.332 126.797 115.835C126.797 117.339 128.824 118.558 131.325 118.558C133.826 118.558 135.853 117.339 135.853 115.835C135.853 114.332 133.826 113.113 131.325 113.113Z" fill="#E1EAF1"/>
<path d="M113.212 113.113C110.711 113.113 108.684 114.332 108.684 115.835C108.684 117.339 110.711 118.558 113.212 118.558C115.713 118.558 117.74 117.339 117.74 115.835C117.74 114.332 115.713 113.113 113.212 113.113Z" fill="#E1EAF1"/>
<path d="M95.0988 113.113C92.5978 113.113 90.5704 114.332 90.5704 115.835C90.5704 117.339 92.5978 118.558 95.0988 118.558C97.5998 118.558 99.6272 117.339 99.6272 115.835C99.6272 114.332 97.5998 113.113 95.0988 113.113Z" fill="#E1EAF1"/>
<path d="M76.9816 113.113C74.4806 113.113 72.4531 114.332 72.4531 115.835C72.4531 117.339 74.4806 118.558 76.9816 118.558C79.4826 118.558 81.51 117.339 81.51 115.835C81.51 114.332 79.4826 113.113 76.9816 113.113Z" fill="#E1EAF1"/>
<path d="M58.8683 113.113C56.3673 113.113 54.3399 114.332 54.3399 115.835C54.3399 117.339 56.3673 118.558 58.8683 118.558C61.3693 118.558 63.3967 117.339 63.3967 115.835C63.3967 114.332 61.3693 113.113 58.8683 113.113Z" fill="#E1EAF1"/>
<path d="M40.755 113.113C38.254 113.113 36.2266 114.332 36.2266 115.835C36.2266 117.339 38.254 118.558 40.755 118.558C43.256 118.558 45.2834 117.339 45.2834 115.835C45.2834 114.332 43.256 113.113 40.755 113.113Z" fill="#E1EAF1"/>
<path d="M22.6417 113.113C20.1407 113.113 18.1133 114.332 18.1133 115.835C18.1133 117.339 20.1407 118.558 22.6417 118.558C25.1427 118.558 27.1701 117.339 27.1701 115.835C27.1701 114.332 25.1427 113.113 22.6417 113.113Z" fill="#E1EAF1"/>
<path d="M4.52845 113.113C2.02747 113.113 2.47955e-05 114.332 2.47955e-05 115.835C2.47955e-05 117.339 2.02747 118.558 4.52845 118.558C7.02944 118.558 9.05688 117.339 9.05688 115.835C9.05688 114.332 7.02944 113.113 4.52845 113.113Z" fill="#E1EAF1"/>
<path d="M167.552 102.224C165.051 102.224 163.024 103.443 163.024 104.947C163.024 106.45 165.051 107.669 167.552 107.669C170.053 107.669 172.08 106.45 172.08 104.947C172.08 103.443 170.053 102.224 167.552 102.224Z" fill="#E1EAF1"/>
<path d="M149.439 102.224C146.938 102.224 144.911 103.443 144.911 104.947C144.911 106.45 146.938 107.669 149.439 107.669C151.94 107.669 153.967 106.45 153.967 104.947C153.967 103.443 151.94 102.224 149.439 102.224Z" fill="#E1EAF1"/>
<path d="M131.325 102.224C128.824 102.224 126.797 103.443 126.797 104.947C126.797 106.45 128.824 107.669 131.325 107.669C133.826 107.669 135.853 106.45 135.853 104.947C135.853 103.443 133.826 102.224 131.325 102.224Z" fill="#E1EAF1"/>
<path d="M113.212 102.224C110.711 102.224 108.684 103.443 108.684 104.947C108.684 106.45 110.711 107.669 113.212 107.669C115.713 107.669 117.74 106.45 117.74 104.947C117.74 103.443 115.713 102.224 113.212 102.224Z" fill="#E1EAF1"/>
<path d="M95.0988 102.224C92.5978 102.224 90.5704 103.443 90.5704 104.947C90.5704 106.45 92.5978 107.669 95.0988 107.669C97.5998 107.669 99.6272 106.45 99.6272 104.947C99.6272 103.443 97.5998 102.224 95.0988 102.224Z" fill="#E1EAF1"/>
<path d="M76.9816 102.224C74.4806 102.224 72.4531 103.443 72.4531 104.947C72.4531 106.45 74.4806 107.669 76.9816 107.669C79.4826 107.669 81.51 106.45 81.51 104.947C81.51 103.443 79.4826 102.224 76.9816 102.224Z" fill="#E1EAF1"/>
<path d="M58.8683 102.224C56.3673 102.224 54.3399 103.443 54.3399 104.947C54.3399 106.45 56.3673 107.669 58.8683 107.669C61.3693 107.669 63.3967 106.45 63.3967 104.947C63.3967 103.443 61.3693 102.224 58.8683 102.224Z" fill="#E1EAF1"/>
<path d="M40.755 102.224C38.254 102.224 36.2266 103.443 36.2266 104.947C36.2266 106.45 38.254 107.669 40.755 107.669C43.256 107.669 45.2834 106.45 45.2834 104.947C45.2834 103.443 43.256 102.224 40.755 102.224Z" fill="#E1EAF1"/>
<path d="M22.6417 102.224C20.1407 102.224 18.1133 103.443 18.1133 104.947C18.1133 106.45 20.1407 107.669 22.6417 107.669C25.1427 107.669 27.1701 106.45 27.1701 104.947C27.1701 103.443 25.1427 102.224 22.6417 102.224Z" fill="#E1EAF1"/>
<path d="M4.52845 102.224C2.02747 102.224 2.47955e-05 103.443 2.47955e-05 104.947C2.47955e-05 106.45 2.02747 107.669 4.52845 107.669C7.02944 107.669 9.05688 106.45 9.05688 104.947C9.05688 103.443 7.02944 102.224 4.52845 102.224Z" fill="#E1EAF1"/>
<path d="M167.552 91.3347C165.051 91.3347 163.024 92.5535 163.024 94.057C163.024 95.5605 165.051 96.7793 167.552 96.7793C170.053 96.7793 172.08 95.5605 172.08 94.057C172.08 92.5535 170.053 91.3347 167.552 91.3347Z" fill="#E1EAF1"/>
<path d="M149.439 91.3347C146.938 91.3347 144.911 92.5535 144.911 94.057C144.911 95.5605 146.938 96.7793 149.439 96.7793C151.94 96.7793 153.967 95.5605 153.967 94.057C153.967 92.5535 151.94 91.3347 149.439 91.3347Z" fill="#E1EAF1"/>
<path d="M131.325 91.3347C128.824 91.3347 126.797 92.5535 126.797 94.057C126.797 95.5605 128.824 96.7793 131.325 96.7793C133.826 96.7793 135.853 95.5605 135.853 94.057C135.853 92.5535 133.826 91.3347 131.325 91.3347Z" fill="#E1EAF1"/>
<path d="M113.212 91.3347C110.711 91.3347 108.684 92.5535 108.684 94.057C108.684 95.5605 110.711 96.7793 113.212 96.7793C115.713 96.7793 117.74 95.5605 117.74 94.057C117.74 92.5535 115.713 91.3347 113.212 91.3347Z" fill="#E1EAF1"/>
<path d="M95.0988 91.3347C92.5978 91.3347 90.5704 92.5535 90.5704 94.057C90.5704 95.5605 92.5978 96.7793 95.0988 96.7793C97.5998 96.7793 99.6272 95.5605 99.6272 94.057C99.6272 92.5535 97.5998 91.3347 95.0988 91.3347Z" fill="#E1EAF1"/>
<path d="M76.9816 91.3347C74.4806 91.3347 72.4531 92.5535 72.4531 94.057C72.4531 95.5605 74.4806 96.7793 76.9816 96.7793C79.4826 96.7793 81.51 95.5605 81.51 94.057C81.51 92.5535 79.4826 91.3347 76.9816 91.3347Z" fill="#E1EAF1"/>
<path d="M58.8683 91.3347C56.3673 91.3347 54.3399 92.5535 54.3399 94.057C54.3399 95.5605 56.3673 96.7793 58.8683 96.7793C61.3693 96.7793 63.3967 95.5605 63.3967 94.057C63.3967 92.5535 61.3693 91.3347 58.8683 91.3347Z" fill="#E1EAF1"/>
<path d="M40.755 91.3347C38.254 91.3347 36.2266 92.5535 36.2266 94.057C36.2266 95.5605 38.254 96.7793 40.755 96.7793C43.256 96.7793 45.2834 95.5605 45.2834 94.057C45.2834 92.5535 43.256 91.3347 40.755 91.3347Z" fill="#E1EAF1"/>
<path d="M22.6417 91.3347C20.1407 91.3347 18.1133 92.5535 18.1133 94.057C18.1133 95.5605 20.1407 96.7793 22.6417 96.7793C25.1427 96.7793 27.1701 95.5605 27.1701 94.057C27.1701 92.5535 25.1427 91.3347 22.6417 91.3347Z" fill="#E1EAF1"/>
<path d="M4.52845 91.3347C2.02747 91.3347 2.47955e-05 92.5535 2.47955e-05 94.057C2.47955e-05 95.5605 2.02747 96.7793 4.52845 96.7793C7.02944 96.7793 9.05688 95.5605 9.05688 94.057C9.05688 92.5535 7.02944 91.3347 4.52845 91.3347Z" fill="#E1EAF1"/>
<path d="M167.552 80.446C165.051 80.446 163.024 81.6648 163.024 83.1683C163.024 84.6718 165.051 85.8906 167.552 85.8906C170.053 85.8906 172.08 84.6718 172.08 83.1683C172.08 81.6648 170.053 80.446 167.552 80.446Z" fill="#E1EAF1"/>
<path d="M149.439 80.446C146.938 80.446 144.911 81.6648 144.911 83.1683C144.911 84.6718 146.938 85.8906 149.439 85.8906C151.94 85.8906 153.967 84.6718 153.967 83.1683C153.967 81.6648 151.94 80.446 149.439 80.446Z" fill="#E1EAF1"/>
<path d="M131.325 80.446C128.824 80.446 126.797 81.6648 126.797 83.1683C126.797 84.6718 128.824 85.8906 131.325 85.8906C133.826 85.8906 135.853 84.6718 135.853 83.1683C135.853 81.6648 133.826 80.446 131.325 80.446Z" fill="#E1EAF1"/>
<path d="M113.212 80.446C110.711 80.446 108.684 81.6648 108.684 83.1683C108.684 84.6718 110.711 85.8906 113.212 85.8906C115.713 85.8906 117.74 84.6718 117.74 83.1683C117.74 81.6648 115.713 80.446 113.212 80.446Z" fill="#E1EAF1"/>
<path d="M95.0988 80.446C92.5978 80.446 90.5704 81.6648 90.5704 83.1683C90.5704 84.6718 92.5978 85.8906 95.0988 85.8906C97.5998 85.8906 99.6272 84.6718 99.6272 83.1683C99.6272 81.6648 97.5998 80.446 95.0988 80.446Z" fill="#E1EAF1"/>
<path d="M76.9816 80.446C74.4806 80.446 72.4531 81.6648 72.4531 83.1683C72.4531 84.6718 74.4806 85.8906 76.9816 85.8906C79.4826 85.8906 81.51 84.6718 81.51 83.1683C81.51 81.6648 79.4826 80.446 76.9816 80.446Z" fill="#E1EAF1"/>
<path d="M58.8683 80.446C56.3673 80.446 54.3399 81.6648 54.3399 83.1683C54.3399 84.6718 56.3673 85.8906 58.8683 85.8906C61.3693 85.8906 63.3967 84.6718 63.3967 83.1683C63.3967 81.6648 61.3693 80.446 58.8683 80.446Z" fill="#E1EAF1"/>
<path d="M40.755 80.446C38.254 80.446 36.2266 81.6648 36.2266 83.1683C36.2266 84.6718 38.254 85.8906 40.755 85.8906C43.256 85.8906 45.2834 84.6718 45.2834 83.1683C45.2834 81.6648 43.256 80.446 40.755 80.446Z" fill="#E1EAF1"/>
<path d="M22.6417 80.446C20.1407 80.446 18.1133 81.6648 18.1133 83.1683C18.1133 84.6718 20.1407 85.8906 22.6417 85.8906C25.1427 85.8906 27.1701 84.6718 27.1701 83.1683C27.1701 81.6648 25.1427 80.446 22.6417 80.446Z" fill="#E1EAF1"/>
<path d="M4.52845 80.446C2.02747 80.446 2.47955e-05 81.6648 2.47955e-05 83.1683C2.47955e-05 84.6718 2.02747 85.8906 4.52845 85.8906C7.02944 85.8906 9.05688 84.6718 9.05688 83.1683C9.05688 81.6648 7.02944 80.446 4.52845 80.446Z" fill="#E1EAF1"/>
<path d="M167.552 69.5564C165.051 69.5564 163.024 70.7752 163.024 72.2787C163.024 73.7822 165.051 75.001 167.552 75.001C170.053 75.001 172.08 73.7822 172.08 72.2787C172.08 70.7752 170.053 69.5564 167.552 69.5564Z" fill="#E1EAF1"/>
<path d="M149.439 69.5564C146.938 69.5564 144.911 70.7752 144.911 72.2787C144.911 73.7822 146.938 75.001 149.439 75.001C151.94 75.001 153.967 73.7822 153.967 72.2787C153.967 70.7752 151.94 69.5564 149.439 69.5564Z" fill="#E1EAF1"/>
<path d="M131.325 69.5564C128.824 69.5564 126.797 70.7752 126.797 72.2787C126.797 73.7822 128.824 75.001 131.325 75.001C133.826 75.001 135.853 73.7822 135.853 72.2787C135.853 70.7752 133.826 69.5564 131.325 69.5564Z" fill="#E1EAF1"/>
<path d="M113.212 69.5564C110.711 69.5564 108.684 70.7752 108.684 72.2787C108.684 73.7822 110.711 75.001 113.212 75.001C115.713 75.001 117.74 73.7822 117.74 72.2787C117.74 70.7752 115.713 69.5564 113.212 69.5564Z" fill="#E1EAF1"/>
<path d="M95.0988 69.5564C92.5978 69.5564 90.5704 70.7752 90.5704 72.2787C90.5704 73.7822 92.5978 75.001 95.0988 75.001C97.5998 75.001 99.6272 73.7822 99.6272 72.2787C99.6272 70.7752 97.5998 69.5564 95.0988 69.5564Z" fill="#E1EAF1"/>
<path d="M76.9816 69.5564C74.4806 69.5564 72.4531 70.7752 72.4531 72.2787C72.4531 73.7822 74.4806 75.001 76.9816 75.001C79.4826 75.001 81.51 73.7822 81.51 72.2787C81.51 70.7752 79.4826 69.5564 76.9816 69.5564Z" fill="#E1EAF1"/>
<path d="M58.8683 69.5564C56.3673 69.5564 54.3399 70.7752 54.3399 72.2787C54.3399 73.7822 56.3673 75.001 58.8683 75.001C61.3693 75.001 63.3967 73.7822 63.3967 72.2787C63.3967 70.7752 61.3693 69.5564 58.8683 69.5564Z" fill="#E1EAF1"/>
<path d="M40.755 69.5564C38.254 69.5564 36.2266 70.7752 36.2266 72.2787C36.2266 73.7822 38.254 75.001 40.755 75.001C43.256 75.001 45.2834 73.7822 45.2834 72.2787C45.2834 70.7752 43.256 69.5564 40.755 69.5564Z" fill="#E1EAF1"/>
<path d="M22.6417 69.5564C20.1407 69.5564 18.1133 70.7752 18.1133 72.2787C18.1133 73.7822 20.1407 75.001 22.6417 75.001C25.1427 75.001 27.1701 73.7822 27.1701 72.2787C27.1701 70.7752 25.1427 69.5564 22.6417 69.5564Z" fill="#E1EAF1"/>
<path d="M4.52845 69.5564C2.02747 69.5564 2.47955e-05 70.7752 2.47955e-05 72.2787C2.47955e-05 73.7822 2.02747 75.001 4.52845 75.001C7.02944 75.001 9.05688 73.7822 9.05688 72.2787C9.05688 70.7752 7.02944 69.5564 4.52845 69.5564Z" fill="#E1EAF1"/>
<path d="M167.552 58.6677C165.051 58.6677 163.024 59.8865 163.024 61.39C163.024 62.8935 165.051 64.1123 167.552 64.1123C170.053 64.1123 172.08 62.8935 172.08 61.39C172.08 59.8865 170.053 58.6677 167.552 58.6677Z" fill="#E1EAF1"/>
<path d="M149.439 58.6677C146.938 58.6677 144.911 59.8865 144.911 61.39C144.911 62.8935 146.938 64.1123 149.439 64.1123C151.94 64.1123 153.967 62.8935 153.967 61.39C153.967 59.8865 151.94 58.6677 149.439 58.6677Z" fill="#E1EAF1"/>
<path d="M131.325 58.6677C128.824 58.6677 126.797 59.8865 126.797 61.39C126.797 62.8935 128.824 64.1123 131.325 64.1123C133.826 64.1123 135.853 62.8935 135.853 61.39C135.853 59.8865 133.826 58.6677 131.325 58.6677Z" fill="#E1EAF1"/>
<path d="M113.212 58.6677C110.711 58.6677 108.684 59.8865 108.684 61.39C108.684 62.8935 110.711 64.1123 113.212 64.1123C115.713 64.1123 117.74 62.8935 117.74 61.39C117.74 59.8865 115.713 58.6677 113.212 58.6677Z" fill="#E1EAF1"/>
<path d="M95.0988 58.6677C92.5978 58.6677 90.5704 59.8865 90.5704 61.39C90.5704 62.8935 92.5978 64.1123 95.0988 64.1123C97.5998 64.1123 99.6272 62.8935 99.6272 61.39C99.6272 59.8865 97.5998 58.6677 95.0988 58.6677Z" fill="#E1EAF1"/>
<path d="M76.9816 58.6677C74.4806 58.6677 72.4531 59.8865 72.4531 61.39C72.4531 62.8935 74.4806 64.1123 76.9816 64.1123C79.4826 64.1123 81.51 62.8935 81.51 61.39C81.51 59.8865 79.4826 58.6677 76.9816 58.6677Z" fill="#E1EAF1"/>
<path d="M58.8683 58.6677C56.3673 58.6677 54.3399 59.8865 54.3399 61.39C54.3399 62.8935 56.3673 64.1123 58.8683 64.1123C61.3693 64.1123 63.3967 62.8935 63.3967 61.39C63.3967 59.8865 61.3693 58.6677 58.8683 58.6677Z" fill="#E1EAF1"/>
<path d="M40.755 58.6677C38.254 58.6677 36.2266 59.8865 36.2266 61.39C36.2266 62.8935 38.254 64.1123 40.755 64.1123C43.256 64.1123 45.2834 62.8935 45.2834 61.39C45.2834 59.8865 43.256 58.6677 40.755 58.6677Z" fill="#E1EAF1"/>
<path d="M22.6417 58.6677C20.1407 58.6677 18.1133 59.8865 18.1133 61.39C18.1133 62.8935 20.1407 64.1123 22.6417 64.1123C25.1427 64.1123 27.1701 62.8935 27.1701 61.39C27.1701 59.8865 25.1427 58.6677 22.6417 58.6677Z" fill="#E1EAF1"/>
<path d="M4.52845 58.6677C2.02747 58.6677 2.47955e-05 59.8865 2.47955e-05 61.39C2.47955e-05 62.8935 2.02747 64.1123 4.52845 64.1123C7.02944 64.1123 9.05688 62.8935 9.05688 61.39C9.05688 59.8865 7.02944 58.6677 4.52845 58.6677Z" fill="#E1EAF1"/>
<path d="M167.552 47.7781C165.051 47.7781 163.024 48.9969 163.024 50.5004C163.024 52.0038 165.051 53.2227 167.552 53.2227C170.053 53.2227 172.08 52.0038 172.08 50.5004C172.08 48.9969 170.053 47.7781 167.552 47.7781Z" fill="#E1EAF1"/>
<path d="M149.439 47.7781C146.938 47.7781 144.911 48.9969 144.911 50.5004C144.911 52.0038 146.938 53.2227 149.439 53.2227C151.94 53.2227 153.967 52.0038 153.967 50.5004C153.967 48.9969 151.94 47.7781 149.439 47.7781Z" fill="#E1EAF1"/>
<path d="M131.325 47.7781C128.824 47.7781 126.797 48.9969 126.797 50.5004C126.797 52.0038 128.824 53.2227 131.325 53.2227C133.826 53.2227 135.853 52.0038 135.853 50.5004C135.853 48.9969 133.826 47.7781 131.325 47.7781Z" fill="#E1EAF1"/>
<path d="M113.212 47.7781C110.711 47.7781 108.684 48.9969 108.684 50.5004C108.684 52.0038 110.711 53.2227 113.212 53.2227C115.713 53.2227 117.74 52.0038 117.74 50.5004C117.74 48.9969 115.713 47.7781 113.212 47.7781Z" fill="#E1EAF1"/>
<path d="M95.0988 47.7781C92.5978 47.7781 90.5704 48.9969 90.5704 50.5004C90.5704 52.0038 92.5978 53.2227 95.0988 53.2227C97.5998 53.2227 99.6272 52.0038 99.6272 50.5004C99.6272 48.9969 97.5998 47.7781 95.0988 47.7781Z" fill="#E1EAF1"/>
<path d="M76.9816 47.7781C74.4806 47.7781 72.4531 48.9969 72.4531 50.5004C72.4531 52.0038 74.4806 53.2227 76.9816 53.2227C79.4826 53.2227 81.51 52.0038 81.51 50.5004C81.51 48.9969 79.4826 47.7781 76.9816 47.7781Z" fill="#E1EAF1"/>
<path d="M58.8683 47.7781C56.3673 47.7781 54.3399 48.9969 54.3399 50.5004C54.3399 52.0038 56.3673 53.2227 58.8683 53.2227C61.3693 53.2227 63.3967 52.0038 63.3967 50.5004C63.3967 48.9969 61.3693 47.7781 58.8683 47.7781Z" fill="#E1EAF1"/>
<path d="M40.755 47.7781C38.254 47.7781 36.2266 48.9969 36.2266 50.5004C36.2266 52.0038 38.254 53.2227 40.755 53.2227C43.256 53.2227 45.2834 52.0038 45.2834 50.5004C45.2834 48.9969 43.256 47.7781 40.755 47.7781Z" fill="#E1EAF1"/>
<path d="M22.6417 47.7781C20.1407 47.7781 18.1133 48.9969 18.1133 50.5004C18.1133 52.0038 20.1407 53.2227 22.6417 53.2227C25.1427 53.2227 27.1701 52.0038 27.1701 50.5004C27.1701 48.9969 25.1427 47.7781 22.6417 47.7781Z" fill="#E1EAF1"/>
<path d="M4.52845 47.7781C2.02747 47.7781 2.47955e-05 48.9969 2.47955e-05 50.5004C2.47955e-05 52.0038 2.02747 53.2227 4.52845 53.2227C7.02944 53.2227 9.05688 52.0038 9.05688 50.5004C9.05688 48.9969 7.02944 47.7781 4.52845 47.7781Z" fill="#E1EAF1"/>
<path d="M167.552 36.8884C165.051 36.8884 163.024 38.1072 163.024 39.6107C163.024 41.1142 165.051 42.333 167.552 42.333C170.053 42.333 172.08 41.1142 172.08 39.6107C172.08 38.1072 170.053 36.8884 167.552 36.8884Z" fill="#E1EAF1"/>
<path d="M149.439 36.8884C146.938 36.8884 144.911 38.1072 144.911 39.6107C144.911 41.1142 146.938 42.333 149.439 42.333C151.94 42.333 153.967 41.1142 153.967 39.6107C153.967 38.1072 151.94 36.8884 149.439 36.8884Z" fill="#E1EAF1"/>
<path d="M131.325 36.8884C128.824 36.8884 126.797 38.1072 126.797 39.6107C126.797 41.1142 128.824 42.333 131.325 42.333C133.826 42.333 135.853 41.1142 135.853 39.6107C135.853 38.1072 133.826 36.8884 131.325 36.8884Z" fill="#E1EAF1"/>
<path d="M113.212 36.8884C110.711 36.8884 108.684 38.1072 108.684 39.6107C108.684 41.1142 110.711 42.333 113.212 42.333C115.713 42.333 117.74 41.1142 117.74 39.6107C117.74 38.1072 115.713 36.8884 113.212 36.8884Z" fill="#E1EAF1"/>
<path d="M95.0988 36.8884C92.5978 36.8884 90.5704 38.1072 90.5704 39.6107C90.5704 41.1142 92.5978 42.333 95.0988 42.333C97.5998 42.333 99.6272 41.1142 99.6272 39.6107C99.6272 38.1072 97.5998 36.8884 95.0988 36.8884Z" fill="#E1EAF1"/>
<path d="M76.9816 36.8884C74.4806 36.8884 72.4531 38.1072 72.4531 39.6107C72.4531 41.1142 74.4806 42.333 76.9816 42.333C79.4826 42.333 81.51 41.1142 81.51 39.6107C81.51 38.1072 79.4826 36.8884 76.9816 36.8884Z" fill="#E1EAF1"/>
<path d="M58.8683 36.8884C56.3673 36.8884 54.3399 38.1072 54.3399 39.6107C54.3399 41.1142 56.3673 42.333 58.8683 42.333C61.3693 42.333 63.3967 41.1142 63.3967 39.6107C63.3967 38.1072 61.3693 36.8884 58.8683 36.8884Z" fill="#E1EAF1"/>
<path d="M40.755 36.8884C38.254 36.8884 36.2266 38.1072 36.2266 39.6107C36.2266 41.1142 38.254 42.333 40.755 42.333C43.256 42.333 45.2834 41.1142 45.2834 39.6107C45.2834 38.1072 43.256 36.8884 40.755 36.8884Z" fill="#E1EAF1"/>
<path d="M22.6417 36.8884C20.1407 36.8884 18.1133 38.1072 18.1133 39.6107C18.1133 41.1142 20.1407 42.333 22.6417 42.333C25.1427 42.333 27.1701 41.1142 27.1701 39.6107C27.1701 38.1072 25.1427 36.8884 22.6417 36.8884Z" fill="#E1EAF1"/>
<path d="M4.52845 36.8884C2.02747 36.8884 2.47955e-05 38.1072 2.47955e-05 39.6107C2.47955e-05 41.1142 2.02747 42.333 4.52845 42.333C7.02944 42.333 9.05688 41.1142 9.05688 39.6107C9.05688 38.1072 7.02944 36.8884 4.52845 36.8884Z" fill="#E1EAF1"/>
<path d="M167.552 25.9997C165.051 25.9997 163.024 27.2186 163.024 28.722C163.024 30.2255 165.051 31.4443 167.552 31.4443C170.053 31.4443 172.08 30.2255 172.08 28.722C172.08 27.2186 170.053 25.9997 167.552 25.9997Z" fill="#E1EAF1"/>
<path d="M149.439 25.9997C146.938 25.9997 144.911 27.2186 144.911 28.722C144.911 30.2255 146.938 31.4443 149.439 31.4443C151.94 31.4443 153.967 30.2255 153.967 28.722C153.967 27.2186 151.94 25.9997 149.439 25.9997Z" fill="#E1EAF1"/>
<path d="M131.325 25.9997C128.824 25.9997 126.797 27.2186 126.797 28.722C126.797 30.2255 128.824 31.4443 131.325 31.4443C133.826 31.4443 135.853 30.2255 135.853 28.722C135.853 27.2186 133.826 25.9997 131.325 25.9997Z" fill="#E1EAF1"/>
<path d="M113.212 25.9997C110.711 25.9997 108.684 27.2186 108.684 28.722C108.684 30.2255 110.711 31.4443 113.212 31.4443C115.713 31.4443 117.74 30.2255 117.74 28.722C117.74 27.2186 115.713 25.9997 113.212 25.9997Z" fill="#E1EAF1"/>
<path d="M95.0988 25.9997C92.5978 25.9997 90.5704 27.2186 90.5704 28.722C90.5704 30.2255 92.5978 31.4443 95.0988 31.4443C97.5998 31.4443 99.6272 30.2255 99.6272 28.722C99.6272 27.2186 97.5998 25.9997 95.0988 25.9997Z" fill="#E1EAF1"/>
<path d="M76.9816 25.9997C74.4806 25.9997 72.4531 27.2186 72.4531 28.722C72.4531 30.2255 74.4806 31.4443 76.9816 31.4443C79.4826 31.4443 81.51 30.2255 81.51 28.722C81.51 27.2186 79.4826 25.9997 76.9816 25.9997Z" fill="#E1EAF1"/>
<path d="M58.8683 25.9997C56.3673 25.9997 54.3399 27.2186 54.3399 28.722C54.3399 30.2255 56.3673 31.4443 58.8683 31.4443C61.3693 31.4443 63.3967 30.2255 63.3967 28.722C63.3967 27.2186 61.3693 25.9997 58.8683 25.9997Z" fill="#E1EAF1"/>
<path d="M40.755 25.9997C38.254 25.9997 36.2266 27.2186 36.2266 28.722C36.2266 30.2255 38.254 31.4443 40.755 31.4443C43.256 31.4443 45.2834 30.2255 45.2834 28.722C45.2834 27.2186 43.256 25.9997 40.755 25.9997Z" fill="#E1EAF1"/>
<path d="M22.6417 25.9997C20.1407 25.9997 18.1133 27.2186 18.1133 28.722C18.1133 30.2255 20.1407 31.4443 22.6417 31.4443C25.1427 31.4443 27.1701 30.2255 27.1701 28.722C27.1701 27.2186 25.1427 25.9997 22.6417 25.9997Z" fill="#E1EAF1"/>
<path d="M4.52849 25.9997C2.0275 25.9997 5.53131e-05 27.2186 5.53131e-05 28.722C5.53131e-05 30.2255 2.0275 31.4443 4.52849 31.4443C7.02947 31.4443 9.05692 30.2255 9.05692 28.722C9.05692 27.2186 7.02947 25.9997 4.52849 25.9997Z" fill="#E1EAF1"/>
</g>
<path d="M647.656 17.1013L656.881 22.7728L652.957 31.1903L662.583 26.278L671.808 31.9495L668.532 23.242L678.158 18.3298L666.507 17.8605L663.23 9.15304L659.306 17.5705L647.656 17.1013Z" fill="#9FFFEA" fill-opacity="0.75"/>
<path d="M621.188 28.1378L627.88 32.2191L625.077 38.2316L632.016 34.7415L638.709 38.8228L636.305 32.5845L643.244 29.0944L634.819 28.729L632.415 22.4907L629.613 28.5032L621.188 28.1378Z" fill="#9FFFEA" fill-opacity="0.75"/>
<path d="M653.87 49.5139L663.959 55.9675L659.334 65.8881L670.194 59.9561L680.283 66.4097L676.906 56.2899L687.766 50.3579L674.819 50.0355L671.442 39.9157L666.817 49.8363L653.87 49.5139Z" fill="#9FFFEA" fill-opacity="0.75"/>
<path d="M154.661 250.708C154.661 254.479 151.604 257.535 147.834 257.535V257.535C144.063 257.535 141.007 254.479 141.007 250.708V242.845C141.007 239.075 144.063 236.018 147.834 236.018V236.018C151.604 236.018 154.661 239.075 154.661 242.845V250.708Z" fill="#9E97F3" fill-opacity="0.6"/>
<path d="M134.539 240.877C134.539 242.068 133.574 243.033 132.383 243.033V243.033C131.192 243.033 130.227 242.068 130.227 240.877V229.285C130.227 228.095 131.192 227.13 132.383 227.13V227.13C133.574 227.13 134.539 228.095 134.539 229.285V240.877Z" fill="#9E97F3" fill-opacity="0.6"/>
<path d="M136.695 258.938C136.695 263.329 133.135 266.89 128.743 266.89H127.4C123.008 266.89 119.448 263.329 119.448 258.938V258.938C119.448 254.546 123.008 250.986 127.4 250.986H128.743C133.135 250.986 136.695 254.546 136.695 258.938V258.938Z" fill="#9E97F3" fill-opacity="0.6"/>
<path d="M148.258 230.698C148.258 233.232 146.204 235.286 143.671 235.286H142.175C139.642 235.286 137.588 233.232 137.588 230.698V230.698C137.588 228.165 139.642 226.111 142.175 226.111H143.671C146.204 226.111 148.258 228.165 148.258 230.698V230.698Z" fill="#9E97F3" fill-opacity="0.6"/>
<path d="M125.85 243.442C125.85 245.131 124.481 246.5 122.792 246.5H122.506C120.817 246.5 119.448 245.131 119.448 243.442V243.442C119.448 241.752 120.817 240.383 122.506 240.383H122.792C124.481 240.383 125.85 241.752 125.85 243.442V243.442Z" fill="#9E97F3" fill-opacity="0.6"/>
<path d="M151.459 263.831C151.459 265.52 150.09 266.89 148.401 266.89H148.116C146.426 266.89 145.057 265.52 145.057 263.831V263.831C145.057 262.142 146.426 260.773 148.116 260.773H148.401C150.09 260.773 151.459 262.142 151.459 263.831V263.831Z" fill="#9E97F3" fill-opacity="0.6"/>
<defs>
<clipPath id="clip0_390_2559">
<rect width="146.525" height="148.183" fill="white" transform="matrix(0.729707 -0.68376 0.729707 0.68376 316.852 171.337)"/>
</clipPath>
<clipPath id="clip1_390_2559">
<rect width="173" height="104" fill="white" transform="translate(0 26)"/>
</clipPath>
</defs>
</svg>
