<svg width="702" height="279" viewBox="0 0 702 279" fill="none" xmlns="http://www.w3.org/2000/svg">
<path d="M441 105C362.023 105 298 70.9736 298 29C298 29 362.023 29.0005 441 29.0005C519.977 29.0005 584 29 584 29C584 70.9736 519.977 105 441 105Z" fill="#FF9900" fill-opacity="0.5"/>
<g clip-path="url(#clip0_390_3033)">
<path d="M196.456 102.231C194.978 103.732 194.991 106.18 196.486 107.698C197.981 109.216 200.391 109.23 201.869 107.729C203.347 106.228 203.334 103.78 201.839 102.262C200.344 100.744 197.934 100.73 196.456 102.231Z" fill="#4349D5" fill-opacity="0.6"/>
<path d="M185.752 113.103C184.273 114.604 184.287 117.052 185.782 118.57C187.277 120.088 189.687 120.102 191.165 118.601C192.643 117.1 192.629 114.652 191.134 113.134C189.64 111.616 187.23 111.602 185.752 113.103Z" fill="#4349D5" fill-opacity="0.6"/>
<path d="M175.046 123.976C173.568 125.477 173.582 127.925 175.077 129.443C176.571 130.961 178.981 130.975 180.459 129.474C181.937 127.973 181.924 125.525 180.429 124.007C178.934 122.489 176.524 122.475 175.046 123.976Z" fill="#4349D5" fill-opacity="0.6"/>
<path d="M164.342 134.848C162.864 136.349 162.877 138.797 164.372 140.315C165.867 141.834 168.277 141.847 169.755 140.346C171.233 138.845 171.219 136.397 169.725 134.879C168.23 133.361 165.82 133.347 164.342 134.848Z" fill="#4349D5" fill-opacity="0.6"/>
<path d="M153.637 145.721C152.159 147.223 152.173 149.67 153.667 151.188C155.162 152.707 157.572 152.72 159.05 151.219C160.528 149.718 160.515 147.27 159.02 145.752C157.525 144.234 155.115 144.22 153.637 145.721Z" fill="#4349D5" fill-opacity="0.6"/>
<path d="M142.93 156.595C141.452 158.097 141.465 160.544 142.96 162.062C144.455 163.581 146.865 163.594 148.343 162.093C149.821 160.592 149.808 158.144 148.313 156.626C146.818 155.108 144.408 155.094 142.93 156.595Z" fill="#4349D5" fill-opacity="0.6"/>
<path d="M132.225 167.468C130.747 168.97 130.761 171.417 132.255 172.935C133.75 174.454 136.16 174.467 137.638 172.966C139.116 171.465 139.103 169.017 137.608 167.499C136.113 165.981 133.703 165.967 132.225 167.468Z" fill="#4349D5" fill-opacity="0.6"/>
<path d="M121.52 178.34C120.042 179.842 120.056 182.289 121.551 183.808C123.045 185.326 125.455 185.339 126.933 183.838C128.412 182.337 128.398 179.889 126.903 178.371C125.408 176.853 122.998 176.839 121.52 178.34Z" fill="#4349D5" fill-opacity="0.6"/>
<path d="M110.816 189.213C109.338 190.714 109.351 193.161 110.846 194.68C112.341 196.198 114.751 196.212 116.229 194.71C117.707 193.209 117.693 190.761 116.199 189.243C114.704 187.725 112.294 187.711 110.816 189.213Z" fill="#4349D5" fill-opacity="0.6"/>
<path d="M100.111 200.086C98.633 201.587 98.6465 204.034 100.141 205.553C101.636 207.071 104.046 207.085 105.524 205.583C107.002 204.082 106.989 201.635 105.494 200.116C103.999 198.598 101.589 198.584 100.111 200.086Z" fill="#4349D5" fill-opacity="0.6"/>
<path d="M185.63 91.236C184.152 92.7372 184.166 95.1849 185.66 96.703C187.155 98.2212 189.565 98.235 191.043 96.7338C192.521 95.2326 192.508 92.7849 191.013 91.2667C189.518 89.7485 187.108 89.7348 185.63 91.236Z" fill="#4349D5" fill-opacity="0.6"/>
<path d="M174.926 102.108C173.448 103.609 173.461 106.057 174.956 107.575C176.451 109.093 178.861 109.107 180.339 107.606C181.817 106.105 181.803 103.657 180.308 102.139C178.814 100.621 176.404 100.607 174.926 102.108Z" fill="#4349D5" fill-opacity="0.6"/>
<path d="M164.221 112.981C162.742 114.482 162.756 116.93 164.251 118.448C165.746 119.966 168.156 119.98 169.634 118.479C171.112 116.978 171.098 114.53 169.603 113.012C168.109 111.494 165.699 111.48 164.221 112.981Z" fill="#4349D5" fill-opacity="0.6"/>
<path d="M153.516 123.853C152.038 125.354 152.051 127.802 153.546 129.32C155.041 130.838 157.451 130.852 158.929 129.351C160.407 127.85 160.393 125.402 158.899 123.884C157.404 122.366 154.994 122.352 153.516 123.853Z" fill="#4349D5" fill-opacity="0.6"/>
<path d="M142.811 134.725C141.333 136.226 141.347 138.674 142.841 140.192C144.336 141.71 146.746 141.724 148.224 140.223C149.702 138.722 149.689 136.274 148.194 134.756C146.699 133.238 144.289 133.224 142.811 134.725Z" fill="#4349D5" fill-opacity="0.6"/>
<path d="M132.104 145.6C130.626 147.101 130.64 149.549 132.134 151.067C133.629 152.585 136.039 152.599 137.517 151.098C138.995 149.597 138.982 147.149 137.487 145.631C135.992 144.113 133.582 144.099 132.104 145.6Z" fill="#4349D5" fill-opacity="0.6"/>
<path d="M121.399 156.472C119.921 157.973 119.935 160.421 121.43 161.939C122.924 163.458 125.334 163.471 126.812 161.97C128.29 160.469 128.277 158.021 126.782 156.503C125.287 154.985 122.877 154.971 121.399 156.472Z" fill="#4349D5" fill-opacity="0.6"/>
<path d="M110.695 167.345C109.217 168.847 109.23 171.294 110.725 172.812C112.22 174.331 114.63 174.344 116.108 172.843C117.586 171.342 117.572 168.894 116.077 167.376C114.583 165.858 112.173 165.844 110.695 167.345Z" fill="#4349D5" fill-opacity="0.6"/>
<path d="M99.9898 178.217C98.5118 179.719 98.5253 182.166 100.02 183.684C101.515 185.203 103.925 185.216 105.403 183.715C106.881 182.214 106.867 179.766 105.373 178.248C103.878 176.73 101.468 176.716 99.9898 178.217Z" fill="#4349D5" fill-opacity="0.6"/>
<path d="M89.2851 189.09C87.807 190.592 87.8206 193.039 89.3154 194.558C90.8101 196.076 93.2201 196.089 94.6981 194.588C96.1762 193.087 96.1626 190.639 94.6679 189.121C93.1731 187.603 90.7631 187.589 89.2851 189.09Z" fill="#4349D5" fill-opacity="0.6"/>
<path d="M174.804 80.2408C173.326 81.7421 173.34 84.1897 174.835 85.7079C176.329 87.2261 178.739 87.2399 180.217 85.7387C181.695 84.2375 181.682 81.7898 180.187 80.2716C178.692 78.7534 176.282 78.7396 174.804 80.2408Z" fill="#4349D5" fill-opacity="0.6"/>
<path d="M164.1 91.1129C162.622 92.6141 162.635 95.0618 164.13 96.58C165.625 98.0982 168.035 98.1119 169.513 96.6107C170.991 95.1095 170.977 92.6618 169.483 91.1437C167.988 89.6255 165.578 89.6117 164.1 91.1129Z" fill="#4349D5" fill-opacity="0.6"/>
<path d="M153.395 101.986C151.917 103.487 151.93 105.935 153.425 107.453C154.92 108.971 157.33 108.985 158.808 107.484C160.286 105.983 160.272 103.535 158.777 102.017C157.283 100.499 154.873 100.485 153.395 101.986Z" fill="#4349D5" fill-opacity="0.6"/>
<path d="M142.69 112.858C141.212 114.359 141.225 116.807 142.72 118.325C144.215 119.843 146.625 119.857 148.103 118.356C149.581 116.855 149.568 114.407 148.073 112.889C146.578 111.371 144.168 111.357 142.69 112.858Z" fill="#4349D5" fill-opacity="0.6"/>
<path d="M131.985 123.73C130.507 125.231 130.521 127.679 132.016 129.197C133.51 130.715 135.92 130.729 137.398 129.228C138.876 127.727 138.863 125.279 137.368 123.761C135.873 122.243 133.463 122.229 131.985 123.73Z" fill="#4349D5" fill-opacity="0.6"/>
<path d="M121.278 134.605C119.8 136.106 119.814 138.554 121.309 140.072C122.803 141.59 125.213 141.604 126.691 140.103C128.169 138.602 128.156 136.154 126.661 134.636C125.166 133.118 122.756 133.104 121.278 134.605Z" fill="#4349D5" fill-opacity="0.6"/>
<path d="M110.573 145.477C109.095 146.978 109.109 149.426 110.604 150.944C112.098 152.462 114.508 152.476 115.986 150.975C117.465 149.474 117.451 147.026 115.956 145.508C114.461 143.99 112.051 143.976 110.573 145.477Z" fill="#4349D5" fill-opacity="0.6"/>
<path d="M99.8687 156.349C98.3907 157.85 98.4042 160.298 99.899 161.816C101.394 163.335 103.804 163.348 105.282 161.847C106.76 160.346 106.746 157.898 105.251 156.38C103.757 154.862 101.347 154.848 99.8687 156.349Z" fill="#4349D5" fill-opacity="0.6"/>
<path d="M89.164 167.222C87.6859 168.723 87.6995 171.171 89.1943 172.689C90.689 174.208 93.099 174.221 94.577 172.72C96.0551 171.219 96.0415 168.771 94.5468 167.253C93.052 165.735 90.6421 165.721 89.164 167.222Z" fill="#4349D5" fill-opacity="0.6"/>
<path d="M78.4593 178.094C76.9812 179.596 76.9948 182.043 78.4896 183.561C79.9843 185.08 82.3943 185.093 83.8723 183.592C85.3504 182.091 85.3368 179.643 83.8421 178.125C82.3473 176.607 79.9373 176.593 78.4593 178.094Z" fill="#4349D5" fill-opacity="0.6"/>
<path d="M163.977 69.2438C162.499 70.745 162.513 73.1927 164.008 74.7109C165.503 76.229 167.912 76.2428 169.391 74.7416C170.869 73.2404 170.855 70.7927 169.36 69.2745C167.865 67.7563 165.456 67.7426 163.977 69.2438Z" fill="#4349D5" fill-opacity="0.6"/>
<path d="M153.273 80.1158C151.795 81.6171 151.808 84.0647 153.303 85.5829C154.798 87.1011 157.208 87.1149 158.686 85.6137C160.164 84.1125 160.15 81.6648 158.656 80.1466C157.161 78.6284 154.751 78.6146 153.273 80.1158Z" fill="#4349D5" fill-opacity="0.6"/>
<path d="M142.568 90.9889C141.09 92.4901 141.103 94.9378 142.598 96.456C144.093 97.9742 146.503 97.9879 147.981 96.4867C149.459 94.9855 149.445 92.5378 147.95 91.0196C146.456 89.5015 144.046 89.4877 142.568 90.9889Z" fill="#4349D5" fill-opacity="0.6"/>
<path d="M131.863 101.861C130.385 103.362 130.399 105.81 131.893 107.328C133.388 108.846 135.798 108.86 137.276 107.359C138.754 105.858 138.741 103.41 137.246 101.892C135.751 100.374 133.341 100.36 131.863 101.861Z" fill="#4349D5" fill-opacity="0.6"/>
<path d="M121.158 112.734C119.68 114.235 119.694 116.683 121.189 118.201C122.683 119.719 125.093 119.733 126.571 118.232C128.049 116.731 128.036 114.283 126.541 112.765C125.046 111.247 122.636 111.233 121.158 112.734Z" fill="#4349D5" fill-opacity="0.6"/>
<path d="M110.451 123.608C108.973 125.109 108.987 127.557 110.482 129.075C111.976 130.593 114.386 130.607 115.864 129.106C117.342 127.605 117.329 125.157 115.834 123.639C114.339 122.121 111.929 122.107 110.451 123.608Z" fill="#4349D5" fill-opacity="0.6"/>
<path d="M99.7466 134.481C98.2686 135.982 98.2821 138.43 99.7769 139.948C101.272 141.466 103.682 141.48 105.16 139.979C106.638 138.478 106.624 136.03 105.129 134.512C103.635 132.994 101.225 132.98 99.7466 134.481Z" fill="#4349D5" fill-opacity="0.6"/>
<path d="M89.0419 145.353C87.5639 146.854 87.5774 149.302 89.0722 150.82C90.567 152.338 92.9769 152.352 94.455 150.851C95.933 149.35 95.9195 146.902 94.4247 145.384C92.9299 143.866 90.52 143.852 89.0419 145.353Z" fill="#4349D5" fill-opacity="0.6"/>
<path d="M78.3371 156.225C76.859 157.726 76.8726 160.174 78.3674 161.692C79.8621 163.21 82.2721 163.224 83.7501 161.723C85.2282 160.222 85.2146 157.774 83.7199 156.256C82.2251 154.738 79.8151 154.724 78.3371 156.225Z" fill="#4349D5" fill-opacity="0.6"/>
<path d="M67.6324 167.098C66.1543 168.599 66.1679 171.047 67.6627 172.565C69.1574 174.084 71.5674 174.097 73.0454 172.596C74.5235 171.095 74.5099 168.647 73.0152 167.129C71.5204 165.611 69.1104 165.597 67.6324 167.098Z" fill="#4349D5" fill-opacity="0.6"/>
<path d="M153.152 58.2487C151.673 59.7499 151.687 62.1976 153.182 63.7157C154.677 65.2339 157.087 65.2477 158.565 63.7465C160.043 62.2453 160.029 59.7976 158.534 58.2794C157.04 56.7612 154.63 56.7475 153.152 58.2487Z" fill="#4349D5" fill-opacity="0.6"/>
<path d="M142.447 69.1207C140.969 70.6219 140.982 73.0696 142.477 74.5878C143.972 76.106 146.382 76.1198 147.86 74.6186C149.338 73.1174 149.324 70.6697 147.83 69.1515C146.335 67.6333 143.925 67.6195 142.447 69.1207Z" fill="#4349D5" fill-opacity="0.6"/>
<path d="M131.742 79.9938C130.264 81.495 130.277 83.9427 131.772 85.4609C133.267 86.979 135.677 86.9928 137.155 85.4916C138.633 83.9904 138.619 81.5427 137.125 80.0245C135.63 78.5063 133.22 78.4926 131.742 79.9938Z" fill="#4349D5" fill-opacity="0.6"/>
<path d="M121.037 90.8658C119.559 92.367 119.573 94.8147 121.068 96.3329C122.562 97.8511 124.972 97.8649 126.45 96.3637C127.928 94.8625 127.915 92.4148 126.42 90.8966C124.925 89.3784 122.515 89.3646 121.037 90.8658Z" fill="#4349D5" fill-opacity="0.6"/>
<path d="M110.333 101.738C108.855 103.239 108.868 105.687 110.363 107.205C111.858 108.723 114.268 108.737 115.746 107.236C117.224 105.735 117.21 103.287 115.715 101.769C114.221 100.25 111.811 100.237 110.333 101.738Z" fill="#4349D5" fill-opacity="0.6"/>
<path d="M99.6255 112.613C98.1475 114.114 98.161 116.562 99.6558 118.08C101.151 119.598 103.561 119.612 105.039 118.111C106.517 116.61 106.503 114.162 105.008 112.644C103.514 111.125 101.104 111.112 99.6255 112.613Z" fill="#4349D5" fill-opacity="0.6"/>
<path d="M88.9207 123.485C87.4427 124.986 87.4562 127.434 88.951 128.952C90.4458 130.47 92.8557 130.484 94.3338 128.983C95.8118 127.482 95.7983 125.034 94.3035 123.516C92.8087 121.998 90.3988 121.984 88.9207 123.485Z" fill="#4349D5" fill-opacity="0.6"/>
<path d="M78.216 134.358C76.7379 135.859 76.7515 138.307 78.2463 139.825C79.741 141.343 82.151 141.357 83.629 139.856C85.1071 138.355 85.0935 135.907 83.5988 134.389C82.104 132.871 79.694 132.857 78.216 134.358Z" fill="#4349D5" fill-opacity="0.6"/>
<path d="M67.5112 145.23C66.0331 146.731 66.0467 149.179 67.5414 150.697C69.0362 152.215 71.4462 152.229 72.9242 150.728C74.4023 149.227 74.3887 146.779 72.8939 145.261C71.3992 143.743 68.9892 143.729 67.5112 145.23Z" fill="#4349D5" fill-opacity="0.6"/>
<path d="M56.8065 156.102C55.3284 157.603 55.342 160.051 56.8367 161.569C58.3315 163.087 60.7414 163.101 62.2195 161.6C63.6976 160.099 63.684 157.651 62.1892 156.133C60.6945 154.615 58.2845 154.601 56.8065 156.102Z" fill="#4349D5" fill-opacity="0.6"/>
<path d="M142.326 47.2535C140.848 48.7547 140.861 51.2024 142.356 52.7206C143.851 54.2388 146.261 54.2526 147.739 52.7514C149.217 51.2502 149.203 48.8025 147.709 47.2843C146.214 45.7661 143.804 45.7523 142.326 47.2535Z" fill="#4349D5" fill-opacity="0.6"/>
<path d="M131.621 58.1256C130.143 59.6268 130.157 62.0745 131.651 63.5927C133.146 65.1109 135.556 65.1246 137.034 63.6234C138.512 62.1222 138.499 59.6745 137.004 58.1564C135.509 56.6382 133.099 56.6244 131.621 58.1256Z" fill="#4349D5" fill-opacity="0.6"/>
<path d="M120.916 68.9987C119.438 70.4999 119.451 72.9476 120.946 74.4657C122.441 75.9839 124.851 75.9977 126.329 74.4965C127.807 72.9953 127.793 70.5476 126.299 69.0294C124.804 67.5112 122.394 67.4975 120.916 68.9987Z" fill="#4349D5" fill-opacity="0.6"/>
<path d="M110.211 79.8707C108.733 81.3719 108.747 83.8196 110.242 85.3378C111.736 86.856 114.146 86.8698 115.624 85.3686C117.102 83.8674 117.089 81.4197 115.594 79.9015C114.099 78.3833 111.689 78.3695 110.211 79.8707Z" fill="#4349D5" fill-opacity="0.6"/>
<path d="M99.5067 90.7428C98.0286 92.244 98.0422 94.6917 99.5369 96.2099C101.032 97.7281 103.442 97.7418 104.92 96.2406C106.398 94.7394 106.384 92.2917 104.889 90.7735C103.395 89.2554 100.985 89.2416 99.5067 90.7428Z" fill="#4349D5" fill-opacity="0.6"/>
<path d="M88.7996 101.618C87.3216 103.119 87.3351 105.567 88.8299 107.085C90.3247 108.603 92.7346 108.617 94.2127 107.116C95.6907 105.614 95.6772 103.167 94.1824 101.649C92.6876 100.13 90.2777 100.117 88.7996 101.618Z" fill="#4349D5" fill-opacity="0.6"/>
<path d="M78.0949 112.49C76.6169 113.991 76.6304 116.439 78.1252 117.957C79.62 119.475 82.0299 119.489 83.508 117.988C84.986 116.486 84.9725 114.039 83.4777 112.521C81.9829 111.002 79.573 110.989 78.0949 112.49Z" fill="#4349D5" fill-opacity="0.6"/>
<path d="M67.3901 123.362C65.912 124.863 65.9256 127.311 67.4203 128.829C68.9151 130.347 71.3251 130.361 72.8031 128.86C74.2812 127.359 74.2676 124.911 72.7728 123.393C71.2781 121.875 68.8681 121.861 67.3901 123.362Z" fill="#4349D5" fill-opacity="0.6"/>
<path d="M56.6854 134.235C55.2073 135.736 55.2209 138.184 56.7156 139.702C58.2104 141.22 60.6204 141.234 62.0984 139.733C63.5765 138.232 63.5629 135.784 62.0681 134.266C60.5734 132.748 58.1634 132.734 56.6854 134.235Z" fill="#4349D5" fill-opacity="0.6"/>
<path d="M45.9807 145.107C44.5026 146.608 44.5161 149.056 46.0109 150.574C47.5057 152.092 49.9156 152.106 51.3937 150.605C52.8717 149.104 52.8582 146.656 51.3634 145.138C49.8687 143.62 47.4587 143.606 45.9807 145.107Z" fill="#4349D5" fill-opacity="0.6"/>
<path d="M131.5 36.2574C130.022 37.7586 130.035 40.2063 131.53 41.7245C133.025 43.2427 135.435 43.2565 136.913 41.7553C138.391 40.2541 138.377 37.8064 136.883 36.2882C135.388 34.77 132.978 34.7562 131.5 36.2574Z" fill="#4349D5" fill-opacity="0.6"/>
<path d="M120.795 47.1295C119.317 48.6307 119.331 51.0784 120.826 52.5966C122.32 54.1148 124.73 54.1285 126.208 52.6273C127.686 51.1261 127.673 48.6785 126.178 47.1603C124.683 45.6421 122.273 45.6283 120.795 47.1295Z" fill="#4349D5" fill-opacity="0.6"/>
<path d="M110.09 58.0026C108.612 59.5038 108.626 61.9515 110.12 63.4696C111.615 64.9878 114.025 65.0016 115.503 63.5004C116.981 61.9992 116.968 59.5515 115.473 58.0333C113.978 56.5151 111.568 56.5014 110.09 58.0026Z" fill="#4349D5" fill-opacity="0.6"/>
<path d="M99.3856 68.8746C97.9075 70.3758 97.9211 72.8235 99.4158 74.3417C100.911 75.8599 103.321 75.8737 104.799 74.3725C106.277 72.8713 106.263 70.4236 104.768 68.9054C103.274 67.3872 100.864 67.3734 99.3856 68.8746Z" fill="#4349D5" fill-opacity="0.6"/>
<path d="M88.6808 79.7477C87.2028 81.2489 87.2163 83.6966 88.7111 85.2148C90.2059 86.7329 92.6158 86.7467 94.0939 85.2455C95.5719 83.7443 95.5584 81.2966 94.0636 79.7784C92.5688 78.2602 90.1589 78.2465 88.6808 79.7477Z" fill="#4349D5" fill-opacity="0.6"/>
<path d="M77.9738 90.6217C76.4958 92.1229 76.5093 94.5706 78.0041 96.0888C79.4989 97.607 81.9088 97.6207 83.3869 96.1195C84.8649 94.6183 84.8514 92.1706 83.3566 90.6525C81.8618 89.1343 79.4519 89.1205 77.9738 90.6217Z" fill="#4349D5" fill-opacity="0.6"/>
<path d="M67.269 101.495C65.7909 102.996 65.8045 105.444 67.2993 106.962C68.794 108.48 71.204 108.494 72.682 106.993C74.1601 105.491 74.1465 103.044 72.6518 101.526C71.157 100.007 68.747 99.9936 67.269 101.495Z" fill="#4349D5" fill-opacity="0.6"/>
<path d="M56.5643 112.367C55.0862 113.868 55.0998 116.316 56.5945 117.834C58.0893 119.352 60.4993 119.366 61.9773 117.865C63.4554 116.363 63.4418 113.916 61.947 112.398C60.4523 110.879 58.0423 110.866 56.5643 112.367Z" fill="#4349D5" fill-opacity="0.6"/>
<path d="M45.8596 123.24C44.3815 124.741 44.3951 127.189 45.8898 128.707C47.3846 130.225 49.7945 130.239 51.2726 128.738C52.7507 127.236 52.7371 124.789 51.2423 123.271C49.7476 121.752 47.3376 121.739 45.8596 123.24Z" fill="#4349D5" fill-opacity="0.6"/>
<path d="M35.1548 134.112C33.6768 135.613 33.6903 138.061 35.1851 139.579C36.6799 141.097 39.0898 141.111 40.5679 139.61C42.0459 138.109 42.0324 135.661 40.5376 134.143C39.0428 132.625 36.6329 132.611 35.1548 134.112Z" fill="#4349D5" fill-opacity="0.6"/>
<path d="M120.673 25.2614C119.195 26.7626 119.208 29.2103 120.703 30.7284C122.198 32.2466 124.608 32.2604 126.086 30.7592C127.564 29.258 127.55 26.8103 126.056 25.2921C124.561 23.7739 122.151 23.7602 120.673 25.2614Z" fill="#4349D5" fill-opacity="0.6"/>
<path d="M109.968 36.1334C108.49 37.6346 108.504 40.0823 109.999 41.6005C111.493 43.1187 113.903 43.1325 115.381 41.6313C116.859 40.13 116.846 37.6824 115.351 36.1642C113.856 34.646 111.446 34.6322 109.968 36.1334Z" fill="#4349D5" fill-opacity="0.6"/>
<path d="M99.2631 47.0065C97.7851 48.5077 97.7986 50.9554 99.2934 52.4736C100.788 53.9917 103.198 54.0055 104.676 52.5043C106.154 51.0031 106.141 48.5554 104.646 47.0372C103.151 45.519 100.741 45.5053 99.2631 47.0065Z" fill="#4349D5" fill-opacity="0.6"/>
<path d="M88.5585 57.8785C87.0805 59.3797 87.094 61.8274 88.5888 63.3456C90.0836 64.8638 92.4935 64.8776 93.9716 63.3764C95.4496 61.8752 95.4361 59.4275 93.9413 57.9093C92.4465 56.3911 90.0366 56.3773 88.5585 57.8785Z" fill="#4349D5" fill-opacity="0.6"/>
<path d="M77.8538 68.7506C76.3758 70.2518 76.3893 72.6995 77.8841 74.2177C79.3789 75.7359 81.7888 75.7496 83.2669 74.2484C84.7449 72.7472 84.7314 70.2995 83.2366 68.7814C81.7418 67.2632 79.3319 67.2494 77.8538 68.7506Z" fill="#4349D5" fill-opacity="0.6"/>
<path d="M67.1468 79.6256C65.6687 81.1268 65.6823 83.5745 67.1771 85.0927C68.6718 86.6109 71.0818 86.6246 72.5598 85.1234C74.0379 83.6222 74.0243 81.1745 72.5296 79.6564C71.0348 78.1382 68.6248 78.1244 67.1468 79.6256Z" fill="#4349D5" fill-opacity="0.6"/>
<path d="M56.4421 90.4977C54.964 91.9989 54.9776 94.4466 56.4723 95.9648C57.9671 97.483 60.3771 97.4967 61.8551 95.9955C63.3332 94.4943 63.3196 92.0466 61.8248 90.5284C60.3301 89.0102 57.9201 88.9965 56.4421 90.4977Z" fill="#4349D5" fill-opacity="0.6"/>
<path d="M45.7372 101.371C44.2592 102.872 44.2727 105.32 45.7675 106.838C47.2623 108.356 49.6722 108.37 51.1503 106.869C52.6283 105.367 52.6148 102.92 51.12 101.401C49.6252 99.8833 47.2153 99.8695 45.7372 101.371Z" fill="#4349D5" fill-opacity="0.6"/>
<path d="M35.0325 112.243C33.5545 113.744 33.568 116.192 35.0628 117.71C36.5576 119.228 38.9675 119.242 40.4456 117.741C41.9236 116.239 41.9101 113.792 40.4153 112.274C38.9205 110.755 36.5106 110.742 35.0325 112.243Z" fill="#4349D5" fill-opacity="0.6"/>
<path d="M24.3278 123.115C22.8498 124.616 22.8633 127.064 24.3581 128.582C25.8529 130.1 28.2628 130.114 29.7409 128.613C31.2189 127.111 31.2054 124.664 29.7106 123.146C28.2158 121.627 25.8059 121.614 24.3278 123.115Z" fill="#4349D5" fill-opacity="0.6"/>
<path d="M109.847 14.2662C108.369 15.7674 108.383 18.2151 109.877 19.7333C111.372 21.2515 113.782 21.2653 115.26 19.7641C116.738 18.2629 116.725 15.8152 115.23 14.297C113.735 12.7788 111.325 12.765 109.847 14.2662Z" fill="#4349D5" fill-opacity="0.6"/>
<path d="M99.1425 25.1383C97.6645 26.6395 97.678 29.0872 99.1728 30.6054C100.668 32.1236 103.078 32.1373 104.556 30.6361C106.034 29.1349 106.02 26.6872 104.525 25.1691C103.031 23.6509 100.621 23.6371 99.1425 25.1383Z" fill="#4349D5" fill-opacity="0.6"/>
<path d="M88.4373 36.0104C86.9593 37.5116 86.9728 39.9593 88.4676 41.4775C89.9624 42.9956 92.3723 43.0094 93.8504 41.5082C95.3284 40.007 95.3149 37.5593 93.8201 36.0411C92.3253 34.5229 89.9154 34.5092 88.4373 36.0104Z" fill="#4349D5" fill-opacity="0.6"/>
<path d="M77.7327 46.8834C76.2547 48.3846 76.2682 50.8323 77.763 52.3505C79.2578 53.8687 81.6677 53.8825 83.1458 52.3813C84.6238 50.88 84.6103 48.4324 83.1155 46.9142C81.6207 45.396 79.2108 45.3822 77.7327 46.8834Z" fill="#4349D5" fill-opacity="0.6"/>
<path d="M67.028 57.7555C65.55 59.2567 65.5635 61.7044 67.0583 63.2226C68.5531 64.7408 70.963 64.7545 72.4411 63.2533C73.9191 61.7521 73.9056 59.3044 72.4108 57.7862C70.916 56.2681 68.5061 56.2543 67.028 57.7555Z" fill="#4349D5" fill-opacity="0.6"/>
<path d="M56.321 68.6305C54.8429 70.1317 54.8565 72.5794 56.3512 74.0976C57.846 75.6158 60.256 75.6295 61.734 74.1283C63.2121 72.6271 63.1985 70.1794 61.7038 68.6612C60.209 67.1431 57.799 67.1293 56.321 68.6305Z" fill="#4349D5" fill-opacity="0.6"/>
<path d="M45.6163 79.5026C44.1382 81.0038 44.1518 83.4515 45.6465 84.9696C47.1413 86.4878 49.5513 86.5016 51.0293 85.0004C52.5074 83.4992 52.4938 81.0515 50.999 79.5333C49.5043 78.0151 47.0943 78.0014 45.6163 79.5026Z" fill="#4349D5" fill-opacity="0.6"/>
<path d="M34.9114 90.3746C33.4334 91.8758 33.4469 94.3235 34.9417 95.8417C36.4365 97.3599 38.8464 97.3737 40.3245 95.8725C41.8025 94.3713 41.789 91.9236 40.2942 90.4054C38.7994 88.8872 36.3895 88.8734 34.9114 90.3746Z" fill="#4349D5" fill-opacity="0.6"/>
<path d="M24.2067 101.248C22.7287 102.749 22.7422 105.197 24.237 106.715C25.7318 108.233 28.1417 108.247 29.6198 106.746C31.0978 105.244 31.0843 102.797 29.5895 101.278C28.0947 99.7602 25.6848 99.7465 24.2067 101.248Z" fill="#4349D5" fill-opacity="0.6"/>
<path d="M13.502 112.12C12.024 113.621 12.0375 116.069 13.5323 117.587C15.0271 119.105 17.437 119.119 18.9151 117.618C20.3931 116.116 20.3796 113.669 18.8848 112.15C17.39 110.632 14.9801 110.619 13.502 112.12Z" fill="#4349D5" fill-opacity="0.6"/>
<path d="M99.0212 3.27014C97.5431 4.77134 97.5567 7.21904 99.0515 8.73722C100.546 10.2554 102.956 10.2692 104.434 8.76797C105.912 7.26677 105.899 4.81907 104.404 3.30089C102.909 1.78271 100.499 1.76894 99.0212 3.27014Z" fill="#4349D5" fill-opacity="0.6"/>
<path d="M88.3167 14.1422C86.8387 15.6434 86.8522 18.0911 88.347 19.6093C89.8418 21.1275 92.2517 21.1412 93.7298 19.64C95.2078 18.1388 95.1943 15.6911 93.6995 14.173C92.2047 12.6548 89.7948 12.641 88.3167 14.1422Z" fill="#4349D5" fill-opacity="0.6"/>
<path d="M77.6115 25.0153C76.1335 26.5165 76.147 28.9642 77.6418 30.4823C79.1366 32.0005 81.5465 32.0143 83.0246 30.5131C84.5026 29.0119 84.4891 26.5642 82.9943 25.046C81.4995 23.5278 79.0896 23.5141 77.6115 25.0153Z" fill="#4349D5" fill-opacity="0.6"/>
<path d="M66.9069 35.8873C65.4289 37.3885 65.4424 39.8362 66.9372 41.3544C68.432 42.8726 70.8419 42.8864 72.32 41.3852C73.798 39.884 73.7845 37.4363 72.2897 35.9181C70.7949 34.3999 68.385 34.3861 66.9069 35.8873Z" fill="#4349D5" fill-opacity="0.6"/>
<path d="M56.2022 46.7604C54.7242 48.2616 54.7377 50.7093 56.2325 52.2275C57.7273 53.7456 60.1372 53.7594 61.6153 52.2582C63.0933 50.757 63.0798 48.3093 61.585 46.7911C60.0902 45.2729 57.6803 45.2592 56.2022 46.7604Z" fill="#4349D5" fill-opacity="0.6"/>
<path d="M45.4952 57.6344C44.0171 59.1356 44.0307 61.5833 45.5254 63.1015C47.0202 64.6197 49.4302 64.6334 50.9082 63.1322C52.3863 61.631 52.3727 59.1833 50.8779 57.6651C49.3832 56.147 46.9732 56.1332 45.4952 57.6344Z" fill="#4349D5" fill-opacity="0.6"/>
<path d="M34.7903 68.5074C33.3123 70.0087 33.3258 72.4563 34.8206 73.9745C36.3154 75.4927 38.7253 75.5065 40.2034 74.0053C41.6814 72.5041 41.6679 70.0564 40.1731 68.5382C38.6783 67.02 36.2684 67.0062 34.7903 68.5074Z" fill="#4349D5" fill-opacity="0.6"/>
<path d="M24.0856 79.3795C22.6076 80.8807 22.6211 83.3284 24.1159 84.8466C25.6107 86.3648 28.0206 86.3786 29.4987 84.8773C30.9767 83.3761 30.9632 80.9284 29.4684 79.4103C27.9736 77.8921 25.5637 77.8783 24.0856 79.3795Z" fill="#4349D5" fill-opacity="0.6"/>
<path d="M13.3809 90.2516C11.9029 91.7528 11.9164 94.2005 13.4112 95.7187C14.906 97.2369 17.3159 97.2506 18.794 95.7494C20.272 94.2482 20.2585 91.8005 18.7637 90.2823C17.2689 88.7642 14.859 88.7504 13.3809 90.2516Z" fill="#4349D5" fill-opacity="0.6"/>
<path d="M2.67608 101.125C1.19803 102.626 1.21158 105.074 2.70635 106.592C4.20113 108.11 6.61108 108.124 8.08913 106.622C9.56718 105.121 9.55363 102.674 8.05886 101.155C6.56408 99.6372 4.15413 99.6234 2.67608 101.125Z" fill="#4349D5" fill-opacity="0.6"/>
</g>
<g opacity="0.7" clip-path="url(#clip1_390_3033)">
<path d="M696.827 234.319C694.452 234.319 692.527 235.445 692.527 236.836C692.527 238.226 694.452 239.353 696.827 239.353C699.202 239.353 701.127 238.226 701.127 236.836C701.127 235.445 699.202 234.319 696.827 234.319Z" fill="#00FF01"/>
<path d="M679.627 234.319C677.252 234.319 675.327 235.445 675.327 236.836C675.327 238.226 677.252 239.353 679.627 239.353C682.002 239.353 683.927 238.226 683.927 236.836C683.927 235.445 682.002 234.319 679.627 234.319Z" fill="#00FF01"/>
<path d="M662.427 234.319C660.052 234.319 658.127 235.445 658.127 236.836C658.127 238.226 660.052 239.353 662.427 239.353C664.801 239.353 666.727 238.226 666.727 236.836C666.727 235.445 664.801 234.319 662.427 234.319Z" fill="#00FF01"/>
<path d="M645.227 234.319C642.852 234.319 640.927 235.445 640.927 236.836C640.927 238.226 642.852 239.353 645.227 239.353C647.602 239.353 649.527 238.226 649.527 236.836C649.527 235.445 647.602 234.319 645.227 234.319Z" fill="#00FF01"/>
<path d="M628.027 234.319C625.652 234.319 623.727 235.445 623.727 236.836C623.727 238.226 625.652 239.353 628.027 239.353C630.402 239.353 632.327 238.226 632.327 236.836C632.327 235.445 630.402 234.319 628.027 234.319Z" fill="#00FF01"/>
<path d="M610.824 234.319C608.449 234.319 606.524 235.445 606.524 236.836C606.524 238.226 608.449 239.353 610.824 239.353C613.198 239.353 615.124 238.226 615.124 236.836C615.124 235.445 613.198 234.319 610.824 234.319Z" fill="#00FF01"/>
<path d="M593.624 234.319C591.249 234.319 589.324 235.445 589.324 236.836C589.324 238.226 591.249 239.353 593.624 239.353C595.998 239.353 597.924 238.226 597.924 236.836C597.924 235.445 595.998 234.319 593.624 234.319Z" fill="#00FF01"/>
<path d="M576.424 234.319C574.049 234.319 572.124 235.445 572.124 236.836C572.124 238.226 574.049 239.353 576.424 239.353C578.799 239.353 580.724 238.226 580.724 236.836C580.724 235.445 578.799 234.319 576.424 234.319Z" fill="#00FF01"/>
<path d="M559.224 234.319C556.849 234.319 554.924 235.445 554.924 236.836C554.924 238.226 556.849 239.353 559.224 239.353C561.599 239.353 563.524 238.226 563.524 236.836C563.524 235.445 561.599 234.319 559.224 234.319Z" fill="#00FF01"/>
<path d="M542.024 234.319C539.649 234.319 537.724 235.445 537.724 236.836C537.724 238.226 539.649 239.353 542.024 239.353C544.399 239.353 546.324 238.226 546.324 236.836C546.324 235.445 544.399 234.319 542.024 234.319Z" fill="#00FF01"/>
<path d="M696.827 224.251C694.452 224.251 692.527 225.378 692.527 226.768C692.527 228.158 694.452 229.285 696.827 229.285C699.202 229.285 701.127 228.158 701.127 226.768C701.127 225.378 699.202 224.251 696.827 224.251Z" fill="#00FF01"/>
<path d="M679.627 224.251C677.252 224.251 675.327 225.378 675.327 226.768C675.327 228.158 677.252 229.285 679.627 229.285C682.002 229.285 683.927 228.158 683.927 226.768C683.927 225.378 682.002 224.251 679.627 224.251Z" fill="#00FF01"/>
<path d="M662.427 224.251C660.052 224.251 658.127 225.378 658.127 226.768C658.127 228.158 660.052 229.285 662.427 229.285C664.801 229.285 666.727 228.158 666.727 226.768C666.727 225.378 664.801 224.251 662.427 224.251Z" fill="#00FF01"/>
<path d="M645.227 224.251C642.852 224.251 640.927 225.378 640.927 226.768C640.927 228.158 642.852 229.285 645.227 229.285C647.602 229.285 649.527 228.158 649.527 226.768C649.527 225.378 647.602 224.251 645.227 224.251Z" fill="#00FF01"/>
<path d="M628.027 224.251C625.652 224.251 623.727 225.378 623.727 226.768C623.727 228.158 625.652 229.285 628.027 229.285C630.402 229.285 632.327 228.158 632.327 226.768C632.327 225.378 630.402 224.251 628.027 224.251Z" fill="#00FF01"/>
<path d="M610.824 224.251C608.449 224.251 606.524 225.378 606.524 226.768C606.524 228.158 608.449 229.285 610.824 229.285C613.198 229.285 615.124 228.158 615.124 226.768C615.124 225.378 613.198 224.251 610.824 224.251Z" fill="#00FF01"/>
<path d="M593.624 224.251C591.249 224.251 589.324 225.378 589.324 226.768C589.324 228.158 591.249 229.285 593.624 229.285C595.998 229.285 597.924 228.158 597.924 226.768C597.924 225.378 595.998 224.251 593.624 224.251Z" fill="#00FF01"/>
<path d="M576.424 224.251C574.049 224.251 572.124 225.378 572.124 226.768C572.124 228.158 574.049 229.285 576.424 229.285C578.799 229.285 580.724 228.158 580.724 226.768C580.724 225.378 578.799 224.251 576.424 224.251Z" fill="#00FF01"/>
<path d="M559.224 224.251C556.849 224.251 554.924 225.378 554.924 226.768C554.924 228.158 556.849 229.285 559.224 229.285C561.599 229.285 563.524 228.158 563.524 226.768C563.524 225.378 561.599 224.251 559.224 224.251Z" fill="#00FF01"/>
<path d="M542.024 224.251C539.649 224.251 537.724 225.378 537.724 226.768C537.724 228.158 539.649 229.285 542.024 229.285C544.399 229.285 546.324 228.158 546.324 226.768C546.324 225.378 544.399 224.251 542.024 224.251Z" fill="#00FF01"/>
<path d="M696.827 214.183C694.452 214.183 692.527 215.31 692.527 216.7C692.527 218.09 694.452 219.217 696.827 219.217C699.202 219.217 701.127 218.09 701.127 216.7C701.127 215.31 699.202 214.183 696.827 214.183Z" fill="#00FF01"/>
<path d="M679.627 214.183C677.252 214.183 675.327 215.31 675.327 216.7C675.327 218.09 677.252 219.217 679.627 219.217C682.002 219.217 683.927 218.09 683.927 216.7C683.927 215.31 682.002 214.183 679.627 214.183Z" fill="#00FF01"/>
<path d="M662.427 214.183C660.052 214.183 658.127 215.31 658.127 216.7C658.127 218.09 660.052 219.217 662.427 219.217C664.801 219.217 666.727 218.09 666.727 216.7C666.727 215.31 664.801 214.183 662.427 214.183Z" fill="#00FF01"/>
<path d="M645.227 214.183C642.852 214.183 640.927 215.31 640.927 216.7C640.927 218.09 642.852 219.217 645.227 219.217C647.602 219.217 649.527 218.09 649.527 216.7C649.527 215.31 647.602 214.183 645.227 214.183Z" fill="#00FF01"/>
<path d="M628.027 214.183C625.652 214.183 623.727 215.31 623.727 216.7C623.727 218.09 625.652 219.217 628.027 219.217C630.402 219.217 632.327 218.09 632.327 216.7C632.327 215.31 630.402 214.183 628.027 214.183Z" fill="#00FF01"/>
<path d="M610.824 214.183C608.449 214.183 606.524 215.31 606.524 216.7C606.524 218.09 608.449 219.217 610.824 219.217C613.198 219.217 615.124 218.09 615.124 216.7C615.124 215.31 613.198 214.183 610.824 214.183Z" fill="#00FF01"/>
<path d="M593.624 214.183C591.249 214.183 589.324 215.31 589.324 216.7C589.324 218.09 591.249 219.217 593.624 219.217C595.998 219.217 597.924 218.09 597.924 216.7C597.924 215.31 595.998 214.183 593.624 214.183Z" fill="#00FF01"/>
<path d="M576.424 214.183C574.049 214.183 572.124 215.31 572.124 216.7C572.124 218.09 574.049 219.217 576.424 219.217C578.799 219.217 580.724 218.09 580.724 216.7C580.724 215.31 578.799 214.183 576.424 214.183Z" fill="#00FF01"/>
<path d="M559.224 214.183C556.849 214.183 554.924 215.31 554.924 216.7C554.924 218.09 556.849 219.217 559.224 219.217C561.599 219.217 563.524 218.09 563.524 216.7C563.524 215.31 561.599 214.183 559.224 214.183Z" fill="#00FF01"/>
<path d="M542.024 214.183C539.649 214.183 537.724 215.31 537.724 216.7C537.724 218.09 539.649 219.217 542.024 219.217C544.399 219.217 546.324 218.09 546.324 216.7C546.324 215.31 544.399 214.183 542.024 214.183Z" fill="#00FF01"/>
<path d="M696.827 204.114C694.452 204.114 692.527 205.241 692.527 206.631C692.527 208.022 694.452 209.148 696.827 209.148C699.202 209.148 701.127 208.022 701.127 206.631C701.127 205.241 699.202 204.114 696.827 204.114Z" fill="#00FF01"/>
<path d="M679.627 204.114C677.252 204.114 675.327 205.241 675.327 206.631C675.327 208.022 677.252 209.148 679.627 209.148C682.002 209.148 683.927 208.022 683.927 206.631C683.927 205.241 682.002 204.114 679.627 204.114Z" fill="#00FF01"/>
<path d="M662.427 204.114C660.052 204.114 658.127 205.241 658.127 206.631C658.127 208.022 660.052 209.148 662.427 209.148C664.801 209.148 666.727 208.022 666.727 206.631C666.727 205.241 664.801 204.114 662.427 204.114Z" fill="#00FF01"/>
<path d="M645.227 204.114C642.852 204.114 640.927 205.241 640.927 206.631C640.927 208.022 642.852 209.148 645.227 209.148C647.602 209.148 649.527 208.022 649.527 206.631C649.527 205.241 647.602 204.114 645.227 204.114Z" fill="#00FF01"/>
<path d="M628.027 204.114C625.652 204.114 623.727 205.241 623.727 206.631C623.727 208.022 625.652 209.148 628.027 209.148C630.402 209.148 632.327 208.022 632.327 206.631C632.327 205.241 630.402 204.114 628.027 204.114Z" fill="#00FF01"/>
<path d="M610.824 204.114C608.449 204.114 606.524 205.241 606.524 206.631C606.524 208.022 608.449 209.148 610.824 209.148C613.198 209.148 615.124 208.022 615.124 206.631C615.124 205.241 613.198 204.114 610.824 204.114Z" fill="#00FF01"/>
<path d="M593.624 204.114C591.249 204.114 589.324 205.241 589.324 206.631C589.324 208.022 591.249 209.148 593.624 209.148C595.998 209.148 597.924 208.022 597.924 206.631C597.924 205.241 595.998 204.114 593.624 204.114Z" fill="#00FF01"/>
<path d="M576.424 204.114C574.049 204.114 572.124 205.241 572.124 206.631C572.124 208.022 574.049 209.148 576.424 209.148C578.799 209.148 580.724 208.022 580.724 206.631C580.724 205.241 578.799 204.114 576.424 204.114Z" fill="#00FF01"/>
<path d="M559.224 204.114C556.849 204.114 554.924 205.241 554.924 206.631C554.924 208.022 556.849 209.148 559.224 209.148C561.599 209.148 563.524 208.022 563.524 206.631C563.524 205.241 561.599 204.114 559.224 204.114Z" fill="#00FF01"/>
<path d="M542.024 204.114C539.649 204.114 537.724 205.241 537.724 206.631C537.724 208.022 539.649 209.148 542.024 209.148C544.399 209.148 546.324 208.022 546.324 206.631C546.324 205.241 544.399 204.114 542.024 204.114Z" fill="#00FF01"/>
<path d="M696.827 194.046C694.452 194.046 692.527 195.173 692.527 196.563C692.527 197.953 694.452 199.08 696.827 199.08C699.202 199.08 701.127 197.953 701.127 196.563C701.127 195.173 699.202 194.046 696.827 194.046Z" fill="#00FF01"/>
<path d="M679.627 194.046C677.252 194.046 675.327 195.173 675.327 196.563C675.327 197.953 677.252 199.08 679.627 199.08C682.002 199.08 683.927 197.953 683.927 196.563C683.927 195.173 682.002 194.046 679.627 194.046Z" fill="#00FF01"/>
<path d="M662.427 194.046C660.052 194.046 658.127 195.173 658.127 196.563C658.127 197.953 660.052 199.08 662.427 199.08C664.801 199.08 666.727 197.953 666.727 196.563C666.727 195.173 664.801 194.046 662.427 194.046Z" fill="#00FF01"/>
<path d="M645.227 194.046C642.852 194.046 640.927 195.173 640.927 196.563C640.927 197.953 642.852 199.08 645.227 199.08C647.602 199.08 649.527 197.953 649.527 196.563C649.527 195.173 647.602 194.046 645.227 194.046Z" fill="#00FF01"/>
<path d="M628.027 194.046C625.652 194.046 623.727 195.173 623.727 196.563C623.727 197.953 625.652 199.08 628.027 199.08C630.402 199.08 632.327 197.953 632.327 196.563C632.327 195.173 630.402 194.046 628.027 194.046Z" fill="#00FF01"/>
<path d="M610.824 194.046C608.449 194.046 606.524 195.173 606.524 196.563C606.524 197.953 608.449 199.08 610.824 199.08C613.198 199.08 615.124 197.953 615.124 196.563C615.124 195.173 613.198 194.046 610.824 194.046Z" fill="#00FF01"/>
<path d="M593.624 194.046C591.249 194.046 589.324 195.173 589.324 196.563C589.324 197.953 591.249 199.08 593.624 199.08C595.998 199.08 597.924 197.953 597.924 196.563C597.924 195.173 595.998 194.046 593.624 194.046Z" fill="#00FF01"/>
<path d="M576.424 194.046C574.049 194.046 572.124 195.173 572.124 196.563C572.124 197.953 574.049 199.08 576.424 199.08C578.799 199.08 580.724 197.953 580.724 196.563C580.724 195.173 578.799 194.046 576.424 194.046Z" fill="#00FF01"/>
<path d="M559.224 194.046C556.849 194.046 554.924 195.173 554.924 196.563C554.924 197.953 556.849 199.08 559.224 199.08C561.599 199.08 563.524 197.953 563.524 196.563C563.524 195.173 561.599 194.046 559.224 194.046Z" fill="#00FF01"/>
<path d="M542.024 194.046C539.649 194.046 537.724 195.173 537.724 196.563C537.724 197.953 539.649 199.08 542.024 199.08C544.399 199.08 546.324 197.953 546.324 196.563C546.324 195.173 544.399 194.046 542.024 194.046Z" fill="#00FF01"/>
<path d="M696.827 183.979C694.452 183.979 692.527 185.106 692.527 186.496C692.527 187.886 694.452 189.013 696.827 189.013C699.202 189.013 701.127 187.886 701.127 186.496C701.127 185.106 699.202 183.979 696.827 183.979Z" fill="#00FF01"/>
<path d="M679.627 183.979C677.252 183.979 675.327 185.106 675.327 186.496C675.327 187.886 677.252 189.013 679.627 189.013C682.002 189.013 683.927 187.886 683.927 186.496C683.927 185.106 682.002 183.979 679.627 183.979Z" fill="#00FF01"/>
<path d="M662.427 183.979C660.052 183.979 658.127 185.106 658.127 186.496C658.127 187.886 660.052 189.013 662.427 189.013C664.801 189.013 666.727 187.886 666.727 186.496C666.727 185.106 664.801 183.979 662.427 183.979Z" fill="#00FF01"/>
<path d="M645.227 183.979C642.852 183.979 640.927 185.106 640.927 186.496C640.927 187.886 642.852 189.013 645.227 189.013C647.602 189.013 649.527 187.886 649.527 186.496C649.527 185.106 647.602 183.979 645.227 183.979Z" fill="#00FF01"/>
<path d="M628.027 183.979C625.652 183.979 623.727 185.106 623.727 186.496C623.727 187.886 625.652 189.013 628.027 189.013C630.402 189.013 632.327 187.886 632.327 186.496C632.327 185.106 630.402 183.979 628.027 183.979Z" fill="#00FF01"/>
<path d="M610.824 183.979C608.449 183.979 606.524 185.106 606.524 186.496C606.524 187.886 608.449 189.013 610.824 189.013C613.198 189.013 615.124 187.886 615.124 186.496C615.124 185.106 613.198 183.979 610.824 183.979Z" fill="#00FF01"/>
<path d="M593.624 183.979C591.249 183.979 589.324 185.106 589.324 186.496C589.324 187.886 591.249 189.013 593.624 189.013C595.998 189.013 597.924 187.886 597.924 186.496C597.924 185.106 595.998 183.979 593.624 183.979Z" fill="#00FF01"/>
<path d="M576.424 183.979C574.049 183.979 572.124 185.106 572.124 186.496C572.124 187.886 574.049 189.013 576.424 189.013C578.799 189.013 580.724 187.886 580.724 186.496C580.724 185.106 578.799 183.979 576.424 183.979Z" fill="#00FF01"/>
<path d="M559.224 183.979C556.849 183.979 554.924 185.106 554.924 186.496C554.924 187.886 556.849 189.013 559.224 189.013C561.599 189.013 563.524 187.886 563.524 186.496C563.524 185.106 561.599 183.979 559.224 183.979Z" fill="#00FF01"/>
<path d="M542.024 183.979C539.649 183.979 537.724 185.106 537.724 186.496C537.724 187.886 539.649 189.013 542.024 189.013C544.399 189.013 546.324 187.886 546.324 186.496C546.324 185.106 544.399 183.979 542.024 183.979Z" fill="#00FF01"/>
<path d="M696.827 173.911C694.452 173.911 692.527 175.038 692.527 176.428C692.527 177.818 694.452 178.945 696.827 178.945C699.202 178.945 701.127 177.818 701.127 176.428C701.127 175.038 699.202 173.911 696.827 173.911Z" fill="#00FF01"/>
<path d="M679.627 173.911C677.252 173.911 675.327 175.038 675.327 176.428C675.327 177.818 677.252 178.945 679.627 178.945C682.002 178.945 683.927 177.818 683.927 176.428C683.927 175.038 682.002 173.911 679.627 173.911Z" fill="#00FF01"/>
<path d="M662.427 173.911C660.052 173.911 658.127 175.038 658.127 176.428C658.127 177.818 660.052 178.945 662.427 178.945C664.801 178.945 666.727 177.818 666.727 176.428C666.727 175.038 664.801 173.911 662.427 173.911Z" fill="#00FF01"/>
<path d="M645.227 173.911C642.852 173.911 640.927 175.038 640.927 176.428C640.927 177.818 642.852 178.945 645.227 178.945C647.602 178.945 649.527 177.818 649.527 176.428C649.527 175.038 647.602 173.911 645.227 173.911Z" fill="#00FF01"/>
<path d="M628.027 173.911C625.652 173.911 623.727 175.038 623.727 176.428C623.727 177.818 625.652 178.945 628.027 178.945C630.402 178.945 632.327 177.818 632.327 176.428C632.327 175.038 630.402 173.911 628.027 173.911Z" fill="#00FF01"/>
<path d="M610.824 173.911C608.449 173.911 606.524 175.038 606.524 176.428C606.524 177.818 608.449 178.945 610.824 178.945C613.198 178.945 615.124 177.818 615.124 176.428C615.124 175.038 613.198 173.911 610.824 173.911Z" fill="#00FF01"/>
<path d="M593.624 173.911C591.249 173.911 589.324 175.038 589.324 176.428C589.324 177.818 591.249 178.945 593.624 178.945C595.998 178.945 597.924 177.818 597.924 176.428C597.924 175.038 595.998 173.911 593.624 173.911Z" fill="#00FF01"/>
<path d="M576.424 173.911C574.049 173.911 572.124 175.038 572.124 176.428C572.124 177.818 574.049 178.945 576.424 178.945C578.799 178.945 580.724 177.818 580.724 176.428C580.724 175.038 578.799 173.911 576.424 173.911Z" fill="#00FF01"/>
<path d="M559.224 173.911C556.849 173.911 554.924 175.038 554.924 176.428C554.924 177.818 556.849 178.945 559.224 178.945C561.599 178.945 563.524 177.818 563.524 176.428C563.524 175.038 561.599 173.911 559.224 173.911Z" fill="#00FF01"/>
<path d="M542.024 173.911C539.649 173.911 537.724 175.038 537.724 176.428C537.724 177.818 539.649 178.945 542.024 178.945C544.399 178.945 546.324 177.818 546.324 176.428C546.324 175.038 544.399 173.911 542.024 173.911Z" fill="#00FF01"/>
<path d="M696.827 163.842C694.452 163.842 692.527 164.969 692.527 166.359C692.527 167.749 694.452 168.876 696.827 168.876C699.202 168.876 701.127 167.749 701.127 166.359C701.127 164.969 699.202 163.842 696.827 163.842Z" fill="#00FF01"/>
<path d="M679.627 163.842C677.252 163.842 675.327 164.969 675.327 166.359C675.327 167.749 677.252 168.876 679.627 168.876C682.002 168.876 683.927 167.749 683.927 166.359C683.927 164.969 682.002 163.842 679.627 163.842Z" fill="#00FF01"/>
<path d="M662.427 163.842C660.052 163.842 658.127 164.969 658.127 166.359C658.127 167.749 660.052 168.876 662.427 168.876C664.801 168.876 666.727 167.749 666.727 166.359C666.727 164.969 664.801 163.842 662.427 163.842Z" fill="#00FF01"/>
<path d="M645.227 163.842C642.852 163.842 640.927 164.969 640.927 166.359C640.927 167.749 642.852 168.876 645.227 168.876C647.602 168.876 649.527 167.749 649.527 166.359C649.527 164.969 647.602 163.842 645.227 163.842Z" fill="#00FF01"/>
<path d="M628.027 163.842C625.652 163.842 623.727 164.969 623.727 166.359C623.727 167.749 625.652 168.876 628.027 168.876C630.402 168.876 632.327 167.749 632.327 166.359C632.327 164.969 630.402 163.842 628.027 163.842Z" fill="#00FF01"/>
<path d="M610.824 163.842C608.449 163.842 606.524 164.969 606.524 166.359C606.524 167.749 608.449 168.876 610.824 168.876C613.198 168.876 615.124 167.749 615.124 166.359C615.124 164.969 613.198 163.842 610.824 163.842Z" fill="#00FF01"/>
<path d="M593.624 163.842C591.249 163.842 589.324 164.969 589.324 166.359C589.324 167.749 591.249 168.876 593.624 168.876C595.998 168.876 597.924 167.749 597.924 166.359C597.924 164.969 595.998 163.842 593.624 163.842Z" fill="#00FF01"/>
<path d="M576.424 163.842C574.049 163.842 572.124 164.969 572.124 166.359C572.124 167.749 574.049 168.876 576.424 168.876C578.799 168.876 580.724 167.749 580.724 166.359C580.724 164.969 578.799 163.842 576.424 163.842Z" fill="#00FF01"/>
<path d="M559.224 163.842C556.849 163.842 554.924 164.969 554.924 166.359C554.924 167.749 556.849 168.876 559.224 168.876C561.599 168.876 563.524 167.749 563.524 166.359C563.524 164.969 561.599 163.842 559.224 163.842Z" fill="#00FF01"/>
<path d="M542.024 163.842C539.649 163.842 537.724 164.969 537.724 166.359C537.724 167.749 539.649 168.876 542.024 168.876C544.399 168.876 546.324 167.749 546.324 166.359C546.324 164.969 544.399 163.842 542.024 163.842Z" fill="#00FF01"/>
<path d="M696.827 153.775C694.452 153.775 692.527 154.902 692.527 156.292C692.527 157.682 694.452 158.809 696.827 158.809C699.202 158.809 701.127 157.682 701.127 156.292C701.127 154.902 699.202 153.775 696.827 153.775Z" fill="#00FF01"/>
<path d="M679.627 153.775C677.252 153.775 675.327 154.902 675.327 156.292C675.327 157.682 677.252 158.809 679.627 158.809C682.002 158.809 683.927 157.682 683.927 156.292C683.927 154.902 682.002 153.775 679.627 153.775Z" fill="#00FF01"/>
<path d="M662.427 153.775C660.052 153.775 658.127 154.902 658.127 156.292C658.127 157.682 660.052 158.809 662.427 158.809C664.801 158.809 666.727 157.682 666.727 156.292C666.727 154.902 664.801 153.775 662.427 153.775Z" fill="#00FF01"/>
<path d="M645.227 153.775C642.852 153.775 640.927 154.902 640.927 156.292C640.927 157.682 642.852 158.809 645.227 158.809C647.602 158.809 649.527 157.682 649.527 156.292C649.527 154.902 647.602 153.775 645.227 153.775Z" fill="#00FF01"/>
<path d="M628.027 153.775C625.652 153.775 623.727 154.902 623.727 156.292C623.727 157.682 625.652 158.809 628.027 158.809C630.402 158.809 632.327 157.682 632.327 156.292C632.327 154.902 630.402 153.775 628.027 153.775Z" fill="#00FF01"/>
<path d="M610.824 153.775C608.449 153.775 606.524 154.902 606.524 156.292C606.524 157.682 608.449 158.809 610.824 158.809C613.198 158.809 615.124 157.682 615.124 156.292C615.124 154.902 613.198 153.775 610.824 153.775Z" fill="#00FF01"/>
<path d="M593.624 153.775C591.249 153.775 589.324 154.902 589.324 156.292C589.324 157.682 591.249 158.809 593.624 158.809C595.998 158.809 597.924 157.682 597.924 156.292C597.924 154.902 595.998 153.775 593.624 153.775Z" fill="#00FF01"/>
<path d="M576.424 153.775C574.049 153.775 572.124 154.902 572.124 156.292C572.124 157.682 574.049 158.809 576.424 158.809C578.799 158.809 580.724 157.682 580.724 156.292C580.724 154.902 578.799 153.775 576.424 153.775Z" fill="#00FF01"/>
<path d="M559.224 153.775C556.849 153.775 554.924 154.902 554.924 156.292C554.924 157.682 556.849 158.809 559.224 158.809C561.599 158.809 563.524 157.682 563.524 156.292C563.524 154.902 561.599 153.775 559.224 153.775Z" fill="#00FF01"/>
<path d="M542.024 153.775C539.649 153.775 537.724 154.902 537.724 156.292C537.724 157.682 539.649 158.809 542.024 158.809C544.399 158.809 546.324 157.682 546.324 156.292C546.324 154.902 544.399 153.775 542.024 153.775Z" fill="#00FF01"/>
<path d="M696.827 143.707C694.452 143.707 692.527 144.834 692.527 146.224C692.527 147.614 694.452 148.741 696.827 148.741C699.202 148.741 701.127 147.614 701.127 146.224C701.127 144.834 699.202 143.707 696.827 143.707Z" fill="#00FF01"/>
<path d="M679.627 143.707C677.252 143.707 675.327 144.834 675.327 146.224C675.327 147.614 677.252 148.741 679.627 148.741C682.002 148.741 683.927 147.614 683.927 146.224C683.927 144.834 682.002 143.707 679.627 143.707Z" fill="#00FF01"/>
<path d="M662.427 143.707C660.052 143.707 658.127 144.834 658.127 146.224C658.127 147.614 660.052 148.741 662.427 148.741C664.801 148.741 666.727 147.614 666.727 146.224C666.727 144.834 664.801 143.707 662.427 143.707Z" fill="#00FF01"/>
<path d="M645.227 143.707C642.852 143.707 640.927 144.834 640.927 146.224C640.927 147.614 642.852 148.741 645.227 148.741C647.602 148.741 649.527 147.614 649.527 146.224C649.527 144.834 647.602 143.707 645.227 143.707Z" fill="#00FF01"/>
<path d="M628.027 143.707C625.652 143.707 623.727 144.834 623.727 146.224C623.727 147.614 625.652 148.741 628.027 148.741C630.402 148.741 632.327 147.614 632.327 146.224C632.327 144.834 630.402 143.707 628.027 143.707Z" fill="#00FF01"/>
<path d="M610.824 143.707C608.449 143.707 606.524 144.834 606.524 146.224C606.524 147.614 608.449 148.741 610.824 148.741C613.198 148.741 615.124 147.614 615.124 146.224C615.124 144.834 613.198 143.707 610.824 143.707Z" fill="#00FF01"/>
<path d="M593.624 143.707C591.249 143.707 589.324 144.834 589.324 146.224C589.324 147.614 591.249 148.741 593.624 148.741C595.998 148.741 597.924 147.614 597.924 146.224C597.924 144.834 595.998 143.707 593.624 143.707Z" fill="#00FF01"/>
<path d="M576.424 143.707C574.049 143.707 572.124 144.834 572.124 146.224C572.124 147.614 574.049 148.741 576.424 148.741C578.799 148.741 580.724 147.614 580.724 146.224C580.724 144.834 578.799 143.707 576.424 143.707Z" fill="#00FF01"/>
<path d="M559.224 143.707C556.849 143.707 554.924 144.834 554.924 146.224C554.924 147.614 556.849 148.741 559.224 148.741C561.599 148.741 563.524 147.614 563.524 146.224C563.524 144.834 561.599 143.707 559.224 143.707Z" fill="#00FF01"/>
<path d="M542.024 143.707C539.649 143.707 537.724 144.834 537.724 146.224C537.724 147.614 539.649 148.741 542.024 148.741C544.399 148.741 546.324 147.614 546.324 146.224C546.324 144.834 544.399 143.707 542.024 143.707Z" fill="#00FF01"/>
</g>
<path d="M76.855 262.82L67.2299 258.5L69.5674 249.261L61.2813 255.83L51.6562 251.51L56.1602 259.89L47.8742 266.459L58.9439 265.069L63.4479 273.449L65.7853 264.21L76.855 262.82Z" fill="#FF9FB6" fill-opacity="0.75"/>
<path d="M100.04 247.284L93.0629 244.184L94.7325 237.585L88.7509 242.268L81.7739 239.168L85.0541 245.162L79.0724 249.845L87.0813 248.867L90.3615 254.862L92.0311 248.262L100.04 247.284Z" fill="#FF9FB6" fill-opacity="0.75"/>
<path d="M65.7341 230.666L55.1676 225.685L57.9224 214.796L48.6371 222.606L38.0706 217.625L42.8985 227.433L33.6132 235.243L45.8823 233.495L50.7102 243.303L53.465 232.414L65.7341 230.666Z" fill="#FF9FB6" fill-opacity="0.75"/>
<rect x="258.305" y="235.405" width="3.15108" height="13.6346" fill="#EEFF27" fill-opacity="0.75"/>
<rect x="264.157" y="244.609" width="9.45325" height="8.86247" fill="#EEFF27" fill-opacity="0.75"/>
<rect x="267.758" y="232.339" width="4.05139" height="9.88507" fill="#EEFF27" fill-opacity="0.75"/>
<rect width="2.0407" height="5.28334" transform="matrix(1 0 0 -1 280.753 234.453)" fill="#EEFF27" fill-opacity="0.75"/>
<rect width="5.67195" height="3.98811" transform="matrix(1 0 0 -1 283.246 231.044)" fill="#EEFF27" fill-opacity="0.75"/>
<rect width="3.06105" height="3.17" transform="matrix(1 0 0 -1 284.834 235.51)" fill="#EEFF27" fill-opacity="0.75"/>
<rect x="254.073" y="233.191" width="1.89065" height="6.13556" transform="rotate(180 254.073 233.191)" fill="#EEFF27" fill-opacity="0.75"/>
<rect x="248.672" y="229.988" width="5.67195" height="3.98811" transform="rotate(180 248.672 229.988)" fill="#EEFF27" fill-opacity="0.75"/>
<rect x="246.452" y="237.844" width="2.43084" height="4.44828" transform="rotate(180 246.452 237.844)" fill="#EEFF27" fill-opacity="0.75"/>
<defs>
<clipPath id="clip0_390_3033">
<rect width="145.727" height="147.376" fill="white" transform="matrix(0.701591 -0.71258 0.701591 0.71258 0 103.843)"/>
</clipPath>
<clipPath id="clip1_390_3033">
<rect width="164.276" height="96.1567" fill="white" transform="translate(537.724 143.707)"/>
</clipPath>
</defs>
</svg>
