<svg width="767" height="493" viewBox="0 0 767 493" fill="none" xmlns="http://www.w3.org/2000/svg">
<path d="M139.007 352.587C139.007 344.303 145.723 337.587 154.007 337.587H338.007C346.291 337.587 353.007 344.303 353.007 352.587V468.737C353.007 477.022 346.291 483.737 338.007 483.737H154.007C145.723 483.737 139.007 477.022 139.007 468.737V352.587Z" fill="#87E2FF" fill-opacity="0.5"/>
<rect x="0.00683594" y="423.716" width="7.24638" height="32.9102" rx="3.62319" fill="#FFF622" fill-opacity="0.3"/>
<rect x="13.7754" y="444.465" width="30.4348" height="20.7477" rx="10.3739" fill="#FFF622" fill-opacity="0.3"/>
<rect x="21.0215" y="419.423" width="17.3913" height="20.7477" rx="8.69565" fill="#FFF622" fill-opacity="0.3"/>
<path d="M29.3545 410.531C29.3545 408.33 31.1389 406.546 33.34 406.546V406.546C35.5411 406.546 37.3255 408.33 37.3255 410.531V411.146C37.3255 413.347 35.5411 415.131 33.34 415.131V415.131C31.1389 415.131 29.3545 413.347 29.3545 411.146V410.531Z" fill="#FFF622" fill-opacity="0.3"/>
<rect x="42.0361" y="431.586" width="7.97101" height="8.58526" rx="3.98551" fill="#FFF622" fill-opacity="0.3"/>
<path d="M130.007 72.5615C130.007 104.678 104.935 130.713 74.0068 130.713C43.0789 130.713 18.0068 104.678 18.0068 72.5615C18.0068 40.4454 43.0789 14.4102 74.0068 14.4102C104.935 14.4102 130.007 40.4454 130.007 72.5615Z" fill="#9967AB" fill-opacity="0.3"/>
<g opacity="0.2">
<ellipse cx="546.507" cy="372.951" rx="3.5" ry="3.45769" fill="#00FF01"/>
<ellipse cx="546.507" cy="389.606" rx="3.5" ry="3.45769" fill="#00FF01"/>
<ellipse cx="546.507" cy="406.262" rx="3.5" ry="3.45769" fill="#00FF01"/>
<ellipse cx="546.507" cy="422.919" rx="3.5" ry="3.45769" fill="#00FF01"/>
<ellipse cx="546.507" cy="439.574" rx="3.5" ry="3.45769" fill="#00FF01"/>
<ellipse cx="546.507" cy="456.23" rx="3.5" ry="3.45769" fill="#00FF01"/>
<ellipse cx="546.507" cy="472.885" rx="3.5" ry="3.45769" fill="#00FF01"/>
<ellipse cx="546.507" cy="489.543" rx="3.5" ry="3.45769" fill="#00FF01"/>
<ellipse cx="560.507" cy="372.951" rx="3.5" ry="3.45769" fill="#00FF01"/>
<ellipse cx="560.507" cy="389.606" rx="3.5" ry="3.45769" fill="#00FF01"/>
<ellipse cx="560.507" cy="406.262" rx="3.5" ry="3.45769" fill="#00FF01"/>
<ellipse cx="560.507" cy="422.918" rx="3.5" ry="3.45769" fill="#00FF01"/>
<ellipse cx="560.507" cy="439.574" rx="3.5" ry="3.45769" fill="#00FF01"/>
<ellipse cx="560.507" cy="456.23" rx="3.5" ry="3.45769" fill="#00FF01"/>
<ellipse cx="560.507" cy="472.887" rx="3.5" ry="3.45769" fill="#00FF01"/>
<ellipse cx="560.507" cy="489.543" rx="3.5" ry="3.45769" fill="#00FF01"/>
<ellipse cx="574.507" cy="372.951" rx="3.5" ry="3.45769" fill="#00FF01"/>
<ellipse cx="574.507" cy="389.606" rx="3.5" ry="3.45769" fill="#00FF01"/>
<ellipse cx="574.507" cy="406.262" rx="3.5" ry="3.45769" fill="#00FF01"/>
<ellipse cx="574.507" cy="422.918" rx="3.5" ry="3.45769" fill="#00FF01"/>
<ellipse cx="574.507" cy="439.574" rx="3.5" ry="3.45769" fill="#00FF01"/>
<ellipse cx="574.507" cy="456.23" rx="3.5" ry="3.45769" fill="#00FF01"/>
<ellipse cx="574.507" cy="472.887" rx="3.5" ry="3.45769" fill="#00FF01"/>
<ellipse cx="574.507" cy="489.543" rx="3.5" ry="3.45769" fill="#00FF01"/>
<ellipse cx="588.507" cy="372.951" rx="3.5" ry="3.45769" fill="#00FF01"/>
<ellipse cx="588.507" cy="389.606" rx="3.5" ry="3.45769" fill="#00FF01"/>
<ellipse cx="588.507" cy="406.262" rx="3.5" ry="3.45769" fill="#00FF01"/>
<ellipse cx="588.507" cy="422.918" rx="3.5" ry="3.45769" fill="#00FF01"/>
<ellipse cx="588.507" cy="439.574" rx="3.5" ry="3.45769" fill="#00FF01"/>
<ellipse cx="588.507" cy="456.23" rx="3.5" ry="3.45769" fill="#00FF01"/>
<ellipse cx="588.507" cy="472.887" rx="3.5" ry="3.45769" fill="#00FF01"/>
<ellipse cx="588.507" cy="489.543" rx="3.5" ry="3.45769" fill="#00FF01"/>
<ellipse cx="602.507" cy="372.951" rx="3.5" ry="3.45769" fill="#00FF01"/>
<ellipse cx="602.507" cy="389.606" rx="3.5" ry="3.45769" fill="#00FF01"/>
<ellipse cx="602.507" cy="406.262" rx="3.5" ry="3.45769" fill="#00FF01"/>
<ellipse cx="602.507" cy="422.918" rx="3.5" ry="3.45769" fill="#00FF01"/>
<ellipse cx="602.507" cy="439.574" rx="3.5" ry="3.45769" fill="#00FF01"/>
<ellipse cx="602.507" cy="456.23" rx="3.5" ry="3.45769" fill="#00FF01"/>
<ellipse cx="602.507" cy="472.887" rx="3.5" ry="3.45769" fill="#00FF01"/>
<ellipse cx="602.507" cy="489.543" rx="3.5" ry="3.45769" fill="#00FF01"/>
<ellipse cx="616.507" cy="372.951" rx="3.5" ry="3.45769" fill="#00FF01"/>
<ellipse cx="616.507" cy="389.606" rx="3.5" ry="3.45769" fill="#00FF01"/>
<ellipse cx="616.507" cy="406.262" rx="3.5" ry="3.45769" fill="#00FF01"/>
<ellipse cx="616.507" cy="422.918" rx="3.5" ry="3.45769" fill="#00FF01"/>
<ellipse cx="616.507" cy="439.574" rx="3.5" ry="3.45769" fill="#00FF01"/>
<ellipse cx="616.507" cy="456.23" rx="3.5" ry="3.45769" fill="#00FF01"/>
<ellipse cx="616.507" cy="472.887" rx="3.5" ry="3.45769" fill="#00FF01"/>
<ellipse cx="616.507" cy="489.543" rx="3.5" ry="3.45769" fill="#00FF01"/>
<ellipse cx="630.507" cy="372.951" rx="3.5" ry="3.45769" fill="#00FF01"/>
<ellipse cx="630.507" cy="389.606" rx="3.5" ry="3.45769" fill="#00FF01"/>
<ellipse cx="630.507" cy="406.262" rx="3.5" ry="3.45769" fill="#00FF01"/>
<ellipse cx="630.507" cy="422.918" rx="3.5" ry="3.45769" fill="#00FF01"/>
<ellipse cx="630.507" cy="439.574" rx="3.5" ry="3.45769" fill="#00FF01"/>
<ellipse cx="630.507" cy="456.23" rx="3.5" ry="3.45769" fill="#00FF01"/>
<ellipse cx="630.507" cy="472.887" rx="3.5" ry="3.45769" fill="#00FF01"/>
<ellipse cx="630.507" cy="489.543" rx="3.5" ry="3.45769" fill="#00FF01"/>
<ellipse cx="644.507" cy="372.951" rx="3.5" ry="3.45769" fill="#00FF01"/>
<ellipse cx="644.507" cy="389.606" rx="3.5" ry="3.45769" fill="#00FF01"/>
<ellipse cx="644.507" cy="406.262" rx="3.5" ry="3.45769" fill="#00FF01"/>
<ellipse cx="644.507" cy="422.918" rx="3.5" ry="3.45769" fill="#00FF01"/>
<ellipse cx="644.507" cy="439.574" rx="3.5" ry="3.45769" fill="#00FF01"/>
<ellipse cx="644.507" cy="456.23" rx="3.5" ry="3.45769" fill="#00FF01"/>
<ellipse cx="644.507" cy="472.887" rx="3.5" ry="3.45769" fill="#00FF01"/>
<ellipse cx="644.507" cy="489.543" rx="3.5" ry="3.45769" fill="#00FF01"/>
<ellipse cx="658.507" cy="372.951" rx="3.5" ry="3.45769" fill="#00FF01"/>
<ellipse cx="658.507" cy="389.606" rx="3.5" ry="3.45769" fill="#00FF01"/>
<ellipse cx="658.507" cy="406.262" rx="3.5" ry="3.45769" fill="#00FF01"/>
<ellipse cx="658.507" cy="422.918" rx="3.5" ry="3.45769" fill="#00FF01"/>
<ellipse cx="658.507" cy="439.574" rx="3.5" ry="3.45769" fill="#00FF01"/>
<ellipse cx="658.507" cy="456.23" rx="3.5" ry="3.45769" fill="#00FF01"/>
<ellipse cx="658.507" cy="472.887" rx="3.5" ry="3.45769" fill="#00FF01"/>
<ellipse cx="658.507" cy="489.543" rx="3.5" ry="3.45769" fill="#00FF01"/>
<ellipse cx="672.507" cy="372.951" rx="3.5" ry="3.45769" fill="#00FF01"/>
<ellipse cx="672.507" cy="389.606" rx="3.5" ry="3.45769" fill="#00FF01"/>
<ellipse cx="672.507" cy="406.262" rx="3.5" ry="3.45769" fill="#00FF01"/>
<ellipse cx="672.507" cy="422.918" rx="3.5" ry="3.45769" fill="#00FF01"/>
<ellipse cx="672.507" cy="439.574" rx="3.5" ry="3.45769" fill="#00FF01"/>
<ellipse cx="672.507" cy="456.23" rx="3.5" ry="3.45769" fill="#00FF01"/>
<ellipse cx="672.507" cy="472.887" rx="3.5" ry="3.45769" fill="#00FF01"/>
<ellipse cx="672.507" cy="489.543" rx="3.5" ry="3.45769" fill="#00FF01"/>
</g>
<g opacity="0.2">
<ellipse cx="616.507" cy="372.951" rx="3.5" ry="3.45769" fill="#00FF01"/>
<ellipse cx="616.507" cy="389.606" rx="3.5" ry="3.45769" fill="#00FF01"/>
<ellipse cx="616.507" cy="406.262" rx="3.5" ry="3.45769" fill="#00FF01"/>
<ellipse cx="616.507" cy="422.919" rx="3.5" ry="3.45769" fill="#00FF01"/>
<ellipse cx="616.507" cy="439.574" rx="3.5" ry="3.45769" fill="#00FF01"/>
<ellipse cx="630.507" cy="372.951" rx="3.5" ry="3.45769" fill="#00FF01"/>
<ellipse cx="630.507" cy="389.606" rx="3.5" ry="3.45769" fill="#00FF01"/>
<ellipse cx="630.507" cy="406.262" rx="3.5" ry="3.45769" fill="#00FF01"/>
<ellipse cx="630.507" cy="422.918" rx="3.5" ry="3.45769" fill="#00FF01"/>
<ellipse cx="630.507" cy="439.574" rx="3.5" ry="3.45769" fill="#00FF01"/>
<ellipse cx="644.507" cy="372.951" rx="3.5" ry="3.45769" fill="#00FF01"/>
<ellipse cx="644.507" cy="389.606" rx="3.5" ry="3.45769" fill="#00FF01"/>
<ellipse cx="644.507" cy="406.262" rx="3.5" ry="3.45769" fill="#00FF01"/>
<ellipse cx="644.507" cy="422.918" rx="3.5" ry="3.45769" fill="#00FF01"/>
<ellipse cx="644.507" cy="439.574" rx="3.5" ry="3.45769" fill="#00FF01"/>
<ellipse cx="658.507" cy="372.951" rx="3.5" ry="3.45769" fill="#00FF01"/>
<ellipse cx="658.507" cy="389.606" rx="3.5" ry="3.45769" fill="#00FF01"/>
<ellipse cx="658.507" cy="406.262" rx="3.5" ry="3.45769" fill="#00FF01"/>
<ellipse cx="658.507" cy="422.918" rx="3.5" ry="3.45769" fill="#00FF01"/>
<ellipse cx="658.507" cy="439.574" rx="3.5" ry="3.45769" fill="#00FF01"/>
<ellipse cx="672.507" cy="372.951" rx="3.5" ry="3.45769" fill="#00FF01"/>
<ellipse cx="672.507" cy="389.606" rx="3.5" ry="3.45769" fill="#00FF01"/>
<ellipse cx="672.507" cy="406.262" rx="3.5" ry="3.45769" fill="#00FF01"/>
<ellipse cx="672.507" cy="422.918" rx="3.5" ry="3.45769" fill="#00FF01"/>
<ellipse cx="672.507" cy="439.574" rx="3.5" ry="3.45769" fill="#00FF01"/>
<ellipse cx="686.507" cy="372.951" rx="3.5" ry="3.45769" fill="#00FF01"/>
<ellipse cx="686.507" cy="389.606" rx="3.5" ry="3.45769" fill="#00FF01"/>
<ellipse cx="686.507" cy="406.262" rx="3.5" ry="3.45769" fill="#00FF01"/>
<ellipse cx="686.507" cy="422.918" rx="3.5" ry="3.45769" fill="#00FF01"/>
<ellipse cx="686.507" cy="439.574" rx="3.5" ry="3.45769" fill="#00FF01"/>
<ellipse cx="686.507" cy="456.23" rx="3.5" ry="3.45769" fill="#00FF01"/>
<ellipse cx="686.507" cy="472.887" rx="3.5" ry="3.45769" fill="#00FF01"/>
<ellipse cx="686.507" cy="489.543" rx="3.5" ry="3.45769" fill="#00FF01"/>
<ellipse cx="700.507" cy="372.951" rx="3.5" ry="3.45769" fill="#00FF01"/>
<ellipse cx="700.507" cy="389.606" rx="3.5" ry="3.45769" fill="#00FF01"/>
<ellipse cx="700.507" cy="406.262" rx="3.5" ry="3.45769" fill="#00FF01"/>
<ellipse cx="700.507" cy="422.918" rx="3.5" ry="3.45769" fill="#00FF01"/>
<ellipse cx="700.507" cy="439.574" rx="3.5" ry="3.45769" fill="#00FF01"/>
<ellipse cx="700.507" cy="456.23" rx="3.5" ry="3.45769" fill="#00FF01"/>
<ellipse cx="700.507" cy="472.887" rx="3.5" ry="3.45769" fill="#00FF01"/>
<ellipse cx="700.507" cy="489.543" rx="3.5" ry="3.45769" fill="#00FF01"/>
<ellipse cx="714.507" cy="372.951" rx="3.5" ry="3.45769" fill="#00FF01"/>
<ellipse cx="714.507" cy="389.606" rx="3.5" ry="3.45769" fill="#00FF01"/>
<ellipse cx="714.507" cy="406.262" rx="3.5" ry="3.45769" fill="#00FF01"/>
<ellipse cx="714.507" cy="422.918" rx="3.5" ry="3.45769" fill="#00FF01"/>
<ellipse cx="714.507" cy="439.574" rx="3.5" ry="3.45769" fill="#00FF01"/>
<ellipse cx="714.507" cy="456.23" rx="3.5" ry="3.45769" fill="#00FF01"/>
<ellipse cx="714.507" cy="472.887" rx="3.5" ry="3.45769" fill="#00FF01"/>
<ellipse cx="714.507" cy="489.543" rx="3.5" ry="3.45769" fill="#00FF01"/>
<ellipse cx="728.507" cy="372.951" rx="3.5" ry="3.45769" fill="#00FF01"/>
<ellipse cx="728.507" cy="389.606" rx="3.5" ry="3.45769" fill="#00FF01"/>
<ellipse cx="728.507" cy="406.262" rx="3.5" ry="3.45769" fill="#00FF01"/>
<ellipse cx="728.507" cy="422.918" rx="3.5" ry="3.45769" fill="#00FF01"/>
<ellipse cx="728.507" cy="439.574" rx="3.5" ry="3.45769" fill="#00FF01"/>
<ellipse cx="728.507" cy="456.23" rx="3.5" ry="3.45769" fill="#00FF01"/>
<ellipse cx="728.507" cy="472.887" rx="3.5" ry="3.45769" fill="#00FF01"/>
<ellipse cx="728.507" cy="489.543" rx="3.5" ry="3.45769" fill="#00FF01"/>
<ellipse cx="742.507" cy="372.951" rx="3.5" ry="3.45769" fill="#00FF01"/>
<ellipse cx="742.507" cy="389.606" rx="3.5" ry="3.45769" fill="#00FF01"/>
<ellipse cx="742.507" cy="406.262" rx="3.5" ry="3.45769" fill="#00FF01"/>
<ellipse cx="742.507" cy="422.918" rx="3.5" ry="3.45769" fill="#00FF01"/>
<ellipse cx="742.507" cy="439.574" rx="3.5" ry="3.45769" fill="#00FF01"/>
<ellipse cx="742.507" cy="456.23" rx="3.5" ry="3.45769" fill="#00FF01"/>
<ellipse cx="742.507" cy="472.887" rx="3.5" ry="3.45769" fill="#00FF01"/>
<ellipse cx="742.507" cy="489.543" rx="3.5" ry="3.45769" fill="#00FF01"/>
</g>
<g clip-path="url(#clip0_175_9811)">
<path d="M332.481 88.6927C334.959 88.701 337.384 89.7205 337.897 90.9699C338.41 92.2193 336.817 93.2254 334.339 93.2171C331.861 93.2089 329.437 92.1893 328.923 90.9399C328.41 89.6906 330.003 88.6844 332.481 88.6927Z" fill="#D5435D" fill-opacity="0.5"/>
<path d="M328.765 79.6439C331.243 79.6522 333.668 80.6717 334.181 81.9211C334.694 83.1705 333.102 84.1766 330.624 84.1683C328.146 84.16 325.721 83.1405 325.208 81.8911C324.694 80.6417 326.287 79.6356 328.765 79.6439Z" fill="#D5435D" fill-opacity="0.5"/>
<path d="M346.712 79.7044C349.19 79.7127 351.614 80.7322 352.128 81.9816C352.641 83.231 351.048 84.2371 348.57 84.2289C346.092 84.2206 343.667 83.201 343.154 81.9517C342.641 80.7023 344.234 79.6962 346.712 79.7044Z" fill="#D5435D" fill-opacity="0.5"/>
<path d="M325.047 70.5951C327.525 70.6033 329.95 71.6229 330.463 72.8723C330.977 74.1216 329.384 75.1278 326.906 75.1195C324.428 75.1112 322.003 74.0917 321.49 72.8423C320.977 71.5929 322.569 70.5868 325.047 70.5951Z" fill="#D5435D" fill-opacity="0.5"/>
<path d="M342.995 70.6546C345.473 70.6629 347.898 71.6824 348.411 72.9318C348.924 74.1812 347.331 75.1873 344.853 75.179C342.375 75.1708 339.95 74.1512 339.437 72.9019C338.924 71.6525 340.517 70.6464 342.995 70.6546Z" fill="#D5435D" fill-opacity="0.5"/>
<path d="M360.942 70.7142C363.42 70.7225 365.845 71.742 366.358 72.9914C366.871 74.2408 365.278 75.2469 362.8 75.2386C360.322 75.2303 357.897 74.2108 357.384 72.9614C356.871 71.712 358.464 70.7059 360.942 70.7142Z" fill="#D5435D" fill-opacity="0.5"/>
<path d="M321.332 61.5462C323.81 61.5545 326.234 62.574 326.748 63.8234C327.261 65.0728 325.668 66.0789 323.19 66.0706C320.712 66.0624 318.287 65.0428 317.774 63.7935C317.261 62.5441 318.854 61.538 321.332 61.5462Z" fill="#D5435D" fill-opacity="0.5"/>
<path d="M339.278 61.6058C341.756 61.6141 344.181 62.6336 344.694 63.883C345.207 65.1324 343.614 66.1385 341.136 66.1302C338.658 66.1219 336.233 65.1024 335.72 63.853C335.207 62.6036 336.8 61.5975 339.278 61.6058Z" fill="#D5435D" fill-opacity="0.5"/>
<path d="M357.225 61.6654C359.703 61.6736 362.128 62.6932 362.641 63.9426C363.154 65.1919 361.562 66.1981 359.084 66.1898C356.606 66.1815 354.181 65.162 353.668 63.9126C353.154 62.6632 354.747 61.6571 357.225 61.6654Z" fill="#D5435D" fill-opacity="0.5"/>
<path d="M375.172 61.7259C377.65 61.7342 380.075 62.7537 380.588 64.0031C381.102 65.2525 379.509 66.2586 377.031 66.2503C374.553 66.2421 372.128 65.2225 371.615 63.9731C371.102 62.7238 372.694 61.7176 375.172 61.7259Z" fill="#D5435D" fill-opacity="0.5"/>
<path d="M317.615 52.4974C320.093 52.5057 322.518 53.5252 323.031 54.7746C323.544 56.024 321.951 57.0301 319.473 57.0218C316.995 57.0135 314.57 55.994 314.057 54.7446C313.544 53.4952 315.137 52.4891 317.615 52.4974Z" fill="#D5435D" fill-opacity="0.5"/>
<path d="M335.561 52.557C338.039 52.5653 340.464 53.5848 340.977 54.8342C341.49 56.0836 339.897 57.0897 337.419 57.0814C334.941 57.0731 332.517 56.0536 332.003 54.8042C331.49 53.5548 333.083 52.5487 335.561 52.557Z" fill="#D5435D" fill-opacity="0.5"/>
<path d="M353.509 52.6175C355.987 52.6258 358.412 53.6453 358.925 54.8947C359.439 56.1441 357.846 57.1502 355.368 57.1419C352.89 57.1337 350.465 56.1141 349.952 54.8647C349.439 53.6154 351.031 52.6093 353.509 52.6175Z" fill="#D5435D" fill-opacity="0.5"/>
<path d="M371.456 52.6771C373.934 52.6854 376.359 53.7049 376.872 54.9543C377.385 56.2037 375.792 57.2098 373.314 57.2015C370.836 57.1932 368.411 56.1737 367.898 54.9243C367.385 53.6749 368.978 52.6688 371.456 52.6771Z" fill="#D5435D" fill-opacity="0.5"/>
<path d="M389.403 52.7367C391.881 52.7449 394.306 53.7645 394.819 55.0139C395.332 56.2632 393.739 57.2694 391.261 57.2611C388.783 57.2528 386.358 56.2333 385.845 54.9839C385.332 53.7345 386.925 52.7284 389.403 52.7367Z" fill="#D5435D" fill-opacity="0.5"/>
<path d="M313.898 43.4486C316.376 43.4569 318.801 44.4764 319.314 45.7258C319.827 46.9752 318.234 47.9813 315.756 47.973C313.278 47.9647 310.854 46.9452 310.34 45.6958C309.827 44.4464 311.42 43.4403 313.898 43.4486Z" fill="#D5435D" fill-opacity="0.5"/>
<path d="M331.845 43.5081C334.323 43.5164 336.748 44.536 337.261 45.7853C337.774 47.0347 336.182 48.0408 333.704 48.0326C331.226 48.0243 328.801 47.0048 328.288 45.7554C327.774 44.506 329.367 43.4999 331.845 43.5081Z" fill="#D5435D" fill-opacity="0.5"/>
<path d="M349.793 43.5687C352.271 43.577 354.695 44.5965 355.209 45.8459C355.722 47.0953 354.129 48.1014 351.651 48.0931C349.173 48.0848 346.748 47.0653 346.235 45.8159C345.722 44.5665 347.315 43.5604 349.793 43.5687Z" fill="#D5435D" fill-opacity="0.5"/>
<path d="M367.739 43.6283C370.217 43.6365 372.642 44.6561 373.155 45.9055C373.668 47.1548 372.075 48.161 369.597 48.1527C367.119 48.1444 364.694 47.1249 364.181 45.8755C363.668 44.6261 365.261 43.62 367.739 43.6283Z" fill="#D5435D" fill-opacity="0.5"/>
<path d="M385.686 43.6888C388.164 43.6971 390.589 44.7166 391.102 45.966C391.615 47.2154 390.022 48.2215 387.544 48.2132C385.066 48.205 382.642 47.1854 382.128 45.936C381.615 44.6867 383.208 43.6805 385.686 43.6888Z" fill="#D5435D" fill-opacity="0.5"/>
<path d="M403.637 43.7484C406.115 43.7567 408.54 44.7762 409.053 46.0256C409.566 47.275 407.974 48.2811 405.496 48.2728C403.018 48.2645 400.593 47.245 400.08 45.9956C399.566 44.7462 401.159 43.7401 403.637 43.7484Z" fill="#D5435D" fill-opacity="0.5"/>
<path d="M310.181 34.3988C312.659 34.407 315.084 35.4266 315.597 36.676C316.11 37.9253 314.518 38.9315 312.04 38.9232C309.562 38.9149 307.137 37.8954 306.624 36.646C306.11 35.3966 307.703 34.3905 310.181 34.3988Z" fill="#D5435D" fill-opacity="0.5"/>
<path d="M328.129 34.4593C330.607 34.4676 333.031 35.4871 333.545 36.7365C334.058 37.9859 332.465 38.992 329.987 38.9837C327.509 38.9755 325.084 37.9559 324.571 36.7065C324.058 35.4572 325.651 34.451 328.129 34.4593Z" fill="#D5435D" fill-opacity="0.5"/>
<path d="M346.076 34.5189C348.554 34.5272 350.979 35.5467 351.492 36.7961C352.005 38.0455 350.412 39.0516 347.934 39.0433C345.456 39.035 343.031 38.0155 342.518 36.7661C342.005 35.5167 343.598 34.5106 346.076 34.5189Z" fill="#D5435D" fill-opacity="0.5"/>
<path d="M364.022 34.5785C366.5 34.5867 368.925 35.6063 369.438 36.8557C369.951 38.105 368.358 39.1112 365.88 39.1029C363.402 39.0946 360.978 38.0751 360.464 36.8257C359.951 35.5763 361.544 34.5702 364.022 34.5785Z" fill="#D5435D" fill-opacity="0.5"/>
<path d="M381.969 34.639C384.447 34.6473 386.872 35.6668 387.385 36.9162C387.899 38.1656 386.306 39.1717 383.828 39.1634C381.35 39.1551 378.925 38.1356 378.412 36.8862C377.899 35.6368 379.491 34.6307 381.969 34.639Z" fill="#D5435D" fill-opacity="0.5"/>
<path d="M399.921 34.6986C402.399 34.7069 404.823 35.7264 405.337 36.9758C405.85 38.2252 404.257 39.2313 401.779 39.223C399.301 39.2147 396.876 38.1952 396.363 36.9458C395.85 35.6964 397.443 34.6903 399.921 34.6986Z" fill="#D5435D" fill-opacity="0.5"/>
<path d="M417.867 34.7591C420.345 34.7674 422.77 35.7869 423.283 37.0363C423.796 38.2857 422.203 39.2918 419.725 39.2835C417.247 39.2753 414.822 38.2557 414.309 37.0063C413.796 35.757 415.389 34.7508 417.867 34.7591Z" fill="#D5435D" fill-opacity="0.5"/>
<path d="M306.464 25.3509C308.942 25.3592 311.367 26.3787 311.88 27.6281C312.394 28.8775 310.801 29.8836 308.323 29.8753C305.845 29.8671 303.42 28.8475 302.907 27.5981C302.394 26.3488 303.986 25.3426 306.464 25.3509Z" fill="#D5435D" fill-opacity="0.5"/>
<path d="M324.412 25.4105C326.89 25.4188 329.315 26.4383 329.828 27.6877C330.341 28.9371 328.748 29.9432 326.27 29.9349C323.792 29.9266 321.367 28.9071 320.854 27.6577C320.341 26.4083 321.934 25.4022 324.412 25.4105Z" fill="#D5435D" fill-opacity="0.5"/>
<path d="M342.359 25.4701C344.837 25.4783 347.262 26.4979 347.775 27.7473C348.288 28.9966 346.695 30.0028 344.217 29.9945C341.739 29.9862 339.314 28.9667 338.801 27.7173C338.288 26.4679 339.881 25.4618 342.359 25.4701Z" fill="#D5435D" fill-opacity="0.5"/>
<path d="M360.306 25.5306C362.784 25.5389 365.209 26.5584 365.722 27.8078C366.235 29.0572 364.643 30.0633 362.165 30.055C359.687 30.0467 357.262 29.0272 356.749 27.7778C356.235 26.5284 357.828 25.5223 360.306 25.5306Z" fill="#D5435D" fill-opacity="0.5"/>
<path d="M378.253 25.5902C380.731 25.5985 383.155 26.618 383.669 27.8674C384.182 29.1168 382.589 30.1229 380.111 30.1146C377.633 30.1063 375.208 29.0868 374.695 27.8374C374.182 26.588 375.775 25.5819 378.253 25.5902Z" fill="#D5435D" fill-opacity="0.5"/>
<path d="M396.204 25.6497C398.682 25.658 401.107 26.6776 401.62 27.9269C402.133 29.1763 400.54 30.1824 398.062 30.1742C395.584 30.1659 393.159 29.1464 392.646 27.897C392.133 26.6476 393.726 25.6415 396.204 25.6497Z" fill="#D5435D" fill-opacity="0.5"/>
<path d="M414.15 25.7103C416.628 25.7186 419.053 26.7381 419.566 27.9875C420.079 29.2369 418.486 30.243 416.008 30.2347C413.53 30.2264 411.105 29.2069 410.592 27.9575C410.079 26.7081 411.672 25.702 414.15 25.7103Z" fill="#D5435D" fill-opacity="0.5"/>
<path d="M432.097 25.7699C434.575 25.7781 437 26.7977 437.513 28.0471C438.026 29.2964 436.434 30.3026 433.956 30.2943C431.478 30.286 429.053 29.2665 428.54 28.0171C428.026 26.7677 429.619 25.7616 432.097 25.7699Z" fill="#D5435D" fill-opacity="0.5"/>
<path d="M302.749 16.3021C305.227 16.3104 307.651 17.3299 308.165 18.5793C308.678 19.8287 307.085 20.8348 304.607 20.8265C302.129 20.8182 299.704 19.7987 299.191 18.5493C298.678 17.2999 300.271 16.2938 302.749 16.3021Z" fill="#D5435D" fill-opacity="0.5"/>
<path d="M320.695 16.3617C323.173 16.3699 325.598 17.3895 326.111 18.6389C326.624 19.8882 325.031 20.8944 322.553 20.8861C320.075 20.8778 317.65 19.8583 317.137 18.6089C316.624 17.3595 318.217 16.3534 320.695 16.3617Z" fill="#D5435D" fill-opacity="0.5"/>
<path d="M338.642 16.4222C341.12 16.4305 343.545 17.45 344.058 18.6994C344.571 19.9488 342.979 20.9549 340.501 20.9466C338.022 20.9383 335.598 19.9188 335.085 18.6694C334.571 17.4201 336.164 16.4139 338.642 16.4222Z" fill="#D5435D" fill-opacity="0.5"/>
<path d="M356.589 16.4818C359.067 16.4901 361.492 17.5096 362.005 18.759C362.519 20.0084 360.926 21.0145 358.448 21.0062C355.97 20.9979 353.545 19.9784 353.032 18.729C352.519 17.4796 354.111 16.4735 356.589 16.4818Z" fill="#D5435D" fill-opacity="0.5"/>
<path d="M374.536 16.5414C377.014 16.5496 379.439 17.5692 379.952 18.8185C380.465 20.0679 378.872 21.074 376.394 21.0658C373.916 21.0575 371.491 20.038 370.978 18.7886C370.465 17.5392 372.058 16.5331 374.536 16.5414Z" fill="#D5435D" fill-opacity="0.5"/>
<path d="M392.487 16.6019C394.965 16.6102 397.39 17.6297 397.903 18.8791C398.416 20.1285 396.823 21.1346 394.345 21.1263C391.867 21.118 389.442 20.0985 388.929 18.8491C388.416 17.5997 390.009 16.5936 392.487 16.6019Z" fill="#D5435D" fill-opacity="0.5"/>
<path d="M410.434 16.6615C412.912 16.6697 415.337 17.6893 415.85 18.9387C416.363 20.188 414.771 21.1942 412.293 21.1859C409.814 21.1776 407.39 20.1581 406.877 18.9087C406.363 17.6593 407.956 16.6532 410.434 16.6615Z" fill="#D5435D" fill-opacity="0.5"/>
<path d="M428.38 16.721C430.859 16.7293 433.283 17.7488 433.796 18.9982C434.31 20.2476 432.717 21.2537 430.239 21.2455C427.761 21.2372 425.336 20.2176 424.823 18.9683C424.31 17.7189 425.902 16.7128 428.38 16.721Z" fill="#D5435D" fill-opacity="0.5"/>
<path d="M446.328 16.7816C448.806 16.7899 451.231 17.8094 451.744 19.0588C452.257 20.3082 450.664 21.3143 448.186 21.306C445.708 21.2977 443.283 20.2782 442.77 19.0288C442.257 17.7794 443.85 16.7733 446.328 16.7816Z" fill="#D5435D" fill-opacity="0.5"/>
</g>
<g clip-path="url(#clip1_175_9811)">
<path d="M422.136 88.8763C424.614 88.8846 427.039 89.9041 427.552 91.1535C428.065 92.4029 426.473 93.409 423.995 93.4007C421.517 93.3925 419.092 92.3729 418.579 91.1235C418.066 89.8742 419.658 88.868 422.136 88.8763Z" fill="#D5435D" fill-opacity="0.5"/>
<path d="M418.421 79.8275C420.899 79.8358 423.323 80.8553 423.837 82.1047C424.35 83.3541 422.757 84.3602 420.279 84.3519C417.801 84.3436 415.376 83.3241 414.863 82.0747C414.35 80.8253 415.943 79.8192 418.421 79.8275Z" fill="#D5435D" fill-opacity="0.5"/>
<path d="M436.367 79.888C438.845 79.8963 441.27 80.9158 441.783 82.1652C442.296 83.4146 440.703 84.4207 438.225 84.4124C435.747 84.4042 433.322 83.3846 432.809 82.1353C432.296 80.8859 433.889 79.8798 436.367 79.888Z" fill="#D5435D" fill-opacity="0.5"/>
<path d="M414.703 70.7787C417.181 70.7869 419.606 71.8065 420.119 73.0559C420.632 74.3052 419.039 75.3113 416.561 75.3031C414.083 75.2948 411.658 74.2753 411.145 73.0259C410.632 71.7765 412.225 70.7704 414.703 70.7787Z" fill="#D5435D" fill-opacity="0.5"/>
<path d="M432.65 70.8382C435.128 70.8465 437.553 71.866 438.066 73.1154C438.579 74.3648 436.986 75.3709 434.508 75.3626C432.03 75.3544 429.605 74.3348 429.092 73.0855C428.579 71.8361 430.172 70.83 432.65 70.8382Z" fill="#D5435D" fill-opacity="0.5"/>
<path d="M450.597 70.8978C453.075 70.9061 455.5 71.9256 456.013 73.175C456.526 74.4244 454.934 75.4305 452.456 75.4222C449.978 75.4139 447.553 74.3944 447.04 73.145C446.526 71.8956 448.119 70.8895 450.597 70.8978Z" fill="#D5435D" fill-opacity="0.5"/>
<path d="M410.987 61.7298C413.465 61.7381 415.89 62.7576 416.403 64.007C416.916 65.2564 415.323 66.2625 412.845 66.2542C410.367 66.246 407.942 65.2264 407.429 63.977C406.916 62.7277 408.509 61.7216 410.987 61.7298Z" fill="#D5435D" fill-opacity="0.5"/>
<path d="M428.933 61.7894C431.411 61.7977 433.836 62.8172 434.349 64.0666C434.862 65.316 433.27 66.3221 430.792 66.3138C428.314 66.3055 425.889 65.286 425.376 64.0366C424.862 62.7872 426.455 61.7811 428.933 61.7894Z" fill="#D5435D" fill-opacity="0.5"/>
<path d="M446.88 61.849C449.359 61.8572 451.783 62.8768 452.296 64.1262C452.81 65.3755 451.217 66.3817 448.739 66.3734C446.261 66.3651 443.836 65.3456 443.323 64.0962C442.81 62.8468 444.402 61.8407 446.88 61.849Z" fill="#D5435D" fill-opacity="0.5"/>
<path d="M464.828 61.9095C467.306 61.9178 469.731 62.9373 470.244 64.1867C470.757 65.4361 469.164 66.4422 466.686 66.4339C464.208 66.4257 461.783 65.4061 461.27 64.1567C460.757 62.9074 462.35 61.9012 464.828 61.9095Z" fill="#D5435D" fill-opacity="0.5"/>
<path d="M407.27 52.681C409.748 52.6893 412.173 53.7088 412.686 54.9582C413.199 56.2076 411.606 57.2137 409.128 57.2054C406.65 57.1971 404.226 56.1776 403.712 54.9282C403.199 53.6788 404.792 52.6727 407.27 52.681Z" fill="#D5435D" fill-opacity="0.5"/>
<path d="M425.216 52.7406C427.694 52.7488 430.119 53.7684 430.632 55.0178C431.146 56.2671 429.553 57.2733 427.075 57.265C424.597 57.2567 422.172 56.2372 421.659 54.9878C421.146 53.7384 422.738 52.7323 425.216 52.7406Z" fill="#D5435D" fill-opacity="0.5"/>
<path d="M443.165 52.8011C445.643 52.8094 448.068 53.8289 448.581 55.0783C449.094 56.3277 447.501 57.3338 445.023 57.3255C442.545 57.3173 440.12 56.2977 439.607 55.0483C439.094 53.799 440.687 52.7928 443.165 52.8011Z" fill="#D5435D" fill-opacity="0.5"/>
<path d="M461.111 52.8607C463.589 52.869 466.014 53.8885 466.527 55.1379C467.04 56.3873 465.447 57.3934 462.969 57.3851C460.491 57.3768 458.066 56.3573 457.553 55.1079C457.04 53.8585 458.633 52.8524 461.111 52.8607Z" fill="#D5435D" fill-opacity="0.5"/>
<path d="M479.058 52.9203C481.536 52.9285 483.961 53.9481 484.474 55.1975C484.987 56.4468 483.395 57.4529 480.917 57.4447C478.439 57.4364 476.014 56.4169 475.501 55.1675C474.987 53.9181 476.58 52.912 479.058 52.9203Z" fill="#D5435D" fill-opacity="0.5"/>
<path d="M403.553 43.6322C406.031 43.6404 408.456 44.66 408.969 45.9094C409.482 47.1587 407.89 48.1649 405.412 48.1566C402.934 48.1483 400.509 47.1288 399.996 45.8794C399.482 44.63 401.075 43.6239 403.553 43.6322Z" fill="#D5435D" fill-opacity="0.5"/>
<path d="M421.501 43.6917C423.979 43.7 426.403 44.7196 426.917 45.9689C427.43 47.2183 425.837 48.2244 423.359 48.2162C420.881 48.2079 418.456 47.1883 417.943 45.939C417.43 44.6896 419.023 43.6835 421.501 43.6917Z" fill="#D5435D" fill-opacity="0.5"/>
<path d="M439.448 43.7523C441.926 43.7606 444.351 44.7801 444.864 46.0295C445.377 47.2789 443.784 48.285 441.306 48.2767C438.828 48.2684 436.403 47.2489 435.89 45.9995C435.377 44.7501 436.97 43.744 439.448 43.7523Z" fill="#D5435D" fill-opacity="0.5"/>
<path d="M457.394 43.8119C459.872 43.8201 462.297 44.8397 462.81 46.0891C463.323 47.3384 461.73 48.3446 459.252 48.3363C456.774 48.328 454.35 47.3085 453.836 46.0591C453.323 44.8097 454.916 43.8036 457.394 43.8119Z" fill="#D5435D" fill-opacity="0.5"/>
<path d="M475.341 43.8724C477.819 43.8807 480.244 44.9002 480.757 46.1496C481.271 47.399 479.678 48.4051 477.2 48.3968C474.722 48.3885 472.297 47.369 471.784 46.1196C471.271 44.8702 472.863 43.8641 475.341 43.8724Z" fill="#D5435D" fill-opacity="0.5"/>
<path d="M493.293 43.932C495.771 43.9403 498.195 44.9598 498.709 46.2092C499.222 47.4586 497.629 48.4647 495.151 48.4564C492.673 48.4481 490.248 47.4286 489.735 46.1792C489.222 44.9298 490.815 43.9237 493.293 43.932Z" fill="#D5435D" fill-opacity="0.5"/>
<path d="M435.731 34.7025C438.209 34.7108 440.634 35.7303 441.147 36.9797C441.66 38.2291 440.067 39.2352 437.589 39.2269C435.111 39.2186 432.687 38.1991 432.173 36.9497C431.66 35.7003 433.253 34.6942 435.731 34.7025Z" fill="#D5435D" fill-opacity="0.5"/>
<path d="M453.677 34.7621C456.155 34.7703 458.58 35.7899 459.093 37.0392C459.607 38.2886 458.014 39.2947 455.536 39.2865C453.058 39.2782 450.633 38.2587 450.12 37.0093C449.607 35.7599 451.199 34.7538 453.677 34.7621Z" fill="#D5435D" fill-opacity="0.5"/>
<path d="M471.625 34.8226C474.103 34.8309 476.527 35.8504 477.041 37.0998C477.554 38.3492 475.961 39.3553 473.483 39.347C471.005 39.3387 468.58 38.3192 468.067 37.0698C467.554 35.8204 469.147 34.8143 471.625 34.8226Z" fill="#D5435D" fill-opacity="0.5"/>
<path d="M489.576 34.8822C492.054 34.8904 494.479 35.91 494.992 37.1594C495.505 38.4087 493.912 39.4149 491.434 39.4066C488.956 39.3983 486.531 38.3788 486.018 37.1294C485.505 35.88 487.098 34.8739 489.576 34.8822Z" fill="#D5435D" fill-opacity="0.5"/>
<path d="M507.522 34.9427C510 34.951 512.425 35.9705 512.938 37.2199C513.451 38.4693 511.858 39.4754 509.38 39.4671C506.902 39.4589 504.478 38.4393 503.964 37.1899C503.451 35.9406 505.044 34.9344 507.522 34.9427Z" fill="#D5435D" fill-opacity="0.5"/>
<path d="M449.962 25.7142C452.44 25.7225 454.864 26.742 455.378 27.9914C455.891 29.2408 454.298 30.2469 451.82 30.2386C449.342 30.2303 446.917 29.2108 446.404 27.9614C445.891 26.712 447.484 25.7059 449.962 25.7142Z" fill="#D5435D" fill-opacity="0.5"/>
<path d="M467.908 25.7738C470.386 25.782 472.811 26.8016 473.324 28.051C473.837 29.3003 472.244 30.3065 469.766 30.2982C467.288 30.2899 464.863 29.2704 464.35 28.021C463.837 26.7716 465.43 25.7655 467.908 25.7738Z" fill="#D5435D" fill-opacity="0.5"/>
<path d="M485.859 25.8333C488.337 25.8416 490.762 26.8612 491.275 28.1105C491.788 29.3599 490.195 30.366 487.717 30.3578C485.239 30.3495 482.814 29.3299 482.301 28.0806C481.788 26.8312 483.381 25.8251 485.859 25.8333Z" fill="#D5435D" fill-opacity="0.5"/>
<path d="M503.805 25.8939C506.283 25.9022 508.708 26.9217 509.221 28.1711C509.734 29.4205 508.142 30.4266 505.664 30.4183C503.186 30.41 500.761 29.3905 500.248 28.1411C499.734 26.8917 501.327 25.8856 503.805 25.8939Z" fill="#D5435D" fill-opacity="0.5"/>
<path d="M521.753 25.9535C524.231 25.9617 526.655 26.9813 527.169 28.2307C527.682 29.48 526.089 30.4862 523.611 30.4779C521.133 30.4696 518.708 29.4501 518.195 28.2007C517.682 26.9513 519.275 25.9452 521.753 25.9535Z" fill="#D5435D" fill-opacity="0.5"/>
<path d="M464.191 16.7249C466.669 16.7332 469.094 17.7528 469.607 19.0021C470.12 20.2515 468.527 21.2576 466.049 21.2494C463.571 21.2411 461.147 20.2216 460.633 18.9722C460.12 17.7228 461.713 16.7167 464.191 16.7249Z" fill="#D5435D" fill-opacity="0.5"/>
<path d="M482.142 16.7855C484.62 16.7938 487.045 17.8133 487.558 19.0627C488.071 20.3121 486.479 21.3182 484.001 21.3099C481.522 21.3016 479.098 20.2821 478.585 19.0327C478.071 17.7833 479.664 16.7772 482.142 16.7855Z" fill="#D5435D" fill-opacity="0.5"/>
<path d="M500.089 16.8451C502.567 16.8533 504.992 17.8729 505.505 19.1223C506.019 20.3716 504.426 21.3778 501.948 21.3695C499.47 21.3612 497.045 20.3417 496.532 19.0923C496.019 17.8429 497.611 16.8368 500.089 16.8451Z" fill="#D5435D" fill-opacity="0.5"/>
<path d="M518.036 16.9046C520.514 16.9129 522.939 17.9324 523.452 19.1818C523.965 20.4312 522.372 21.4373 519.894 21.429C517.416 21.4208 514.991 20.4012 514.478 19.1519C513.965 17.9025 515.558 16.8964 518.036 16.9046Z" fill="#D5435D" fill-opacity="0.5"/>
<path d="M535.983 16.9652C538.461 16.9735 540.886 17.993 541.399 19.2424C541.912 20.4918 540.319 21.4979 537.841 21.4896C535.363 21.4813 532.938 20.4618 532.425 19.2124C531.912 17.963 533.505 16.9569 535.983 16.9652Z" fill="#D5435D" fill-opacity="0.5"/>
</g>
<path d="M221.063 9.67092L216.597 12.4593L220.972 18.134L213.837 14.1826L209.371 16.971L209.427 11.7405L202.292 7.78912L209.462 8.5079L209.518 3.27742L213.893 8.95214L221.063 9.67092Z" fill="#9FFFEA"/>
<path d="M240.118 18.9696L236.87 20.9715L239.995 25.0249L234.863 22.2087L231.616 24.2106L231.692 20.4683L226.56 17.6521L231.738 18.1554L231.814 14.413L234.939 18.4664L240.118 18.9696Z" fill="#9FFFEA"/>
<path d="M224.59 29.6614L219.764 32.8699L224.92 39.558L216.781 34.8529L211.955 38.0615L211.751 31.9451L203.611 27.24L211.625 28.1649L211.421 22.0484L216.577 28.7365L224.59 29.6614Z" fill="#9FFFEA"/>
<path d="M733.67 76.0273L729.412 78.879L734.007 84.839L726.78 80.6415L722.521 83.4932L722.313 78.0473L715.086 73.8498L722.185 74.6816L721.977 69.2357L726.572 75.1956L733.67 76.0273Z" fill="#9FFFEA"/>
<path d="M752.906 85.9316L749.808 87.9785L753.091 92.2356L747.894 89.2436L744.796 91.2904L744.682 87.3944L739.485 84.4023L744.612 84.9865L744.498 81.0904L747.78 85.3475L752.906 85.9316Z" fill="#9FFFEA"/>
<path d="M738.15 96.8857L733.558 100.171L738.973 107.195L730.719 102.201L726.127 105.486L725.618 99.1147L717.365 94.1208L725.304 95.1769L724.795 88.8054L730.211 95.8296L738.15 96.8857Z" fill="#9FFFEA"/>
<path d="M455.519 444.603L448.002 447.345L451.085 451.344L443.357 449.04L435.84 451.782L438.58 447.616L430.851 445.311L440.273 445.041L443.014 440.874L446.097 444.873L455.519 444.603Z" fill="#9FFFEA"/>
<path d="M476.797 449.761L471.344 451.734L473.546 454.591L467.974 452.954L462.522 454.927L464.53 451.942L458.958 450.306L465.772 450.097L467.781 447.112L469.983 449.969L476.797 449.761Z" fill="#9FFFEA"/>
<path d="M450.154 460.089L441.931 463.207L445.565 467.92L436.849 465.135L428.626 468.253L431.462 463.413L422.747 460.627L433.215 460.422L436.051 455.581L439.685 460.294L450.154 460.089Z" fill="#9FFFEA"/>
<defs>
<clipPath id="clip0_175_9811">
<rect width="171.414" height="93.3976" fill="white" transform="matrix(-0.999982 -0.00333974 0.380058 0.925326 468.762 16.8564)"/>
</clipPath>
<clipPath id="clip1_175_9811">
<rect width="171.414" height="93.3976" fill="white" transform="matrix(-0.999982 -0.00333974 0.380058 0.925326 558.417 17.04)"/>
</clipPath>
</defs>
</svg>
