<svg width="761" height="719" viewBox="0 0 761 719" fill="none" xmlns="http://www.w3.org/2000/svg">
<path d="M319.245 100.696C277.265 100.696 243.234 68.4259 243.234 28.6191C243.234 28.6191 277.265 28.6196 319.245 28.6196C361.225 28.6196 395.256 28.6191 395.256 28.6191C395.256 68.4259 361.225 100.696 319.245 100.696Z" fill="#FAFF00" fill-opacity="0.5"/>
<g clip-path="url(#clip0_338_5208)">
<path d="M747.385 177.581C745.193 179.115 745.213 181.615 747.429 183.167C749.646 184.718 753.22 184.732 755.411 183.198C757.603 181.664 757.583 179.164 755.366 177.612C753.15 176.061 749.576 176.047 747.385 177.581Z" fill="#D5435D" fill-opacity="0.6"/>
<path d="M731.511 188.688C729.319 190.222 729.339 192.723 731.555 194.274C733.772 195.825 737.346 195.839 739.537 194.305C741.729 192.772 741.709 190.271 739.492 188.72C737.276 187.169 733.702 187.155 731.511 188.688Z" fill="#D5435D" fill-opacity="0.6"/>
<path d="M715.637 199.797C713.445 201.331 713.465 203.831 715.681 205.382C717.898 206.933 721.472 206.947 723.663 205.414C725.855 203.88 725.835 201.379 723.618 199.828C721.402 198.277 717.828 198.263 715.637 199.797Z" fill="#D5435D" fill-opacity="0.6"/>
<path d="M699.762 210.904C697.571 212.438 697.591 214.939 699.807 216.49C702.024 218.041 705.598 218.055 707.789 216.521C709.981 214.987 709.961 212.487 707.744 210.936C705.528 209.385 701.954 209.371 699.762 210.904Z" fill="#D5435D" fill-opacity="0.6"/>
<path d="M683.889 222.013C681.698 223.546 681.718 226.047 683.934 227.598C686.151 229.149 689.724 229.163 691.916 227.63C694.108 226.096 694.088 223.595 691.871 222.044C689.655 220.493 686.081 220.479 683.889 222.013Z" fill="#D5435D" fill-opacity="0.6"/>
<path d="M668.012 233.123C665.821 234.657 665.841 237.157 668.057 238.709C670.274 240.26 673.848 240.274 676.039 238.74C678.231 237.206 678.211 234.706 675.994 233.154C673.778 231.603 670.204 231.589 668.012 233.123Z" fill="#D5435D" fill-opacity="0.6"/>
<path d="M652.138 244.23C649.947 245.764 649.967 248.265 652.183 249.816C654.4 251.367 657.974 251.381 660.165 249.847C662.357 248.314 662.337 245.813 660.12 244.262C657.904 242.711 654.33 242.697 652.138 244.23Z" fill="#D5435D" fill-opacity="0.6"/>
<path d="M636.264 255.339C634.073 256.873 634.093 259.373 636.309 260.924C638.526 262.475 642.099 262.489 644.291 260.956C646.483 259.422 646.463 256.921 644.246 255.37C642.03 253.819 638.456 253.805 636.264 255.339Z" fill="#D5435D" fill-opacity="0.6"/>
<path d="M620.391 266.446C618.2 267.98 618.22 270.481 620.436 272.032C622.653 273.583 626.226 273.597 628.418 272.063C630.61 270.529 630.59 268.029 628.373 266.478C626.157 264.927 622.583 264.913 620.391 266.446Z" fill="#D5435D" fill-opacity="0.6"/>
<path d="M604.517 277.555C602.326 279.088 602.346 281.589 604.562 283.14C606.779 284.691 610.352 284.705 612.544 283.172C614.736 281.638 614.716 279.137 612.499 277.586C610.283 276.035 606.709 276.021 604.517 277.555Z" fill="#D5435D" fill-opacity="0.6"/>
<path d="M731.331 166.348C729.139 167.881 729.159 170.382 731.376 171.933C733.592 173.484 737.166 173.498 739.358 171.965C741.549 170.431 741.529 167.93 739.313 166.379C737.096 164.828 733.523 164.814 731.331 166.348Z" fill="#D5435D" fill-opacity="0.6"/>
<path d="M715.458 177.455C713.266 178.989 713.286 181.489 715.503 183.041C717.719 184.592 721.293 184.606 723.485 183.072C725.676 181.538 725.656 179.038 723.44 177.486C721.223 175.935 717.65 175.921 715.458 177.455Z" fill="#D5435D" fill-opacity="0.6"/>
<path d="M699.583 188.563C697.391 190.097 697.411 192.598 699.628 194.149C701.844 195.7 705.418 195.714 707.61 194.18C709.801 192.647 709.781 190.146 707.565 188.595C705.348 187.044 701.775 187.03 699.583 188.563Z" fill="#D5435D" fill-opacity="0.6"/>
<path d="M683.71 199.671C681.518 201.205 681.538 203.705 683.755 205.256C685.971 206.807 689.545 206.821 691.737 205.288C693.928 203.754 693.908 201.253 691.692 199.702C689.475 198.151 685.902 198.137 683.71 199.671Z" fill="#D5435D" fill-opacity="0.6"/>
<path d="M667.836 210.779C665.644 212.313 665.664 214.814 667.881 216.365C670.097 217.916 673.671 217.93 675.863 216.396C678.054 214.862 678.034 212.362 675.818 210.811C673.601 209.26 670.027 209.246 667.836 210.779Z" fill="#D5435D" fill-opacity="0.6"/>
<path d="M651.959 221.89C649.767 223.423 649.787 225.924 652.004 227.475C654.22 229.026 657.794 229.04 659.986 227.507C662.177 225.973 662.157 223.472 659.941 221.921C657.724 220.37 654.151 220.356 651.959 221.89Z" fill="#D5435D" fill-opacity="0.6"/>
<path d="M636.086 232.997C633.894 234.531 633.914 237.031 636.131 238.583C638.347 240.134 641.921 240.148 644.113 238.614C646.304 237.08 646.284 234.58 644.068 233.028C641.851 231.477 638.277 231.463 636.086 232.997Z" fill="#D5435D" fill-opacity="0.6"/>
<path d="M620.212 244.105C618.02 245.639 618.04 248.14 620.257 249.691C622.473 251.242 626.047 251.256 628.239 249.722C630.43 248.189 630.41 245.688 628.194 244.137C625.977 242.586 622.403 242.572 620.212 244.105Z" fill="#D5435D" fill-opacity="0.6"/>
<path d="M604.338 255.213C602.146 256.747 602.166 259.247 604.383 260.798C606.599 262.349 610.173 262.363 612.364 260.83C614.556 259.296 614.536 256.795 612.32 255.244C610.103 253.693 606.529 253.679 604.338 255.213Z" fill="#D5435D" fill-opacity="0.6"/>
<path d="M588.465 266.32C586.273 267.854 586.293 270.355 588.51 271.906C590.726 273.457 594.3 273.471 596.491 271.937C598.683 270.403 598.663 267.903 596.447 266.352C594.23 264.801 590.656 264.787 588.465 266.32Z" fill="#D5435D" fill-opacity="0.6"/>
<path d="M715.277 155.114C713.085 156.648 713.105 159.149 715.322 160.7C717.539 162.251 721.112 162.265 723.304 160.731C725.496 159.197 725.476 156.697 723.259 155.146C721.043 153.595 717.469 153.581 715.277 155.114Z" fill="#D5435D" fill-opacity="0.6"/>
<path d="M699.404 166.222C697.212 167.755 697.232 170.256 699.449 171.807C701.666 173.358 705.239 173.372 707.431 171.839C709.623 170.305 709.603 167.804 707.386 166.253C705.169 164.702 701.596 164.688 699.404 166.222Z" fill="#D5435D" fill-opacity="0.6"/>
<path d="M683.53 177.33C681.338 178.864 681.358 181.364 683.575 182.916C685.791 184.467 689.365 184.481 691.557 182.947C693.749 181.413 693.729 178.913 691.512 177.361C689.295 175.81 685.722 175.796 683.53 177.33Z" fill="#D5435D" fill-opacity="0.6"/>
<path d="M667.656 188.437C665.464 189.971 665.484 192.472 667.701 194.023C669.917 195.574 673.491 195.588 675.683 194.054C677.875 192.521 677.855 190.02 675.638 188.469C673.421 186.918 669.848 186.904 667.656 188.437Z" fill="#D5435D" fill-opacity="0.6"/>
<path d="M651.783 199.546C649.591 201.08 649.611 203.58 651.828 205.131C654.044 206.682 657.618 206.696 659.81 205.163C662.002 203.629 661.981 201.128 659.765 199.577C657.548 198.026 653.975 198.012 651.783 199.546Z" fill="#D5435D" fill-opacity="0.6"/>
<path d="M635.906 210.656C633.714 212.19 633.734 214.691 635.951 216.242C638.167 217.793 641.741 217.807 643.933 216.273C646.125 214.739 646.105 212.239 643.888 210.688C641.671 209.137 638.098 209.123 635.906 210.656Z" fill="#D5435D" fill-opacity="0.6"/>
<path d="M620.032 221.764C617.84 223.297 617.86 225.798 620.077 227.349C622.293 228.9 625.867 228.914 628.059 227.381C630.251 225.847 630.23 223.346 628.014 221.795C625.797 220.244 622.224 220.23 620.032 221.764Z" fill="#D5435D" fill-opacity="0.6"/>
<path d="M604.158 232.871C601.966 234.405 601.986 236.905 604.203 238.457C606.419 240.008 609.993 240.022 612.185 238.488C614.377 236.954 614.356 234.454 612.14 232.902C609.923 231.351 606.35 231.337 604.158 232.871Z" fill="#D5435D" fill-opacity="0.6"/>
<path d="M588.285 243.979C586.093 245.513 586.113 248.014 588.33 249.565C590.546 251.116 594.12 251.13 596.312 249.596C598.504 248.063 598.483 245.562 596.267 244.011C594.05 242.46 590.477 242.446 588.285 243.979Z" fill="#D5435D" fill-opacity="0.6"/>
<path d="M572.411 255.087C570.219 256.621 570.239 259.121 572.456 260.672C574.672 262.223 578.246 262.237 580.438 260.704C582.629 259.17 582.609 256.669 580.393 255.118C578.176 253.567 574.603 253.553 572.411 255.087Z" fill="#D5435D" fill-opacity="0.6"/>
<path d="M699.222 143.88C697.031 145.414 697.051 147.914 699.267 149.465C701.484 151.016 705.058 151.03 707.249 149.497C709.441 147.963 709.421 145.462 707.204 143.911C704.988 142.36 701.414 142.346 699.222 143.88Z" fill="#D5435D" fill-opacity="0.6"/>
<path d="M683.349 154.987C681.158 156.521 681.178 159.022 683.394 160.573C685.611 162.124 689.184 162.138 691.376 160.604C693.568 159.07 693.548 156.57 691.331 155.019C689.115 153.468 685.541 153.454 683.349 154.987Z" fill="#D5435D" fill-opacity="0.6"/>
<path d="M667.475 166.096C665.284 167.629 665.304 170.13 667.52 171.681C669.737 173.232 673.31 173.246 675.502 171.713C677.694 170.179 677.674 167.678 675.457 166.127C673.241 164.576 669.667 164.562 667.475 166.096Z" fill="#D5435D" fill-opacity="0.6"/>
<path d="M651.601 177.203C649.41 178.737 649.43 181.238 651.646 182.789C653.863 184.34 657.436 184.354 659.628 182.82C661.82 181.286 661.8 178.786 659.583 177.235C657.367 175.683 653.793 175.669 651.601 177.203Z" fill="#D5435D" fill-opacity="0.6"/>
<path d="M635.728 188.311C633.537 189.844 633.557 192.345 635.773 193.896C637.99 195.447 641.563 195.461 643.755 193.927C645.947 192.394 645.927 189.893 643.71 188.342C641.494 186.791 637.92 186.777 635.728 188.311Z" fill="#D5435D" fill-opacity="0.6"/>
<path d="M619.851 199.421C617.66 200.955 617.68 203.455 619.896 205.006C622.113 206.557 625.686 206.571 627.878 205.038C630.07 203.504 630.05 201.003 627.833 199.452C625.617 197.901 622.043 197.887 619.851 199.421Z" fill="#D5435D" fill-opacity="0.6"/>
<path d="M603.977 210.529C601.786 212.063 601.806 214.564 604.022 216.115C606.239 217.666 609.812 217.68 612.004 216.146C614.196 214.612 614.176 212.112 611.959 210.561C609.743 209.01 606.169 208.996 603.977 210.529Z" fill="#D5435D" fill-opacity="0.6"/>
<path d="M588.103 221.637C585.912 223.17 585.932 225.671 588.148 227.222C590.365 228.773 593.938 228.787 596.13 227.254C598.322 225.72 598.302 223.219 596.085 221.668C593.869 220.117 590.295 220.103 588.103 221.637Z" fill="#D5435D" fill-opacity="0.6"/>
<path d="M572.23 232.745C570.039 234.279 570.059 236.78 572.275 238.331C574.492 239.882 578.065 239.896 580.257 238.362C582.449 236.828 582.429 234.328 580.212 232.777C577.996 231.225 574.422 231.211 572.23 232.745Z" fill="#D5435D" fill-opacity="0.6"/>
<path d="M556.356 243.853C554.164 245.386 554.185 247.887 556.401 249.438C558.618 250.989 562.191 251.003 564.383 249.469C566.575 247.936 566.555 245.435 564.338 243.884C562.122 242.333 558.548 242.319 556.356 243.853Z" fill="#D5435D" fill-opacity="0.6"/>
<path d="M683.17 132.645C680.978 134.179 680.998 136.68 683.215 138.231C685.431 139.782 689.005 139.796 691.197 138.262C693.388 136.729 693.368 134.228 691.152 132.677C688.935 131.126 685.361 131.112 683.17 132.645Z" fill="#D5435D" fill-opacity="0.6"/>
<path d="M667.296 143.754C665.104 145.288 665.124 147.788 667.341 149.339C669.557 150.89 673.131 150.904 675.322 149.371C677.514 147.837 677.494 145.336 675.278 143.785C673.061 142.234 669.487 142.22 667.296 143.754Z" fill="#D5435D" fill-opacity="0.6"/>
<path d="M651.422 154.862C649.23 156.396 649.25 158.897 651.467 160.448C653.683 161.999 657.257 162.013 659.448 160.479C661.64 158.945 661.62 156.445 659.404 154.894C657.187 153.343 653.613 153.329 651.422 154.862Z" fill="#D5435D" fill-opacity="0.6"/>
<path d="M635.549 165.97C633.357 167.503 633.377 170.004 635.593 171.555C637.81 173.106 641.384 173.12 643.575 171.587C645.767 170.053 645.747 167.552 643.531 166.001C641.314 164.45 637.74 164.436 635.549 165.97Z" fill="#D5435D" fill-opacity="0.6"/>
<path d="M619.675 177.077C617.483 178.611 617.503 181.112 619.719 182.663C621.936 184.214 625.51 184.228 627.701 182.694C629.893 181.16 629.873 178.66 627.657 177.109C625.44 175.557 621.866 175.543 619.675 177.077Z" fill="#D5435D" fill-opacity="0.6"/>
<path d="M603.798 188.187C601.606 189.721 601.626 192.222 603.843 193.773C606.059 195.324 609.633 195.338 611.824 193.804C614.016 192.271 613.996 189.77 611.78 188.219C609.563 186.668 605.989 186.654 603.798 188.187Z" fill="#D5435D" fill-opacity="0.6"/>
<path d="M587.924 199.296C585.732 200.83 585.752 203.33 587.968 204.881C590.185 206.432 593.759 206.446 595.95 204.913C598.142 203.379 598.122 200.878 595.906 199.327C593.689 197.776 590.115 197.762 587.924 199.296Z" fill="#D5435D" fill-opacity="0.6"/>
<path d="M572.051 210.403C569.859 211.937 569.879 214.438 572.095 215.989C574.312 217.54 577.886 217.554 580.077 216.02C582.269 214.486 582.249 211.986 580.032 210.435C577.816 208.884 574.242 208.87 572.051 210.403Z" fill="#D5435D" fill-opacity="0.6"/>
<path d="M556.177 221.512C553.985 223.045 554.005 225.546 556.221 227.097C558.438 228.648 562.012 228.662 564.203 227.129C566.395 225.595 566.375 223.094 564.158 221.543C561.942 219.992 558.368 219.978 556.177 221.512Z" fill="#D5435D" fill-opacity="0.6"/>
<path d="M540.303 232.619C538.111 234.153 538.131 236.654 540.347 238.205C542.564 239.756 546.138 239.77 548.329 238.236C550.521 236.702 550.501 234.202 548.284 232.651C546.068 231.099 542.494 231.085 540.303 232.619Z" fill="#D5435D" fill-opacity="0.6"/>
<path d="M667.116 121.412C664.924 122.946 664.944 125.447 667.161 126.998C669.377 128.549 672.951 128.563 675.143 127.029C677.335 125.495 677.314 122.995 675.098 121.444C672.881 119.892 669.308 119.878 667.116 121.412Z" fill="#D5435D" fill-opacity="0.6"/>
<path d="M651.243 132.52C649.051 134.054 649.071 136.555 651.288 138.106C653.504 139.657 657.078 139.671 659.27 138.137C661.462 136.604 661.441 134.103 659.225 132.552C657.008 131.001 653.435 130.987 651.243 132.52Z" fill="#D5435D" fill-opacity="0.6"/>
<path d="M635.369 143.629C633.177 145.163 633.197 147.663 635.414 149.214C637.63 150.765 641.204 150.779 643.396 149.246C645.587 147.712 645.567 145.211 643.351 143.66C641.134 142.109 637.561 142.095 635.369 143.629Z" fill="#D5435D" fill-opacity="0.6"/>
<path d="M619.495 154.736C617.303 156.27 617.323 158.771 619.54 160.322C621.756 161.873 625.33 161.887 627.522 160.353C629.713 158.819 629.693 156.319 627.477 154.768C625.26 153.217 621.687 153.203 619.495 154.736Z" fill="#D5435D" fill-opacity="0.6"/>
<path d="M603.622 165.844C601.43 167.377 601.45 169.878 603.667 171.429C605.883 172.98 609.457 172.994 611.649 171.461C613.84 169.927 613.82 167.426 611.604 165.875C609.387 164.324 605.814 164.31 603.622 165.844Z" fill="#D5435D" fill-opacity="0.6"/>
<path d="M587.744 176.954C585.552 178.488 585.572 180.989 587.789 182.54C590.005 184.091 593.579 184.105 595.771 182.571C597.962 181.037 597.942 178.537 595.726 176.986C593.509 175.434 589.936 175.42 587.744 176.954Z" fill="#D5435D" fill-opacity="0.6"/>
<path d="M571.871 188.062C569.679 189.596 569.699 192.097 571.916 193.648C574.132 195.199 577.706 195.213 579.898 193.679C582.089 192.146 582.069 189.645 579.853 188.094C577.636 186.543 574.063 186.529 571.871 188.062Z" fill="#D5435D" fill-opacity="0.6"/>
<path d="M555.997 199.17C553.805 200.704 553.825 203.204 556.042 204.755C558.258 206.306 561.832 206.321 564.024 204.787C566.215 203.253 566.195 200.752 563.979 199.201C561.762 197.65 558.189 197.636 555.997 199.17Z" fill="#D5435D" fill-opacity="0.6"/>
<path d="M540.123 210.277C537.931 211.811 537.951 214.312 540.168 215.863C542.384 217.414 545.958 217.428 548.15 215.894C550.341 214.361 550.321 211.86 548.105 210.309C545.888 208.758 542.315 208.744 540.123 210.277Z" fill="#D5435D" fill-opacity="0.6"/>
<path d="M524.25 221.386C522.058 222.919 522.078 225.42 524.295 226.971C526.511 228.522 530.085 228.536 532.277 227.003C534.468 225.469 534.448 222.968 532.232 221.417C530.015 219.866 526.442 219.852 524.25 221.386Z" fill="#D5435D" fill-opacity="0.6"/>
<path d="M651.063 110.179C648.872 111.712 648.892 114.213 651.108 115.764C653.325 117.315 656.898 117.329 659.09 115.796C661.282 114.262 661.262 111.761 659.045 110.21C656.829 108.659 653.255 108.645 651.063 110.179Z" fill="#D5435D" fill-opacity="0.6"/>
<path d="M635.189 121.287C632.997 122.821 633.018 125.322 635.234 126.873C637.451 128.424 641.024 128.438 643.216 126.904C645.408 125.37 645.388 122.87 643.171 121.319C640.955 119.767 637.381 119.753 635.189 121.287Z" fill="#D5435D" fill-opacity="0.6"/>
<path d="M619.315 132.395C617.123 133.928 617.144 136.429 619.36 137.98C621.577 139.531 625.15 139.545 627.342 138.011C629.534 136.478 629.514 133.977 627.297 132.426C625.081 130.875 621.507 130.861 619.315 132.395Z" fill="#D5435D" fill-opacity="0.6"/>
<path d="M603.442 143.503C601.25 145.037 601.271 147.537 603.487 149.088C605.704 150.639 609.277 150.654 611.469 149.12C613.661 147.586 613.641 145.085 611.424 143.534C609.208 141.983 605.634 141.969 603.442 143.503Z" fill="#D5435D" fill-opacity="0.6"/>
<path d="M587.568 154.61C585.376 156.144 585.396 158.645 587.613 160.196C589.83 161.747 593.403 161.761 595.595 160.227C597.787 158.694 597.767 156.193 595.55 154.642C593.334 153.091 589.76 153.077 587.568 154.61Z" fill="#D5435D" fill-opacity="0.6"/>
<path d="M571.691 165.721C569.499 167.254 569.52 169.755 571.736 171.306C573.953 172.857 577.526 172.871 579.718 171.338C581.91 169.804 581.89 167.303 579.673 165.752C577.457 164.201 573.883 164.187 571.691 165.721Z" fill="#D5435D" fill-opacity="0.6"/>
<path d="M555.817 176.828C553.625 178.362 553.646 180.863 555.862 182.414C558.079 183.965 561.652 183.979 563.844 182.445C566.036 180.911 566.016 178.411 563.799 176.86C561.583 175.308 558.009 175.294 555.817 176.828Z" fill="#D5435D" fill-opacity="0.6"/>
<path d="M539.943 187.937C537.751 189.47 537.771 191.971 539.988 193.522C542.205 195.073 545.778 195.087 547.97 193.553C550.162 192.02 550.142 189.519 547.925 187.968C545.709 186.417 542.135 186.403 539.943 187.937Z" fill="#D5435D" fill-opacity="0.6"/>
<path d="M524.07 199.044C521.878 200.578 521.898 203.078 524.115 204.629C526.332 206.18 529.905 206.195 532.097 204.661C534.289 203.127 534.269 200.626 532.052 199.075C529.835 197.524 526.262 197.51 524.07 199.044Z" fill="#D5435D" fill-opacity="0.6"/>
<path d="M508.196 210.152C506.004 211.686 506.024 214.187 508.241 215.738C510.458 217.289 514.031 217.303 516.223 215.769C518.415 214.236 518.395 211.735 516.178 210.184C513.961 208.633 510.388 208.619 508.196 210.152Z" fill="#D5435D" fill-opacity="0.6"/>
<path d="M635.008 98.9443C632.816 100.478 632.836 102.979 635.052 104.53C637.269 106.081 640.843 106.095 643.034 104.561C645.226 103.027 645.206 100.527 642.99 98.9757C640.773 97.4247 637.199 97.4106 635.008 98.9443Z" fill="#D5435D" fill-opacity="0.6"/>
<path d="M619.135 110.052C616.943 111.585 616.963 114.086 619.179 115.637C621.396 117.188 624.97 117.202 627.161 115.669C629.353 114.135 629.333 111.634 627.116 110.083C624.9 108.532 621.326 108.518 619.135 110.052Z" fill="#D5435D" fill-opacity="0.6"/>
<path d="M603.261 121.16C601.069 122.694 601.089 125.195 603.305 126.746C605.522 128.297 609.096 128.311 611.287 126.777C613.479 125.243 613.459 122.743 611.242 121.192C609.026 119.641 605.452 119.626 603.261 121.16Z" fill="#D5435D" fill-opacity="0.6"/>
<path d="M587.387 132.268C585.195 133.801 585.215 136.302 587.431 137.853C589.648 139.404 593.222 139.418 595.413 137.884C597.605 136.351 597.585 133.85 595.368 132.299C593.152 130.748 589.578 130.734 587.387 132.268Z" fill="#D5435D" fill-opacity="0.6"/>
<path d="M571.513 143.376C569.322 144.91 569.342 147.41 571.558 148.961C573.775 150.512 577.349 150.527 579.54 148.993C581.732 147.459 581.712 144.958 579.495 143.407C577.279 141.856 573.705 141.842 571.513 143.376Z" fill="#D5435D" fill-opacity="0.6"/>
<path d="M555.637 154.486C553.445 156.02 553.465 158.521 555.681 160.072C557.898 161.623 561.472 161.637 563.663 160.103C565.855 158.569 565.835 156.069 563.618 154.518C561.402 152.967 557.828 152.953 555.637 154.486Z" fill="#D5435D" fill-opacity="0.6"/>
<path d="M539.762 165.594C537.571 167.127 537.591 169.628 539.807 171.179C542.024 172.73 545.598 172.744 547.789 171.211C549.981 169.677 549.961 167.176 547.744 165.625C545.528 164.074 541.954 164.06 539.762 165.594Z" fill="#D5435D" fill-opacity="0.6"/>
<path d="M523.888 176.702C521.697 178.236 521.717 180.737 523.933 182.288C526.15 183.839 529.724 183.853 531.915 182.319C534.107 180.785 534.087 178.285 531.87 176.734C529.654 175.182 526.08 175.168 523.888 176.702Z" fill="#D5435D" fill-opacity="0.6"/>
<path d="M508.015 187.81C505.824 189.343 505.844 191.844 508.06 193.395C510.277 194.946 513.85 194.96 516.042 193.426C518.234 191.893 518.214 189.392 515.997 187.841C513.781 186.29 510.207 186.276 508.015 187.81Z" fill="#D5435D" fill-opacity="0.6"/>
<path d="M492.141 198.917C489.95 200.451 489.97 202.951 492.186 204.502C494.403 206.054 497.976 206.068 500.168 204.534C502.36 203 502.34 200.499 500.123 198.948C497.907 197.397 494.333 197.383 492.141 198.917Z" fill="#D5435D" fill-opacity="0.6"/>
<path d="M618.955 87.7109C616.763 89.2446 616.783 91.7453 619 93.2964C621.216 94.8475 624.79 94.8615 626.982 93.3278C629.173 91.7941 629.153 89.2934 626.937 87.7423C624.72 86.1913 621.147 86.1772 618.955 87.7109Z" fill="#D5435D" fill-opacity="0.6"/>
<path d="M603.082 98.8183C600.89 100.352 600.91 102.853 603.127 104.404C605.343 105.955 608.917 105.969 611.109 104.435C613.3 102.902 613.28 100.401 611.064 98.8498C608.847 97.2987 605.274 97.2846 603.082 98.8183Z" fill="#D5435D" fill-opacity="0.6"/>
<path d="M587.207 109.927C585.015 111.46 585.035 113.961 587.252 115.512C589.468 117.063 593.042 117.077 595.234 115.544C597.425 114.01 597.405 111.509 595.189 109.958C592.972 108.407 589.399 108.393 587.207 109.927Z" fill="#D5435D" fill-opacity="0.6"/>
<path d="M571.334 121.034C569.142 122.568 569.162 125.069 571.379 126.62C573.595 128.171 577.169 128.185 579.361 126.651C581.552 125.117 581.532 122.617 579.316 121.066C577.099 119.515 573.526 119.5 571.334 121.034Z" fill="#D5435D" fill-opacity="0.6"/>
<path d="M555.46 132.143C553.268 133.676 553.288 136.177 555.505 137.728C557.721 139.279 561.295 139.293 563.487 137.759C565.678 136.226 565.658 133.725 563.442 132.174C561.225 130.623 557.651 130.609 555.46 132.143Z" fill="#D5435D" fill-opacity="0.6"/>
<path d="M539.583 143.253C537.391 144.787 537.411 147.287 539.628 148.838C541.844 150.389 545.418 150.404 547.61 148.87C549.801 147.336 549.781 144.835 547.565 143.284C545.348 141.733 541.775 141.719 539.583 143.253Z" fill="#D5435D" fill-opacity="0.6"/>
<path d="M523.709 154.36C521.517 155.894 521.537 158.395 523.754 159.946C525.97 161.497 529.544 161.511 531.736 159.977C533.927 158.444 533.907 155.943 531.691 154.392C529.474 152.841 525.901 152.827 523.709 154.36Z" fill="#D5435D" fill-opacity="0.6"/>
<path d="M507.836 165.468C505.644 167.001 505.664 169.502 507.881 171.053C510.097 172.604 513.671 172.618 515.863 171.085C518.054 169.551 518.034 167.05 515.818 165.499C513.601 163.948 510.027 163.934 507.836 165.468Z" fill="#D5435D" fill-opacity="0.6"/>
<path d="M491.962 176.576C489.77 178.11 489.79 180.611 492.007 182.162C494.223 183.713 497.797 183.727 499.989 182.193C502.18 180.659 502.16 178.159 499.944 176.608C497.727 175.057 494.153 175.042 491.962 176.576Z" fill="#D5435D" fill-opacity="0.6"/>
<path d="M476.088 187.684C473.896 189.217 473.916 191.718 476.133 193.269C478.349 194.82 481.923 194.834 484.114 193.3C486.306 191.767 486.286 189.266 484.07 187.715C481.853 186.164 478.279 186.15 476.088 187.684Z" fill="#D5435D" fill-opacity="0.6"/>
<path d="M602.901 76.4775C600.709 78.0112 600.729 80.5119 602.946 82.063C605.163 83.6141 608.736 83.6281 610.928 82.0944C613.12 80.5607 613.1 78.06 610.883 76.5089C608.667 74.9579 605.093 74.9438 602.901 76.4775Z" fill="#D5435D" fill-opacity="0.6"/>
<path d="M587.028 87.5849C584.836 89.1187 584.856 91.6194 587.073 93.1704C589.29 94.7215 592.863 94.7355 595.055 93.2018C597.247 91.6681 597.227 89.1674 595.01 87.6164C592.793 86.0653 589.22 86.0512 587.028 87.5849Z" fill="#D5435D" fill-opacity="0.6"/>
<path d="M571.154 98.6933C568.962 100.227 568.982 102.728 571.199 104.279C573.416 105.83 576.989 105.844 579.181 104.31C581.373 102.777 581.353 100.276 579.136 98.7248C576.919 97.1737 573.346 97.1596 571.154 98.6933Z" fill="#D5435D" fill-opacity="0.6"/>
<path d="M555.28 109.801C553.088 111.334 553.108 113.835 555.325 115.386C557.541 116.937 561.115 116.951 563.307 115.418C565.499 113.884 565.479 111.383 563.262 109.832C561.045 108.281 557.472 108.267 555.28 109.801Z" fill="#D5435D" fill-opacity="0.6"/>
<path d="M539.407 120.909C537.215 122.443 537.235 124.944 539.452 126.495C541.668 128.046 545.242 128.06 547.434 126.526C549.626 124.992 549.605 122.492 547.389 120.941C545.172 119.39 541.599 119.375 539.407 120.909Z" fill="#D5435D" fill-opacity="0.6"/>
<path d="M523.529 132.019C521.337 133.552 521.357 136.053 523.574 137.604C525.791 139.155 529.364 139.169 531.556 137.635C533.748 136.102 533.728 133.601 531.511 132.05C529.294 130.499 525.721 130.485 523.529 132.019Z" fill="#D5435D" fill-opacity="0.6"/>
<path d="M507.656 143.127C505.464 144.661 505.484 147.161 507.701 148.712C509.917 150.263 513.491 150.278 515.683 148.744C517.875 147.21 517.855 144.709 515.638 143.158C513.421 141.607 509.848 141.593 507.656 143.127Z" fill="#D5435D" fill-opacity="0.6"/>
<path d="M491.782 154.234C489.59 155.768 489.61 158.269 491.827 159.82C494.043 161.371 497.617 161.385 499.809 159.851C502.001 158.318 501.98 155.817 499.764 154.266C497.547 152.715 493.974 152.701 491.782 154.234Z" fill="#D5435D" fill-opacity="0.6"/>
<path d="M475.908 165.343C473.716 166.876 473.736 169.377 475.953 170.928C478.169 172.479 481.743 172.493 483.935 170.96C486.127 169.426 486.106 166.925 483.89 165.374C481.673 163.823 478.1 163.809 475.908 165.343Z" fill="#D5435D" fill-opacity="0.6"/>
<path d="M460.035 176.45C457.843 177.984 457.863 180.485 460.08 182.036C462.296 183.587 465.87 183.601 468.062 182.067C470.254 180.533 470.233 178.033 468.017 176.482C465.8 174.931 462.227 174.916 460.035 176.45Z" fill="#D5435D" fill-opacity="0.6"/>
</g>
<g opacity="0.7" clip-path="url(#clip1_338_5208)">
<path d="M213.196 535.216C213.196 538.02 214.578 540.294 216.284 540.294C217.99 540.294 219.373 538.02 219.373 535.216C219.373 532.411 217.99 530.138 216.284 530.138C214.578 530.138 213.196 532.411 213.196 535.216Z" fill="#E1EAF1"/>
<path d="M213.196 555.071C213.196 557.876 214.578 560.149 216.284 560.149C217.99 560.149 219.373 557.876 219.373 555.071C219.373 552.267 217.99 549.993 216.284 549.993C214.578 549.993 213.196 552.267 213.196 555.071Z" fill="#E1EAF1"/>
<path d="M213.196 574.928C213.196 577.732 214.578 580.006 216.284 580.006C217.99 580.006 219.373 577.732 219.373 574.928C219.373 572.123 217.99 569.85 216.284 569.85C214.578 569.85 213.196 572.123 213.196 574.928Z" fill="#E1EAF1"/>
<path d="M213.196 594.784C213.196 597.589 214.578 599.862 216.284 599.862C217.99 599.862 219.373 597.589 219.373 594.784C219.373 591.98 217.99 589.706 216.284 589.706C214.578 589.706 213.196 591.98 213.196 594.784Z" fill="#E1EAF1"/>
<path d="M213.196 614.641C213.196 617.445 214.578 619.719 216.284 619.719C217.99 619.719 219.373 617.445 219.373 614.641C219.373 611.836 217.99 609.562 216.284 609.562C214.578 609.562 213.196 611.836 213.196 614.641Z" fill="#E1EAF1"/>
<path d="M213.196 634.497C213.196 637.302 214.578 639.575 216.284 639.575C217.99 639.575 219.373 637.302 219.373 634.497C219.373 631.692 217.99 629.419 216.284 629.419C214.578 629.419 213.196 631.692 213.196 634.497Z" fill="#E1EAF1"/>
<path d="M213.196 654.354C213.196 657.158 214.578 659.432 216.284 659.432C217.99 659.432 219.373 657.158 219.373 654.354C219.373 651.549 217.99 649.275 216.284 649.275C214.578 649.275 213.196 651.549 213.196 654.354Z" fill="#E1EAF1"/>
<path d="M213.196 674.209C213.196 677.014 214.578 679.287 216.284 679.287C217.99 679.287 219.373 677.014 219.373 674.209C219.373 671.404 217.99 669.131 216.284 669.131C214.578 669.131 213.196 671.404 213.196 674.209Z" fill="#E1EAF1"/>
<path d="M213.196 694.065C213.196 696.87 214.578 699.144 216.284 699.144C217.99 699.144 219.373 696.87 219.373 694.065C219.373 691.261 217.99 688.987 216.284 688.987C214.578 688.987 213.196 691.261 213.196 694.065Z" fill="#E1EAF1"/>
<path d="M213.196 713.922C213.196 716.726 214.578 719 216.284 719C217.99 719 219.373 716.726 219.373 713.922C219.373 711.117 217.99 708.844 216.284 708.844C214.578 708.844 213.196 711.117 213.196 713.922Z" fill="#E1EAF1"/>
<path d="M200.839 535.216C200.839 538.02 202.222 540.294 203.928 540.294C205.634 540.294 207.017 538.02 207.017 535.216C207.017 532.411 205.634 530.138 203.928 530.138C202.222 530.138 200.839 532.411 200.839 535.216Z" fill="#E1EAF1"/>
<path d="M200.839 555.071C200.839 557.876 202.222 560.149 203.928 560.149C205.634 560.149 207.017 557.876 207.017 555.071C207.017 552.267 205.634 549.993 203.928 549.993C202.222 549.993 200.839 552.267 200.839 555.071Z" fill="#E1EAF1"/>
<path d="M200.839 574.928C200.839 577.732 202.222 580.006 203.928 580.006C205.634 580.006 207.017 577.732 207.017 574.928C207.017 572.123 205.634 569.85 203.928 569.85C202.222 569.85 200.839 572.123 200.839 574.928Z" fill="#E1EAF1"/>
<path d="M200.839 594.784C200.839 597.589 202.222 599.862 203.928 599.862C205.634 599.862 207.017 597.589 207.017 594.784C207.017 591.98 205.634 589.706 203.928 589.706C202.222 589.706 200.839 591.98 200.839 594.784Z" fill="#E1EAF1"/>
<path d="M200.839 614.641C200.839 617.445 202.222 619.719 203.928 619.719C205.634 619.719 207.017 617.445 207.017 614.641C207.017 611.836 205.634 609.562 203.928 609.562C202.222 609.562 200.839 611.836 200.839 614.641Z" fill="#E1EAF1"/>
<path d="M200.839 634.497C200.839 637.302 202.222 639.575 203.928 639.575C205.634 639.575 207.017 637.302 207.017 634.497C207.017 631.692 205.634 629.419 203.928 629.419C202.222 629.419 200.839 631.692 200.839 634.497Z" fill="#E1EAF1"/>
<path d="M200.839 654.354C200.839 657.158 202.222 659.432 203.928 659.432C205.634 659.432 207.017 657.158 207.017 654.354C207.017 651.549 205.634 649.275 203.928 649.275C202.222 649.275 200.839 651.549 200.839 654.354Z" fill="#E1EAF1"/>
<path d="M200.839 674.209C200.839 677.014 202.222 679.287 203.928 679.287C205.634 679.287 207.017 677.014 207.017 674.209C207.017 671.404 205.634 669.131 203.928 669.131C202.222 669.131 200.839 671.404 200.839 674.209Z" fill="#E1EAF1"/>
<path d="M200.839 694.065C200.839 696.87 202.222 699.144 203.928 699.144C205.634 699.144 207.017 696.87 207.017 694.065C207.017 691.261 205.634 688.987 203.928 688.987C202.222 688.987 200.839 691.261 200.839 694.065Z" fill="#E1EAF1"/>
<path d="M200.839 713.922C200.839 716.726 202.222 719 203.928 719C205.634 719 207.017 716.726 207.017 713.922C207.017 711.117 205.634 708.844 203.928 708.844C202.222 708.844 200.839 711.117 200.839 713.922Z" fill="#E1EAF1"/>
<path d="M188.486 535.216C188.486 538.02 189.868 540.294 191.574 540.294C193.28 540.294 194.663 538.02 194.663 535.216C194.663 532.411 193.28 530.138 191.574 530.138C189.868 530.138 188.486 532.411 188.486 535.216Z" fill="#E1EAF1"/>
<path d="M188.486 555.071C188.486 557.876 189.868 560.149 191.574 560.149C193.28 560.149 194.663 557.876 194.663 555.071C194.663 552.267 193.28 549.993 191.574 549.993C189.868 549.993 188.486 552.267 188.486 555.071Z" fill="#E1EAF1"/>
<path d="M188.486 574.928C188.486 577.732 189.868 580.006 191.574 580.006C193.28 580.006 194.663 577.732 194.663 574.928C194.663 572.123 193.28 569.85 191.574 569.85C189.868 569.85 188.486 572.123 188.486 574.928Z" fill="#E1EAF1"/>
<path d="M188.486 594.784C188.486 597.589 189.868 599.862 191.574 599.862C193.28 599.862 194.663 597.589 194.663 594.784C194.663 591.98 193.28 589.706 191.574 589.706C189.868 589.706 188.486 591.98 188.486 594.784Z" fill="#E1EAF1"/>
<path d="M188.486 614.641C188.486 617.445 189.868 619.719 191.574 619.719C193.28 619.719 194.663 617.445 194.663 614.641C194.663 611.836 193.28 609.562 191.574 609.562C189.868 609.562 188.486 611.836 188.486 614.641Z" fill="#E1EAF1"/>
<path d="M188.486 634.497C188.486 637.302 189.868 639.575 191.574 639.575C193.28 639.575 194.663 637.302 194.663 634.497C194.663 631.692 193.28 629.419 191.574 629.419C189.868 629.419 188.486 631.692 188.486 634.497Z" fill="#E1EAF1"/>
<path d="M188.486 654.354C188.486 657.158 189.868 659.432 191.574 659.432C193.28 659.432 194.663 657.158 194.663 654.354C194.663 651.549 193.28 649.275 191.574 649.275C189.868 649.275 188.486 651.549 188.486 654.354Z" fill="#E1EAF1"/>
<path d="M188.486 674.209C188.486 677.014 189.868 679.287 191.574 679.287C193.28 679.287 194.663 677.014 194.663 674.209C194.663 671.404 193.28 669.131 191.574 669.131C189.868 669.131 188.486 671.404 188.486 674.209Z" fill="#E1EAF1"/>
<path d="M188.486 694.065C188.486 696.87 189.868 699.144 191.574 699.144C193.28 699.144 194.663 696.87 194.663 694.065C194.663 691.261 193.28 688.987 191.574 688.987C189.868 688.987 188.486 691.261 188.486 694.065Z" fill="#E1EAF1"/>
<path d="M188.486 713.922C188.486 716.726 189.868 719 191.574 719C193.28 719 194.663 716.726 194.663 713.922C194.663 711.117 193.28 708.844 191.574 708.844C189.868 708.844 188.486 711.117 188.486 713.922Z" fill="#E1EAF1"/>
<path d="M176.13 535.216C176.13 538.02 177.513 540.294 179.219 540.294C180.925 540.294 182.308 538.02 182.308 535.216C182.308 532.411 180.925 530.138 179.219 530.138C177.513 530.138 176.13 532.411 176.13 535.216Z" fill="#E1EAF1"/>
<path d="M176.13 555.071C176.13 557.876 177.513 560.149 179.219 560.149C180.925 560.149 182.308 557.876 182.308 555.071C182.308 552.267 180.925 549.993 179.219 549.993C177.513 549.993 176.13 552.267 176.13 555.071Z" fill="#E1EAF1"/>
<path d="M176.13 574.928C176.13 577.732 177.513 580.006 179.219 580.006C180.925 580.006 182.308 577.732 182.308 574.928C182.308 572.123 180.925 569.85 179.219 569.85C177.513 569.85 176.13 572.123 176.13 574.928Z" fill="#E1EAF1"/>
<path d="M176.13 594.784C176.13 597.589 177.513 599.862 179.219 599.862C180.925 599.862 182.308 597.589 182.308 594.784C182.308 591.98 180.925 589.706 179.219 589.706C177.513 589.706 176.13 591.98 176.13 594.784Z" fill="#E1EAF1"/>
<path d="M176.13 614.641C176.13 617.445 177.513 619.719 179.219 619.719C180.925 619.719 182.308 617.445 182.308 614.641C182.308 611.836 180.925 609.562 179.219 609.562C177.513 609.562 176.13 611.836 176.13 614.641Z" fill="#E1EAF1"/>
<path d="M176.13 634.497C176.13 637.302 177.513 639.575 179.219 639.575C180.925 639.575 182.308 637.302 182.308 634.497C182.308 631.692 180.925 629.419 179.219 629.419C177.513 629.419 176.13 631.692 176.13 634.497Z" fill="#E1EAF1"/>
<path d="M176.13 654.354C176.13 657.158 177.513 659.432 179.219 659.432C180.925 659.432 182.308 657.158 182.308 654.354C182.308 651.549 180.925 649.275 179.219 649.275C177.513 649.275 176.13 651.549 176.13 654.354Z" fill="#E1EAF1"/>
<path d="M176.13 674.209C176.13 677.014 177.513 679.287 179.219 679.287C180.925 679.287 182.308 677.014 182.308 674.209C182.308 671.404 180.925 669.131 179.219 669.131C177.513 669.131 176.13 671.404 176.13 674.209Z" fill="#E1EAF1"/>
<path d="M176.13 694.065C176.13 696.87 177.513 699.144 179.219 699.144C180.925 699.144 182.308 696.87 182.308 694.065C182.308 691.261 180.925 688.987 179.219 688.987C177.513 688.987 176.13 691.261 176.13 694.065Z" fill="#E1EAF1"/>
<path d="M176.13 713.922C176.13 716.726 177.513 719 179.219 719C180.925 719 182.308 716.726 182.308 713.922C182.308 711.117 180.925 708.844 179.219 708.844C177.513 708.844 176.13 711.117 176.13 713.922Z" fill="#E1EAF1"/>
<path d="M163.774 535.216C163.774 538.02 165.157 540.294 166.862 540.294C168.568 540.294 169.951 538.02 169.951 535.216C169.951 532.411 168.568 530.138 166.862 530.138C165.157 530.138 163.774 532.411 163.774 535.216Z" fill="#E1EAF1"/>
<path d="M163.774 555.071C163.774 557.876 165.157 560.149 166.862 560.149C168.568 560.149 169.951 557.876 169.951 555.071C169.951 552.267 168.568 549.993 166.862 549.993C165.157 549.993 163.774 552.267 163.774 555.071Z" fill="#E1EAF1"/>
<path d="M163.774 574.928C163.774 577.732 165.157 580.006 166.862 580.006C168.568 580.006 169.951 577.732 169.951 574.928C169.951 572.123 168.568 569.85 166.862 569.85C165.157 569.85 163.774 572.123 163.774 574.928Z" fill="#E1EAF1"/>
<path d="M163.774 594.784C163.774 597.589 165.157 599.862 166.862 599.862C168.568 599.862 169.951 597.589 169.951 594.784C169.951 591.98 168.568 589.706 166.862 589.706C165.157 589.706 163.774 591.98 163.774 594.784Z" fill="#E1EAF1"/>
<path d="M163.774 614.641C163.774 617.445 165.157 619.719 166.862 619.719C168.568 619.719 169.951 617.445 169.951 614.641C169.951 611.836 168.568 609.562 166.862 609.562C165.157 609.562 163.774 611.836 163.774 614.641Z" fill="#E1EAF1"/>
<path d="M163.774 634.497C163.774 637.302 165.157 639.575 166.862 639.575C168.568 639.575 169.951 637.302 169.951 634.497C169.951 631.692 168.568 629.419 166.862 629.419C165.157 629.419 163.774 631.692 163.774 634.497Z" fill="#E1EAF1"/>
<path d="M163.774 654.354C163.774 657.158 165.157 659.432 166.862 659.432C168.568 659.432 169.951 657.158 169.951 654.354C169.951 651.549 168.568 649.275 166.862 649.275C165.157 649.275 163.774 651.549 163.774 654.354Z" fill="#E1EAF1"/>
<path d="M163.774 674.209C163.774 677.014 165.157 679.287 166.862 679.287C168.568 679.287 169.951 677.014 169.951 674.209C169.951 671.404 168.568 669.131 166.862 669.131C165.157 669.131 163.774 671.404 163.774 674.209Z" fill="#E1EAF1"/>
<path d="M163.774 694.065C163.774 696.87 165.157 699.144 166.862 699.144C168.568 699.144 169.951 696.87 169.951 694.065C169.951 691.261 168.568 688.987 166.862 688.987C165.157 688.987 163.774 691.261 163.774 694.065Z" fill="#E1EAF1"/>
<path d="M163.774 713.922C163.774 716.726 165.157 719 166.862 719C168.568 719 169.951 716.726 169.951 713.922C169.951 711.117 168.568 708.844 166.862 708.844C165.157 708.844 163.774 711.117 163.774 713.922Z" fill="#E1EAF1"/>
<path d="M151.42 535.216C151.42 538.02 152.803 540.294 154.509 540.294C156.215 540.294 157.598 538.02 157.598 535.216C157.598 532.411 156.215 530.138 154.509 530.138C152.803 530.138 151.42 532.411 151.42 535.216Z" fill="#E1EAF1"/>
<path d="M151.42 555.071C151.42 557.876 152.803 560.149 154.509 560.149C156.215 560.149 157.598 557.876 157.598 555.071C157.598 552.267 156.215 549.993 154.509 549.993C152.803 549.993 151.42 552.267 151.42 555.071Z" fill="#E1EAF1"/>
<path d="M151.42 574.928C151.42 577.732 152.803 580.006 154.509 580.006C156.215 580.006 157.598 577.732 157.598 574.928C157.598 572.123 156.215 569.85 154.509 569.85C152.803 569.85 151.42 572.123 151.42 574.928Z" fill="#E1EAF1"/>
<path d="M151.42 594.784C151.42 597.589 152.803 599.862 154.509 599.862C156.215 599.862 157.598 597.589 157.598 594.784C157.598 591.98 156.215 589.706 154.509 589.706C152.803 589.706 151.42 591.98 151.42 594.784Z" fill="#E1EAF1"/>
<path d="M151.42 614.641C151.42 617.445 152.803 619.719 154.509 619.719C156.215 619.719 157.598 617.445 157.598 614.641C157.598 611.836 156.215 609.562 154.509 609.562C152.803 609.562 151.42 611.836 151.42 614.641Z" fill="#E1EAF1"/>
<path d="M151.42 634.497C151.42 637.302 152.803 639.575 154.509 639.575C156.215 639.575 157.598 637.302 157.598 634.497C157.598 631.692 156.215 629.419 154.509 629.419C152.803 629.419 151.42 631.692 151.42 634.497Z" fill="#E1EAF1"/>
<path d="M151.42 654.354C151.42 657.158 152.803 659.432 154.509 659.432C156.215 659.432 157.598 657.158 157.598 654.354C157.598 651.549 156.215 649.275 154.509 649.275C152.803 649.275 151.42 651.549 151.42 654.354Z" fill="#E1EAF1"/>
<path d="M151.42 674.209C151.42 677.014 152.803 679.287 154.509 679.287C156.215 679.287 157.598 677.014 157.598 674.209C157.598 671.404 156.215 669.131 154.509 669.131C152.803 669.131 151.42 671.404 151.42 674.209Z" fill="#E1EAF1"/>
<path d="M151.42 694.065C151.42 696.87 152.803 699.144 154.509 699.144C156.215 699.144 157.598 696.87 157.598 694.065C157.598 691.261 156.215 688.987 154.509 688.987C152.803 688.987 151.42 691.261 151.42 694.065Z" fill="#E1EAF1"/>
<path d="M151.42 713.922C151.42 716.726 152.803 719 154.509 719C156.215 719 157.598 716.726 157.598 713.922C157.598 711.117 156.215 708.844 154.509 708.844C152.803 708.844 151.42 711.117 151.42 713.922Z" fill="#E1EAF1"/>
<path d="M139.067 535.216C139.067 538.02 140.45 540.294 142.155 540.294C143.861 540.294 145.244 538.02 145.244 535.216C145.244 532.411 143.861 530.138 142.155 530.138C140.45 530.138 139.067 532.411 139.067 535.216Z" fill="#E1EAF1"/>
<path d="M139.067 555.071C139.067 557.876 140.45 560.149 142.155 560.149C143.861 560.149 145.244 557.876 145.244 555.071C145.244 552.267 143.861 549.993 142.155 549.993C140.45 549.993 139.067 552.267 139.067 555.071Z" fill="#E1EAF1"/>
<path d="M139.067 574.928C139.067 577.732 140.45 580.006 142.155 580.006C143.861 580.006 145.244 577.732 145.244 574.928C145.244 572.123 143.861 569.85 142.155 569.85C140.45 569.85 139.067 572.123 139.067 574.928Z" fill="#E1EAF1"/>
<path d="M139.067 594.784C139.067 597.589 140.45 599.862 142.155 599.862C143.861 599.862 145.244 597.589 145.244 594.784C145.244 591.98 143.861 589.706 142.155 589.706C140.45 589.706 139.067 591.98 139.067 594.784Z" fill="#E1EAF1"/>
<path d="M139.067 614.641C139.067 617.445 140.45 619.719 142.155 619.719C143.861 619.719 145.244 617.445 145.244 614.641C145.244 611.836 143.861 609.562 142.155 609.562C140.45 609.562 139.067 611.836 139.067 614.641Z" fill="#E1EAF1"/>
<path d="M139.067 634.497C139.067 637.302 140.45 639.575 142.155 639.575C143.861 639.575 145.244 637.302 145.244 634.497C145.244 631.692 143.861 629.419 142.155 629.419C140.45 629.419 139.067 631.692 139.067 634.497Z" fill="#E1EAF1"/>
<path d="M139.067 654.354C139.067 657.158 140.45 659.432 142.155 659.432C143.861 659.432 145.244 657.158 145.244 654.354C145.244 651.549 143.861 649.275 142.155 649.275C140.45 649.275 139.067 651.549 139.067 654.354Z" fill="#E1EAF1"/>
<path d="M139.067 674.209C139.067 677.014 140.45 679.287 142.155 679.287C143.861 679.287 145.244 677.014 145.244 674.209C145.244 671.404 143.861 669.131 142.155 669.131C140.45 669.131 139.067 671.404 139.067 674.209Z" fill="#E1EAF1"/>
<path d="M139.067 694.065C139.067 696.87 140.45 699.144 142.155 699.144C143.861 699.144 145.244 696.87 145.244 694.065C145.244 691.261 143.861 688.987 142.155 688.987C140.45 688.987 139.067 691.261 139.067 694.065Z" fill="#E1EAF1"/>
<path d="M139.067 713.922C139.067 716.726 140.45 719 142.155 719C143.861 719 145.244 716.726 145.244 713.922C145.244 711.117 143.861 708.844 142.155 708.844C140.45 708.844 139.067 711.117 139.067 713.922Z" fill="#E1EAF1"/>
<path d="M126.71 535.216C126.71 538.02 128.093 540.294 129.799 540.294C131.505 540.294 132.888 538.02 132.888 535.216C132.888 532.411 131.505 530.138 129.799 530.138C128.093 530.138 126.71 532.411 126.71 535.216Z" fill="#E1EAF1"/>
<path d="M126.71 555.071C126.71 557.876 128.093 560.149 129.799 560.149C131.505 560.149 132.888 557.876 132.888 555.071C132.888 552.267 131.505 549.993 129.799 549.993C128.093 549.993 126.71 552.267 126.71 555.071Z" fill="#E1EAF1"/>
<path d="M126.71 574.928C126.71 577.732 128.093 580.006 129.799 580.006C131.505 580.006 132.888 577.732 132.888 574.928C132.888 572.123 131.505 569.85 129.799 569.85C128.093 569.85 126.71 572.123 126.71 574.928Z" fill="#E1EAF1"/>
<path d="M126.71 594.784C126.71 597.589 128.093 599.862 129.799 599.862C131.505 599.862 132.888 597.589 132.888 594.784C132.888 591.98 131.505 589.706 129.799 589.706C128.093 589.706 126.71 591.98 126.71 594.784Z" fill="#E1EAF1"/>
<path d="M126.71 614.641C126.71 617.445 128.093 619.719 129.799 619.719C131.505 619.719 132.888 617.445 132.888 614.641C132.888 611.836 131.505 609.562 129.799 609.562C128.093 609.562 126.71 611.836 126.71 614.641Z" fill="#E1EAF1"/>
<path d="M126.71 634.497C126.71 637.302 128.093 639.575 129.799 639.575C131.505 639.575 132.888 637.302 132.888 634.497C132.888 631.692 131.505 629.419 129.799 629.419C128.093 629.419 126.71 631.692 126.71 634.497Z" fill="#E1EAF1"/>
<path d="M126.71 654.354C126.71 657.158 128.093 659.432 129.799 659.432C131.505 659.432 132.888 657.158 132.888 654.354C132.888 651.549 131.505 649.275 129.799 649.275C128.093 649.275 126.71 651.549 126.71 654.354Z" fill="#E1EAF1"/>
<path d="M126.71 674.209C126.71 677.014 128.093 679.287 129.799 679.287C131.505 679.287 132.888 677.014 132.888 674.209C132.888 671.404 131.505 669.131 129.799 669.131C128.093 669.131 126.71 671.404 126.71 674.209Z" fill="#E1EAF1"/>
<path d="M126.71 694.065C126.71 696.87 128.093 699.144 129.799 699.144C131.505 699.144 132.888 696.87 132.888 694.065C132.888 691.261 131.505 688.987 129.799 688.987C128.093 688.987 126.71 691.261 126.71 694.065Z" fill="#E1EAF1"/>
<path d="M126.71 713.922C126.71 716.726 128.093 719 129.799 719C131.505 719 132.888 716.726 132.888 713.922C132.888 711.117 131.505 708.844 129.799 708.844C128.093 708.844 126.71 711.117 126.71 713.922Z" fill="#E1EAF1"/>
<path d="M114.354 535.216C114.354 538.02 115.737 540.294 117.442 540.294C119.148 540.294 120.531 538.02 120.531 535.216C120.531 532.411 119.148 530.138 117.442 530.138C115.737 530.138 114.354 532.411 114.354 535.216Z" fill="#E1EAF1"/>
<path d="M114.354 555.071C114.354 557.876 115.737 560.149 117.442 560.149C119.148 560.149 120.531 557.876 120.531 555.071C120.531 552.267 119.148 549.993 117.442 549.993C115.737 549.993 114.354 552.267 114.354 555.071Z" fill="#E1EAF1"/>
<path d="M114.354 574.928C114.354 577.732 115.737 580.006 117.442 580.006C119.148 580.006 120.531 577.732 120.531 574.928C120.531 572.123 119.148 569.85 117.442 569.85C115.737 569.85 114.354 572.123 114.354 574.928Z" fill="#E1EAF1"/>
<path d="M114.354 594.784C114.354 597.589 115.737 599.862 117.442 599.862C119.148 599.862 120.531 597.589 120.531 594.784C120.531 591.98 119.148 589.706 117.442 589.706C115.737 589.706 114.354 591.98 114.354 594.784Z" fill="#E1EAF1"/>
<path d="M114.354 614.641C114.354 617.445 115.737 619.719 117.442 619.719C119.148 619.719 120.531 617.445 120.531 614.641C120.531 611.836 119.148 609.562 117.442 609.562C115.737 609.562 114.354 611.836 114.354 614.641Z" fill="#E1EAF1"/>
<path d="M114.354 634.497C114.354 637.302 115.737 639.575 117.442 639.575C119.148 639.575 120.531 637.302 120.531 634.497C120.531 631.692 119.148 629.419 117.442 629.419C115.737 629.419 114.354 631.692 114.354 634.497Z" fill="#E1EAF1"/>
<path d="M114.354 654.354C114.354 657.158 115.737 659.432 117.442 659.432C119.148 659.432 120.531 657.158 120.531 654.354C120.531 651.549 119.148 649.275 117.442 649.275C115.737 649.275 114.354 651.549 114.354 654.354Z" fill="#E1EAF1"/>
<path d="M114.354 674.209C114.354 677.014 115.737 679.287 117.442 679.287C119.148 679.287 120.531 677.014 120.531 674.209C120.531 671.404 119.148 669.131 117.442 669.131C115.737 669.131 114.354 671.404 114.354 674.209Z" fill="#E1EAF1"/>
<path d="M114.354 694.065C114.354 696.87 115.737 699.144 117.442 699.144C119.148 699.144 120.531 696.87 120.531 694.065C120.531 691.261 119.148 688.987 117.442 688.987C115.737 688.987 114.354 691.261 114.354 694.065Z" fill="#E1EAF1"/>
<path d="M114.354 713.922C114.354 716.726 115.737 719 117.442 719C119.148 719 120.531 716.726 120.531 713.922C120.531 711.117 119.148 708.844 117.442 708.844C115.737 708.844 114.354 711.117 114.354 713.922Z" fill="#E1EAF1"/>
<path d="M102 535.216C102 538.02 103.383 540.294 105.089 540.294C106.795 540.294 108.178 538.02 108.178 535.216C108.178 532.411 106.795 530.138 105.089 530.138C103.383 530.138 102 532.411 102 535.216Z" fill="#E1EAF1"/>
<path d="M102 555.071C102 557.876 103.383 560.149 105.089 560.149C106.795 560.149 108.178 557.876 108.178 555.071C108.178 552.267 106.795 549.993 105.089 549.993C103.383 549.993 102 552.267 102 555.071Z" fill="#E1EAF1"/>
<path d="M102 574.928C102 577.732 103.383 580.006 105.089 580.006C106.795 580.006 108.178 577.732 108.178 574.928C108.178 572.123 106.795 569.85 105.089 569.85C103.383 569.85 102 572.123 102 574.928Z" fill="#E1EAF1"/>
<path d="M102 594.784C102 597.589 103.383 599.862 105.089 599.862C106.795 599.862 108.178 597.589 108.178 594.784C108.178 591.98 106.795 589.706 105.089 589.706C103.383 589.706 102 591.98 102 594.784Z" fill="#E1EAF1"/>
<path d="M102 614.641C102 617.445 103.383 619.719 105.089 619.719C106.795 619.719 108.178 617.445 108.178 614.641C108.178 611.836 106.795 609.562 105.089 609.562C103.383 609.562 102 611.836 102 614.641Z" fill="#E1EAF1"/>
<path d="M102 634.497C102 637.302 103.383 639.575 105.089 639.575C106.795 639.575 108.178 637.302 108.178 634.497C108.178 631.692 106.795 629.419 105.089 629.419C103.383 629.419 102 631.692 102 634.497Z" fill="#E1EAF1"/>
<path d="M102 654.354C102 657.158 103.383 659.432 105.089 659.432C106.795 659.432 108.178 657.158 108.178 654.354C108.178 651.549 106.795 649.275 105.089 649.275C103.383 649.275 102 651.549 102 654.354Z" fill="#E1EAF1"/>
<path d="M102 674.209C102 677.014 103.383 679.287 105.089 679.287C106.795 679.287 108.178 677.014 108.178 674.209C108.178 671.404 106.795 669.131 105.089 669.131C103.383 669.131 102 671.404 102 674.209Z" fill="#E1EAF1"/>
<path d="M102 694.065C102 696.87 103.383 699.144 105.089 699.144C106.795 699.144 108.178 696.87 108.178 694.065C108.178 691.261 106.795 688.987 105.089 688.987C103.383 688.987 102 691.261 102 694.065Z" fill="#E1EAF1"/>
<path d="M102 713.922C102 716.726 103.383 719 105.089 719C106.795 719 108.178 716.726 108.178 713.922C108.178 711.117 106.795 708.844 105.089 708.844C103.383 708.844 102 711.117 102 713.922Z" fill="#E1EAF1"/>
</g>
<g opacity="0.7" clip-path="url(#clip2_338_5208)">
<path d="M195.821 568.891C193.183 568.891 191.045 570.046 191.045 571.471C191.045 572.897 193.183 574.052 195.821 574.052C198.458 574.052 200.596 572.897 200.596 571.471C200.596 570.046 198.458 568.891 195.821 568.891Z" fill="#E1EAF1"/>
<path d="M177.149 568.891C174.511 568.891 172.373 570.046 172.373 571.471C172.373 572.897 174.511 574.052 177.149 574.052C179.786 574.052 181.924 572.897 181.924 571.471C181.924 570.046 179.786 568.891 177.149 568.891Z" fill="#E1EAF1"/>
<path d="M158.477 568.891C155.84 568.891 153.702 570.046 153.702 571.471C153.702 572.897 155.84 574.052 158.477 574.052C161.114 574.052 163.252 572.897 163.252 571.471C163.252 570.046 161.114 568.891 158.477 568.891Z" fill="#E1EAF1"/>
<path d="M139.805 568.891C137.168 568.891 135.03 570.046 135.03 571.471C135.03 572.897 137.168 574.052 139.805 574.052C142.442 574.052 144.58 572.897 144.58 571.471C144.58 570.046 142.442 568.891 139.805 568.891Z" fill="#E1EAF1"/>
<path d="M121.133 568.891C118.496 568.891 116.358 570.046 116.358 571.471C116.358 572.897 118.496 574.052 121.133 574.052C123.77 574.052 125.908 572.897 125.908 571.471C125.908 570.046 123.77 568.891 121.133 568.891Z" fill="#E1EAF1"/>
<path d="M102.462 568.891C99.8249 568.891 97.687 570.046 97.687 571.471C97.687 572.897 99.8249 574.052 102.462 574.052C105.099 574.052 107.237 572.897 107.237 571.471C107.237 570.046 105.099 568.891 102.462 568.891Z" fill="#E1EAF1"/>
<path d="M83.7903 568.891C81.153 568.891 79.0151 570.046 79.0151 571.471C79.0151 572.897 81.153 574.052 83.7903 574.052C86.4275 574.052 88.5654 572.897 88.5654 571.471C88.5654 570.046 86.4275 568.891 83.7903 568.891Z" fill="#E1EAF1"/>
<path d="M65.1184 568.891C62.4811 568.891 60.3432 570.046 60.3432 571.471C60.3432 572.897 62.4811 574.052 65.1184 574.052C67.7556 574.052 69.8936 572.897 69.8936 571.471C69.8936 570.046 67.7556 568.891 65.1184 568.891Z" fill="#E1EAF1"/>
<path d="M46.4465 568.891C43.8093 568.891 41.6713 570.046 41.6713 571.471C41.6713 572.897 43.8093 574.052 46.4465 574.052C49.0838 574.052 51.2217 572.897 51.2217 571.471C51.2217 570.046 49.0838 568.891 46.4465 568.891Z" fill="#E1EAF1"/>
<path d="M27.7756 568.891C25.1384 568.891 23.0004 570.046 23.0004 571.471C23.0004 572.897 25.1384 574.052 27.7756 574.052C30.4129 574.052 32.5508 572.897 32.5508 571.471C32.5508 570.046 30.4129 568.891 27.7756 568.891Z" fill="#E1EAF1"/>
<path d="M195.821 558.569C193.183 558.569 191.045 559.724 191.045 561.149C191.045 562.574 193.183 563.729 195.821 563.729C198.458 563.729 200.596 562.574 200.596 561.149C200.596 559.724 198.458 558.569 195.821 558.569Z" fill="#E1EAF1"/>
<path d="M177.149 558.569C174.511 558.569 172.373 559.724 172.373 561.149C172.373 562.574 174.511 563.729 177.149 563.729C179.786 563.729 181.924 562.574 181.924 561.149C181.924 559.724 179.786 558.569 177.149 558.569Z" fill="#E1EAF1"/>
<path d="M158.477 558.569C155.84 558.569 153.702 559.724 153.702 561.149C153.702 562.574 155.84 563.729 158.477 563.729C161.114 563.729 163.252 562.574 163.252 561.149C163.252 559.724 161.114 558.569 158.477 558.569Z" fill="#E1EAF1"/>
<path d="M139.805 558.569C137.168 558.569 135.03 559.724 135.03 561.149C135.03 562.574 137.168 563.729 139.805 563.729C142.442 563.729 144.58 562.574 144.58 561.149C144.58 559.724 142.442 558.569 139.805 558.569Z" fill="#E1EAF1"/>
<path d="M121.133 558.569C118.496 558.569 116.358 559.724 116.358 561.149C116.358 562.574 118.496 563.729 121.133 563.729C123.77 563.729 125.908 562.574 125.908 561.149C125.908 559.724 123.77 558.569 121.133 558.569Z" fill="#E1EAF1"/>
<path d="M102.462 558.569C99.8249 558.569 97.687 559.724 97.687 561.149C97.687 562.574 99.8249 563.729 102.462 563.729C105.099 563.729 107.237 562.574 107.237 561.149C107.237 559.724 105.099 558.569 102.462 558.569Z" fill="#E1EAF1"/>
<path d="M83.7903 558.569C81.153 558.569 79.0151 559.724 79.0151 561.149C79.0151 562.574 81.153 563.729 83.7903 563.729C86.4275 563.729 88.5654 562.574 88.5654 561.149C88.5654 559.724 86.4275 558.569 83.7903 558.569Z" fill="#E1EAF1"/>
<path d="M65.1184 558.569C62.4811 558.569 60.3432 559.724 60.3432 561.149C60.3432 562.574 62.4811 563.729 65.1184 563.729C67.7556 563.729 69.8936 562.574 69.8936 561.149C69.8936 559.724 67.7556 558.569 65.1184 558.569Z" fill="#E1EAF1"/>
<path d="M46.4465 558.569C43.8093 558.569 41.6713 559.724 41.6713 561.149C41.6713 562.574 43.8093 563.729 46.4465 563.729C49.0838 563.729 51.2217 562.574 51.2217 561.149C51.2217 559.724 49.0838 558.569 46.4465 558.569Z" fill="#E1EAF1"/>
<path d="M27.7756 558.569C25.1384 558.569 23.0004 559.724 23.0004 561.149C23.0004 562.574 25.1384 563.729 27.7756 563.729C30.4129 563.729 32.5508 562.574 32.5508 561.149C32.5508 559.724 30.4129 558.569 27.7756 558.569Z" fill="#E1EAF1"/>
<path d="M195.821 548.249C193.183 548.249 191.045 549.404 191.045 550.829C191.045 552.254 193.183 553.409 195.821 553.409C198.458 553.409 200.596 552.254 200.596 550.829C200.596 549.404 198.458 548.249 195.821 548.249Z" fill="#E1EAF1"/>
<path d="M177.149 548.249C174.511 548.249 172.373 549.404 172.373 550.829C172.373 552.254 174.511 553.409 177.149 553.409C179.786 553.409 181.924 552.254 181.924 550.829C181.924 549.404 179.786 548.249 177.149 548.249Z" fill="#E1EAF1"/>
<path d="M158.477 548.249C155.84 548.249 153.702 549.404 153.702 550.829C153.702 552.254 155.84 553.409 158.477 553.409C161.114 553.409 163.252 552.254 163.252 550.829C163.252 549.404 161.114 548.249 158.477 548.249Z" fill="#E1EAF1"/>
<path d="M139.805 548.249C137.168 548.249 135.03 549.404 135.03 550.829C135.03 552.254 137.168 553.409 139.805 553.409C142.442 553.409 144.58 552.254 144.58 550.829C144.58 549.404 142.442 548.249 139.805 548.249Z" fill="#E1EAF1"/>
<path d="M121.133 548.249C118.496 548.249 116.358 549.404 116.358 550.829C116.358 552.254 118.496 553.409 121.133 553.409C123.77 553.409 125.908 552.254 125.908 550.829C125.908 549.404 123.77 548.249 121.133 548.249Z" fill="#E1EAF1"/>
<path d="M102.462 548.249C99.8249 548.249 97.687 549.404 97.687 550.829C97.687 552.254 99.8249 553.409 102.462 553.409C105.099 553.409 107.237 552.254 107.237 550.829C107.237 549.404 105.099 548.249 102.462 548.249Z" fill="#E1EAF1"/>
<path d="M83.7903 548.249C81.153 548.249 79.0151 549.404 79.0151 550.829C79.0151 552.254 81.153 553.409 83.7903 553.409C86.4275 553.409 88.5654 552.254 88.5654 550.829C88.5654 549.404 86.4275 548.249 83.7903 548.249Z" fill="#E1EAF1"/>
<path d="M65.1184 548.249C62.4811 548.249 60.3432 549.404 60.3432 550.829C60.3432 552.254 62.4811 553.409 65.1184 553.409C67.7556 553.409 69.8936 552.254 69.8936 550.829C69.8936 549.404 67.7556 548.249 65.1184 548.249Z" fill="#E1EAF1"/>
<path d="M46.4465 548.249C43.8093 548.249 41.6713 549.404 41.6713 550.829C41.6713 552.254 43.8093 553.409 46.4465 553.409C49.0838 553.409 51.2217 552.254 51.2217 550.829C51.2217 549.404 49.0838 548.249 46.4465 548.249Z" fill="#E1EAF1"/>
<path d="M27.7756 548.249C25.1384 548.249 23.0004 549.404 23.0004 550.829C23.0004 552.254 25.1384 553.409 27.7756 553.409C30.4129 553.409 32.5508 552.254 32.5508 550.829C32.5508 549.404 30.4129 548.249 27.7756 548.249Z" fill="#E1EAF1"/>
<path d="M195.821 537.926C193.183 537.926 191.045 539.082 191.045 540.507C191.045 541.932 193.183 543.087 195.821 543.087C198.458 543.087 200.596 541.932 200.596 540.507C200.596 539.082 198.458 537.926 195.821 537.926Z" fill="#E1EAF1"/>
<path d="M177.149 537.926C174.511 537.926 172.373 539.082 172.373 540.507C172.373 541.932 174.511 543.087 177.149 543.087C179.786 543.087 181.924 541.932 181.924 540.507C181.924 539.082 179.786 537.926 177.149 537.926Z" fill="#E1EAF1"/>
<path d="M158.477 537.926C155.84 537.926 153.702 539.082 153.702 540.507C153.702 541.932 155.84 543.087 158.477 543.087C161.114 543.087 163.252 541.932 163.252 540.507C163.252 539.082 161.114 537.926 158.477 537.926Z" fill="#E1EAF1"/>
<path d="M139.805 537.926C137.168 537.926 135.03 539.082 135.03 540.507C135.03 541.932 137.168 543.087 139.805 543.087C142.442 543.087 144.58 541.932 144.58 540.507C144.58 539.082 142.442 537.926 139.805 537.926Z" fill="#E1EAF1"/>
<path d="M121.133 537.926C118.496 537.926 116.358 539.082 116.358 540.507C116.358 541.932 118.496 543.087 121.133 543.087C123.77 543.087 125.908 541.932 125.908 540.507C125.908 539.082 123.77 537.926 121.133 537.926Z" fill="#E1EAF1"/>
<path d="M102.462 537.926C99.8249 537.926 97.687 539.082 97.687 540.507C97.687 541.932 99.8249 543.087 102.462 543.087C105.099 543.087 107.237 541.932 107.237 540.507C107.237 539.082 105.099 537.926 102.462 537.926Z" fill="#E1EAF1"/>
<path d="M83.7903 537.926C81.153 537.926 79.0151 539.082 79.0151 540.507C79.0151 541.932 81.153 543.087 83.7903 543.087C86.4275 543.087 88.5654 541.932 88.5654 540.507C88.5654 539.082 86.4275 537.926 83.7903 537.926Z" fill="#E1EAF1"/>
<path d="M65.1184 537.926C62.4811 537.926 60.3432 539.082 60.3432 540.507C60.3432 541.932 62.4811 543.087 65.1184 543.087C67.7556 543.087 69.8936 541.932 69.8936 540.507C69.8936 539.082 67.7556 537.926 65.1184 537.926Z" fill="#E1EAF1"/>
<path d="M46.4465 537.926C43.8093 537.926 41.6713 539.082 41.6713 540.507C41.6713 541.932 43.8093 543.087 46.4465 543.087C49.0838 543.087 51.2217 541.932 51.2217 540.507C51.2217 539.082 49.0838 537.926 46.4465 537.926Z" fill="#E1EAF1"/>
<path d="M27.7756 537.926C25.1384 537.926 23.0004 539.082 23.0004 540.507C23.0004 541.932 25.1384 543.087 27.7756 543.087C30.4129 543.087 32.5508 541.932 32.5508 540.507C32.5508 539.082 30.4129 537.926 27.7756 537.926Z" fill="#E1EAF1"/>
<path d="M195.821 527.605C193.183 527.605 191.045 528.76 191.045 530.185C191.045 531.61 193.183 532.766 195.821 532.766C198.458 532.766 200.596 531.61 200.596 530.185C200.596 528.76 198.458 527.605 195.821 527.605Z" fill="#E1EAF1"/>
<path d="M177.149 527.605C174.511 527.605 172.373 528.76 172.373 530.185C172.373 531.61 174.511 532.766 177.149 532.766C179.786 532.766 181.924 531.61 181.924 530.185C181.924 528.76 179.786 527.605 177.149 527.605Z" fill="#E1EAF1"/>
<path d="M158.477 527.605C155.84 527.605 153.702 528.76 153.702 530.185C153.702 531.61 155.84 532.766 158.477 532.766C161.114 532.766 163.252 531.61 163.252 530.185C163.252 528.76 161.114 527.605 158.477 527.605Z" fill="#E1EAF1"/>
<path d="M139.805 527.605C137.168 527.605 135.03 528.76 135.03 530.185C135.03 531.61 137.168 532.766 139.805 532.766C142.442 532.766 144.58 531.61 144.58 530.185C144.58 528.76 142.442 527.605 139.805 527.605Z" fill="#E1EAF1"/>
<path d="M121.133 527.605C118.496 527.605 116.358 528.76 116.358 530.185C116.358 531.61 118.496 532.766 121.133 532.766C123.77 532.766 125.908 531.61 125.908 530.185C125.908 528.76 123.77 527.605 121.133 527.605Z" fill="#E1EAF1"/>
<path d="M102.462 527.605C99.8249 527.605 97.687 528.76 97.687 530.185C97.687 531.61 99.8249 532.766 102.462 532.766C105.099 532.766 107.237 531.61 107.237 530.185C107.237 528.76 105.099 527.605 102.462 527.605Z" fill="#E1EAF1"/>
<path d="M83.7903 527.605C81.153 527.605 79.0151 528.76 79.0151 530.185C79.0151 531.61 81.153 532.766 83.7903 532.766C86.4275 532.766 88.5654 531.61 88.5654 530.185C88.5654 528.76 86.4275 527.605 83.7903 527.605Z" fill="#E1EAF1"/>
<path d="M65.1184 527.605C62.4811 527.605 60.3432 528.76 60.3432 530.185C60.3432 531.61 62.4811 532.766 65.1184 532.766C67.7556 532.766 69.8936 531.61 69.8936 530.185C69.8936 528.76 67.7556 527.605 65.1184 527.605Z" fill="#E1EAF1"/>
<path d="M46.4465 527.605C43.8093 527.605 41.6713 528.76 41.6713 530.185C41.6713 531.61 43.8093 532.766 46.4465 532.766C49.0838 532.766 51.2217 531.61 51.2217 530.185C51.2217 528.76 49.0838 527.605 46.4465 527.605Z" fill="#E1EAF1"/>
<path d="M27.7756 527.605C25.1384 527.605 23.0004 528.76 23.0004 530.185C23.0004 531.61 25.1384 532.766 27.7756 532.766C30.4129 532.766 32.5508 531.61 32.5508 530.185C32.5508 528.76 30.4129 527.605 27.7756 527.605Z" fill="#E1EAF1"/>
<path d="M195.821 517.285C193.183 517.285 191.045 518.44 191.045 519.865C191.045 521.29 193.183 522.445 195.821 522.445C198.458 522.445 200.596 521.29 200.596 519.865C200.596 518.44 198.458 517.285 195.821 517.285Z" fill="#E1EAF1"/>
<path d="M177.149 517.285C174.511 517.285 172.373 518.44 172.373 519.865C172.373 521.29 174.511 522.445 177.149 522.445C179.786 522.445 181.924 521.29 181.924 519.865C181.924 518.44 179.786 517.285 177.149 517.285Z" fill="#E1EAF1"/>
<path d="M158.477 517.285C155.84 517.285 153.702 518.44 153.702 519.865C153.702 521.29 155.84 522.445 158.477 522.445C161.114 522.445 163.252 521.29 163.252 519.865C163.252 518.44 161.114 517.285 158.477 517.285Z" fill="#E1EAF1"/>
<path d="M139.805 517.285C137.168 517.285 135.03 518.44 135.03 519.865C135.03 521.29 137.168 522.445 139.805 522.445C142.442 522.445 144.58 521.29 144.58 519.865C144.58 518.44 142.442 517.285 139.805 517.285Z" fill="#E1EAF1"/>
<path d="M121.133 517.285C118.496 517.285 116.358 518.44 116.358 519.865C116.358 521.29 118.496 522.445 121.133 522.445C123.77 522.445 125.908 521.29 125.908 519.865C125.908 518.44 123.77 517.285 121.133 517.285Z" fill="#E1EAF1"/>
<path d="M102.462 517.285C99.8249 517.285 97.687 518.44 97.687 519.865C97.687 521.29 99.8249 522.445 102.462 522.445C105.099 522.445 107.237 521.29 107.237 519.865C107.237 518.44 105.099 517.285 102.462 517.285Z" fill="#E1EAF1"/>
<path d="M83.7903 517.285C81.153 517.285 79.0151 518.44 79.0151 519.865C79.0151 521.29 81.153 522.445 83.7903 522.445C86.4275 522.445 88.5654 521.29 88.5654 519.865C88.5654 518.44 86.4275 517.285 83.7903 517.285Z" fill="#E1EAF1"/>
<path d="M65.1184 517.285C62.4811 517.285 60.3432 518.44 60.3432 519.865C60.3432 521.29 62.4811 522.445 65.1184 522.445C67.7556 522.445 69.8936 521.29 69.8936 519.865C69.8936 518.44 67.7556 517.285 65.1184 517.285Z" fill="#E1EAF1"/>
<path d="M46.4465 517.285C43.8093 517.285 41.6713 518.44 41.6713 519.865C41.6713 521.29 43.8093 522.445 46.4465 522.445C49.0838 522.445 51.2217 521.29 51.2217 519.865C51.2217 518.44 49.0838 517.285 46.4465 517.285Z" fill="#E1EAF1"/>
<path d="M27.7756 517.285C25.1384 517.285 23.0004 518.44 23.0004 519.865C23.0004 521.29 25.1384 522.445 27.7756 522.445C30.4129 522.445 32.5508 521.29 32.5508 519.865C32.5508 518.44 30.4129 517.285 27.7756 517.285Z" fill="#E1EAF1"/>
<path d="M195.821 506.964C193.183 506.964 191.045 508.12 191.045 509.545C191.045 510.97 193.183 512.125 195.821 512.125C198.458 512.125 200.596 510.97 200.596 509.545C200.596 508.12 198.458 506.964 195.821 506.964Z" fill="#E1EAF1"/>
<path d="M177.149 506.964C174.511 506.964 172.373 508.12 172.373 509.545C172.373 510.97 174.511 512.125 177.149 512.125C179.786 512.125 181.924 510.97 181.924 509.545C181.924 508.12 179.786 506.964 177.149 506.964Z" fill="#E1EAF1"/>
<path d="M158.477 506.964C155.84 506.964 153.702 508.12 153.702 509.545C153.702 510.97 155.84 512.125 158.477 512.125C161.114 512.125 163.252 510.97 163.252 509.545C163.252 508.12 161.114 506.964 158.477 506.964Z" fill="#E1EAF1"/>
<path d="M139.805 506.964C137.168 506.964 135.03 508.12 135.03 509.545C135.03 510.97 137.168 512.125 139.805 512.125C142.442 512.125 144.58 510.97 144.58 509.545C144.58 508.12 142.442 506.964 139.805 506.964Z" fill="#E1EAF1"/>
<path d="M121.133 506.964C118.496 506.964 116.358 508.12 116.358 509.545C116.358 510.97 118.496 512.125 121.133 512.125C123.77 512.125 125.908 510.97 125.908 509.545C125.908 508.12 123.77 506.964 121.133 506.964Z" fill="#E1EAF1"/>
<path d="M102.462 506.964C99.8249 506.964 97.687 508.12 97.687 509.545C97.687 510.97 99.8249 512.125 102.462 512.125C105.099 512.125 107.237 510.97 107.237 509.545C107.237 508.12 105.099 506.964 102.462 506.964Z" fill="#E1EAF1"/>
<path d="M83.7903 506.964C81.153 506.964 79.0151 508.12 79.0151 509.545C79.0151 510.97 81.153 512.125 83.7903 512.125C86.4275 512.125 88.5654 510.97 88.5654 509.545C88.5654 508.12 86.4275 506.964 83.7903 506.964Z" fill="#E1EAF1"/>
<path d="M65.1184 506.964C62.4811 506.964 60.3432 508.12 60.3432 509.545C60.3432 510.97 62.4811 512.125 65.1184 512.125C67.7556 512.125 69.8936 510.97 69.8936 509.545C69.8936 508.12 67.7556 506.964 65.1184 506.964Z" fill="#E1EAF1"/>
<path d="M46.4465 506.964C43.8093 506.964 41.6713 508.12 41.6713 509.545C41.6713 510.97 43.8093 512.125 46.4465 512.125C49.0838 512.125 51.2217 510.97 51.2217 509.545C51.2217 508.12 49.0838 506.964 46.4465 506.964Z" fill="#E1EAF1"/>
<path d="M27.7756 506.964C25.1384 506.964 23.0004 508.12 23.0004 509.545C23.0004 510.97 25.1384 512.125 27.7756 512.125C30.4129 512.125 32.5508 510.97 32.5508 509.545C32.5508 508.12 30.4129 506.964 27.7756 506.964Z" fill="#E1EAF1"/>
<path d="M195.821 496.642C193.183 496.642 191.045 497.797 191.045 499.222C191.045 500.647 193.183 501.803 195.821 501.803C198.458 501.803 200.596 500.647 200.596 499.222C200.596 497.797 198.458 496.642 195.821 496.642Z" fill="#E1EAF1"/>
<path d="M177.149 496.642C174.511 496.642 172.373 497.797 172.373 499.222C172.373 500.647 174.511 501.803 177.149 501.803C179.786 501.803 181.924 500.647 181.924 499.222C181.924 497.797 179.786 496.642 177.149 496.642Z" fill="#E1EAF1"/>
<path d="M158.477 496.642C155.84 496.642 153.702 497.797 153.702 499.222C153.702 500.647 155.84 501.803 158.477 501.803C161.114 501.803 163.252 500.647 163.252 499.222C163.252 497.797 161.114 496.642 158.477 496.642Z" fill="#E1EAF1"/>
<path d="M139.805 496.642C137.168 496.642 135.03 497.797 135.03 499.222C135.03 500.647 137.168 501.803 139.805 501.803C142.442 501.803 144.58 500.647 144.58 499.222C144.58 497.797 142.442 496.642 139.805 496.642Z" fill="#E1EAF1"/>
<path d="M121.133 496.642C118.496 496.642 116.358 497.797 116.358 499.222C116.358 500.647 118.496 501.803 121.133 501.803C123.77 501.803 125.908 500.647 125.908 499.222C125.908 497.797 123.77 496.642 121.133 496.642Z" fill="#E1EAF1"/>
<path d="M102.462 496.642C99.8249 496.642 97.687 497.797 97.687 499.222C97.687 500.647 99.8249 501.803 102.462 501.803C105.099 501.803 107.237 500.647 107.237 499.222C107.237 497.797 105.099 496.642 102.462 496.642Z" fill="#E1EAF1"/>
<path d="M83.7903 496.642C81.153 496.642 79.0151 497.797 79.0151 499.222C79.0151 500.647 81.153 501.803 83.7903 501.803C86.4275 501.803 88.5654 500.647 88.5654 499.222C88.5654 497.797 86.4275 496.642 83.7903 496.642Z" fill="#E1EAF1"/>
<path d="M65.1184 496.642C62.4811 496.642 60.3432 497.797 60.3432 499.222C60.3432 500.647 62.4811 501.803 65.1184 501.803C67.7556 501.803 69.8936 500.647 69.8936 499.222C69.8936 497.797 67.7556 496.642 65.1184 496.642Z" fill="#E1EAF1"/>
<path d="M46.4465 496.642C43.8093 496.642 41.6713 497.797 41.6713 499.222C41.6713 500.647 43.8093 501.803 46.4465 501.803C49.0838 501.803 51.2217 500.647 51.2217 499.222C51.2217 497.797 49.0838 496.642 46.4465 496.642Z" fill="#E1EAF1"/>
<path d="M27.7756 496.642C25.1384 496.642 23.0004 497.797 23.0004 499.222C23.0004 500.647 25.1384 501.803 27.7756 501.803C30.4129 501.803 32.5508 500.647 32.5508 499.222C32.5508 497.797 30.4129 496.642 27.7756 496.642Z" fill="#E1EAF1"/>
<path d="M195.821 486.321C193.183 486.321 191.045 487.476 191.045 488.901C191.045 490.326 193.183 491.481 195.821 491.481C198.458 491.481 200.596 490.326 200.596 488.901C200.596 487.476 198.458 486.321 195.821 486.321Z" fill="#E1EAF1"/>
<path d="M177.149 486.321C174.511 486.321 172.373 487.476 172.373 488.901C172.373 490.326 174.511 491.481 177.149 491.481C179.786 491.481 181.924 490.326 181.924 488.901C181.924 487.476 179.786 486.321 177.149 486.321Z" fill="#E1EAF1"/>
<path d="M158.477 486.321C155.84 486.321 153.702 487.476 153.702 488.901C153.702 490.326 155.84 491.481 158.477 491.481C161.114 491.481 163.252 490.326 163.252 488.901C163.252 487.476 161.114 486.321 158.477 486.321Z" fill="#E1EAF1"/>
<path d="M139.805 486.321C137.168 486.321 135.03 487.476 135.03 488.901C135.03 490.326 137.168 491.481 139.805 491.481C142.442 491.481 144.58 490.326 144.58 488.901C144.58 487.476 142.442 486.321 139.805 486.321Z" fill="#E1EAF1"/>
<path d="M121.133 486.321C118.496 486.321 116.358 487.476 116.358 488.901C116.358 490.326 118.496 491.481 121.133 491.481C123.77 491.481 125.908 490.326 125.908 488.901C125.908 487.476 123.77 486.321 121.133 486.321Z" fill="#E1EAF1"/>
<path d="M102.462 486.321C99.8249 486.321 97.687 487.476 97.687 488.901C97.687 490.326 99.8249 491.481 102.462 491.481C105.099 491.481 107.237 490.326 107.237 488.901C107.237 487.476 105.099 486.321 102.462 486.321Z" fill="#E1EAF1"/>
<path d="M83.7903 486.321C81.153 486.321 79.0151 487.476 79.0151 488.901C79.0151 490.326 81.153 491.481 83.7903 491.481C86.4275 491.481 88.5654 490.326 88.5654 488.901C88.5654 487.476 86.4275 486.321 83.7903 486.321Z" fill="#E1EAF1"/>
<path d="M65.1184 486.321C62.4811 486.321 60.3432 487.476 60.3432 488.901C60.3432 490.326 62.4811 491.481 65.1184 491.481C67.7556 491.481 69.8936 490.326 69.8936 488.901C69.8936 487.476 67.7556 486.321 65.1184 486.321Z" fill="#E1EAF1"/>
<path d="M46.4465 486.321C43.8093 486.321 41.6713 487.476 41.6713 488.901C41.6713 490.326 43.8093 491.481 46.4465 491.481C49.0838 491.481 51.2217 490.326 51.2217 488.901C51.2217 487.476 49.0838 486.321 46.4465 486.321Z" fill="#E1EAF1"/>
<path d="M27.7756 486.321C25.1384 486.321 23.0004 487.476 23.0004 488.901C23.0004 490.326 25.1384 491.481 27.7756 491.481C30.4129 491.481 32.5508 490.326 32.5508 488.901C32.5508 487.476 30.4129 486.321 27.7756 486.321Z" fill="#E1EAF1"/>
<path d="M195.821 476.001C193.183 476.001 191.045 477.156 191.045 478.581C191.045 480.006 193.183 481.161 195.821 481.161C198.458 481.161 200.596 480.006 200.596 478.581C200.596 477.156 198.458 476.001 195.821 476.001Z" fill="#E1EAF1"/>
<path d="M177.149 476.001C174.511 476.001 172.373 477.156 172.373 478.581C172.373 480.006 174.511 481.161 177.149 481.161C179.786 481.161 181.924 480.006 181.924 478.581C181.924 477.156 179.786 476.001 177.149 476.001Z" fill="#E1EAF1"/>
<path d="M158.477 476.001C155.84 476.001 153.702 477.156 153.702 478.581C153.702 480.006 155.84 481.161 158.477 481.161C161.114 481.161 163.252 480.006 163.252 478.581C163.252 477.156 161.114 476.001 158.477 476.001Z" fill="#E1EAF1"/>
<path d="M139.805 476.001C137.168 476.001 135.03 477.156 135.03 478.581C135.03 480.006 137.168 481.161 139.805 481.161C142.442 481.161 144.58 480.006 144.58 478.581C144.58 477.156 142.442 476.001 139.805 476.001Z" fill="#E1EAF1"/>
<path d="M121.133 476.001C118.496 476.001 116.358 477.156 116.358 478.581C116.358 480.006 118.496 481.161 121.133 481.161C123.77 481.161 125.908 480.006 125.908 478.581C125.908 477.156 123.77 476.001 121.133 476.001Z" fill="#E1EAF1"/>
<path d="M102.462 476.001C99.8249 476.001 97.687 477.156 97.687 478.581C97.687 480.006 99.8249 481.161 102.462 481.161C105.099 481.161 107.237 480.006 107.237 478.581C107.237 477.156 105.099 476.001 102.462 476.001Z" fill="#E1EAF1"/>
<path d="M83.7903 476.001C81.153 476.001 79.0151 477.156 79.0151 478.581C79.0151 480.006 81.153 481.161 83.7903 481.161C86.4275 481.161 88.5654 480.006 88.5654 478.581C88.5654 477.156 86.4275 476.001 83.7903 476.001Z" fill="#E1EAF1"/>
<path d="M65.1184 476.001C62.4811 476.001 60.3432 477.156 60.3432 478.581C60.3432 480.006 62.4811 481.161 65.1184 481.161C67.7556 481.161 69.8936 480.006 69.8936 478.581C69.8936 477.156 67.7556 476.001 65.1184 476.001Z" fill="#E1EAF1"/>
<path d="M46.4465 476.001C43.8093 476.001 41.6713 477.156 41.6713 478.581C41.6713 480.006 43.8093 481.161 46.4465 481.161C49.0838 481.161 51.2217 480.006 51.2217 478.581C51.2217 477.156 49.0838 476.001 46.4465 476.001Z" fill="#E1EAF1"/>
<path d="M27.7756 476.001C25.1384 476.001 23.0004 477.156 23.0004 478.581C23.0004 480.006 25.1384 481.161 27.7756 481.161C30.4129 481.161 32.5508 480.006 32.5508 478.581C32.5508 477.156 30.4129 476.001 27.7756 476.001Z" fill="#E1EAF1"/>
</g>
<path d="M81.5208 18.1091L68.4393 24.1148L74.0036 33.0282L60.3545 27.8265L47.273 33.8322L51.9189 24.6117L38.2699 19.41L54.7903 18.9131L59.4362 9.69255L65.0004 18.606L81.5208 18.1091Z" fill="#9FFFEA" fill-opacity="0.75"/>
<path d="M119.051 29.7972L109.562 34.119L113.536 40.4858L103.697 36.7901L94.2069 41.1119L97.6156 34.506L87.7761 30.8103L99.7222 30.4233L103.131 23.8175L107.105 30.1842L119.051 29.7972Z" fill="#9FFFEA" fill-opacity="0.75"/>
<path d="M72.7107 52.4317L58.4051 59.2656L64.963 69.7707L49.5638 63.4892L35.2582 70.323L40.0465 59.6069L24.6473 53.3254L43.0059 52.984L47.7943 42.268L54.3521 52.7731L72.7107 52.4317Z" fill="#9FFFEA" fill-opacity="0.75"/>
<rect x="675" y="570.755" width="8.27606" height="25.5886" fill="#EBFA3E" fill-opacity="0.75"/>
<rect x="690.369" y="588.029" width="24.8282" height="16.6326" fill="#EBFA3E" fill-opacity="0.75"/>
<rect x="699.829" y="565" width="10.6407" height="18.5517" fill="#EBFA3E" fill-opacity="0.75"/>
<defs>
<clipPath id="clip0_338_5208">
<rect width="185.043" height="187.136" fill="white" transform="matrix(0.819323 -0.573333 0.819323 0.573333 456.066 179.228)"/>
</clipPath>
<clipPath id="clip1_338_5208">
<rect width="194" height="118" fill="white" transform="matrix(0 -1 1 0 102 719)"/>
</clipPath>
<clipPath id="clip2_338_5208">
<rect width="182.426" height="98.5753" fill="white" transform="translate(23 476)"/>
</clipPath>
</defs>
</svg>
