<svg width="766" height="465" viewBox="0 0 766 465" fill="none" xmlns="http://www.w3.org/2000/svg">
<path d="M627 333.651C627 325.367 620.284 318.651 612 318.651H428C419.716 318.651 413 325.367 413 333.651V441.277C413 449.561 419.716 456.277 428 456.277H612C620.284 456.277 627 449.561 627 441.277V333.651Z" fill="#87E2FF" fill-opacity="0.5"/>
<rect width="7.24638" height="30.9906" rx="3.62319" transform="matrix(-1 0 0 1 766 399.756)" fill="#FFF622" fill-opacity="0.3"/>
<rect width="30.4348" height="19.5375" rx="9.76877" transform="matrix(-1 0 0 1 752.231 419.294)" fill="#FFF622" fill-opacity="0.3"/>
<rect width="17.3913" height="19.5375" rx="8.69565" transform="matrix(-1 0 0 1 744.985 395.713)" fill="#FFF622" fill-opacity="0.3"/>
<path d="M736.652 387.572C736.652 385.371 734.868 383.587 732.667 383.587C730.466 383.587 728.681 385.371 728.681 387.572V387.686C728.681 389.887 730.466 391.671 732.667 391.671C734.868 391.671 736.652 389.887 736.652 387.686V387.572Z" fill="#FFF622" fill-opacity="0.3"/>
<rect width="7.97101" height="8.0845" rx="3.98551" transform="matrix(-1 0 0 1 723.971 407.166)" fill="#FFF622" fill-opacity="0.3"/>
<path d="M636 69.0837C636 99.3265 661.072 123.843 692 123.843C722.928 123.843 748 99.3265 748 69.0837C748 38.8409 722.928 14.3242 692 14.3242C661.072 14.3242 636 38.8409 636 69.0837Z" fill="#9967AB" fill-opacity="0.3"/>
<g opacity="0.2">
<ellipse cx="3.5" cy="3.25601" rx="3.5" ry="3.25601" transform="matrix(-1 0 0 1 223 348.696)" fill="#00FF01"/>
<ellipse cx="3.5" cy="3.25601" rx="3.5" ry="3.25601" transform="matrix(-1 0 0 1 223 364.381)" fill="#00FF01"/>
<ellipse cx="3.5" cy="3.25601" rx="3.5" ry="3.25601" transform="matrix(-1 0 0 1 223 380.064)" fill="#00FF01"/>
<ellipse cx="3.5" cy="3.25601" rx="3.5" ry="3.25601" transform="matrix(-1 0 0 1 223 395.75)" fill="#00FF01"/>
<ellipse cx="3.5" cy="3.25601" rx="3.5" ry="3.25601" transform="matrix(-1 0 0 1 223 411.434)" fill="#00FF01"/>
<ellipse cx="3.5" cy="3.25601" rx="3.5" ry="3.25601" transform="matrix(-1 0 0 1 223 427.118)" fill="#00FF01"/>
<ellipse cx="3.5" cy="3.25601" rx="3.5" ry="3.25601" transform="matrix(-1 0 0 1 223 442.802)" fill="#00FF01"/>
<ellipse cx="3.5" cy="3.25601" rx="3.5" ry="3.25601" transform="matrix(-1 0 0 1 223 458.488)" fill="#00FF01"/>
<ellipse cx="3.5" cy="3.25601" rx="3.5" ry="3.25601" transform="matrix(-1 0 0 1 209 348.696)" fill="#00FF01"/>
<ellipse cx="3.5" cy="3.25601" rx="3.5" ry="3.25601" transform="matrix(-1 0 0 1 209 364.381)" fill="#00FF01"/>
<ellipse cx="3.5" cy="3.25601" rx="3.5" ry="3.25601" transform="matrix(-1 0 0 1 209 380.064)" fill="#00FF01"/>
<ellipse cx="3.5" cy="3.25601" rx="3.5" ry="3.25601" transform="matrix(-1 0 0 1 209 395.749)" fill="#00FF01"/>
<ellipse cx="3.5" cy="3.25601" rx="3.5" ry="3.25601" transform="matrix(-1 0 0 1 209 411.434)" fill="#00FF01"/>
<ellipse cx="3.5" cy="3.25601" rx="3.5" ry="3.25601" transform="matrix(-1 0 0 1 209 427.118)" fill="#00FF01"/>
<ellipse cx="3.5" cy="3.25601" rx="3.5" ry="3.25601" transform="matrix(-1 0 0 1 209 442.804)" fill="#00FF01"/>
<ellipse cx="3.5" cy="3.25601" rx="3.5" ry="3.25601" transform="matrix(-1 0 0 1 209 458.488)" fill="#00FF01"/>
<ellipse cx="3.5" cy="3.25601" rx="3.5" ry="3.25601" transform="matrix(-1 0 0 1 195 348.696)" fill="#00FF01"/>
<ellipse cx="3.5" cy="3.25601" rx="3.5" ry="3.25601" transform="matrix(-1 0 0 1 195 364.381)" fill="#00FF01"/>
<ellipse cx="3.5" cy="3.25601" rx="3.5" ry="3.25601" transform="matrix(-1 0 0 1 195 380.064)" fill="#00FF01"/>
<ellipse cx="3.5" cy="3.25601" rx="3.5" ry="3.25601" transform="matrix(-1 0 0 1 195 395.749)" fill="#00FF01"/>
<ellipse cx="3.5" cy="3.25601" rx="3.5" ry="3.25601" transform="matrix(-1 0 0 1 195 411.434)" fill="#00FF01"/>
<ellipse cx="3.5" cy="3.25601" rx="3.5" ry="3.25601" transform="matrix(-1 0 0 1 195 427.118)" fill="#00FF01"/>
<ellipse cx="3.5" cy="3.25601" rx="3.5" ry="3.25601" transform="matrix(-1 0 0 1 195 442.804)" fill="#00FF01"/>
<ellipse cx="3.5" cy="3.25601" rx="3.5" ry="3.25601" transform="matrix(-1 0 0 1 195 458.488)" fill="#00FF01"/>
<ellipse cx="3.5" cy="3.25601" rx="3.5" ry="3.25601" transform="matrix(-1 0 0 1 181 348.696)" fill="#00FF01"/>
<ellipse cx="3.5" cy="3.25601" rx="3.5" ry="3.25601" transform="matrix(-1 0 0 1 181 364.381)" fill="#00FF01"/>
<ellipse cx="3.5" cy="3.25601" rx="3.5" ry="3.25601" transform="matrix(-1 0 0 1 181 380.064)" fill="#00FF01"/>
<ellipse cx="3.5" cy="3.25601" rx="3.5" ry="3.25601" transform="matrix(-1 0 0 1 181 395.749)" fill="#00FF01"/>
<ellipse cx="3.5" cy="3.25601" rx="3.5" ry="3.25601" transform="matrix(-1 0 0 1 181 411.434)" fill="#00FF01"/>
<ellipse cx="3.5" cy="3.25601" rx="3.5" ry="3.25601" transform="matrix(-1 0 0 1 181 427.118)" fill="#00FF01"/>
<ellipse cx="3.5" cy="3.25601" rx="3.5" ry="3.25601" transform="matrix(-1 0 0 1 181 442.804)" fill="#00FF01"/>
<ellipse cx="3.5" cy="3.25601" rx="3.5" ry="3.25601" transform="matrix(-1 0 0 1 181 458.488)" fill="#00FF01"/>
<ellipse cx="3.5" cy="3.25601" rx="3.5" ry="3.25601" transform="matrix(-1 0 0 1 167 348.696)" fill="#00FF01"/>
<ellipse cx="3.5" cy="3.25601" rx="3.5" ry="3.25601" transform="matrix(-1 0 0 1 167 364.381)" fill="#00FF01"/>
<ellipse cx="3.5" cy="3.25601" rx="3.5" ry="3.25601" transform="matrix(-1 0 0 1 167 380.064)" fill="#00FF01"/>
<ellipse cx="3.5" cy="3.25601" rx="3.5" ry="3.25601" transform="matrix(-1 0 0 1 167 395.749)" fill="#00FF01"/>
<ellipse cx="3.5" cy="3.25601" rx="3.5" ry="3.25601" transform="matrix(-1 0 0 1 167 411.434)" fill="#00FF01"/>
<ellipse cx="3.5" cy="3.25601" rx="3.5" ry="3.25601" transform="matrix(-1 0 0 1 167 427.118)" fill="#00FF01"/>
<ellipse cx="3.5" cy="3.25601" rx="3.5" ry="3.25601" transform="matrix(-1 0 0 1 167 442.804)" fill="#00FF01"/>
<ellipse cx="3.5" cy="3.25601" rx="3.5" ry="3.25601" transform="matrix(-1 0 0 1 167 458.488)" fill="#00FF01"/>
<ellipse cx="3.5" cy="3.25601" rx="3.5" ry="3.25601" transform="matrix(-1 0 0 1 153 348.696)" fill="#00FF01"/>
<ellipse cx="3.5" cy="3.25601" rx="3.5" ry="3.25601" transform="matrix(-1 0 0 1 153 364.381)" fill="#00FF01"/>
<ellipse cx="3.5" cy="3.25601" rx="3.5" ry="3.25601" transform="matrix(-1 0 0 1 153 380.064)" fill="#00FF01"/>
<ellipse cx="3.5" cy="3.25601" rx="3.5" ry="3.25601" transform="matrix(-1 0 0 1 153 395.749)" fill="#00FF01"/>
<ellipse cx="3.5" cy="3.25601" rx="3.5" ry="3.25601" transform="matrix(-1 0 0 1 153 411.434)" fill="#00FF01"/>
<ellipse cx="3.5" cy="3.25601" rx="3.5" ry="3.25601" transform="matrix(-1 0 0 1 153 427.118)" fill="#00FF01"/>
<ellipse cx="3.5" cy="3.25601" rx="3.5" ry="3.25601" transform="matrix(-1 0 0 1 153 442.804)" fill="#00FF01"/>
<ellipse cx="3.5" cy="3.25601" rx="3.5" ry="3.25601" transform="matrix(-1 0 0 1 153 458.488)" fill="#00FF01"/>
<ellipse cx="3.5" cy="3.25601" rx="3.5" ry="3.25601" transform="matrix(-1 0 0 1 139 348.696)" fill="#00FF01"/>
<ellipse cx="3.5" cy="3.25601" rx="3.5" ry="3.25601" transform="matrix(-1 0 0 1 139 364.381)" fill="#00FF01"/>
<ellipse cx="3.5" cy="3.25601" rx="3.5" ry="3.25601" transform="matrix(-1 0 0 1 139 380.064)" fill="#00FF01"/>
<ellipse cx="3.5" cy="3.25601" rx="3.5" ry="3.25601" transform="matrix(-1 0 0 1 139 395.749)" fill="#00FF01"/>
<ellipse cx="3.5" cy="3.25601" rx="3.5" ry="3.25601" transform="matrix(-1 0 0 1 139 411.434)" fill="#00FF01"/>
<ellipse cx="3.5" cy="3.25601" rx="3.5" ry="3.25601" transform="matrix(-1 0 0 1 139 427.118)" fill="#00FF01"/>
<ellipse cx="3.5" cy="3.25601" rx="3.5" ry="3.25601" transform="matrix(-1 0 0 1 139 442.804)" fill="#00FF01"/>
<ellipse cx="3.5" cy="3.25601" rx="3.5" ry="3.25601" transform="matrix(-1 0 0 1 139 458.488)" fill="#00FF01"/>
<ellipse cx="3.5" cy="3.25601" rx="3.5" ry="3.25601" transform="matrix(-1 0 0 1 125 348.696)" fill="#00FF01"/>
<ellipse cx="3.5" cy="3.25601" rx="3.5" ry="3.25601" transform="matrix(-1 0 0 1 125 364.381)" fill="#00FF01"/>
<ellipse cx="3.5" cy="3.25601" rx="3.5" ry="3.25601" transform="matrix(-1 0 0 1 125 380.064)" fill="#00FF01"/>
<ellipse cx="3.5" cy="3.25601" rx="3.5" ry="3.25601" transform="matrix(-1 0 0 1 125 395.749)" fill="#00FF01"/>
<ellipse cx="3.5" cy="3.25601" rx="3.5" ry="3.25601" transform="matrix(-1 0 0 1 125 411.434)" fill="#00FF01"/>
<ellipse cx="3.5" cy="3.25601" rx="3.5" ry="3.25601" transform="matrix(-1 0 0 1 125 427.118)" fill="#00FF01"/>
<ellipse cx="3.5" cy="3.25601" rx="3.5" ry="3.25601" transform="matrix(-1 0 0 1 125 442.804)" fill="#00FF01"/>
<ellipse cx="3.5" cy="3.25601" rx="3.5" ry="3.25601" transform="matrix(-1 0 0 1 125 458.488)" fill="#00FF01"/>
<ellipse cx="3.5" cy="3.25601" rx="3.5" ry="3.25601" transform="matrix(-1 0 0 1 111 348.696)" fill="#00FF01"/>
<ellipse cx="3.5" cy="3.25601" rx="3.5" ry="3.25601" transform="matrix(-1 0 0 1 111 364.381)" fill="#00FF01"/>
<ellipse cx="3.5" cy="3.25601" rx="3.5" ry="3.25601" transform="matrix(-1 0 0 1 111 380.064)" fill="#00FF01"/>
<ellipse cx="3.5" cy="3.25601" rx="3.5" ry="3.25601" transform="matrix(-1 0 0 1 111 395.749)" fill="#00FF01"/>
<ellipse cx="3.5" cy="3.25601" rx="3.5" ry="3.25601" transform="matrix(-1 0 0 1 111 411.434)" fill="#00FF01"/>
<ellipse cx="3.5" cy="3.25601" rx="3.5" ry="3.25601" transform="matrix(-1 0 0 1 111 427.118)" fill="#00FF01"/>
<ellipse cx="3.5" cy="3.25601" rx="3.5" ry="3.25601" transform="matrix(-1 0 0 1 111 442.804)" fill="#00FF01"/>
<ellipse cx="3.5" cy="3.25601" rx="3.5" ry="3.25601" transform="matrix(-1 0 0 1 111 458.488)" fill="#00FF01"/>
<ellipse cx="3.5" cy="3.25601" rx="3.5" ry="3.25601" transform="matrix(-1 0 0 1 97 348.696)" fill="#00FF01"/>
<ellipse cx="3.5" cy="3.25601" rx="3.5" ry="3.25601" transform="matrix(-1 0 0 1 97 364.381)" fill="#00FF01"/>
<ellipse cx="3.5" cy="3.25601" rx="3.5" ry="3.25601" transform="matrix(-1 0 0 1 97 380.064)" fill="#00FF01"/>
<ellipse cx="3.5" cy="3.25601" rx="3.5" ry="3.25601" transform="matrix(-1 0 0 1 97 395.749)" fill="#00FF01"/>
<ellipse cx="3.5" cy="3.25601" rx="3.5" ry="3.25601" transform="matrix(-1 0 0 1 97 411.434)" fill="#00FF01"/>
<ellipse cx="3.5" cy="3.25601" rx="3.5" ry="3.25601" transform="matrix(-1 0 0 1 97 427.118)" fill="#00FF01"/>
<ellipse cx="3.5" cy="3.25601" rx="3.5" ry="3.25601" transform="matrix(-1 0 0 1 97 442.804)" fill="#00FF01"/>
<ellipse cx="3.5" cy="3.25601" rx="3.5" ry="3.25601" transform="matrix(-1 0 0 1 97 458.488)" fill="#00FF01"/>
</g>
<g opacity="0.2">
<ellipse cx="3.5" cy="3.25601" rx="3.5" ry="3.25601" transform="matrix(-1 0 0 1 153 348.696)" fill="#00FF01"/>
<ellipse cx="3.5" cy="3.25601" rx="3.5" ry="3.25601" transform="matrix(-1 0 0 1 153 364.381)" fill="#00FF01"/>
<ellipse cx="3.5" cy="3.25601" rx="3.5" ry="3.25601" transform="matrix(-1 0 0 1 153 380.064)" fill="#00FF01"/>
<ellipse cx="3.5" cy="3.25601" rx="3.5" ry="3.25601" transform="matrix(-1 0 0 1 153 395.75)" fill="#00FF01"/>
<ellipse cx="3.5" cy="3.25601" rx="3.5" ry="3.25601" transform="matrix(-1 0 0 1 153 411.434)" fill="#00FF01"/>
<ellipse cx="3.5" cy="3.25601" rx="3.5" ry="3.25601" transform="matrix(-1 0 0 1 139 348.696)" fill="#00FF01"/>
<ellipse cx="3.5" cy="3.25601" rx="3.5" ry="3.25601" transform="matrix(-1 0 0 1 139 364.381)" fill="#00FF01"/>
<ellipse cx="3.5" cy="3.25601" rx="3.5" ry="3.25601" transform="matrix(-1 0 0 1 139 380.064)" fill="#00FF01"/>
<ellipse cx="3.5" cy="3.25601" rx="3.5" ry="3.25601" transform="matrix(-1 0 0 1 139 395.749)" fill="#00FF01"/>
<ellipse cx="3.5" cy="3.25601" rx="3.5" ry="3.25601" transform="matrix(-1 0 0 1 139 411.434)" fill="#00FF01"/>
<ellipse cx="3.5" cy="3.25601" rx="3.5" ry="3.25601" transform="matrix(-1 0 0 1 125 348.696)" fill="#00FF01"/>
<ellipse cx="3.5" cy="3.25601" rx="3.5" ry="3.25601" transform="matrix(-1 0 0 1 125 364.381)" fill="#00FF01"/>
<ellipse cx="3.5" cy="3.25601" rx="3.5" ry="3.25601" transform="matrix(-1 0 0 1 125 380.064)" fill="#00FF01"/>
<ellipse cx="3.5" cy="3.25601" rx="3.5" ry="3.25601" transform="matrix(-1 0 0 1 125 395.749)" fill="#00FF01"/>
<ellipse cx="3.5" cy="3.25601" rx="3.5" ry="3.25601" transform="matrix(-1 0 0 1 125 411.434)" fill="#00FF01"/>
<ellipse cx="3.5" cy="3.25601" rx="3.5" ry="3.25601" transform="matrix(-1 0 0 1 111 348.696)" fill="#00FF01"/>
<ellipse cx="3.5" cy="3.25601" rx="3.5" ry="3.25601" transform="matrix(-1 0 0 1 111 364.381)" fill="#00FF01"/>
<ellipse cx="3.5" cy="3.25601" rx="3.5" ry="3.25601" transform="matrix(-1 0 0 1 111 380.064)" fill="#00FF01"/>
<ellipse cx="3.5" cy="3.25601" rx="3.5" ry="3.25601" transform="matrix(-1 0 0 1 111 395.749)" fill="#00FF01"/>
<ellipse cx="3.5" cy="3.25601" rx="3.5" ry="3.25601" transform="matrix(-1 0 0 1 111 411.434)" fill="#00FF01"/>
<ellipse cx="3.5" cy="3.25601" rx="3.5" ry="3.25601" transform="matrix(-1 0 0 1 97 348.696)" fill="#00FF01"/>
<ellipse cx="3.5" cy="3.25601" rx="3.5" ry="3.25601" transform="matrix(-1 0 0 1 97 364.381)" fill="#00FF01"/>
<ellipse cx="3.5" cy="3.25601" rx="3.5" ry="3.25601" transform="matrix(-1 0 0 1 97 380.064)" fill="#00FF01"/>
<ellipse cx="3.5" cy="3.25601" rx="3.5" ry="3.25601" transform="matrix(-1 0 0 1 97 395.749)" fill="#00FF01"/>
<ellipse cx="3.5" cy="3.25601" rx="3.5" ry="3.25601" transform="matrix(-1 0 0 1 97 411.434)" fill="#00FF01"/>
<ellipse cx="3.5" cy="3.25601" rx="3.5" ry="3.25601" transform="matrix(-1 0 0 1 83 348.696)" fill="#00FF01"/>
<ellipse cx="3.5" cy="3.25601" rx="3.5" ry="3.25601" transform="matrix(-1 0 0 1 83 364.381)" fill="#00FF01"/>
<ellipse cx="3.5" cy="3.25601" rx="3.5" ry="3.25601" transform="matrix(-1 0 0 1 83 380.064)" fill="#00FF01"/>
<ellipse cx="3.5" cy="3.25601" rx="3.5" ry="3.25601" transform="matrix(-1 0 0 1 83 395.749)" fill="#00FF01"/>
<ellipse cx="3.5" cy="3.25601" rx="3.5" ry="3.25601" transform="matrix(-1 0 0 1 83 411.434)" fill="#00FF01"/>
<ellipse cx="3.5" cy="3.25601" rx="3.5" ry="3.25601" transform="matrix(-1 0 0 1 83 427.118)" fill="#00FF01"/>
<ellipse cx="3.5" cy="3.25601" rx="3.5" ry="3.25601" transform="matrix(-1 0 0 1 83 442.804)" fill="#00FF01"/>
<ellipse cx="3.5" cy="3.25601" rx="3.5" ry="3.25601" transform="matrix(-1 0 0 1 83 458.488)" fill="#00FF01"/>
<ellipse cx="3.5" cy="3.25601" rx="3.5" ry="3.25601" transform="matrix(-1 0 0 1 69 348.696)" fill="#00FF01"/>
<ellipse cx="3.5" cy="3.25601" rx="3.5" ry="3.25601" transform="matrix(-1 0 0 1 69 364.381)" fill="#00FF01"/>
<ellipse cx="3.5" cy="3.25601" rx="3.5" ry="3.25601" transform="matrix(-1 0 0 1 69 380.064)" fill="#00FF01"/>
<ellipse cx="3.5" cy="3.25601" rx="3.5" ry="3.25601" transform="matrix(-1 0 0 1 69 395.749)" fill="#00FF01"/>
<ellipse cx="3.5" cy="3.25601" rx="3.5" ry="3.25601" transform="matrix(-1 0 0 1 69 411.434)" fill="#00FF01"/>
<ellipse cx="3.5" cy="3.25601" rx="3.5" ry="3.25601" transform="matrix(-1 0 0 1 69 427.118)" fill="#00FF01"/>
<ellipse cx="3.5" cy="3.25601" rx="3.5" ry="3.25601" transform="matrix(-1 0 0 1 69 442.804)" fill="#00FF01"/>
<ellipse cx="3.5" cy="3.25601" rx="3.5" ry="3.25601" transform="matrix(-1 0 0 1 69 458.488)" fill="#00FF01"/>
<ellipse cx="3.5" cy="3.25601" rx="3.5" ry="3.25601" transform="matrix(-1 0 0 1 55 348.696)" fill="#00FF01"/>
<ellipse cx="3.5" cy="3.25601" rx="3.5" ry="3.25601" transform="matrix(-1 0 0 1 55 364.381)" fill="#00FF01"/>
<ellipse cx="3.5" cy="3.25601" rx="3.5" ry="3.25601" transform="matrix(-1 0 0 1 55 380.064)" fill="#00FF01"/>
<ellipse cx="3.5" cy="3.25601" rx="3.5" ry="3.25601" transform="matrix(-1 0 0 1 55 395.749)" fill="#00FF01"/>
<ellipse cx="3.5" cy="3.25601" rx="3.5" ry="3.25601" transform="matrix(-1 0 0 1 55 411.434)" fill="#00FF01"/>
<ellipse cx="3.5" cy="3.25601" rx="3.5" ry="3.25601" transform="matrix(-1 0 0 1 55 427.118)" fill="#00FF01"/>
<ellipse cx="3.5" cy="3.25601" rx="3.5" ry="3.25601" transform="matrix(-1 0 0 1 55 442.804)" fill="#00FF01"/>
<ellipse cx="3.5" cy="3.25601" rx="3.5" ry="3.25601" transform="matrix(-1 0 0 1 55 458.488)" fill="#00FF01"/>
<ellipse cx="3.5" cy="3.25601" rx="3.5" ry="3.25601" transform="matrix(-1 0 0 1 41 348.696)" fill="#00FF01"/>
<ellipse cx="3.5" cy="3.25601" rx="3.5" ry="3.25601" transform="matrix(-1 0 0 1 41 364.381)" fill="#00FF01"/>
<ellipse cx="3.5" cy="3.25601" rx="3.5" ry="3.25601" transform="matrix(-1 0 0 1 41 380.064)" fill="#00FF01"/>
<ellipse cx="3.5" cy="3.25601" rx="3.5" ry="3.25601" transform="matrix(-1 0 0 1 41 395.749)" fill="#00FF01"/>
<ellipse cx="3.5" cy="3.25601" rx="3.5" ry="3.25601" transform="matrix(-1 0 0 1 41 411.434)" fill="#00FF01"/>
<ellipse cx="3.5" cy="3.25601" rx="3.5" ry="3.25601" transform="matrix(-1 0 0 1 41 427.118)" fill="#00FF01"/>
<ellipse cx="3.5" cy="3.25601" rx="3.5" ry="3.25601" transform="matrix(-1 0 0 1 41 442.804)" fill="#00FF01"/>
<ellipse cx="3.5" cy="3.25601" rx="3.5" ry="3.25601" transform="matrix(-1 0 0 1 41 458.488)" fill="#00FF01"/>
<ellipse cx="3.5" cy="3.25601" rx="3.5" ry="3.25601" transform="matrix(-1 0 0 1 27 348.696)" fill="#00FF01"/>
<ellipse cx="3.5" cy="3.25601" rx="3.5" ry="3.25601" transform="matrix(-1 0 0 1 27 364.381)" fill="#00FF01"/>
<ellipse cx="3.5" cy="3.25601" rx="3.5" ry="3.25601" transform="matrix(-1 0 0 1 27 380.064)" fill="#00FF01"/>
<ellipse cx="3.5" cy="3.25601" rx="3.5" ry="3.25601" transform="matrix(-1 0 0 1 27 395.749)" fill="#00FF01"/>
<ellipse cx="3.5" cy="3.25601" rx="3.5" ry="3.25601" transform="matrix(-1 0 0 1 27 411.434)" fill="#00FF01"/>
<ellipse cx="3.5" cy="3.25601" rx="3.5" ry="3.25601" transform="matrix(-1 0 0 1 27 427.118)" fill="#00FF01"/>
<ellipse cx="3.5" cy="3.25601" rx="3.5" ry="3.25601" transform="matrix(-1 0 0 1 27 442.804)" fill="#00FF01"/>
<ellipse cx="3.5" cy="3.25601" rx="3.5" ry="3.25601" transform="matrix(-1 0 0 1 27 458.488)" fill="#00FF01"/>
</g>
<g clip-path="url(#clip0_170_3062)">
<path d="M430.777 91.5495C428.299 91.5573 425.874 92.5174 425.361 93.6939C424.848 94.8704 426.44 95.8178 428.918 95.81C431.396 95.8022 433.821 94.8422 434.334 93.6656C434.848 92.4891 433.255 91.5417 430.777 91.5495Z" fill="#D5435D" fill-opacity="0.5"/>
<path d="M434.493 83.029C432.015 83.0368 429.59 83.9968 429.077 85.1734C428.563 86.3499 430.156 87.2973 432.634 87.2895C435.112 87.2817 437.537 86.3216 438.05 85.1451C438.563 83.9686 436.971 83.0212 434.493 83.029Z" fill="#D5435D" fill-opacity="0.5"/>
<path d="M416.546 83.0847C414.068 83.0924 411.643 84.0525 411.13 85.229C410.617 86.4055 412.21 87.353 414.688 87.3452C417.166 87.3374 419.591 86.3773 420.104 85.2008C420.617 84.0243 419.024 83.0769 416.546 83.0847Z" fill="#D5435D" fill-opacity="0.5"/>
<path d="M438.21 74.5065C435.732 74.5143 433.307 75.4744 432.794 76.6509C432.281 77.8274 433.874 78.7748 436.352 78.767C438.83 78.7592 441.255 77.7992 441.768 76.6227C442.281 75.4462 440.688 74.4987 438.21 74.5065Z" fill="#D5435D" fill-opacity="0.5"/>
<path d="M420.263 74.5632C417.785 74.571 415.36 75.531 414.847 76.7075C414.334 77.884 415.927 78.8315 418.405 78.8237C420.883 78.8159 423.308 77.8558 423.821 76.6793C424.334 75.5028 422.741 74.5554 420.263 74.5632Z" fill="#D5435D" fill-opacity="0.5"/>
<path d="M402.316 74.6198C399.838 74.6276 397.413 75.5877 396.9 76.7642C396.387 77.9407 397.979 78.8881 400.457 78.8803C402.936 78.8725 405.36 77.9125 405.873 76.736C406.387 75.5594 404.794 74.612 402.316 74.6198Z" fill="#D5435D" fill-opacity="0.5"/>
<path d="M441.926 65.986C439.448 65.9938 437.023 66.9539 436.51 68.1304C435.997 69.3069 437.59 70.2543 440.068 70.2465C442.546 70.2387 444.971 69.2787 445.484 68.1022C445.997 66.9257 444.404 65.9782 441.926 65.986Z" fill="#D5435D" fill-opacity="0.5"/>
<path d="M423.98 66.0427C421.502 66.0505 419.077 67.0105 418.564 68.187C418.051 69.3635 419.644 70.311 422.122 70.3032C424.6 70.2954 427.024 69.3353 427.538 68.1588C428.051 66.9823 426.458 66.0349 423.98 66.0427Z" fill="#D5435D" fill-opacity="0.5"/>
<path d="M406.032 66.0993C403.554 66.1071 401.129 67.0672 400.616 68.2437C400.102 69.4202 401.695 70.3676 404.173 70.3598C406.651 70.352 409.076 69.392 409.589 68.2154C410.102 67.0389 408.51 66.0915 406.032 66.0993Z" fill="#D5435D" fill-opacity="0.5"/>
<path d="M388.085 66.1559C385.607 66.1637 383.182 67.1238 382.669 68.3003C382.156 69.4768 383.749 70.4242 386.227 70.4165C388.705 70.4087 391.13 69.4486 391.643 68.2721C392.156 67.0956 390.563 66.1481 388.085 66.1559Z" fill="#D5435D" fill-opacity="0.5"/>
<path d="M445.643 57.4655C443.165 57.4733 440.74 58.4334 440.227 59.6099C439.714 60.7864 441.307 61.7338 443.785 61.726C446.263 61.7182 448.687 60.7582 449.201 59.5817C449.714 58.4052 448.121 57.4577 445.643 57.4655Z" fill="#D5435D" fill-opacity="0.5"/>
<path d="M427.697 57.5222C425.219 57.5299 422.794 58.49 422.281 59.6665C421.768 60.843 423.36 61.7905 425.838 61.7827C428.316 61.7749 430.741 60.8148 431.254 59.6383C431.768 58.4618 430.175 57.5144 427.697 57.5222Z" fill="#D5435D" fill-opacity="0.5"/>
<path d="M409.748 57.5778C407.27 57.5856 404.846 58.5457 404.332 59.7222C403.819 60.8987 405.412 61.8461 407.89 61.8383C410.368 61.8305 412.793 60.8705 413.306 59.694C413.819 58.5175 412.226 57.57 409.748 57.5778Z" fill="#D5435D" fill-opacity="0.5"/>
<path d="M391.802 57.6345C389.324 57.6423 386.899 58.6023 386.386 59.7788C385.873 60.9553 387.466 61.9028 389.944 61.895C392.422 61.8872 394.847 60.9271 395.36 59.7506C395.873 58.5741 394.28 57.6267 391.802 57.6345Z" fill="#D5435D" fill-opacity="0.5"/>
<path d="M373.855 57.6911C371.377 57.6989 368.952 58.659 368.439 59.8355C367.926 61.012 369.519 61.9594 371.997 61.9516C374.475 61.9438 376.899 60.9838 377.413 59.8072C377.926 58.6307 376.333 57.6833 373.855 57.6911Z" fill="#D5435D" fill-opacity="0.5"/>
<path d="M449.36 48.944C446.882 48.9518 444.457 49.9119 443.944 51.0884C443.431 52.2649 445.023 53.2123 447.501 53.2045C449.979 53.1967 452.404 52.2367 452.917 51.0602C453.431 49.8837 451.838 48.9362 449.36 48.944Z" fill="#D5435D" fill-opacity="0.5"/>
<path d="M431.412 49.0007C428.934 49.0085 426.51 49.9685 425.996 51.145C425.483 52.3215 427.076 53.269 429.554 53.2612C432.032 53.2534 434.457 52.2933 434.97 51.1168C435.483 49.9403 433.89 48.9929 431.412 49.0007Z" fill="#D5435D" fill-opacity="0.5"/>
<path d="M413.465 49.0573C410.987 49.0651 408.562 50.0252 408.049 51.2017C407.536 52.3782 409.129 53.3256 411.607 53.3178C414.085 53.31 416.51 52.35 417.023 51.1735C417.536 49.9969 415.943 49.0495 413.465 49.0573Z" fill="#D5435D" fill-opacity="0.5"/>
<path d="M395.519 49.114C393.041 49.1217 390.616 50.0818 390.103 51.2583C389.59 52.4348 391.183 53.3823 393.661 53.3745C396.139 53.3667 398.563 52.4066 399.077 51.2301C399.59 50.0536 397.997 49.1062 395.519 49.114Z" fill="#D5435D" fill-opacity="0.5"/>
<path d="M377.572 49.1706C375.094 49.1784 372.669 50.1385 372.156 51.315C371.643 52.4915 373.235 53.4389 375.713 53.4311C378.191 53.4233 380.616 52.4632 381.129 51.2867C381.643 50.1102 380.05 49.1628 377.572 49.1706Z" fill="#D5435D" fill-opacity="0.5"/>
<path d="M359.62 49.2263C357.142 49.234 354.718 50.1941 354.204 51.3706C353.691 52.5471 355.284 53.4946 357.762 53.4868C360.24 53.479 362.665 52.5189 363.178 51.3424C363.691 50.1659 362.099 49.2185 359.62 49.2263Z" fill="#D5435D" fill-opacity="0.5"/>
<path d="M453.077 40.4225C450.599 40.4303 448.174 41.3904 447.661 42.5669C447.147 43.7434 448.74 44.6908 451.218 44.6831C453.696 44.6753 456.121 43.7152 456.634 42.5387C457.147 41.3622 455.555 40.4148 453.077 40.4225Z" fill="#D5435D" fill-opacity="0.5"/>
<path d="M435.129 40.4792C432.651 40.487 430.226 41.447 429.713 42.6236C429.2 43.8001 430.793 44.7475 433.271 44.7397C435.749 44.7319 438.174 43.7718 438.687 42.5953C439.2 41.4188 437.607 40.4714 435.129 40.4792Z" fill="#D5435D" fill-opacity="0.5"/>
<path d="M417.182 40.5358C414.704 40.5436 412.279 41.5037 411.766 42.6802C411.253 43.8567 412.846 44.8041 415.324 44.7963C417.802 44.7885 420.227 43.8285 420.74 42.652C421.253 41.4755 419.66 40.528 417.182 40.5358Z" fill="#D5435D" fill-opacity="0.5"/>
<path d="M399.236 40.5925C396.758 40.6003 394.333 41.5603 393.82 42.7368C393.307 43.9133 394.899 44.8608 397.377 44.853C399.855 44.8452 402.28 43.8851 402.793 42.7086C403.307 41.5321 401.714 40.5847 399.236 40.5925Z" fill="#D5435D" fill-opacity="0.5"/>
<path d="M381.288 40.6481C378.81 40.6559 376.386 41.616 375.872 42.7925C375.359 43.969 376.952 44.9164 379.43 44.9086C381.908 44.9008 384.333 43.9408 384.846 42.7643C385.359 41.5878 383.766 40.6403 381.288 40.6481Z" fill="#D5435D" fill-opacity="0.5"/>
<path d="M363.337 40.7048C360.859 40.7126 358.434 41.6726 357.921 42.8491C357.408 44.0256 359.001 44.9731 361.479 44.9653C363.957 44.9575 366.382 43.9974 366.895 42.8209C367.408 41.6444 365.815 40.697 363.337 40.7048Z" fill="#D5435D" fill-opacity="0.5"/>
<path d="M345.391 40.7614C342.913 40.7692 340.488 41.7293 339.975 42.9058C339.462 44.0823 341.055 45.0297 343.533 45.0219C346.011 45.0141 348.436 44.0541 348.949 42.8776C349.462 41.701 347.869 40.7536 345.391 40.7614Z" fill="#D5435D" fill-opacity="0.5"/>
<path d="M456.793 31.902C454.315 31.9098 451.891 32.8699 451.377 34.0464C450.864 35.2229 452.457 36.1703 454.935 36.1625C457.413 36.1548 459.838 35.1947 460.351 34.0182C460.864 32.8417 459.271 31.8942 456.793 31.902Z" fill="#D5435D" fill-opacity="0.5"/>
<path d="M438.846 31.9587C436.368 31.9665 433.943 32.9265 433.43 34.103C432.917 35.2796 434.51 36.227 436.988 36.2192C439.466 36.2114 441.891 35.2513 442.404 34.0748C442.917 32.8983 441.324 31.9509 438.846 31.9587Z" fill="#D5435D" fill-opacity="0.5"/>
<path d="M420.899 32.0143C418.421 32.0221 415.996 32.9822 415.483 34.1587C414.97 35.3352 416.562 36.2826 419.041 36.2749C421.519 36.2671 423.943 35.307 424.456 34.1305C424.97 32.954 423.377 32.0065 420.899 32.0143Z" fill="#D5435D" fill-opacity="0.5"/>
<path d="M402.952 32.071C400.474 32.0788 398.049 33.0388 397.536 34.2153C397.022 35.3919 398.615 36.3393 401.093 36.3315C403.571 36.3237 405.996 35.3636 406.509 34.1871C407.022 33.0106 405.43 32.0632 402.952 32.071Z" fill="#D5435D" fill-opacity="0.5"/>
<path d="M385.005 32.1276C382.527 32.1354 380.102 33.0955 379.589 34.272C379.076 35.4485 380.669 36.3959 383.147 36.3881C385.625 36.3803 388.05 35.4203 388.563 34.2438C389.076 33.0673 387.483 32.1198 385.005 32.1276Z" fill="#D5435D" fill-opacity="0.5"/>
<path d="M367.054 32.1843C364.576 32.1921 362.151 33.1521 361.638 34.3286C361.125 35.5051 362.718 36.4526 365.196 36.4448C367.674 36.437 370.099 35.4769 370.612 34.3004C371.125 33.1239 369.532 32.1765 367.054 32.1843Z" fill="#D5435D" fill-opacity="0.5"/>
<path d="M349.107 32.2409C346.629 32.2487 344.204 33.2088 343.691 34.3853C343.178 35.5618 344.77 36.5092 347.249 36.5014C349.727 36.4936 352.151 35.5336 352.665 34.357C353.178 33.1805 351.585 32.2331 349.107 32.2409Z" fill="#D5435D" fill-opacity="0.5"/>
<path d="M331.161 32.2966C328.683 32.3044 326.258 33.2644 325.745 34.4409C325.231 35.6174 326.824 36.5649 329.302 36.5571C331.78 36.5493 334.205 35.5892 334.718 34.4127C335.231 33.2362 333.639 32.2888 331.161 32.2966Z" fill="#D5435D" fill-opacity="0.5"/>
<path d="M460.509 23.3815C458.031 23.3893 455.606 24.3494 455.093 25.5259C454.58 26.7024 456.173 27.6498 458.651 27.642C461.129 27.6342 463.554 26.6742 464.067 25.4977C464.58 24.3212 462.987 23.3737 460.509 23.3815Z" fill="#D5435D" fill-opacity="0.5"/>
<path d="M442.563 23.4372C440.085 23.445 437.66 24.4051 437.147 25.5816C436.634 26.7581 438.227 27.7055 440.705 27.6977C443.183 27.6899 445.607 26.7298 446.121 25.5533C446.634 24.3768 445.041 23.4294 442.563 23.4372Z" fill="#D5435D" fill-opacity="0.5"/>
<path d="M424.616 23.4938C422.138 23.5016 419.713 24.4617 419.2 25.6382C418.686 26.8147 420.279 27.7621 422.757 27.7543C425.235 27.7466 427.66 26.7865 428.173 25.61C428.686 24.4335 427.094 23.486 424.616 23.4938Z" fill="#D5435D" fill-opacity="0.5"/>
<path d="M406.668 23.5505C404.19 23.5583 401.765 24.5183 401.252 25.6948C400.739 26.8713 402.332 27.8188 404.81 27.811C407.288 27.8032 409.713 26.8431 410.226 25.6666C410.739 24.4901 409.146 23.5427 406.668 23.5505Z" fill="#D5435D" fill-opacity="0.5"/>
<path d="M388.722 23.6071C386.244 23.6149 383.819 24.575 383.306 25.7515C382.793 26.928 384.386 27.8754 386.864 27.8676C389.342 27.8598 391.767 26.8998 392.28 25.7233C392.793 24.5468 391.2 23.5993 388.722 23.6071Z" fill="#D5435D" fill-opacity="0.5"/>
<path d="M370.771 23.6638C368.293 23.6715 365.868 24.6316 365.355 25.8081C364.842 26.9846 366.435 27.9321 368.913 27.9243C371.391 27.9165 373.815 26.9564 374.329 25.7799C374.842 24.6034 373.249 23.656 370.771 23.6638Z" fill="#D5435D" fill-opacity="0.5"/>
<path d="M352.824 23.7194C350.346 23.7272 347.921 24.6873 347.408 25.8638C346.894 27.0403 348.487 27.9877 350.965 27.9799C353.443 27.9721 355.868 27.0121 356.381 25.8356C356.894 24.6591 355.302 23.7116 352.824 23.7194Z" fill="#D5435D" fill-opacity="0.5"/>
<path d="M334.877 23.7761C332.399 23.7839 329.974 24.7439 329.461 25.9204C328.948 27.0969 330.541 28.0444 333.019 28.0366C335.497 28.0288 337.922 27.0687 338.435 25.8922C338.948 24.7157 337.355 23.7683 334.877 23.7761Z" fill="#D5435D" fill-opacity="0.5"/>
<path d="M316.93 23.8327C314.452 23.8405 312.027 24.8006 311.514 25.9771C311.001 27.1536 312.594 28.101 315.072 28.0932C317.55 28.0854 319.975 27.1254 320.488 25.9488C321.001 24.7723 319.408 23.8249 316.93 23.8327Z" fill="#D5435D" fill-opacity="0.5"/>
</g>
<g clip-path="url(#clip1_170_3062)">
<path d="M341.121 91.7224C338.643 91.7301 336.219 92.6902 335.705 93.8667C335.192 95.0432 336.785 95.9907 339.263 95.9829C341.741 95.9751 344.166 95.015 344.679 93.8385C345.192 92.662 343.599 91.7146 341.121 91.7224Z" fill="#D5435D" fill-opacity="0.5"/>
<path d="M344.837 83.2018C342.359 83.2096 339.934 84.1697 339.421 85.3462C338.908 86.5227 340.501 87.4701 342.979 87.4624C345.457 87.4546 347.882 86.4945 348.395 85.318C348.908 84.1415 347.315 83.194 344.837 83.2018Z" fill="#D5435D" fill-opacity="0.5"/>
<path d="M326.891 83.2575C324.413 83.2653 321.988 84.2254 321.475 85.4019C320.962 86.5784 322.555 87.5258 325.033 87.518C327.511 87.5102 329.936 86.5502 330.449 85.3737C330.962 84.1971 329.369 83.2497 326.891 83.2575Z" fill="#D5435D" fill-opacity="0.5"/>
<path d="M348.555 74.6794C346.077 74.6872 343.652 75.6472 343.139 76.8237C342.626 78.0003 344.219 78.9477 346.697 78.9399C349.175 78.9321 351.6 77.972 352.113 76.7955C352.626 75.619 351.033 74.6716 348.555 74.6794Z" fill="#D5435D" fill-opacity="0.5"/>
<path d="M330.608 74.736C328.13 74.7438 325.705 75.7039 325.192 76.8804C324.679 78.0569 326.271 79.0043 328.749 78.9965C331.228 78.9887 333.652 78.0287 334.165 76.8522C334.679 75.6757 333.086 74.7282 330.608 74.736Z" fill="#D5435D" fill-opacity="0.5"/>
<path d="M312.661 74.7927C310.183 74.8005 307.758 75.7605 307.245 76.937C306.731 78.1135 308.324 79.061 310.802 79.0532C313.28 79.0454 315.705 78.0853 316.218 76.9088C316.731 75.7323 315.139 74.7849 312.661 74.7927Z" fill="#D5435D" fill-opacity="0.5"/>
<path d="M352.271 66.1589C349.793 66.1667 347.368 67.1267 346.855 68.3032C346.342 69.4797 347.935 70.4272 350.413 70.4194C352.891 70.4116 355.315 69.4515 355.829 68.275C356.342 67.0985 354.749 66.1511 352.271 66.1589Z" fill="#D5435D" fill-opacity="0.5"/>
<path d="M334.325 66.2155C331.847 66.2233 329.422 67.1834 328.909 68.3599C328.395 69.5364 329.988 70.4838 332.466 70.476C334.944 70.4682 337.369 69.5082 337.882 68.3317C338.395 67.1551 336.803 66.2077 334.325 66.2155Z" fill="#D5435D" fill-opacity="0.5"/>
<path d="M316.376 66.2722C313.898 66.2799 311.474 67.24 310.96 68.4165C310.447 69.593 312.04 70.5405 314.518 70.5327C316.996 70.5249 319.421 69.5648 319.934 68.3883C320.447 67.2118 318.854 66.2644 316.376 66.2722Z" fill="#D5435D" fill-opacity="0.5"/>
<path d="M298.43 66.3288C295.952 66.3366 293.527 67.2967 293.014 68.4732C292.501 69.6497 294.094 70.5971 296.572 70.5893C299.05 70.5815 301.475 69.6214 301.988 68.4449C302.501 67.2684 300.908 66.321 298.43 66.3288Z" fill="#D5435D" fill-opacity="0.5"/>
<path d="M355.988 57.6384C353.51 57.6462 351.085 58.6062 350.572 59.7827C350.059 60.9592 351.651 61.9067 354.129 61.8989C356.607 61.8911 359.032 60.931 359.545 59.7545C360.059 58.578 358.466 57.6306 355.988 57.6384Z" fill="#D5435D" fill-opacity="0.5"/>
<path d="M338.041 57.695C335.563 57.7028 333.139 58.6629 332.625 59.8394C332.112 61.0159 333.705 61.9633 336.183 61.9555C338.661 61.9477 341.086 60.9877 341.599 59.8112C342.112 58.6346 340.519 57.6872 338.041 57.695Z" fill="#D5435D" fill-opacity="0.5"/>
<path d="M320.093 57.7507C317.615 57.7585 315.19 58.7185 314.677 59.895C314.164 61.0715 315.757 62.019 318.235 62.0112C320.713 62.0034 323.138 61.0433 323.651 59.8668C324.164 58.6903 322.571 57.7429 320.093 57.7507Z" fill="#D5435D" fill-opacity="0.5"/>
<path d="M302.147 57.8073C299.669 57.8151 297.244 58.7752 296.731 59.9517C296.218 61.1282 297.811 62.0756 300.289 62.0678C302.767 62.06 305.191 61.1 305.705 59.9235C306.218 58.7469 304.625 57.7995 302.147 57.8073Z" fill="#D5435D" fill-opacity="0.5"/>
<path d="M284.2 57.864C281.722 57.8717 279.297 58.8318 278.784 60.0083C278.27 61.1848 279.863 62.1323 282.341 62.1245C284.819 62.1167 287.244 61.1566 287.757 59.9801C288.27 58.8036 286.678 57.8562 284.2 57.864Z" fill="#D5435D" fill-opacity="0.5"/>
<path d="M359.704 49.1169C357.226 49.1247 354.802 50.0847 354.288 51.2612C353.775 52.4378 355.368 53.3852 357.846 53.3774C360.324 53.3696 362.749 52.4095 363.262 51.233C363.775 50.0565 362.182 49.1091 359.704 49.1169Z" fill="#D5435D" fill-opacity="0.5"/>
<path d="M341.757 49.1735C339.279 49.1813 336.854 50.1414 336.341 51.3179C335.828 52.4944 337.421 53.4418 339.899 53.434C342.377 53.4262 344.802 52.4662 345.315 51.2897C345.828 50.1132 344.235 49.1657 341.757 49.1735Z" fill="#D5435D" fill-opacity="0.5"/>
<path d="M323.81 49.2302C321.332 49.238 318.907 50.198 318.394 51.3745C317.881 52.551 319.474 53.4985 321.952 53.4907C324.43 53.4829 326.854 52.5228 327.368 51.3463C327.881 50.1698 326.288 49.2224 323.81 49.2302Z" fill="#D5435D" fill-opacity="0.5"/>
<path d="M305.864 49.2868C303.386 49.2946 300.961 50.2547 300.448 51.4312C299.934 52.6077 301.527 53.5551 304.005 53.5473C306.483 53.5395 308.908 52.5795 309.421 51.4029C309.934 50.2264 308.342 49.279 305.864 49.2868Z" fill="#D5435D" fill-opacity="0.5"/>
<path d="M287.916 49.3434C285.438 49.3512 283.014 50.3113 282.5 51.4878C281.987 52.6643 283.58 53.6117 286.058 53.604C288.536 53.5962 290.961 52.6361 291.474 51.4596C291.987 50.2831 290.394 49.3356 287.916 49.3434Z" fill="#D5435D" fill-opacity="0.5"/>
<path d="M269.965 49.3991C267.487 49.4069 265.062 50.367 264.549 51.5435C264.036 52.72 265.629 53.6674 268.107 53.6596C270.585 53.6518 273.01 52.6918 273.523 51.5153C274.036 50.3387 272.443 49.3913 269.965 49.3991Z" fill="#D5435D" fill-opacity="0.5"/>
<path d="M327.527 40.7087C325.049 40.7165 322.624 41.6765 322.111 42.853C321.598 44.0296 323.19 44.977 325.668 44.9692C328.146 44.9614 330.571 44.0013 331.084 42.8248C331.598 41.6483 330.005 40.7009 327.527 40.7087Z" fill="#D5435D" fill-opacity="0.5"/>
<path d="M309.58 40.7653C307.102 40.7731 304.678 41.7332 304.164 42.9097C303.651 44.0862 305.244 45.0336 307.722 45.0258C310.2 45.018 312.625 44.058 313.138 42.8815C313.651 41.705 312.058 40.7575 309.58 40.7653Z" fill="#D5435D" fill-opacity="0.5"/>
<path d="M291.633 40.821C289.155 40.8288 286.73 41.7888 286.217 42.9653C285.704 44.1419 287.297 45.0893 289.775 45.0815C292.253 45.0737 294.678 44.1136 295.191 42.9371C295.704 41.7606 294.111 40.8132 291.633 40.821Z" fill="#D5435D" fill-opacity="0.5"/>
<path d="M273.682 40.8776C271.204 40.8854 268.779 41.8455 268.266 43.022C267.753 44.1985 269.346 45.1459 271.824 45.1381C274.302 45.1303 276.727 44.1703 277.24 42.9938C277.753 41.8173 276.16 40.8698 273.682 40.8776Z" fill="#D5435D" fill-opacity="0.5"/>
<path d="M255.736 40.9343C253.258 40.9421 250.833 41.9021 250.32 43.0786C249.807 44.2551 251.399 45.2026 253.877 45.1948C256.355 45.187 258.78 44.2269 259.293 43.0504C259.807 41.8739 258.214 40.9265 255.736 40.9343Z" fill="#D5435D" fill-opacity="0.5"/>
<path d="M313.296 32.2438C310.818 32.2516 308.393 33.2117 307.88 34.3882C307.367 35.5647 308.96 36.5121 311.438 36.5043C313.916 36.4966 316.341 35.5365 316.854 34.36C317.367 33.1835 315.774 32.236 313.296 32.2438Z" fill="#D5435D" fill-opacity="0.5"/>
<path d="M295.35 32.3005C292.872 32.3083 290.447 33.2683 289.934 34.4448C289.421 35.6213 291.014 36.5688 293.492 36.561C295.97 36.5532 298.395 35.5931 298.908 34.4166C299.421 33.2401 297.828 32.2927 295.35 32.3005Z" fill="#D5435D" fill-opacity="0.5"/>
<path d="M277.399 32.3571C274.921 32.3649 272.496 33.325 271.983 34.5015C271.47 35.678 273.062 36.6254 275.541 36.6176C278.019 36.6098 280.443 35.6498 280.956 34.4733C281.47 33.2968 279.877 32.3493 277.399 32.3571Z" fill="#D5435D" fill-opacity="0.5"/>
<path d="M259.452 32.4138C256.974 32.4215 254.549 33.3816 254.036 34.5581C253.522 35.7346 255.115 36.6821 257.593 36.6743C260.071 36.6665 262.496 35.7064 263.009 34.5299C263.522 33.3534 261.93 32.406 259.452 32.4138Z" fill="#D5435D" fill-opacity="0.5"/>
<path d="M241.505 32.4694C239.027 32.4772 236.602 33.4373 236.089 34.6138C235.576 35.7903 237.169 36.7377 239.647 36.7299C242.125 36.7221 244.55 35.7621 245.063 34.5856C245.576 33.4091 243.983 32.4616 241.505 32.4694Z" fill="#D5435D" fill-opacity="0.5"/>
<path d="M299.067 23.78C296.589 23.7878 294.164 24.7478 293.651 25.9243C293.138 27.1008 294.73 28.0483 297.208 28.0405C299.686 28.0327 302.111 27.0726 302.624 25.8961C303.138 24.7196 301.545 23.7722 299.067 23.78Z" fill="#D5435D" fill-opacity="0.5"/>
<path d="M281.116 23.8366C278.638 23.8444 276.213 24.8045 275.7 25.981C275.186 27.1575 276.779 28.1049 279.257 28.0971C281.735 28.0893 284.16 27.1293 284.673 25.9528C285.186 24.7762 283.594 23.8288 281.116 23.8366Z" fill="#D5435D" fill-opacity="0.5"/>
<path d="M263.168 23.8923C260.69 23.9001 258.265 24.8601 257.752 26.0366C257.239 27.2131 258.832 28.1606 261.31 28.1528C263.788 28.145 266.213 27.1849 266.726 26.0084C267.239 24.8319 265.646 23.8845 263.168 23.8923Z" fill="#D5435D" fill-opacity="0.5"/>
<path d="M245.222 23.9489C242.744 23.9567 240.319 24.9168 239.806 26.0933C239.293 27.2698 240.886 28.2172 243.364 28.2094C245.842 28.2016 248.267 27.2416 248.78 26.0651C249.293 24.8885 247.7 23.9411 245.222 23.9489Z" fill="#D5435D" fill-opacity="0.5"/>
<path d="M227.275 24.0056C224.797 24.0133 222.372 24.9734 221.859 26.1499C221.346 27.3264 222.938 28.2739 225.416 28.2661C227.894 28.2583 230.319 27.2982 230.832 26.1217C231.346 24.9452 229.753 23.9978 227.275 24.0056Z" fill="#D5435D" fill-opacity="0.5"/>
</g>
<path d="M544.944 9.86183L549.41 12.4876L545.035 17.8313L552.17 14.1104L556.636 16.7361L556.58 11.8107L563.715 8.08979L556.545 8.76665L556.489 3.84125L552.114 9.18497L544.944 9.86183Z" fill="#9FFFEA"/>
<path d="M525.889 18.6178L529.136 20.503L526.011 24.3199L531.143 21.668L534.391 23.5532L534.315 20.0291L539.447 17.3772L534.268 17.8511L534.193 14.327L531.068 18.144L525.889 18.6178Z" fill="#9FFFEA"/>
<path d="M541.417 28.6869L546.243 31.7084L541.087 38.0063L549.226 33.5757L554.052 36.5971L554.256 30.8374L562.396 26.4068L554.382 27.2777L554.586 21.5181L549.43 27.816L541.417 28.6869Z" fill="#9FFFEA"/>
<path d="M32.3376 52.7955L36.5962 55.3941L32.0012 60.8251L39.2281 57.0001L43.4867 59.5988L43.6946 54.6362L50.9215 50.8112L43.8231 51.5691L44.031 46.6065L39.4361 52.0375L32.3376 52.7955Z" fill="#9FFFEA"/>
<path d="M13.1017 61.8208L16.1994 63.6861L12.9173 67.5654L18.114 64.8388L21.2117 66.7041L21.3257 63.1538L26.5223 60.4272L21.3961 60.9595L21.51 57.4092L18.2279 61.2885L13.1017 61.8208Z" fill="#9FFFEA"/>
<path d="M27.8577 71.8022L32.4501 74.7957L27.0346 81.1965L35.2884 76.6458L39.8808 79.6393L40.3895 73.8333L48.6433 69.2826L40.7039 70.245L41.2126 64.4389L35.7971 70.8398L27.8577 71.8022Z" fill="#9FFFEA"/>
<path d="M310.488 419.424L318.005 422.007L314.922 425.772L322.65 423.602L330.167 426.185L327.427 422.261L335.156 420.092L325.733 419.837L322.993 415.913L319.91 419.679L310.488 419.424Z" fill="#9FFFEA"/>
<path d="M289.21 424.281L294.663 426.14L292.46 428.83L298.033 427.288L303.485 429.147L301.476 426.336L307.048 424.795L300.235 424.598L298.226 421.788L296.024 424.477L289.21 424.281Z" fill="#9FFFEA"/>
<path d="M315.853 434.007L324.076 436.944L320.442 441.382L329.158 438.759L337.381 441.696L334.545 437.138L343.26 434.514L332.792 434.321L329.955 429.763L326.322 434.201L315.853 434.007Z" fill="#9FFFEA"/>
<defs>
<clipPath id="clip0_170_3062">
<rect width="171.41" height="88.8206" fill="white" transform="matrix(1.00001 -0.00314502 -0.399643 0.916256 294.496 23.9033)"/>
</clipPath>
<clipPath id="clip1_170_3062">
<rect width="171.41" height="88.8206" fill="white" transform="matrix(1.00001 -0.00314502 -0.399643 0.916256 204.841 24.0762)"/>
</clipPath>
</defs>
</svg>
