<svg width="65" height="65" viewBox="0 0 65 65" fill="none" xmlns="http://www.w3.org/2000/svg">
<g clip-path="url(#clip0_665_7124)">
<path fill-rule="evenodd" clip-rule="evenodd" d="M35.34 4.72633C35.2747 5.47746 34.8256 5.7889 33.9924 5.66065C34.088 6.25696 33.9759 6.77601 33.6554 7.21785C33.6554 6.69877 33.6554 6.17973 33.6554 5.66065C31.8586 5.66065 30.0615 5.66065 28.2647 5.66065C28.2647 5.97209 28.2647 6.28353 28.2647 6.59497C27.95 6.26248 27.8375 5.8472 27.9278 5.34921C27.2596 5.45609 26.8102 5.24846 26.5801 4.72633C27.1427 1.25056 29.2765 -0.0471099 32.9816 0.833323C34.5975 1.69175 35.3835 2.98942 35.34 4.72633Z" fill="#4A9548"/>
<path fill-rule="evenodd" clip-rule="evenodd" d="M30.6231 0.675781C31.3899 0.755659 31.7831 1.17091 31.8023 1.92154C32.0345 1.65473 32.3151 1.44713 32.6446 1.29866C32.8606 1.85785 33.1975 2.32501 33.6554 2.70014C32.8037 3.10997 32.8037 3.47333 33.6554 3.79019C31.956 3.88044 30.2713 3.88044 28.6016 3.79019C29.0507 3.47874 29.0507 3.1673 28.6016 2.85586C29.0234 2.38842 29.3603 1.86938 29.6123 1.29866C30.4732 2.15537 30.8101 1.94773 30.6231 0.675781Z" fill="#0F6B18"/>
<path fill-rule="evenodd" clip-rule="evenodd" d="M26.5807 4.72672C26.8108 5.24885 27.2603 5.45649 27.9284 5.3496C27.8381 5.84759 27.9506 6.26287 28.2653 6.59536C28.3677 6.79777 28.4799 7.00537 28.6022 7.21824C30.3381 7.62738 32.0227 7.62738 33.6561 7.21824C33.9765 6.7764 34.0887 6.25735 33.993 5.66104C34.8262 5.78929 35.2753 5.47785 35.3407 4.72672C37.3288 4.4909 39.1256 4.90614 40.7314 5.97248C42.5602 3.623 44.5255 3.51917 46.6276 5.66104C47.0618 6.54889 47.2303 7.48322 47.1329 8.464C36.2332 8.25864 25.4517 8.46628 14.7884 9.08688C13.8534 6.92951 14.5272 5.32039 16.81 4.25956C18.8555 4.03747 20.2593 4.81607 21.0215 6.59536C22.5626 5.20328 24.4157 4.5804 26.5807 4.72672Z" fill="#5D8967"/>
<path fill-rule="evenodd" clip-rule="evenodd" d="M42.752 5.66197C43.6782 5.59155 44.5768 5.69536 45.4474 5.97341C45.7681 6.45468 45.8803 6.97376 45.7843 7.53061C44.32 7.58222 42.8601 7.5303 41.4043 7.37489C41.7116 6.6882 42.1607 6.11723 42.752 5.66197Z" fill="#50A058"/>
<path fill-rule="evenodd" clip-rule="evenodd" d="M16.472 5.35084C18.4002 5.06155 19.4109 5.78823 19.5043 7.53093C18.2689 7.53093 17.0336 7.53093 15.7982 7.53093C15.7646 6.71853 15.9892 5.99185 16.472 5.35084Z" fill="#5BA150"/>
<path fill-rule="evenodd" clip-rule="evenodd" d="M33.6554 7.21736C32.022 7.6265 30.3374 7.6265 28.6016 7.21736C28.4793 7.00449 28.3671 6.79688 28.2646 6.59448C28.2646 6.28304 28.2646 5.9716 28.2646 5.66016C30.0615 5.66016 31.8586 5.66016 33.6554 5.66016C33.6554 6.17923 33.6554 6.69828 33.6554 7.21736Z" fill="#1E7410"/>
<path fill-rule="evenodd" clip-rule="evenodd" d="M47.1326 8.46331C46.9372 9.16367 46.4881 9.68272 45.7849 10.0205C45.4847 9.83059 45.1478 9.72679 44.7741 9.70907C44.8183 9.47894 44.762 9.27131 44.6057 9.08619C35.1951 9.29258 25.8174 9.50019 16.4727 9.70907C15.9511 9.8091 15.7265 10.1205 15.7989 10.6434C15.5267 10.1076 15.1898 9.58857 14.7881 9.08619C25.4514 8.46558 36.2328 8.25794 47.1326 8.46331Z" fill="#4A8F59"/>
<path fill-rule="evenodd" clip-rule="evenodd" d="M44.7731 9.70882C41.4039 9.70882 38.0347 9.70882 34.6655 9.70882C28.6009 9.70882 22.5363 9.70882 16.4717 9.70882C25.8164 9.49994 35.1941 9.29233 44.6047 9.08594C44.761 9.27106 44.8173 9.47869 44.7731 9.70882Z" fill="#338A4B"/>
<path fill-rule="evenodd" clip-rule="evenodd" d="M16.4722 9.71094C22.5368 9.71094 28.6014 9.71094 34.666 9.71094C34.6428 11.3351 33.7442 12.0099 31.9706 11.7353C32.4824 10.5474 32.0896 10.1841 30.7914 10.6453C29.565 9.95053 29.3403 10.262 30.1176 11.5796C30.3746 10.7812 30.5431 10.7812 30.6229 11.5796C30.5397 11.9575 30.315 12.1651 29.9491 12.2025C26.5799 12.2025 23.2107 12.2025 19.8414 12.2025C19.4153 12.5184 19.1907 12.9856 19.1676 13.6039C18.9545 15.6249 18.786 17.6492 18.6622 19.677C18.3854 18.5223 18.1607 17.2766 17.9884 15.9397C17.8761 16.8741 17.7637 17.8084 17.6515 18.7427C17.4864 18.34 17.4302 17.9247 17.483 17.4969C17.4437 16.4174 16.9945 15.5349 16.1353 14.8497C16.541 14.4284 16.7656 13.9093 16.8091 13.2925C16.753 12.8253 16.6969 12.3582 16.6407 11.891C16.1416 11.5886 15.8608 11.1734 15.7984 10.6453C15.726 10.1224 15.9506 9.81097 16.4722 9.71094Z" fill="#0F7319"/>
<path fill-rule="evenodd" clip-rule="evenodd" d="M29.2756 26.5297C29.2756 26.6335 29.2756 26.7374 29.2756 26.8412C26.2433 26.8412 23.211 26.8412 20.1787 26.8412C20.0763 26.6387 19.964 26.4311 19.8418 26.2183C20.3763 25.6973 20.6008 25.0744 20.5156 24.3496C20.374 21.314 20.5425 18.3034 21.021 15.3179C21.7195 14.3012 22.7302 13.6783 24.0533 13.4492C25.229 13.6908 26.4082 13.8984 27.591 14.0721C27.931 14.8658 28.2116 15.6963 28.4333 16.5636C28.3834 20.0041 28.6644 23.3261 29.2756 26.5297Z" fill="#2D7A2B"/>
<path fill-rule="evenodd" clip-rule="evenodd" d="M19.8418 12.1992C23.211 12.1992 26.5802 12.1992 29.9495 12.1992C30.0809 13.1229 29.8561 13.9534 29.2756 14.6907C29.3794 14.9424 29.5479 15.15 29.781 15.3136C29.8662 16.7273 30.0347 18.1287 30.2864 19.5181C29.5556 20.9278 29.4431 22.3812 29.9495 23.8782C29.7247 24.1897 29.5004 24.5011 29.2756 24.8126C29.6985 25.4002 29.6985 25.9711 29.2756 26.5255C28.6644 23.3219 28.3835 19.9999 28.4333 16.5594C28.2116 15.6921 27.931 14.8616 27.591 14.0679C26.4083 13.8942 25.229 13.6866 24.0533 13.445C22.7302 13.6741 21.7195 14.297 21.021 15.3136C20.5425 18.2992 20.374 21.3098 20.5157 24.3454C20.1612 24.392 19.8243 24.34 19.5049 24.1897C20.4385 22.5261 20.3262 20.917 19.168 19.3623C19.5424 19.0162 19.767 18.601 19.8418 18.1166C19.4212 16.9707 19.6458 15.9325 20.5157 15.0022C19.9226 14.1575 19.6979 13.2231 19.8418 12.1992Z" fill="#3A7839"/>
<path fill-rule="evenodd" clip-rule="evenodd" d="M34.6661 9.71094C38.0354 9.71094 41.4046 9.71094 44.7738 9.71094C45.1474 9.72866 45.4844 9.83246 45.7846 10.0224C45.9257 10.902 45.5888 11.5768 44.7738 12.0467C44.9069 13.0643 45.2438 13.9986 45.7846 14.8497C45.5056 15.1346 45.1687 15.3422 44.7738 15.4726C44.9153 16.3517 45.0275 17.2341 45.1107 18.1198C45.0359 18.6042 44.8112 19.0195 44.4369 19.3656C45.5972 20.9319 45.7098 22.5409 44.7738 24.1929C46.4931 24.7365 46.4931 25.4112 44.7738 26.2173C44.9278 26.4657 45.1525 26.5695 45.4476 26.5287C44.168 26.835 42.8203 26.9388 41.4046 26.8402C43.0878 26.6421 43.1441 26.2269 41.573 25.5944C41.378 25.1495 41.4342 24.7343 41.7415 24.3486C41.9905 24.3894 42.2152 24.3375 42.4153 24.1929C42.567 21.2499 42.567 18.2912 42.4153 15.3169C42.0784 15.3169 41.7415 15.3169 41.4046 15.3169C41.8682 14.3333 42.0926 13.2952 42.0784 12.2025C38.8214 12.2025 35.5647 12.2025 32.3077 12.2025C32.2315 13.0587 32.3437 13.8892 32.6446 14.694C32.2275 15.6188 32.0028 16.605 31.9708 17.6527C32.2743 19.8556 32.2743 22.0357 31.9708 24.1929C32.1709 24.3375 32.3956 24.3894 32.6446 24.3486C32.7299 25.0735 32.5051 25.6963 31.9708 26.2173C32.3421 26.4277 32.679 26.6353 32.9815 26.8402C31.746 26.8402 30.5109 26.8402 29.2754 26.8402C29.2754 26.7364 29.2754 26.6325 29.2754 26.5287C29.6982 25.9744 29.6982 25.4034 29.2754 24.8158C29.5001 24.5044 29.7245 24.1929 29.9492 23.8815C29.4428 22.3845 29.5554 20.9311 30.2862 19.5213C30.0345 18.132 29.866 16.7305 29.7808 15.3169C29.5476 15.1533 29.3792 14.9457 29.2754 14.694C29.8559 13.9566 30.0806 13.1261 29.9492 12.2025C30.3151 12.1651 30.5399 11.9575 30.6231 11.5796C30.5432 10.7812 30.3748 10.7812 30.1177 11.5796C29.3404 10.262 29.5651 9.95053 30.7915 10.6453C32.0897 10.1841 32.4825 10.5474 31.9708 11.7353C33.7443 12.0099 34.6429 11.3351 34.6661 9.71094Z" fill="#106B0E"/>
<path fill-rule="evenodd" clip-rule="evenodd" d="M41.7424 24.3454C41.1319 21.4548 40.8513 18.4442 40.9001 15.3136C38.0353 12.6472 35.4524 12.8549 33.1509 15.9365C33.0936 18.7943 32.9252 21.5972 32.6455 24.3454C32.3965 24.3862 32.1718 24.3343 31.9717 24.1897C32.2752 22.0324 32.2752 19.8524 31.9717 17.6494C32.0037 16.6017 32.2284 15.6155 32.6455 14.6907C32.3447 13.8859 32.2325 13.0554 32.3086 12.1992C35.5656 12.1992 38.8223 12.1992 42.0793 12.1992C42.0935 13.292 41.8691 14.3301 41.4055 15.3136C41.7424 15.3136 42.0793 15.3136 42.4163 15.3136C42.5679 18.288 42.5679 21.2467 42.4163 24.1897C42.2161 24.3343 41.9914 24.3862 41.7424 24.3454Z" fill="#3A7839"/>
<path fill-rule="evenodd" clip-rule="evenodd" d="M19.842 12.1992C19.6982 13.2231 19.9228 14.1575 20.5159 15.0022C19.646 15.9325 19.4214 16.9707 19.842 18.1166C19.7672 18.601 19.5426 19.0162 19.1682 19.3623C20.3265 20.917 20.4387 22.5261 19.5051 24.1897C19.8245 24.34 20.1614 24.392 20.5159 24.3454C20.6011 25.0702 20.3765 25.6931 19.842 26.214C19.9642 26.4269 20.0766 26.6345 20.1789 26.8369C18.8746 26.935 17.6392 26.8312 16.4728 26.5255C16.8273 26.572 17.1642 26.5201 17.4836 26.3698C15.9037 25.7466 15.7914 25.0199 17.1467 24.1897C16.9329 23.5436 16.8206 22.8688 16.8097 22.1653C17.3467 20.5998 17.5713 19.0426 17.4836 17.4937C17.4308 17.9214 17.4869 18.3367 17.652 18.7395C17.7643 17.8051 17.8767 16.8708 17.989 15.9365C18.1613 17.2733 18.386 18.5191 18.6628 19.6738C18.7866 17.646 18.955 15.6216 19.1682 13.6007C19.1913 12.9823 19.4159 12.5152 19.842 12.1992Z" fill="#0F6713"/>
<path fill-rule="evenodd" clip-rule="evenodd" d="M41.7424 24.348C41.4351 24.7337 41.3789 25.1489 41.574 25.5938C43.145 26.2263 43.0888 26.6415 41.4055 26.8396C38.5979 26.8396 35.79 26.8396 32.9824 26.8396C32.6799 26.6347 32.343 26.4271 31.9717 26.2167C32.506 25.6957 32.7308 25.0728 32.6455 24.348C32.9252 21.5999 33.0936 18.7969 33.1509 15.9391C35.4524 12.8575 38.0353 12.6499 40.9001 15.3163C40.8513 18.4468 41.1319 21.4574 41.7424 24.348Z" fill="#2E7A2C"/>
<path fill-rule="evenodd" clip-rule="evenodd" d="M16.4717 26.5273C17.6381 26.8331 18.8735 26.9369 20.1779 26.8388C23.2101 26.8388 26.2424 26.8388 29.2747 26.8388C30.5102 26.8388 31.7454 26.8388 32.9809 26.8388C35.7885 26.8388 38.5964 26.8388 41.4039 26.8388C42.8197 26.9374 44.1674 26.8336 45.447 26.5273C46.2236 26.6403 46.7852 27.0037 47.1316 27.6174C46.4584 28.3138 46.0093 29.0924 45.7839 29.9532C45.8341 29.6256 45.7782 29.3141 45.6155 29.0189C44.9278 29.3063 44.1977 29.41 43.4255 29.3303C35.4515 29.3303 27.4779 29.3303 19.504 29.3303C18.6417 29.2363 17.8556 29.3403 17.1456 29.6417C15.9156 29.0282 15.2417 28.094 15.124 26.8388C15.6155 26.8598 16.0647 26.756 16.4717 26.5273Z" fill="#4E8E44"/>
<path fill-rule="evenodd" clip-rule="evenodd" d="M19.5049 29.3281C27.4788 29.3281 35.4524 29.3281 43.4263 29.3281C43.4348 30.7125 43.547 32.114 43.7633 33.5326C43.211 34.5609 42.9863 35.651 43.0894 36.8027C35.3402 36.8027 27.591 36.8027 19.8418 36.8027C19.9739 35.7288 19.7493 34.7428 19.168 33.844C19.3989 32.3208 19.5112 30.8156 19.5049 29.3281Z" fill="#3A7840"/>
<path fill-rule="evenodd" clip-rule="evenodd" d="M19.5055 29.3304C19.5118 30.8178 19.3995 32.323 19.1686 33.8463C19.7499 34.7451 19.9745 35.7311 19.8424 36.8049C20.0412 37.402 20.0412 38.0769 19.8424 38.8293C18.8317 39.037 17.8209 39.037 16.8101 38.8293C16.5136 38.407 16.4013 37.9398 16.4732 37.4278C16.6858 36.1618 17.0228 34.9161 17.484 33.6905C17.2226 32.318 17.1103 30.9686 17.1471 29.6418C17.8571 29.3403 18.6432 29.2363 19.5055 29.3304Z" fill="#106814"/>
<path fill-rule="evenodd" clip-rule="evenodd" d="M45.7843 29.9539C45.8412 31.2214 45.7287 32.5192 45.4473 33.8469C45.8823 35.1605 46.3318 36.4583 46.795 37.7399C46.8422 38.2456 46.6175 38.6088 46.1212 38.8299C44.9982 39.0376 43.8749 39.0376 42.752 38.8299C42.5761 38.6552 42.4639 38.4475 42.415 38.207C42.723 37.7691 42.9474 37.302 43.0889 36.8055C42.9858 35.6538 43.2105 34.5638 43.7627 33.5354C43.5464 32.1168 43.4342 30.7153 43.4258 29.331C44.198 29.4107 44.9281 29.307 45.6158 29.0195C45.7785 29.3148 45.8345 29.6262 45.7843 29.9539Z" fill="#1B680F"/>
<path fill-rule="evenodd" clip-rule="evenodd" d="M19.8409 36.8047C27.5901 36.8047 35.3393 36.8047 43.0885 36.8047C42.947 37.3011 42.7226 37.7683 42.4147 38.2062C42.4635 38.4466 42.5757 38.6543 42.7516 38.829C43.8746 39.0368 44.9979 39.0368 46.1208 38.829C46.6171 38.6079 46.8418 38.2448 46.7947 37.739C47.1801 38.2373 47.5733 38.7565 47.9739 39.2962C48.2397 39.9851 48.1835 40.608 47.8054 41.1649C47.8054 40.6457 47.8054 40.1268 47.8054 39.6077C36.9117 39.6077 26.0178 39.6077 15.124 39.6077C15.319 38.726 15.7682 37.9994 16.4717 37.4276C16.3998 37.9396 16.5121 38.4067 16.8086 38.829C17.8194 39.0368 18.8302 39.0368 19.8409 38.829C20.0397 38.0766 20.0397 37.4017 19.8409 36.8047Z" fill="#4F9044"/>
<path fill-rule="evenodd" clip-rule="evenodd" d="M15.124 39.6094C26.0178 39.6094 36.9117 39.6094 47.8054 39.6094C47.8054 40.1285 47.8054 40.6474 47.8054 41.1666C47.6932 41.1666 47.5807 41.1666 47.4685 41.1666C47.3563 41.1666 47.2438 41.1666 47.1316 41.1666C46.0787 40.8617 44.9558 40.7577 43.7624 40.8551C35.6763 40.8551 27.5901 40.8551 19.504 40.8551C18.044 40.8551 16.584 40.8551 15.124 40.8551C15.124 40.44 15.124 40.0245 15.124 39.6094Z" fill="#118316"/>
<path fill-rule="evenodd" clip-rule="evenodd" d="M47.132 41.1641C47.2442 41.1641 47.3567 41.1641 47.4689 41.1641C47.3163 41.4624 47.0919 41.7222 46.7951 41.9427C46.912 43.4874 47.0245 45.0446 47.132 46.6143C47.0555 47.4299 46.8311 48.2085 46.4582 48.9501C47.5956 51.8315 47.7078 54.7382 46.7951 57.6704C48.0865 58.8554 48.0865 60.1012 46.7951 61.4077C47.7075 61.9577 48.3813 62.6843 48.8166 63.5878C48.0258 63.9802 47.4083 63.7728 46.9635 62.9649C46.8513 63.0686 46.7388 63.1726 46.6266 63.2763C46.5242 62.6718 46.2435 62.153 45.7843 61.7191C46.1522 61.195 46.377 60.6241 46.4582 60.0062C45.7567 58.0195 45.6441 55.9952 46.1212 53.9331C45.5195 49.8106 45.5195 45.6581 46.1212 41.4755C46.4302 41.2802 46.7671 41.1762 47.132 41.1641Z" fill="#126115"/>
<path fill-rule="evenodd" clip-rule="evenodd" d="M15.1247 40.8518C16.5847 40.8518 18.0447 40.8518 19.5047 40.8518C19.3999 41.1564 19.1753 41.3641 18.8309 41.4747C18.1712 45.6975 18.1712 49.9019 18.8309 54.088C18.8197 55.2979 18.7074 56.492 18.4939 57.6696C19.7855 58.8546 19.7855 60.1004 18.4939 61.4068C18.9106 61.6501 19.2475 61.9615 19.5047 62.3412C22.7539 62.652 26.0108 62.756 29.2754 62.6526C29.8371 62.6526 30.3984 62.6526 30.96 62.6526C31.7461 62.6526 32.5325 62.6526 33.3185 62.6526C35.5648 62.6526 37.8107 62.6526 40.0569 62.6526C40.9555 62.6526 41.8537 62.6526 42.7523 62.6526C43.5057 62.3757 44.1795 61.9606 44.7738 61.4068C43.7078 60.4784 43.3709 59.3884 43.7631 58.1367C44.6994 58.0903 44.8678 57.8306 44.2685 57.3581C44.2122 56.3718 44.1563 55.3858 44.1 54.3994C44.5703 51.3349 44.7947 48.2722 44.7738 45.2119C44.6478 43.6937 44.3109 42.2402 43.7631 40.8518C44.9565 40.7543 46.0794 40.8583 47.1323 41.1632C46.7674 41.1754 46.4305 41.2794 46.1215 41.4747C45.5198 45.6573 45.5198 49.8097 46.1215 53.9323C45.6445 55.9943 45.757 58.0187 46.4585 60.0054C46.3773 60.6233 46.1525 61.1941 45.7846 61.7183C46.2438 62.1521 46.5245 62.671 46.6269 63.2755C46.7391 63.1718 46.8516 63.0678 46.9638 62.964C47.4086 63.7719 48.0262 63.9793 48.8169 63.5869C48.8169 64.2098 48.8169 64.8327 48.8169 65.4556C37.1368 65.4556 25.457 65.4556 13.777 65.4556C13.7224 64.8243 13.7786 64.2014 13.9455 63.5869C14.7374 62.9071 15.4674 62.1805 16.1355 61.4068C15.6562 60.6771 15.3193 59.8985 15.1247 59.071C15.1229 58.3974 15.4599 57.9302 16.1355 57.6696C15.7953 54.2232 15.7953 50.7973 16.1355 47.392C16.5141 45.737 16.5141 44.0758 16.1355 42.409C15.9418 41.8138 15.6048 41.2947 15.1247 40.8518Z" fill="#1A6A0D"/>
<path fill-rule="evenodd" clip-rule="evenodd" d="M19.5046 40.8516C27.5907 40.8516 35.6768 40.8516 43.7629 40.8516C44.3108 42.24 44.6477 43.6935 44.7737 45.2117C44.7946 48.2719 44.5702 51.3346 44.0998 54.3992C44.1561 55.3855 44.212 56.3716 44.2683 57.3579C44.8677 57.8304 44.6992 58.0901 43.7629 58.1365C43.3707 59.3882 43.7077 60.4782 44.7737 61.4066C44.1794 61.9604 43.5055 62.3755 42.7522 62.6524C42.7522 57.5656 42.7522 52.4786 42.7522 47.3918C39.046 47.3918 35.3399 47.3918 31.6337 47.3918C31.6337 52.3749 31.6337 57.3579 31.6337 62.3409C32.1954 62.3409 32.7567 62.3409 33.3183 62.3409C33.3183 62.4447 33.3183 62.5487 33.3183 62.6524C32.5323 62.6524 31.7459 62.6524 30.9599 62.6524C30.9599 57.5656 30.9599 52.4786 30.9599 47.3918C27.2538 47.3918 23.5476 47.3918 19.8415 47.3918C19.8415 52.3749 19.8415 57.3579 19.8415 62.3409C20.6276 62.3409 21.4138 62.3409 22.1999 62.3409C22.401 60.329 22.1764 58.4087 21.5261 56.5793C23.8662 56.6182 26.1124 56.2548 28.2645 55.4893C28.6051 54.8645 28.9421 54.2416 29.2753 53.6206C29.0469 52.9928 28.8225 52.3699 28.6014 51.752C29.2864 52.1874 29.6233 52.8102 29.6122 53.6206C28.8558 56.5952 28.7436 59.6059 29.2753 62.6524C26.0106 62.7558 22.7537 62.6518 19.5046 62.3409C19.2473 61.9613 18.9104 61.6499 18.4938 61.4066C19.7854 60.1001 19.7854 58.8544 18.4938 57.6693C18.7072 56.4918 18.8195 55.2977 18.8307 54.0878C18.171 49.9017 18.171 45.6973 18.8307 41.4744C19.1751 41.3639 19.3998 41.1562 19.5046 40.8516Z" fill="#3E8F31"/>
<path fill-rule="evenodd" clip-rule="evenodd" d="M35.3394 56.1141C37.144 56.4741 38.9411 56.4741 40.7302 56.1141C40.8424 56.2178 40.9549 56.3218 41.0671 56.4255C40.7891 56.7014 40.4522 56.8052 40.0563 56.737C40.0563 58.7093 40.0563 60.682 40.0563 62.6543C37.8101 62.6543 35.5641 62.6543 33.3179 62.6543C33.3179 62.5506 33.3179 62.4466 33.3179 62.3429C33.3105 59.0126 33.2545 55.6905 33.1494 52.3768C33.3741 52.1691 33.5985 51.9616 33.8233 51.7539C33.4166 52.5057 33.3044 53.3363 33.4863 54.2454C33.9445 55.0312 34.5621 55.6541 35.3394 56.1141Z" fill="#418330"/>
<path fill-rule="evenodd" clip-rule="evenodd" d="M30.9602 62.6551C30.3986 62.6551 29.8373 62.6551 29.2756 62.6551C28.7439 59.6086 28.8561 56.5979 29.6125 53.6233C29.6236 52.813 29.2867 52.1901 28.6018 51.7547C28.8228 52.3726 29.0472 52.9955 29.2756 53.6233C28.9424 54.2444 28.6055 54.8672 28.2648 55.492C26.1127 56.2575 23.8666 56.621 21.5264 56.582C22.1767 58.4114 22.4013 60.3318 22.2002 62.3437C21.4141 62.3437 20.6279 62.3437 19.8418 62.3437C19.8418 57.3606 19.8418 52.3776 19.8418 47.3945C23.5479 47.3945 27.2541 47.3945 30.9602 47.3945C30.9602 52.4813 30.9602 57.5684 30.9602 62.6551Z" fill="#4FA26B"/>
<path fill-rule="evenodd" clip-rule="evenodd" d="M25.2324 56.7383C25.6816 56.7383 26.1309 56.7383 26.5801 56.7383C26.5801 58.6069 26.5801 60.4756 26.5801 62.3442C26.1309 62.3442 25.6816 62.3442 25.2324 62.3442C25.2324 60.4756 25.2324 58.6069 25.2324 56.7383Z" fill="#58A451"/>
<path fill-rule="evenodd" clip-rule="evenodd" d="M22.874 57.0469C23.4356 57.0469 23.9971 57.0469 24.5586 57.0469C24.5586 58.8118 24.5586 60.5764 24.5586 62.3414C23.9971 62.3414 23.4356 62.3414 22.874 62.3414C22.874 60.5764 22.874 58.8118 22.874 57.0469Z" fill="#5DA452"/>
<path fill-rule="evenodd" clip-rule="evenodd" d="M28.2652 55.4883C28.5994 57.7145 28.7116 59.9982 28.6021 62.34C28.153 62.34 27.7035 62.34 27.2544 62.34C27.1432 60.2533 27.2554 58.1773 27.5913 56.1112C27.9356 56.0006 28.1604 55.7929 28.2652 55.4883Z" fill="#50A367"/>
<path fill-rule="evenodd" clip-rule="evenodd" d="M28.6017 51.752C27.5721 51.5041 26.5613 51.1926 25.5694 50.8177C24.6356 50.9815 23.7372 51.2409 22.8741 51.5963C21.9424 52.52 22.0547 53.3506 23.211 54.0878C24.5352 54.4422 25.6583 54.1828 26.5802 53.3092C25.9545 52.373 25.1122 52.1656 24.0533 52.6863C23.8453 52.9819 23.9015 53.2413 24.2217 53.4649C23.7281 53.6521 23.3911 53.4964 23.211 52.9977C24.2232 51.4546 25.4025 51.3508 26.7487 52.6863C26.9141 54.1952 26.1279 54.9218 24.3902 54.8664C22.8481 54.7561 21.8935 54.0295 21.5264 52.6863C21.9578 51.5112 22.8563 50.8363 24.2217 50.6619C25.9494 50.2471 27.4094 50.6105 28.6017 51.752Z" fill="#338331"/>
<path fill-rule="evenodd" clip-rule="evenodd" d="M42.7522 62.6551C41.8536 62.6551 40.9554 62.6551 40.0568 62.6551C40.0568 60.6828 40.0568 58.7101 40.0568 56.7377C40.4527 56.8059 40.7896 56.7022 41.0676 56.4263C40.9554 56.3226 40.8429 56.2186 40.7307 56.1149C38.9416 56.4749 37.1445 56.4749 35.3399 56.1149C34.5627 55.6549 33.9451 55.032 33.4869 54.2462C33.3049 53.3371 33.4171 52.5065 33.8238 51.7547C33.5991 51.9624 33.3747 52.1698 33.1499 52.3776C33.2551 55.6913 33.311 59.0134 33.3184 62.3437C32.7567 62.3437 32.1954 62.3437 31.6338 62.3437C31.6338 57.3606 31.6338 52.3776 31.6338 47.3945C35.3399 47.3945 39.0461 47.3945 42.7522 47.3945C42.7522 52.4813 42.7522 57.5684 42.7522 62.6551Z" fill="#4C9F4F"/>
<path fill-rule="evenodd" clip-rule="evenodd" d="M38.0352 57.0469C38.5968 57.0469 39.1581 57.0469 39.7198 57.0469C39.7198 58.8118 39.7198 60.5764 39.7198 62.3414C39.1581 62.3414 38.5968 62.3414 38.0352 62.3414C38.0352 60.5764 38.0352 58.8118 38.0352 57.0469Z" fill="#53A351"/>
<path fill-rule="evenodd" clip-rule="evenodd" d="M36.0137 56.7383C36.4628 56.7383 36.9122 56.7383 37.3614 56.7383C37.3614 58.6069 37.3614 60.4756 37.3614 62.3442C36.9122 62.3442 36.4628 62.3442 36.0137 62.3442C36.0137 60.4756 36.0137 58.6069 36.0137 56.7383Z" fill="#66A350"/>
<path fill-rule="evenodd" clip-rule="evenodd" d="M35.3404 56.1122C35.3404 58.1886 35.3404 60.2647 35.3404 62.341C34.8912 62.341 34.4418 62.341 33.9927 62.341C33.8815 60.151 33.9937 57.9709 34.3296 55.8008C34.6386 55.9961 34.9755 56.1001 35.3404 56.1122Z" fill="#66A350"/>
<path fill-rule="evenodd" clip-rule="evenodd" d="M18.8301 42.0977C22.8731 42.0977 26.9162 42.0977 30.9593 42.0977C30.9593 43.4471 30.9593 44.7969 30.9593 46.1464C26.9162 46.1464 22.8731 46.1464 18.8301 46.1464C18.8301 44.7969 18.8301 43.4471 18.8301 42.0977Z" fill="#55A24E"/>
<path fill-rule="evenodd" clip-rule="evenodd" d="M31.6338 42.0977C35.6769 42.0977 39.7199 42.0977 43.763 42.0977C43.763 43.4471 43.763 44.7969 43.763 46.1464C39.7199 46.1464 35.6769 46.1464 31.6338 46.1464C31.6338 44.7969 31.6338 43.4471 31.6338 42.0977Z" fill="#4FA252"/>
</g>
<defs>
<clipPath id="clip0_665_7124">
<rect width="65" height="65" fill="white"/>
</clipPath>
</defs>
</svg>
