<svg width="65" height="65" viewBox="0 0 65 65" fill="none" xmlns="http://www.w3.org/2000/svg">
<g clip-path="url(#clip0_662_6108)">
<path opacity="0.999" fill-rule="evenodd" clip-rule="evenodd" d="M0.445312 -0.0625C4.42317 -0.0625 8.40105 -0.0625 12.3789 -0.0625C14.1099 1.83794 15.8873 3.69992 17.7109 5.52344C11.7865 5.52344 5.86198 5.52344 -0.0625 5.52344C-0.0625 3.83073 -0.0625 2.13802 -0.0625 0.445312C0.149089 0.318359 0.318359 0.149089 0.445312 -0.0625Z" fill="#D4F4C9"/>
<path fill-rule="evenodd" clip-rule="evenodd" d="M12.3789 -0.0625C14.6218 -0.0625 16.8645 -0.0625 19.1074 -0.0625C20.1653 1.03776 21.2233 2.13802 22.2812 3.23828C22.8237 3.99266 23.4585 4.66975 24.1855 5.26953C25.3281 6.32747 26.4284 7.42773 27.4863 8.57031C28.0288 9.32469 28.6636 10.0018 29.3906 10.6016C30.5332 11.6595 31.6335 12.7598 32.6914 13.9023C33.2339 14.6567 33.8686 15.3339 34.5957 15.9336C35.7383 17.0339 36.8809 18.1341 38.0234 19.2344C38.7346 20.0945 39.4751 20.9409 40.2451 21.7734C45.4969 27.1309 50.7655 32.4629 56.0508 37.7695C56.9817 38.7429 57.9128 39.7161 58.8438 40.6895C59.4286 41.4862 60.1058 42.2057 60.875 42.8477C62.2749 44.1629 63.6291 45.5171 64.9375 46.9102C64.9375 49.1953 64.9375 51.4805 64.9375 53.7656C51.0616 39.6145 37.2026 25.4382 23.3604 11.2363C22.925 10.7363 22.4383 10.3131 21.9004 9.9668C20.5468 8.44399 19.1503 6.96288 17.7109 5.52344C15.8873 3.69992 14.1099 1.83794 12.3789 -0.0625Z" fill="#54CB52"/>
<path opacity="0.997" fill-rule="evenodd" clip-rule="evenodd" d="M36.3711 -0.0625C43.4805 -0.0625 50.5899 -0.0625 57.6992 -0.0625C58.0229 0.198486 58.2133 0.537029 58.2705 0.953125C58.3881 2.69525 58.3458 4.43028 58.1436 6.1582C57.9954 6.30632 57.8474 6.45442 57.6992 6.60254C57.1507 6.66589 56.6006 6.68705 56.0489 6.66602C50.0398 6.66602 44.0306 6.66602 38.0215 6.66602C37.4698 6.68705 36.9197 6.66589 36.3711 6.60254C36.0408 6.48384 35.8504 6.25109 35.7998 5.9043C35.7152 4.16927 35.7152 2.43425 35.7998 0.699219C35.8759 0.349568 36.0663 0.0956624 36.3711 -0.0625Z" fill="#69CA51"/>
<path opacity="0.969" fill-rule="evenodd" clip-rule="evenodd" d="M22.2812 3.23828C23.0083 3.83806 23.6431 4.51515 24.1855 5.26953C23.4585 4.66975 22.8237 3.99266 22.2812 3.23828Z" fill="#DDAC7E"/>
<path fill-rule="evenodd" clip-rule="evenodd" d="M-0.0625 5.52344C5.86198 5.52344 11.7865 5.52344 17.7109 5.52344C19.1503 6.96288 20.5468 8.44399 21.9004 9.9668C14.5794 9.9668 7.25847 9.9668 -0.0625 9.9668C-0.0625 8.48567 -0.0625 7.00456 -0.0625 5.52344Z" fill="#51A543"/>
<path opacity="0.993" fill-rule="evenodd" clip-rule="evenodd" d="M38.0234 6.66406C44.0325 6.66406 50.0417 6.66406 56.0508 6.66406C56.0508 7.76433 56.0508 8.86458 56.0508 9.96484C53.6806 9.94369 51.3109 9.96486 48.9414 10.0283C48.1655 10.4464 47.975 11.06 48.3701 11.8691C48.4848 12.0217 48.6328 12.1275 48.8145 12.1865C51.2262 12.25 53.6383 12.2712 56.0508 12.25C56.0508 20.7559 56.0508 29.2617 56.0508 37.7676C50.7655 32.4609 45.4969 27.1289 40.2451 21.7715C39.4751 20.9389 38.7346 20.0925 38.0234 19.2324C38.0234 16.905 38.0234 14.5774 38.0234 12.25C40.3937 12.2712 42.7634 12.25 45.1328 12.1865C45.9391 11.7276 46.0872 11.114 45.5771 10.3457C45.397 10.2238 45.2066 10.118 45.0059 10.0283C42.6788 9.96486 40.3513 9.94369 38.0234 9.96484C38.0234 8.86458 38.0234 7.76433 38.0234 6.66406Z" fill="#42A54C"/>
<path opacity="0.969" fill-rule="evenodd" clip-rule="evenodd" d="M27.4844 8.57031C28.2114 9.17009 28.8462 9.84718 29.3887 10.6016C28.6616 10.0018 28.0268 9.32469 27.4844 8.57031Z" fill="#DEAB7E"/>
<path fill-rule="evenodd" clip-rule="evenodd" d="M-0.0625 9.96484C7.25847 9.96484 14.5794 9.96484 21.9004 9.96484C22.4383 10.3112 22.925 10.7344 23.3604 11.2344C37.2026 25.4362 51.0616 39.6126 64.9375 53.7637C64.9375 57.3184 64.9375 60.873 64.9375 64.4277C64.7259 64.5547 64.5566 64.7239 64.4297 64.9355C63.1179 64.9355 61.8059 64.9355 60.4941 64.9355C60.5153 61.846 60.4941 58.7569 60.4307 55.668C60.2882 55.3983 60.0978 55.1656 59.8594 54.9697C56.7067 54.9485 53.554 54.9275 50.4014 54.9062C47.1533 54.8862 43.916 54.9497 40.6895 55.0967C40.537 55.2113 40.4311 55.3593 40.3721 55.541C40.3086 58.6722 40.2874 61.8037 40.3086 64.9355C38.7852 64.9355 37.2617 64.9355 35.7383 64.9355C35.7383 62.4812 35.7383 60.0267 35.7383 57.5723C35.8808 56.1393 35.9021 54.7005 35.8018 53.2559C35.5691 52.346 34.9978 51.7747 34.0879 51.542C27.1903 51.4785 20.2924 51.4573 13.3945 51.4785C13.6978 49.5247 12.9785 48.107 11.2363 47.2256C9.80671 47.0225 8.3679 46.9802 6.91992 47.0986C6.41563 47.2661 5.95014 47.4989 5.52344 47.7969C5.54459 45.1305 5.52344 42.4645 5.45996 39.7988C4.76041 38.9607 4.08333 38.9607 3.42871 39.7988C3.36523 48.1776 3.34407 56.5565 3.36523 64.9355C2.39192 64.9355 1.41862 64.9355 0.445312 64.9355C0.318359 64.7239 0.149089 64.5547 -0.0625 64.4277C-0.0625 46.2734 -0.0625 28.1191 -0.0625 9.96484Z" fill="#D4F4C9"/>
<path fill-rule="evenodd" clip-rule="evenodd" d="M38.0234 9.96496C40.3513 9.94381 42.6788 9.96497 45.0059 10.0284C45.2066 10.1181 45.397 10.2239 45.5771 10.3458C46.0872 11.1141 45.9391 11.7277 45.1328 12.1866C42.7634 12.2501 40.3937 12.2713 38.0234 12.2501C38.0234 11.4884 38.0234 10.7267 38.0234 9.96496Z" fill="#3E8033"/>
<path fill-rule="evenodd" clip-rule="evenodd" d="M56.0505 9.96496C56.0505 10.7267 56.0505 11.4884 56.0505 12.2501C53.638 12.2713 51.2259 12.2501 48.8142 12.1866C48.6325 12.1276 48.4845 12.0218 48.3699 11.8693C47.9748 11.0601 48.1652 10.4465 48.9411 10.0284C51.3106 9.96497 53.6803 9.94381 56.0505 9.96496Z" fill="#4C8133"/>
<path opacity="0.976" fill-rule="evenodd" clip-rule="evenodd" d="M32.6914 13.9023C33.4185 14.5021 34.0532 15.1792 34.5957 15.9336C33.8686 15.3339 33.2339 14.6567 32.6914 13.9023Z" fill="#DBAB7B"/>
<path fill-rule="evenodd" clip-rule="evenodd" d="M5.26758 22.4062C8.73763 22.4062 12.2077 22.4062 15.6777 22.4062C15.6777 26.8496 15.6777 31.293 15.6777 35.7363C12.2077 35.7363 8.73763 35.7363 5.26758 35.7363C4.89589 35.5978 4.62082 35.3439 4.44239 34.9746C4.35775 31.0391 4.35775 27.1035 4.44239 23.168C4.62082 22.7987 4.89589 22.5448 5.26758 22.4062Z" fill="#B0D2EF"/>
<path fill-rule="evenodd" clip-rule="evenodd" d="M15.6797 22.4062C16.3991 22.4062 17.1184 22.4062 17.8379 22.4062C17.8379 26.8496 17.8379 31.293 17.8379 35.7363C17.1184 35.7363 16.3991 35.7363 15.6797 35.7363C15.6797 31.293 15.6797 26.8496 15.6797 22.4062Z" fill="#90BAE0"/>
<path fill-rule="evenodd" clip-rule="evenodd" d="M5.26953 22.4068C12.8654 22.2589 20.4826 22.2377 28.1211 22.3433C28.5544 22.4801 28.8718 22.7552 29.0732 23.1685C29.1579 27.1041 29.1579 31.0396 29.0732 34.9752C28.8828 35.3348 28.6077 35.6099 28.248 35.8004C20.5673 35.906 12.9077 35.8848 5.26953 35.7369C8.73958 35.7369 12.2096 35.7369 15.6797 35.7369C16.3991 35.7369 17.1184 35.7369 17.8379 35.7369C17.8379 31.2935 17.8379 26.8502 17.8379 22.4068C17.1184 22.4068 16.3991 22.4068 15.6797 22.4068C12.2096 22.4068 8.73958 22.4068 5.26953 22.4068Z" fill="#B1D3EF"/>
<path fill-rule="evenodd" clip-rule="evenodd" d="M5.52161 47.7985C5.52161 49.0258 5.52161 50.2529 5.52161 51.4802C5.52161 53.7231 5.52161 55.9658 5.52161 58.2087C5.52161 60.4516 5.52161 62.6943 5.52161 64.9372C4.8022 64.9372 4.08281 64.9372 3.36341 64.9372C3.34224 56.5582 3.36341 48.1793 3.42688 39.8005C4.0815 38.9623 4.75858 38.9623 5.45813 39.8005C5.52161 42.4661 5.54276 45.1321 5.52161 47.7985Z" fill="#51A543"/>
<path opacity="0.976" fill-rule="evenodd" clip-rule="evenodd" d="M58.8438 40.6875C59.613 41.3295 60.2901 42.0489 60.875 42.8457C60.1058 42.2037 59.4286 41.4843 58.8438 40.6875Z" fill="#DBAA7C"/>
<path fill-rule="evenodd" clip-rule="evenodd" d="M13.3945 51.4805C10.7708 51.4805 8.14714 51.4805 5.52344 51.4805C5.52344 50.2532 5.52344 49.0261 5.52344 47.7989C5.95014 47.5009 6.41563 47.2681 6.91992 47.1006C8.3679 46.9822 9.80671 47.0244 11.2363 47.2276C12.9785 48.109 13.6978 49.5267 13.3945 51.4805Z" fill="#AEF120"/>
<path fill-rule="evenodd" clip-rule="evenodd" d="M5.52344 51.4806C8.14714 51.4806 10.7708 51.4806 13.3945 51.4806C20.2924 51.4594 27.1903 51.4806 34.0879 51.5441C34.9978 51.7768 35.5691 52.3481 35.8018 53.258C35.9021 54.7026 35.8808 56.1414 35.7383 57.5744C35.5801 57.8792 35.3262 58.0696 34.9766 58.1456C34.5129 58.209 34.0475 58.2301 33.5801 58.2091C24.2278 58.2091 14.8757 58.2091 5.52344 58.2091C5.52344 55.9662 5.52344 53.7235 5.52344 51.4806Z" fill="#5DEF19"/>
<path fill-rule="evenodd" clip-rule="evenodd" d="M60.4923 64.9353C53.7638 64.9353 47.0353 64.9353 40.3068 64.9353C40.2856 61.8034 40.3068 58.6719 40.3703 55.5407C40.4293 55.3591 40.5352 55.211 40.6876 55.0964C43.9142 54.9494 47.1515 54.8859 50.3996 54.906C53.5522 54.9272 56.7049 54.9482 59.8576 54.9694C60.096 55.1653 60.2864 55.398 60.4289 55.6677C60.4923 58.7566 60.5135 61.8457 60.4923 64.9353Z" fill="#54CB52"/>
<path fill-rule="evenodd" clip-rule="evenodd" d="M35.7363 57.5742C35.7363 60.0286 35.7363 62.4831 35.7363 64.9375C35.0169 64.9375 34.2976 64.9375 33.5781 64.9375C33.5781 62.6946 33.5781 60.4519 33.5781 58.209C34.0456 58.2299 34.511 58.2089 34.9746 58.1455C35.3242 58.0695 35.5781 57.879 35.7363 57.5742Z" fill="#44A542"/>
<path fill-rule="evenodd" clip-rule="evenodd" d="M5.52344 58.207C14.8757 58.207 24.2278 58.207 33.5801 58.207C33.5801 60.4499 33.5801 62.6927 33.5801 64.9355C24.2278 64.9355 14.8757 64.9355 5.52344 64.9355C5.52344 62.6927 5.52344 60.4499 5.52344 58.207Z" fill="#D4F4C9"/>
</g>
<defs>
<clipPath id="clip0_662_6108">
<rect width="65" height="65" fill="white"/>
</clipPath>
</defs>
</svg>
