<svg width="65" height="65" viewBox="0 0 65 65" fill="none" xmlns="http://www.w3.org/2000/svg">
<g clip-path="url(#clip0_662_6151)">
<path opacity="0.988" fill-rule="evenodd" clip-rule="evenodd" d="M30.9122 -0.0625C31.9279 -0.0625 32.9435 -0.0625 33.9591 -0.0625C37.4818 0.391985 40.1478 2.14817 41.9572 5.20605C42.5404 5.70909 43.2174 6.00531 43.9884 6.09473C45.5536 6.15819 47.1193 6.17934 48.6857 6.1582C49.4225 6.36483 49.9515 6.83033 50.2726 7.55469C50.3359 8.27285 50.3571 8.99225 50.3361 9.71289C47.9236 9.73404 45.5115 9.71288 43.0997 9.64941C40.7541 9.07983 38.998 7.74682 37.8312 5.65039C36.2924 4.19046 34.4516 3.47105 32.3087 3.49219C29.4604 3.46592 27.3657 4.69313 26.0245 7.17383C24.7803 8.54732 23.2356 9.37252 21.3908 9.64941C19.106 9.71288 16.8208 9.73404 14.5353 9.71289C14.5353 12.4635 14.5353 15.2142 14.5353 17.9648C12.4617 17.9648 10.3881 17.9648 8.31458 17.9648C8.31458 23.1276 8.31458 28.2903 8.31458 33.4531C8.31458 33.4954 8.31458 33.5378 8.31458 33.5801C7.10662 33.6216 5.92173 33.5793 4.75989 33.4531C4.73873 27.5285 4.75989 21.604 4.82337 15.6797C5.06798 15.0541 5.51232 14.6521 6.15637 14.4736C7.76389 14.4102 9.37196 14.389 10.9806 14.4102C10.9594 12.0823 10.9806 9.75482 11.0441 7.42773C11.2887 6.80215 11.733 6.40012 12.3771 6.22168C15.2123 6.17937 18.0477 6.13704 20.8829 6.09473C22.4325 5.81662 23.5116 4.94911 24.1202 3.49219C25.9598 1.48288 28.2237 0.297975 30.9122 -0.0625Z" fill="#5BFE62"/>
<path fill-rule="evenodd" clip-rule="evenodd" d="M50.3379 9.71334C50.3379 9.75566 50.3379 9.79798 50.3379 9.8403C49.153 9.8403 47.9681 9.8403 46.7832 9.8403C46.762 12.1682 46.7832 14.4957 46.8467 16.8227C47.0371 17.3517 47.3968 17.7114 47.9258 17.9018C48.7288 17.9653 49.5328 17.9864 50.3379 17.9653C52.4114 17.9653 54.4851 17.9653 56.5586 17.9653C56.5586 18.0076 56.5586 18.05 56.5586 18.0922C55.3737 18.0922 54.1888 18.0922 53.0039 18.0922C53.0039 23.2126 53.0039 28.3332 53.0039 33.4536C54.1888 33.4536 55.3737 33.4536 56.5586 33.4536C56.5586 33.4959 56.5586 33.5383 56.5586 33.5805C54.1465 33.5805 51.7344 33.5805 49.3223 33.5805C50.1322 33.2564 50.6611 32.6639 50.9092 31.8032C51.0305 29.6789 50.9883 27.563 50.7822 25.4555C50.4958 24.7881 50.0091 24.3438 49.3223 24.1225C48.1382 24.059 46.9532 24.038 45.7676 24.059C42.678 24.0378 39.5889 24.059 36.5 24.1225C35.8132 24.3438 35.3264 24.7881 35.04 25.4555C34.9554 27.656 34.9554 29.8566 35.04 32.0571C35.1963 32.6573 35.556 33.0805 36.1191 33.3266C33.6868 33.4532 31.2323 33.4955 28.7559 33.4536C29.3709 33.0695 29.773 32.5195 29.9619 31.8032C30.0833 29.6789 30.041 27.563 29.835 25.4555C29.5486 24.7881 29.0618 24.3438 28.375 24.1225C27.1909 24.059 26.0059 24.038 24.8203 24.059C21.7308 24.0378 18.6416 24.059 15.5527 24.1225C14.8659 24.3438 14.3792 24.7881 14.0928 25.4555C14.0081 27.656 14.0081 29.8566 14.0928 32.0571C14.2491 32.6573 14.6087 33.0805 15.1719 33.3266C12.9088 33.4532 10.6237 33.4955 8.31641 33.4536C8.31641 28.2908 8.31641 23.1281 8.31641 17.9653C10.39 17.9653 12.4635 17.9653 14.5371 17.9653C14.5371 15.2146 14.5371 12.464 14.5371 9.71334C16.8226 9.73449 19.1078 9.71333 21.3926 9.64987C23.2375 9.37297 24.7821 8.54777 26.0264 7.17428C27.3675 4.69358 29.4622 3.46637 32.3105 3.49264C34.4534 3.4715 36.2942 4.19091 37.833 5.65084C38.9998 7.74727 40.756 9.08028 43.1016 9.64987C45.5133 9.71333 47.9254 9.73449 50.3379 9.71334Z" fill="#58DC8D"/>
<path fill-rule="evenodd" clip-rule="evenodd" d="M48.6875 6.15636C49.9578 6.13522 51.2273 6.15638 52.4961 6.21984C53.1401 6.39828 53.5845 6.8003 53.8291 7.42589C53.8926 9.75298 53.9138 12.0804 53.8926 14.4083C53.0452 14.4294 52.1988 14.4083 51.3535 14.3448C50.8451 14.0705 50.5066 13.6684 50.3379 13.1388C50.3379 12.0385 50.3379 10.9383 50.3379 9.838C50.3379 9.79569 50.3379 9.75336 50.3379 9.71105C50.359 8.99041 50.3378 8.27101 50.2744 7.55284C49.9533 6.82849 49.4243 6.36299 48.6875 6.15636Z" fill="#44FEA5"/>
<path fill-rule="evenodd" clip-rule="evenodd" d="M50.3361 9.83984C50.3361 10.9401 50.3361 12.0404 50.3361 13.1406C50.3361 14.7487 50.3361 16.3567 50.3361 17.9648C49.5309 17.9859 48.7269 17.9648 47.924 17.9014C47.395 17.7109 47.0353 17.3513 46.8449 16.8223C46.7814 14.4952 46.7602 12.1677 46.7814 9.83984C47.9662 9.83984 49.1512 9.83984 50.3361 9.83984Z" fill="#5AD147"/>
<path opacity="0.998" fill-rule="evenodd" clip-rule="evenodd" d="M50.3359 13.1406C50.5047 13.6703 50.8431 14.0723 51.3516 14.3467C52.1968 14.4102 53.0432 14.4312 53.8906 14.4102C54.2292 14.4102 54.5677 14.4102 54.9062 14.4102C55.6431 14.6168 56.1721 15.0822 56.4932 15.8066C56.5565 16.5248 56.5777 17.2443 56.5566 17.9648C54.4831 17.9648 52.4095 17.9648 50.3359 17.9648C50.3359 16.3567 50.3359 14.7487 50.3359 13.1406Z" fill="#5AFEAF"/>
<path fill-rule="evenodd" clip-rule="evenodd" d="M54.9062 14.4102C56.1765 14.3892 57.4461 14.4102 58.7148 14.4737C59.3589 14.6522 59.8032 15.0541 60.0479 15.6798C60.1113 21.604 60.1325 27.5286 60.1113 33.4532C59.3312 33.5789 58.5272 33.6212 57.6992 33.5802C57.3184 33.5802 56.9375 33.5802 56.5566 33.5802C56.5566 33.5379 56.5566 33.4955 56.5566 33.4532C56.5566 28.3328 56.5566 23.2123 56.5566 18.0919C56.5566 18.0496 56.5566 18.0072 56.5566 17.9649C56.5777 17.2443 56.5565 16.5249 56.4932 15.8067C56.1721 15.0823 55.6431 14.6169 54.9062 14.4102Z" fill="#44FEA5"/>
<path fill-rule="evenodd" clip-rule="evenodd" d="M56.5586 18.0898C56.5586 23.2102 56.5586 28.3308 56.5586 33.4512C55.3737 33.4512 54.1888 33.4512 53.0039 33.4512C53.0039 28.3308 53.0039 23.2102 53.0039 18.0898C54.1888 18.0898 55.3737 18.0898 56.5586 18.0898Z" fill="#5AD147"/>
<path fill-rule="evenodd" clip-rule="evenodd" d="M24.8184 24.0587C26.004 24.0376 27.189 24.0587 28.373 24.1222C29.0599 24.3434 29.5466 24.7878 29.833 25.4552C30.0391 27.5626 30.0813 29.6785 29.96 31.8028C29.7711 32.5191 29.369 33.0692 28.7539 33.4532C28.59 33.4231 28.4631 33.4654 28.373 33.5802C24.2683 33.5802 20.1634 33.5802 16.0586 33.5802C19.0839 33.4745 22.1308 33.4111 25.1992 33.3897C25.7852 33.0574 26.1873 32.5708 26.4053 31.9298C26.49 29.8562 26.49 27.7826 26.4053 25.7091C26.1066 24.9239 25.5775 24.3738 24.8184 24.0587Z" fill="#DFF5FB"/>
<path fill-rule="evenodd" clip-rule="evenodd" d="M45.7676 24.0587C46.9532 24.0376 48.1382 24.0587 49.3223 24.1222C50.0091 24.3434 50.4958 24.7878 50.7822 25.4552C50.9883 27.5626 51.0305 29.6785 50.9092 31.8028C50.6611 32.6636 50.1322 33.2561 49.3223 33.5802C45.2175 33.5802 41.1126 33.5802 37.0078 33.5802C39.9907 33.4745 42.9953 33.4111 46.0215 33.3897C46.6856 33.1064 47.1299 32.6198 47.3545 31.9298C47.4392 29.8562 47.4392 27.7826 47.3545 25.7091C47.0558 24.9239 46.5268 24.3738 45.7676 24.0587Z" fill="#DFF5FB"/>
<path fill-rule="evenodd" clip-rule="evenodd" d="M24.8184 24.0587C25.5776 24.3738 26.1066 24.9239 26.4053 25.7091C26.49 27.7826 26.49 29.8563 26.4053 31.9298C26.1873 32.5708 25.7853 33.0574 25.1993 33.3898C22.1308 33.4111 19.0839 33.4746 16.0586 33.5802C15.8894 33.5802 15.72 33.5802 15.5508 33.5802C15.4505 33.4658 15.3236 33.3812 15.17 33.3263C14.6068 33.0801 14.2471 32.657 14.0909 32.0568C14.0062 29.8563 14.0062 27.6557 14.0909 25.4552C14.3773 24.7878 14.864 24.3435 15.5508 24.1222C18.6397 24.0587 21.7289 24.0375 24.8184 24.0587Z" fill="#F1FAFE"/>
<path fill-rule="evenodd" clip-rule="evenodd" d="M45.7657 24.0587C46.5248 24.3738 47.0539 24.9239 47.3526 25.7091C47.4372 27.7826 47.4372 29.8563 47.3526 31.9298C47.128 32.6198 46.6837 33.1064 46.0196 33.3898C42.9934 33.4111 39.9888 33.4746 37.0059 33.5802C36.8367 33.5802 36.6673 33.5802 36.4981 33.5802C36.3978 33.4658 36.2708 33.3812 36.1172 33.3263C35.5541 33.0801 35.1944 32.657 35.0381 32.0568C34.9534 29.8563 34.9534 27.6557 35.0381 25.4552C35.3245 24.7878 35.8113 24.3435 36.4981 24.1222C39.587 24.0587 42.6761 24.0375 45.7657 24.0587Z" fill="#F1FAFE"/>
<path fill-rule="evenodd" clip-rule="evenodd" d="M15.1719 33.3242C15.3255 33.3791 15.4524 33.4637 15.5527 33.5781C13.1406 33.5781 10.7285 33.5781 8.31641 33.5781C8.31641 33.5358 8.31641 33.4934 8.31641 33.4512C10.6237 33.4931 12.9088 33.4508 15.1719 33.3242Z" fill="#7DD36F"/>
<path fill-rule="evenodd" clip-rule="evenodd" d="M36.1191 33.3242C36.2728 33.3791 36.3997 33.4637 36.5 33.5781C33.7917 33.5781 31.0833 33.5781 28.375 33.5781C28.465 33.4634 28.592 33.4211 28.7559 33.4512C31.2323 33.4931 33.6868 33.4508 36.1191 33.3242Z" fill="#6FD3A3"/>
<path fill-rule="evenodd" clip-rule="evenodd" d="M4.76172 33.4505C5.92356 33.5767 7.10845 33.619 8.31641 33.5775C10.7285 33.5775 13.1406 33.5775 15.5527 33.5775C15.722 33.5775 15.8913 33.5775 16.0605 33.5775C20.1653 33.5775 24.2702 33.5775 28.375 33.5775C31.0833 33.5775 33.7917 33.5775 36.5 33.5775C36.6692 33.5775 36.8386 33.5775 37.0078 33.5775C41.1126 33.5775 45.2175 33.5775 49.3223 33.5775C51.7344 33.5775 54.1465 33.5775 56.5586 33.5775C56.9395 33.5775 57.3203 33.5775 57.7012 33.5775C58.7014 33.8369 59.3573 34.4716 59.6689 35.4818C59.7324 37.428 59.7536 39.3746 59.7324 41.3216C39.8008 41.3216 19.8691 41.3216 -0.0625 41.3216C-0.0625 39.2904 -0.0625 37.2591 -0.0625 35.2279C0.241512 34.5215 0.749325 33.9925 1.46094 33.641C2.55367 33.471 3.65394 33.4075 4.76172 33.4505Z" fill="#B8FC98"/>
<path fill-rule="evenodd" clip-rule="evenodd" d="M60.1113 33.4505C61.2191 33.4075 62.3194 33.471 63.4121 33.641C64.1237 33.9925 64.6315 34.5215 64.9355 35.2279C64.9355 37.2591 64.9355 39.2904 64.9355 41.3216C63.2005 41.3216 61.4655 41.3216 59.7305 41.3216C59.7517 39.3746 59.7305 37.428 59.667 35.4818C59.3553 34.4716 58.6995 33.8369 57.6992 33.5775C58.5272 33.6185 59.3312 33.5762 60.1113 33.4505Z" fill="#62FBA8"/>
<path fill-rule="evenodd" clip-rule="evenodd" d="M-0.0625 41.4492C19.8691 41.4492 39.8008 41.4492 59.7324 41.4492C59.7536 43.3116 59.7324 45.1736 59.6689 47.0352C59.5548 47.5478 59.3432 48.0133 59.0342 48.4316C58.6726 48.7683 58.2706 49.0222 57.8281 49.1934C39.0813 49.1934 20.3347 49.1934 1.58789 49.1934C0.822936 48.8516 0.272806 48.3015 -0.0625 47.543C-0.0625 45.5117 -0.0625 43.4805 -0.0625 41.4492Z" fill="#F1FAFE"/>
<path fill-rule="evenodd" clip-rule="evenodd" d="M-0.0625 41.4512C-0.0625 41.4089 -0.0625 41.3665 -0.0625 41.3242C19.8691 41.3242 39.8008 41.3242 59.7324 41.3242C61.4675 41.3242 63.2024 41.3242 64.9375 41.3242C64.9375 43.3977 64.9375 45.4714 64.9375 47.5449C64.5989 48.3066 64.0488 48.8567 63.2871 49.1953C61.4675 49.1953 59.6477 49.1953 57.8281 49.1953C58.2706 49.0242 58.6726 48.7703 59.0342 48.4336C59.3432 48.0153 59.5548 47.5497 59.6689 47.0371C59.7324 45.1756 59.7536 43.3136 59.7324 41.4512C39.8008 41.4512 19.8691 41.4512 -0.0625 41.4512Z" fill="#DDF5FD"/>
<path opacity="0.997" fill-rule="evenodd" clip-rule="evenodd" d="M1.58789 49.1953C20.3347 49.1953 39.0813 49.1953 57.8281 49.1953C58.8128 49.5246 59.4265 50.2017 59.6689 51.2266C59.7536 53.3848 59.7536 55.543 59.6689 57.7012C59.6133 58.0663 59.4864 58.4049 59.2881 58.7168C58.8967 59.1299 58.4948 59.5108 58.082 59.8594C57.405 59.8594 56.7278 59.8594 56.0508 59.8594C40.3086 59.8594 24.5664 59.8594 8.82422 59.8594C8.10481 59.8594 7.38542 59.8594 6.66602 59.8594C5.01508 59.8806 3.36469 59.8594 1.71484 59.7959C0.857249 59.5514 0.2648 59.0224 -0.0625 58.209C-0.0625 55.7546 -0.0625 53.3001 -0.0625 50.8457C0.269245 50.0907 0.819375 49.5406 1.58789 49.1953Z" fill="#8ADB58"/>
<path fill-rule="evenodd" clip-rule="evenodd" d="M57.8281 49.1953C59.6477 49.1953 61.4675 49.1953 63.2871 49.1953C64.0557 49.5406 64.6058 50.0907 64.9375 50.8457C64.9375 53.3001 64.9375 55.7546 64.9375 58.209C64.6102 59.0224 64.0177 59.5514 63.1602 59.7959C61.5103 59.8594 59.8599 59.8806 58.209 59.8594C58.1667 59.8594 58.1243 59.8594 58.082 59.8594C58.4948 59.5108 58.8967 59.1299 59.2881 58.7168C59.4864 58.4049 59.6133 58.0663 59.6689 57.7012C59.7536 55.543 59.7536 53.3848 59.6689 51.2266C59.4265 50.2017 58.8128 49.5246 57.8281 49.1953Z" fill="#5AD147"/>
<path opacity="0.956" fill-rule="evenodd" clip-rule="evenodd" d="M6.66417 59.8594C7.38358 59.8594 8.10297 59.8594 8.82238 59.8594C8.84351 61.2142 8.82235 62.5684 8.7589 63.9219C8.72971 64.3621 8.53928 64.7006 8.18761 64.9375C7.89139 64.9375 7.59516 64.9375 7.29894 64.9375C7.04821 64.792 6.85778 64.5804 6.72765 64.3027C6.66419 62.8222 6.64304 61.341 6.66417 59.8594Z" fill="#908290"/>
<path opacity="0.956" fill-rule="evenodd" clip-rule="evenodd" d="M56.049 59.8594C56.726 59.8594 57.4032 59.8594 58.0802 59.8594C58.1225 59.8594 58.1649 59.8594 58.2072 59.8594C58.2284 61.341 58.2072 62.8222 58.1437 64.3027C58.0136 64.5804 57.8231 64.792 57.5724 64.9375C57.2762 64.9375 56.9799 64.9375 56.6837 64.9375C56.3321 64.7006 56.1416 64.3621 56.1124 63.9219C56.049 62.5684 56.0278 61.2142 56.049 59.8594Z" fill="#908290"/>
</g>
<defs>
<clipPath id="clip0_662_6151">
<rect width="65" height="65" fill="white"/>
</clipPath>
</defs>
</svg>
