<svg width="75" height="75" viewBox="0 0 75 75" fill="none" xmlns="http://www.w3.org/2000/svg">
<g filter="url(#filter0_d_647_2038)">
<rect x="24" y="24" width="25" height="25" rx="12.5" fill="url(#paint0_linear_647_2038)"/>
</g>
<g filter="url(#filter1_d_647_2038)">
<rect x="26.8848" y="26.8828" width="19.2308" height="19.2308" rx="9.61539" fill="white"/>
</g>
<rect x="35.0273" y="29.75" width="2.94698" height="13.4902" rx="1.47349" fill="white"/>
<rect x="30.5078" y="38.1523" width="3.31727" height="11.9844" rx="1.65864" transform="rotate(-90 30.5078 38.1523)" fill="white"/>
<path d="M31.7599 38.5547C30.6606 38.5547 29.7695 37.6636 29.7695 36.5643C29.7695 35.4651 30.6606 34.574 31.7599 34.574H42.1604C43.2597 34.574 44.1508 35.4651 44.1508 36.5643C44.1508 37.6636 43.2597 38.5547 42.1604 38.5547H31.7599Z" fill="url(#paint1_linear_647_2038)"/>
<defs>
<filter id="filter0_d_647_2038" x="0" y="0" width="75" height="75" filterUnits="userSpaceOnUse" color-interpolation-filters="sRGB">
<feFlood flood-opacity="0" result="BackgroundImageFix"/>
<feColorMatrix in="SourceAlpha" type="matrix" values="0 0 0 0 0 0 0 0 0 0 0 0 0 0 0 0 0 0 127 0" result="hardAlpha"/>
<feOffset dx="1" dy="1"/>
<feGaussianBlur stdDeviation="12.5"/>
<feComposite in2="hardAlpha" operator="out"/>
<feColorMatrix type="matrix" values="0 0 0 0 0.054902 0 0 0 0 0.133333 0 0 0 0 0.25098 0 0 0 0.15 0"/>
<feBlend mode="normal" in2="BackgroundImageFix" result="effect1_dropShadow_647_2038"/>
<feBlend mode="normal" in="SourceGraphic" in2="effect1_dropShadow_647_2038" result="shape"/>
</filter>
<filter id="filter1_d_647_2038" x="2.88477" y="2.88281" width="69.2305" height="69.2305" filterUnits="userSpaceOnUse" color-interpolation-filters="sRGB">
<feFlood flood-opacity="0" result="BackgroundImageFix"/>
<feColorMatrix in="SourceAlpha" type="matrix" values="0 0 0 0 0 0 0 0 0 0 0 0 0 0 0 0 0 0 127 0" result="hardAlpha"/>
<feOffset dx="1" dy="1"/>
<feGaussianBlur stdDeviation="12.5"/>
<feComposite in2="hardAlpha" operator="out"/>
<feColorMatrix type="matrix" values="0 0 0 0 0.054902 0 0 0 0 0.133333 0 0 0 0 0.25098 0 0 0 0.15 0"/>
<feBlend mode="normal" in2="BackgroundImageFix" result="effect1_dropShadow_647_2038"/>
<feBlend mode="normal" in="SourceGraphic" in2="effect1_dropShadow_647_2038" result="shape"/>
</filter>
<linearGradient id="paint0_linear_647_2038" x1="36.5" y1="24" x2="36.5" y2="49" gradientUnits="userSpaceOnUse">
<stop stop-color="#16D3A9"/>
<stop offset="1" stop-color="#00FF01"/>
</linearGradient>
<linearGradient id="paint1_linear_647_2038" x1="47.558" y1="-3.20056" x2="61.9393" y2="-3.20056" gradientUnits="userSpaceOnUse">
<stop stop-color="#16D3A9"/>
<stop offset="1" stop-color="#00FF01"/>
</linearGradient>
</defs>
</svg>
