<svg width="566" height="103" viewBox="0 0 566 103" fill="none" xmlns="http://www.w3.org/2000/svg">
<path d="M576.512 103L341 95.7603L0 85.1723V14.4207L341 1.94221L576.512 4.7861e-05C581.391 -0.00647643 586.221 0.654093 590.714 1.94221C595.05 3.18293 598.989 4.98205 602.313 7.23971C605.645 9.49145 608.301 12.16 610.132 15.0974C612.034 18.1415 613.009 21.4144 613 24.72V78.28C613.009 81.5856 612.034 84.8585 610.132 87.9026C608.301 90.84 605.645 93.5085 602.313 95.7603C598.989 98.018 595.05 99.8171 590.714 101.058C586.221 102.346 581.391 103.007 576.512 103Z" fill="#7BFF7C"/>
</svg>
