<svg width="60" height="40" viewBox="0 0 60 40" fill="none" xmlns="http://www.w3.org/2000/svg">
<g clip-path="url(#clip0_34_1176)">
<path d="M40.1786 0V3.12619C44.6683 5.46448 47.8827 7.90444 49.8214 10.4461C51.7602 12.9876 52.7296 15.7581 52.7296 18.7572C52.7296 20.5363 52.4745 21.7563 51.9643 22.4171C51.5051 23.1287 50.9439 23.4846 50.2806 23.4846C49.6173 23.4846 48.7245 23.3067 47.602 22.9508C46.4796 22.5442 45.4591 22.3409 44.5409 22.3409C42.449 22.3409 40.6378 23.1287 39.1071 24.7046C37.5255 26.2295 36.7347 28.1103 36.7347 30.3469C36.7347 32.7868 37.6785 34.8964 39.5664 36.6755C41.4541 38.4038 43.801 39.268 46.6071 39.268C50.0255 39.268 53.1122 37.7939 55.8673 34.8456C58.6224 31.8973 60 28.2629 60 23.9421C60 18.8588 58.3163 14.1314 54.949 9.75982C51.5306 5.3374 46.6071 2.08412 40.1786 0ZM3.67347 0.228746V3.12619C8.82649 6.07447 12.2193 8.71775 13.852 11.056C15.4847 13.3944 16.301 16.1393 16.301 19.2909C16.301 20.7142 16.0204 21.7817 15.4591 22.4933C14.898 23.205 14.3112 23.5608 13.699 23.5608C13.1377 23.5608 12.296 23.3575 11.1735 22.9508C10.051 22.5442 8.92859 22.3409 7.8061 22.3409C5.71426 22.3409 3.90305 23.1033 2.37246 24.6283C0.790817 26.1025 0 27.9324 0 30.1182C0 32.609 0.994919 34.7693 2.98466 36.5993C4.92344 38.4293 7.32148 39.3443 10.1786 39.3443C13.5459 39.3443 16.5816 37.8955 19.2857 34.9981C21.9898 32.1007 23.3419 28.4915 23.3419 24.1708C23.3419 18.8334 21.6327 13.9789 18.2143 9.60732C14.7959 5.1849 9.94898 2.05871 3.67347 0.228746Z" fill="#69F490"/>
</g>
<defs>
<clipPath id="clip0_34_1176">
<rect width="60" height="39.3443" fill="white" transform="matrix(-1 0 0 1 60 0)"/>
</clipPath>
</defs>
</svg>
