<svg width="1519" height="672" viewBox="0 0 1519 672" fill="none" xmlns="http://www.w3.org/2000/svg">
<path d="M209.262 149.704C177.085 149.704 151 114.019 151 70C151 70 177.085 70.0005 209.262 70.0005C241.44 70.0005 267.524 70 267.524 70C267.524 114.019 241.44 149.704 209.262 149.704Z" fill="#FAFF00" fill-opacity="0.5"/>
<g opacity="0.7" clip-path="url(#clip0_192_2129)">
<path d="M991.552 195.023C989.051 195.023 987.023 197.051 987.023 199.552C987.023 202.053 989.051 204.08 991.552 204.08C994.053 204.08 996.08 202.053 996.08 199.552C996.08 197.051 994.053 195.023 991.552 195.023Z" fill="#E1EAF1"/>
<path d="M973.439 195.023C970.938 195.023 968.911 197.051 968.911 199.552C968.911 202.053 970.938 204.08 973.439 204.08C975.94 204.08 977.968 202.053 977.968 199.552C977.968 197.051 975.94 195.023 973.439 195.023Z" fill="#E1EAF1"/>
<path d="M955.325 195.023C952.824 195.023 950.797 197.051 950.797 199.552C950.797 202.053 952.824 204.08 955.325 204.08C957.826 204.08 959.854 202.053 959.854 199.552C959.854 197.051 957.826 195.023 955.325 195.023Z" fill="#E1EAF1"/>
<path d="M937.212 195.023C934.711 195.023 932.683 197.051 932.683 199.552C932.683 202.053 934.711 204.08 937.212 204.08C939.713 204.08 941.74 202.053 941.74 199.552C941.74 197.051 939.713 195.023 937.212 195.023Z" fill="#E1EAF1"/>
<path d="M919.099 195.023C916.598 195.023 914.57 197.051 914.57 199.552C914.57 202.053 916.598 204.08 919.099 204.08C921.6 204.08 923.627 202.053 923.627 199.552C923.627 197.051 921.6 195.023 919.099 195.023Z" fill="#E1EAF1"/>
<path d="M900.981 195.023C898.48 195.023 896.453 197.051 896.453 199.552C896.453 202.053 898.48 204.08 900.981 204.08C903.482 204.08 905.51 202.053 905.51 199.552C905.51 197.051 903.482 195.023 900.981 195.023Z" fill="#E1EAF1"/>
<path d="M882.868 195.023C880.367 195.023 878.34 197.051 878.34 199.552C878.34 202.053 880.367 204.08 882.868 204.08C885.369 204.08 887.396 202.053 887.396 199.552C887.396 197.051 885.369 195.023 882.868 195.023Z" fill="#E1EAF1"/>
<path d="M864.755 195.023C862.254 195.023 860.226 197.051 860.226 199.552C860.226 202.053 862.254 204.08 864.755 204.08C867.256 204.08 869.283 202.053 869.283 199.552C869.283 197.051 867.256 195.023 864.755 195.023Z" fill="#E1EAF1"/>
<path d="M846.641 195.023C844.141 195.023 842.113 197.051 842.113 199.552C842.113 202.053 844.141 204.08 846.641 204.08C849.142 204.08 851.17 202.053 851.17 199.552C851.17 197.051 849.142 195.023 846.641 195.023Z" fill="#E1EAF1"/>
<path d="M828.528 195.023C826.027 195.023 824 197.051 824 199.552C824 202.053 826.027 204.08 828.528 204.08C831.029 204.08 833.057 202.053 833.057 199.552C833.057 197.051 831.029 195.023 828.528 195.023Z" fill="#E1EAF1"/>
<path d="M991.552 176.91C989.051 176.91 987.023 178.937 987.023 181.438C987.023 183.939 989.051 185.967 991.552 185.967C994.053 185.967 996.08 183.939 996.08 181.438C996.08 178.937 994.053 176.91 991.552 176.91Z" fill="#E1EAF1"/>
<path d="M973.439 176.91C970.938 176.91 968.911 178.937 968.911 181.438C968.911 183.939 970.938 185.967 973.439 185.967C975.94 185.967 977.968 183.939 977.968 181.438C977.968 178.937 975.94 176.91 973.439 176.91Z" fill="#E1EAF1"/>
<path d="M955.325 176.91C952.824 176.91 950.797 178.937 950.797 181.438C950.797 183.939 952.824 185.967 955.325 185.967C957.826 185.967 959.854 183.939 959.854 181.438C959.854 178.937 957.826 176.91 955.325 176.91Z" fill="#E1EAF1"/>
<path d="M937.212 176.91C934.711 176.91 932.683 178.937 932.683 181.438C932.683 183.939 934.711 185.967 937.212 185.967C939.713 185.967 941.74 183.939 941.74 181.438C941.74 178.937 939.713 176.91 937.212 176.91Z" fill="#E1EAF1"/>
<path d="M919.099 176.91C916.598 176.91 914.57 178.937 914.57 181.438C914.57 183.939 916.598 185.967 919.099 185.967C921.6 185.967 923.627 183.939 923.627 181.438C923.627 178.937 921.6 176.91 919.099 176.91Z" fill="#E1EAF1"/>
<path d="M900.981 176.91C898.48 176.91 896.453 178.937 896.453 181.438C896.453 183.939 898.48 185.967 900.981 185.967C903.482 185.967 905.51 183.939 905.51 181.438C905.51 178.937 903.482 176.91 900.981 176.91Z" fill="#E1EAF1"/>
<path d="M882.868 176.91C880.367 176.91 878.34 178.937 878.34 181.438C878.34 183.939 880.367 185.967 882.868 185.967C885.369 185.967 887.396 183.939 887.396 181.438C887.396 178.937 885.369 176.91 882.868 176.91Z" fill="#E1EAF1"/>
<path d="M864.755 176.91C862.254 176.91 860.226 178.937 860.226 181.438C860.226 183.939 862.254 185.967 864.755 185.967C867.256 185.967 869.283 183.939 869.283 181.438C869.283 178.937 867.256 176.91 864.755 176.91Z" fill="#E1EAF1"/>
<path d="M846.641 176.91C844.141 176.91 842.113 178.937 842.113 181.438C842.113 183.939 844.141 185.967 846.641 185.967C849.142 185.967 851.17 183.939 851.17 181.438C851.17 178.937 849.142 176.91 846.641 176.91Z" fill="#E1EAF1"/>
<path d="M828.528 176.91C826.027 176.91 824 178.937 824 181.438C824 183.939 826.027 185.967 828.528 185.967C831.029 185.967 833.057 183.939 833.057 181.438C833.057 178.937 831.029 176.91 828.528 176.91Z" fill="#E1EAF1"/>
<path d="M991.552 158.797C989.051 158.797 987.023 160.824 987.023 163.325C987.023 165.826 989.051 167.854 991.552 167.854C994.053 167.854 996.08 165.826 996.08 163.325C996.08 160.824 994.053 158.797 991.552 158.797Z" fill="#E1EAF1"/>
<path d="M973.439 158.797C970.938 158.797 968.911 160.824 968.911 163.325C968.911 165.826 970.938 167.854 973.439 167.854C975.94 167.854 977.968 165.826 977.968 163.325C977.968 160.824 975.94 158.797 973.439 158.797Z" fill="#E1EAF1"/>
<path d="M955.325 158.797C952.824 158.797 950.797 160.824 950.797 163.325C950.797 165.826 952.824 167.854 955.325 167.854C957.826 167.854 959.854 165.826 959.854 163.325C959.854 160.824 957.826 158.797 955.325 158.797Z" fill="#E1EAF1"/>
<path d="M937.212 158.797C934.711 158.797 932.683 160.824 932.683 163.325C932.683 165.826 934.711 167.854 937.212 167.854C939.713 167.854 941.74 165.826 941.74 163.325C941.74 160.824 939.713 158.797 937.212 158.797Z" fill="#E1EAF1"/>
<path d="M919.099 158.797C916.598 158.797 914.57 160.824 914.57 163.325C914.57 165.826 916.598 167.854 919.099 167.854C921.6 167.854 923.627 165.826 923.627 163.325C923.627 160.824 921.6 158.797 919.099 158.797Z" fill="#E1EAF1"/>
<path d="M900.981 158.797C898.48 158.797 896.453 160.824 896.453 163.325C896.453 165.826 898.48 167.854 900.981 167.854C903.482 167.854 905.51 165.826 905.51 163.325C905.51 160.824 903.482 158.797 900.981 158.797Z" fill="#E1EAF1"/>
<path d="M882.868 158.797C880.367 158.797 878.34 160.824 878.34 163.325C878.34 165.826 880.367 167.854 882.868 167.854C885.369 167.854 887.396 165.826 887.396 163.325C887.396 160.824 885.369 158.797 882.868 158.797Z" fill="#E1EAF1"/>
<path d="M864.755 158.797C862.254 158.797 860.226 160.824 860.226 163.325C860.226 165.826 862.254 167.854 864.755 167.854C867.256 167.854 869.283 165.826 869.283 163.325C869.283 160.824 867.256 158.797 864.755 158.797Z" fill="#E1EAF1"/>
<path d="M846.641 158.797C844.141 158.797 842.113 160.824 842.113 163.325C842.113 165.826 844.141 167.854 846.641 167.854C849.142 167.854 851.17 165.826 851.17 163.325C851.17 160.824 849.142 158.797 846.641 158.797Z" fill="#E1EAF1"/>
<path d="M828.528 158.797C826.027 158.797 824 160.824 824 163.325C824 165.826 826.027 167.854 828.528 167.854C831.029 167.854 833.057 165.826 833.057 163.325C833.057 160.824 831.029 158.797 828.528 158.797Z" fill="#E1EAF1"/>
<path d="M991.552 140.681C989.051 140.681 987.023 142.709 987.023 145.21C987.023 147.711 989.051 149.738 991.552 149.738C994.053 149.738 996.08 147.711 996.08 145.21C996.08 142.709 994.053 140.681 991.552 140.681Z" fill="#E1EAF1"/>
<path d="M973.439 140.681C970.938 140.681 968.911 142.709 968.911 145.21C968.911 147.711 970.938 149.738 973.439 149.738C975.94 149.738 977.968 147.711 977.968 145.21C977.968 142.709 975.94 140.681 973.439 140.681Z" fill="#E1EAF1"/>
<path d="M955.325 140.681C952.824 140.681 950.797 142.709 950.797 145.21C950.797 147.711 952.824 149.738 955.325 149.738C957.826 149.738 959.854 147.711 959.854 145.21C959.854 142.709 957.826 140.681 955.325 140.681Z" fill="#E1EAF1"/>
<path d="M937.212 140.681C934.711 140.681 932.683 142.709 932.683 145.21C932.683 147.711 934.711 149.738 937.212 149.738C939.713 149.738 941.74 147.711 941.74 145.21C941.74 142.709 939.713 140.681 937.212 140.681Z" fill="#E1EAF1"/>
<path d="M919.099 140.681C916.598 140.681 914.57 142.709 914.57 145.21C914.57 147.711 916.598 149.738 919.099 149.738C921.6 149.738 923.627 147.711 923.627 145.21C923.627 142.709 921.6 140.681 919.099 140.681Z" fill="#E1EAF1"/>
<path d="M900.981 140.681C898.48 140.681 896.453 142.709 896.453 145.21C896.453 147.711 898.48 149.738 900.981 149.738C903.482 149.738 905.51 147.711 905.51 145.21C905.51 142.709 903.482 140.681 900.981 140.681Z" fill="#E1EAF1"/>
<path d="M882.868 140.681C880.367 140.681 878.34 142.709 878.34 145.21C878.34 147.711 880.367 149.738 882.868 149.738C885.369 149.738 887.396 147.711 887.396 145.21C887.396 142.709 885.369 140.681 882.868 140.681Z" fill="#E1EAF1"/>
<path d="M864.755 140.681C862.254 140.681 860.226 142.709 860.226 145.21C860.226 147.711 862.254 149.738 864.755 149.738C867.256 149.738 869.283 147.711 869.283 145.21C869.283 142.709 867.256 140.681 864.755 140.681Z" fill="#E1EAF1"/>
<path d="M846.641 140.681C844.141 140.681 842.113 142.709 842.113 145.21C842.113 147.711 844.141 149.738 846.641 149.738C849.142 149.738 851.17 147.711 851.17 145.21C851.17 142.709 849.142 140.681 846.641 140.681Z" fill="#E1EAF1"/>
<path d="M828.528 140.681C826.027 140.681 824 142.709 824 145.21C824 147.711 826.027 149.738 828.528 149.738C831.029 149.738 833.057 147.711 833.057 145.21C833.057 142.709 831.029 140.681 828.528 140.681Z" fill="#E1EAF1"/>
<path d="M991.552 122.568C989.051 122.568 987.023 124.596 987.023 127.097C987.023 129.598 989.051 131.625 991.552 131.625C994.053 131.625 996.08 129.598 996.08 127.097C996.08 124.596 994.053 122.568 991.552 122.568Z" fill="#E1EAF1"/>
<path d="M973.439 122.568C970.938 122.568 968.911 124.596 968.911 127.097C968.911 129.598 970.938 131.625 973.439 131.625C975.94 131.625 977.968 129.598 977.968 127.097C977.968 124.596 975.94 122.568 973.439 122.568Z" fill="#E1EAF1"/>
<path d="M955.325 122.568C952.824 122.568 950.797 124.596 950.797 127.097C950.797 129.598 952.824 131.625 955.325 131.625C957.826 131.625 959.854 129.598 959.854 127.097C959.854 124.596 957.826 122.568 955.325 122.568Z" fill="#E1EAF1"/>
<path d="M937.212 122.568C934.711 122.568 932.683 124.596 932.683 127.097C932.683 129.598 934.711 131.625 937.212 131.625C939.713 131.625 941.74 129.598 941.74 127.097C941.74 124.596 939.713 122.568 937.212 122.568Z" fill="#E1EAF1"/>
<path d="M919.099 122.568C916.598 122.568 914.57 124.596 914.57 127.097C914.57 129.598 916.598 131.625 919.099 131.625C921.6 131.625 923.627 129.598 923.627 127.097C923.627 124.596 921.6 122.568 919.099 122.568Z" fill="#E1EAF1"/>
<path d="M900.981 122.568C898.48 122.568 896.453 124.596 896.453 127.097C896.453 129.598 898.48 131.625 900.981 131.625C903.482 131.625 905.51 129.598 905.51 127.097C905.51 124.596 903.482 122.568 900.981 122.568Z" fill="#E1EAF1"/>
<path d="M882.868 122.568C880.367 122.568 878.34 124.596 878.34 127.097C878.34 129.598 880.367 131.625 882.868 131.625C885.369 131.625 887.396 129.598 887.396 127.097C887.396 124.596 885.369 122.568 882.868 122.568Z" fill="#E1EAF1"/>
<path d="M864.755 122.568C862.254 122.568 860.226 124.596 860.226 127.097C860.226 129.598 862.254 131.625 864.755 131.625C867.256 131.625 869.283 129.598 869.283 127.097C869.283 124.596 867.256 122.568 864.755 122.568Z" fill="#E1EAF1"/>
<path d="M846.641 122.568C844.141 122.568 842.113 124.596 842.113 127.097C842.113 129.598 844.141 131.625 846.641 131.625C849.142 131.625 851.17 129.598 851.17 127.097C851.17 124.596 849.142 122.568 846.641 122.568Z" fill="#E1EAF1"/>
<path d="M828.528 122.568C826.027 122.568 824 124.596 824 127.097C824 129.598 826.027 131.625 828.528 131.625C831.029 131.625 833.057 129.598 833.057 127.097C833.057 124.596 831.029 122.568 828.528 122.568Z" fill="#E1EAF1"/>
<path d="M991.552 104.455C989.051 104.455 987.023 106.482 987.023 108.983C987.023 111.484 989.051 113.512 991.552 113.512C994.053 113.512 996.08 111.484 996.08 108.983C996.08 106.482 994.053 104.455 991.552 104.455Z" fill="#E1EAF1"/>
<path d="M973.439 104.455C970.938 104.455 968.911 106.482 968.911 108.983C968.911 111.484 970.938 113.512 973.439 113.512C975.94 113.512 977.968 111.484 977.968 108.983C977.968 106.482 975.94 104.455 973.439 104.455Z" fill="#E1EAF1"/>
<path d="M955.325 104.455C952.824 104.455 950.797 106.482 950.797 108.983C950.797 111.484 952.824 113.512 955.325 113.512C957.826 113.512 959.854 111.484 959.854 108.983C959.854 106.482 957.826 104.455 955.325 104.455Z" fill="#E1EAF1"/>
<path d="M937.212 104.455C934.711 104.455 932.683 106.482 932.683 108.983C932.683 111.484 934.711 113.512 937.212 113.512C939.713 113.512 941.74 111.484 941.74 108.983C941.74 106.482 939.713 104.455 937.212 104.455Z" fill="#E1EAF1"/>
<path d="M919.099 104.455C916.598 104.455 914.57 106.482 914.57 108.983C914.57 111.484 916.598 113.512 919.099 113.512C921.6 113.512 923.627 111.484 923.627 108.983C923.627 106.482 921.6 104.455 919.099 104.455Z" fill="#E1EAF1"/>
<path d="M900.981 104.455C898.48 104.455 896.453 106.482 896.453 108.983C896.453 111.484 898.48 113.512 900.981 113.512C903.482 113.512 905.51 111.484 905.51 108.983C905.51 106.482 903.482 104.455 900.981 104.455Z" fill="#E1EAF1"/>
<path d="M882.868 104.455C880.367 104.455 878.34 106.482 878.34 108.983C878.34 111.484 880.367 113.512 882.868 113.512C885.369 113.512 887.396 111.484 887.396 108.983C887.396 106.482 885.369 104.455 882.868 104.455Z" fill="#E1EAF1"/>
<path d="M864.755 104.455C862.254 104.455 860.226 106.482 860.226 108.983C860.226 111.484 862.254 113.512 864.755 113.512C867.256 113.512 869.283 111.484 869.283 108.983C869.283 106.482 867.256 104.455 864.755 104.455Z" fill="#E1EAF1"/>
<path d="M846.641 104.455C844.141 104.455 842.113 106.482 842.113 108.983C842.113 111.484 844.141 113.512 846.641 113.512C849.142 113.512 851.17 111.484 851.17 108.983C851.17 106.482 849.142 104.455 846.641 104.455Z" fill="#E1EAF1"/>
<path d="M828.528 104.455C826.027 104.455 824 106.482 824 108.983C824 111.484 826.027 113.512 828.528 113.512C831.029 113.512 833.057 111.484 833.057 108.983C833.057 106.482 831.029 104.455 828.528 104.455Z" fill="#E1EAF1"/>
<path d="M991.552 86.3416C989.051 86.3416 987.023 88.369 987.023 90.87C987.023 93.371 989.051 95.3984 991.552 95.3984C994.053 95.3984 996.08 93.371 996.08 90.87C996.08 88.369 994.053 86.3416 991.552 86.3416Z" fill="#E1EAF1"/>
<path d="M973.439 86.3416C970.938 86.3416 968.911 88.369 968.911 90.87C968.911 93.371 970.938 95.3984 973.439 95.3984C975.94 95.3984 977.968 93.371 977.968 90.87C977.968 88.369 975.94 86.3416 973.439 86.3416Z" fill="#E1EAF1"/>
<path d="M955.325 86.3416C952.824 86.3416 950.797 88.369 950.797 90.87C950.797 93.371 952.824 95.3984 955.325 95.3984C957.826 95.3984 959.854 93.371 959.854 90.87C959.854 88.369 957.826 86.3416 955.325 86.3416Z" fill="#E1EAF1"/>
<path d="M937.212 86.3416C934.711 86.3416 932.683 88.369 932.683 90.87C932.683 93.371 934.711 95.3984 937.212 95.3984C939.713 95.3984 941.74 93.371 941.74 90.87C941.74 88.369 939.713 86.3416 937.212 86.3416Z" fill="#E1EAF1"/>
<path d="M919.099 86.3416C916.598 86.3416 914.57 88.369 914.57 90.87C914.57 93.371 916.598 95.3984 919.099 95.3984C921.6 95.3984 923.627 93.371 923.627 90.87C923.627 88.369 921.6 86.3416 919.099 86.3416Z" fill="#E1EAF1"/>
<path d="M900.981 86.3416C898.48 86.3416 896.453 88.369 896.453 90.87C896.453 93.371 898.48 95.3984 900.981 95.3984C903.482 95.3984 905.51 93.371 905.51 90.87C905.51 88.369 903.482 86.3416 900.981 86.3416Z" fill="#E1EAF1"/>
<path d="M882.868 86.3416C880.367 86.3416 878.34 88.369 878.34 90.87C878.34 93.371 880.367 95.3984 882.868 95.3984C885.369 95.3984 887.396 93.371 887.396 90.87C887.396 88.369 885.369 86.3416 882.868 86.3416Z" fill="#E1EAF1"/>
<path d="M864.755 86.3416C862.254 86.3416 860.226 88.369 860.226 90.87C860.226 93.371 862.254 95.3984 864.755 95.3984C867.256 95.3984 869.283 93.371 869.283 90.87C869.283 88.369 867.256 86.3416 864.755 86.3416Z" fill="#E1EAF1"/>
<path d="M846.641 86.3416C844.141 86.3416 842.113 88.369 842.113 90.87C842.113 93.371 844.141 95.3984 846.641 95.3984C849.142 95.3984 851.17 93.371 851.17 90.87C851.17 88.369 849.142 86.3416 846.641 86.3416Z" fill="#E1EAF1"/>
<path d="M828.528 86.3416C826.027 86.3416 824 88.369 824 90.87C824 93.371 826.027 95.3984 828.528 95.3984C831.029 95.3984 833.057 93.371 833.057 90.87C833.057 88.369 831.029 86.3416 828.528 86.3416Z" fill="#E1EAF1"/>
<path d="M991.552 68.2263C989.051 68.2263 987.023 70.2538 987.023 72.7548C987.023 75.2558 989.051 77.2832 991.552 77.2832C994.053 77.2832 996.08 75.2558 996.08 72.7548C996.08 70.2538 994.053 68.2263 991.552 68.2263Z" fill="#E1EAF1"/>
<path d="M973.439 68.2263C970.938 68.2263 968.911 70.2538 968.911 72.7548C968.911 75.2558 970.938 77.2832 973.439 77.2832C975.94 77.2832 977.968 75.2558 977.968 72.7548C977.968 70.2538 975.94 68.2263 973.439 68.2263Z" fill="#E1EAF1"/>
<path d="M955.325 68.2263C952.824 68.2263 950.797 70.2538 950.797 72.7548C950.797 75.2558 952.824 77.2832 955.325 77.2832C957.826 77.2832 959.854 75.2558 959.854 72.7548C959.854 70.2538 957.826 68.2263 955.325 68.2263Z" fill="#E1EAF1"/>
<path d="M937.212 68.2263C934.711 68.2263 932.683 70.2538 932.683 72.7548C932.683 75.2558 934.711 77.2832 937.212 77.2832C939.713 77.2832 941.74 75.2558 941.74 72.7548C941.74 70.2538 939.713 68.2263 937.212 68.2263Z" fill="#E1EAF1"/>
<path d="M919.099 68.2263C916.598 68.2263 914.57 70.2538 914.57 72.7548C914.57 75.2558 916.598 77.2832 919.099 77.2832C921.6 77.2832 923.627 75.2558 923.627 72.7548C923.627 70.2538 921.6 68.2263 919.099 68.2263Z" fill="#E1EAF1"/>
<path d="M900.981 68.2263C898.48 68.2263 896.453 70.2538 896.453 72.7548C896.453 75.2558 898.48 77.2832 900.981 77.2832C903.482 77.2832 905.51 75.2558 905.51 72.7548C905.51 70.2538 903.482 68.2263 900.981 68.2263Z" fill="#E1EAF1"/>
<path d="M882.868 68.2263C880.367 68.2263 878.34 70.2538 878.34 72.7548C878.34 75.2558 880.367 77.2832 882.868 77.2832C885.369 77.2832 887.396 75.2558 887.396 72.7548C887.396 70.2538 885.369 68.2263 882.868 68.2263Z" fill="#E1EAF1"/>
<path d="M864.755 68.2263C862.254 68.2263 860.226 70.2538 860.226 72.7548C860.226 75.2558 862.254 77.2832 864.755 77.2832C867.256 77.2832 869.283 75.2558 869.283 72.7548C869.283 70.2538 867.256 68.2263 864.755 68.2263Z" fill="#E1EAF1"/>
<path d="M846.641 68.2263C844.141 68.2263 842.113 70.2538 842.113 72.7548C842.113 75.2558 844.141 77.2832 846.641 77.2832C849.142 77.2832 851.17 75.2558 851.17 72.7548C851.17 70.2538 849.142 68.2263 846.641 68.2263Z" fill="#E1EAF1"/>
<path d="M828.528 68.2263C826.027 68.2263 824 70.2538 824 72.7548C824 75.2558 826.027 77.2832 828.528 77.2832C831.029 77.2832 833.057 75.2558 833.057 72.7548C833.057 70.2538 831.029 68.2263 828.528 68.2263Z" fill="#E1EAF1"/>
<path d="M991.552 50.1131C989.051 50.1131 987.023 52.1405 987.023 54.6415C987.023 57.1425 989.051 59.1699 991.552 59.1699C994.053 59.1699 996.08 57.1425 996.08 54.6415C996.08 52.1405 994.053 50.1131 991.552 50.1131Z" fill="#E1EAF1"/>
<path d="M973.439 50.1131C970.938 50.1131 968.911 52.1405 968.911 54.6415C968.911 57.1425 970.938 59.1699 973.439 59.1699C975.94 59.1699 977.968 57.1425 977.968 54.6415C977.968 52.1405 975.94 50.1131 973.439 50.1131Z" fill="#E1EAF1"/>
<path d="M955.325 50.1131C952.824 50.1131 950.797 52.1405 950.797 54.6415C950.797 57.1425 952.824 59.1699 955.325 59.1699C957.826 59.1699 959.854 57.1425 959.854 54.6415C959.854 52.1405 957.826 50.1131 955.325 50.1131Z" fill="#E1EAF1"/>
<path d="M937.212 50.1131C934.711 50.1131 932.683 52.1405 932.683 54.6415C932.683 57.1425 934.711 59.1699 937.212 59.1699C939.713 59.1699 941.74 57.1425 941.74 54.6415C941.74 52.1405 939.713 50.1131 937.212 50.1131Z" fill="#E1EAF1"/>
<path d="M919.099 50.1131C916.598 50.1131 914.57 52.1405 914.57 54.6415C914.57 57.1425 916.598 59.1699 919.099 59.1699C921.6 59.1699 923.627 57.1425 923.627 54.6415C923.627 52.1405 921.6 50.1131 919.099 50.1131Z" fill="#E1EAF1"/>
<path d="M900.981 50.1131C898.48 50.1131 896.453 52.1405 896.453 54.6415C896.453 57.1425 898.48 59.1699 900.981 59.1699C903.482 59.1699 905.51 57.1425 905.51 54.6415C905.51 52.1405 903.482 50.1131 900.981 50.1131Z" fill="#E1EAF1"/>
<path d="M882.868 50.1131C880.367 50.1131 878.34 52.1405 878.34 54.6415C878.34 57.1425 880.367 59.1699 882.868 59.1699C885.369 59.1699 887.396 57.1425 887.396 54.6415C887.396 52.1405 885.369 50.1131 882.868 50.1131Z" fill="#E1EAF1"/>
<path d="M864.755 50.1131C862.254 50.1131 860.226 52.1405 860.226 54.6415C860.226 57.1425 862.254 59.1699 864.755 59.1699C867.256 59.1699 869.283 57.1425 869.283 54.6415C869.283 52.1405 867.256 50.1131 864.755 50.1131Z" fill="#E1EAF1"/>
<path d="M846.641 50.1131C844.141 50.1131 842.113 52.1405 842.113 54.6415C842.113 57.1425 844.141 59.1699 846.641 59.1699C849.142 59.1699 851.17 57.1425 851.17 54.6415C851.17 52.1405 849.142 50.1131 846.641 50.1131Z" fill="#E1EAF1"/>
<path d="M828.528 50.1131C826.027 50.1131 824 52.1405 824 54.6415C824 57.1425 826.027 59.1699 828.528 59.1699C831.029 59.1699 833.057 57.1425 833.057 54.6415C833.057 52.1405 831.029 50.1131 828.528 50.1131Z" fill="#E1EAF1"/>
<path d="M991.552 31.9998C989.051 31.9998 987.023 34.0272 987.023 36.5282C987.023 39.0292 989.051 41.0566 991.552 41.0566C994.053 41.0566 996.08 39.0292 996.08 36.5282C996.08 34.0272 994.053 31.9998 991.552 31.9998Z" fill="#E1EAF1"/>
<path d="M973.439 31.9998C970.938 31.9998 968.911 34.0272 968.911 36.5282C968.911 39.0292 970.938 41.0566 973.439 41.0566C975.94 41.0566 977.968 39.0292 977.968 36.5282C977.968 34.0272 975.94 31.9998 973.439 31.9998Z" fill="#E1EAF1"/>
<path d="M955.325 31.9998C952.824 31.9998 950.797 34.0272 950.797 36.5282C950.797 39.0292 952.824 41.0566 955.325 41.0566C957.826 41.0566 959.854 39.0292 959.854 36.5282C959.854 34.0272 957.826 31.9998 955.325 31.9998Z" fill="#E1EAF1"/>
<path d="M937.212 31.9998C934.711 31.9998 932.683 34.0272 932.683 36.5282C932.683 39.0292 934.711 41.0566 937.212 41.0566C939.713 41.0566 941.74 39.0292 941.74 36.5282C941.74 34.0272 939.713 31.9998 937.212 31.9998Z" fill="#E1EAF1"/>
<path d="M919.099 31.9998C916.598 31.9998 914.57 34.0272 914.57 36.5282C914.57 39.0292 916.598 41.0566 919.099 41.0566C921.6 41.0566 923.627 39.0292 923.627 36.5282C923.627 34.0272 921.6 31.9998 919.099 31.9998Z" fill="#E1EAF1"/>
<path d="M900.981 31.9998C898.48 31.9998 896.453 34.0272 896.453 36.5282C896.453 39.0292 898.48 41.0566 900.981 41.0566C903.482 41.0566 905.51 39.0292 905.51 36.5282C905.51 34.0272 903.482 31.9998 900.981 31.9998Z" fill="#E1EAF1"/>
<path d="M882.868 31.9998C880.367 31.9998 878.34 34.0272 878.34 36.5282C878.34 39.0292 880.367 41.0566 882.868 41.0566C885.369 41.0566 887.396 39.0292 887.396 36.5282C887.396 34.0272 885.369 31.9998 882.868 31.9998Z" fill="#E1EAF1"/>
<path d="M864.755 31.9998C862.254 31.9998 860.226 34.0272 860.226 36.5282C860.226 39.0292 862.254 41.0566 864.755 41.0566C867.256 41.0566 869.283 39.0292 869.283 36.5282C869.283 34.0272 867.256 31.9998 864.755 31.9998Z" fill="#E1EAF1"/>
<path d="M846.641 31.9998C844.141 31.9998 842.113 34.0272 842.113 36.5282C842.113 39.0292 844.141 41.0566 846.641 41.0566C849.142 41.0566 851.17 39.0292 851.17 36.5282C851.17 34.0272 849.142 31.9998 846.641 31.9998Z" fill="#E1EAF1"/>
<path d="M828.528 31.9998C826.027 31.9998 824 34.0272 824 36.5282C824 39.0292 826.027 41.0566 828.528 41.0566C831.029 41.0566 833.057 39.0292 833.057 36.5282C833.057 34.0272 831.029 31.9998 828.528 31.9998Z" fill="#E1EAF1"/>
</g>
<g clip-path="url(#clip1_192_2129)">
<path d="M516.538 231.748C515.089 233.169 515.103 235.485 516.568 236.922C518.032 238.359 520.394 238.372 521.843 236.951C523.292 235.531 523.278 233.214 521.813 231.777C520.348 230.341 517.986 230.328 516.538 231.748Z" fill="#D5435D" fill-opacity="0.6"/>
<path d="M506.047 242.037C504.598 243.458 504.611 245.775 506.076 247.211C507.541 248.648 509.903 248.661 511.352 247.24C512.8 245.82 512.787 243.503 511.322 242.066C509.857 240.63 507.495 240.617 506.047 242.037Z" fill="#D5435D" fill-opacity="0.6"/>
<path d="M495.555 252.327C494.107 253.748 494.12 256.065 495.585 257.501C497.05 258.938 499.412 258.951 500.861 257.53C502.309 256.11 502.296 253.793 500.831 252.357C499.366 250.92 497.004 250.907 495.555 252.327Z" fill="#D5435D" fill-opacity="0.6"/>
<path d="M485.064 262.616C483.616 264.037 483.629 266.354 485.094 267.79C486.559 269.227 488.921 269.24 490.369 267.819C491.818 266.399 491.805 264.082 490.34 262.646C488.875 261.209 486.513 261.196 485.064 262.616Z" fill="#D5435D" fill-opacity="0.6"/>
<path d="M474.573 272.906C473.124 274.326 473.138 276.643 474.603 278.079C476.068 279.516 478.43 279.529 479.878 278.109C481.327 276.688 481.313 274.371 479.848 272.935C478.383 271.498 476.022 271.485 474.573 272.906Z" fill="#D5435D" fill-opacity="0.6"/>
<path d="M464.08 283.198C462.631 284.618 462.645 286.935 464.11 288.371C465.574 289.808 467.936 289.821 469.385 288.401C470.834 286.98 470.82 284.663 469.355 283.227C467.89 281.79 465.528 281.777 464.08 283.198Z" fill="#D5435D" fill-opacity="0.6"/>
<path d="M453.589 293.487C452.14 294.907 452.153 297.224 453.618 298.66C455.083 300.097 457.445 300.11 458.894 298.69C460.342 297.269 460.329 294.952 458.864 293.516C457.399 292.079 455.037 292.066 453.589 293.487Z" fill="#D5435D" fill-opacity="0.6"/>
<path d="M443.097 303.776C441.649 305.196 441.662 307.513 443.127 308.95C444.592 310.386 446.954 310.399 448.403 308.979C449.851 307.558 449.838 305.242 448.373 303.805C446.908 302.368 444.546 302.355 443.097 303.776Z" fill="#D5435D" fill-opacity="0.6"/>
<path d="M432.605 314.066C431.157 315.486 431.17 317.803 432.635 319.24C434.1 320.676 436.462 320.689 437.91 319.269C439.359 317.848 439.346 315.532 437.881 314.095C436.416 312.658 434.054 312.645 432.605 314.066Z" fill="#D5435D" fill-opacity="0.6"/>
<path d="M422.114 324.354C420.665 325.774 420.679 328.091 422.144 329.528C423.609 330.964 425.971 330.977 427.419 329.557C428.868 328.136 428.854 325.82 427.389 324.383C425.924 322.946 423.563 322.933 422.114 324.354Z" fill="#D5435D" fill-opacity="0.6"/>
<path d="M505.928 221.343C504.48 222.764 504.493 225.08 505.958 226.517C507.423 227.954 509.785 227.967 511.234 226.546C512.682 225.125 512.669 222.809 511.204 221.372C509.739 219.935 507.377 219.922 505.928 221.343Z" fill="#D5435D" fill-opacity="0.6"/>
<path d="M495.437 231.632C493.989 233.053 494.002 235.369 495.467 236.806C496.932 238.243 499.294 238.256 500.742 236.835C502.191 235.414 502.178 233.098 500.713 231.661C499.248 230.224 496.886 230.211 495.437 231.632Z" fill="#D5435D" fill-opacity="0.6"/>
<path d="M484.945 241.921C483.497 243.342 483.51 245.658 484.975 247.095C486.44 248.532 488.802 248.545 490.25 247.124C491.699 245.703 491.685 243.387 490.221 241.95C488.756 240.513 486.394 240.5 484.945 241.921Z" fill="#D5435D" fill-opacity="0.6"/>
<path d="M474.454 252.211C473.005 253.632 473.019 255.948 474.484 257.385C475.948 258.822 478.31 258.835 479.759 257.414C481.208 255.993 481.194 253.677 479.729 252.24C478.264 250.804 475.902 250.791 474.454 252.211Z" fill="#D5435D" fill-opacity="0.6"/>
<path d="M463.963 262.5C462.514 263.921 462.527 266.237 463.992 267.674C465.457 269.111 467.819 269.124 469.268 267.703C470.716 266.283 470.703 263.966 469.238 262.529C467.773 261.093 465.411 261.08 463.963 262.5Z" fill="#D5435D" fill-opacity="0.6"/>
<path d="M453.469 272.791C452.021 274.212 452.034 276.528 453.499 277.965C454.964 279.402 457.326 279.415 458.775 277.994C460.223 276.574 460.21 274.257 458.745 272.82C457.28 271.384 454.918 271.371 453.469 272.791Z" fill="#D5435D" fill-opacity="0.6"/>
<path d="M442.978 283.081C441.53 284.502 441.543 286.818 443.008 288.255C444.473 289.692 446.835 289.705 448.283 288.284C449.732 286.864 449.719 284.547 448.254 283.11C446.789 281.674 444.427 281.661 442.978 283.081Z" fill="#D5435D" fill-opacity="0.6"/>
<path d="M432.487 293.37C431.038 294.791 431.052 297.108 432.517 298.544C433.982 299.981 436.344 299.994 437.792 298.573C439.241 297.153 439.227 294.836 437.762 293.399C436.298 291.963 433.936 291.95 432.487 293.37Z" fill="#D5435D" fill-opacity="0.6"/>
<path d="M421.996 303.659C420.547 305.08 420.561 307.397 422.026 308.833C423.49 310.27 425.852 310.283 427.301 308.862C428.75 307.442 428.736 305.125 427.271 303.689C425.806 302.252 423.444 302.239 421.996 303.659Z" fill="#D5435D" fill-opacity="0.6"/>
<path d="M411.505 313.949C410.056 315.369 410.069 317.686 411.534 319.122C412.999 320.559 415.361 320.572 416.81 319.151C418.258 317.731 418.245 315.414 416.78 313.978C415.315 312.541 412.953 312.528 411.505 313.949Z" fill="#D5435D" fill-opacity="0.6"/>
<path d="M495.318 210.937C493.87 212.357 493.883 214.674 495.348 216.111C496.813 217.547 499.175 217.56 500.623 216.14C502.072 214.719 502.059 212.403 500.594 210.966C499.129 209.529 496.767 209.516 495.318 210.937Z" fill="#D5435D" fill-opacity="0.6"/>
<path d="M484.827 221.226C483.378 222.647 483.392 224.963 484.857 226.4C486.322 227.837 488.683 227.85 490.132 226.429C491.581 225.008 491.567 222.692 490.102 221.255C488.637 219.818 486.275 219.805 484.827 221.226Z" fill="#D5435D" fill-opacity="0.6"/>
<path d="M474.336 231.516C472.887 232.937 472.9 235.253 474.365 236.69C475.83 238.127 478.192 238.14 479.641 236.719C481.089 235.298 481.076 232.982 479.611 231.545C478.146 230.108 475.784 230.095 474.336 231.516Z" fill="#D5435D" fill-opacity="0.6"/>
<path d="M463.844 241.805C462.396 243.226 462.409 245.542 463.874 246.979C465.339 248.416 467.701 248.429 469.15 247.008C470.598 245.587 470.585 243.271 469.12 241.834C467.655 240.397 465.293 240.384 463.844 241.805Z" fill="#D5435D" fill-opacity="0.6"/>
<path d="M453.353 252.094C451.905 253.515 451.918 255.831 453.383 257.268C454.848 258.705 457.21 258.718 458.658 257.297C460.107 255.876 460.094 253.56 458.629 252.123C457.164 250.686 454.802 250.673 453.353 252.094Z" fill="#D5435D" fill-opacity="0.6"/>
<path d="M442.859 262.386C441.411 263.807 441.424 266.123 442.889 267.56C444.354 268.997 446.716 269.01 448.164 267.589C449.613 266.168 449.6 263.852 448.135 262.415C446.67 260.978 444.308 260.965 442.859 262.386Z" fill="#D5435D" fill-opacity="0.6"/>
<path d="M432.368 272.675C430.919 274.096 430.933 276.412 432.398 277.849C433.863 279.286 436.224 279.299 437.673 277.878C439.122 276.457 439.108 274.141 437.643 272.704C436.178 271.267 433.817 271.254 432.368 272.675Z" fill="#D5435D" fill-opacity="0.6"/>
<path d="M421.877 282.964C420.428 284.385 420.441 286.701 421.906 288.138C423.371 289.575 425.733 289.588 427.182 288.167C428.63 286.746 428.617 284.43 427.152 282.993C425.687 281.556 423.325 281.543 421.877 282.964Z" fill="#D5435D" fill-opacity="0.6"/>
<path d="M411.386 293.254C409.937 294.675 409.95 296.991 411.415 298.428C412.88 299.865 415.242 299.878 416.691 298.457C418.139 297.036 418.126 294.72 416.661 293.283C415.196 291.847 412.834 291.833 411.386 293.254Z" fill="#D5435D" fill-opacity="0.6"/>
<path d="M400.894 303.543C399.446 304.964 399.459 307.28 400.924 308.717C402.389 310.154 404.751 310.167 406.199 308.746C407.648 307.326 407.635 305.009 406.17 303.572C404.705 302.136 402.343 302.123 400.894 303.543Z" fill="#D5435D" fill-opacity="0.6"/>
<path d="M484.707 200.531C483.258 201.951 483.272 204.268 484.736 205.704C486.201 207.141 488.563 207.154 490.012 205.734C491.46 204.313 491.447 201.996 489.982 200.56C488.517 199.123 486.155 199.11 484.707 200.531Z" fill="#D5435D" fill-opacity="0.6"/>
<path d="M474.217 210.82C472.768 212.24 472.781 214.557 474.246 215.993C475.711 217.43 478.073 217.443 479.522 216.023C480.97 214.602 480.957 212.285 479.492 210.849C478.027 209.412 475.665 209.399 474.217 210.82Z" fill="#D5435D" fill-opacity="0.6"/>
<path d="M463.724 221.109C462.276 222.529 462.289 224.846 463.754 226.283C465.219 227.719 467.581 227.732 469.029 226.312C470.478 224.891 470.465 222.575 469 221.138C467.535 219.701 465.173 219.688 463.724 221.109Z" fill="#D5435D" fill-opacity="0.6"/>
<path d="M453.233 231.399C451.785 232.819 451.798 235.136 453.263 236.573C454.728 238.009 457.09 238.022 458.538 236.602C459.987 235.181 459.974 232.865 458.509 231.428C457.044 229.991 454.682 229.978 453.233 231.399Z" fill="#D5435D" fill-opacity="0.6"/>
<path d="M442.742 241.688C441.293 243.108 441.307 245.425 442.772 246.862C444.237 248.298 446.598 248.311 448.047 246.891C449.496 245.47 449.482 243.154 448.017 241.717C446.552 240.28 444.191 240.267 442.742 241.688Z" fill="#D5435D" fill-opacity="0.6"/>
<path d="M432.249 251.979C430.8 253.399 430.813 255.716 432.278 257.153C433.743 258.589 436.105 258.602 437.554 257.182C439.002 255.761 438.989 253.445 437.524 252.008C436.059 250.571 433.697 250.558 432.249 251.979Z" fill="#D5435D" fill-opacity="0.6"/>
<path d="M421.758 262.269C420.309 263.69 420.322 266.006 421.787 267.443C423.252 268.879 425.614 268.893 427.063 267.472C428.511 266.051 428.498 263.735 427.033 262.298C425.568 260.861 423.206 260.848 421.758 262.269Z" fill="#D5435D" fill-opacity="0.6"/>
<path d="M411.266 272.558C409.818 273.979 409.831 276.295 411.296 277.732C412.761 279.169 415.123 279.182 416.571 277.761C418.02 276.34 418.007 274.024 416.542 272.587C415.077 271.15 412.715 271.137 411.266 272.558Z" fill="#D5435D" fill-opacity="0.6"/>
<path d="M400.775 282.847C399.327 284.268 399.34 286.584 400.805 288.021C402.27 289.458 404.632 289.471 406.08 288.05C407.529 286.629 407.516 284.313 406.051 282.876C404.586 281.439 402.224 281.426 400.775 282.847Z" fill="#D5435D" fill-opacity="0.6"/>
<path d="M390.284 293.136C388.835 294.557 388.849 296.873 390.314 298.31C391.779 299.747 394.14 299.76 395.589 298.339C397.038 296.918 397.024 294.602 395.559 293.165C394.094 291.728 391.733 291.715 390.284 293.136Z" fill="#D5435D" fill-opacity="0.6"/>
<path d="M474.097 190.124C472.649 191.545 472.662 193.861 474.127 195.298C475.592 196.735 477.954 196.748 479.403 195.327C480.851 193.907 480.838 191.59 479.373 190.153C477.908 188.717 475.546 188.704 474.097 190.124Z" fill="#D5435D" fill-opacity="0.6"/>
<path d="M463.606 200.413C462.158 201.834 462.171 204.15 463.636 205.587C465.101 207.024 467.463 207.037 468.911 205.616C470.36 204.196 470.347 201.879 468.882 200.442C467.417 199.006 465.055 198.993 463.606 200.413Z" fill="#D5435D" fill-opacity="0.6"/>
<path d="M453.114 210.703C451.665 212.124 451.679 214.441 453.144 215.877C454.609 217.314 456.971 217.327 458.419 215.906C459.868 214.486 459.854 212.169 458.389 210.732C456.924 209.296 454.563 209.283 453.114 210.703Z" fill="#D5435D" fill-opacity="0.6"/>
<path d="M442.624 220.992C441.175 222.413 441.188 224.73 442.653 226.166C444.118 227.603 446.48 227.616 447.929 226.195C449.377 224.775 449.364 222.458 447.899 221.022C446.434 219.585 444.072 219.572 442.624 220.992Z" fill="#D5435D" fill-opacity="0.6"/>
<path d="M432.133 231.282C430.684 232.702 430.697 235.019 432.162 236.455C433.627 237.892 435.989 237.905 437.438 236.485C438.886 235.064 438.873 232.747 437.408 231.311C435.943 229.874 433.581 229.861 432.133 231.282Z" fill="#D5435D" fill-opacity="0.6"/>
<path d="M421.638 241.574C420.19 242.994 420.203 245.311 421.668 246.747C423.133 248.184 425.495 248.197 426.944 246.776C428.392 245.356 428.379 243.039 426.914 241.603C425.449 240.166 423.087 240.153 421.638 241.574Z" fill="#D5435D" fill-opacity="0.6"/>
<path d="M411.147 251.863C409.699 253.283 409.712 255.6 411.177 257.036C412.642 258.473 415.004 258.486 416.452 257.066C417.901 255.645 417.888 253.328 416.423 251.892C414.958 250.455 412.596 250.442 411.147 251.863Z" fill="#D5435D" fill-opacity="0.6"/>
<path d="M400.656 262.152C399.207 263.572 399.221 265.889 400.686 267.326C402.151 268.762 404.513 268.775 405.961 267.355C407.41 265.934 407.396 263.617 405.931 262.181C404.466 260.744 402.105 260.731 400.656 262.152Z" fill="#D5435D" fill-opacity="0.6"/>
<path d="M390.165 272.442C388.716 273.862 388.73 276.179 390.194 277.616C391.659 279.052 394.021 279.065 395.47 277.645C396.918 276.224 396.905 273.908 395.44 272.471C393.975 271.034 391.613 271.021 390.165 272.442Z" fill="#D5435D" fill-opacity="0.6"/>
<path d="M379.674 282.731C378.225 284.151 378.238 286.468 379.703 287.905C381.168 289.341 383.53 289.354 384.979 287.934C386.427 286.513 386.414 284.197 384.949 282.76C383.484 281.323 381.122 281.31 379.674 282.731Z" fill="#D5435D" fill-opacity="0.6"/>
<path d="M463.487 179.719C462.038 181.14 462.052 183.456 463.517 184.893C464.982 186.33 467.344 186.343 468.792 184.922C470.241 183.501 470.227 181.185 468.762 179.748C467.298 178.311 464.936 178.298 463.487 179.719Z" fill="#D5435D" fill-opacity="0.6"/>
<path d="M452.996 190.008C451.547 191.429 451.561 193.745 453.026 195.182C454.49 196.619 456.852 196.632 458.301 195.211C459.75 193.79 459.736 191.474 458.271 190.037C456.806 188.6 454.444 188.587 452.996 190.008Z" fill="#D5435D" fill-opacity="0.6"/>
<path d="M442.505 200.297C441.056 201.718 441.069 204.034 442.534 205.471C443.999 206.908 446.361 206.921 447.81 205.5C449.258 204.079 449.245 201.763 447.78 200.326C446.315 198.889 443.953 198.876 442.505 200.297Z" fill="#D5435D" fill-opacity="0.6"/>
<path d="M432.013 210.587C430.565 212.008 430.578 214.324 432.043 215.761C433.508 217.198 435.87 217.211 437.319 215.79C438.767 214.369 438.754 212.053 437.289 210.616C435.824 209.18 433.462 209.166 432.013 210.587Z" fill="#D5435D" fill-opacity="0.6"/>
<path d="M421.522 220.876C420.074 222.297 420.087 224.613 421.552 226.05C423.017 227.487 425.379 227.5 426.827 226.079C428.276 224.659 428.263 222.342 426.798 220.905C425.333 219.469 422.971 219.456 421.522 220.876Z" fill="#D5435D" fill-opacity="0.6"/>
<path d="M411.029 231.167C409.58 232.588 409.594 234.904 411.059 236.341C412.524 237.778 414.886 237.791 416.334 236.37C417.783 234.95 417.769 232.633 416.304 231.196C414.84 229.76 412.478 229.747 411.029 231.167Z" fill="#D5435D" fill-opacity="0.6"/>
<path d="M400.538 241.457C399.089 242.878 399.103 245.194 400.568 246.631C402.032 248.068 404.394 248.081 405.843 246.66C407.292 245.24 407.278 242.923 405.813 241.486C404.348 240.05 401.986 240.037 400.538 241.457Z" fill="#D5435D" fill-opacity="0.6"/>
<path d="M390.047 251.746C388.598 253.167 388.611 255.483 390.076 256.92C391.541 258.357 393.903 258.37 395.352 256.949C396.8 255.529 396.787 253.212 395.322 251.775C393.857 250.339 391.495 250.326 390.047 251.746Z" fill="#D5435D" fill-opacity="0.6"/>
<path d="M379.554 262.035C378.106 263.456 378.119 265.773 379.584 267.209C381.049 268.646 383.411 268.659 384.86 267.238C386.308 265.818 386.295 263.501 384.83 262.065C383.365 260.628 381.003 260.615 379.554 262.035Z" fill="#D5435D" fill-opacity="0.6"/>
<path d="M369.063 272.324C367.615 273.745 367.628 276.062 369.093 277.498C370.558 278.935 372.92 278.948 374.368 277.527C375.817 276.107 375.804 273.79 374.339 272.354C372.874 270.917 370.512 270.904 369.063 272.324Z" fill="#D5435D" fill-opacity="0.6"/>
<path d="M452.878 169.313C451.429 170.733 451.442 173.05 452.907 174.487C454.372 175.923 456.734 175.936 458.183 174.516C459.631 173.095 459.618 170.779 458.153 169.342C456.688 167.905 454.326 167.892 452.878 169.313Z" fill="#D5435D" fill-opacity="0.6"/>
<path d="M442.386 179.602C440.938 181.023 440.951 183.339 442.416 184.776C443.881 186.212 446.243 186.226 447.692 184.805C449.14 183.384 449.127 181.068 447.662 179.631C446.197 178.194 443.835 178.181 442.386 179.602Z" fill="#D5435D" fill-opacity="0.6"/>
<path d="M431.894 189.892C430.446 191.313 430.459 193.629 431.924 195.066C433.389 196.503 435.751 196.516 437.199 195.095C438.648 193.674 438.635 191.358 437.17 189.921C435.705 188.484 433.343 188.471 431.894 189.892Z" fill="#D5435D" fill-opacity="0.6"/>
<path d="M421.403 200.181C419.955 201.602 419.968 203.918 421.433 205.355C422.898 206.792 425.26 206.805 426.708 205.384C428.157 203.963 428.143 201.647 426.679 200.21C425.214 198.773 422.852 198.76 421.403 200.181Z" fill="#D5435D" fill-opacity="0.6"/>
<path d="M410.912 210.47C409.463 211.891 409.477 214.207 410.942 215.644C412.407 217.081 414.768 217.094 416.217 215.673C417.666 214.252 417.652 211.936 416.187 210.499C414.722 209.062 412.36 209.049 410.912 210.47Z" fill="#D5435D" fill-opacity="0.6"/>
<path d="M400.419 220.762C398.97 222.183 398.983 224.499 400.448 225.936C401.913 227.373 404.275 227.386 405.724 225.965C407.172 224.544 407.159 222.228 405.694 220.791C404.229 219.354 401.867 219.341 400.419 220.762Z" fill="#D5435D" fill-opacity="0.6"/>
<path d="M389.927 231.051C388.479 232.472 388.492 234.788 389.957 236.225C391.422 237.662 393.784 237.675 395.233 236.254C396.681 234.833 396.668 232.517 395.203 231.08C393.738 229.643 391.376 229.63 389.927 231.051Z" fill="#D5435D" fill-opacity="0.6"/>
<path d="M379.436 241.34C377.988 242.761 378.001 245.077 379.466 246.514C380.931 247.951 383.293 247.964 384.741 246.543C386.19 245.122 386.177 242.806 384.712 241.369C383.247 239.932 380.885 239.919 379.436 241.34Z" fill="#D5435D" fill-opacity="0.6"/>
<path d="M368.945 251.63C367.496 253.051 367.51 255.367 368.975 256.804C370.44 258.241 372.802 258.254 374.25 256.833C375.699 255.412 375.685 253.096 374.221 251.659C372.756 250.222 370.394 250.209 368.945 251.63Z" fill="#D5435D" fill-opacity="0.6"/>
<path d="M358.454 261.919C357.005 263.34 357.019 265.656 358.484 267.093C359.948 268.53 362.31 268.543 363.759 267.122C365.208 265.702 365.194 263.385 363.729 261.948C362.264 260.512 359.902 260.499 358.454 261.919Z" fill="#D5435D" fill-opacity="0.6"/>
<path d="M442.266 158.906C440.818 160.326 440.831 162.643 442.296 164.079C443.761 165.516 446.123 165.529 447.571 164.109C449.02 162.688 449.007 160.371 447.542 158.935C446.077 157.498 443.715 157.485 442.266 158.906Z" fill="#D5435D" fill-opacity="0.6"/>
<path d="M431.775 169.196C430.327 170.616 430.34 172.933 431.805 174.369C433.27 175.806 435.632 175.819 437.08 174.399C438.529 172.978 438.516 170.661 437.051 169.225C435.586 167.788 433.224 167.775 431.775 169.196Z" fill="#D5435D" fill-opacity="0.6"/>
<path d="M421.284 179.485C419.835 180.905 419.849 183.222 421.314 184.659C422.779 186.095 425.14 186.108 426.589 184.688C428.038 183.267 428.024 180.951 426.559 179.514C425.094 178.077 422.733 178.064 421.284 179.485Z" fill="#D5435D" fill-opacity="0.6"/>
<path d="M410.793 189.774C409.344 191.194 409.357 193.511 410.822 194.948C412.287 196.384 414.649 196.397 416.098 194.977C417.546 193.556 417.533 191.24 416.068 189.803C414.603 188.366 412.241 188.353 410.793 189.774Z" fill="#D5435D" fill-opacity="0.6"/>
<path d="M400.302 200.064C398.853 201.484 398.866 203.801 400.331 205.238C401.796 206.674 404.158 206.687 405.607 205.267C407.055 203.846 407.042 201.53 405.577 200.093C404.112 198.656 401.75 198.643 400.302 200.064Z" fill="#D5435D" fill-opacity="0.6"/>
<path d="M389.807 210.355C388.359 211.775 388.372 214.092 389.837 215.529C391.302 216.965 393.664 216.978 395.112 215.558C396.561 214.137 396.548 211.821 395.083 210.384C393.618 208.947 391.256 208.934 389.807 210.355Z" fill="#D5435D" fill-opacity="0.6"/>
<path d="M379.316 220.645C377.868 222.065 377.881 224.382 379.346 225.819C380.811 227.255 383.173 227.268 384.621 225.848C386.07 224.427 386.057 222.111 384.592 220.674C383.127 219.237 380.765 219.224 379.316 220.645Z" fill="#D5435D" fill-opacity="0.6"/>
<path d="M368.825 230.934C367.376 232.355 367.39 234.671 368.855 236.108C370.32 237.545 372.681 237.558 374.13 236.137C375.579 234.716 375.565 232.4 374.1 230.963C372.635 229.526 370.274 229.513 368.825 230.934Z" fill="#D5435D" fill-opacity="0.6"/>
<path d="M358.334 241.223C356.885 242.644 356.898 244.96 358.363 246.397C359.828 247.834 362.19 247.847 363.639 246.426C365.087 245.005 365.074 242.689 363.609 241.252C362.144 239.815 359.782 239.802 358.334 241.223Z" fill="#D5435D" fill-opacity="0.6"/>
<path d="M347.843 251.512C346.394 252.933 346.407 255.249 347.872 256.686C349.337 258.123 351.699 258.136 353.148 256.715C354.596 255.294 354.583 252.978 353.118 251.541C351.653 250.104 349.291 250.091 347.843 251.512Z" fill="#D5435D" fill-opacity="0.6"/>
<path d="M431.656 148.5C430.207 149.921 430.221 152.237 431.686 153.674C433.151 155.111 435.513 155.124 436.961 153.703C438.41 152.283 438.396 149.966 436.931 148.529C435.466 147.093 433.105 147.08 431.656 148.5Z" fill="#D5435D" fill-opacity="0.6"/>
<path d="M421.166 158.789C419.717 160.21 419.73 162.526 421.195 163.963C422.66 165.4 425.022 165.413 426.471 163.992C427.919 162.572 427.906 160.255 426.441 158.818C424.976 157.382 422.614 157.369 421.166 158.789Z" fill="#D5435D" fill-opacity="0.6"/>
<path d="M410.674 169.079C409.225 170.5 409.238 172.816 410.703 174.253C412.168 175.69 414.53 175.703 415.979 174.282C417.427 172.862 417.414 170.545 415.949 169.108C414.484 167.672 412.122 167.659 410.674 169.079Z" fill="#D5435D" fill-opacity="0.6"/>
<path d="M400.182 179.368C398.734 180.789 398.747 183.106 400.212 184.542C401.677 185.979 404.039 185.992 405.487 184.571C406.936 183.151 406.923 180.834 405.458 179.398C403.993 177.961 401.631 177.948 400.182 179.368Z" fill="#D5435D" fill-opacity="0.6"/>
<path d="M389.691 189.657C388.243 191.078 388.256 193.395 389.721 194.831C391.186 196.268 393.548 196.281 394.996 194.86C396.445 193.44 396.432 191.123 394.967 189.687C393.502 188.25 391.14 188.237 389.691 189.657Z" fill="#D5435D" fill-opacity="0.6"/>
<path d="M379.198 199.949C377.749 201.37 377.763 203.687 379.228 205.123C380.693 206.56 383.055 206.573 384.503 205.152C385.952 203.732 385.938 201.415 384.473 199.979C383.008 198.542 380.647 198.529 379.198 199.949Z" fill="#D5435D" fill-opacity="0.6"/>
<path d="M368.707 210.239C367.258 211.659 367.271 213.976 368.736 215.412C370.201 216.849 372.563 216.862 374.012 215.442C375.46 214.021 375.447 211.704 373.982 210.268C372.517 208.831 370.155 208.818 368.707 210.239Z" fill="#D5435D" fill-opacity="0.6"/>
<path d="M358.216 220.528C356.767 221.948 356.78 224.265 358.245 225.702C359.71 227.138 362.072 227.151 363.521 225.731C364.969 224.31 364.956 221.993 363.491 220.557C362.026 219.12 359.664 219.107 358.216 220.528Z" fill="#D5435D" fill-opacity="0.6"/>
<path d="M347.724 230.818C346.276 232.238 346.289 234.555 347.754 235.992C349.219 237.428 351.581 237.441 353.029 236.021C354.478 234.6 354.465 232.284 353 230.847C351.535 229.41 349.173 229.397 347.724 230.818Z" fill="#D5435D" fill-opacity="0.6"/>
<path d="M337.233 241.107C335.785 242.527 335.798 244.844 337.263 246.281C338.728 247.717 341.09 247.73 342.538 246.31C343.987 244.889 343.974 242.573 342.509 241.136C341.044 239.699 338.682 239.686 337.233 241.107Z" fill="#D5435D" fill-opacity="0.6"/>
<path d="M421.047 138.095C419.598 139.516 419.611 141.832 421.076 143.269C422.541 144.706 424.903 144.719 426.352 143.298C427.8 141.877 427.787 139.561 426.322 138.124C424.857 136.687 422.495 136.674 421.047 138.095Z" fill="#D5435D" fill-opacity="0.6"/>
<path d="M410.555 148.384C409.107 149.805 409.12 152.121 410.585 153.558C412.05 154.995 414.412 155.008 415.861 153.587C417.309 152.166 417.296 149.85 415.831 148.413C414.366 146.976 412.004 146.963 410.555 148.384Z" fill="#D5435D" fill-opacity="0.6"/>
<path d="M400.063 158.673C398.615 160.094 398.628 162.41 400.093 163.847C401.558 165.284 403.92 165.297 405.368 163.876C406.817 162.455 406.804 160.139 405.339 158.702C403.874 157.265 401.512 157.252 400.063 158.673Z" fill="#D5435D" fill-opacity="0.6"/>
<path d="M389.573 168.962C388.124 170.383 388.138 172.699 389.603 174.136C391.068 175.573 393.43 175.586 394.878 174.165C396.327 172.744 396.313 170.428 394.848 168.991C393.383 167.555 391.022 167.541 389.573 168.962Z" fill="#D5435D" fill-opacity="0.6"/>
<path d="M379.082 179.252C377.633 180.673 377.647 182.989 379.111 184.426C380.576 185.863 382.938 185.876 384.387 184.455C385.835 183.035 385.822 180.718 384.357 179.281C382.892 177.845 380.53 177.832 379.082 179.252Z" fill="#D5435D" fill-opacity="0.6"/>
<path d="M368.588 189.543C367.139 190.964 367.152 193.28 368.617 194.717C370.082 196.154 372.444 196.167 373.893 194.746C375.341 193.326 375.328 191.009 373.863 189.572C372.398 188.136 370.036 188.123 368.588 189.543Z" fill="#D5435D" fill-opacity="0.6"/>
<path d="M358.096 199.833C356.648 201.254 356.661 203.57 358.126 205.007C359.591 206.444 361.953 206.457 363.402 205.036C364.85 203.616 364.837 201.299 363.372 199.862C361.907 198.426 359.545 198.413 358.096 199.833Z" fill="#D5435D" fill-opacity="0.6"/>
<path d="M347.605 210.122C346.157 211.543 346.17 213.859 347.635 215.296C349.1 216.733 351.462 216.746 352.91 215.325C354.359 213.905 354.346 211.588 352.881 210.151C351.416 208.715 349.054 208.702 347.605 210.122Z" fill="#D5435D" fill-opacity="0.6"/>
<path d="M337.114 220.411C335.665 221.832 335.679 224.149 337.144 225.585C338.609 227.022 340.971 227.035 342.419 225.614C343.868 224.194 343.854 221.877 342.389 220.44C340.924 219.004 338.563 218.991 337.114 220.411Z" fill="#D5435D" fill-opacity="0.6"/>
<path d="M326.623 230.7C325.174 232.121 325.188 234.438 326.652 235.874C328.117 237.311 330.479 237.324 331.928 235.903C333.376 234.483 333.363 232.166 331.898 230.73C330.433 229.293 328.071 229.28 326.623 230.7Z" fill="#D5435D" fill-opacity="0.6"/>
</g>
<ellipse cx="607.283" cy="433.837" rx="120.283" ry="92.8369" fill="#218207" fill-opacity="0.5"/>
<path d="M1243.28 127.837C1243.28 179.109 1189.43 220.674 1123 220.674C1123 220.674 1123 179.109 1123 127.837C1123 76.5645 1123 35 1123 35C1189.43 35 1243.28 76.5645 1243.28 127.837Z" fill="#FF9900" fill-opacity="0.5"/>
<ellipse cx="3.14016" cy="2.44235" rx="3.14016" ry="2.44235" transform="matrix(-0.689723 0.724073 -0.689723 -0.724073 1102.73 534.578)" fill="#00FF01" fill-opacity="0.2"/>
<ellipse cx="3.14016" cy="2.44235" rx="3.14016" ry="2.44235" transform="matrix(-0.689723 0.724073 -0.689723 -0.724073 1092.52 534.562)" fill="#00FF01" fill-opacity="0.2"/>
<ellipse cx="3.14016" cy="2.44235" rx="3.14016" ry="2.44235" transform="matrix(-0.689723 0.724073 -0.689723 -0.724073 1082.31 534.551)" fill="#00FF01" fill-opacity="0.2"/>
<ellipse cx="3.14016" cy="2.44235" rx="3.14016" ry="2.44235" transform="matrix(-0.689723 0.724073 -0.689723 -0.724073 1072.1 534.537)" fill="#00FF01" fill-opacity="0.2"/>
<ellipse cx="3.14016" cy="2.79125" rx="3.14016" ry="2.79125" transform="matrix(-0.689723 0.724073 -0.689723 -0.724073 1112.83 546.986)" fill="#00FF01" fill-opacity="0.2"/>
<ellipse cx="3.14016" cy="2.44235" rx="3.14016" ry="2.44235" transform="matrix(-0.689723 0.724073 -0.689723 -0.724073 1102.72 546.725)" fill="#00FF01" fill-opacity="0.2"/>
<ellipse cx="3.14016" cy="2.44235" rx="3.14016" ry="2.44235" transform="matrix(-0.689723 0.724073 -0.689723 -0.724073 1092.51 546.711)" fill="#00FF01" fill-opacity="0.2"/>
<ellipse cx="3.14016" cy="2.44235" rx="3.14016" ry="2.44235" transform="matrix(-0.689723 0.724073 -0.689723 -0.724073 1082.3 546.697)" fill="#00FF01" fill-opacity="0.2"/>
<ellipse cx="3.14016" cy="2.44235" rx="3.14016" ry="2.44235" transform="matrix(-0.689723 0.724073 -0.689723 -0.724073 1072.09 546.686)" fill="#00FF01" fill-opacity="0.2"/>
<ellipse cx="3.14016" cy="2.79125" rx="3.14016" ry="2.79125" transform="matrix(-0.689723 0.724073 -0.689723 -0.724073 1062.46 546.924)" fill="#00FF01" fill-opacity="0.2"/>
<ellipse cx="3.14016" cy="2.79125" rx="3.14016" ry="2.79125" transform="matrix(-0.689723 0.724073 -0.689723 -0.724073 1112.81 558.422)" fill="#00FF01" fill-opacity="0.2"/>
<ellipse cx="3.14016" cy="2.44235" rx="3.14016" ry="2.44235" transform="matrix(-0.689723 0.724073 -0.689723 -0.724073 1102.7 558.156)" fill="#00FF01" fill-opacity="0.2"/>
<ellipse cx="3.14016" cy="2.44235" rx="3.14016" ry="2.44235" transform="matrix(-0.689723 0.724073 -0.689723 -0.724073 1092.5 558.145)" fill="#00FF01" fill-opacity="0.2"/>
<ellipse cx="3.14016" cy="2.44235" rx="3.14016" ry="2.44235" transform="matrix(-0.689723 0.724073 -0.689723 -0.724073 1082.29 558.133)" fill="#00FF01" fill-opacity="0.2"/>
<ellipse cx="3.14016" cy="2.44235" rx="3.14016" ry="2.44235" transform="matrix(-0.689723 0.724073 -0.689723 -0.724073 1072.08 558.121)" fill="#00FF01" fill-opacity="0.2"/>
<ellipse cx="3.14016" cy="2.79125" rx="3.14016" ry="2.79125" transform="matrix(-0.689723 0.724073 -0.689723 -0.724073 1062.45 558.359)" fill="#00FF01" fill-opacity="0.2"/>
<ellipse cx="3.14016" cy="2.79125" rx="3.14016" ry="2.79125" transform="matrix(-0.689723 0.724073 -0.689723 -0.724073 1123.01 570.58)" fill="#00FF01" fill-opacity="0.2"/>
<ellipse cx="3.14016" cy="2.79125" rx="3.14016" ry="2.79125" transform="matrix(-0.689723 0.724073 -0.689723 -0.724073 1112.8 570.566)" fill="#00FF01" fill-opacity="0.2"/>
<ellipse cx="3.14016" cy="2.44235" rx="3.14016" ry="2.44235" transform="matrix(-0.689723 0.724073 -0.689723 -0.724073 1102.69 570.307)" fill="#00FF01" fill-opacity="0.2"/>
<ellipse cx="3.14016" cy="2.44235" rx="3.14016" ry="2.44235" transform="matrix(-0.689723 0.724073 -0.689723 -0.724073 1092.48 570.289)" fill="#00FF01" fill-opacity="0.2"/>
<ellipse cx="3.14016" cy="2.44235" rx="3.14016" ry="2.44235" transform="matrix(-0.689723 0.724073 -0.689723 -0.724073 1082.27 570.277)" fill="#00FF01" fill-opacity="0.2"/>
<ellipse cx="3.14016" cy="2.44235" rx="3.14016" ry="2.44235" transform="matrix(-0.689723 0.724073 -0.689723 -0.724073 1072.06 570.266)" fill="#00FF01" fill-opacity="0.2"/>
<ellipse cx="3.14016" cy="2.79125" rx="3.14016" ry="2.79125" transform="matrix(-0.689723 0.724073 -0.689723 -0.724073 1062.43 570.506)" fill="#00FF01" fill-opacity="0.2"/>
<ellipse cx="3.14016" cy="2.79125" rx="3.14016" ry="2.79125" transform="matrix(-0.689723 0.724073 -0.689723 -0.724073 1123 582.016)" fill="#00FF01" fill-opacity="0.2"/>
<ellipse cx="3.14016" cy="2.79125" rx="3.14016" ry="2.79125" transform="matrix(-0.689723 0.724073 -0.689723 -0.724073 1112.79 582)" fill="#00FF01" fill-opacity="0.2"/>
<ellipse cx="3.14016" cy="2.44235" rx="3.14016" ry="2.44235" transform="matrix(-0.689723 0.724073 -0.689723 -0.724073 1102.68 581.736)" fill="#00FF01" fill-opacity="0.2"/>
<ellipse cx="3.14016" cy="2.44235" rx="3.14016" ry="2.44235" transform="matrix(-0.689723 0.724073 -0.689723 -0.724073 1092.47 581.725)" fill="#00FF01" fill-opacity="0.2"/>
<ellipse cx="3.14016" cy="2.44235" rx="3.14016" ry="2.44235" transform="matrix(-0.689723 0.724073 -0.689723 -0.724073 1082.26 581.711)" fill="#00FF01" fill-opacity="0.2"/>
<ellipse cx="3.14016" cy="2.44235" rx="3.14016" ry="2.44235" transform="matrix(-0.689723 0.724073 -0.689723 -0.724073 1072.05 581.699)" fill="#00FF01" fill-opacity="0.2"/>
<ellipse cx="3.14016" cy="2.79125" rx="3.14016" ry="2.79125" transform="matrix(-0.689723 0.724073 -0.689723 -0.724073 1062.42 581.939)" fill="#00FF01" fill-opacity="0.2"/>
<ellipse cx="3.14016" cy="2.79125" rx="3.14016" ry="2.79125" transform="matrix(-0.689723 0.724073 -0.689723 -0.724073 1122.98 594.164)" fill="#00FF01" fill-opacity="0.2"/>
<ellipse cx="3.14016" cy="2.79125" rx="3.14016" ry="2.79125" transform="matrix(-0.689723 0.724073 -0.689723 -0.724073 1112.77 594.15)" fill="#00FF01" fill-opacity="0.2"/>
<ellipse cx="3.14016" cy="2.44235" rx="3.14016" ry="2.44235" transform="matrix(-0.689723 0.724073 -0.689723 -0.724073 1102.66 593.885)" fill="#00FF01" fill-opacity="0.2"/>
<ellipse cx="3.14016" cy="2.44235" rx="3.14016" ry="2.44235" transform="matrix(-0.689723 0.724073 -0.689723 -0.724073 1092.45 593.873)" fill="#00FF01" fill-opacity="0.2"/>
<ellipse cx="3.14016" cy="2.44235" rx="3.14016" ry="2.44235" transform="matrix(-0.689723 0.724073 -0.689723 -0.724073 1082.24 593.859)" fill="#00FF01" fill-opacity="0.2"/>
<ellipse cx="3.14016" cy="2.44235" rx="3.14016" ry="2.44235" transform="matrix(-0.689723 0.724073 -0.689723 -0.724073 1072.03 593.846)" fill="#00FF01" fill-opacity="0.2"/>
<ellipse cx="3.14016" cy="2.79125" rx="3.14016" ry="2.79125" transform="matrix(-0.689723 0.724073 -0.689723 -0.724073 1062.41 594.084)" fill="#00FF01" fill-opacity="0.2"/>
<ellipse cx="3.14016" cy="2.79125" rx="3.14016" ry="2.79125" transform="matrix(-0.689723 0.724073 -0.689723 -0.724073 1122.97 605.596)" fill="#00FF01" fill-opacity="0.2"/>
<ellipse cx="3.14016" cy="2.79125" rx="3.14016" ry="2.79125" transform="matrix(-0.689723 0.724073 -0.689723 -0.724073 1112.76 605.582)" fill="#00FF01" fill-opacity="0.2"/>
<ellipse cx="3.14016" cy="2.44235" rx="3.14016" ry="2.44235" transform="matrix(-0.689723 0.724073 -0.689723 -0.724073 1102.65 605.318)" fill="#00FF01" fill-opacity="0.2"/>
<ellipse cx="3.14016" cy="2.44235" rx="3.14016" ry="2.44235" transform="matrix(-0.689723 0.724073 -0.689723 -0.724073 1092.44 605.305)" fill="#00FF01" fill-opacity="0.2"/>
<ellipse cx="3.14016" cy="2.44235" rx="3.14016" ry="2.44235" transform="matrix(-0.689723 0.724073 -0.689723 -0.724073 1082.23 605.293)" fill="#00FF01" fill-opacity="0.2"/>
<ellipse cx="3.14016" cy="2.44235" rx="3.14016" ry="2.44235" transform="matrix(-0.689723 0.724073 -0.689723 -0.724073 1072.02 605.279)" fill="#00FF01" fill-opacity="0.2"/>
<ellipse cx="3.14016" cy="2.79125" rx="3.14016" ry="2.79125" transform="matrix(-0.689723 0.724073 -0.689723 -0.724073 1062.39 605.52)" fill="#00FF01" fill-opacity="0.2"/>
<ellipse cx="3.14016" cy="2.79125" rx="3.14016" ry="2.79125" transform="matrix(-0.689723 0.724073 -0.689723 -0.724073 1112.75 617.729)" fill="#00FF01" fill-opacity="0.2"/>
<ellipse cx="3.14016" cy="2.44235" rx="3.14016" ry="2.44235" transform="matrix(-0.689723 0.724073 -0.689723 -0.724073 1102.64 617.465)" fill="#00FF01" fill-opacity="0.2"/>
<ellipse cx="3.14016" cy="2.44235" rx="3.14016" ry="2.44235" transform="matrix(-0.689723 0.724073 -0.689723 -0.724073 1092.43 617.451)" fill="#00FF01" fill-opacity="0.2"/>
<ellipse cx="3.14016" cy="2.44235" rx="3.14016" ry="2.44235" transform="matrix(-0.689723 0.724073 -0.689723 -0.724073 1082.22 617.438)" fill="#00FF01" fill-opacity="0.2"/>
<ellipse cx="3.14016" cy="2.44235" rx="3.14016" ry="2.44235" transform="matrix(-0.689723 0.724073 -0.689723 -0.724073 1072.01 617.426)" fill="#00FF01" fill-opacity="0.2"/>
<ellipse cx="3.14016" cy="2.79125" rx="3.14016" ry="2.79125" transform="matrix(-0.689723 0.724073 -0.689723 -0.724073 1062.38 617.664)" fill="#00FF01" fill-opacity="0.2"/>
<ellipse cx="3.14016" cy="2.79125" rx="3.14016" ry="2.79125" transform="matrix(-0.689723 0.724073 -0.689723 -0.724073 1052.22 570.492)" fill="#00FF01" fill-opacity="0.2"/>
<ellipse cx="3.14016" cy="2.79125" rx="3.14016" ry="2.79125" transform="matrix(-0.689723 0.724073 -0.689723 -0.724073 1052.21 581.926)" fill="#00FF01" fill-opacity="0.2"/>
<ellipse cx="3.14016" cy="2.79125" rx="3.14016" ry="2.79125" transform="matrix(-0.689723 0.724073 -0.689723 -0.724073 1052.2 594.072)" fill="#00FF01" fill-opacity="0.2"/>
<ellipse cx="3.14016" cy="2.79125" rx="3.14016" ry="2.79125" transform="matrix(-0.689723 0.724073 -0.689723 -0.724073 1052.18 605.506)" fill="#00FF01" fill-opacity="0.2"/>
<ellipse cx="3.14016" cy="2.79125" rx="3.14016" ry="2.79125" transform="matrix(-0.689723 0.724073 -0.689723 -0.724073 1112.73 629.162)" fill="#00FF01" fill-opacity="0.2"/>
<ellipse cx="3.14016" cy="2.44235" rx="3.14016" ry="2.44235" transform="matrix(-0.689723 0.724073 -0.689723 -0.724073 1102.62 628.896)" fill="#00FF01" fill-opacity="0.2"/>
<ellipse cx="3.14016" cy="2.44235" rx="3.14016" ry="2.44235" transform="matrix(-0.689723 0.724073 -0.689723 -0.724073 1092.41 628.885)" fill="#00FF01" fill-opacity="0.2"/>
<ellipse cx="3.14016" cy="2.44235" rx="3.14016" ry="2.44235" transform="matrix(-0.689723 0.724073 -0.689723 -0.724073 1082.2 628.873)" fill="#00FF01" fill-opacity="0.2"/>
<ellipse cx="3.14016" cy="2.44235" rx="3.14016" ry="2.44235" transform="matrix(-0.689723 0.724073 -0.689723 -0.724073 1071.99 628.859)" fill="#00FF01" fill-opacity="0.2"/>
<ellipse cx="3.14016" cy="2.79125" rx="3.14016" ry="2.79125" transform="matrix(-0.689723 0.724073 -0.689723 -0.724073 1062.36 629.098)" fill="#00FF01" fill-opacity="0.2"/>
<ellipse cx="3.14016" cy="2.44235" rx="3.14016" ry="2.44235" transform="matrix(-0.689723 0.724073 -0.689723 -0.724073 1102.61 641.045)" fill="#00FF01" fill-opacity="0.2"/>
<ellipse cx="3.14016" cy="2.44235" rx="3.14016" ry="2.44235" transform="matrix(-0.689723 0.724073 -0.689723 -0.724073 1092.4 641.033)" fill="#00FF01" fill-opacity="0.2"/>
<ellipse cx="3.14016" cy="2.44235" rx="3.14016" ry="2.44235" transform="matrix(-0.689723 0.724073 -0.689723 -0.724073 1082.19 641.018)" fill="#00FF01" fill-opacity="0.2"/>
<ellipse cx="3.14016" cy="2.44235" rx="3.14016" ry="2.44235" transform="matrix(-0.689723 0.724073 -0.689723 -0.724073 1071.98 641.006)" fill="#00FF01" fill-opacity="0.2"/>
<g opacity="0.7" clip-path="url(#clip2_192_2129)">
<path d="M189.451 644.654C187.1 644.654 185.195 646.491 185.195 648.756C185.195 651.021 187.1 652.857 189.451 652.857C191.801 652.857 193.706 651.021 193.706 648.756C193.706 646.491 191.801 644.654 189.451 644.654Z" fill="#E1EAF1"/>
<path d="M172.429 644.654C170.079 644.654 168.174 646.491 168.174 648.756C168.174 651.021 170.079 652.857 172.429 652.857C174.779 652.857 176.685 651.021 176.685 648.756C176.685 646.491 174.779 644.654 172.429 644.654Z" fill="#E1EAF1"/>
<path d="M155.408 644.654C153.057 644.654 151.152 646.491 151.152 648.756C151.152 651.021 153.057 652.857 155.408 652.857C157.758 652.857 159.663 651.021 159.663 648.756C159.663 646.491 157.758 644.654 155.408 644.654Z" fill="#E1EAF1"/>
<path d="M138.386 644.654C136.036 644.654 134.131 646.491 134.131 648.756C134.131 651.021 136.036 652.857 138.386 652.857C140.736 652.857 142.642 651.021 142.642 648.756C142.642 646.491 140.736 644.654 138.386 644.654Z" fill="#E1EAF1"/>
<path d="M121.366 644.654C119.015 644.654 117.11 646.491 117.11 648.756C117.11 651.021 119.015 652.857 121.366 652.857C123.716 652.857 125.621 651.021 125.621 648.756C125.621 646.491 123.716 644.654 121.366 644.654Z" fill="#E1EAF1"/>
<path d="M104.34 644.654C101.99 644.654 100.085 646.491 100.085 648.756C100.085 651.021 101.99 652.857 104.34 652.857C106.69 652.857 108.596 651.021 108.596 648.756C108.596 646.491 106.69 644.654 104.34 644.654Z" fill="#E1EAF1"/>
<path d="M87.3188 644.654C84.9686 644.654 83.0634 646.491 83.0634 648.756C83.0634 651.021 84.9686 652.857 87.3188 652.857C89.669 652.857 91.5742 651.021 91.5742 648.756C91.5742 646.491 89.669 644.654 87.3188 644.654Z" fill="#E1EAF1"/>
<path d="M70.2983 644.654C67.9481 644.654 66.0429 646.491 66.0429 648.756C66.0429 651.021 67.9481 652.857 70.2983 652.857C72.6485 652.857 74.5537 651.021 74.5537 648.756C74.5537 646.491 72.6485 644.654 70.2983 644.654Z" fill="#E1EAF1"/>
<path d="M53.2768 644.654C50.9266 644.654 49.0214 646.491 49.0214 648.756C49.0214 651.021 50.9266 652.857 53.2768 652.857C55.627 652.857 57.5322 651.021 57.5322 648.756C57.5322 646.491 55.627 644.654 53.2768 644.654Z" fill="#E1EAF1"/>
<path d="M36.2553 644.654C33.9051 644.654 31.9999 646.491 31.9999 648.756C31.9999 651.021 33.9051 652.857 36.2553 652.857C38.6055 652.857 40.5107 651.021 40.5107 648.756C40.5107 646.491 38.6055 644.654 36.2553 644.654Z" fill="#E1EAF1"/>
<path d="M189.451 628.248C187.1 628.248 185.195 630.084 185.195 632.35C185.195 634.615 187.1 636.451 189.451 636.451C191.801 636.451 193.706 634.615 193.706 632.35C193.706 630.084 191.801 628.248 189.451 628.248Z" fill="#E1EAF1"/>
<path d="M172.429 628.248C170.079 628.248 168.174 630.084 168.174 632.35C168.174 634.615 170.079 636.451 172.429 636.451C174.779 636.451 176.685 634.615 176.685 632.35C176.685 630.084 174.779 628.248 172.429 628.248Z" fill="#E1EAF1"/>
<path d="M155.408 628.248C153.057 628.248 151.152 630.084 151.152 632.35C151.152 634.615 153.057 636.451 155.408 636.451C157.758 636.451 159.663 634.615 159.663 632.35C159.663 630.084 157.758 628.248 155.408 628.248Z" fill="#E1EAF1"/>
<path d="M138.386 628.248C136.036 628.248 134.131 630.084 134.131 632.35C134.131 634.615 136.036 636.451 138.386 636.451C140.736 636.451 142.642 634.615 142.642 632.35C142.642 630.084 140.736 628.248 138.386 628.248Z" fill="#E1EAF1"/>
<path d="M121.366 628.248C119.015 628.248 117.11 630.084 117.11 632.35C117.11 634.615 119.015 636.451 121.366 636.451C123.716 636.451 125.621 634.615 125.621 632.35C125.621 630.084 123.716 628.248 121.366 628.248Z" fill="#E1EAF1"/>
<path d="M104.34 628.248C101.99 628.248 100.085 630.084 100.085 632.35C100.085 634.615 101.99 636.451 104.34 636.451C106.69 636.451 108.596 634.615 108.596 632.35C108.596 630.084 106.69 628.248 104.34 628.248Z" fill="#E1EAF1"/>
<path d="M87.3188 628.248C84.9686 628.248 83.0634 630.084 83.0634 632.35C83.0634 634.615 84.9686 636.451 87.3188 636.451C89.669 636.451 91.5742 634.615 91.5742 632.35C91.5742 630.084 89.669 628.248 87.3188 628.248Z" fill="#E1EAF1"/>
<path d="M70.2983 628.248C67.9481 628.248 66.0429 630.084 66.0429 632.35C66.0429 634.615 67.9481 636.451 70.2983 636.451C72.6485 636.451 74.5537 634.615 74.5537 632.35C74.5537 630.084 72.6485 628.248 70.2983 628.248Z" fill="#E1EAF1"/>
<path d="M53.2768 628.248C50.9266 628.248 49.0214 630.084 49.0214 632.35C49.0214 634.615 50.9266 636.451 53.2768 636.451C55.627 636.451 57.5322 634.615 57.5322 632.35C57.5322 630.084 55.627 628.248 53.2768 628.248Z" fill="#E1EAF1"/>
<path d="M36.2553 628.248C33.9051 628.248 31.9999 630.084 31.9999 632.35C31.9999 634.615 33.9051 636.451 36.2553 636.451C38.6055 636.451 40.5107 634.615 40.5107 632.35C40.5107 630.084 38.6055 628.248 36.2553 628.248Z" fill="#E1EAF1"/>
<path d="M189.451 611.844C187.1 611.844 185.195 613.68 185.195 615.945C185.195 618.211 187.1 620.047 189.451 620.047C191.801 620.047 193.706 618.211 193.706 615.945C193.706 613.68 191.801 611.844 189.451 611.844Z" fill="#E1EAF1"/>
<path d="M172.429 611.844C170.079 611.844 168.174 613.68 168.174 615.945C168.174 618.211 170.079 620.047 172.429 620.047C174.779 620.047 176.685 618.211 176.685 615.945C176.685 613.68 174.779 611.844 172.429 611.844Z" fill="#E1EAF1"/>
<path d="M155.408 611.844C153.057 611.844 151.152 613.68 151.152 615.945C151.152 618.211 153.057 620.047 155.408 620.047C157.758 620.047 159.663 618.211 159.663 615.945C159.663 613.68 157.758 611.844 155.408 611.844Z" fill="#E1EAF1"/>
<path d="M138.386 611.844C136.036 611.844 134.131 613.68 134.131 615.945C134.131 618.211 136.036 620.047 138.386 620.047C140.736 620.047 142.642 618.211 142.642 615.945C142.642 613.68 140.736 611.844 138.386 611.844Z" fill="#E1EAF1"/>
<path d="M121.366 611.844C119.015 611.844 117.11 613.68 117.11 615.945C117.11 618.211 119.015 620.047 121.366 620.047C123.716 620.047 125.621 618.211 125.621 615.945C125.621 613.68 123.716 611.844 121.366 611.844Z" fill="#E1EAF1"/>
<path d="M104.34 611.844C101.99 611.844 100.085 613.68 100.085 615.945C100.085 618.211 101.99 620.047 104.34 620.047C106.69 620.047 108.596 618.211 108.596 615.945C108.596 613.68 106.69 611.844 104.34 611.844Z" fill="#E1EAF1"/>
<path d="M87.3188 611.844C84.9686 611.844 83.0634 613.68 83.0634 615.945C83.0634 618.211 84.9686 620.047 87.3188 620.047C89.669 620.047 91.5742 618.211 91.5742 615.945C91.5742 613.68 89.669 611.844 87.3188 611.844Z" fill="#E1EAF1"/>
<path d="M70.2983 611.844C67.9481 611.844 66.0429 613.68 66.0429 615.945C66.0429 618.211 67.9481 620.047 70.2983 620.047C72.6485 620.047 74.5537 618.211 74.5537 615.945C74.5537 613.68 72.6485 611.844 70.2983 611.844Z" fill="#E1EAF1"/>
<path d="M53.2768 611.844C50.9266 611.844 49.0214 613.68 49.0214 615.945C49.0214 618.211 50.9266 620.047 53.2768 620.047C55.627 620.047 57.5322 618.211 57.5322 615.945C57.5322 613.68 55.627 611.844 53.2768 611.844Z" fill="#E1EAF1"/>
<path d="M36.2553 611.844C33.9051 611.844 31.9999 613.68 31.9999 615.945C31.9999 618.211 33.9051 620.047 36.2553 620.047C38.6055 620.047 40.5107 618.211 40.5107 615.945C40.5107 613.68 38.6055 611.844 36.2553 611.844Z" fill="#E1EAF1"/>
<path d="M189.451 595.436C187.1 595.436 185.195 597.272 185.195 599.537C185.195 601.802 187.1 603.639 189.451 603.639C191.801 603.639 193.706 601.802 193.706 599.537C193.706 597.272 191.801 595.436 189.451 595.436Z" fill="#E1EAF1"/>
<path d="M172.429 595.436C170.079 595.436 168.174 597.272 168.174 599.537C168.174 601.802 170.079 603.639 172.429 603.639C174.779 603.639 176.685 601.802 176.685 599.537C176.685 597.272 174.779 595.436 172.429 595.436Z" fill="#E1EAF1"/>
<path d="M155.408 595.436C153.057 595.436 151.152 597.272 151.152 599.537C151.152 601.802 153.057 603.639 155.408 603.639C157.758 603.639 159.663 601.802 159.663 599.537C159.663 597.272 157.758 595.436 155.408 595.436Z" fill="#E1EAF1"/>
<path d="M138.386 595.436C136.036 595.436 134.131 597.272 134.131 599.537C134.131 601.802 136.036 603.639 138.386 603.639C140.736 603.639 142.642 601.802 142.642 599.537C142.642 597.272 140.736 595.436 138.386 595.436Z" fill="#E1EAF1"/>
<path d="M121.366 595.436C119.015 595.436 117.11 597.272 117.11 599.537C117.11 601.802 119.015 603.639 121.366 603.639C123.716 603.639 125.621 601.802 125.621 599.537C125.621 597.272 123.716 595.436 121.366 595.436Z" fill="#E1EAF1"/>
<path d="M104.34 595.436C101.99 595.436 100.085 597.272 100.085 599.537C100.085 601.802 101.99 603.639 104.34 603.639C106.69 603.639 108.596 601.802 108.596 599.537C108.596 597.272 106.69 595.436 104.34 595.436Z" fill="#E1EAF1"/>
<path d="M87.3188 595.436C84.9686 595.436 83.0634 597.272 83.0634 599.537C83.0634 601.802 84.9686 603.639 87.3188 603.639C89.669 603.639 91.5742 601.802 91.5742 599.537C91.5742 597.272 89.669 595.436 87.3188 595.436Z" fill="#E1EAF1"/>
<path d="M70.2983 595.436C67.9481 595.436 66.0429 597.272 66.0429 599.537C66.0429 601.802 67.9481 603.639 70.2983 603.639C72.6485 603.639 74.5537 601.802 74.5537 599.537C74.5537 597.272 72.6485 595.436 70.2983 595.436Z" fill="#E1EAF1"/>
<path d="M53.2768 595.436C50.9266 595.436 49.0214 597.272 49.0214 599.537C49.0214 601.802 50.9266 603.639 53.2768 603.639C55.627 603.639 57.5322 601.802 57.5322 599.537C57.5322 597.272 55.627 595.436 53.2768 595.436Z" fill="#E1EAF1"/>
<path d="M36.2553 595.436C33.9051 595.436 31.9999 597.272 31.9999 599.537C31.9999 601.802 33.9051 603.639 36.2553 603.639C38.6055 603.639 40.5107 601.802 40.5107 599.537C40.5107 597.272 38.6055 595.436 36.2553 595.436Z" fill="#E1EAF1"/>
<path d="M189.451 579.029C187.1 579.029 185.195 580.866 185.195 583.131C185.195 585.396 187.1 587.232 189.451 587.232C191.801 587.232 193.706 585.396 193.706 583.131C193.706 580.866 191.801 579.029 189.451 579.029Z" fill="#E1EAF1"/>
<path d="M172.429 579.029C170.079 579.029 168.174 580.866 168.174 583.131C168.174 585.396 170.079 587.232 172.429 587.232C174.779 587.232 176.685 585.396 176.685 583.131C176.685 580.866 174.779 579.029 172.429 579.029Z" fill="#E1EAF1"/>
<path d="M155.408 579.029C153.057 579.029 151.152 580.866 151.152 583.131C151.152 585.396 153.057 587.232 155.408 587.232C157.758 587.232 159.663 585.396 159.663 583.131C159.663 580.866 157.758 579.029 155.408 579.029Z" fill="#E1EAF1"/>
<path d="M138.386 579.029C136.036 579.029 134.131 580.866 134.131 583.131C134.131 585.396 136.036 587.232 138.386 587.232C140.736 587.232 142.642 585.396 142.642 583.131C142.642 580.866 140.736 579.029 138.386 579.029Z" fill="#E1EAF1"/>
<path d="M121.366 579.029C119.015 579.029 117.11 580.866 117.11 583.131C117.11 585.396 119.015 587.232 121.366 587.232C123.716 587.232 125.621 585.396 125.621 583.131C125.621 580.866 123.716 579.029 121.366 579.029Z" fill="#E1EAF1"/>
<path d="M104.34 579.029C101.99 579.029 100.085 580.866 100.085 583.131C100.085 585.396 101.99 587.232 104.34 587.232C106.69 587.232 108.596 585.396 108.596 583.131C108.596 580.866 106.69 579.029 104.34 579.029Z" fill="#E1EAF1"/>
<path d="M87.3188 579.029C84.9686 579.029 83.0634 580.866 83.0634 583.131C83.0634 585.396 84.9686 587.232 87.3188 587.232C89.669 587.232 91.5742 585.396 91.5742 583.131C91.5742 580.866 89.669 579.029 87.3188 579.029Z" fill="#E1EAF1"/>
<path d="M70.2983 579.029C67.9481 579.029 66.0429 580.866 66.0429 583.131C66.0429 585.396 67.9481 587.232 70.2983 587.232C72.6485 587.232 74.5537 585.396 74.5537 583.131C74.5537 580.866 72.6485 579.029 70.2983 579.029Z" fill="#E1EAF1"/>
<path d="M53.2768 579.029C50.9266 579.029 49.0214 580.866 49.0214 583.131C49.0214 585.396 50.9266 587.232 53.2768 587.232C55.627 587.232 57.5322 585.396 57.5322 583.131C57.5322 580.866 55.627 579.029 53.2768 579.029Z" fill="#E1EAF1"/>
<path d="M36.2553 579.029C33.9051 579.029 31.9999 580.866 31.9999 583.131C31.9999 585.396 33.9051 587.232 36.2553 587.232C38.6055 587.232 40.5107 585.396 40.5107 583.131C40.5107 580.866 38.6055 579.029 36.2553 579.029Z" fill="#E1EAF1"/>
<path d="M189.451 562.625C187.1 562.625 185.195 564.461 185.195 566.727C185.195 568.992 187.1 570.828 189.451 570.828C191.801 570.828 193.706 568.992 193.706 566.727C193.706 564.461 191.801 562.625 189.451 562.625Z" fill="#E1EAF1"/>
<path d="M172.429 562.625C170.079 562.625 168.174 564.461 168.174 566.727C168.174 568.992 170.079 570.828 172.429 570.828C174.779 570.828 176.685 568.992 176.685 566.727C176.685 564.461 174.779 562.625 172.429 562.625Z" fill="#E1EAF1"/>
<path d="M155.408 562.625C153.057 562.625 151.152 564.461 151.152 566.727C151.152 568.992 153.057 570.828 155.408 570.828C157.758 570.828 159.663 568.992 159.663 566.727C159.663 564.461 157.758 562.625 155.408 562.625Z" fill="#E1EAF1"/>
<path d="M138.386 562.625C136.036 562.625 134.131 564.461 134.131 566.727C134.131 568.992 136.036 570.828 138.386 570.828C140.736 570.828 142.642 568.992 142.642 566.727C142.642 564.461 140.736 562.625 138.386 562.625Z" fill="#E1EAF1"/>
<path d="M121.366 562.625C119.015 562.625 117.11 564.461 117.11 566.727C117.11 568.992 119.015 570.828 121.366 570.828C123.716 570.828 125.621 568.992 125.621 566.727C125.621 564.461 123.716 562.625 121.366 562.625Z" fill="#E1EAF1"/>
<path d="M104.34 562.625C101.99 562.625 100.085 564.461 100.085 566.727C100.085 568.992 101.99 570.828 104.34 570.828C106.69 570.828 108.596 568.992 108.596 566.727C108.596 564.461 106.69 562.625 104.34 562.625Z" fill="#E1EAF1"/>
<path d="M87.3188 562.625C84.9686 562.625 83.0634 564.461 83.0634 566.727C83.0634 568.992 84.9686 570.828 87.3188 570.828C89.669 570.828 91.5742 568.992 91.5742 566.727C91.5742 564.461 89.669 562.625 87.3188 562.625Z" fill="#E1EAF1"/>
<path d="M70.2983 562.625C67.9481 562.625 66.0429 564.461 66.0429 566.727C66.0429 568.992 67.9481 570.828 70.2983 570.828C72.6485 570.828 74.5537 568.992 74.5537 566.727C74.5537 564.461 72.6485 562.625 70.2983 562.625Z" fill="#E1EAF1"/>
<path d="M53.2768 562.625C50.9266 562.625 49.0214 564.461 49.0214 566.727C49.0214 568.992 50.9266 570.828 53.2768 570.828C55.627 570.828 57.5322 568.992 57.5322 566.727C57.5322 564.461 55.627 562.625 53.2768 562.625Z" fill="#E1EAF1"/>
<path d="M36.2553 562.625C33.9051 562.625 31.9999 564.461 31.9999 566.727C31.9999 568.992 33.9051 570.828 36.2553 570.828C38.6055 570.828 40.5107 568.992 40.5107 566.727C40.5107 564.461 38.6055 562.625 36.2553 562.625Z" fill="#E1EAF1"/>
<path d="M189.451 546.219C187.1 546.219 185.195 548.055 185.195 550.32C185.195 552.586 187.1 554.422 189.451 554.422C191.801 554.422 193.706 552.586 193.706 550.32C193.706 548.055 191.801 546.219 189.451 546.219Z" fill="#E1EAF1"/>
<path d="M172.429 546.219C170.079 546.219 168.174 548.055 168.174 550.32C168.174 552.586 170.079 554.422 172.429 554.422C174.779 554.422 176.685 552.586 176.685 550.32C176.685 548.055 174.779 546.219 172.429 546.219Z" fill="#E1EAF1"/>
<path d="M155.408 546.219C153.057 546.219 151.152 548.055 151.152 550.32C151.152 552.586 153.057 554.422 155.408 554.422C157.758 554.422 159.663 552.586 159.663 550.32C159.663 548.055 157.758 546.219 155.408 546.219Z" fill="#E1EAF1"/>
<path d="M138.386 546.219C136.036 546.219 134.131 548.055 134.131 550.32C134.131 552.586 136.036 554.422 138.386 554.422C140.736 554.422 142.642 552.586 142.642 550.32C142.642 548.055 140.736 546.219 138.386 546.219Z" fill="#E1EAF1"/>
<path d="M121.366 546.219C119.015 546.219 117.11 548.055 117.11 550.32C117.11 552.586 119.015 554.422 121.366 554.422C123.716 554.422 125.621 552.586 125.621 550.32C125.621 548.055 123.716 546.219 121.366 546.219Z" fill="#E1EAF1"/>
<path d="M104.34 546.219C101.99 546.219 100.085 548.055 100.085 550.32C100.085 552.586 101.99 554.422 104.34 554.422C106.69 554.422 108.596 552.586 108.596 550.32C108.596 548.055 106.69 546.219 104.34 546.219Z" fill="#E1EAF1"/>
<path d="M87.3188 546.219C84.9686 546.219 83.0634 548.055 83.0634 550.32C83.0634 552.586 84.9686 554.422 87.3188 554.422C89.669 554.422 91.5742 552.586 91.5742 550.32C91.5742 548.055 89.669 546.219 87.3188 546.219Z" fill="#E1EAF1"/>
<path d="M70.2983 546.219C67.9481 546.219 66.0429 548.055 66.0429 550.32C66.0429 552.586 67.9481 554.422 70.2983 554.422C72.6485 554.422 74.5537 552.586 74.5537 550.32C74.5537 548.055 72.6485 546.219 70.2983 546.219Z" fill="#E1EAF1"/>
<path d="M53.2768 546.219C50.9266 546.219 49.0214 548.055 49.0214 550.32C49.0214 552.586 50.9266 554.422 53.2768 554.422C55.627 554.422 57.5322 552.586 57.5322 550.32C57.5322 548.055 55.627 546.219 53.2768 546.219Z" fill="#E1EAF1"/>
<path d="M36.2553 546.219C33.9051 546.219 31.9999 548.055 31.9999 550.32C31.9999 552.586 33.9051 554.422 36.2553 554.422C38.6055 554.422 40.5107 552.586 40.5107 550.32C40.5107 548.055 38.6055 546.219 36.2553 546.219Z" fill="#E1EAF1"/>
<path d="M189.451 529.811C187.1 529.811 185.195 531.647 185.195 533.912C185.195 536.177 187.1 538.014 189.451 538.014C191.801 538.014 193.706 536.177 193.706 533.912C193.706 531.647 191.801 529.811 189.451 529.811Z" fill="#E1EAF1"/>
<path d="M172.429 529.811C170.079 529.811 168.174 531.647 168.174 533.912C168.174 536.177 170.079 538.014 172.429 538.014C174.779 538.014 176.685 536.177 176.685 533.912C176.685 531.647 174.779 529.811 172.429 529.811Z" fill="#E1EAF1"/>
<path d="M155.408 529.811C153.057 529.811 151.152 531.647 151.152 533.912C151.152 536.177 153.057 538.014 155.408 538.014C157.758 538.014 159.663 536.177 159.663 533.912C159.663 531.647 157.758 529.811 155.408 529.811Z" fill="#E1EAF1"/>
<path d="M138.386 529.811C136.036 529.811 134.131 531.647 134.131 533.912C134.131 536.177 136.036 538.014 138.386 538.014C140.736 538.014 142.642 536.177 142.642 533.912C142.642 531.647 140.736 529.811 138.386 529.811Z" fill="#E1EAF1"/>
<path d="M121.366 529.811C119.015 529.811 117.11 531.647 117.11 533.912C117.11 536.177 119.015 538.014 121.366 538.014C123.716 538.014 125.621 536.177 125.621 533.912C125.621 531.647 123.716 529.811 121.366 529.811Z" fill="#E1EAF1"/>
<path d="M104.34 529.811C101.99 529.811 100.085 531.647 100.085 533.912C100.085 536.177 101.99 538.014 104.34 538.014C106.69 538.014 108.596 536.177 108.596 533.912C108.596 531.647 106.69 529.811 104.34 529.811Z" fill="#E1EAF1"/>
<path d="M87.3188 529.811C84.9686 529.811 83.0634 531.647 83.0634 533.912C83.0634 536.177 84.9686 538.014 87.3188 538.014C89.669 538.014 91.5742 536.177 91.5742 533.912C91.5742 531.647 89.669 529.811 87.3188 529.811Z" fill="#E1EAF1"/>
<path d="M70.2983 529.811C67.9481 529.811 66.0429 531.647 66.0429 533.912C66.0429 536.177 67.9481 538.014 70.2983 538.014C72.6485 538.014 74.5537 536.177 74.5537 533.912C74.5537 531.647 72.6485 529.811 70.2983 529.811Z" fill="#E1EAF1"/>
<path d="M53.2768 529.811C50.9266 529.811 49.0214 531.647 49.0214 533.912C49.0214 536.177 50.9266 538.014 53.2768 538.014C55.627 538.014 57.5322 536.177 57.5322 533.912C57.5322 531.647 55.627 529.811 53.2768 529.811Z" fill="#E1EAF1"/>
<path d="M36.2553 529.811C33.9051 529.811 31.9999 531.647 31.9999 533.912C31.9999 536.177 33.9051 538.014 36.2553 538.014C38.6055 538.014 40.5107 536.177 40.5107 533.912C40.5107 531.647 38.6055 529.811 36.2553 529.811Z" fill="#E1EAF1"/>
<path d="M189.451 513.406C187.1 513.406 185.195 515.243 185.195 517.508C185.195 519.773 187.1 521.609 189.451 521.609C191.801 521.609 193.706 519.773 193.706 517.508C193.706 515.243 191.801 513.406 189.451 513.406Z" fill="#E1EAF1"/>
<path d="M172.429 513.406C170.079 513.406 168.174 515.243 168.174 517.508C168.174 519.773 170.079 521.609 172.429 521.609C174.779 521.609 176.685 519.773 176.685 517.508C176.685 515.243 174.779 513.406 172.429 513.406Z" fill="#E1EAF1"/>
<path d="M155.408 513.406C153.057 513.406 151.152 515.243 151.152 517.508C151.152 519.773 153.057 521.609 155.408 521.609C157.758 521.609 159.663 519.773 159.663 517.508C159.663 515.243 157.758 513.406 155.408 513.406Z" fill="#E1EAF1"/>
<path d="M138.386 513.406C136.036 513.406 134.131 515.243 134.131 517.508C134.131 519.773 136.036 521.609 138.386 521.609C140.736 521.609 142.642 519.773 142.642 517.508C142.642 515.243 140.736 513.406 138.386 513.406Z" fill="#E1EAF1"/>
<path d="M121.366 513.406C119.015 513.406 117.11 515.243 117.11 517.508C117.11 519.773 119.015 521.609 121.366 521.609C123.716 521.609 125.621 519.773 125.621 517.508C125.621 515.243 123.716 513.406 121.366 513.406Z" fill="#E1EAF1"/>
<path d="M104.34 513.406C101.99 513.406 100.085 515.243 100.085 517.508C100.085 519.773 101.99 521.609 104.34 521.609C106.69 521.609 108.596 519.773 108.596 517.508C108.596 515.243 106.69 513.406 104.34 513.406Z" fill="#E1EAF1"/>
<path d="M87.3188 513.406C84.9686 513.406 83.0634 515.243 83.0634 517.508C83.0634 519.773 84.9686 521.609 87.3188 521.609C89.669 521.609 91.5742 519.773 91.5742 517.508C91.5742 515.243 89.669 513.406 87.3188 513.406Z" fill="#E1EAF1"/>
<path d="M70.2983 513.406C67.9481 513.406 66.0429 515.243 66.0429 517.508C66.0429 519.773 67.9481 521.609 70.2983 521.609C72.6485 521.609 74.5537 519.773 74.5537 517.508C74.5537 515.243 72.6485 513.406 70.2983 513.406Z" fill="#E1EAF1"/>
<path d="M53.2768 513.406C50.9266 513.406 49.0214 515.243 49.0214 517.508C49.0214 519.773 50.9266 521.609 53.2768 521.609C55.627 521.609 57.5322 519.773 57.5322 517.508C57.5322 515.243 55.627 513.406 53.2768 513.406Z" fill="#E1EAF1"/>
<path d="M36.2553 513.406C33.9051 513.406 31.9999 515.243 31.9999 517.508C31.9999 519.773 33.9051 521.609 36.2553 521.609C38.6055 521.609 40.5107 519.773 40.5107 517.508C40.5107 515.243 38.6055 513.406 36.2553 513.406Z" fill="#E1EAF1"/>
<path d="M189.451 497C187.1 497 185.195 498.836 185.195 501.102C185.195 503.367 187.1 505.203 189.451 505.203C191.801 505.203 193.706 503.367 193.706 501.102C193.706 498.836 191.801 497 189.451 497Z" fill="#E1EAF1"/>
<path d="M172.429 497C170.079 497 168.174 498.836 168.174 501.102C168.174 503.367 170.079 505.203 172.429 505.203C174.779 505.203 176.685 503.367 176.685 501.102C176.685 498.836 174.779 497 172.429 497Z" fill="#E1EAF1"/>
<path d="M155.408 497C153.057 497 151.152 498.836 151.152 501.102C151.152 503.367 153.057 505.203 155.408 505.203C157.758 505.203 159.663 503.367 159.663 501.102C159.663 498.836 157.758 497 155.408 497Z" fill="#E1EAF1"/>
<path d="M138.386 497C136.036 497 134.131 498.836 134.131 501.102C134.131 503.367 136.036 505.203 138.386 505.203C140.736 505.203 142.642 503.367 142.642 501.102C142.642 498.836 140.736 497 138.386 497Z" fill="#E1EAF1"/>
<path d="M121.366 497C119.015 497 117.11 498.836 117.11 501.102C117.11 503.367 119.015 505.203 121.366 505.203C123.716 505.203 125.621 503.367 125.621 501.102C125.621 498.836 123.716 497 121.366 497Z" fill="#E1EAF1"/>
<path d="M104.34 497C101.99 497 100.085 498.836 100.085 501.102C100.085 503.367 101.99 505.203 104.34 505.203C106.69 505.203 108.596 503.367 108.596 501.102C108.596 498.836 106.69 497 104.34 497Z" fill="#E1EAF1"/>
<path d="M87.3188 497C84.9686 497 83.0634 498.836 83.0634 501.102C83.0634 503.367 84.9686 505.203 87.3188 505.203C89.669 505.203 91.5742 503.367 91.5742 501.102C91.5742 498.836 89.669 497 87.3188 497Z" fill="#E1EAF1"/>
<path d="M70.2983 497C67.9481 497 66.0429 498.836 66.0429 501.102C66.0429 503.367 67.9481 505.203 70.2983 505.203C72.6485 505.203 74.5537 503.367 74.5537 501.102C74.5537 498.836 72.6485 497 70.2983 497Z" fill="#E1EAF1"/>
<path d="M53.2768 497C50.9266 497 49.0214 498.836 49.0214 501.102C49.0214 503.367 50.9266 505.203 53.2768 505.203C55.627 505.203 57.5322 503.367 57.5322 501.102C57.5322 498.836 55.627 497 53.2768 497Z" fill="#E1EAF1"/>
<path d="M36.2553 497C33.9051 497 31.9999 498.836 31.9999 501.102C31.9999 503.367 33.9051 505.203 36.2553 505.203C38.6055 505.203 40.5107 503.367 40.5107 501.102C40.5107 498.836 38.6055 497 36.2553 497Z" fill="#E1EAF1"/>
</g>
<path d="M53.8791 45.7744L45.2332 51.3376L48.9108 59.5942L39.8898 54.7758L31.244 60.3389L34.3145 51.7978L25.2936 46.9794L36.2123 46.5192L39.2829 37.9781L42.9604 46.2347L53.8791 45.7744Z" fill="#9FFFEA" fill-opacity="0.75"/>
<path d="M78.6838 56.5998L72.4119 60.6031L75.0387 66.5007L68.5356 63.0773L62.2636 67.0806L64.5164 60.9615L58.0133 57.5381L65.9088 57.1797L68.1616 51.0606L70.7884 56.9582L78.6838 56.5998Z" fill="#9FFFEA" fill-opacity="0.75"/>
<path d="M48.0554 77.5674L38.6005 83.8977L42.9348 93.6288L32.7571 87.8101L23.3022 94.1404L26.467 84.214L16.2893 78.3953L28.4229 78.0791L31.5876 68.1526L35.9218 77.8836L48.0554 77.5674Z" fill="#9FFFEA" fill-opacity="0.75"/>
<path d="M1417.29 654.808L1425.94 649.244L1422.26 640.988L1431.28 645.806L1439.92 640.243L1436.85 648.784L1445.88 653.603L1434.96 654.063L1431.89 662.604L1428.21 654.347L1417.29 654.808Z" fill="#9FFFEA" fill-opacity="0.75"/>
<path d="M1392.49 643.982L1398.76 639.979L1396.13 634.081L1402.63 637.505L1408.91 633.501L1406.65 639.62L1413.16 643.044L1405.26 643.402L1403.01 649.521L1400.38 643.624L1392.49 643.982Z" fill="#9FFFEA" fill-opacity="0.75"/>
<path d="M1423.11 623.013L1432.57 616.682L1428.23 606.951L1438.41 612.77L1447.87 606.44L1444.7 616.366L1454.88 622.185L1442.75 622.501L1439.58 632.427L1435.25 622.696L1423.11 623.013Z" fill="#9FFFEA" fill-opacity="0.75"/>
<path d="M1464.29 103.806L1472.94 98.2425L1469.26 89.9859L1478.28 94.8043L1486.92 89.2412L1483.85 97.7822L1492.88 102.601L1481.96 103.061L1478.89 111.602L1475.21 103.345L1464.29 103.806Z" fill="#9FFFEA" fill-opacity="0.75"/>
<path d="M1439.49 92.9803L1445.76 88.977L1443.13 83.0794L1449.63 86.5028L1455.91 82.4994L1453.65 88.6185L1460.16 92.0419L1452.26 92.4004L1450.01 98.5195L1447.38 92.6219L1439.49 92.9803Z" fill="#9FFFEA" fill-opacity="0.75"/>
<path d="M1470.11 72.0126L1479.57 65.6823L1475.23 55.9513L1485.41 61.77L1494.87 55.4397L1491.7 65.3661L1501.88 71.1848L1489.75 71.501L1486.58 81.4275L1482.25 71.6964L1470.11 72.0126Z" fill="#9FFFEA" fill-opacity="0.75"/>
<path d="M674.016 636.375C674.016 641.837 669.587 646.266 664.125 646.266V646.266C658.662 646.266 654.234 641.837 654.234 636.375V616.339C654.234 610.876 658.662 606.448 664.125 606.448V606.448C669.587 606.448 674.016 610.876 674.016 616.339V636.375Z" fill="#9E97F3" fill-opacity="0.6"/>
<path d="M644.863 616.306C644.863 618.031 643.465 619.43 641.74 619.43V619.43C640.015 619.43 638.616 618.031 638.616 616.306V593.123C638.616 591.398 640.015 589.999 641.74 589.999V589.999C643.465 589.999 644.863 591.398 644.863 593.123V616.306Z" fill="#9E97F3" fill-opacity="0.6"/>
<path d="M647.987 651.084C647.987 657.985 642.394 663.578 635.494 663.578V663.578C628.594 663.578 623 657.985 623 651.084V646.641C623 639.741 628.594 634.148 635.494 634.148V634.148C642.394 634.148 647.987 639.741 647.987 646.641V651.084Z" fill="#9E97F3" fill-opacity="0.6"/>
<rect x="371" y="615.332" width="5.46983" height="23.703" fill="#F6FCB1" fill-opacity="0.75"/>
<rect x="381.158" y="631.332" width="16.4095" height="15.407" fill="#F6FCB1" fill-opacity="0.75"/>
<rect x="387.409" y="610" width="7.03263" height="17.1847" fill="#F6FCB1" fill-opacity="0.75"/>
<path d="M500 27.2033C500 21.7408 504.428 17.3125 509.891 17.3125V17.3125C515.353 17.3125 519.782 21.7408 519.782 27.2033V47.2394C519.782 52.7019 515.353 57.1302 509.891 57.1302V57.1302C504.428 57.1302 500 52.7019 500 47.2394V27.2033Z" fill="#9E97F3" fill-opacity="0.6"/>
<path d="M529.152 47.2699C529.152 45.5449 530.551 44.1465 532.276 44.1465V44.1465C534.001 44.1465 535.399 45.5449 535.399 47.2699V70.4535C535.399 72.1786 534.001 73.577 532.276 73.577V73.577C530.551 73.577 529.152 72.1786 529.152 70.4535V47.2699Z" fill="#9E97F3" fill-opacity="0.6"/>
<path d="M526.028 12.4937C526.028 5.5936 531.622 0 538.522 0V0C545.422 0 551.016 5.5936 551.016 12.4937V16.9368C551.016 23.8369 545.422 29.4305 538.522 29.4305V29.4305C531.622 29.4305 526.028 23.8369 526.028 16.9368V12.4937Z" fill="#9E97F3" fill-opacity="0.6"/>
<rect x="1065.57" y="216.407" width="5.46983" height="23.703" transform="rotate(-180 1065.57 216.407)" fill="#F6FCB1" fill-opacity="0.75"/>
<rect x="1055.41" y="200.407" width="16.4095" height="15.407" transform="rotate(-180 1055.41 200.407)" fill="#F6FCB1" fill-opacity="0.75"/>
<rect x="1049.16" y="221.739" width="7.03263" height="17.1847" transform="rotate(-180 1049.16 221.739)" fill="#F6FCB1" fill-opacity="0.75"/>
<defs>
<clipPath id="clip0_192_2129">
<rect width="173" height="173" fill="white" transform="translate(824 32)"/>
</clipPath>
<clipPath id="clip1_192_2129">
<rect width="140.35" height="141.938" fill="white" transform="matrix(0.713944 -0.700203 0.713944 0.700203 324 233.273)"/>
</clipPath>
<clipPath id="clip2_192_2129">
<rect width="162.57" height="156.691" fill="white" transform="translate(32 497)"/>
</clipPath>
</defs>
</svg>
