<svg width="480" height="637" viewBox="0 0 480 637" fill="none" xmlns="http://www.w3.org/2000/svg">
<path d="M204.283 92.8369C204.283 144.109 150.43 185.674 84 185.674C84 185.674 84.0008 144.109 84.0008 92.8369C84.0008 41.5645 84 0 84 0C150.43 0 204.283 41.5645 204.283 92.8369Z" fill="#FF9900" fill-opacity="0.5"/>
<ellipse cx="3.14016" cy="2.44235" rx="3.14016" ry="2.44235" transform="matrix(-0.689723 0.724073 -0.689723 -0.724073 63.7314 499.578)" fill="#00FF01" fill-opacity="0.2"/>
<ellipse cx="3.14016" cy="2.44235" rx="3.14016" ry="2.44235" transform="matrix(-0.689723 0.724073 -0.689723 -0.724073 53.5215 499.562)" fill="#00FF01" fill-opacity="0.2"/>
<ellipse cx="3.14016" cy="2.44235" rx="3.14016" ry="2.44235" transform="matrix(-0.689723 0.724073 -0.689723 -0.724073 43.3115 499.551)" fill="#00FF01" fill-opacity="0.2"/>
<ellipse cx="3.14016" cy="2.44235" rx="3.14016" ry="2.44235" transform="matrix(-0.689723 0.724073 -0.689723 -0.724073 33.1025 499.537)" fill="#00FF01" fill-opacity="0.2"/>
<ellipse cx="3.14016" cy="2.79125" rx="3.14016" ry="2.79125" transform="matrix(-0.689723 0.724073 -0.689723 -0.724073 73.8271 511.986)" fill="#00FF01" fill-opacity="0.2"/>
<ellipse cx="3.14016" cy="2.44235" rx="3.14016" ry="2.44235" transform="matrix(-0.689723 0.724073 -0.689723 -0.724073 63.7168 511.725)" fill="#00FF01" fill-opacity="0.2"/>
<ellipse cx="3.14016" cy="2.44235" rx="3.14016" ry="2.44235" transform="matrix(-0.689723 0.724073 -0.689723 -0.724073 53.5078 511.711)" fill="#00FF01" fill-opacity="0.2"/>
<ellipse cx="3.14016" cy="2.44235" rx="3.14016" ry="2.44235" transform="matrix(-0.689723 0.724073 -0.689723 -0.724073 43.2979 511.697)" fill="#00FF01" fill-opacity="0.2"/>
<ellipse cx="3.14016" cy="2.44235" rx="3.14016" ry="2.44235" transform="matrix(-0.689723 0.724073 -0.689723 -0.724073 33.0879 511.686)" fill="#00FF01" fill-opacity="0.2"/>
<ellipse cx="3.14016" cy="2.79125" rx="3.14016" ry="2.79125" transform="matrix(-0.689723 0.724073 -0.689723 -0.724073 23.459 511.924)" fill="#00FF01" fill-opacity="0.2"/>
<ellipse cx="3.14016" cy="2.79125" rx="3.14016" ry="2.79125" transform="matrix(-0.689723 0.724073 -0.689723 -0.724073 73.8145 523.422)" fill="#00FF01" fill-opacity="0.2"/>
<ellipse cx="3.14016" cy="2.44235" rx="3.14016" ry="2.44235" transform="matrix(-0.689723 0.724073 -0.689723 -0.724073 63.7041 523.156)" fill="#00FF01" fill-opacity="0.2"/>
<ellipse cx="3.14016" cy="2.44235" rx="3.14016" ry="2.44235" transform="matrix(-0.689723 0.724073 -0.689723 -0.724073 53.4951 523.145)" fill="#00FF01" fill-opacity="0.2"/>
<ellipse cx="3.14016" cy="2.44235" rx="3.14016" ry="2.44235" transform="matrix(-0.689723 0.724073 -0.689723 -0.724073 43.2852 523.133)" fill="#00FF01" fill-opacity="0.2"/>
<ellipse cx="3.14016" cy="2.44235" rx="3.14016" ry="2.44235" transform="matrix(-0.689723 0.724073 -0.689723 -0.724073 33.0752 523.121)" fill="#00FF01" fill-opacity="0.2"/>
<ellipse cx="3.14016" cy="2.79125" rx="3.14016" ry="2.79125" transform="matrix(-0.689723 0.724073 -0.689723 -0.724073 23.4453 523.359)" fill="#00FF01" fill-opacity="0.2"/>
<ellipse cx="3.14016" cy="2.79125" rx="3.14016" ry="2.79125" transform="matrix(-0.689723 0.724073 -0.689723 -0.724073 84.0098 535.58)" fill="#00FF01" fill-opacity="0.2"/>
<ellipse cx="3.14016" cy="2.79125" rx="3.14016" ry="2.79125" transform="matrix(-0.689723 0.724073 -0.689723 -0.724073 73.8008 535.566)" fill="#00FF01" fill-opacity="0.2"/>
<ellipse cx="3.14016" cy="2.44235" rx="3.14016" ry="2.44235" transform="matrix(-0.689723 0.724073 -0.689723 -0.724073 63.6904 535.307)" fill="#00FF01" fill-opacity="0.2"/>
<ellipse cx="3.14016" cy="2.44235" rx="3.14016" ry="2.44235" transform="matrix(-0.689723 0.724073 -0.689723 -0.724073 53.4805 535.289)" fill="#00FF01" fill-opacity="0.2"/>
<ellipse cx="3.14016" cy="2.44235" rx="3.14016" ry="2.44235" transform="matrix(-0.689723 0.724073 -0.689723 -0.724073 43.2715 535.277)" fill="#00FF01" fill-opacity="0.2"/>
<ellipse cx="3.14016" cy="2.44235" rx="3.14016" ry="2.44235" transform="matrix(-0.689723 0.724073 -0.689723 -0.724073 33.0605 535.266)" fill="#00FF01" fill-opacity="0.2"/>
<ellipse cx="3.14016" cy="2.79125" rx="3.14016" ry="2.79125" transform="matrix(-0.689723 0.724073 -0.689723 -0.724073 23.4316 535.506)" fill="#00FF01" fill-opacity="0.2"/>
<ellipse cx="3.14016" cy="2.79125" rx="3.14016" ry="2.79125" transform="matrix(-0.689723 0.724073 -0.689723 -0.724073 83.9971 547.016)" fill="#00FF01" fill-opacity="0.2"/>
<ellipse cx="3.14016" cy="2.79125" rx="3.14016" ry="2.79125" transform="matrix(-0.689723 0.724073 -0.689723 -0.724073 73.7871 547)" fill="#00FF01" fill-opacity="0.2"/>
<ellipse cx="3.14016" cy="2.44235" rx="3.14016" ry="2.44235" transform="matrix(-0.689723 0.724073 -0.689723 -0.724073 63.6777 546.736)" fill="#00FF01" fill-opacity="0.2"/>
<ellipse cx="3.14016" cy="2.44235" rx="3.14016" ry="2.44235" transform="matrix(-0.689723 0.724073 -0.689723 -0.724073 53.4678 546.725)" fill="#00FF01" fill-opacity="0.2"/>
<ellipse cx="3.14016" cy="2.44235" rx="3.14016" ry="2.44235" transform="matrix(-0.689723 0.724073 -0.689723 -0.724073 43.2578 546.711)" fill="#00FF01" fill-opacity="0.2"/>
<ellipse cx="3.14016" cy="2.44235" rx="3.14016" ry="2.44235" transform="matrix(-0.689723 0.724073 -0.689723 -0.724073 33.0479 546.699)" fill="#00FF01" fill-opacity="0.2"/>
<ellipse cx="3.14016" cy="2.79125" rx="3.14016" ry="2.79125" transform="matrix(-0.689723 0.724073 -0.689723 -0.724073 23.4189 546.939)" fill="#00FF01" fill-opacity="0.2"/>
<ellipse cx="3.14016" cy="2.79125" rx="3.14016" ry="2.79125" transform="matrix(-0.689723 0.724073 -0.689723 -0.724073 83.9834 559.164)" fill="#00FF01" fill-opacity="0.2"/>
<ellipse cx="3.14016" cy="2.79125" rx="3.14016" ry="2.79125" transform="matrix(-0.689723 0.724073 -0.689723 -0.724073 73.7734 559.15)" fill="#00FF01" fill-opacity="0.2"/>
<ellipse cx="3.14016" cy="2.44235" rx="3.14016" ry="2.44235" transform="matrix(-0.689723 0.724073 -0.689723 -0.724073 63.6631 558.885)" fill="#00FF01" fill-opacity="0.2"/>
<ellipse cx="3.14016" cy="2.44235" rx="3.14016" ry="2.44235" transform="matrix(-0.689723 0.724073 -0.689723 -0.724073 53.4541 558.873)" fill="#00FF01" fill-opacity="0.2"/>
<ellipse cx="3.14016" cy="2.44235" rx="3.14016" ry="2.44235" transform="matrix(-0.689723 0.724073 -0.689723 -0.724073 43.2432 558.859)" fill="#00FF01" fill-opacity="0.2"/>
<ellipse cx="3.14016" cy="2.44235" rx="3.14016" ry="2.44235" transform="matrix(-0.689723 0.724073 -0.689723 -0.724073 33.0332 558.846)" fill="#00FF01" fill-opacity="0.2"/>
<ellipse cx="3.14016" cy="2.79125" rx="3.14016" ry="2.79125" transform="matrix(-0.689723 0.724073 -0.689723 -0.724073 23.4053 559.084)" fill="#00FF01" fill-opacity="0.2"/>
<ellipse cx="3.14016" cy="2.79125" rx="3.14016" ry="2.79125" transform="matrix(-0.689723 0.724073 -0.689723 -0.724073 83.9707 570.596)" fill="#00FF01" fill-opacity="0.2"/>
<ellipse cx="3.14016" cy="2.79125" rx="3.14016" ry="2.79125" transform="matrix(-0.689723 0.724073 -0.689723 -0.724073 73.7607 570.582)" fill="#00FF01" fill-opacity="0.2"/>
<ellipse cx="3.14016" cy="2.44235" rx="3.14016" ry="2.44235" transform="matrix(-0.689723 0.724073 -0.689723 -0.724073 63.6504 570.318)" fill="#00FF01" fill-opacity="0.2"/>
<ellipse cx="3.14016" cy="2.44235" rx="3.14016" ry="2.44235" transform="matrix(-0.689723 0.724073 -0.689723 -0.724073 53.4404 570.305)" fill="#00FF01" fill-opacity="0.2"/>
<ellipse cx="3.14016" cy="2.44235" rx="3.14016" ry="2.44235" transform="matrix(-0.689723 0.724073 -0.689723 -0.724073 43.2305 570.293)" fill="#00FF01" fill-opacity="0.2"/>
<ellipse cx="3.14016" cy="2.44235" rx="3.14016" ry="2.44235" transform="matrix(-0.689723 0.724073 -0.689723 -0.724073 33.0205 570.279)" fill="#00FF01" fill-opacity="0.2"/>
<ellipse cx="3.14016" cy="2.79125" rx="3.14016" ry="2.79125" transform="matrix(-0.689723 0.724073 -0.689723 -0.724073 23.3926 570.52)" fill="#00FF01" fill-opacity="0.2"/>
<ellipse cx="3.14016" cy="2.79125" rx="3.14016" ry="2.79125" transform="matrix(-0.689723 0.724073 -0.689723 -0.724073 73.7461 582.729)" fill="#00FF01" fill-opacity="0.2"/>
<ellipse cx="3.14016" cy="2.44235" rx="3.14016" ry="2.44235" transform="matrix(-0.689723 0.724073 -0.689723 -0.724073 63.6367 582.465)" fill="#00FF01" fill-opacity="0.2"/>
<ellipse cx="3.14016" cy="2.44235" rx="3.14016" ry="2.44235" transform="matrix(-0.689723 0.724073 -0.689723 -0.724073 53.4258 582.451)" fill="#00FF01" fill-opacity="0.2"/>
<ellipse cx="3.14016" cy="2.44235" rx="3.14016" ry="2.44235" transform="matrix(-0.689723 0.724073 -0.689723 -0.724073 43.2168 582.438)" fill="#00FF01" fill-opacity="0.2"/>
<ellipse cx="3.14016" cy="2.44235" rx="3.14016" ry="2.44235" transform="matrix(-0.689723 0.724073 -0.689723 -0.724073 33.0068 582.426)" fill="#00FF01" fill-opacity="0.2"/>
<ellipse cx="3.14016" cy="2.79125" rx="3.14016" ry="2.79125" transform="matrix(-0.689723 0.724073 -0.689723 -0.724073 23.3779 582.664)" fill="#00FF01" fill-opacity="0.2"/>
<ellipse cx="3.14016" cy="2.79125" rx="3.14016" ry="2.79125" transform="matrix(-0.689723 0.724073 -0.689723 -0.724073 13.2227 535.492)" fill="#00FF01" fill-opacity="0.2"/>
<ellipse cx="3.14016" cy="2.79125" rx="3.14016" ry="2.79125" transform="matrix(-0.689723 0.724073 -0.689723 -0.724073 13.209 546.926)" fill="#00FF01" fill-opacity="0.2"/>
<ellipse cx="3.14016" cy="2.79125" rx="3.14016" ry="2.79125" transform="matrix(-0.689723 0.724073 -0.689723 -0.724073 13.1953 559.072)" fill="#00FF01" fill-opacity="0.2"/>
<ellipse cx="3.14016" cy="2.79125" rx="3.14016" ry="2.79125" transform="matrix(-0.689723 0.724073 -0.689723 -0.724073 13.1816 570.506)" fill="#00FF01" fill-opacity="0.2"/>
<ellipse cx="3.14016" cy="2.79125" rx="3.14016" ry="2.79125" transform="matrix(-0.689723 0.724073 -0.689723 -0.724073 73.7324 594.162)" fill="#00FF01" fill-opacity="0.2"/>
<ellipse cx="3.14016" cy="2.44235" rx="3.14016" ry="2.44235" transform="matrix(-0.689723 0.724073 -0.689723 -0.724073 63.624 593.896)" fill="#00FF01" fill-opacity="0.2"/>
<ellipse cx="3.14016" cy="2.44235" rx="3.14016" ry="2.44235" transform="matrix(-0.689723 0.724073 -0.689723 -0.724073 53.4131 593.885)" fill="#00FF01" fill-opacity="0.2"/>
<ellipse cx="3.14016" cy="2.44235" rx="3.14016" ry="2.44235" transform="matrix(-0.689723 0.724073 -0.689723 -0.724073 43.2031 593.873)" fill="#00FF01" fill-opacity="0.2"/>
<ellipse cx="3.14016" cy="2.44235" rx="3.14016" ry="2.44235" transform="matrix(-0.689723 0.724073 -0.689723 -0.724073 32.9941 593.859)" fill="#00FF01" fill-opacity="0.2"/>
<ellipse cx="3.14016" cy="2.79125" rx="3.14016" ry="2.79125" transform="matrix(-0.689723 0.724073 -0.689723 -0.724073 23.3643 594.098)" fill="#00FF01" fill-opacity="0.2"/>
<ellipse cx="3.14016" cy="2.44235" rx="3.14016" ry="2.44235" transform="matrix(-0.689723 0.724073 -0.689723 -0.724073 63.6084 606.045)" fill="#00FF01" fill-opacity="0.2"/>
<ellipse cx="3.14016" cy="2.44235" rx="3.14016" ry="2.44235" transform="matrix(-0.689723 0.724073 -0.689723 -0.724073 53.3994 606.033)" fill="#00FF01" fill-opacity="0.2"/>
<ellipse cx="3.14016" cy="2.44235" rx="3.14016" ry="2.44235" transform="matrix(-0.689723 0.724073 -0.689723 -0.724073 43.1895 606.018)" fill="#00FF01" fill-opacity="0.2"/>
<ellipse cx="3.14016" cy="2.44235" rx="3.14016" ry="2.44235" transform="matrix(-0.689723 0.724073 -0.689723 -0.724073 32.9795 606.006)" fill="#00FF01" fill-opacity="0.2"/>
<path d="M378.29 619.808L386.936 614.244L383.258 605.988L392.279 610.806L400.925 605.243L397.854 613.784L406.875 618.603L395.957 619.063L392.886 627.604L389.209 619.347L378.29 619.808Z" fill="#9FFFEA" fill-opacity="0.75"/>
<path d="M353.485 608.982L359.757 604.979L357.13 599.081L363.633 602.505L369.905 598.501L367.653 604.62L374.156 608.044L366.26 608.402L364.007 614.521L361.381 608.624L353.485 608.982Z" fill="#9FFFEA" fill-opacity="0.75"/>
<path d="M384.114 588.013L393.568 581.682L389.234 571.951L399.412 577.77L408.867 571.44L405.702 581.366L415.88 587.185L403.746 587.501L400.581 597.427L396.247 587.696L384.114 588.013Z" fill="#9FFFEA" fill-opacity="0.75"/>
<path d="M425.29 68.8057L433.936 63.2425L430.258 54.9859L439.279 59.8043L447.925 54.2412L444.854 62.7822L453.875 67.6007L442.957 68.0609L439.886 76.602L436.209 68.3454L425.29 68.8057Z" fill="#9FFFEA" fill-opacity="0.75"/>
<path d="M400.485 57.9803L406.757 53.977L404.13 48.0794L410.633 51.5028L416.905 47.4994L414.653 53.6185L421.156 57.0419L413.26 57.4004L411.007 63.5195L408.381 57.6219L400.485 57.9803Z" fill="#9FFFEA" fill-opacity="0.75"/>
<path d="M431.114 37.0126L440.568 30.6823L436.234 20.9513L446.412 26.77L455.867 20.4397L452.702 30.3661L462.88 36.1848L450.746 36.501L447.581 46.4275L443.247 36.6964L431.114 37.0126Z" fill="#9FFFEA" fill-opacity="0.75"/>
<rect x="26.5674" y="181.407" width="5.46983" height="23.703" transform="rotate(180 26.5674 181.407)" fill="#F6FCB1" fill-opacity="0.75"/>
<rect x="16.4092" y="165.407" width="16.4095" height="15.407" transform="rotate(180 16.4092 165.407)" fill="#F6FCB1" fill-opacity="0.75"/>
<rect x="10.1582" y="186.739" width="7.03263" height="17.1847" transform="rotate(180 10.1582 186.739)" fill="#F6FCB1" fill-opacity="0.75"/>
</svg>
