<svg width="526" height="625" viewBox="0 0 526 625" fill="none" xmlns="http://www.w3.org/2000/svg">
<path d="M209.262 120.704C177.085 120.704 151 85.0192 151 41C151 41 177.085 41.0005 209.262 41.0005C241.44 41.0005 267.524 41 267.524 41C267.524 85.0192 241.44 120.704 209.262 120.704Z" fill="#FAFF00" fill-opacity="0.5"/>
<g clip-path="url(#clip0_195_1683)">
<path d="M516.538 202.748C515.089 204.169 515.103 206.485 516.568 207.922C518.032 209.359 520.394 209.372 521.843 207.951C523.292 206.531 523.278 204.214 521.813 202.777C520.348 201.341 517.986 201.328 516.538 202.748Z" fill="#D5435D" fill-opacity="0.6"/>
<path d="M506.047 213.037C504.598 214.458 504.611 216.775 506.076 218.211C507.541 219.648 509.903 219.661 511.352 218.24C512.8 216.82 512.787 214.503 511.322 213.066C509.857 211.63 507.495 211.617 506.047 213.037Z" fill="#D5435D" fill-opacity="0.6"/>
<path d="M495.555 223.327C494.107 224.748 494.12 227.065 495.585 228.501C497.05 229.938 499.412 229.951 500.861 228.53C502.309 227.11 502.296 224.793 500.831 223.357C499.366 221.92 497.004 221.907 495.555 223.327Z" fill="#D5435D" fill-opacity="0.6"/>
<path d="M485.064 233.616C483.616 235.037 483.629 237.354 485.094 238.79C486.559 240.227 488.921 240.24 490.369 238.819C491.818 237.399 491.805 235.082 490.34 233.646C488.875 232.209 486.513 232.196 485.064 233.616Z" fill="#D5435D" fill-opacity="0.6"/>
<path d="M474.573 243.906C473.124 245.326 473.138 247.643 474.603 249.079C476.068 250.516 478.43 250.529 479.878 249.109C481.327 247.688 481.313 245.371 479.848 243.935C478.383 242.498 476.022 242.485 474.573 243.906Z" fill="#D5435D" fill-opacity="0.6"/>
<path d="M464.08 254.198C462.631 255.618 462.645 257.935 464.11 259.371C465.574 260.808 467.936 260.821 469.385 259.401C470.834 257.98 470.82 255.663 469.355 254.227C467.89 252.79 465.528 252.777 464.08 254.198Z" fill="#D5435D" fill-opacity="0.6"/>
<path d="M453.589 264.487C452.14 265.907 452.153 268.224 453.618 269.66C455.083 271.097 457.445 271.11 458.894 269.69C460.342 268.269 460.329 265.952 458.864 264.516C457.399 263.079 455.037 263.066 453.589 264.487Z" fill="#D5435D" fill-opacity="0.6"/>
<path d="M443.097 274.776C441.649 276.196 441.662 278.513 443.127 279.95C444.592 281.386 446.954 281.399 448.403 279.979C449.851 278.558 449.838 276.242 448.373 274.805C446.908 273.368 444.546 273.355 443.097 274.776Z" fill="#D5435D" fill-opacity="0.6"/>
<path d="M432.605 285.066C431.157 286.486 431.17 288.803 432.635 290.24C434.1 291.676 436.462 291.689 437.91 290.269C439.359 288.848 439.346 286.532 437.881 285.095C436.416 283.658 434.054 283.645 432.605 285.066Z" fill="#D5435D" fill-opacity="0.6"/>
<path d="M422.114 295.354C420.665 296.774 420.679 299.091 422.144 300.528C423.609 301.964 425.971 301.977 427.419 300.557C428.868 299.136 428.854 296.82 427.389 295.383C425.924 293.946 423.563 293.933 422.114 295.354Z" fill="#D5435D" fill-opacity="0.6"/>
<path d="M505.928 192.343C504.48 193.764 504.493 196.08 505.958 197.517C507.423 198.954 509.785 198.967 511.234 197.546C512.682 196.125 512.669 193.809 511.204 192.372C509.739 190.935 507.377 190.922 505.928 192.343Z" fill="#D5435D" fill-opacity="0.6"/>
<path d="M495.437 202.632C493.989 204.053 494.002 206.369 495.467 207.806C496.932 209.243 499.294 209.256 500.742 207.835C502.191 206.414 502.178 204.098 500.713 202.661C499.248 201.224 496.886 201.211 495.437 202.632Z" fill="#D5435D" fill-opacity="0.6"/>
<path d="M484.945 212.921C483.497 214.342 483.51 216.658 484.975 218.095C486.44 219.532 488.802 219.545 490.25 218.124C491.699 216.703 491.685 214.387 490.221 212.95C488.756 211.513 486.394 211.5 484.945 212.921Z" fill="#D5435D" fill-opacity="0.6"/>
<path d="M474.454 223.211C473.005 224.632 473.019 226.948 474.484 228.385C475.948 229.822 478.31 229.835 479.759 228.414C481.208 226.993 481.194 224.677 479.729 223.24C478.264 221.804 475.902 221.791 474.454 223.211Z" fill="#D5435D" fill-opacity="0.6"/>
<path d="M463.963 233.5C462.514 234.921 462.527 237.237 463.992 238.674C465.457 240.111 467.819 240.124 469.268 238.703C470.716 237.283 470.703 234.966 469.238 233.529C467.773 232.093 465.411 232.08 463.963 233.5Z" fill="#D5435D" fill-opacity="0.6"/>
<path d="M453.469 243.791C452.021 245.212 452.034 247.528 453.499 248.965C454.964 250.402 457.326 250.415 458.775 248.994C460.223 247.574 460.21 245.257 458.745 243.82C457.28 242.384 454.918 242.371 453.469 243.791Z" fill="#D5435D" fill-opacity="0.6"/>
<path d="M442.978 254.081C441.53 255.502 441.543 257.818 443.008 259.255C444.473 260.692 446.835 260.705 448.283 259.284C449.732 257.864 449.719 255.547 448.254 254.11C446.789 252.674 444.427 252.661 442.978 254.081Z" fill="#D5435D" fill-opacity="0.6"/>
<path d="M432.487 264.37C431.038 265.791 431.052 268.108 432.517 269.544C433.982 270.981 436.344 270.994 437.792 269.573C439.241 268.153 439.227 265.836 437.762 264.399C436.298 262.963 433.936 262.95 432.487 264.37Z" fill="#D5435D" fill-opacity="0.6"/>
<path d="M421.996 274.659C420.547 276.08 420.561 278.397 422.026 279.833C423.49 281.27 425.852 281.283 427.301 279.862C428.75 278.442 428.736 276.125 427.271 274.689C425.806 273.252 423.444 273.239 421.996 274.659Z" fill="#D5435D" fill-opacity="0.6"/>
<path d="M411.505 284.949C410.056 286.369 410.069 288.686 411.534 290.122C412.999 291.559 415.361 291.572 416.81 290.151C418.258 288.731 418.245 286.414 416.78 284.978C415.315 283.541 412.953 283.528 411.505 284.949Z" fill="#D5435D" fill-opacity="0.6"/>
<path d="M495.318 181.937C493.87 183.357 493.883 185.674 495.348 187.111C496.813 188.547 499.175 188.56 500.623 187.14C502.072 185.719 502.059 183.403 500.594 181.966C499.129 180.529 496.767 180.516 495.318 181.937Z" fill="#D5435D" fill-opacity="0.6"/>
<path d="M484.827 192.226C483.378 193.647 483.392 195.963 484.857 197.4C486.322 198.837 488.683 198.85 490.132 197.429C491.581 196.008 491.567 193.692 490.102 192.255C488.637 190.818 486.275 190.805 484.827 192.226Z" fill="#D5435D" fill-opacity="0.6"/>
<path d="M474.336 202.516C472.887 203.937 472.9 206.253 474.365 207.69C475.83 209.127 478.192 209.14 479.641 207.719C481.089 206.298 481.076 203.982 479.611 202.545C478.146 201.108 475.784 201.095 474.336 202.516Z" fill="#D5435D" fill-opacity="0.6"/>
<path d="M463.844 212.805C462.396 214.226 462.409 216.542 463.874 217.979C465.339 219.416 467.701 219.429 469.15 218.008C470.598 216.587 470.585 214.271 469.12 212.834C467.655 211.397 465.293 211.384 463.844 212.805Z" fill="#D5435D" fill-opacity="0.6"/>
<path d="M453.353 223.094C451.905 224.515 451.918 226.831 453.383 228.268C454.848 229.705 457.21 229.718 458.658 228.297C460.107 226.876 460.094 224.56 458.629 223.123C457.164 221.686 454.802 221.673 453.353 223.094Z" fill="#D5435D" fill-opacity="0.6"/>
<path d="M442.859 233.386C441.411 234.807 441.424 237.123 442.889 238.56C444.354 239.997 446.716 240.01 448.164 238.589C449.613 237.168 449.6 234.852 448.135 233.415C446.67 231.978 444.308 231.965 442.859 233.386Z" fill="#D5435D" fill-opacity="0.6"/>
<path d="M432.368 243.675C430.919 245.096 430.933 247.412 432.398 248.849C433.863 250.286 436.224 250.299 437.673 248.878C439.122 247.457 439.108 245.141 437.643 243.704C436.178 242.267 433.817 242.254 432.368 243.675Z" fill="#D5435D" fill-opacity="0.6"/>
<path d="M421.877 253.964C420.428 255.385 420.441 257.701 421.906 259.138C423.371 260.575 425.733 260.588 427.182 259.167C428.63 257.746 428.617 255.43 427.152 253.993C425.687 252.556 423.325 252.543 421.877 253.964Z" fill="#D5435D" fill-opacity="0.6"/>
<path d="M411.386 264.254C409.937 265.675 409.95 267.991 411.415 269.428C412.88 270.865 415.242 270.878 416.691 269.457C418.139 268.036 418.126 265.72 416.661 264.283C415.196 262.847 412.834 262.833 411.386 264.254Z" fill="#D5435D" fill-opacity="0.6"/>
<path d="M400.894 274.543C399.446 275.964 399.459 278.28 400.924 279.717C402.389 281.154 404.751 281.167 406.199 279.746C407.648 278.326 407.635 276.009 406.17 274.572C404.705 273.136 402.343 273.123 400.894 274.543Z" fill="#D5435D" fill-opacity="0.6"/>
<path d="M484.707 171.531C483.258 172.951 483.272 175.268 484.736 176.704C486.201 178.141 488.563 178.154 490.012 176.734C491.46 175.313 491.447 172.996 489.982 171.56C488.517 170.123 486.155 170.11 484.707 171.531Z" fill="#D5435D" fill-opacity="0.6"/>
<path d="M474.217 181.82C472.768 183.24 472.781 185.557 474.246 186.993C475.711 188.43 478.073 188.443 479.522 187.023C480.97 185.602 480.957 183.285 479.492 181.849C478.027 180.412 475.665 180.399 474.217 181.82Z" fill="#D5435D" fill-opacity="0.6"/>
<path d="M463.724 192.109C462.276 193.529 462.289 195.846 463.754 197.283C465.219 198.719 467.581 198.732 469.029 197.312C470.478 195.891 470.465 193.575 469 192.138C467.535 190.701 465.173 190.688 463.724 192.109Z" fill="#D5435D" fill-opacity="0.6"/>
<path d="M453.233 202.399C451.785 203.819 451.798 206.136 453.263 207.573C454.728 209.009 457.09 209.022 458.538 207.602C459.987 206.181 459.974 203.865 458.509 202.428C457.044 200.991 454.682 200.978 453.233 202.399Z" fill="#D5435D" fill-opacity="0.6"/>
<path d="M442.742 212.688C441.293 214.108 441.307 216.425 442.772 217.862C444.237 219.298 446.598 219.311 448.047 217.891C449.496 216.47 449.482 214.154 448.017 212.717C446.552 211.28 444.191 211.267 442.742 212.688Z" fill="#D5435D" fill-opacity="0.6"/>
<path d="M432.249 222.979C430.8 224.399 430.813 226.716 432.278 228.153C433.743 229.589 436.105 229.602 437.554 228.182C439.002 226.761 438.989 224.445 437.524 223.008C436.059 221.571 433.697 221.558 432.249 222.979Z" fill="#D5435D" fill-opacity="0.6"/>
<path d="M421.758 233.269C420.309 234.69 420.322 237.006 421.787 238.443C423.252 239.879 425.614 239.893 427.063 238.472C428.511 237.051 428.498 234.735 427.033 233.298C425.568 231.861 423.206 231.848 421.758 233.269Z" fill="#D5435D" fill-opacity="0.6"/>
<path d="M411.266 243.558C409.818 244.979 409.831 247.295 411.296 248.732C412.761 250.169 415.123 250.182 416.571 248.761C418.02 247.34 418.007 245.024 416.542 243.587C415.077 242.15 412.715 242.137 411.266 243.558Z" fill="#D5435D" fill-opacity="0.6"/>
<path d="M400.775 253.847C399.327 255.268 399.34 257.584 400.805 259.021C402.27 260.458 404.632 260.471 406.08 259.05C407.529 257.629 407.516 255.313 406.051 253.876C404.586 252.439 402.224 252.426 400.775 253.847Z" fill="#D5435D" fill-opacity="0.6"/>
<path d="M390.284 264.136C388.835 265.557 388.849 267.873 390.314 269.31C391.779 270.747 394.14 270.76 395.589 269.339C397.038 267.918 397.024 265.602 395.559 264.165C394.094 262.728 391.733 262.715 390.284 264.136Z" fill="#D5435D" fill-opacity="0.6"/>
<path d="M474.097 161.124C472.649 162.545 472.662 164.861 474.127 166.298C475.592 167.735 477.954 167.748 479.403 166.327C480.851 164.907 480.838 162.59 479.373 161.153C477.908 159.717 475.546 159.704 474.097 161.124Z" fill="#D5435D" fill-opacity="0.6"/>
<path d="M463.606 171.413C462.158 172.834 462.171 175.15 463.636 176.587C465.101 178.024 467.463 178.037 468.911 176.616C470.36 175.196 470.347 172.879 468.882 171.442C467.417 170.006 465.055 169.993 463.606 171.413Z" fill="#D5435D" fill-opacity="0.6"/>
<path d="M453.114 181.703C451.665 183.124 451.679 185.441 453.144 186.877C454.609 188.314 456.971 188.327 458.419 186.906C459.868 185.486 459.854 183.169 458.389 181.732C456.924 180.296 454.563 180.283 453.114 181.703Z" fill="#D5435D" fill-opacity="0.6"/>
<path d="M442.624 191.992C441.175 193.413 441.188 195.73 442.653 197.166C444.118 198.603 446.48 198.616 447.929 197.195C449.377 195.775 449.364 193.458 447.899 192.022C446.434 190.585 444.072 190.572 442.624 191.992Z" fill="#D5435D" fill-opacity="0.6"/>
<path d="M432.133 202.282C430.684 203.702 430.697 206.019 432.162 207.455C433.627 208.892 435.989 208.905 437.438 207.485C438.886 206.064 438.873 203.747 437.408 202.311C435.943 200.874 433.581 200.861 432.133 202.282Z" fill="#D5435D" fill-opacity="0.6"/>
<path d="M421.638 212.574C420.19 213.994 420.203 216.311 421.668 217.747C423.133 219.184 425.495 219.197 426.944 217.776C428.392 216.356 428.379 214.039 426.914 212.603C425.449 211.166 423.087 211.153 421.638 212.574Z" fill="#D5435D" fill-opacity="0.6"/>
<path d="M411.147 222.863C409.699 224.283 409.712 226.6 411.177 228.036C412.642 229.473 415.004 229.486 416.452 228.066C417.901 226.645 417.888 224.328 416.423 222.892C414.958 221.455 412.596 221.442 411.147 222.863Z" fill="#D5435D" fill-opacity="0.6"/>
<path d="M400.656 233.152C399.207 234.572 399.221 236.889 400.686 238.326C402.151 239.762 404.513 239.775 405.961 238.355C407.41 236.934 407.396 234.617 405.931 233.181C404.466 231.744 402.105 231.731 400.656 233.152Z" fill="#D5435D" fill-opacity="0.6"/>
<path d="M390.165 243.442C388.716 244.862 388.73 247.179 390.194 248.616C391.659 250.052 394.021 250.065 395.47 248.645C396.918 247.224 396.905 244.908 395.44 243.471C393.975 242.034 391.613 242.021 390.165 243.442Z" fill="#D5435D" fill-opacity="0.6"/>
<path d="M379.674 253.731C378.225 255.151 378.238 257.468 379.703 258.905C381.168 260.341 383.53 260.354 384.979 258.934C386.427 257.513 386.414 255.197 384.949 253.76C383.484 252.323 381.122 252.31 379.674 253.731Z" fill="#D5435D" fill-opacity="0.6"/>
<path d="M463.487 150.719C462.038 152.14 462.052 154.456 463.517 155.893C464.982 157.33 467.344 157.343 468.792 155.922C470.241 154.501 470.227 152.185 468.762 150.748C467.298 149.311 464.936 149.298 463.487 150.719Z" fill="#D5435D" fill-opacity="0.6"/>
<path d="M452.996 161.008C451.547 162.429 451.561 164.745 453.026 166.182C454.49 167.619 456.852 167.632 458.301 166.211C459.75 164.79 459.736 162.474 458.271 161.037C456.806 159.6 454.444 159.587 452.996 161.008Z" fill="#D5435D" fill-opacity="0.6"/>
<path d="M442.505 171.297C441.056 172.718 441.069 175.034 442.534 176.471C443.999 177.908 446.361 177.921 447.81 176.5C449.258 175.079 449.245 172.763 447.78 171.326C446.315 169.889 443.953 169.876 442.505 171.297Z" fill="#D5435D" fill-opacity="0.6"/>
<path d="M432.013 181.587C430.565 183.008 430.578 185.324 432.043 186.761C433.508 188.198 435.87 188.211 437.319 186.79C438.767 185.369 438.754 183.053 437.289 181.616C435.824 180.18 433.462 180.166 432.013 181.587Z" fill="#D5435D" fill-opacity="0.6"/>
<path d="M421.522 191.876C420.074 193.297 420.087 195.613 421.552 197.05C423.017 198.487 425.379 198.5 426.827 197.079C428.276 195.659 428.263 193.342 426.798 191.905C425.333 190.469 422.971 190.456 421.522 191.876Z" fill="#D5435D" fill-opacity="0.6"/>
<path d="M411.029 202.167C409.58 203.588 409.594 205.904 411.059 207.341C412.524 208.778 414.886 208.791 416.334 207.37C417.783 205.95 417.769 203.633 416.304 202.196C414.84 200.76 412.478 200.747 411.029 202.167Z" fill="#D5435D" fill-opacity="0.6"/>
<path d="M400.538 212.457C399.089 213.878 399.103 216.194 400.568 217.631C402.032 219.068 404.394 219.081 405.843 217.66C407.292 216.24 407.278 213.923 405.813 212.486C404.348 211.05 401.986 211.037 400.538 212.457Z" fill="#D5435D" fill-opacity="0.6"/>
<path d="M390.047 222.746C388.598 224.167 388.611 226.483 390.076 227.92C391.541 229.357 393.903 229.37 395.352 227.949C396.8 226.529 396.787 224.212 395.322 222.775C393.857 221.339 391.495 221.326 390.047 222.746Z" fill="#D5435D" fill-opacity="0.6"/>
<path d="M379.554 233.035C378.106 234.456 378.119 236.773 379.584 238.209C381.049 239.646 383.411 239.659 384.86 238.238C386.308 236.818 386.295 234.501 384.83 233.065C383.365 231.628 381.003 231.615 379.554 233.035Z" fill="#D5435D" fill-opacity="0.6"/>
<path d="M369.063 243.324C367.615 244.745 367.628 247.062 369.093 248.498C370.558 249.935 372.92 249.948 374.368 248.527C375.817 247.107 375.804 244.79 374.339 243.354C372.874 241.917 370.512 241.904 369.063 243.324Z" fill="#D5435D" fill-opacity="0.6"/>
<path d="M452.878 140.313C451.429 141.733 451.442 144.05 452.907 145.487C454.372 146.923 456.734 146.936 458.183 145.516C459.631 144.095 459.618 141.779 458.153 140.342C456.688 138.905 454.326 138.892 452.878 140.313Z" fill="#D5435D" fill-opacity="0.6"/>
<path d="M442.386 150.602C440.938 152.023 440.951 154.339 442.416 155.776C443.881 157.212 446.243 157.226 447.692 155.805C449.14 154.384 449.127 152.068 447.662 150.631C446.197 149.194 443.835 149.181 442.386 150.602Z" fill="#D5435D" fill-opacity="0.6"/>
<path d="M431.894 160.892C430.446 162.313 430.459 164.629 431.924 166.066C433.389 167.503 435.751 167.516 437.199 166.095C438.648 164.674 438.635 162.358 437.17 160.921C435.705 159.484 433.343 159.471 431.894 160.892Z" fill="#D5435D" fill-opacity="0.6"/>
<path d="M421.403 171.181C419.955 172.602 419.968 174.918 421.433 176.355C422.898 177.792 425.26 177.805 426.708 176.384C428.157 174.963 428.143 172.647 426.679 171.21C425.214 169.773 422.852 169.76 421.403 171.181Z" fill="#D5435D" fill-opacity="0.6"/>
<path d="M410.912 181.47C409.463 182.891 409.477 185.207 410.942 186.644C412.407 188.081 414.768 188.094 416.217 186.673C417.666 185.252 417.652 182.936 416.187 181.499C414.722 180.062 412.36 180.049 410.912 181.47Z" fill="#D5435D" fill-opacity="0.6"/>
<path d="M400.419 191.762C398.97 193.183 398.983 195.499 400.448 196.936C401.913 198.373 404.275 198.386 405.724 196.965C407.172 195.544 407.159 193.228 405.694 191.791C404.229 190.354 401.867 190.341 400.419 191.762Z" fill="#D5435D" fill-opacity="0.6"/>
<path d="M389.927 202.051C388.479 203.472 388.492 205.788 389.957 207.225C391.422 208.662 393.784 208.675 395.233 207.254C396.681 205.833 396.668 203.517 395.203 202.08C393.738 200.643 391.376 200.63 389.927 202.051Z" fill="#D5435D" fill-opacity="0.6"/>
<path d="M379.436 212.34C377.988 213.761 378.001 216.077 379.466 217.514C380.931 218.951 383.293 218.964 384.741 217.543C386.19 216.122 386.177 213.806 384.712 212.369C383.247 210.932 380.885 210.919 379.436 212.34Z" fill="#D5435D" fill-opacity="0.6"/>
<path d="M368.945 222.63C367.496 224.051 367.51 226.367 368.975 227.804C370.44 229.241 372.802 229.254 374.25 227.833C375.699 226.412 375.685 224.096 374.221 222.659C372.756 221.222 370.394 221.209 368.945 222.63Z" fill="#D5435D" fill-opacity="0.6"/>
<path d="M358.454 232.919C357.005 234.34 357.019 236.656 358.484 238.093C359.948 239.53 362.31 239.543 363.759 238.122C365.208 236.702 365.194 234.385 363.729 232.948C362.264 231.512 359.902 231.499 358.454 232.919Z" fill="#D5435D" fill-opacity="0.6"/>
<path d="M442.266 129.906C440.818 131.326 440.831 133.643 442.296 135.079C443.761 136.516 446.123 136.529 447.571 135.109C449.02 133.688 449.007 131.371 447.542 129.935C446.077 128.498 443.715 128.485 442.266 129.906Z" fill="#D5435D" fill-opacity="0.6"/>
<path d="M431.775 140.196C430.327 141.616 430.34 143.933 431.805 145.369C433.27 146.806 435.632 146.819 437.08 145.399C438.529 143.978 438.516 141.661 437.051 140.225C435.586 138.788 433.224 138.775 431.775 140.196Z" fill="#D5435D" fill-opacity="0.6"/>
<path d="M421.284 150.485C419.835 151.905 419.849 154.222 421.314 155.659C422.779 157.095 425.14 157.108 426.589 155.688C428.038 154.267 428.024 151.951 426.559 150.514C425.094 149.077 422.733 149.064 421.284 150.485Z" fill="#D5435D" fill-opacity="0.6"/>
<path d="M410.793 160.774C409.344 162.194 409.357 164.511 410.822 165.948C412.287 167.384 414.649 167.397 416.098 165.977C417.546 164.556 417.533 162.24 416.068 160.803C414.603 159.366 412.241 159.353 410.793 160.774Z" fill="#D5435D" fill-opacity="0.6"/>
<path d="M400.302 171.064C398.853 172.484 398.866 174.801 400.331 176.238C401.796 177.674 404.158 177.687 405.607 176.267C407.055 174.846 407.042 172.53 405.577 171.093C404.112 169.656 401.75 169.643 400.302 171.064Z" fill="#D5435D" fill-opacity="0.6"/>
<path d="M389.807 181.355C388.359 182.775 388.372 185.092 389.837 186.529C391.302 187.965 393.664 187.978 395.112 186.558C396.561 185.137 396.548 182.821 395.083 181.384C393.618 179.947 391.256 179.934 389.807 181.355Z" fill="#D5435D" fill-opacity="0.6"/>
<path d="M379.316 191.645C377.868 193.065 377.881 195.382 379.346 196.819C380.811 198.255 383.173 198.268 384.621 196.848C386.07 195.427 386.057 193.111 384.592 191.674C383.127 190.237 380.765 190.224 379.316 191.645Z" fill="#D5435D" fill-opacity="0.6"/>
<path d="M368.825 201.934C367.376 203.355 367.39 205.671 368.855 207.108C370.32 208.545 372.681 208.558 374.13 207.137C375.579 205.716 375.565 203.4 374.1 201.963C372.635 200.526 370.274 200.513 368.825 201.934Z" fill="#D5435D" fill-opacity="0.6"/>
<path d="M358.334 212.223C356.885 213.644 356.898 215.96 358.363 217.397C359.828 218.834 362.19 218.847 363.639 217.426C365.087 216.005 365.074 213.689 363.609 212.252C362.144 210.815 359.782 210.802 358.334 212.223Z" fill="#D5435D" fill-opacity="0.6"/>
<path d="M347.843 222.512C346.394 223.933 346.407 226.249 347.872 227.686C349.337 229.123 351.699 229.136 353.148 227.715C354.596 226.294 354.583 223.978 353.118 222.541C351.653 221.104 349.291 221.091 347.843 222.512Z" fill="#D5435D" fill-opacity="0.6"/>
<path d="M431.656 119.5C430.207 120.921 430.221 123.237 431.686 124.674C433.151 126.111 435.513 126.124 436.961 124.703C438.41 123.283 438.396 120.966 436.931 119.529C435.466 118.093 433.105 118.08 431.656 119.5Z" fill="#D5435D" fill-opacity="0.6"/>
<path d="M421.166 129.789C419.717 131.21 419.73 133.526 421.195 134.963C422.66 136.4 425.022 136.413 426.471 134.992C427.919 133.572 427.906 131.255 426.441 129.818C424.976 128.382 422.614 128.369 421.166 129.789Z" fill="#D5435D" fill-opacity="0.6"/>
<path d="M410.674 140.079C409.225 141.5 409.238 143.816 410.703 145.253C412.168 146.69 414.53 146.703 415.979 145.282C417.427 143.862 417.414 141.545 415.949 140.108C414.484 138.672 412.122 138.659 410.674 140.079Z" fill="#D5435D" fill-opacity="0.6"/>
<path d="M400.182 150.368C398.734 151.789 398.747 154.106 400.212 155.542C401.677 156.979 404.039 156.992 405.487 155.571C406.936 154.151 406.923 151.834 405.458 150.398C403.993 148.961 401.631 148.948 400.182 150.368Z" fill="#D5435D" fill-opacity="0.6"/>
<path d="M389.691 160.657C388.243 162.078 388.256 164.395 389.721 165.831C391.186 167.268 393.548 167.281 394.996 165.86C396.445 164.44 396.432 162.123 394.967 160.687C393.502 159.25 391.14 159.237 389.691 160.657Z" fill="#D5435D" fill-opacity="0.6"/>
<path d="M379.198 170.949C377.749 172.37 377.763 174.687 379.228 176.123C380.693 177.56 383.055 177.573 384.503 176.152C385.952 174.732 385.938 172.415 384.473 170.979C383.008 169.542 380.647 169.529 379.198 170.949Z" fill="#D5435D" fill-opacity="0.6"/>
<path d="M368.707 181.239C367.258 182.659 367.271 184.976 368.736 186.412C370.201 187.849 372.563 187.862 374.012 186.442C375.46 185.021 375.447 182.704 373.982 181.268C372.517 179.831 370.155 179.818 368.707 181.239Z" fill="#D5435D" fill-opacity="0.6"/>
<path d="M358.216 191.528C356.767 192.948 356.78 195.265 358.245 196.702C359.71 198.138 362.072 198.151 363.521 196.731C364.969 195.31 364.956 192.993 363.491 191.557C362.026 190.12 359.664 190.107 358.216 191.528Z" fill="#D5435D" fill-opacity="0.6"/>
<path d="M347.724 201.818C346.276 203.238 346.289 205.555 347.754 206.992C349.219 208.428 351.581 208.441 353.029 207.021C354.478 205.6 354.465 203.284 353 201.847C351.535 200.41 349.173 200.397 347.724 201.818Z" fill="#D5435D" fill-opacity="0.6"/>
<path d="M337.233 212.107C335.785 213.527 335.798 215.844 337.263 217.281C338.728 218.717 341.09 218.73 342.538 217.31C343.987 215.889 343.974 213.573 342.509 212.136C341.044 210.699 338.682 210.686 337.233 212.107Z" fill="#D5435D" fill-opacity="0.6"/>
<path d="M421.047 109.095C419.598 110.516 419.611 112.832 421.076 114.269C422.541 115.706 424.903 115.719 426.352 114.298C427.8 112.877 427.787 110.561 426.322 109.124C424.857 107.687 422.495 107.674 421.047 109.095Z" fill="#D5435D" fill-opacity="0.6"/>
<path d="M410.555 119.384C409.107 120.805 409.12 123.121 410.585 124.558C412.05 125.995 414.412 126.008 415.861 124.587C417.309 123.166 417.296 120.85 415.831 119.413C414.366 117.976 412.004 117.963 410.555 119.384Z" fill="#D5435D" fill-opacity="0.6"/>
<path d="M400.063 129.673C398.615 131.094 398.628 133.41 400.093 134.847C401.558 136.284 403.92 136.297 405.368 134.876C406.817 133.455 406.804 131.139 405.339 129.702C403.874 128.265 401.512 128.252 400.063 129.673Z" fill="#D5435D" fill-opacity="0.6"/>
<path d="M389.573 139.962C388.124 141.383 388.138 143.699 389.603 145.136C391.068 146.573 393.43 146.586 394.878 145.165C396.327 143.744 396.313 141.428 394.848 139.991C393.383 138.555 391.022 138.541 389.573 139.962Z" fill="#D5435D" fill-opacity="0.6"/>
<path d="M379.082 150.252C377.633 151.673 377.647 153.989 379.111 155.426C380.576 156.863 382.938 156.876 384.387 155.455C385.835 154.035 385.822 151.718 384.357 150.281C382.892 148.845 380.53 148.832 379.082 150.252Z" fill="#D5435D" fill-opacity="0.6"/>
<path d="M368.588 160.543C367.139 161.964 367.152 164.28 368.617 165.717C370.082 167.154 372.444 167.167 373.893 165.746C375.341 164.326 375.328 162.009 373.863 160.572C372.398 159.136 370.036 159.123 368.588 160.543Z" fill="#D5435D" fill-opacity="0.6"/>
<path d="M358.096 170.833C356.648 172.254 356.661 174.57 358.126 176.007C359.591 177.444 361.953 177.457 363.402 176.036C364.85 174.616 364.837 172.299 363.372 170.862C361.907 169.426 359.545 169.413 358.096 170.833Z" fill="#D5435D" fill-opacity="0.6"/>
<path d="M347.605 181.122C346.157 182.543 346.17 184.859 347.635 186.296C349.1 187.733 351.462 187.746 352.91 186.325C354.359 184.905 354.346 182.588 352.881 181.151C351.416 179.715 349.054 179.702 347.605 181.122Z" fill="#D5435D" fill-opacity="0.6"/>
<path d="M337.114 191.411C335.665 192.832 335.679 195.149 337.144 196.585C338.609 198.022 340.971 198.035 342.419 196.614C343.868 195.194 343.854 192.877 342.389 191.44C340.924 190.004 338.563 189.991 337.114 191.411Z" fill="#D5435D" fill-opacity="0.6"/>
<path d="M326.623 201.7C325.174 203.121 325.188 205.438 326.652 206.874C328.117 208.311 330.479 208.324 331.928 206.903C333.376 205.483 333.363 203.166 331.898 201.73C330.433 200.293 328.071 200.28 326.623 201.7Z" fill="#D5435D" fill-opacity="0.6"/>
</g>
<g opacity="0.7" clip-path="url(#clip1_195_1683)">
<path d="M189.451 615.654C187.1 615.654 185.195 617.491 185.195 619.756C185.195 622.021 187.1 623.857 189.451 623.857C191.801 623.857 193.706 622.021 193.706 619.756C193.706 617.491 191.801 615.654 189.451 615.654Z" fill="#E1EAF1"/>
<path d="M172.429 615.654C170.079 615.654 168.174 617.491 168.174 619.756C168.174 622.021 170.079 623.857 172.429 623.857C174.779 623.857 176.685 622.021 176.685 619.756C176.685 617.491 174.779 615.654 172.429 615.654Z" fill="#E1EAF1"/>
<path d="M155.408 615.654C153.057 615.654 151.152 617.491 151.152 619.756C151.152 622.021 153.057 623.857 155.408 623.857C157.758 623.857 159.663 622.021 159.663 619.756C159.663 617.491 157.758 615.654 155.408 615.654Z" fill="#E1EAF1"/>
<path d="M138.386 615.654C136.036 615.654 134.131 617.491 134.131 619.756C134.131 622.021 136.036 623.857 138.386 623.857C140.736 623.857 142.642 622.021 142.642 619.756C142.642 617.491 140.736 615.654 138.386 615.654Z" fill="#E1EAF1"/>
<path d="M121.366 615.654C119.015 615.654 117.11 617.491 117.11 619.756C117.11 622.021 119.015 623.857 121.366 623.857C123.716 623.857 125.621 622.021 125.621 619.756C125.621 617.491 123.716 615.654 121.366 615.654Z" fill="#E1EAF1"/>
<path d="M104.34 615.654C101.99 615.654 100.085 617.491 100.085 619.756C100.085 622.021 101.99 623.857 104.34 623.857C106.69 623.857 108.596 622.021 108.596 619.756C108.596 617.491 106.69 615.654 104.34 615.654Z" fill="#E1EAF1"/>
<path d="M87.3188 615.654C84.9686 615.654 83.0634 617.491 83.0634 619.756C83.0634 622.021 84.9686 623.857 87.3188 623.857C89.669 623.857 91.5742 622.021 91.5742 619.756C91.5742 617.491 89.669 615.654 87.3188 615.654Z" fill="#E1EAF1"/>
<path d="M70.2983 615.654C67.9481 615.654 66.0429 617.491 66.0429 619.756C66.0429 622.021 67.9481 623.857 70.2983 623.857C72.6485 623.857 74.5537 622.021 74.5537 619.756C74.5537 617.491 72.6485 615.654 70.2983 615.654Z" fill="#E1EAF1"/>
<path d="M53.2768 615.654C50.9266 615.654 49.0214 617.491 49.0214 619.756C49.0214 622.021 50.9266 623.857 53.2768 623.857C55.627 623.857 57.5322 622.021 57.5322 619.756C57.5322 617.491 55.627 615.654 53.2768 615.654Z" fill="#E1EAF1"/>
<path d="M36.2553 615.654C33.9051 615.654 31.9999 617.491 31.9999 619.756C31.9999 622.021 33.9051 623.857 36.2553 623.857C38.6055 623.857 40.5107 622.021 40.5107 619.756C40.5107 617.491 38.6055 615.654 36.2553 615.654Z" fill="#E1EAF1"/>
<path d="M189.451 599.248C187.1 599.248 185.195 601.084 185.195 603.35C185.195 605.615 187.1 607.451 189.451 607.451C191.801 607.451 193.706 605.615 193.706 603.35C193.706 601.084 191.801 599.248 189.451 599.248Z" fill="#E1EAF1"/>
<path d="M172.429 599.248C170.079 599.248 168.174 601.084 168.174 603.35C168.174 605.615 170.079 607.451 172.429 607.451C174.779 607.451 176.685 605.615 176.685 603.35C176.685 601.084 174.779 599.248 172.429 599.248Z" fill="#E1EAF1"/>
<path d="M155.408 599.248C153.057 599.248 151.152 601.084 151.152 603.35C151.152 605.615 153.057 607.451 155.408 607.451C157.758 607.451 159.663 605.615 159.663 603.35C159.663 601.084 157.758 599.248 155.408 599.248Z" fill="#E1EAF1"/>
<path d="M138.386 599.248C136.036 599.248 134.131 601.084 134.131 603.35C134.131 605.615 136.036 607.451 138.386 607.451C140.736 607.451 142.642 605.615 142.642 603.35C142.642 601.084 140.736 599.248 138.386 599.248Z" fill="#E1EAF1"/>
<path d="M121.366 599.248C119.015 599.248 117.11 601.084 117.11 603.35C117.11 605.615 119.015 607.451 121.366 607.451C123.716 607.451 125.621 605.615 125.621 603.35C125.621 601.084 123.716 599.248 121.366 599.248Z" fill="#E1EAF1"/>
<path d="M104.34 599.248C101.99 599.248 100.085 601.084 100.085 603.35C100.085 605.615 101.99 607.451 104.34 607.451C106.69 607.451 108.596 605.615 108.596 603.35C108.596 601.084 106.69 599.248 104.34 599.248Z" fill="#E1EAF1"/>
<path d="M87.3188 599.248C84.9686 599.248 83.0634 601.084 83.0634 603.35C83.0634 605.615 84.9686 607.451 87.3188 607.451C89.669 607.451 91.5742 605.615 91.5742 603.35C91.5742 601.084 89.669 599.248 87.3188 599.248Z" fill="#E1EAF1"/>
<path d="M70.2983 599.248C67.9481 599.248 66.0429 601.084 66.0429 603.35C66.0429 605.615 67.9481 607.451 70.2983 607.451C72.6485 607.451 74.5537 605.615 74.5537 603.35C74.5537 601.084 72.6485 599.248 70.2983 599.248Z" fill="#E1EAF1"/>
<path d="M53.2768 599.248C50.9266 599.248 49.0214 601.084 49.0214 603.35C49.0214 605.615 50.9266 607.451 53.2768 607.451C55.627 607.451 57.5322 605.615 57.5322 603.35C57.5322 601.084 55.627 599.248 53.2768 599.248Z" fill="#E1EAF1"/>
<path d="M36.2553 599.248C33.9051 599.248 31.9999 601.084 31.9999 603.35C31.9999 605.615 33.9051 607.451 36.2553 607.451C38.6055 607.451 40.5107 605.615 40.5107 603.35C40.5107 601.084 38.6055 599.248 36.2553 599.248Z" fill="#E1EAF1"/>
<path d="M189.451 582.844C187.1 582.844 185.195 584.68 185.195 586.945C185.195 589.211 187.1 591.047 189.451 591.047C191.801 591.047 193.706 589.211 193.706 586.945C193.706 584.68 191.801 582.844 189.451 582.844Z" fill="#E1EAF1"/>
<path d="M172.429 582.844C170.079 582.844 168.174 584.68 168.174 586.945C168.174 589.211 170.079 591.047 172.429 591.047C174.779 591.047 176.685 589.211 176.685 586.945C176.685 584.68 174.779 582.844 172.429 582.844Z" fill="#E1EAF1"/>
<path d="M155.408 582.844C153.057 582.844 151.152 584.68 151.152 586.945C151.152 589.211 153.057 591.047 155.408 591.047C157.758 591.047 159.663 589.211 159.663 586.945C159.663 584.68 157.758 582.844 155.408 582.844Z" fill="#E1EAF1"/>
<path d="M138.386 582.844C136.036 582.844 134.131 584.68 134.131 586.945C134.131 589.211 136.036 591.047 138.386 591.047C140.736 591.047 142.642 589.211 142.642 586.945C142.642 584.68 140.736 582.844 138.386 582.844Z" fill="#E1EAF1"/>
<path d="M121.366 582.844C119.015 582.844 117.11 584.68 117.11 586.945C117.11 589.211 119.015 591.047 121.366 591.047C123.716 591.047 125.621 589.211 125.621 586.945C125.621 584.68 123.716 582.844 121.366 582.844Z" fill="#E1EAF1"/>
<path d="M104.34 582.844C101.99 582.844 100.085 584.68 100.085 586.945C100.085 589.211 101.99 591.047 104.34 591.047C106.69 591.047 108.596 589.211 108.596 586.945C108.596 584.68 106.69 582.844 104.34 582.844Z" fill="#E1EAF1"/>
<path d="M87.3188 582.844C84.9686 582.844 83.0634 584.68 83.0634 586.945C83.0634 589.211 84.9686 591.047 87.3188 591.047C89.669 591.047 91.5742 589.211 91.5742 586.945C91.5742 584.68 89.669 582.844 87.3188 582.844Z" fill="#E1EAF1"/>
<path d="M70.2983 582.844C67.9481 582.844 66.0429 584.68 66.0429 586.945C66.0429 589.211 67.9481 591.047 70.2983 591.047C72.6485 591.047 74.5537 589.211 74.5537 586.945C74.5537 584.68 72.6485 582.844 70.2983 582.844Z" fill="#E1EAF1"/>
<path d="M53.2768 582.844C50.9266 582.844 49.0214 584.68 49.0214 586.945C49.0214 589.211 50.9266 591.047 53.2768 591.047C55.627 591.047 57.5322 589.211 57.5322 586.945C57.5322 584.68 55.627 582.844 53.2768 582.844Z" fill="#E1EAF1"/>
<path d="M36.2553 582.844C33.9051 582.844 31.9999 584.68 31.9999 586.945C31.9999 589.211 33.9051 591.047 36.2553 591.047C38.6055 591.047 40.5107 589.211 40.5107 586.945C40.5107 584.68 38.6055 582.844 36.2553 582.844Z" fill="#E1EAF1"/>
<path d="M189.451 566.436C187.1 566.436 185.195 568.272 185.195 570.537C185.195 572.802 187.1 574.639 189.451 574.639C191.801 574.639 193.706 572.802 193.706 570.537C193.706 568.272 191.801 566.436 189.451 566.436Z" fill="#E1EAF1"/>
<path d="M172.429 566.436C170.079 566.436 168.174 568.272 168.174 570.537C168.174 572.802 170.079 574.639 172.429 574.639C174.779 574.639 176.685 572.802 176.685 570.537C176.685 568.272 174.779 566.436 172.429 566.436Z" fill="#E1EAF1"/>
<path d="M155.408 566.436C153.057 566.436 151.152 568.272 151.152 570.537C151.152 572.802 153.057 574.639 155.408 574.639C157.758 574.639 159.663 572.802 159.663 570.537C159.663 568.272 157.758 566.436 155.408 566.436Z" fill="#E1EAF1"/>
<path d="M138.386 566.436C136.036 566.436 134.131 568.272 134.131 570.537C134.131 572.802 136.036 574.639 138.386 574.639C140.736 574.639 142.642 572.802 142.642 570.537C142.642 568.272 140.736 566.436 138.386 566.436Z" fill="#E1EAF1"/>
<path d="M121.366 566.436C119.015 566.436 117.11 568.272 117.11 570.537C117.11 572.802 119.015 574.639 121.366 574.639C123.716 574.639 125.621 572.802 125.621 570.537C125.621 568.272 123.716 566.436 121.366 566.436Z" fill="#E1EAF1"/>
<path d="M104.34 566.436C101.99 566.436 100.085 568.272 100.085 570.537C100.085 572.802 101.99 574.639 104.34 574.639C106.69 574.639 108.596 572.802 108.596 570.537C108.596 568.272 106.69 566.436 104.34 566.436Z" fill="#E1EAF1"/>
<path d="M87.3188 566.436C84.9686 566.436 83.0634 568.272 83.0634 570.537C83.0634 572.802 84.9686 574.639 87.3188 574.639C89.669 574.639 91.5742 572.802 91.5742 570.537C91.5742 568.272 89.669 566.436 87.3188 566.436Z" fill="#E1EAF1"/>
<path d="M70.2983 566.436C67.9481 566.436 66.0429 568.272 66.0429 570.537C66.0429 572.802 67.9481 574.639 70.2983 574.639C72.6485 574.639 74.5537 572.802 74.5537 570.537C74.5537 568.272 72.6485 566.436 70.2983 566.436Z" fill="#E1EAF1"/>
<path d="M53.2768 566.436C50.9266 566.436 49.0214 568.272 49.0214 570.537C49.0214 572.802 50.9266 574.639 53.2768 574.639C55.627 574.639 57.5322 572.802 57.5322 570.537C57.5322 568.272 55.627 566.436 53.2768 566.436Z" fill="#E1EAF1"/>
<path d="M36.2553 566.436C33.9051 566.436 31.9999 568.272 31.9999 570.537C31.9999 572.802 33.9051 574.639 36.2553 574.639C38.6055 574.639 40.5107 572.802 40.5107 570.537C40.5107 568.272 38.6055 566.436 36.2553 566.436Z" fill="#E1EAF1"/>
<path d="M189.451 550.029C187.1 550.029 185.195 551.866 185.195 554.131C185.195 556.396 187.1 558.232 189.451 558.232C191.801 558.232 193.706 556.396 193.706 554.131C193.706 551.866 191.801 550.029 189.451 550.029Z" fill="#E1EAF1"/>
<path d="M172.429 550.029C170.079 550.029 168.174 551.866 168.174 554.131C168.174 556.396 170.079 558.232 172.429 558.232C174.779 558.232 176.685 556.396 176.685 554.131C176.685 551.866 174.779 550.029 172.429 550.029Z" fill="#E1EAF1"/>
<path d="M155.408 550.029C153.057 550.029 151.152 551.866 151.152 554.131C151.152 556.396 153.057 558.232 155.408 558.232C157.758 558.232 159.663 556.396 159.663 554.131C159.663 551.866 157.758 550.029 155.408 550.029Z" fill="#E1EAF1"/>
<path d="M138.386 550.029C136.036 550.029 134.131 551.866 134.131 554.131C134.131 556.396 136.036 558.232 138.386 558.232C140.736 558.232 142.642 556.396 142.642 554.131C142.642 551.866 140.736 550.029 138.386 550.029Z" fill="#E1EAF1"/>
<path d="M121.366 550.029C119.015 550.029 117.11 551.866 117.11 554.131C117.11 556.396 119.015 558.232 121.366 558.232C123.716 558.232 125.621 556.396 125.621 554.131C125.621 551.866 123.716 550.029 121.366 550.029Z" fill="#E1EAF1"/>
<path d="M104.34 550.029C101.99 550.029 100.085 551.866 100.085 554.131C100.085 556.396 101.99 558.232 104.34 558.232C106.69 558.232 108.596 556.396 108.596 554.131C108.596 551.866 106.69 550.029 104.34 550.029Z" fill="#E1EAF1"/>
<path d="M87.3188 550.029C84.9686 550.029 83.0634 551.866 83.0634 554.131C83.0634 556.396 84.9686 558.232 87.3188 558.232C89.669 558.232 91.5742 556.396 91.5742 554.131C91.5742 551.866 89.669 550.029 87.3188 550.029Z" fill="#E1EAF1"/>
<path d="M70.2983 550.029C67.9481 550.029 66.0429 551.866 66.0429 554.131C66.0429 556.396 67.9481 558.232 70.2983 558.232C72.6485 558.232 74.5537 556.396 74.5537 554.131C74.5537 551.866 72.6485 550.029 70.2983 550.029Z" fill="#E1EAF1"/>
<path d="M53.2768 550.029C50.9266 550.029 49.0214 551.866 49.0214 554.131C49.0214 556.396 50.9266 558.232 53.2768 558.232C55.627 558.232 57.5322 556.396 57.5322 554.131C57.5322 551.866 55.627 550.029 53.2768 550.029Z" fill="#E1EAF1"/>
<path d="M36.2553 550.029C33.9051 550.029 31.9999 551.866 31.9999 554.131C31.9999 556.396 33.9051 558.232 36.2553 558.232C38.6055 558.232 40.5107 556.396 40.5107 554.131C40.5107 551.866 38.6055 550.029 36.2553 550.029Z" fill="#E1EAF1"/>
<path d="M189.451 533.625C187.1 533.625 185.195 535.461 185.195 537.727C185.195 539.992 187.1 541.828 189.451 541.828C191.801 541.828 193.706 539.992 193.706 537.727C193.706 535.461 191.801 533.625 189.451 533.625Z" fill="#E1EAF1"/>
<path d="M172.429 533.625C170.079 533.625 168.174 535.461 168.174 537.727C168.174 539.992 170.079 541.828 172.429 541.828C174.779 541.828 176.685 539.992 176.685 537.727C176.685 535.461 174.779 533.625 172.429 533.625Z" fill="#E1EAF1"/>
<path d="M155.408 533.625C153.057 533.625 151.152 535.461 151.152 537.727C151.152 539.992 153.057 541.828 155.408 541.828C157.758 541.828 159.663 539.992 159.663 537.727C159.663 535.461 157.758 533.625 155.408 533.625Z" fill="#E1EAF1"/>
<path d="M138.386 533.625C136.036 533.625 134.131 535.461 134.131 537.727C134.131 539.992 136.036 541.828 138.386 541.828C140.736 541.828 142.642 539.992 142.642 537.727C142.642 535.461 140.736 533.625 138.386 533.625Z" fill="#E1EAF1"/>
<path d="M121.366 533.625C119.015 533.625 117.11 535.461 117.11 537.727C117.11 539.992 119.015 541.828 121.366 541.828C123.716 541.828 125.621 539.992 125.621 537.727C125.621 535.461 123.716 533.625 121.366 533.625Z" fill="#E1EAF1"/>
<path d="M104.34 533.625C101.99 533.625 100.085 535.461 100.085 537.727C100.085 539.992 101.99 541.828 104.34 541.828C106.69 541.828 108.596 539.992 108.596 537.727C108.596 535.461 106.69 533.625 104.34 533.625Z" fill="#E1EAF1"/>
<path d="M87.3188 533.625C84.9686 533.625 83.0634 535.461 83.0634 537.727C83.0634 539.992 84.9686 541.828 87.3188 541.828C89.669 541.828 91.5742 539.992 91.5742 537.727C91.5742 535.461 89.669 533.625 87.3188 533.625Z" fill="#E1EAF1"/>
<path d="M70.2983 533.625C67.9481 533.625 66.0429 535.461 66.0429 537.727C66.0429 539.992 67.9481 541.828 70.2983 541.828C72.6485 541.828 74.5537 539.992 74.5537 537.727C74.5537 535.461 72.6485 533.625 70.2983 533.625Z" fill="#E1EAF1"/>
<path d="M53.2768 533.625C50.9266 533.625 49.0214 535.461 49.0214 537.727C49.0214 539.992 50.9266 541.828 53.2768 541.828C55.627 541.828 57.5322 539.992 57.5322 537.727C57.5322 535.461 55.627 533.625 53.2768 533.625Z" fill="#E1EAF1"/>
<path d="M36.2553 533.625C33.9051 533.625 31.9999 535.461 31.9999 537.727C31.9999 539.992 33.9051 541.828 36.2553 541.828C38.6055 541.828 40.5107 539.992 40.5107 537.727C40.5107 535.461 38.6055 533.625 36.2553 533.625Z" fill="#E1EAF1"/>
<path d="M189.451 517.219C187.1 517.219 185.195 519.055 185.195 521.32C185.195 523.586 187.1 525.422 189.451 525.422C191.801 525.422 193.706 523.586 193.706 521.32C193.706 519.055 191.801 517.219 189.451 517.219Z" fill="#E1EAF1"/>
<path d="M172.429 517.219C170.079 517.219 168.174 519.055 168.174 521.32C168.174 523.586 170.079 525.422 172.429 525.422C174.779 525.422 176.685 523.586 176.685 521.32C176.685 519.055 174.779 517.219 172.429 517.219Z" fill="#E1EAF1"/>
<path d="M155.408 517.219C153.057 517.219 151.152 519.055 151.152 521.32C151.152 523.586 153.057 525.422 155.408 525.422C157.758 525.422 159.663 523.586 159.663 521.32C159.663 519.055 157.758 517.219 155.408 517.219Z" fill="#E1EAF1"/>
<path d="M138.386 517.219C136.036 517.219 134.131 519.055 134.131 521.32C134.131 523.586 136.036 525.422 138.386 525.422C140.736 525.422 142.642 523.586 142.642 521.32C142.642 519.055 140.736 517.219 138.386 517.219Z" fill="#E1EAF1"/>
<path d="M121.366 517.219C119.015 517.219 117.11 519.055 117.11 521.32C117.11 523.586 119.015 525.422 121.366 525.422C123.716 525.422 125.621 523.586 125.621 521.32C125.621 519.055 123.716 517.219 121.366 517.219Z" fill="#E1EAF1"/>
<path d="M104.34 517.219C101.99 517.219 100.085 519.055 100.085 521.32C100.085 523.586 101.99 525.422 104.34 525.422C106.69 525.422 108.596 523.586 108.596 521.32C108.596 519.055 106.69 517.219 104.34 517.219Z" fill="#E1EAF1"/>
<path d="M87.3188 517.219C84.9686 517.219 83.0634 519.055 83.0634 521.32C83.0634 523.586 84.9686 525.422 87.3188 525.422C89.669 525.422 91.5742 523.586 91.5742 521.32C91.5742 519.055 89.669 517.219 87.3188 517.219Z" fill="#E1EAF1"/>
<path d="M70.2983 517.219C67.9481 517.219 66.0429 519.055 66.0429 521.32C66.0429 523.586 67.9481 525.422 70.2983 525.422C72.6485 525.422 74.5537 523.586 74.5537 521.32C74.5537 519.055 72.6485 517.219 70.2983 517.219Z" fill="#E1EAF1"/>
<path d="M53.2768 517.219C50.9266 517.219 49.0214 519.055 49.0214 521.32C49.0214 523.586 50.9266 525.422 53.2768 525.422C55.627 525.422 57.5322 523.586 57.5322 521.32C57.5322 519.055 55.627 517.219 53.2768 517.219Z" fill="#E1EAF1"/>
<path d="M36.2553 517.219C33.9051 517.219 31.9999 519.055 31.9999 521.32C31.9999 523.586 33.9051 525.422 36.2553 525.422C38.6055 525.422 40.5107 523.586 40.5107 521.32C40.5107 519.055 38.6055 517.219 36.2553 517.219Z" fill="#E1EAF1"/>
<path d="M189.451 500.811C187.1 500.811 185.195 502.647 185.195 504.912C185.195 507.177 187.1 509.014 189.451 509.014C191.801 509.014 193.706 507.177 193.706 504.912C193.706 502.647 191.801 500.811 189.451 500.811Z" fill="#E1EAF1"/>
<path d="M172.429 500.811C170.079 500.811 168.174 502.647 168.174 504.912C168.174 507.177 170.079 509.014 172.429 509.014C174.779 509.014 176.685 507.177 176.685 504.912C176.685 502.647 174.779 500.811 172.429 500.811Z" fill="#E1EAF1"/>
<path d="M155.408 500.811C153.057 500.811 151.152 502.647 151.152 504.912C151.152 507.177 153.057 509.014 155.408 509.014C157.758 509.014 159.663 507.177 159.663 504.912C159.663 502.647 157.758 500.811 155.408 500.811Z" fill="#E1EAF1"/>
<path d="M138.386 500.811C136.036 500.811 134.131 502.647 134.131 504.912C134.131 507.177 136.036 509.014 138.386 509.014C140.736 509.014 142.642 507.177 142.642 504.912C142.642 502.647 140.736 500.811 138.386 500.811Z" fill="#E1EAF1"/>
<path d="M121.366 500.811C119.015 500.811 117.11 502.647 117.11 504.912C117.11 507.177 119.015 509.014 121.366 509.014C123.716 509.014 125.621 507.177 125.621 504.912C125.621 502.647 123.716 500.811 121.366 500.811Z" fill="#E1EAF1"/>
<path d="M104.34 500.811C101.99 500.811 100.085 502.647 100.085 504.912C100.085 507.177 101.99 509.014 104.34 509.014C106.69 509.014 108.596 507.177 108.596 504.912C108.596 502.647 106.69 500.811 104.34 500.811Z" fill="#E1EAF1"/>
<path d="M87.3188 500.811C84.9686 500.811 83.0634 502.647 83.0634 504.912C83.0634 507.177 84.9686 509.014 87.3188 509.014C89.669 509.014 91.5742 507.177 91.5742 504.912C91.5742 502.647 89.669 500.811 87.3188 500.811Z" fill="#E1EAF1"/>
<path d="M70.2983 500.811C67.9481 500.811 66.0429 502.647 66.0429 504.912C66.0429 507.177 67.9481 509.014 70.2983 509.014C72.6485 509.014 74.5537 507.177 74.5537 504.912C74.5537 502.647 72.6485 500.811 70.2983 500.811Z" fill="#E1EAF1"/>
<path d="M53.2768 500.811C50.9266 500.811 49.0214 502.647 49.0214 504.912C49.0214 507.177 50.9266 509.014 53.2768 509.014C55.627 509.014 57.5322 507.177 57.5322 504.912C57.5322 502.647 55.627 500.811 53.2768 500.811Z" fill="#E1EAF1"/>
<path d="M36.2553 500.811C33.9051 500.811 31.9999 502.647 31.9999 504.912C31.9999 507.177 33.9051 509.014 36.2553 509.014C38.6055 509.014 40.5107 507.177 40.5107 504.912C40.5107 502.647 38.6055 500.811 36.2553 500.811Z" fill="#E1EAF1"/>
<path d="M189.451 484.406C187.1 484.406 185.195 486.243 185.195 488.508C185.195 490.773 187.1 492.609 189.451 492.609C191.801 492.609 193.706 490.773 193.706 488.508C193.706 486.243 191.801 484.406 189.451 484.406Z" fill="#E1EAF1"/>
<path d="M172.429 484.406C170.079 484.406 168.174 486.243 168.174 488.508C168.174 490.773 170.079 492.609 172.429 492.609C174.779 492.609 176.685 490.773 176.685 488.508C176.685 486.243 174.779 484.406 172.429 484.406Z" fill="#E1EAF1"/>
<path d="M155.408 484.406C153.057 484.406 151.152 486.243 151.152 488.508C151.152 490.773 153.057 492.609 155.408 492.609C157.758 492.609 159.663 490.773 159.663 488.508C159.663 486.243 157.758 484.406 155.408 484.406Z" fill="#E1EAF1"/>
<path d="M138.386 484.406C136.036 484.406 134.131 486.243 134.131 488.508C134.131 490.773 136.036 492.609 138.386 492.609C140.736 492.609 142.642 490.773 142.642 488.508C142.642 486.243 140.736 484.406 138.386 484.406Z" fill="#E1EAF1"/>
<path d="M121.366 484.406C119.015 484.406 117.11 486.243 117.11 488.508C117.11 490.773 119.015 492.609 121.366 492.609C123.716 492.609 125.621 490.773 125.621 488.508C125.621 486.243 123.716 484.406 121.366 484.406Z" fill="#E1EAF1"/>
<path d="M104.34 484.406C101.99 484.406 100.085 486.243 100.085 488.508C100.085 490.773 101.99 492.609 104.34 492.609C106.69 492.609 108.596 490.773 108.596 488.508C108.596 486.243 106.69 484.406 104.34 484.406Z" fill="#E1EAF1"/>
<path d="M87.3188 484.406C84.9686 484.406 83.0634 486.243 83.0634 488.508C83.0634 490.773 84.9686 492.609 87.3188 492.609C89.669 492.609 91.5742 490.773 91.5742 488.508C91.5742 486.243 89.669 484.406 87.3188 484.406Z" fill="#E1EAF1"/>
<path d="M70.2983 484.406C67.9481 484.406 66.0429 486.243 66.0429 488.508C66.0429 490.773 67.9481 492.609 70.2983 492.609C72.6485 492.609 74.5537 490.773 74.5537 488.508C74.5537 486.243 72.6485 484.406 70.2983 484.406Z" fill="#E1EAF1"/>
<path d="M53.2768 484.406C50.9266 484.406 49.0214 486.243 49.0214 488.508C49.0214 490.773 50.9266 492.609 53.2768 492.609C55.627 492.609 57.5322 490.773 57.5322 488.508C57.5322 486.243 55.627 484.406 53.2768 484.406Z" fill="#E1EAF1"/>
<path d="M36.2553 484.406C33.9051 484.406 31.9999 486.243 31.9999 488.508C31.9999 490.773 33.9051 492.609 36.2553 492.609C38.6055 492.609 40.5107 490.773 40.5107 488.508C40.5107 486.243 38.6055 484.406 36.2553 484.406Z" fill="#E1EAF1"/>
<path d="M189.451 468C187.1 468 185.195 469.836 185.195 472.102C185.195 474.367 187.1 476.203 189.451 476.203C191.801 476.203 193.706 474.367 193.706 472.102C193.706 469.836 191.801 468 189.451 468Z" fill="#E1EAF1"/>
<path d="M172.429 468C170.079 468 168.174 469.836 168.174 472.102C168.174 474.367 170.079 476.203 172.429 476.203C174.779 476.203 176.685 474.367 176.685 472.102C176.685 469.836 174.779 468 172.429 468Z" fill="#E1EAF1"/>
<path d="M155.408 468C153.057 468 151.152 469.836 151.152 472.102C151.152 474.367 153.057 476.203 155.408 476.203C157.758 476.203 159.663 474.367 159.663 472.102C159.663 469.836 157.758 468 155.408 468Z" fill="#E1EAF1"/>
<path d="M138.386 468C136.036 468 134.131 469.836 134.131 472.102C134.131 474.367 136.036 476.203 138.386 476.203C140.736 476.203 142.642 474.367 142.642 472.102C142.642 469.836 140.736 468 138.386 468Z" fill="#E1EAF1"/>
<path d="M121.366 468C119.015 468 117.11 469.836 117.11 472.102C117.11 474.367 119.015 476.203 121.366 476.203C123.716 476.203 125.621 474.367 125.621 472.102C125.621 469.836 123.716 468 121.366 468Z" fill="#E1EAF1"/>
<path d="M104.34 468C101.99 468 100.085 469.836 100.085 472.102C100.085 474.367 101.99 476.203 104.34 476.203C106.69 476.203 108.596 474.367 108.596 472.102C108.596 469.836 106.69 468 104.34 468Z" fill="#E1EAF1"/>
<path d="M87.3188 468C84.9686 468 83.0634 469.836 83.0634 472.102C83.0634 474.367 84.9686 476.203 87.3188 476.203C89.669 476.203 91.5742 474.367 91.5742 472.102C91.5742 469.836 89.669 468 87.3188 468Z" fill="#E1EAF1"/>
<path d="M70.2983 468C67.9481 468 66.0429 469.836 66.0429 472.102C66.0429 474.367 67.9481 476.203 70.2983 476.203C72.6485 476.203 74.5537 474.367 74.5537 472.102C74.5537 469.836 72.6485 468 70.2983 468Z" fill="#E1EAF1"/>
<path d="M53.2768 468C50.9266 468 49.0214 469.836 49.0214 472.102C49.0214 474.367 50.9266 476.203 53.2768 476.203C55.627 476.203 57.5322 474.367 57.5322 472.102C57.5322 469.836 55.627 468 53.2768 468Z" fill="#E1EAF1"/>
<path d="M36.2553 468C33.9051 468 31.9999 469.836 31.9999 472.102C31.9999 474.367 33.9051 476.203 36.2553 476.203C38.6055 476.203 40.5107 474.367 40.5107 472.102C40.5107 469.836 38.6055 468 36.2553 468Z" fill="#E1EAF1"/>
</g>
<path d="M53.8791 16.7744L45.2332 22.3376L48.9108 30.5942L39.8898 25.7758L31.244 31.3389L34.3145 22.7978L25.2936 17.9794L36.2123 17.5192L39.2829 8.97807L42.9604 17.2347L53.8791 16.7744Z" fill="#9FFFEA" fill-opacity="0.75"/>
<path d="M78.6838 27.5998L72.4119 31.6031L75.0387 37.5007L68.5356 34.0773L62.2636 38.0806L64.5164 31.9615L58.0133 28.5381L65.9088 28.1797L68.1616 22.0606L70.7884 27.9582L78.6838 27.5998Z" fill="#9FFFEA" fill-opacity="0.75"/>
<path d="M48.0554 48.5674L38.6005 54.8977L42.9348 64.6288L32.7571 58.8101L23.3022 65.1404L26.467 55.214L16.2893 49.3953L28.4229 49.0791L31.5876 39.1526L35.9218 48.8836L48.0554 48.5674Z" fill="#9FFFEA" fill-opacity="0.75"/>
<rect x="371" y="586.332" width="5.46983" height="23.703" fill="#F6FCB1" fill-opacity="0.75"/>
<rect x="381.158" y="602.332" width="16.4095" height="15.407" fill="#F6FCB1" fill-opacity="0.75"/>
<rect x="387.409" y="581" width="7.03263" height="17.1847" fill="#F6FCB1" fill-opacity="0.75"/>
<defs>
<clipPath id="clip0_195_1683">
<rect width="140.35" height="141.938" fill="white" transform="matrix(0.713944 -0.700203 0.713944 0.700203 324 204.273)"/>
</clipPath>
<clipPath id="clip1_195_1683">
<rect width="162.57" height="156.691" fill="white" transform="translate(32 468)"/>
</clipPath>
</defs>
</svg>
