<svg width="65" height="65" viewBox="0 0 65 65" fill="none" xmlns="http://www.w3.org/2000/svg">
<g clip-path="url(#clip0_662_6059)">
<path fill-rule="evenodd" clip-rule="evenodd" d="M17.2017 -0.0625C27.358 -0.0625 37.5142 -0.0625 47.6705 -0.0625C48.462 0.463323 48.7159 1.18272 48.4322 2.0957C48.2025 1.76064 47.9063 1.48558 47.5435 1.27051C37.4719 1.18587 27.4002 1.18587 17.3287 1.27051C17.0118 1.48208 16.7156 1.71482 16.44 1.96875C16.1877 1.11647 16.4416 0.439386 17.2017 -0.0625Z" fill="#8EE5B1"/>
<path opacity="0.99" fill-rule="evenodd" clip-rule="evenodd" d="M48.4336 2.0957C48.2922 2.47006 48.0383 2.74513 47.6719 2.9209C46.1067 2.98436 44.541 3.00551 42.9746 2.98438C42.522 2.82104 42.0565 2.82104 41.5781 2.98438C38.7429 2.98438 35.9075 2.98438 33.0723 2.98438C32.6491 2.81511 32.2259 2.81511 31.8027 2.98438C28.9675 2.98438 26.1321 2.98438 23.2969 2.98438C22.8185 2.82104 22.353 2.82104 21.9004 2.98438C20.334 3.00551 18.7683 2.98436 17.2031 2.9209C16.782 2.73298 16.5281 2.4156 16.4414 1.96875C16.717 1.71482 17.0132 1.48208 17.3301 1.27051C27.4017 1.18587 37.4733 1.18587 47.5449 1.27051C47.9078 1.48558 48.2039 1.76064 48.4336 2.0957Z" fill="#66E573"/>
<path opacity="0.98" fill-rule="evenodd" clip-rule="evenodd" d="M23.2949 2.98188C23.2949 5.60558 23.2949 8.22927 23.2949 10.853C22.8294 10.853 22.364 10.853 21.8984 10.853C21.8984 8.22927 21.8984 5.60558 21.8984 2.98188C22.351 2.81854 22.8166 2.81854 23.2949 2.98188Z" fill="#167714"/>
<path fill-rule="evenodd" clip-rule="evenodd" d="M33.0703 2.98242C33.0703 4.29426 33.0703 5.60612 33.0703 6.91797C32.6472 6.41015 32.2239 6.41015 31.8008 6.91797C31.8008 5.60612 31.8008 4.29426 31.8008 2.98242C32.2239 2.81315 32.6472 2.81315 33.0703 2.98242Z" fill="#5862C7"/>
<path opacity="0.98" fill-rule="evenodd" clip-rule="evenodd" d="M42.9746 2.98188C42.9746 6.45193 42.9746 9.92199 42.9746 13.392C42.5091 13.392 42.0437 13.392 41.5781 13.392C41.5781 9.92199 41.5781 6.45193 41.5781 2.98188C42.0565 2.81854 42.522 2.81854 42.9746 2.98188Z" fill="#167714"/>
<path opacity="0.965" fill-rule="evenodd" clip-rule="evenodd" d="M33.0714 6.91992C33.3178 7.47621 33.614 8.00518 33.9601 8.50684C34.6225 8.69231 35.2997 8.81927 35.9913 8.8877C36.4075 9.17816 36.471 9.53786 36.1818 9.9668C35.7825 10.3774 35.3594 10.7582 34.9122 11.1094C34.845 11.8589 34.9084 12.5994 35.1027 13.3311C35.051 13.7005 34.8394 13.9332 34.4679 14.0293C33.7909 13.6907 33.1137 13.3523 32.4366 13.0137C31.7596 13.3523 31.0824 13.6907 30.4054 14.0293C30.1822 13.9496 29.9918 13.8226 29.8341 13.6484C29.9316 12.8076 29.9739 11.9612 29.9611 11.1094C29.5139 10.7582 29.0908 10.3774 28.6915 9.9668C28.4023 9.53786 28.4658 9.17816 28.882 8.8877C29.5736 8.81927 30.2508 8.69231 30.9132 8.50684C31.2593 8.00518 31.5555 7.47621 31.8019 6.91992C32.225 6.41211 32.6483 6.41211 33.0714 6.91992Z" fill="#68EBFC"/>
<path opacity="0.989" fill-rule="evenodd" clip-rule="evenodd" d="M21.8992 10.8555C22.3647 10.8555 22.8301 10.8555 23.2957 10.8555C25.2297 11.3094 26.2453 12.5366 26.3426 14.5371C26.1417 16.8327 24.8934 18.1022 22.5974 18.3457C19.7861 17.9464 18.5588 16.3384 18.9158 13.5215C19.3796 12.0318 20.3741 11.1431 21.8992 10.8555Z" fill="#D476E2"/>
<path opacity="0.963" fill-rule="evenodd" clip-rule="evenodd" d="M41.5771 13.3945C42.0426 13.3945 42.508 13.3945 42.9735 13.3945C43.7956 13.4781 44.4938 13.8167 45.0683 14.4102C45.2662 14.6281 45.3719 14.882 45.3857 15.1719C43.5508 14.5866 42.4082 15.2214 41.9579 17.0762C42.3591 18.8939 43.4382 19.4864 45.1952 18.8535C45.3685 18.9923 45.4109 19.1615 45.3222 19.3613C43.3699 21.3107 41.3809 21.353 39.3554 19.4883C38.021 17.318 38.3384 15.4349 40.3075 13.8389C40.7017 13.6017 41.1249 13.4536 41.5771 13.3945Z" fill="#FF8354"/>
<path fill-rule="evenodd" clip-rule="evenodd" d="M7.42773 23.5514C6.49477 21.1382 4.75974 20.2708 2.22266 20.9488C1.07106 21.4861 0.309341 22.3536 -0.0625 23.5514C-0.0625 22.9166 -0.0625 22.2818 -0.0625 21.6471C0.865527 19.342 2.55823 18.4745 5.01562 19.0445C6.94624 19.9395 7.75027 21.4418 7.42773 23.5514Z" fill="#CCF8FE"/>
<path fill-rule="evenodd" clip-rule="evenodd" d="M64.9366 21.646C64.9366 22.2808 64.9366 22.9155 64.9366 23.5503C63.9835 21.1405 62.2486 20.273 59.7315 20.9478C58.5799 21.485 57.8182 22.3525 57.4463 23.5503C57.2391 20.3086 58.7626 18.7641 62.0166 18.9165C63.5081 19.287 64.4814 20.1968 64.9366 21.646Z" fill="#CDF8FE"/>
<path opacity="0.992" fill-rule="evenodd" clip-rule="evenodd" d="M7.42773 23.5483C7.15538 24.5798 6.56294 25.3415 5.65039 25.8335C4.33512 26.5049 3.02327 26.5049 1.71484 25.8335C0.849557 25.3481 0.257108 24.6287 -0.0625 23.6753C-0.0625 23.633 -0.0625 23.5906 -0.0625 23.5483C0.309341 22.3505 1.07106 21.483 2.22266 20.9458C4.75974 20.2677 6.49477 21.1352 7.42773 23.5483Z" fill="#A1FCB6"/>
<path opacity="0.991" fill-rule="evenodd" clip-rule="evenodd" d="M64.9355 23.5505C64.9355 23.5928 64.9355 23.6352 64.9355 23.6775C64.6198 24.6277 64.0275 25.347 63.1582 25.8357C61.8699 26.4684 60.5581 26.5108 59.2227 25.9626C58.3488 25.3824 57.7565 24.5785 57.4453 23.5505C57.8172 22.3527 58.5789 21.4852 59.7305 20.948C62.2476 20.2732 63.9825 21.1407 64.9355 23.5505Z" fill="#A1FCB6"/>
<path opacity="0.97" fill-rule="evenodd" clip-rule="evenodd" d="M1.71484 25.8359C3.02327 26.5074 4.33512 26.5074 5.65039 25.8359C5.65039 26.3015 5.65039 26.7669 5.65039 27.2324C23.5085 27.2324 41.3665 27.2324 59.2246 27.2324C59.2246 26.8093 59.2246 26.386 59.2246 25.9629C60.56 26.5111 61.8718 26.4687 63.1602 25.8359C63.1602 38.2773 63.1602 50.7188 63.1602 63.1602C61.8483 63.1602 60.5364 63.1602 59.2246 63.1602C59.2246 62.1868 59.2246 61.2136 59.2246 60.2402C59.3512 57.427 59.3936 54.5916 59.3516 51.7344C41.4089 51.7344 23.4661 51.7344 5.52344 51.7344C5.48144 54.6339 5.52375 57.5115 5.65039 60.3672C5.65039 61.2981 5.65039 62.2292 5.65039 63.1602C4.33855 63.1602 3.02669 63.1602 1.71484 63.1602C1.71484 50.7188 1.71484 38.2773 1.71484 25.8359ZM10.6016 30.4062C10.6016 36.4577 10.6016 42.5091 10.6016 48.5605C8.95117 48.5605 7.30078 48.5605 5.65039 48.5605C5.65039 42.5091 5.65039 36.4577 5.65039 30.4062C7.30078 30.4062 8.95117 30.4062 10.6016 30.4062ZM13.7754 30.4062C15.4258 30.4062 17.0762 30.4062 18.7266 30.4062C18.7266 36.4577 18.7266 42.5091 18.7266 48.5605C17.0762 48.5605 15.4258 48.5605 13.7754 48.5605C13.7754 42.5091 13.7754 36.4577 13.7754 30.4062ZM21.9004 30.4062C23.5508 30.4062 25.2012 30.4062 26.8516 30.4062C26.8516 36.4577 26.8516 42.5091 26.8516 48.5605C25.2012 48.5605 23.5508 48.5605 21.9004 48.5605C21.9004 42.5091 21.9004 36.4577 21.9004 30.4062ZM30.0254 30.4062C31.6335 30.4062 33.2415 30.4062 34.8496 30.4062C34.8496 36.4577 34.8496 42.5091 34.8496 48.5605C33.2415 48.5605 31.6335 48.5605 30.0254 48.5605C30.0254 42.5091 30.0254 36.4577 30.0254 30.4062ZM38.0234 30.4062C39.6738 30.4062 41.3242 30.4062 42.9746 30.4062C42.9746 36.4577 42.9746 42.5091 42.9746 48.5605C41.3242 48.5605 39.6738 48.5605 38.0234 48.5605C38.0234 42.5091 38.0234 36.4577 38.0234 30.4062ZM46.1484 30.4062C47.7988 30.4062 49.4492 30.4062 51.0996 30.4062C51.0996 36.4577 51.0996 42.5091 51.0996 48.5605C49.4492 48.5605 47.7988 48.5605 46.1484 48.5605C46.1484 42.5091 46.1484 36.4577 46.1484 30.4062ZM54.2734 30.4062C55.9238 30.4062 57.5742 30.4062 59.2246 30.4062C59.2246 36.4577 59.2246 42.5091 59.2246 48.5605C57.5742 48.5605 55.9238 48.5605 54.2734 48.5605C54.2734 42.5091 54.2734 36.4577 54.2734 30.4062Z" fill="#68FB77"/>
<path opacity="0.956" fill-rule="evenodd" clip-rule="evenodd" d="M13.7754 30.4043C13.7754 36.4557 13.7754 42.5071 13.7754 48.5586C12.7175 48.7278 11.6595 48.7278 10.6016 48.5586C10.6016 42.5071 10.6016 36.4557 10.6016 30.4043C11.6595 30.235 12.7175 30.235 13.7754 30.4043Z" fill="#5FE384"/>
<path opacity="0.956" fill-rule="evenodd" clip-rule="evenodd" d="M21.9004 30.4064C21.9004 36.4578 21.9004 42.5092 21.9004 48.5607C20.8299 48.7275 19.772 48.7275 18.7266 48.5607C18.7266 42.5092 18.7266 36.4578 18.7266 30.4064C19.772 30.2395 20.8299 30.2395 21.9004 30.4064Z" fill="#79E25F"/>
<path opacity="0.994" fill-rule="evenodd" clip-rule="evenodd" d="M30.0254 30.4064C30.0254 36.4578 30.0254 42.5092 30.0254 48.5607C28.9549 48.7275 27.897 48.7275 26.8516 48.5607C26.8516 42.5092 26.8516 36.4578 26.8516 30.4064C27.897 30.2395 28.9549 30.2395 30.0254 30.4064Z" fill="#71E25F"/>
<path opacity="0.994" fill-rule="evenodd" clip-rule="evenodd" d="M38.0215 30.4064C38.0215 36.4578 38.0215 42.5092 38.0215 48.5607C36.976 48.7275 35.9181 48.7275 34.8477 48.5607C34.8477 42.5092 34.8477 36.4578 34.8477 30.4064C35.9181 30.2395 36.976 30.2395 38.0215 30.4064Z" fill="#71E25F"/>
<path opacity="0.956" fill-rule="evenodd" clip-rule="evenodd" d="M46.1465 30.4064C46.1465 36.4578 46.1465 42.5092 46.1465 48.5607C45.101 48.7275 44.0431 48.7275 42.9727 48.5607C42.9727 42.5092 42.9727 36.4578 42.9727 30.4064C44.0431 30.2395 45.101 30.2395 46.1465 30.4064Z" fill="#79E25F"/>
<path opacity="0.956" fill-rule="evenodd" clip-rule="evenodd" d="M54.2715 30.4043C54.2715 36.4557 54.2715 42.5071 54.2715 48.5586C53.2136 48.7278 52.1556 48.7278 51.0977 48.5586C51.0977 42.5071 51.0977 36.4557 51.0977 30.4043C52.1556 30.235 53.2136 30.235 54.2715 30.4043Z" fill="#5FE384"/>
<path opacity="0.996" fill-rule="evenodd" clip-rule="evenodd" d="M59.2227 60.2402C58.7256 59.6513 58.0908 59.2494 57.3184 59.0342C53.6835 58.2302 50.0441 58.1879 46.4005 58.9072C43.8324 59.5598 41.251 60.1523 38.6563 60.6846C34.0294 61.3353 29.4168 61.2508 24.8184 60.4307C22.2122 59.7579 19.5885 59.1654 16.9473 58.6533C13.7984 58.237 10.6669 58.364 7.5528 59.0342C6.72626 59.2334 6.09149 59.6777 5.6485 60.3672C5.52187 57.5115 5.47955 54.6339 5.52155 51.7344C23.4642 51.7344 41.407 51.7344 59.3497 51.7344C59.3917 54.5916 59.3493 57.427 59.2227 60.2402Z" fill="#5FD4E3"/>
<path fill-rule="evenodd" clip-rule="evenodd" d="M20.7568 54.1445C22.2456 54.1721 22.7746 54.8915 22.3437 56.3027C22.2256 56.5632 22.0352 56.7537 21.7724 56.874C20.2542 57.1642 19.5982 56.5507 19.8046 55.0332C20.0258 54.6211 20.3432 54.3249 20.7568 54.1445Z" fill="#68FB77"/>
<path fill-rule="evenodd" clip-rule="evenodd" d="M43.3541 54.1445C45.0105 54.2413 45.4972 55.0453 44.8141 56.5566C44.0946 57.0645 43.3753 57.0645 42.6559 56.5566C42.0621 55.4924 42.2948 54.6884 43.3541 54.1445Z" fill="#68FB77"/>
<path opacity="0.988" fill-rule="evenodd" clip-rule="evenodd" d="M1.71353 63.1598C3.02538 63.1598 4.33723 63.1598 5.64908 63.1598C6.48223 63.1711 6.79962 63.5943 6.60123 64.4293C6.51716 64.6177 6.41137 64.787 6.28384 64.9372C4.54881 64.9372 2.8138 64.9372 1.07877 64.9372C0.577911 64.3655 0.577911 63.7942 1.07877 63.2233C1.28622 63.1606 1.49781 63.1395 1.71353 63.1598Z" fill="#71E25F"/>
<path opacity="0.985" fill-rule="evenodd" clip-rule="evenodd" d="M59.2233 63.1598C60.5351 63.1598 61.847 63.1598 63.1588 63.1598C63.992 63.1711 64.3094 63.5943 64.111 64.4293C64.0269 64.6177 63.9211 64.787 63.7936 64.9372C62.0585 64.9372 60.3236 64.9372 58.5885 64.9372C58.0877 64.3655 58.0877 63.7942 58.5885 63.2233C58.796 63.1606 59.0076 63.1395 59.2233 63.1598Z" fill="#71E25F"/>
</g>
<defs>
<clipPath id="clip0_662_6059">
<rect width="65" height="65" fill="white"/>
</clipPath>
</defs>
</svg>
