<svg width="65" height="65" viewBox="0 0 65 65" fill="none" xmlns="http://www.w3.org/2000/svg">
<g clip-path="url(#clip0_654_2854)">
<path d="M41.6224 28.5078V32.1455C41.6224 32.6564 41.2084 33.0692 40.6987 33.0692H24.3004C23.7896 33.0692 23.3767 32.6553 23.3767 32.1455V28.5078H6.27148V60.5802C6.27148 63.0205 8.24999 64.999 10.6903 64.999H54.3088C56.7491 64.999 58.7276 63.0205 58.7276 60.5802V28.5078H41.6224Z" fill="#25AC22"/>
<path d="M6.27207 36.4903H1.94444C1.18496 36.4903 0.570312 35.8756 0.570312 35.1161V29.8819C0.570312 29.1225 1.18496 28.5078 1.94444 28.5078H6.27207V36.4903Z" fill="#3D7C16"/>
<path d="M58.7285 36.4903H63.0561C63.8145 36.4903 64.4303 35.8756 64.4303 35.1161V29.8819C64.4303 29.1236 63.8156 28.5078 63.0561 28.5078H58.7285V36.4903Z" fill="#3D7C16"/>
<path d="M56.4475 21.6666H8.55273V18.5694C8.55273 17.1314 9.71931 15.9648 11.1573 15.9648H53.8418C55.2809 15.9648 56.4463 17.1314 56.4463 18.5694L56.4475 21.6666Z" fill="#E8EDE7"/>
<path d="M3.99164 28.509H1.71094V13.957C1.71094 6.89027 7.46059 1.14062 14.5273 1.14062H21.0969V3.42133H14.5273C8.71839 3.42133 3.99164 8.14808 3.99164 13.957V28.509Z" fill="#558057"/>
<path d="M63.2893 28.509H61.0086V13.957C61.0086 8.14808 56.2818 3.42133 50.4729 3.42133H43.9033V1.14062H50.4729C57.5396 1.14062 63.2893 6.89027 63.2893 13.957V28.509Z" fill="#558057"/>
<path d="M43.9037 0H21.0967V4.5614H43.9037V0Z" fill="#75BF73"/>
<path d="M58.7276 41.0508H6.27148V59.2964H58.7276V41.0508Z" fill="#75BF73"/>
<path d="M56.1231 21.668H8.87605C7.43806 21.668 6.27148 22.8345 6.27148 24.2725V28.5101H23.3767V27.1531C23.3767 26.6422 23.7907 26.2294 24.3004 26.2294H40.6987C41.2095 26.2294 41.6224 26.6433 41.6224 27.1531V28.5101H58.7276V24.2725C58.7276 22.8345 57.561 21.668 56.1231 21.668Z" fill="#75BF73"/>
<path d="M40.6989 33.0687H24.3006C23.7898 33.0687 23.377 32.6547 23.377 32.145V27.1502C23.377 26.6394 23.7909 26.2266 24.3006 26.2266H40.6989C41.2098 26.2266 41.6226 26.6405 41.6226 27.1502V32.1438C41.6226 32.6547 41.2086 33.0687 40.6989 33.0687Z" fill="white"/>
<path d="M37.061 30.7885H27.9382C27.3087 30.7885 26.7979 30.2776 26.7979 29.6482C26.7979 29.0187 27.3087 28.5078 27.9382 28.5078H37.061C37.6905 28.5078 38.2014 29.0187 38.2014 29.6482C38.2014 30.2776 37.6905 30.7885 37.061 30.7885Z" fill="#C7CAC7"/>
<path d="M33.7751 37.6317H31.2252C30.0404 37.6317 29.0791 36.6715 29.0791 35.4856V33.0703H35.9212V35.4856C35.9212 36.6715 34.961 37.6317 33.7751 37.6317Z" fill="#C7CAC7"/>
</g>
<defs>
<clipPath id="clip0_654_2854">
<rect width="65" height="65" fill="white"/>
</clipPath>
</defs>
</svg>
