<svg width="65" height="65" viewBox="0 0 65 65" fill="none" xmlns="http://www.w3.org/2000/svg">
<g clip-path="url(#clip0_662_6194)">
<path opacity="0.993" fill-rule="evenodd" clip-rule="evenodd" d="M34.7208 4.76241C33.9591 4.76241 33.1973 4.76241 32.4356 4.76241C31.6739 4.76241 30.9122 4.76241 30.1505 4.76241C30.1294 3.99952 30.1506 3.2378 30.2139 2.47725C30.6147 0.699945 31.6938 0.0863384 33.4512 0.636433C34.1872 1.02881 34.5892 1.64242 34.6573 2.47725C34.7206 3.2378 34.7418 3.99952 34.7208 4.76241Z" fill="#F2BA5C"/>
<path opacity="0.993" fill-rule="evenodd" clip-rule="evenodd" d="M30.1504 4.76172C27.7525 6.99033 25.2769 9.14853 22.7236 11.2363C22.6602 12.6745 22.639 14.1133 22.6602 15.5527C22.6602 15.595 22.6602 15.6374 22.6602 15.6797C17.582 15.6797 12.5039 15.6797 7.42578 15.6797C7.42578 14.1985 7.42578 12.7175 7.42578 11.2363C15.0079 9.1039 22.5828 6.94569 30.1504 4.76172Z" fill="#97CE76"/>
<path fill-rule="evenodd" clip-rule="evenodd" d="M30.1505 4.76172C30.9122 4.76172 31.674 4.76172 32.4357 4.76172C32.4357 8.35872 32.4357 11.9557 32.4357 15.5527C29.1772 15.5527 25.9188 15.5527 22.6603 15.5527C22.6391 14.1133 22.6603 12.6745 22.7238 11.2363C25.2771 9.14853 27.7526 6.99033 30.1505 4.76172Z" fill="#3EDC44"/>
<path fill-rule="evenodd" clip-rule="evenodd" d="M32.4355 4.76172C33.1973 4.76172 33.959 4.76172 34.7207 4.76172C37.1186 6.99033 39.5942 9.14853 42.1475 11.2363C42.2109 12.7169 42.2321 14.198 42.2109 15.6797C35.6941 15.6797 29.177 15.6797 22.6602 15.6797C22.6602 15.6374 22.6602 15.595 22.6602 15.5527C25.9187 15.5527 29.177 15.5527 32.4355 15.5527C32.4355 11.9557 32.4355 8.35872 32.4355 4.76172Z" fill="#8FF68D"/>
<path opacity="0.997" fill-rule="evenodd" clip-rule="evenodd" d="M34.7227 4.76172C42.2069 6.91077 49.6972 9.04782 57.1934 11.1729C57.4429 12.6431 57.5276 14.1453 57.4473 15.6797C52.3691 15.6797 47.291 15.6797 42.2129 15.6797C42.2341 14.198 42.2129 12.7169 42.1494 11.2363C39.5961 9.14853 37.1205 6.99033 34.7227 4.76172Z" fill="#87CE75"/>
<path opacity="0.983" fill-rule="evenodd" clip-rule="evenodd" d="M7.42578 15.6797C12.5039 15.6797 17.582 15.6797 22.6602 15.6797C22.6602 15.8913 22.6602 16.1028 22.6602 16.3145C22.0905 17.6669 21.1172 18.619 19.7402 19.1709C16.8914 20.1698 14.0138 20.2544 11.1074 19.4248C9.86536 19.0287 8.82858 18.3305 7.99707 17.3301C7.67005 16.8254 7.47962 16.2754 7.42578 15.6797Z" fill="#8FF88D"/>
<path opacity="0.992" fill-rule="evenodd" clip-rule="evenodd" d="M22.6602 15.6797C29.177 15.6797 35.6941 15.6797 42.2109 15.6797C42.2109 15.8913 42.2109 16.1028 42.2109 16.3145C41.5096 17.5987 40.4516 18.4663 39.0371 18.917C37.2768 19.5771 35.457 19.9368 33.5781 19.9961C32.8164 19.9961 32.0547 19.9961 31.293 19.9961C28.6427 19.9684 26.1883 19.2702 23.9297 17.9014C23.379 17.4584 22.9558 16.9294 22.6602 16.3145C22.6602 16.1028 22.6602 15.8913 22.6602 15.6797Z" fill="#92CF75"/>
<path opacity="0.984" fill-rule="evenodd" clip-rule="evenodd" d="M42.2109 15.6797C47.2891 15.6797 52.3672 15.6797 57.4453 15.6797C57.3031 16.8308 56.753 17.7406 55.7949 18.4092C53.3991 19.8033 50.8177 20.3111 48.0508 19.9326C45.9057 19.7592 44.1071 18.8916 42.6553 17.3301C42.4707 17.0037 42.3227 16.6651 42.2109 16.3145C42.2109 16.1028 42.2109 15.8913 42.2109 15.6797Z" fill="#8FF88D"/>
<path fill-rule="evenodd" clip-rule="evenodd" d="M31.293 19.9961C32.0547 19.9961 32.8164 19.9961 33.5781 19.9961C33.5781 26.4707 33.5781 32.9453 33.5781 39.4199C32.8164 39.4199 32.0547 39.4199 31.293 39.4199C31.293 32.9453 31.293 26.4707 31.293 19.9961Z" fill="#F3BA5C"/>
<path opacity="0.977" fill-rule="evenodd" clip-rule="evenodd" d="M18.3457 55.795C18.3457 54.3138 18.3457 52.8328 18.3457 51.3516C18.2975 49.3563 17.3241 48.0445 15.4258 47.416C14.8201 47.0065 14.1853 46.6256 13.5215 46.2735C13.4348 46.3196 13.3501 46.3618 13.2676 46.4004C11.8349 45.4292 10.3115 44.583 8.69727 43.8614C8.63978 43.7397 8.55514 43.6339 8.44336 43.544C7.29404 42.9693 6.15146 42.398 5.01562 41.8301C4.15038 41.3338 3.2617 40.8684 2.34961 40.4336C2.22272 42.5478 2.18041 44.6637 2.22266 46.7813C2.10087 48.2984 2.05856 49.8218 2.0957 51.3516C2.05402 52.8554 2.09635 54.3365 2.22266 55.795C2.22266 58.6726 2.22266 61.5501 2.22266 64.4278C1.46094 64.4278 0.699219 64.4278 -0.0625 64.4278C-0.0625 55.5833 -0.0625 46.739 -0.0625 37.8946C0.285207 37.32 0.793019 37.1295 1.46094 37.3233C6.87761 40.2009 12.2943 43.0784 17.7109 45.9561C19.3436 46.9146 20.2957 48.3323 20.5674 50.209C20.6309 54.9484 20.6521 59.688 20.6309 64.4278C19.8691 64.4278 19.1074 64.4278 18.3457 64.4278C18.3457 61.5501 18.3457 58.6726 18.3457 55.795ZM5.01562 41.8301C4.11483 43.5055 3.18383 45.1559 2.22266 46.7813C2.18041 44.6637 2.22272 42.5478 2.34961 40.4336C3.2617 40.8684 4.15038 41.3338 5.01562 41.8301ZM8.69727 43.8614C10.3115 44.583 11.8349 45.4292 13.2676 46.4004C12.5542 47.3472 11.8136 48.2783 11.0459 49.1934C10.296 47.3979 9.51318 45.6205 8.69727 43.8614ZM9.45898 51.3516C7.08919 51.3516 4.71941 51.3516 2.34961 51.3516C3.65365 48.9677 4.98665 46.598 6.34863 44.2422C7.39848 46.6098 8.43527 48.9796 9.45898 51.3516ZM15.4258 47.416C17.3241 48.0445 18.2975 49.3563 18.3457 51.3516C16.3567 51.3516 14.3679 51.3516 12.3789 51.3516C13.3945 50.0398 14.4102 48.7279 15.4258 47.416Z" fill="#43A84D"/>
<path opacity="0.978" fill-rule="evenodd" clip-rule="evenodd" d="M64.9357 37.8946C64.9357 46.739 64.9357 55.5833 64.9357 64.4278C64.174 64.4278 63.4122 64.4278 62.6505 64.4278C62.6505 61.5501 62.6505 58.6726 62.6505 55.795C62.7768 54.3365 62.8191 52.8554 62.7775 51.3516C62.8121 49.7811 62.7699 48.2153 62.6505 46.6543C62.6928 44.579 62.6504 42.5055 62.5236 40.4336C61.6515 40.9331 60.7629 41.3986 59.8576 41.8301C58.8064 42.3557 57.7484 42.8847 56.6837 43.417C56.4815 43.5375 56.3123 43.6855 56.1759 43.8614C54.6158 44.5991 53.0924 45.4031 51.6056 46.2735C51.3761 46.2723 51.1644 46.3358 50.9708 46.4639C50.4336 46.7527 49.9258 47.0701 49.4474 47.416C47.5491 48.0445 46.5757 49.3563 46.5275 51.3516C46.5275 52.8328 46.5275 54.3138 46.5275 55.795C46.5275 58.6726 46.5275 61.5501 46.5275 64.4278C45.7658 64.4278 45.004 64.4278 44.2423 64.4278C44.2211 59.8996 44.2423 55.3716 44.3058 50.8438C44.3995 48.8143 45.267 47.2274 46.9083 46.083C52.4096 43.1631 57.911 40.2432 63.4122 37.3233C64.0801 37.1295 64.588 37.32 64.9357 37.8946ZM62.6505 46.6543C61.6734 45.0819 60.7424 43.4738 59.8576 41.8301C60.7629 41.3986 61.6515 40.9331 62.5236 40.4336C62.6504 42.5055 62.6928 44.579 62.6505 46.6543ZM56.1759 43.8614C55.36 45.6205 54.5771 47.3979 53.8273 49.1934C53.0229 48.2581 52.2823 47.2848 51.6056 46.2735C53.0924 45.4031 54.6158 44.5991 56.1759 43.8614ZM62.5236 51.3516C60.1537 51.3516 57.784 51.3516 55.4142 51.3516C56.4377 49.0084 57.4956 46.681 58.588 44.3692C59.9336 46.6796 61.2454 49.007 62.5236 51.3516ZM49.4474 47.416C50.463 48.7279 51.4787 50.0398 52.4943 51.3516C50.5053 51.3516 48.5165 51.3516 46.5275 51.3516C46.5757 49.3563 47.5491 48.0445 49.4474 47.416Z" fill="#56A842"/>
<path opacity="0.974" fill-rule="evenodd" clip-rule="evenodd" d="M31.293 39.418C32.0547 39.418 32.8164 39.418 33.5781 39.418C37.5559 39.418 41.5339 39.418 45.5117 39.418C45.5117 40.8991 45.5117 42.3802 45.5117 43.8613C43.4805 43.8613 41.4492 43.8613 39.418 43.8613C38.5293 43.8613 37.6406 43.8613 36.752 43.8613C35.6941 43.8613 34.636 43.8613 33.5781 43.8613C32.8164 43.8613 32.0547 43.8613 31.293 43.8613C30.0234 43.8613 28.7539 43.8613 27.4844 43.8613C26.511 43.8613 25.5378 43.8613 24.5645 43.8613C22.8294 43.8613 21.0944 43.8613 19.3594 43.8613C19.3594 42.3802 19.3594 40.8991 19.3594 39.418C23.3372 39.418 27.3151 39.418 31.293 39.418Z" fill="#51A743"/>
<path opacity="0.986" fill-rule="evenodd" clip-rule="evenodd" d="M5.01498 41.832C6.15081 42.3999 7.29339 42.9712 8.44271 43.5459C8.55449 43.6358 8.63913 43.7417 8.69662 43.8633C9.51253 45.6225 10.2954 47.3998 11.0453 49.1953C11.813 48.2802 12.5535 47.3492 13.2669 46.4023C13.3495 46.3638 13.4341 46.3215 13.5208 46.2754C14.1847 46.6276 14.8194 47.0084 15.4251 47.418C14.4095 48.7298 13.3939 50.0417 12.3783 51.3535C11.4049 51.3535 10.4316 51.3535 9.45834 51.3535C8.43462 48.9815 7.39784 46.6117 6.34798 44.2441C4.98601 46.5999 3.653 48.9696 2.34896 51.3535C2.26432 51.3535 2.17969 51.3535 2.09506 51.3535C2.05791 49.8237 2.10022 48.3003 2.22201 46.7832C3.18318 45.1578 4.11418 43.5074 5.01498 41.832ZM9.45834 51.3535C7.08854 51.3535 4.71876 51.3535 2.34896 51.3535C3.653 48.9696 4.98601 46.5999 6.34798 44.2441C7.39784 46.6117 8.43462 48.9815 9.45834 51.3535Z" fill="#69F25D"/>
<path opacity="0.985" fill-rule="evenodd" clip-rule="evenodd" d="M59.8594 41.832C60.7442 43.4757 61.6752 45.0838 62.6523 46.6562C62.7717 48.2173 62.814 49.783 62.7793 51.3535C62.6946 51.3535 62.6101 51.3535 62.5254 51.3535C61.2472 49.0089 59.9354 46.6815 58.5898 44.3711C57.4974 46.6829 56.4395 49.0103 55.416 51.3535C54.4427 51.3535 53.4694 51.3535 52.4961 51.3535C51.4805 50.0417 50.4648 48.7298 49.4492 47.418C49.9276 47.072 50.4354 46.7546 50.9727 46.4658C51.1663 46.3377 51.3779 46.2742 51.6074 46.2754C52.2841 47.2867 53.0247 48.26 53.8291 49.1953C54.5789 47.3998 55.3618 45.6225 56.1777 43.8633C56.3141 43.6875 56.4833 43.5394 56.6855 43.4189C57.7502 42.8866 58.8082 42.3576 59.8594 41.832ZM62.5254 51.3535C60.1556 51.3535 57.7858 51.3535 55.416 51.3535C56.4395 49.0103 57.4974 46.6829 58.5898 44.3711C59.9354 46.6815 61.2472 49.0089 62.5254 51.3535Z" fill="#9EF25C"/>
<path opacity="0.958" fill-rule="evenodd" clip-rule="evenodd" d="M24.566 43.8633C25.5393 43.8633 26.5126 43.8633 27.4859 43.8633C27.9715 44.4942 28.4581 45.129 28.9459 45.7676C29.2005 46.153 29.3064 46.5761 29.2632 47.0371C29.0974 47.7863 29.0974 48.548 29.2632 49.3223C29.2632 49.9993 29.2632 50.6765 29.2632 51.3535C29.094 52.1152 29.094 52.877 29.2632 53.6387C29.2808 56.1817 28.0112 57.5147 25.4547 57.6377C25.258 57.7918 25.11 57.9822 25.0103 58.209C24.9468 60.2821 24.9256 62.3557 24.9468 64.4297C24.1851 64.4297 23.4234 64.4297 22.6617 64.4297C22.6032 62.0512 22.6666 59.6814 22.8521 57.3203C23.5482 55.8653 24.712 55.1247 26.3433 55.0986C26.6737 54.9799 26.8641 54.7472 26.9146 54.4004C26.9993 51.946 26.9993 49.4915 26.9146 47.0371C26.1305 45.9754 25.3478 44.9175 24.566 43.8633Z" fill="#3C5A3F"/>
<path fill-rule="evenodd" clip-rule="evenodd" d="M31.293 43.8633C32.0547 43.8633 32.8164 43.8633 33.5781 43.8633C33.5781 44.9212 33.5781 45.9792 33.5781 47.0371C32.8164 47.0371 32.0547 47.0371 31.293 47.0371C31.293 45.9792 31.293 44.9212 31.293 43.8633Z" fill="#F3BA5C"/>
<path opacity="0.958" fill-rule="evenodd" clip-rule="evenodd" d="M36.7526 43.8633C37.6412 43.8633 38.5299 43.8633 39.4186 43.8633C38.968 44.8916 38.4813 45.9072 37.9586 46.9102C37.874 49.4069 37.874 51.9036 37.9586 54.4004C38.0092 54.7472 38.1996 54.9799 38.5299 55.0986C40.1613 55.1247 41.325 55.8653 42.0211 57.3203C42.2066 59.6814 42.2701 62.0512 42.2116 64.4297C41.4498 64.4297 40.6881 64.4297 39.9264 64.4297C39.9476 62.3557 39.9264 60.2821 39.8629 58.209C39.8039 58.0273 39.698 57.8793 39.5455 57.7646C38.2841 57.6734 37.205 57.1866 36.3082 56.3047C35.7786 55.4983 35.5459 54.6096 35.61 53.6387C35.7792 52.877 35.7792 52.1152 35.61 51.3535C35.61 50.6765 35.61 49.9993 35.61 49.3223C35.7792 48.5605 35.7792 47.7988 35.61 47.0371C35.5911 46.6427 35.6546 46.2618 35.8004 45.8945C36.154 45.2299 36.4714 44.5529 36.7526 43.8633Z" fill="#3C5A3F"/>
<path opacity="0.966" fill-rule="evenodd" clip-rule="evenodd" d="M29.263 47.0352C29.9401 47.0352 30.6172 47.0352 31.2943 47.0352C32.056 47.0352 32.8177 47.0352 33.5794 47.0352C34.2565 47.0352 34.9336 47.0352 35.6107 47.0352C35.7799 47.7969 35.7799 48.5586 35.6107 49.3203C34.9336 49.3203 34.2565 49.3203 33.5794 49.3203C32.8177 49.1511 32.056 49.1511 31.2943 49.3203C30.6172 49.3203 29.9401 49.3203 29.263 49.3203C29.0972 48.546 29.0972 47.7843 29.263 47.0352Z" fill="#A7BCCB"/>
<path fill-rule="evenodd" clip-rule="evenodd" d="M33.5781 49.3222C33.5781 49.9993 33.5781 50.6764 33.5781 51.3535C32.8164 51.3535 32.0547 51.3535 31.293 51.3535C31.293 50.6764 31.293 49.9993 31.293 49.3222C32.0547 49.153 32.8164 49.153 33.5781 49.3222Z" fill="#F2BA5E"/>
<path opacity="0.977" fill-rule="evenodd" clip-rule="evenodd" d="M2.09559 51.3516C2.18023 51.3516 2.26485 51.3516 2.34949 51.3516C4.71929 51.3516 7.08907 51.3516 9.45887 51.3516C10.4322 51.3516 11.4055 51.3516 12.3788 51.3516C14.3678 51.3516 16.3566 51.3516 18.3456 51.3516C18.3456 52.8327 18.3456 54.3138 18.3456 55.7949C12.9713 55.7949 7.59689 55.7949 2.22254 55.7949C2.09624 54.3365 2.05391 52.8553 2.09559 51.3516Z" fill="#9CF78D"/>
<path opacity="0.966" fill-rule="evenodd" clip-rule="evenodd" d="M29.2636 51.3516C29.9407 51.3516 30.6178 51.3516 31.2949 51.3516C32.0566 51.3516 32.8183 51.3516 33.58 51.3516C34.2571 51.3516 34.9343 51.3516 35.6113 51.3516C35.7805 52.1133 35.7805 52.875 35.6113 53.6367C34.9343 53.6367 34.2571 53.6367 33.58 53.6367C32.8183 53.4675 32.0566 53.4675 31.2949 53.6367C30.6178 53.6367 29.9407 53.6367 29.2636 53.6367C29.0944 52.875 29.0944 52.1133 29.2636 51.3516Z" fill="#A7BCCB"/>
<path opacity="0.977" fill-rule="evenodd" clip-rule="evenodd" d="M46.5273 51.3516C48.5163 51.3516 50.5052 51.3516 52.4941 51.3516C53.4675 51.3516 54.4407 51.3516 55.4141 51.3516C57.7839 51.3516 60.1536 51.3516 62.5234 51.3516C62.6081 51.3516 62.6927 51.3516 62.7773 51.3516C62.819 52.8553 62.7767 54.3365 62.6504 55.7949C57.2761 55.7949 51.9017 55.7949 46.5273 55.7949C46.5273 54.3138 46.5273 52.8327 46.5273 51.3516Z" fill="#9CF78D"/>
<path fill-rule="evenodd" clip-rule="evenodd" d="M33.5781 53.6386C33.5781 57.2356 33.5781 60.8327 33.5781 64.4297C32.8164 64.4297 32.0547 64.4297 31.293 64.4297C31.293 60.8327 31.293 57.2356 31.293 53.6386C32.0547 53.4694 32.8164 53.4694 33.5781 53.6386Z" fill="#F2BA5D"/>
</g>
<defs>
<clipPath id="clip0_662_6194">
<rect width="65" height="65" fill="white"/>
</clipPath>
</defs>
</svg>
