<svg width="77" height="80" viewBox="0 0 77 80" fill="none" xmlns="http://www.w3.org/2000/svg">
<path d="M39.8347 8.42578C22.4056 8.42578 8.27441 23.1077 8.27441 41.2157C8.27441 59.3239 22.4056 74.0056 39.8347 74.0056C57.2639 74.0056 71.395 59.3239 71.395 41.2157C71.395 23.1077 57.2639 8.42578 39.8347 8.42578ZM42.4647 46.6807H24.0546V43.9482H39.8347V19.4678H42.4647V46.6807Z" fill="#98C4D8"/>
<path d="M37.2048 5.69141C19.7757 5.69141 5.64453 20.3734 5.64453 38.4813C5.64453 56.5895 19.7757 71.2713 37.2048 71.2713C54.634 71.2713 68.7651 56.5895 68.7651 38.4813C68.7651 20.3734 54.634 5.69141 37.2048 5.69141ZM39.8349 43.9463H21.4247V41.2138H37.2048V16.7334H39.8349V43.9463Z" fill="#A2EFA0"/>
<path d="M20.0189 21.887C20.1948 22.1531 20.4762 22.3401 20.847 22.4374C21.2178 22.5346 21.6708 22.5401 22.18 22.4537C22.6893 22.3672 23.2449 22.1904 23.8151 21.9334C24.3853 21.6763 24.9589 21.3441 25.5032 20.9557C26.0474 20.5673 26.5517 20.1302 26.9873 19.6695C27.4228 19.2088 27.781 18.7335 28.0414 18.2706C28.3019 17.8078 28.4595 17.3665 28.5052 16.972C28.5509 16.5775 28.4839 16.2375 28.3079 15.9714C28.132 15.7053 27.8506 15.5183 27.4798 15.421C27.1089 15.3238 26.656 15.3183 26.1467 15.4047C25.6374 15.4912 25.0818 15.668 24.5117 15.925C23.9415 16.1821 23.3679 16.5143 22.8236 16.9027C22.2793 17.2911 21.775 17.7282 21.3395 18.1889C20.9039 18.6496 20.5457 19.1249 20.2853 19.5878C20.0248 20.0506 19.8673 20.4919 19.8216 20.8864C19.7758 21.2809 19.8429 21.6209 20.0189 21.887Z" fill="#FEFEFE"/>
<path d="M14.9376 30.4862C15.1744 30.8445 15.6413 31.017 16.2355 30.9658C16.8298 30.9146 17.5026 30.6439 18.1061 30.2132C18.7096 29.7825 19.1942 29.2271 19.4535 28.6693C19.7127 28.1114 19.7253 27.5967 19.4884 27.2384C19.2515 26.8802 18.7846 26.7076 18.1904 26.7588C17.5962 26.81 16.9234 27.0808 16.3199 27.5114C15.7164 27.9421 15.2317 28.4975 14.9725 29.0554C14.7133 29.6132 14.7007 30.1279 14.9376 30.4862Z" fill="#FEFEFE"/>
</svg>
