<svg width="65" height="65" viewBox="0 0 65 65" fill="none" xmlns="http://www.w3.org/2000/svg">
<path d="M15.91 64.9998H8.68848V59.457H22.9859L15.91 64.9998Z" fill="#4F4B4B"/>
<path d="M57.5993 64.9998H50.3777L43.3018 59.457H57.5993V64.9998Z" fill="#4F4B4B"/>
<path d="M64.9998 0H0V61.1663H64.9998V0Z" fill="#16D3A9"/>
<path d="M58.5641 6.05469H6.43555V55.1089H58.5641V6.05469Z" fill="#D7EDF3"/>
<path d="M64.9993 14.5312V23.3126H53.576C51.0081 23.3126 48.9102 21.3383 48.9102 18.9219C48.9102 17.7137 49.4347 16.6145 50.281 15.8212C51.124 15.0248 52.2921 14.5312 53.576 14.5312H64.9993Z" fill="#00FF01"/>
<path d="M64.9993 34.8203V43.6016H53.576C51.0081 43.6016 48.9102 41.6274 48.9102 39.211C48.9102 38.0028 49.4347 36.9036 50.281 36.1103C51.124 35.3139 52.2921 34.8203 53.576 34.8203H64.9993Z" fill="#00FF01"/>
<path d="M33.718 43.87C38.4293 43.87 42.2485 40.0813 42.2485 35.4077C42.2485 30.734 38.4293 26.9453 33.718 26.9453C29.0067 26.9453 25.1875 30.734 25.1875 35.4077C25.1875 40.0813 29.0067 43.87 33.718 43.87Z" fill="#16D3A9"/>
<path d="M34.3968 29.0067C34.3697 29 34.3358 29 34.3087 29C33.9494 29 33.6443 29.2623 33.6036 29.6255C33.5562 30.0156 33.8409 30.372 34.2342 30.4191H34.3156C34.6749 30.4191 34.9867 30.1568 35.0274 29.7937C35.0342 29.7668 35.0342 29.7399 35.0342 29.7062C35.0342 29.3565 34.7629 29.0471 34.3968 29.0067ZM32.2409 29.7937C32.1324 29.5112 31.8613 29.3363 31.5698 29.3363C31.4816 29.3363 31.3935 29.3498 31.3121 29.3834C30.946 29.5247 30.7629 29.9349 30.8985 30.3048C31.0138 30.5874 31.285 30.7622 31.5698 30.7622C31.6579 30.7622 31.7393 30.742 31.8274 30.7151C32.1121 30.6075 32.2884 30.3385 32.2884 30.0493C32.2884 29.9685 32.2748 29.8811 32.2409 29.7937ZM37.5698 30.4057C37.5223 30.2778 37.4341 30.1703 37.3122 30.0896C37.1833 30.0021 37.0409 29.9618 36.9054 29.9618C36.6748 29.9618 36.4511 30.0694 36.3155 30.2711C36.0918 30.594 36.1731 31.0378 36.4985 31.2598C36.5392 31.2934 36.5867 31.3136 36.6341 31.3338C36.7223 31.3674 36.8105 31.3876 36.8986 31.3876C37.1291 31.3876 37.3596 31.28 37.4952 31.0783C37.5834 30.9572 37.6241 30.8159 37.6241 30.6747C37.624 30.5806 37.6037 30.4931 37.5698 30.4057ZM29.7731 31.085C29.6375 30.9639 29.4681 30.9034 29.2986 30.9034C29.0952 30.9034 28.8986 30.9841 28.7629 31.1454C28.4986 31.4347 28.5256 31.8853 28.824 32.1476C28.9596 32.2686 29.129 32.3224 29.2986 32.3224C29.5019 32.3224 29.6985 32.2417 29.8342 32.087C29.9562 31.9525 30.0172 31.7844 30.0172 31.6162C30.0172 31.4145 29.9358 31.2195 29.7731 31.085ZM39.3799 32.3897C39.2511 32.1476 39.0003 32.0131 38.7426 32.0131C38.6342 32.0131 38.5189 32.04 38.4104 32.0938C38.0579 32.2755 37.9223 32.7058 38.1122 33.0556C38.241 33.2977 38.4918 33.4322 38.7495 33.4322C38.858 33.4322 38.9733 33.4053 39.0817 33.3515C39.3258 33.217 39.4613 32.9749 39.4613 32.7193C39.4612 32.6116 39.4342 32.4973 39.3799 32.3897ZM28.1866 33.3514C28.1324 33.338 28.0781 33.3312 28.0239 33.3312C27.6985 33.3312 27.4002 33.5465 27.3256 33.876C27.2307 34.2594 27.4679 34.6427 27.8476 34.7369C27.9086 34.7503 27.9629 34.7571 28.0171 34.7571C28.3426 34.7571 28.6341 34.5418 28.7155 34.2123C28.729 34.1585 28.7358 34.0979 28.7358 34.0441C28.7358 33.7214 28.5189 33.4321 28.1866 33.3514ZM39.4138 34.6697C39.0205 34.6764 38.7019 34.9858 38.7019 35.3691C38.7019 35.3758 38.7019 35.3758 38.7019 35.3826C38.7019 35.396 38.7019 35.4028 38.7019 35.4028C38.7019 35.7996 39.0205 36.1156 39.4138 36.1156C39.8138 36.1156 40.1325 35.7996 40.1325 35.4028C40.1325 35.4028 40.1325 35.4028 40.1325 35.396C40.1325 35.3893 40.1325 35.3826 40.1325 35.3826C40.1325 34.9858 39.8071 34.6697 39.4138 34.6697ZM28.7223 36.6201C28.6409 36.2905 28.3426 36.0753 28.0171 36.0753C27.9629 36.0753 27.9086 36.082 27.8545 36.0954C27.468 36.1895 27.2376 36.5797 27.3256 36.9563C27.407 37.2791 27.7053 37.5011 28.0239 37.5011C28.0781 37.5011 28.1392 37.4944 28.1934 37.4809C28.5256 37.4002 28.7426 37.1043 28.7426 36.7881C28.7426 36.7343 28.7358 36.6739 28.7223 36.6201ZM39.0884 37.4406C38.9799 37.3867 38.8646 37.3598 38.7562 37.3598C38.4986 37.3598 38.2545 37.4943 38.1188 37.7365C37.9358 38.0862 38.0714 38.5166 38.4239 38.6982C38.5324 38.752 38.6409 38.7789 38.7561 38.7789C39.0137 38.7789 39.2646 38.6444 39.3866 38.4023C39.4476 38.2947 39.4747 38.1803 39.4747 38.0661C39.4749 37.8105 39.3325 37.5684 39.0884 37.4406ZM29.8477 38.7453C29.7257 38.6108 29.563 38.5301 29.4003 38.5099C29.3731 38.5031 29.3392 38.5031 29.3121 38.5031C29.1426 38.5031 28.9732 38.5637 28.8375 38.6848C28.6816 38.826 28.6003 39.0143 28.6003 39.2094C28.6003 39.2363 28.6003 39.2699 28.6071 39.2968C28.6206 39.4313 28.6817 39.5725 28.7833 39.6869C28.9257 39.8483 29.1156 39.929 29.3121 39.929C29.4816 39.929 29.6511 39.8684 29.7935 39.7474C29.9494 39.6062 30.0307 39.4112 30.0307 39.2161C30.0307 39.0479 29.9697 38.8798 29.8477 38.7453ZM37.5087 39.7204C37.3732 39.5187 37.1494 39.4111 36.9189 39.4111C36.7765 39.4111 36.6341 39.4515 36.5121 39.5389C36.1867 39.7608 36.1053 40.2047 36.3358 40.5275C36.4714 40.7292 36.6951 40.8368 36.9189 40.8368C37.0613 40.8368 37.2037 40.7965 37.3324 40.709C37.529 40.5745 37.6375 40.3526 37.6375 40.1306C37.6376 39.9895 37.5969 39.8483 37.5087 39.7204ZM31.8477 40.1106C31.7595 40.077 31.6714 40.0635 31.5901 40.0635C31.2986 40.0635 31.0274 40.2384 30.919 40.5209C30.7833 40.8841 30.9664 41.2943 31.3393 41.4355C31.4207 41.4692 31.5088 41.4826 31.5901 41.4826C31.8816 41.4826 32.1528 41.3077 32.2613 41.0253C32.2952 40.9446 32.3087 40.8571 32.3087 40.7697C32.3087 40.4805 32.1324 40.2115 31.8477 40.1106ZM35.0477 41.0118C35.0071 40.6486 34.6952 40.3864 34.3426 40.3864C34.3087 40.3864 34.2816 40.3864 34.2544 40.3931C33.8612 40.4402 33.5765 40.7967 33.624 41.1868C33.6714 41.5432 33.9833 41.8122 34.3358 41.8122C34.3629 41.8122 34.3968 41.8055 34.424 41.8055C34.7901 41.7651 35.0544 41.4558 35.0544 41.0994C35.0545 41.0723 35.0545 41.0387 35.0477 41.0118Z" fill="white"/>
<path d="M33.7187 38.8584C35.6409 38.8584 37.1992 37.3126 37.1992 35.4058C37.1992 33.4989 35.6409 31.9531 33.7187 31.9531C31.7965 31.9531 30.2383 33.4989 30.2383 35.4058C30.2383 37.3126 31.7965 38.8584 33.7187 38.8584Z" fill="#E0E0E0"/>
<path d="M32.498 26.9274L33.7168 25.0703L34.9356 26.9274H32.498Z" fill="#16D3A9"/>
<path d="M34.8493 22.2461L33.6649 24.2863L32.4805 22.2461H34.8493Z" fill="#218207"/>
<path d="M33.6648 23.4331C34.7568 23.4331 35.6421 22.5526 35.6421 21.4665C35.6421 20.3804 34.7568 19.5 33.6648 19.5C32.5728 19.5 31.6875 20.3804 31.6875 21.4665C31.6875 22.5526 32.5728 23.4331 33.6648 23.4331Z" fill="#218207"/>
<path d="M33.6113 22.2868C33.8357 22.2868 34.0176 21.8711 34.0176 21.3583C34.0176 20.8454 33.8357 20.4297 33.6113 20.4297C33.387 20.4297 33.2051 20.8454 33.2051 21.3583C33.2051 21.8711 33.387 22.2868 33.6113 22.2868Z" fill="#FBF2C0"/>
<path d="M13 43.6422C12.3297 43.6422 11.7812 42.9382 11.7812 42.0778V23.8495C11.7812 22.9891 12.3297 22.2852 13 22.2852C13.6704 22.2852 14.2188 22.9891 14.2188 23.8495V42.0778C14.2188 42.9382 13.6703 43.6422 13 43.6422Z" fill="#1E5A0C"/>
<path d="M13 31.1054C12.1062 31.1054 11.375 29.9791 11.375 28.6026V27.1084C11.375 25.7318 12.1063 24.6055 13 24.6055C13.8938 24.6055 14.625 25.7318 14.625 27.1084V28.6026C14.6251 29.9792 13.8938 31.1054 13 31.1054Z" fill="#218207"/>
<path d="M54.8645 20.4353C55.7086 20.4353 56.393 19.7914 56.393 18.997C56.393 18.2026 55.7086 17.5586 54.8645 17.5586C54.0203 17.5586 53.3359 18.2026 53.3359 18.997C53.3359 19.7914 54.0203 20.4353 54.8645 20.4353Z" fill="#D7EDF3"/>
<path d="M54.8645 40.7986C55.7086 40.7986 56.393 40.1546 56.393 39.3602C56.393 38.5659 55.7086 37.9219 54.8645 37.9219C54.0203 37.9219 53.3359 38.5659 53.3359 39.3602C53.3359 40.1546 54.0203 40.7986 54.8645 40.7986Z" fill="#D7EDF3"/>
<path opacity="0.09" d="M2.03809 61.1623H8.68788V64.9985H15.9094L20.8068 61.1623H45.48L50.3772 64.9985H57.5987V61.1623H64.9997V43.5998V34.8184V23.3119V14.5306V1.91406L2.03809 61.1623Z" fill="#040000"/>
</svg>
