<svg width="680" height="273" viewBox="0 0 680 273" fill="none" xmlns="http://www.w3.org/2000/svg">
<path d="M460.262 119.706C428.085 119.706 402 84.0212 402 40.002C402 40.002 428.085 40.0025 460.262 40.0025C492.44 40.0025 518.524 40.002 518.524 40.002C518.524 84.0212 492.44 119.706 460.262 119.706Z" fill="#FF9900" fill-opacity="0.5"/>
<g clip-path="url(#clip0_311_7895)">
<path d="M192.538 96.7483C191.089 98.169 191.103 100.485 192.568 101.922C194.032 103.359 196.394 103.372 197.843 101.951C199.292 100.531 199.278 98.2142 197.813 96.7774C196.348 95.3406 193.986 95.3276 192.538 96.7483Z" fill="#4349D5" fill-opacity="0.6"/>
<path d="M182.047 107.037C180.598 108.458 180.611 110.775 182.076 112.211C183.541 113.648 185.903 113.661 187.352 112.24C188.8 110.82 188.787 108.503 187.322 107.066C185.857 105.63 183.495 105.617 182.047 107.037Z" fill="#4349D5" fill-opacity="0.6"/>
<path d="M171.555 117.326C170.107 118.747 170.12 121.064 171.585 122.5C173.05 123.937 175.412 123.95 176.861 122.529C178.309 121.109 178.296 118.792 176.831 117.356C175.366 115.919 173.004 115.906 171.555 117.326Z" fill="#4349D5" fill-opacity="0.6"/>
<path d="M161.064 127.616C159.616 129.036 159.629 131.353 161.094 132.789C162.559 134.226 164.921 134.239 166.369 132.818C167.818 131.398 167.805 129.081 166.34 127.645C164.875 126.208 162.513 126.195 161.064 127.616Z" fill="#4349D5" fill-opacity="0.6"/>
<path d="M150.573 137.907C149.124 139.327 149.138 141.644 150.603 143.08C152.068 144.517 154.43 144.53 155.878 143.11C157.327 141.689 157.313 139.372 155.848 137.936C154.383 136.499 152.022 136.486 150.573 137.907Z" fill="#4349D5" fill-opacity="0.6"/>
<path d="M140.08 148.198C138.631 149.618 138.645 151.935 140.11 153.371C141.574 154.808 143.936 154.821 145.385 153.401C146.834 151.98 146.82 149.663 145.355 148.227C143.89 146.79 141.528 146.777 140.08 148.198Z" fill="#4349D5" fill-opacity="0.6"/>
<path d="M129.589 158.487C128.14 159.907 128.153 162.224 129.618 163.66C131.083 165.097 133.445 165.11 134.894 163.69C136.342 162.269 136.329 159.952 134.864 158.516C133.399 157.079 131.037 157.066 129.589 158.487Z" fill="#4349D5" fill-opacity="0.6"/>
<path d="M119.097 168.776C117.649 170.196 117.662 172.513 119.127 173.95C120.592 175.386 122.954 175.399 124.403 173.979C125.851 172.558 125.838 170.242 124.373 168.805C122.908 167.368 120.546 167.355 119.097 168.776Z" fill="#4349D5" fill-opacity="0.6"/>
<path d="M108.605 179.065C107.157 180.485 107.17 182.802 108.635 184.239C110.1 185.675 112.462 185.688 113.91 184.268C115.359 182.847 115.346 180.531 113.881 179.094C112.416 177.657 110.054 177.644 108.605 179.065Z" fill="#4349D5" fill-opacity="0.6"/>
<path d="M98.114 189.354C96.6654 190.774 96.6787 193.091 98.1437 194.528C99.6087 195.964 101.971 195.977 103.419 194.557C104.868 193.136 104.854 190.82 103.389 189.383C101.924 187.946 99.5626 187.933 98.114 189.354Z" fill="#4349D5" fill-opacity="0.6"/>
<path d="M181.928 86.3421C180.48 87.7628 180.493 90.0792 181.958 91.516C183.423 92.9527 185.785 92.9657 187.234 91.5451C188.682 90.1244 188.669 87.8079 187.204 86.3712C185.739 84.9344 183.377 84.9214 181.928 86.3421Z" fill="#4349D5" fill-opacity="0.6"/>
<path d="M171.437 96.6311C169.989 98.0518 170.002 100.368 171.467 101.805C172.932 103.242 175.294 103.255 176.742 101.834C178.191 100.413 178.178 98.097 176.713 96.6602C175.248 95.2235 172.886 95.2104 171.437 96.6311Z" fill="#4349D5" fill-opacity="0.6"/>
<path d="M160.945 106.922C159.497 108.343 159.51 110.659 160.975 112.096C162.44 113.533 164.802 113.546 166.25 112.125C167.699 110.704 167.685 108.388 166.221 106.951C164.756 105.514 162.394 105.501 160.945 106.922Z" fill="#4349D5" fill-opacity="0.6"/>
<path d="M150.454 117.211C149.005 118.632 149.019 120.948 150.484 122.385C151.948 123.822 154.31 123.835 155.759 122.414C157.208 120.993 157.194 118.677 155.729 117.24C154.264 115.804 151.902 115.791 150.454 117.211Z" fill="#4349D5" fill-opacity="0.6"/>
<path d="M139.963 127.5C138.514 128.921 138.527 131.237 139.992 132.674C141.457 134.111 143.819 134.124 145.268 132.703C146.716 131.283 146.703 128.966 145.238 127.529C143.773 126.093 141.411 126.08 139.963 127.5Z" fill="#4349D5" fill-opacity="0.6"/>
<path d="M129.469 137.791C128.021 139.212 128.034 141.528 129.499 142.965C130.964 144.402 133.326 144.415 134.775 142.994C136.223 141.574 136.21 139.257 134.745 137.82C133.28 136.384 130.918 136.371 129.469 137.791Z" fill="#4349D5" fill-opacity="0.6"/>
<path d="M118.978 148.08C117.53 149.501 117.543 151.817 119.008 153.254C120.473 154.691 122.835 154.704 124.283 153.283C125.732 151.863 125.719 149.546 124.254 148.109C122.789 146.673 120.427 146.66 118.978 148.08Z" fill="#4349D5" fill-opacity="0.6"/>
<path d="M108.487 158.369C107.038 159.79 107.052 162.107 108.517 163.543C109.982 164.98 112.344 164.993 113.792 163.572C115.241 162.152 115.227 159.835 113.762 158.399C112.298 156.962 109.936 156.949 108.487 158.369Z" fill="#4349D5" fill-opacity="0.6"/>
<path d="M97.9959 168.66C96.5473 170.081 96.5606 172.398 98.0255 173.834C99.4905 175.271 101.852 175.284 103.301 173.863C104.75 172.443 104.736 170.126 103.271 168.69C101.806 167.253 99.4444 167.24 97.9959 168.66Z" fill="#4349D5" fill-opacity="0.6"/>
<path d="M87.5046 178.949C86.0561 180.37 86.0694 182.687 87.5343 184.123C88.9993 185.56 91.3612 185.573 92.8097 184.152C94.2583 182.732 94.245 180.415 92.7801 178.979C91.3151 177.542 88.9532 177.529 87.5046 178.949Z" fill="#4349D5" fill-opacity="0.6"/>
<path d="M171.318 75.9378C169.87 77.3585 169.883 79.6749 171.348 81.1117C172.813 82.5484 175.175 82.5615 176.623 81.1408C178.072 79.7201 178.059 77.4036 176.594 75.9669C175.129 74.5301 172.767 74.5171 171.318 75.9378Z" fill="#4349D5" fill-opacity="0.6"/>
<path d="M160.827 86.2268C159.378 87.6475 159.392 89.964 160.857 91.4007C162.322 92.8375 164.683 92.8505 166.132 91.4298C167.581 90.0091 167.567 87.6927 166.102 86.2559C164.637 84.8192 162.275 84.8061 160.827 86.2268Z" fill="#4349D5" fill-opacity="0.6"/>
<path d="M150.336 96.5159C148.887 97.9366 148.9 100.253 150.365 101.69C151.83 103.127 154.192 103.14 155.641 101.719C157.089 100.298 157.076 97.9818 155.611 96.545C154.146 95.1082 151.784 95.0952 150.336 96.5159Z" fill="#4349D5" fill-opacity="0.6"/>
<path d="M139.844 106.805C138.396 108.226 138.409 110.542 139.874 111.979C141.339 113.416 143.701 113.429 145.15 112.008C146.598 110.587 146.585 108.271 145.12 106.834C143.655 105.397 141.293 105.384 139.844 106.805Z" fill="#4349D5" fill-opacity="0.6"/>
<path d="M129.353 117.094C127.905 118.515 127.918 120.831 129.383 122.268C130.848 123.705 133.21 123.718 134.658 122.297C136.107 120.876 136.094 118.56 134.629 117.123C133.164 115.686 130.802 115.673 129.353 117.094Z" fill="#4349D5" fill-opacity="0.6"/>
<path d="M118.859 127.385C117.411 128.806 117.424 131.122 118.889 132.559C120.354 133.996 122.716 134.009 124.164 132.588C125.613 131.167 125.6 128.851 124.135 127.414C122.67 125.977 120.308 125.964 118.859 127.385Z" fill="#4349D5" fill-opacity="0.6"/>
<path d="M108.368 137.676C106.919 139.097 106.933 141.413 108.398 142.85C109.863 144.287 112.224 144.3 113.673 142.879C115.122 141.458 115.108 139.142 113.643 137.705C112.178 136.268 109.817 136.255 108.368 137.676Z" fill="#4349D5" fill-opacity="0.6"/>
<path d="M97.8767 147.965C96.4281 149.386 96.4414 151.702 97.9064 153.139C99.3713 154.576 101.733 154.589 103.182 153.168C104.63 151.747 104.617 149.431 103.152 147.994C101.687 146.557 99.3253 146.544 97.8767 147.965Z" fill="#4349D5" fill-opacity="0.6"/>
<path d="M87.3855 158.254C85.9369 159.675 85.9502 161.991 87.4152 163.428C88.8801 164.865 91.242 164.878 92.6906 163.457C94.1392 162.036 94.1259 159.72 92.6609 158.283C91.196 156.847 88.8341 156.833 87.3855 158.254Z" fill="#4349D5" fill-opacity="0.6"/>
<path d="M76.8943 168.543C75.4457 169.964 75.459 172.28 76.924 173.717C78.3889 175.154 80.7508 175.167 82.1994 173.746C83.648 172.326 83.6347 170.009 82.1697 168.572C80.7048 167.136 78.3429 167.123 76.8943 168.543Z" fill="#4349D5" fill-opacity="0.6"/>
<path d="M160.707 65.5296C159.258 66.9503 159.272 69.2667 160.736 70.7035C162.201 72.1402 164.563 72.1532 166.012 70.7326C167.46 69.3119 167.447 66.9954 165.982 65.5587C164.517 64.1219 162.155 64.1089 160.707 65.5296Z" fill="#4349D5" fill-opacity="0.6"/>
<path d="M150.217 75.8186C148.768 77.2393 148.781 79.5558 150.246 80.9925C151.711 82.4293 154.073 82.4423 155.522 81.0216C156.97 79.6009 156.957 77.2845 155.492 75.8477C154.027 74.411 151.665 74.3979 150.217 75.8186Z" fill="#4349D5" fill-opacity="0.6"/>
<path d="M139.724 86.1096C138.276 87.5303 138.289 89.8468 139.754 91.2835C141.219 92.7203 143.581 92.7333 145.029 91.3126C146.478 89.8919 146.465 87.5755 145 86.1387C143.535 84.702 141.173 84.6889 139.724 86.1096Z" fill="#4349D5" fill-opacity="0.6"/>
<path d="M129.233 96.3987C127.785 97.8194 127.798 100.136 129.263 101.573C130.728 103.009 133.09 103.022 134.538 101.602C135.987 100.181 135.974 97.8646 134.509 96.4278C133.044 94.991 130.682 94.978 129.233 96.3987Z" fill="#4349D5" fill-opacity="0.6"/>
<path d="M118.742 106.688C117.293 108.108 117.307 110.425 118.772 111.862C120.237 113.298 122.598 113.311 124.047 111.891C125.496 110.47 125.482 108.154 124.017 106.717C122.552 105.28 120.191 105.267 118.742 106.688Z" fill="#4349D5" fill-opacity="0.6"/>
<path d="M108.249 116.979C106.8 118.399 106.813 120.716 108.278 122.153C109.743 123.589 112.105 123.602 113.554 122.182C115.002 120.761 114.989 118.445 113.524 117.008C112.059 115.571 109.697 115.558 108.249 116.979Z" fill="#4349D5" fill-opacity="0.6"/>
<path d="M97.7576 127.268C96.309 128.689 96.3223 131.005 97.7872 132.442C99.2522 133.879 101.614 133.892 103.063 132.471C104.511 131.05 104.498 128.734 103.033 127.297C101.568 125.86 99.2062 125.847 97.7576 127.268Z" fill="#4349D5" fill-opacity="0.6"/>
<path d="M87.2664 137.557C85.8178 138.978 85.8311 141.294 87.296 142.731C88.761 144.168 91.1229 144.181 92.5715 142.76C94.02 141.339 94.0068 139.023 92.5418 137.586C91.0768 136.149 88.7149 136.136 87.2664 137.557Z" fill="#4349D5" fill-opacity="0.6"/>
<path d="M76.7752 147.848C75.3266 149.269 75.3399 151.585 76.8048 153.022C78.2698 154.459 80.6317 154.472 82.0802 153.051C83.5288 151.63 83.5155 149.314 82.0506 147.877C80.5856 146.44 78.2237 146.427 76.7752 147.848Z" fill="#4349D5" fill-opacity="0.6"/>
<path d="M66.2839 158.137C64.8354 159.558 64.8486 161.874 66.3136 163.311C67.7786 164.748 70.1405 164.761 71.589 163.34C73.0376 161.919 73.0243 159.603 71.5594 158.166C70.0944 156.729 67.7325 156.716 66.2839 158.137Z" fill="#4349D5" fill-opacity="0.6"/>
<path d="M150.097 55.1253C148.649 56.546 148.662 58.8624 150.127 60.2992C151.592 61.7359 153.954 61.749 155.403 60.3283C156.851 58.9076 156.838 56.5911 155.373 55.1544C153.908 53.7176 151.546 53.7046 150.097 55.1253Z" fill="#4349D5" fill-opacity="0.6"/>
<path d="M139.606 65.4143C138.158 66.835 138.171 69.1514 139.636 70.5882C141.101 72.025 143.463 72.038 144.911 70.6173C146.36 69.1966 146.347 66.8802 144.882 65.4434C143.417 64.0067 141.055 63.9936 139.606 65.4143Z" fill="#4349D5" fill-opacity="0.6"/>
<path d="M129.114 75.7034C127.665 77.1241 127.679 79.4405 129.144 80.8773C130.609 82.314 132.971 82.3271 134.419 80.9064C135.868 79.4857 135.854 77.1693 134.389 75.7325C132.924 74.2957 130.563 74.2827 129.114 75.7034Z" fill="#4349D5" fill-opacity="0.6"/>
<path d="M118.624 85.9925C117.175 87.4131 117.188 89.7296 118.653 91.1663C120.118 92.6031 122.48 92.6161 123.929 91.1954C125.377 89.7747 125.364 87.4583 123.899 86.0215C122.434 84.5848 120.072 84.5718 118.624 85.9925Z" fill="#4349D5" fill-opacity="0.6"/>
<path d="M108.133 96.2815C106.684 97.7022 106.697 100.019 108.162 101.455C109.627 102.892 111.989 102.905 113.438 101.485C114.886 100.064 114.873 97.7474 113.408 96.3106C111.943 94.8738 109.581 94.8608 108.133 96.2815Z" fill="#4349D5" fill-opacity="0.6"/>
<path d="M97.6384 106.573C96.1899 107.993 96.2031 110.31 97.6681 111.746C99.1331 113.183 101.495 113.196 102.944 111.776C104.392 110.355 104.379 108.038 102.914 106.602C101.449 105.165 99.087 105.152 97.6384 106.573Z" fill="#4349D5" fill-opacity="0.6"/>
<path d="M87.1472 116.864C85.6986 118.284 85.7119 120.601 87.1769 122.037C88.6418 123.474 91.0037 123.487 92.4523 122.067C93.9009 120.646 93.8876 118.329 92.4226 116.893C90.9577 115.456 88.5958 115.443 87.1472 116.864Z" fill="#4349D5" fill-opacity="0.6"/>
<path d="M76.656 127.153C75.2074 128.573 75.2207 130.89 76.6857 132.326C78.1506 133.763 80.5125 133.776 81.9611 132.356C83.4097 130.935 83.3964 128.618 81.9314 127.182C80.4665 125.745 78.1046 125.732 76.656 127.153Z" fill="#4349D5" fill-opacity="0.6"/>
<path d="M66.1648 137.442C64.7162 138.862 64.7295 141.179 66.1945 142.616C67.6594 144.052 70.0213 144.065 71.4699 142.645C72.9185 141.224 72.9052 138.908 71.4402 137.471C69.9753 136.034 67.6134 136.021 66.1648 137.442Z" fill="#4349D5" fill-opacity="0.6"/>
<path d="M55.6736 147.731C54.225 149.151 54.2383 151.468 55.7033 152.905C57.1682 154.341 59.5301 154.354 60.9787 152.934C62.4273 151.513 62.414 149.197 60.949 147.76C59.4841 146.323 57.1222 146.31 55.6736 147.731Z" fill="#4349D5" fill-opacity="0.6"/>
<path d="M139.487 44.719C138.038 46.1397 138.052 48.4561 139.517 49.8929C140.982 51.3297 143.344 51.3427 144.792 49.922C146.241 48.5013 146.227 46.1849 144.762 44.7481C143.298 43.3113 140.936 43.2983 139.487 44.719Z" fill="#4349D5" fill-opacity="0.6"/>
<path d="M128.996 55.0081C127.547 56.4288 127.561 58.7452 129.026 60.182C130.49 61.6187 132.852 61.6318 134.301 60.2111C135.75 58.7904 135.736 56.4739 134.271 55.0372C132.806 53.6004 130.444 53.5874 128.996 55.0081Z" fill="#4349D5" fill-opacity="0.6"/>
<path d="M118.505 65.2971C117.056 66.7178 117.069 69.0343 118.534 70.471C119.999 71.9078 122.361 71.9208 123.81 70.5001C125.258 69.0794 125.245 66.763 123.78 65.3262C122.315 63.8895 119.953 63.8764 118.505 65.2971Z" fill="#4349D5" fill-opacity="0.6"/>
<path d="M108.013 75.5862C106.565 77.0069 106.578 79.3233 108.043 80.7601C109.508 82.1969 111.87 82.2099 113.319 80.7892C114.767 79.3685 114.754 77.0521 113.289 75.6153C111.824 74.1785 109.462 74.1655 108.013 75.5862Z" fill="#4349D5" fill-opacity="0.6"/>
<path d="M97.5222 85.8753C96.0736 87.296 96.0869 89.6124 97.5519 91.0492C99.0169 92.4859 101.379 92.499 102.827 91.0783C104.276 89.6576 104.263 87.3411 102.798 85.9044C101.333 84.4676 98.9708 84.4546 97.5222 85.8753Z" fill="#4349D5" fill-opacity="0.6"/>
<path d="M87.0291 96.1682C85.5805 97.5889 85.5938 99.9054 87.0587 101.342C88.5237 102.779 90.8856 102.792 92.3342 101.371C93.7827 99.9505 93.7694 97.6341 92.3045 96.1973C90.8395 94.7606 88.4776 94.7475 87.0291 96.1682Z" fill="#4349D5" fill-opacity="0.6"/>
<path d="M76.5378 106.457C75.0893 107.878 75.1026 110.194 76.5675 111.631C78.0325 113.068 80.3944 113.081 81.8429 111.66C83.2915 110.24 83.2782 107.923 81.8133 106.486C80.3483 105.05 77.9864 105.037 76.5378 106.457Z" fill="#4349D5" fill-opacity="0.6"/>
<path d="M66.0466 116.746C64.5981 118.167 64.6113 120.483 66.0763 121.92C67.5413 123.357 69.9032 123.37 71.3517 121.949C72.8003 120.529 72.787 118.212 71.3221 116.775C69.8571 115.339 67.4952 115.326 66.0466 116.746Z" fill="#4349D5" fill-opacity="0.6"/>
<path d="M55.5545 127.035C54.1059 128.456 54.1192 130.773 55.5841 132.209C57.0491 133.646 59.411 133.659 60.8595 132.238C62.3081 130.818 62.2948 128.501 60.8299 127.065C59.3649 125.628 57.003 125.615 55.5545 127.035Z" fill="#4349D5" fill-opacity="0.6"/>
<path d="M45.0632 137.324C43.6147 138.745 43.6279 141.062 45.0929 142.498C46.5579 143.935 48.9198 143.948 50.3683 142.527C51.8169 141.107 51.8036 138.79 50.3387 137.354C48.8737 135.917 46.5118 135.904 45.0632 137.324Z" fill="#4349D5" fill-opacity="0.6"/>
<path d="M128.878 34.3128C127.429 35.7335 127.442 38.0499 128.907 39.4867C130.372 40.9234 132.734 40.9365 134.183 39.5158C135.631 38.0951 135.618 35.7786 134.153 34.3419C132.688 32.9051 130.326 32.8921 128.878 34.3128Z" fill="#4349D5" fill-opacity="0.6"/>
<path d="M118.386 44.6018C116.938 46.0225 116.951 48.339 118.416 49.7757C119.881 51.2125 122.243 51.2255 123.692 49.8048C125.14 48.3841 125.127 46.0677 123.662 44.6309C122.197 43.1942 119.835 43.1811 118.386 44.6018Z" fill="#4349D5" fill-opacity="0.6"/>
<path d="M107.894 54.8909C106.446 56.3116 106.459 58.628 107.924 60.0648C109.389 61.5015 111.751 61.5146 113.199 60.0939C114.648 58.6732 114.635 56.3568 113.17 54.92C111.705 53.4832 109.343 53.4702 107.894 54.8909Z" fill="#4349D5" fill-opacity="0.6"/>
<path d="M97.4031 65.1819C95.9545 66.6026 95.9678 68.919 97.4327 70.3558C98.8977 71.7926 101.26 71.8056 102.708 70.3849C104.157 68.9642 104.143 66.6478 102.679 65.211C101.214 63.7742 98.8517 63.7612 97.4031 65.1819Z" fill="#4349D5" fill-opacity="0.6"/>
<path d="M86.9119 75.471C85.4633 76.8917 85.4766 79.2081 86.9415 80.6449C88.4065 82.0816 90.7684 82.0947 92.217 80.674C93.6655 79.2533 93.6523 76.9368 92.1873 75.5001C90.7223 74.0633 88.3604 74.0503 86.9119 75.471Z" fill="#4349D5" fill-opacity="0.6"/>
<path d="M76.4187 85.762C74.9701 87.1827 74.9834 89.4991 76.4484 90.9359C77.9133 92.3726 80.2752 92.3857 81.7238 90.965C83.1724 89.5443 83.1591 87.2279 81.6941 85.7911C80.2292 84.3543 77.8673 84.3413 76.4187 85.762Z" fill="#4349D5" fill-opacity="0.6"/>
<path d="M65.9275 96.051C64.4789 97.4717 64.4922 99.7882 65.9572 101.225C67.4221 102.662 69.784 102.675 71.2326 101.254C72.6812 99.8333 72.6679 97.5169 71.2029 96.0801C69.738 94.6434 67.3761 94.6304 65.9275 96.051Z" fill="#4349D5" fill-opacity="0.6"/>
<path d="M55.4363 106.34C53.9877 107.761 54.001 110.077 55.466 111.514C56.9309 112.951 59.2928 112.964 60.7414 111.543C62.19 110.122 62.1767 107.806 60.7117 106.369C59.2467 104.932 56.8849 104.919 55.4363 106.34Z" fill="#4349D5" fill-opacity="0.6"/>
<path d="M44.9451 116.629C43.4965 118.05 43.5098 120.366 44.9747 121.803C46.4397 123.24 48.8016 123.253 50.2502 121.832C51.6987 120.411 51.6855 118.095 50.2205 116.658C48.7555 115.222 46.3936 115.208 44.9451 116.629Z" fill="#4349D5" fill-opacity="0.6"/>
<path d="M34.4539 126.918C33.0053 128.339 33.0186 130.655 34.4835 132.092C35.9485 133.529 38.3104 133.542 39.759 132.121C41.2075 130.701 41.1943 128.384 39.7293 126.947C38.2643 125.511 35.9024 125.498 34.4539 126.918Z" fill="#4349D5" fill-opacity="0.6"/>
<path d="M118.266 23.9065C116.818 25.3272 116.831 27.6436 118.296 29.0804C119.761 30.5172 122.123 30.5302 123.571 29.1095C125.02 27.6888 125.007 25.3724 123.542 23.9356C122.077 22.4988 119.715 22.4858 118.266 23.9065Z" fill="#4349D5" fill-opacity="0.6"/>
<path d="M107.775 34.1956C106.327 35.6163 106.34 37.9327 107.805 39.3695C109.27 40.8062 111.632 40.8193 113.08 39.3986C114.529 37.9779 114.516 35.6614 113.051 34.2247C111.586 32.7879 109.224 32.7749 107.775 34.1956Z" fill="#4349D5" fill-opacity="0.6"/>
<path d="M97.2839 44.4846C95.8354 45.9053 95.8487 48.2218 97.3136 49.6585C98.7786 51.0953 101.14 51.1083 102.589 49.6876C104.038 48.2669 104.024 45.9505 102.559 44.5137C101.094 43.077 98.7325 43.0639 97.2839 44.4846Z" fill="#4349D5" fill-opacity="0.6"/>
<path d="M86.7927 54.7737C85.3442 56.1944 85.3574 58.5108 86.8224 59.9476C88.2874 61.3844 90.6492 61.3974 92.0978 59.9767C93.5464 58.556 93.5331 56.2396 92.0682 54.8028C90.6032 53.366 88.2413 53.353 86.7927 54.7737Z" fill="#4349D5" fill-opacity="0.6"/>
<path d="M76.3015 65.0628C74.8529 66.4835 74.8662 68.7999 76.3312 70.2367C77.7962 71.6734 80.158 71.6865 81.6066 70.2658C83.0552 68.8451 83.0419 66.5286 81.5769 65.0919C80.112 63.6551 77.7501 63.6421 76.3015 65.0628Z" fill="#4349D5" fill-opacity="0.6"/>
<path d="M65.8074 75.3557C64.3588 76.7764 64.3721 79.0929 65.837 80.5296C67.302 81.9664 69.6639 81.9794 71.1125 80.5587C72.5611 79.138 72.5478 76.8216 71.0828 75.3848C69.6178 73.9481 67.256 73.935 65.8074 75.3557Z" fill="#4349D5" fill-opacity="0.6"/>
<path d="M55.3162 85.6448C53.8676 87.0655 53.8809 89.3819 55.3458 90.8187C56.8108 92.2555 59.1727 92.2685 60.6213 90.8478C62.0698 89.4271 62.0566 87.1107 60.5916 85.6739C59.1266 84.2371 56.7647 84.2241 55.3162 85.6448Z" fill="#4349D5" fill-opacity="0.6"/>
<path d="M44.825 95.9339C43.3764 97.3546 43.3897 99.671 44.8546 101.108C46.3196 102.545 48.6815 102.558 50.1301 101.137C51.5786 99.7162 51.5653 97.3997 50.1004 95.963C48.6354 94.5262 46.2735 94.5132 44.825 95.9339Z" fill="#4349D5" fill-opacity="0.6"/>
<path d="M34.3337 106.223C32.8852 107.644 32.8985 109.96 34.3634 111.397C35.8284 112.834 38.1903 112.847 39.6388 111.426C41.0874 110.005 41.0741 107.689 39.6092 106.252C38.1442 104.815 35.7823 104.802 34.3337 106.223Z" fill="#4349D5" fill-opacity="0.6"/>
<path d="M23.8425 116.512C22.394 117.933 22.4072 120.249 23.8722 121.686C25.3372 123.123 27.6991 123.136 29.1476 121.715C30.5962 120.294 30.5829 117.978 29.118 116.541C27.653 115.104 25.2911 115.091 23.8425 116.512Z" fill="#4349D5" fill-opacity="0.6"/>
<path d="M107.656 13.5003C106.207 14.921 106.221 17.2374 107.686 18.6742C109.151 20.1109 111.513 20.124 112.961 18.7033C114.41 17.2826 114.396 14.9661 112.931 13.5294C111.466 12.0926 109.105 12.0796 107.656 13.5003Z" fill="#4349D5" fill-opacity="0.6"/>
<path d="M97.1658 23.7893C95.7172 25.21 95.7305 27.5265 97.1954 28.9632C98.6604 30.4 101.022 30.413 102.471 28.9923C103.919 27.5716 103.906 25.2552 102.441 23.8184C100.976 22.3817 98.6144 22.3686 97.1658 23.7893Z" fill="#4349D5" fill-opacity="0.6"/>
<path d="M86.6736 34.0784C85.225 35.4991 85.2383 37.8155 86.7033 39.2523C88.1682 40.689 90.5301 40.7021 91.9787 39.2814C93.4273 37.8607 93.414 35.5443 91.949 34.1075C90.4841 32.6707 88.1222 32.6577 86.6736 34.0784Z" fill="#4349D5" fill-opacity="0.6"/>
<path d="M76.1824 44.3675C74.7338 45.7881 74.7471 48.1046 76.212 49.5413C77.677 50.9781 80.0389 50.9911 81.4875 49.5704C82.9361 48.1497 82.9228 45.8333 81.4578 44.3966C79.9928 42.9598 77.631 42.9468 76.1824 44.3675Z" fill="#4349D5" fill-opacity="0.6"/>
<path d="M65.6912 54.6585C64.2426 56.0792 64.2559 58.3956 65.7208 59.8324C67.1858 61.2691 69.5477 61.2822 70.9963 59.8615C72.4448 58.4408 72.4316 56.1243 70.9666 54.6876C69.5016 53.2508 67.1397 53.2378 65.6912 54.6585Z" fill="#4349D5" fill-opacity="0.6"/>
<path d="M55.198 64.9495C53.7494 66.3702 53.7627 68.6866 55.2277 70.1234C56.6926 71.5601 59.0545 71.5732 60.5031 70.1525C61.9517 68.7318 61.9384 66.4153 60.4734 64.9786C59.0085 63.5418 56.6466 63.5288 55.198 64.9495Z" fill="#4349D5" fill-opacity="0.6"/>
<path d="M44.7068 75.2385C43.2582 76.6592 43.2715 78.9757 44.7365 80.4124C46.2014 81.8492 48.5633 81.8622 50.0119 80.4415C51.4605 79.0208 51.4472 76.7044 49.9822 75.2676C48.5173 73.8309 46.1554 73.8179 44.7068 75.2385Z" fill="#4349D5" fill-opacity="0.6"/>
<path d="M34.2156 85.5276C32.767 86.9483 32.7803 89.2647 34.2452 90.7015C35.7102 92.1383 38.0721 92.1513 39.5207 90.7306C40.9693 89.3099 40.956 86.9935 39.491 85.5567C38.026 84.1199 35.6642 84.1069 34.2156 85.5276Z" fill="#4349D5" fill-opacity="0.6"/>
<path d="M23.7244 95.8167C22.2758 97.2374 22.2891 99.5538 23.754 100.991C25.219 102.427 27.5809 102.44 29.0295 101.02C30.478 99.599 30.4648 97.2825 28.9998 95.8458C27.5348 94.409 25.1729 94.396 23.7244 95.8167Z" fill="#4349D5" fill-opacity="0.6"/>
<path d="M13.2332 106.106C11.7846 107.526 11.7979 109.843 13.2628 111.28C14.7278 112.716 17.0897 112.729 18.5383 111.309C19.9868 109.888 19.9735 107.572 18.5086 106.135C17.0436 104.698 14.6817 104.685 13.2332 106.106Z" fill="#4349D5" fill-opacity="0.6"/>
<path d="M97.0466 3.09401C95.5981 4.51471 95.6113 6.83114 97.0763 8.26791C98.5413 9.70467 100.903 9.7177 102.352 8.29701C103.8 6.87631 103.787 4.55988 102.322 3.12311C100.857 1.68635 98.4952 1.67332 97.0466 3.09401Z" fill="#4349D5" fill-opacity="0.6"/>
<path d="M86.5554 13.3831C85.1068 14.8038 85.1201 17.1202 86.5851 18.557C88.0501 19.9937 90.4119 20.0068 91.8605 18.5861C93.3091 17.1654 93.2958 14.8489 91.8309 13.4122C90.3659 11.9754 88.004 11.9624 86.5554 13.3831Z" fill="#4349D5" fill-opacity="0.6"/>
<path d="M76.0632 23.6741C74.6147 25.0948 74.6279 27.4112 76.0929 28.848C77.5579 30.2848 79.9198 30.2978 81.3683 28.8771C82.8169 27.4564 82.8036 25.14 81.3387 23.7032C79.8737 22.2664 77.5118 22.2534 76.0632 23.6741Z" fill="#4349D5" fill-opacity="0.6"/>
<path d="M65.573 33.9632C64.1244 35.3839 64.1377 37.7003 65.6027 39.1371C67.0676 40.5738 69.4295 40.5868 70.8781 39.1661C72.3267 37.7455 72.3134 35.429 70.8484 33.9923C69.3835 32.5555 67.0216 32.5425 65.573 33.9632Z" fill="#4349D5" fill-opacity="0.6"/>
<path d="M55.0818 44.2522C53.6332 45.6729 53.6465 47.9893 55.1115 49.4261C56.5764 50.8629 58.9383 50.8759 60.3869 49.4552C61.8355 48.0345 61.8222 45.7181 60.3572 44.2813C58.8923 42.8446 56.5304 42.8315 55.0818 44.2522Z" fill="#4349D5" fill-opacity="0.6"/>
<path d="M44.5877 54.5432C43.1391 55.9639 43.1524 58.2804 44.6173 59.7171C46.0823 61.1539 48.4442 61.1669 49.8927 59.7462C51.3413 58.3255 51.328 56.0091 49.8631 54.5723C48.3981 53.1356 46.0362 53.1225 44.5877 54.5432Z" fill="#4349D5" fill-opacity="0.6"/>
<path d="M34.0964 64.8323C32.6479 66.253 32.6611 68.5694 34.1261 70.0062C35.5911 71.443 37.953 71.456 39.4015 70.0353C40.8501 68.6146 40.8368 66.2982 39.3719 64.8614C37.9069 63.4246 35.545 63.4116 34.0964 64.8323Z" fill="#4349D5" fill-opacity="0.6"/>
<path d="M23.6052 75.1214C22.1567 76.5421 22.1699 78.8585 23.6349 80.2953C25.0999 81.732 27.4617 81.745 28.9103 80.3244C30.3589 78.9037 30.3456 76.5872 28.8807 75.1505C27.4157 73.7137 25.0538 73.7007 23.6052 75.1214Z" fill="#4349D5" fill-opacity="0.6"/>
<path d="M13.114 85.4124C11.6654 86.8331 11.6787 89.1495 13.1437 90.5863C14.6086 92.023 16.9705 92.0361 18.4191 90.6154C19.8677 89.1947 19.8544 86.8782 18.3894 85.4415C16.9245 84.0047 14.5626 83.9917 13.114 85.4124Z" fill="#4349D5" fill-opacity="0.6"/>
<path d="M2.62281 95.7014C1.17423 97.1221 1.18751 99.4386 2.65248 100.875C4.11744 102.312 6.47933 102.325 7.9279 100.904C9.37648 99.4837 9.3632 97.1673 7.89823 95.7305C6.43327 94.2938 4.07138 94.2807 2.62281 95.7014Z" fill="#4349D5" fill-opacity="0.6"/>
</g>
<g opacity="0.7" clip-path="url(#clip1_311_7895)">
<path d="M674.93 238.752C672.603 238.752 670.716 239.818 670.716 241.134C670.716 242.449 672.603 243.516 674.93 243.516C677.258 243.516 679.145 242.449 679.145 241.134C679.145 239.818 677.258 238.752 674.93 238.752Z" fill="#00FF01"/>
<path d="M658.074 238.752C655.746 238.752 653.859 239.818 653.859 241.134C653.859 242.449 655.746 243.516 658.074 243.516C660.401 243.516 662.288 242.449 662.288 241.134C662.288 239.818 660.401 238.752 658.074 238.752Z" fill="#00FF01"/>
<path d="M641.215 238.752C638.888 238.752 637.001 239.818 637.001 241.134C637.001 242.449 638.888 243.516 641.215 243.516C643.543 243.516 645.43 242.449 645.43 241.134C645.43 239.818 643.543 238.752 641.215 238.752Z" fill="#00FF01"/>
<path d="M624.359 238.752C622.031 238.752 620.145 239.818 620.145 241.134C620.145 242.449 622.031 243.516 624.359 243.516C626.686 243.516 628.573 242.449 628.573 241.134C628.573 239.818 626.686 238.752 624.359 238.752Z" fill="#00FF01"/>
<path d="M607.502 238.752C605.175 238.752 603.288 239.818 603.288 241.134C603.288 242.449 605.175 243.516 607.502 243.516C609.83 243.516 611.717 242.449 611.717 241.134C611.717 239.818 609.83 238.752 607.502 238.752Z" fill="#00FF01"/>
<path d="M590.642 238.752C588.315 238.752 586.428 239.818 586.428 241.134C586.428 242.449 588.315 243.516 590.642 243.516C592.97 243.516 594.856 242.449 594.856 241.134C594.856 239.818 592.97 238.752 590.642 238.752Z" fill="#00FF01"/>
<path d="M573.785 238.752C571.457 238.752 569.57 239.818 569.57 241.134C569.57 242.449 571.457 243.516 573.785 243.516C576.112 243.516 577.999 242.449 577.999 241.134C577.999 239.818 576.112 238.752 573.785 238.752Z" fill="#00FF01"/>
<path d="M556.928 238.752C554.601 238.752 552.714 239.818 552.714 241.134C552.714 242.449 554.601 243.516 556.928 243.516C559.256 243.516 561.143 242.449 561.143 241.134C561.143 239.818 559.256 238.752 556.928 238.752Z" fill="#00FF01"/>
<path d="M540.071 238.752C537.743 238.752 535.857 239.818 535.857 241.134C535.857 242.449 537.743 243.516 540.071 243.516C542.398 243.516 544.285 242.449 544.285 241.134C544.285 239.818 542.398 238.752 540.071 238.752Z" fill="#00FF01"/>
<path d="M523.214 238.752C520.887 238.752 519 239.818 519 241.134C519 242.449 520.887 243.516 523.214 243.516C525.542 243.516 527.429 242.449 527.429 241.134C527.429 239.818 525.542 238.752 523.214 238.752Z" fill="#00FF01"/>
<path d="M674.93 229.224C672.603 229.224 670.716 230.291 670.716 231.606C670.716 232.922 672.603 233.988 674.93 233.988C677.258 233.988 679.145 232.922 679.145 231.606C679.145 230.291 677.258 229.224 674.93 229.224Z" fill="#00FF01"/>
<path d="M658.074 229.224C655.746 229.224 653.859 230.291 653.859 231.606C653.859 232.922 655.746 233.988 658.074 233.988C660.401 233.988 662.288 232.922 662.288 231.606C662.288 230.291 660.401 229.224 658.074 229.224Z" fill="#00FF01"/>
<path d="M641.215 229.224C638.888 229.224 637.001 230.291 637.001 231.606C637.001 232.922 638.888 233.988 641.215 233.988C643.543 233.988 645.43 232.922 645.43 231.606C645.43 230.291 643.543 229.224 641.215 229.224Z" fill="#00FF01"/>
<path d="M624.359 229.224C622.031 229.224 620.145 230.291 620.145 231.606C620.145 232.922 622.031 233.988 624.359 233.988C626.686 233.988 628.573 232.922 628.573 231.606C628.573 230.291 626.686 229.224 624.359 229.224Z" fill="#00FF01"/>
<path d="M607.502 229.224C605.175 229.224 603.288 230.291 603.288 231.606C603.288 232.922 605.175 233.988 607.502 233.988C609.83 233.988 611.717 232.922 611.717 231.606C611.717 230.291 609.83 229.224 607.502 229.224Z" fill="#00FF01"/>
<path d="M590.642 229.224C588.315 229.224 586.428 230.291 586.428 231.606C586.428 232.922 588.315 233.988 590.642 233.988C592.97 233.988 594.856 232.922 594.856 231.606C594.856 230.291 592.97 229.224 590.642 229.224Z" fill="#00FF01"/>
<path d="M573.785 229.224C571.457 229.224 569.57 230.291 569.57 231.606C569.57 232.922 571.457 233.988 573.785 233.988C576.112 233.988 577.999 232.922 577.999 231.606C577.999 230.291 576.112 229.224 573.785 229.224Z" fill="#00FF01"/>
<path d="M556.928 229.224C554.601 229.224 552.714 230.291 552.714 231.606C552.714 232.922 554.601 233.988 556.928 233.988C559.256 233.988 561.143 232.922 561.143 231.606C561.143 230.291 559.256 229.224 556.928 229.224Z" fill="#00FF01"/>
<path d="M540.071 229.224C537.743 229.224 535.857 230.291 535.857 231.606C535.857 232.922 537.743 233.988 540.071 233.988C542.398 233.988 544.285 232.922 544.285 231.606C544.285 230.291 542.398 229.224 540.071 229.224Z" fill="#00FF01"/>
<path d="M523.214 229.224C520.887 229.224 519 230.291 519 231.606C519 232.922 520.887 233.988 523.214 233.988C525.542 233.988 527.429 232.922 527.429 231.606C527.429 230.291 525.542 229.224 523.214 229.224Z" fill="#00FF01"/>
<path d="M674.93 219.697C672.603 219.697 670.716 220.763 670.716 222.079C670.716 223.394 672.603 224.461 674.93 224.461C677.258 224.461 679.145 223.394 679.145 222.079C679.145 220.763 677.258 219.697 674.93 219.697Z" fill="#00FF01"/>
<path d="M658.074 219.697C655.746 219.697 653.859 220.763 653.859 222.079C653.859 223.394 655.746 224.461 658.074 224.461C660.401 224.461 662.288 223.394 662.288 222.079C662.288 220.763 660.401 219.697 658.074 219.697Z" fill="#00FF01"/>
<path d="M641.215 219.697C638.888 219.697 637.001 220.763 637.001 222.079C637.001 223.394 638.888 224.461 641.215 224.461C643.543 224.461 645.43 223.394 645.43 222.079C645.43 220.763 643.543 219.697 641.215 219.697Z" fill="#00FF01"/>
<path d="M624.359 219.697C622.031 219.697 620.145 220.763 620.145 222.079C620.145 223.394 622.031 224.461 624.359 224.461C626.686 224.461 628.573 223.394 628.573 222.079C628.573 220.763 626.686 219.697 624.359 219.697Z" fill="#00FF01"/>
<path d="M607.502 219.697C605.175 219.697 603.288 220.763 603.288 222.079C603.288 223.394 605.175 224.461 607.502 224.461C609.83 224.461 611.717 223.394 611.717 222.079C611.717 220.763 609.83 219.697 607.502 219.697Z" fill="#00FF01"/>
<path d="M590.642 219.697C588.315 219.697 586.428 220.763 586.428 222.079C586.428 223.394 588.315 224.461 590.642 224.461C592.97 224.461 594.856 223.394 594.856 222.079C594.856 220.763 592.97 219.697 590.642 219.697Z" fill="#00FF01"/>
<path d="M573.785 219.697C571.457 219.697 569.57 220.763 569.57 222.079C569.57 223.394 571.457 224.461 573.785 224.461C576.112 224.461 577.999 223.394 577.999 222.079C577.999 220.763 576.112 219.697 573.785 219.697Z" fill="#00FF01"/>
<path d="M556.928 219.697C554.601 219.697 552.714 220.763 552.714 222.079C552.714 223.394 554.601 224.461 556.928 224.461C559.256 224.461 561.143 223.394 561.143 222.079C561.143 220.763 559.256 219.697 556.928 219.697Z" fill="#00FF01"/>
<path d="M540.071 219.697C537.743 219.697 535.857 220.763 535.857 222.079C535.857 223.394 537.743 224.461 540.071 224.461C542.398 224.461 544.285 223.394 544.285 222.079C544.285 220.763 542.398 219.697 540.071 219.697Z" fill="#00FF01"/>
<path d="M523.214 219.697C520.887 219.697 519 220.763 519 222.079C519 223.394 520.887 224.461 523.214 224.461C525.542 224.461 527.429 223.394 527.429 222.079C527.429 220.763 525.542 219.697 523.214 219.697Z" fill="#00FF01"/>
<path d="M674.93 210.168C672.603 210.168 670.716 211.234 670.716 212.55C670.716 213.865 672.603 214.932 674.93 214.932C677.258 214.932 679.145 213.865 679.145 212.55C679.145 211.234 677.258 210.168 674.93 210.168Z" fill="#00FF01"/>
<path d="M658.074 210.168C655.746 210.168 653.859 211.234 653.859 212.55C653.859 213.865 655.746 214.932 658.074 214.932C660.401 214.932 662.288 213.865 662.288 212.55C662.288 211.234 660.401 210.168 658.074 210.168Z" fill="#00FF01"/>
<path d="M641.215 210.168C638.888 210.168 637.001 211.234 637.001 212.55C637.001 213.865 638.888 214.932 641.215 214.932C643.543 214.932 645.43 213.865 645.43 212.55C645.43 211.234 643.543 210.168 641.215 210.168Z" fill="#00FF01"/>
<path d="M624.359 210.168C622.031 210.168 620.145 211.234 620.145 212.55C620.145 213.865 622.031 214.932 624.359 214.932C626.686 214.932 628.573 213.865 628.573 212.55C628.573 211.234 626.686 210.168 624.359 210.168Z" fill="#00FF01"/>
<path d="M607.502 210.168C605.175 210.168 603.288 211.234 603.288 212.55C603.288 213.865 605.175 214.932 607.502 214.932C609.83 214.932 611.717 213.865 611.717 212.55C611.717 211.234 609.83 210.168 607.502 210.168Z" fill="#00FF01"/>
<path d="M590.642 210.168C588.315 210.168 586.428 211.234 586.428 212.55C586.428 213.865 588.315 214.932 590.642 214.932C592.97 214.932 594.856 213.865 594.856 212.55C594.856 211.234 592.97 210.168 590.642 210.168Z" fill="#00FF01"/>
<path d="M573.785 210.168C571.457 210.168 569.57 211.234 569.57 212.55C569.57 213.865 571.457 214.932 573.785 214.932C576.112 214.932 577.999 213.865 577.999 212.55C577.999 211.234 576.112 210.168 573.785 210.168Z" fill="#00FF01"/>
<path d="M556.928 210.168C554.601 210.168 552.714 211.234 552.714 212.55C552.714 213.865 554.601 214.932 556.928 214.932C559.256 214.932 561.143 213.865 561.143 212.55C561.143 211.234 559.256 210.168 556.928 210.168Z" fill="#00FF01"/>
<path d="M540.071 210.168C537.743 210.168 535.857 211.234 535.857 212.55C535.857 213.865 537.743 214.932 540.071 214.932C542.398 214.932 544.285 213.865 544.285 212.55C544.285 211.234 542.398 210.168 540.071 210.168Z" fill="#00FF01"/>
<path d="M523.214 210.168C520.887 210.168 519 211.234 519 212.55C519 213.865 520.887 214.932 523.214 214.932C525.542 214.932 527.429 213.865 527.429 212.55C527.429 211.234 525.542 210.168 523.214 210.168Z" fill="#00FF01"/>
<path d="M674.93 200.64C672.603 200.64 670.716 201.707 670.716 203.022C670.716 204.338 672.603 205.404 674.93 205.404C677.258 205.404 679.145 204.338 679.145 203.022C679.145 201.707 677.258 200.64 674.93 200.64Z" fill="#00FF01"/>
<path d="M658.074 200.64C655.746 200.64 653.859 201.707 653.859 203.022C653.859 204.338 655.746 205.404 658.074 205.404C660.401 205.404 662.288 204.338 662.288 203.022C662.288 201.707 660.401 200.64 658.074 200.64Z" fill="#00FF01"/>
<path d="M641.215 200.64C638.888 200.64 637.001 201.707 637.001 203.022C637.001 204.338 638.888 205.404 641.215 205.404C643.543 205.404 645.43 204.338 645.43 203.022C645.43 201.707 643.543 200.64 641.215 200.64Z" fill="#00FF01"/>
<path d="M624.359 200.64C622.031 200.64 620.145 201.707 620.145 203.022C620.145 204.338 622.031 205.404 624.359 205.404C626.686 205.404 628.573 204.338 628.573 203.022C628.573 201.707 626.686 200.64 624.359 200.64Z" fill="#00FF01"/>
<path d="M607.502 200.64C605.175 200.64 603.288 201.707 603.288 203.022C603.288 204.338 605.175 205.404 607.502 205.404C609.83 205.404 611.717 204.338 611.717 203.022C611.717 201.707 609.83 200.64 607.502 200.64Z" fill="#00FF01"/>
<path d="M590.642 200.64C588.315 200.64 586.428 201.707 586.428 203.022C586.428 204.338 588.315 205.404 590.642 205.404C592.97 205.404 594.856 204.338 594.856 203.022C594.856 201.707 592.97 200.64 590.642 200.64Z" fill="#00FF01"/>
<path d="M573.785 200.64C571.457 200.64 569.57 201.707 569.57 203.022C569.57 204.338 571.457 205.404 573.785 205.404C576.112 205.404 577.999 204.338 577.999 203.022C577.999 201.707 576.112 200.64 573.785 200.64Z" fill="#00FF01"/>
<path d="M556.928 200.64C554.601 200.64 552.714 201.707 552.714 203.022C552.714 204.338 554.601 205.404 556.928 205.404C559.256 205.404 561.143 204.338 561.143 203.022C561.143 201.707 559.256 200.64 556.928 200.64Z" fill="#00FF01"/>
<path d="M540.071 200.64C537.743 200.64 535.857 201.707 535.857 203.022C535.857 204.338 537.743 205.404 540.071 205.404C542.398 205.404 544.285 204.338 544.285 203.022C544.285 201.707 542.398 200.64 540.071 200.64Z" fill="#00FF01"/>
<path d="M523.214 200.64C520.887 200.64 519 201.707 519 203.022C519 204.338 520.887 205.404 523.214 205.404C525.542 205.404 527.429 204.338 527.429 203.022C527.429 201.707 525.542 200.64 523.214 200.64Z" fill="#00FF01"/>
<path d="M674.93 191.113C672.603 191.113 670.716 192.179 670.716 193.495C670.716 194.81 672.603 195.877 674.93 195.877C677.258 195.877 679.145 194.81 679.145 193.495C679.145 192.179 677.258 191.113 674.93 191.113Z" fill="#00FF01"/>
<path d="M658.074 191.113C655.746 191.113 653.859 192.179 653.859 193.495C653.859 194.81 655.746 195.877 658.074 195.877C660.401 195.877 662.288 194.81 662.288 193.495C662.288 192.179 660.401 191.113 658.074 191.113Z" fill="#00FF01"/>
<path d="M641.215 191.113C638.888 191.113 637.001 192.179 637.001 193.495C637.001 194.81 638.888 195.877 641.215 195.877C643.543 195.877 645.43 194.81 645.43 193.495C645.43 192.179 643.543 191.113 641.215 191.113Z" fill="#00FF01"/>
<path d="M624.359 191.113C622.031 191.113 620.145 192.179 620.145 193.495C620.145 194.81 622.031 195.877 624.359 195.877C626.686 195.877 628.573 194.81 628.573 193.495C628.573 192.179 626.686 191.113 624.359 191.113Z" fill="#00FF01"/>
<path d="M607.502 191.113C605.175 191.113 603.288 192.179 603.288 193.495C603.288 194.81 605.175 195.877 607.502 195.877C609.83 195.877 611.717 194.81 611.717 193.495C611.717 192.179 609.83 191.113 607.502 191.113Z" fill="#00FF01"/>
<path d="M590.642 191.113C588.315 191.113 586.428 192.179 586.428 193.495C586.428 194.81 588.315 195.877 590.642 195.877C592.97 195.877 594.856 194.81 594.856 193.495C594.856 192.179 592.97 191.113 590.642 191.113Z" fill="#00FF01"/>
<path d="M573.785 191.113C571.457 191.113 569.57 192.179 569.57 193.495C569.57 194.81 571.457 195.877 573.785 195.877C576.112 195.877 577.999 194.81 577.999 193.495C577.999 192.179 576.112 191.113 573.785 191.113Z" fill="#00FF01"/>
<path d="M556.928 191.113C554.601 191.113 552.714 192.179 552.714 193.495C552.714 194.81 554.601 195.877 556.928 195.877C559.256 195.877 561.143 194.81 561.143 193.495C561.143 192.179 559.256 191.113 556.928 191.113Z" fill="#00FF01"/>
<path d="M540.071 191.113C537.743 191.113 535.857 192.179 535.857 193.495C535.857 194.81 537.743 195.877 540.071 195.877C542.398 195.877 544.285 194.81 544.285 193.495C544.285 192.179 542.398 191.113 540.071 191.113Z" fill="#00FF01"/>
<path d="M523.214 191.113C520.887 191.113 519 192.179 519 193.495C519 194.81 520.887 195.877 523.214 195.877C525.542 195.877 527.429 194.81 527.429 193.495C527.429 192.179 525.542 191.113 523.214 191.113Z" fill="#00FF01"/>
<path d="M674.93 181.584C672.603 181.584 670.716 182.65 670.716 183.966C670.716 185.281 672.603 186.348 674.93 186.348C677.258 186.348 679.145 185.281 679.145 183.966C679.145 182.65 677.258 181.584 674.93 181.584Z" fill="#00FF01"/>
<path d="M658.074 181.584C655.746 181.584 653.859 182.65 653.859 183.966C653.859 185.281 655.746 186.348 658.074 186.348C660.401 186.348 662.288 185.281 662.288 183.966C662.288 182.65 660.401 181.584 658.074 181.584Z" fill="#00FF01"/>
<path d="M641.215 181.584C638.888 181.584 637.001 182.65 637.001 183.966C637.001 185.281 638.888 186.348 641.215 186.348C643.543 186.348 645.43 185.281 645.43 183.966C645.43 182.65 643.543 181.584 641.215 181.584Z" fill="#00FF01"/>
<path d="M624.359 181.584C622.031 181.584 620.145 182.65 620.145 183.966C620.145 185.281 622.031 186.348 624.359 186.348C626.686 186.348 628.573 185.281 628.573 183.966C628.573 182.65 626.686 181.584 624.359 181.584Z" fill="#00FF01"/>
<path d="M607.502 181.584C605.175 181.584 603.288 182.65 603.288 183.966C603.288 185.281 605.175 186.348 607.502 186.348C609.83 186.348 611.717 185.281 611.717 183.966C611.717 182.65 609.83 181.584 607.502 181.584Z" fill="#00FF01"/>
<path d="M590.642 181.584C588.315 181.584 586.428 182.65 586.428 183.966C586.428 185.281 588.315 186.348 590.642 186.348C592.97 186.348 594.856 185.281 594.856 183.966C594.856 182.65 592.97 181.584 590.642 181.584Z" fill="#00FF01"/>
<path d="M573.785 181.584C571.457 181.584 569.57 182.65 569.57 183.966C569.57 185.281 571.457 186.348 573.785 186.348C576.112 186.348 577.999 185.281 577.999 183.966C577.999 182.65 576.112 181.584 573.785 181.584Z" fill="#00FF01"/>
<path d="M556.928 181.584C554.601 181.584 552.714 182.65 552.714 183.966C552.714 185.281 554.601 186.348 556.928 186.348C559.256 186.348 561.143 185.281 561.143 183.966C561.143 182.65 559.256 181.584 556.928 181.584Z" fill="#00FF01"/>
<path d="M540.071 181.584C537.743 181.584 535.857 182.65 535.857 183.966C535.857 185.281 537.743 186.348 540.071 186.348C542.398 186.348 544.285 185.281 544.285 183.966C544.285 182.65 542.398 181.584 540.071 181.584Z" fill="#00FF01"/>
<path d="M523.214 181.584C520.887 181.584 519 182.65 519 183.966C519 185.281 520.887 186.348 523.214 186.348C525.542 186.348 527.429 185.281 527.429 183.966C527.429 182.65 525.542 181.584 523.214 181.584Z" fill="#00FF01"/>
<path d="M674.93 172.056C672.603 172.056 670.716 173.123 670.716 174.438C670.716 175.754 672.603 176.82 674.93 176.82C677.258 176.82 679.145 175.754 679.145 174.438C679.145 173.123 677.258 172.056 674.93 172.056Z" fill="#00FF01"/>
<path d="M658.074 172.056C655.746 172.056 653.859 173.123 653.859 174.438C653.859 175.754 655.746 176.82 658.074 176.82C660.401 176.82 662.288 175.754 662.288 174.438C662.288 173.123 660.401 172.056 658.074 172.056Z" fill="#00FF01"/>
<path d="M641.215 172.056C638.888 172.056 637.001 173.123 637.001 174.438C637.001 175.754 638.888 176.82 641.215 176.82C643.543 176.82 645.43 175.754 645.43 174.438C645.43 173.123 643.543 172.056 641.215 172.056Z" fill="#00FF01"/>
<path d="M624.359 172.056C622.031 172.056 620.145 173.123 620.145 174.438C620.145 175.754 622.031 176.82 624.359 176.82C626.686 176.82 628.573 175.754 628.573 174.438C628.573 173.123 626.686 172.056 624.359 172.056Z" fill="#00FF01"/>
<path d="M607.502 172.056C605.175 172.056 603.288 173.123 603.288 174.438C603.288 175.754 605.175 176.82 607.502 176.82C609.83 176.82 611.717 175.754 611.717 174.438C611.717 173.123 609.83 172.056 607.502 172.056Z" fill="#00FF01"/>
<path d="M590.642 172.056C588.315 172.056 586.428 173.123 586.428 174.438C586.428 175.754 588.315 176.82 590.642 176.82C592.97 176.82 594.856 175.754 594.856 174.438C594.856 173.123 592.97 172.056 590.642 172.056Z" fill="#00FF01"/>
<path d="M573.785 172.056C571.457 172.056 569.57 173.123 569.57 174.438C569.57 175.754 571.457 176.82 573.785 176.82C576.112 176.82 577.999 175.754 577.999 174.438C577.999 173.123 576.112 172.056 573.785 172.056Z" fill="#00FF01"/>
<path d="M556.928 172.056C554.601 172.056 552.714 173.123 552.714 174.438C552.714 175.754 554.601 176.82 556.928 176.82C559.256 176.82 561.143 175.754 561.143 174.438C561.143 173.123 559.256 172.056 556.928 172.056Z" fill="#00FF01"/>
<path d="M540.071 172.056C537.743 172.056 535.857 173.123 535.857 174.438C535.857 175.754 537.743 176.82 540.071 176.82C542.398 176.82 544.285 175.754 544.285 174.438C544.285 173.123 542.398 172.056 540.071 172.056Z" fill="#00FF01"/>
<path d="M523.214 172.056C520.887 172.056 519 173.123 519 174.438C519 175.754 520.887 176.82 523.214 176.82C525.542 176.82 527.429 175.754 527.429 174.438C527.429 173.123 525.542 172.056 523.214 172.056Z" fill="#00FF01"/>
<path d="M674.93 162.527C672.603 162.527 670.716 163.593 670.716 164.909C670.716 166.225 672.603 167.291 674.93 167.291C677.258 167.291 679.145 166.225 679.145 164.909C679.145 163.593 677.258 162.527 674.93 162.527Z" fill="#00FF01"/>
<path d="M658.074 162.527C655.746 162.527 653.859 163.593 653.859 164.909C653.859 166.225 655.746 167.291 658.074 167.291C660.401 167.291 662.288 166.225 662.288 164.909C662.288 163.593 660.401 162.527 658.074 162.527Z" fill="#00FF01"/>
<path d="M641.215 162.527C638.888 162.527 637.001 163.593 637.001 164.909C637.001 166.225 638.888 167.291 641.215 167.291C643.543 167.291 645.43 166.225 645.43 164.909C645.43 163.593 643.543 162.527 641.215 162.527Z" fill="#00FF01"/>
<path d="M624.359 162.527C622.031 162.527 620.145 163.593 620.145 164.909C620.145 166.225 622.031 167.291 624.359 167.291C626.686 167.291 628.573 166.225 628.573 164.909C628.573 163.593 626.686 162.527 624.359 162.527Z" fill="#00FF01"/>
<path d="M607.502 162.527C605.175 162.527 603.288 163.593 603.288 164.909C603.288 166.225 605.175 167.291 607.502 167.291C609.83 167.291 611.717 166.225 611.717 164.909C611.717 163.593 609.83 162.527 607.502 162.527Z" fill="#00FF01"/>
<path d="M590.642 162.527C588.315 162.527 586.428 163.593 586.428 164.909C586.428 166.225 588.315 167.291 590.642 167.291C592.97 167.291 594.856 166.225 594.856 164.909C594.856 163.593 592.97 162.527 590.642 162.527Z" fill="#00FF01"/>
<path d="M573.785 162.527C571.457 162.527 569.57 163.593 569.57 164.909C569.57 166.225 571.457 167.291 573.785 167.291C576.112 167.291 577.999 166.225 577.999 164.909C577.999 163.593 576.112 162.527 573.785 162.527Z" fill="#00FF01"/>
<path d="M556.928 162.527C554.601 162.527 552.714 163.593 552.714 164.909C552.714 166.225 554.601 167.291 556.928 167.291C559.256 167.291 561.143 166.225 561.143 164.909C561.143 163.593 559.256 162.527 556.928 162.527Z" fill="#00FF01"/>
<path d="M540.071 162.527C537.743 162.527 535.857 163.593 535.857 164.909C535.857 166.225 537.743 167.291 540.071 167.291C542.398 167.291 544.285 166.225 544.285 164.909C544.285 163.593 542.398 162.527 540.071 162.527Z" fill="#00FF01"/>
<path d="M523.214 162.527C520.887 162.527 519 163.593 519 164.909C519 166.225 520.887 167.291 523.214 167.291C525.542 167.291 527.429 166.225 527.429 164.909C527.429 163.593 525.542 162.527 523.214 162.527Z" fill="#00FF01"/>
<path d="M674.93 153C672.603 153 670.716 154.066 670.716 155.382C670.716 156.697 672.603 157.764 674.93 157.764C677.258 157.764 679.145 156.697 679.145 155.382C679.145 154.066 677.258 153 674.93 153Z" fill="#00FF01"/>
<path d="M658.074 153C655.746 153 653.859 154.066 653.859 155.382C653.859 156.697 655.746 157.764 658.074 157.764C660.401 157.764 662.288 156.697 662.288 155.382C662.288 154.066 660.401 153 658.074 153Z" fill="#00FF01"/>
<path d="M641.215 153C638.888 153 637.001 154.066 637.001 155.382C637.001 156.697 638.888 157.764 641.215 157.764C643.543 157.764 645.43 156.697 645.43 155.382C645.43 154.066 643.543 153 641.215 153Z" fill="#00FF01"/>
<path d="M624.359 153C622.031 153 620.145 154.066 620.145 155.382C620.145 156.697 622.031 157.764 624.359 157.764C626.686 157.764 628.573 156.697 628.573 155.382C628.573 154.066 626.686 153 624.359 153Z" fill="#00FF01"/>
<path d="M607.502 153C605.175 153 603.288 154.066 603.288 155.382C603.288 156.697 605.175 157.764 607.502 157.764C609.83 157.764 611.717 156.697 611.717 155.382C611.717 154.066 609.83 153 607.502 153Z" fill="#00FF01"/>
<path d="M590.642 153C588.315 153 586.428 154.066 586.428 155.382C586.428 156.697 588.315 157.764 590.642 157.764C592.97 157.764 594.856 156.697 594.856 155.382C594.856 154.066 592.97 153 590.642 153Z" fill="#00FF01"/>
<path d="M573.785 153C571.457 153 569.57 154.066 569.57 155.382C569.57 156.697 571.457 157.764 573.785 157.764C576.112 157.764 577.999 156.697 577.999 155.382C577.999 154.066 576.112 153 573.785 153Z" fill="#00FF01"/>
<path d="M556.928 153C554.601 153 552.714 154.066 552.714 155.382C552.714 156.697 554.601 157.764 556.928 157.764C559.256 157.764 561.143 156.697 561.143 155.382C561.143 154.066 559.256 153 556.928 153Z" fill="#00FF01"/>
<path d="M540.071 153C537.743 153 535.857 154.066 535.857 155.382C535.857 156.697 537.743 157.764 540.071 157.764C542.398 157.764 544.285 156.697 544.285 155.382C544.285 154.066 542.398 153 540.071 153Z" fill="#00FF01"/>
<path d="M523.214 153C520.887 153 519 154.066 519 155.382C519 156.697 520.887 157.764 523.214 157.764C525.542 157.764 527.429 156.697 527.429 155.382C527.429 154.066 525.542 153 523.214 153Z" fill="#00FF01"/>
</g>
<path d="M62.8791 255.808L54.2332 250.244L57.9108 241.988L48.8898 246.806L40.244 241.243L43.3145 249.784L34.2936 254.603L45.2123 255.063L48.2829 263.604L51.9604 255.347L62.8791 255.808Z" fill="#FF9FB6" fill-opacity="0.75"/>
<path d="M87.6838 244.982L81.4119 240.979L84.0387 235.081L77.5356 238.505L71.2636 234.501L73.5164 240.62L67.0133 244.044L74.9088 244.402L77.1616 250.521L79.7884 244.624L87.6838 244.982Z" fill="#FF9FB6" fill-opacity="0.75"/>
<path d="M57.0554 224.015L47.6005 217.684L51.9348 207.953L41.7571 213.772L32.3022 207.442L35.467 217.368L25.2893 223.187L37.4229 223.503L40.5876 233.429L44.9218 223.698L57.0554 224.015Z" fill="#FF9FB6" fill-opacity="0.75"/>
<rect x="281" y="241.904" width="3.08824" height="12.9034" fill="#EEFF27" fill-opacity="0.75"/>
<rect x="286.735" y="250.615" width="9.26472" height="8.38719" fill="#EEFF27" fill-opacity="0.75"/>
<rect x="290.265" y="239.002" width="3.97059" height="9.35495" fill="#EEFF27" fill-opacity="0.75"/>
<rect width="2" height="5" transform="matrix(1 0 0 -1 301.998 244.002)" fill="#EEFF27" fill-opacity="0.75"/>
<rect width="5.55883" height="3.77424" transform="matrix(1 0 0 -1 304.441 240.775)" fill="#EEFF27" fill-opacity="0.75"/>
<rect width="3" height="3" transform="matrix(1 0 0 -1 305.998 245.002)" fill="#EEFF27" fill-opacity="0.75"/>
<rect x="312.851" y="259.809" width="1.85294" height="5.80652" transform="rotate(180 312.851 259.809)" fill="#EEFF27" fill-opacity="0.75"/>
<rect x="307.557" y="256.775" width="5.55883" height="3.77424" transform="rotate(180 307.557 256.775)" fill="#EEFF27" fill-opacity="0.75"/>
<rect x="305.381" y="264.211" width="2.38236" height="4.20973" transform="rotate(180 305.381 264.211)" fill="#EEFF27" fill-opacity="0.75"/>
<defs>
<clipPath id="clip0_311_7895">
<rect width="140.35" height="141.938" fill="white" transform="matrix(0.713944 -0.700203 0.713944 0.700203 0 98.2734)"/>
</clipPath>
<clipPath id="clip1_311_7895">
<rect width="161" height="91" fill="white" transform="translate(519 153)"/>
</clipPath>
</defs>
</svg>
