<svg width="670" height="290" viewBox="0 0 670 290" fill="none" xmlns="http://www.w3.org/2000/svg">
<path d="M415.262 14.9993C447.439 14.9993 473.524 50.6839 473.524 94.7031C473.524 94.7031 447.439 94.7026 415.262 94.7026C383.085 94.7026 357 94.7031 357 94.7031C357 50.6839 383.085 14.9993 415.262 14.9993Z" fill="#FAFF00" fill-opacity="0.5"/>
<g clip-path="url(#clip0_311_7429)">
<path d="M506.538 188.748C505.089 190.169 505.103 192.485 506.568 193.922C508.032 195.359 510.394 195.372 511.843 193.951C513.292 192.531 513.278 190.214 511.813 188.777C510.348 187.341 507.986 187.328 506.538 188.748Z" fill="#D5435D" fill-opacity="0.6"/>
<path d="M496.047 199.037C494.598 200.458 494.611 202.775 496.076 204.211C497.541 205.648 499.903 205.661 501.352 204.24C502.8 202.82 502.787 200.503 501.322 199.066C499.857 197.63 497.495 197.617 496.047 199.037Z" fill="#D5435D" fill-opacity="0.6"/>
<path d="M485.555 209.326C484.107 210.747 484.12 213.064 485.585 214.5C487.05 215.937 489.412 215.95 490.861 214.529C492.309 213.109 492.296 210.792 490.831 209.356C489.366 207.919 487.004 207.906 485.555 209.326Z" fill="#D5435D" fill-opacity="0.6"/>
<path d="M475.064 219.616C473.616 221.036 473.629 223.353 475.094 224.789C476.559 226.226 478.921 226.239 480.369 224.818C481.818 223.398 481.805 221.081 480.34 219.645C478.875 218.208 476.513 218.195 475.064 219.616Z" fill="#D5435D" fill-opacity="0.6"/>
<path d="M464.573 229.907C463.124 231.327 463.138 233.644 464.603 235.08C466.068 236.517 468.43 236.53 469.878 235.11C471.327 233.689 471.313 231.372 469.848 229.936C468.383 228.499 466.022 228.486 464.573 229.907Z" fill="#D5435D" fill-opacity="0.6"/>
<path d="M454.08 240.198C452.631 241.618 452.645 243.935 454.11 245.371C455.574 246.808 457.936 246.821 459.385 245.401C460.834 243.98 460.82 241.663 459.355 240.227C457.89 238.79 455.528 238.777 454.08 240.198Z" fill="#D5435D" fill-opacity="0.6"/>
<path d="M443.589 250.487C442.14 251.907 442.153 254.224 443.618 255.66C445.083 257.097 447.445 257.11 448.894 255.69C450.342 254.269 450.329 251.952 448.864 250.516C447.399 249.079 445.037 249.066 443.589 250.487Z" fill="#D5435D" fill-opacity="0.6"/>
<path d="M433.097 260.776C431.649 262.196 431.662 264.513 433.127 265.95C434.592 267.386 436.954 267.399 438.403 265.979C439.851 264.558 439.838 262.242 438.373 260.805C436.908 259.368 434.546 259.355 433.097 260.776Z" fill="#D5435D" fill-opacity="0.6"/>
<path d="M422.605 271.065C421.157 272.485 421.17 274.802 422.635 276.239C424.1 277.675 426.462 277.688 427.91 276.268C429.359 274.847 429.346 272.531 427.881 271.094C426.416 269.657 424.054 269.644 422.605 271.065Z" fill="#D5435D" fill-opacity="0.6"/>
<path d="M412.114 281.354C410.665 282.774 410.679 285.091 412.144 286.528C413.609 287.964 415.971 287.977 417.419 286.557C418.868 285.136 418.854 282.82 417.389 281.383C415.924 279.946 413.563 279.933 412.114 281.354Z" fill="#D5435D" fill-opacity="0.6"/>
<path d="M495.928 178.342C494.48 179.763 494.493 182.079 495.958 183.516C497.423 184.953 499.785 184.966 501.234 183.545C502.682 182.124 502.669 179.808 501.204 178.371C499.739 176.934 497.377 176.921 495.928 178.342Z" fill="#D5435D" fill-opacity="0.6"/>
<path d="M485.437 188.631C483.989 190.052 484.002 192.368 485.467 193.805C486.932 195.242 489.294 195.255 490.742 193.834C492.191 192.413 492.178 190.097 490.713 188.66C489.248 187.223 486.886 187.21 485.437 188.631Z" fill="#D5435D" fill-opacity="0.6"/>
<path d="M474.945 198.922C473.497 200.343 473.51 202.659 474.975 204.096C476.44 205.533 478.802 205.546 480.25 204.125C481.699 202.704 481.685 200.388 480.221 198.951C478.756 197.514 476.394 197.501 474.945 198.922Z" fill="#D5435D" fill-opacity="0.6"/>
<path d="M464.454 209.211C463.005 210.632 463.019 212.948 464.484 214.385C465.948 215.822 468.31 215.835 469.759 214.414C471.208 212.993 471.194 210.677 469.729 209.24C468.264 207.804 465.902 207.791 464.454 209.211Z" fill="#D5435D" fill-opacity="0.6"/>
<path d="M453.963 219.5C452.514 220.921 452.527 223.237 453.992 224.674C455.457 226.111 457.819 226.124 459.268 224.703C460.716 223.283 460.703 220.966 459.238 219.529C457.773 218.093 455.411 218.08 453.963 219.5Z" fill="#D5435D" fill-opacity="0.6"/>
<path d="M443.469 229.791C442.021 231.212 442.034 233.528 443.499 234.965C444.964 236.402 447.326 236.415 448.775 234.994C450.223 233.574 450.21 231.257 448.745 229.82C447.28 228.384 444.918 228.371 443.469 229.791Z" fill="#D5435D" fill-opacity="0.6"/>
<path d="M432.978 240.08C431.53 241.501 431.543 243.817 433.008 245.254C434.473 246.691 436.835 246.704 438.283 245.283C439.732 243.863 439.719 241.546 438.254 240.109C436.789 238.673 434.427 238.66 432.978 240.08Z" fill="#D5435D" fill-opacity="0.6"/>
<path d="M422.487 250.369C421.038 251.79 421.052 254.107 422.517 255.543C423.982 256.98 426.344 256.993 427.792 255.572C429.241 254.152 429.227 251.835 427.762 250.399C426.298 248.962 423.936 248.949 422.487 250.369Z" fill="#D5435D" fill-opacity="0.6"/>
<path d="M411.996 260.66C410.547 262.081 410.561 264.398 412.026 265.834C413.49 267.271 415.852 267.284 417.301 265.863C418.75 264.443 418.736 262.126 417.271 260.69C415.806 259.253 413.444 259.24 411.996 260.66Z" fill="#D5435D" fill-opacity="0.6"/>
<path d="M401.505 270.949C400.056 272.37 400.069 274.687 401.534 276.123C402.999 277.56 405.361 277.573 406.81 276.152C408.258 274.732 408.245 272.415 406.78 270.979C405.315 269.542 402.953 269.529 401.505 270.949Z" fill="#D5435D" fill-opacity="0.6"/>
<path d="M485.318 167.938C483.87 169.358 483.883 171.675 485.348 173.112C486.813 174.548 489.175 174.561 490.623 173.141C492.072 171.72 492.059 169.404 490.594 167.967C489.129 166.53 486.767 166.517 485.318 167.938Z" fill="#D5435D" fill-opacity="0.6"/>
<path d="M474.827 178.227C473.378 179.648 473.392 181.964 474.857 183.401C476.322 184.837 478.683 184.851 480.132 183.43C481.581 182.009 481.567 179.693 480.102 178.256C478.637 176.819 476.275 176.806 474.827 178.227Z" fill="#D5435D" fill-opacity="0.6"/>
<path d="M464.336 188.516C462.887 189.937 462.9 192.253 464.365 193.69C465.83 195.127 468.192 195.14 469.641 193.719C471.089 192.298 471.076 189.982 469.611 188.545C468.146 187.108 465.784 187.095 464.336 188.516Z" fill="#D5435D" fill-opacity="0.6"/>
<path d="M453.844 198.805C452.396 200.226 452.409 202.542 453.874 203.979C455.339 205.416 457.701 205.429 459.15 204.008C460.598 202.587 460.585 200.271 459.12 198.834C457.655 197.397 455.293 197.384 453.844 198.805Z" fill="#D5435D" fill-opacity="0.6"/>
<path d="M443.353 209.094C441.905 210.515 441.918 212.831 443.383 214.268C444.848 215.705 447.21 215.718 448.658 214.297C450.107 212.876 450.094 210.56 448.629 209.123C447.164 207.686 444.802 207.673 443.353 209.094Z" fill="#D5435D" fill-opacity="0.6"/>
<path d="M432.859 219.385C431.411 220.806 431.424 223.122 432.889 224.559C434.354 225.996 436.716 226.009 438.164 224.588C439.613 223.167 439.6 220.851 438.135 219.414C436.67 217.977 434.308 217.964 432.859 219.385Z" fill="#D5435D" fill-opacity="0.6"/>
<path d="M422.368 229.676C420.919 231.097 420.933 233.413 422.398 234.85C423.863 236.287 426.224 236.3 427.673 234.879C429.122 233.458 429.108 231.142 427.643 229.705C426.178 228.268 423.817 228.255 422.368 229.676Z" fill="#D5435D" fill-opacity="0.6"/>
<path d="M411.877 239.965C410.428 241.386 410.441 243.702 411.906 245.139C413.371 246.576 415.733 246.589 417.182 245.168C418.63 243.747 418.617 241.431 417.152 239.994C415.687 238.557 413.325 238.544 411.877 239.965Z" fill="#D5435D" fill-opacity="0.6"/>
<path d="M401.386 250.254C399.937 251.675 399.95 253.991 401.415 255.428C402.88 256.865 405.242 256.878 406.691 255.457C408.139 254.036 408.126 251.72 406.661 250.283C405.196 248.847 402.834 248.833 401.386 250.254Z" fill="#D5435D" fill-opacity="0.6"/>
<path d="M390.894 260.543C389.446 261.964 389.459 264.28 390.924 265.717C392.389 267.154 394.751 267.167 396.199 265.746C397.648 264.326 397.635 262.009 396.17 260.572C394.705 259.136 392.343 259.123 390.894 260.543Z" fill="#D5435D" fill-opacity="0.6"/>
<path d="M474.707 157.53C473.258 158.95 473.272 161.267 474.736 162.703C476.201 164.14 478.563 164.153 480.012 162.733C481.46 161.312 481.447 158.995 479.982 157.559C478.517 156.122 476.155 156.109 474.707 157.53Z" fill="#D5435D" fill-opacity="0.6"/>
<path d="M464.217 167.819C462.768 169.239 462.781 171.556 464.246 172.993C465.711 174.429 468.073 174.442 469.522 173.022C470.97 171.601 470.957 169.284 469.492 167.848C468.027 166.411 465.665 166.398 464.217 167.819Z" fill="#D5435D" fill-opacity="0.6"/>
<path d="M453.724 178.11C452.276 179.53 452.289 181.847 453.754 183.284C455.219 184.72 457.581 184.733 459.029 183.313C460.478 181.892 460.465 179.576 459 178.139C457.535 176.702 455.173 176.689 453.724 178.11Z" fill="#D5435D" fill-opacity="0.6"/>
<path d="M443.233 188.399C441.785 189.819 441.798 192.136 443.263 193.573C444.728 195.009 447.09 195.022 448.538 193.602C449.987 192.181 449.974 189.865 448.509 188.428C447.044 186.991 444.682 186.978 443.233 188.399Z" fill="#D5435D" fill-opacity="0.6"/>
<path d="M432.742 198.688C431.293 200.108 431.307 202.425 432.772 203.862C434.237 205.298 436.598 205.311 438.047 203.891C439.496 202.47 439.482 200.154 438.017 198.717C436.552 197.28 434.191 197.267 432.742 198.688Z" fill="#D5435D" fill-opacity="0.6"/>
<path d="M422.249 208.979C420.8 210.399 420.813 212.716 422.278 214.153C423.743 215.589 426.105 215.602 427.554 214.182C429.002 212.761 428.989 210.445 427.524 209.008C426.059 207.571 423.697 207.558 422.249 208.979Z" fill="#D5435D" fill-opacity="0.6"/>
<path d="M411.758 219.268C410.309 220.689 410.322 223.005 411.787 224.442C413.252 225.879 415.614 225.892 417.063 224.471C418.511 223.05 418.498 220.734 417.033 219.297C415.568 217.86 413.206 217.847 411.758 219.268Z" fill="#D5435D" fill-opacity="0.6"/>
<path d="M401.266 229.557C399.818 230.978 399.831 233.294 401.296 234.731C402.761 236.168 405.123 236.181 406.571 234.76C408.02 233.339 408.007 231.023 406.542 229.586C405.077 228.149 402.715 228.136 401.266 229.557Z" fill="#D5435D" fill-opacity="0.6"/>
<path d="M390.775 239.848C389.327 241.269 389.34 243.585 390.805 245.022C392.27 246.459 394.632 246.472 396.08 245.051C397.529 243.63 397.516 241.314 396.051 239.877C394.586 238.44 392.224 238.427 390.775 239.848Z" fill="#D5435D" fill-opacity="0.6"/>
<path d="M380.284 250.137C378.835 251.558 378.849 253.874 380.314 255.311C381.779 256.748 384.14 256.761 385.589 255.34C387.038 253.919 387.024 251.603 385.559 250.166C384.094 248.729 381.733 248.716 380.284 250.137Z" fill="#D5435D" fill-opacity="0.6"/>
<path d="M464.097 147.125C462.649 148.546 462.662 150.862 464.127 152.299C465.592 153.736 467.954 153.749 469.403 152.328C470.851 150.908 470.838 148.591 469.373 147.154C467.908 145.718 465.546 145.705 464.097 147.125Z" fill="#D5435D" fill-opacity="0.6"/>
<path d="M453.606 157.414C452.158 158.835 452.171 161.151 453.636 162.588C455.101 164.025 457.463 164.038 458.911 162.617C460.36 161.197 460.347 158.88 458.882 157.443C457.417 156.007 455.055 155.994 453.606 157.414Z" fill="#D5435D" fill-opacity="0.6"/>
<path d="M443.114 167.703C441.665 169.124 441.679 171.441 443.144 172.877C444.609 174.314 446.971 174.327 448.419 172.906C449.868 171.486 449.854 169.169 448.389 167.732C446.924 166.296 444.563 166.283 443.114 167.703Z" fill="#D5435D" fill-opacity="0.6"/>
<path d="M432.624 177.992C431.175 179.413 431.188 181.73 432.653 183.166C434.118 184.603 436.48 184.616 437.929 183.195C439.377 181.775 439.364 179.458 437.899 178.022C436.434 176.585 434.072 176.572 432.624 177.992Z" fill="#D5435D" fill-opacity="0.6"/>
<path d="M422.133 188.282C420.684 189.702 420.697 192.019 422.162 193.455C423.627 194.892 425.989 194.905 427.438 193.485C428.886 192.064 428.873 189.747 427.408 188.311C425.943 186.874 423.581 186.861 422.133 188.282Z" fill="#D5435D" fill-opacity="0.6"/>
<path d="M411.638 198.573C410.19 199.993 410.203 202.31 411.668 203.746C413.133 205.183 415.495 205.196 416.944 203.776C418.392 202.355 418.379 200.038 416.914 198.602C415.449 197.165 413.087 197.152 411.638 198.573Z" fill="#D5435D" fill-opacity="0.6"/>
<path d="M401.147 208.864C399.699 210.284 399.712 212.601 401.177 214.037C402.642 215.474 405.004 215.487 406.452 214.067C407.901 212.646 407.888 210.329 406.423 208.893C404.958 207.456 402.596 207.443 401.147 208.864Z" fill="#D5435D" fill-opacity="0.6"/>
<path d="M390.656 219.153C389.207 220.573 389.221 222.89 390.686 224.326C392.151 225.763 394.513 225.776 395.961 224.356C397.41 222.935 397.396 220.618 395.931 219.182C394.466 217.745 392.105 217.732 390.656 219.153Z" fill="#D5435D" fill-opacity="0.6"/>
<path d="M380.165 229.442C378.716 230.862 378.73 233.179 380.194 234.616C381.659 236.052 384.021 236.065 385.47 234.645C386.918 233.224 386.905 230.908 385.44 229.471C383.975 228.034 381.613 228.021 380.165 229.442Z" fill="#D5435D" fill-opacity="0.6"/>
<path d="M369.674 239.731C368.225 241.151 368.238 243.468 369.703 244.905C371.168 246.341 373.53 246.354 374.979 244.934C376.427 243.513 376.414 241.197 374.949 239.76C373.484 238.323 371.122 238.31 369.674 239.731Z" fill="#D5435D" fill-opacity="0.6"/>
<path d="M453.487 136.719C452.038 138.14 452.052 140.456 453.517 141.893C454.982 143.33 457.344 143.343 458.792 141.922C460.241 140.501 460.227 138.185 458.762 136.748C457.298 135.311 454.936 135.298 453.487 136.719Z" fill="#D5435D" fill-opacity="0.6"/>
<path d="M442.996 147.008C441.547 148.429 441.561 150.745 443.026 152.182C444.49 153.619 446.852 153.632 448.301 152.211C449.75 150.79 449.736 148.474 448.271 147.037C446.806 145.6 444.444 145.587 442.996 147.008Z" fill="#D5435D" fill-opacity="0.6"/>
<path d="M432.505 157.297C431.056 158.718 431.069 161.034 432.534 162.471C433.999 163.908 436.361 163.921 437.81 162.5C439.258 161.079 439.245 158.763 437.78 157.326C436.315 155.889 433.953 155.876 432.505 157.297Z" fill="#D5435D" fill-opacity="0.6"/>
<path d="M422.013 167.586C420.565 169.007 420.578 171.323 422.043 172.76C423.508 174.197 425.87 174.21 427.319 172.789C428.767 171.368 428.754 169.052 427.289 167.615C425.824 166.179 423.462 166.166 422.013 167.586Z" fill="#D5435D" fill-opacity="0.6"/>
<path d="M411.522 177.875C410.074 179.296 410.087 181.612 411.552 183.049C413.017 184.486 415.379 184.499 416.827 183.078C418.276 181.658 418.263 179.341 416.798 177.904C415.333 176.468 412.971 176.455 411.522 177.875Z" fill="#D5435D" fill-opacity="0.6"/>
<path d="M401.029 188.168C399.58 189.589 399.594 191.905 401.059 193.342C402.524 194.779 404.886 194.792 406.334 193.371C407.783 191.951 407.769 189.634 406.304 188.197C404.84 186.761 402.478 186.748 401.029 188.168Z" fill="#D5435D" fill-opacity="0.6"/>
<path d="M390.538 198.457C389.089 199.878 389.103 202.194 390.568 203.631C392.032 205.068 394.394 205.081 395.843 203.66C397.292 202.24 397.278 199.923 395.813 198.486C394.348 197.05 391.986 197.037 390.538 198.457Z" fill="#D5435D" fill-opacity="0.6"/>
<path d="M380.047 208.746C378.598 210.167 378.611 212.483 380.076 213.92C381.541 215.357 383.903 215.37 385.352 213.949C386.8 212.529 386.787 210.212 385.322 208.775C383.857 207.339 381.495 207.326 380.047 208.746Z" fill="#D5435D" fill-opacity="0.6"/>
<path d="M369.554 219.035C368.106 220.456 368.119 222.773 369.584 224.209C371.049 225.646 373.411 225.659 374.86 224.238C376.308 222.818 376.295 220.501 374.83 219.065C373.365 217.628 371.003 217.615 369.554 219.035Z" fill="#D5435D" fill-opacity="0.6"/>
<path d="M359.063 229.324C357.615 230.745 357.628 233.062 359.093 234.498C360.558 235.935 362.92 235.948 364.368 234.527C365.817 233.107 365.804 230.79 364.339 229.354C362.874 227.917 360.512 227.904 359.063 229.324Z" fill="#D5435D" fill-opacity="0.6"/>
<path d="M442.878 126.313C441.429 127.733 441.442 130.05 442.907 131.487C444.372 132.923 446.734 132.936 448.183 131.516C449.631 130.095 449.618 127.779 448.153 126.342C446.688 124.905 444.326 124.892 442.878 126.313Z" fill="#D5435D" fill-opacity="0.6"/>
<path d="M432.386 136.602C430.938 138.023 430.951 140.339 432.416 141.776C433.881 143.212 436.243 143.226 437.692 141.805C439.14 140.384 439.127 138.068 437.662 136.631C436.197 135.194 433.835 135.181 432.386 136.602Z" fill="#D5435D" fill-opacity="0.6"/>
<path d="M421.894 146.891C420.446 148.312 420.459 150.628 421.924 152.065C423.389 153.502 425.751 153.515 427.199 152.094C428.648 150.673 428.635 148.357 427.17 146.92C425.705 145.483 423.343 145.47 421.894 146.891Z" fill="#D5435D" fill-opacity="0.6"/>
<path d="M411.403 157.182C409.955 158.603 409.968 160.919 411.433 162.356C412.898 163.793 415.26 163.806 416.708 162.385C418.157 160.964 418.143 158.648 416.679 157.211C415.214 155.774 412.852 155.761 411.403 157.182Z" fill="#D5435D" fill-opacity="0.6"/>
<path d="M400.912 167.471C399.463 168.892 399.477 171.208 400.942 172.645C402.407 174.082 404.768 174.095 406.217 172.674C407.666 171.253 407.652 168.937 406.187 167.5C404.722 166.063 402.36 166.05 400.912 167.471Z" fill="#D5435D" fill-opacity="0.6"/>
<path d="M390.419 177.762C388.97 179.183 388.983 181.499 390.448 182.936C391.913 184.373 394.275 184.386 395.724 182.965C397.172 181.544 397.159 179.228 395.694 177.791C394.229 176.354 391.867 176.341 390.419 177.762Z" fill="#D5435D" fill-opacity="0.6"/>
<path d="M379.927 188.051C378.479 189.472 378.492 191.788 379.957 193.225C381.422 194.662 383.784 194.675 385.233 193.254C386.681 191.833 386.668 189.517 385.203 188.08C383.738 186.643 381.376 186.63 379.927 188.051Z" fill="#D5435D" fill-opacity="0.6"/>
<path d="M369.436 198.34C367.988 199.761 368.001 202.077 369.466 203.514C370.931 204.951 373.293 204.964 374.741 203.543C376.19 202.122 376.177 199.806 374.712 198.369C373.247 196.932 370.885 196.919 369.436 198.34Z" fill="#D5435D" fill-opacity="0.6"/>
<path d="M358.945 208.629C357.496 210.05 357.51 212.366 358.975 213.803C360.44 215.24 362.802 215.253 364.25 213.832C365.699 212.411 365.685 210.095 364.221 208.658C362.756 207.222 360.394 207.208 358.945 208.629Z" fill="#D5435D" fill-opacity="0.6"/>
<path d="M348.454 218.918C347.005 220.339 347.019 222.655 348.484 224.092C349.948 225.529 352.31 225.542 353.759 224.121C355.208 222.701 355.194 220.384 353.729 218.947C352.264 217.511 349.902 217.498 348.454 218.918Z" fill="#D5435D" fill-opacity="0.6"/>
<path d="M432.266 115.907C430.818 117.327 430.831 119.644 432.296 121.08C433.761 122.517 436.123 122.53 437.571 121.11C439.02 119.689 439.007 117.372 437.542 115.936C436.077 114.499 433.715 114.486 432.266 115.907Z" fill="#D5435D" fill-opacity="0.6"/>
<path d="M421.775 126.196C420.327 127.616 420.34 129.933 421.805 131.369C423.27 132.806 425.632 132.819 427.08 131.399C428.529 129.978 428.516 127.661 427.051 126.225C425.586 124.788 423.224 124.775 421.775 126.196Z" fill="#D5435D" fill-opacity="0.6"/>
<path d="M411.284 136.485C409.835 137.905 409.849 140.222 411.314 141.659C412.779 143.095 415.14 143.108 416.589 141.688C418.038 140.267 418.024 137.951 416.559 136.514C415.094 135.077 412.733 135.064 411.284 136.485Z" fill="#D5435D" fill-opacity="0.6"/>
<path d="M400.793 146.774C399.344 148.194 399.357 150.511 400.822 151.948C402.287 153.384 404.649 153.397 406.098 151.977C407.546 150.556 407.533 148.24 406.068 146.803C404.603 145.366 402.241 145.353 400.793 146.774Z" fill="#D5435D" fill-opacity="0.6"/>
<path d="M390.302 157.063C388.853 158.483 388.866 160.8 390.331 162.237C391.796 163.673 394.158 163.686 395.607 162.266C397.055 160.845 397.042 158.529 395.577 157.092C394.112 155.655 391.75 155.642 390.302 157.063Z" fill="#D5435D" fill-opacity="0.6"/>
<path d="M379.807 167.356C378.359 168.776 378.372 171.093 379.837 172.53C381.302 173.966 383.664 173.979 385.112 172.559C386.561 171.138 386.548 168.822 385.083 167.385C383.618 165.948 381.256 165.935 379.807 167.356Z" fill="#D5435D" fill-opacity="0.6"/>
<path d="M369.316 177.645C367.868 179.065 367.881 181.382 369.346 182.819C370.811 184.255 373.173 184.268 374.621 182.848C376.07 181.427 376.057 179.111 374.592 177.674C373.127 176.237 370.765 176.224 369.316 177.645Z" fill="#D5435D" fill-opacity="0.6"/>
<path d="M358.825 187.934C357.376 189.355 357.39 191.671 358.855 193.108C360.32 194.545 362.681 194.558 364.13 193.137C365.579 191.716 365.565 189.4 364.1 187.963C362.635 186.526 360.274 186.513 358.825 187.934Z" fill="#D5435D" fill-opacity="0.6"/>
<path d="M348.334 198.223C346.885 199.644 346.898 201.96 348.363 203.397C349.828 204.834 352.19 204.847 353.639 203.426C355.087 202.005 355.074 199.689 353.609 198.252C352.144 196.815 349.782 196.802 348.334 198.223Z" fill="#D5435D" fill-opacity="0.6"/>
<path d="M337.843 208.512C336.394 209.933 336.407 212.249 337.872 213.686C339.337 215.123 341.699 215.136 343.148 213.715C344.596 212.294 344.583 209.978 343.118 208.541C341.653 207.104 339.291 207.091 337.843 208.512Z" fill="#D5435D" fill-opacity="0.6"/>
<path d="M421.656 105.5C420.207 106.921 420.221 109.237 421.686 110.674C423.151 112.111 425.513 112.124 426.961 110.703C428.41 109.283 428.396 106.966 426.931 105.529C425.466 104.093 423.105 104.08 421.656 105.5Z" fill="#D5435D" fill-opacity="0.6"/>
<path d="M411.166 115.789C409.717 117.21 409.73 119.526 411.195 120.963C412.66 122.4 415.022 122.413 416.471 120.992C417.919 119.572 417.906 117.255 416.441 115.818C414.976 114.382 412.614 114.369 411.166 115.789Z" fill="#D5435D" fill-opacity="0.6"/>
<path d="M400.674 126.078C399.225 127.499 399.238 129.816 400.703 131.252C402.168 132.689 404.53 132.702 405.979 131.281C407.427 129.861 407.414 127.544 405.949 126.107C404.484 124.671 402.122 124.658 400.674 126.078Z" fill="#D5435D" fill-opacity="0.6"/>
<path d="M390.182 136.367C388.734 137.788 388.747 140.105 390.212 141.541C391.677 142.978 394.039 142.991 395.487 141.57C396.936 140.15 396.923 137.833 395.458 136.397C393.993 134.96 391.631 134.947 390.182 136.367Z" fill="#D5435D" fill-opacity="0.6"/>
<path d="M379.691 146.658C378.243 148.079 378.256 150.396 379.721 151.832C381.186 153.269 383.548 153.282 384.996 151.861C386.445 150.441 386.432 148.124 384.967 146.688C383.502 145.251 381.14 145.238 379.691 146.658Z" fill="#D5435D" fill-opacity="0.6"/>
<path d="M369.198 156.949C367.749 158.37 367.763 160.687 369.228 162.123C370.693 163.56 373.055 163.573 374.503 162.152C375.952 160.732 375.938 158.415 374.473 156.979C373.008 155.542 370.647 155.529 369.198 156.949Z" fill="#D5435D" fill-opacity="0.6"/>
<path d="M358.707 167.239C357.258 168.659 357.271 170.976 358.736 172.412C360.201 173.849 362.563 173.862 364.012 172.442C365.46 171.021 365.447 168.704 363.982 167.268C362.517 165.831 360.155 165.818 358.707 167.239Z" fill="#D5435D" fill-opacity="0.6"/>
<path d="M348.216 177.528C346.767 178.948 346.78 181.265 348.245 182.702C349.71 184.138 352.072 184.151 353.521 182.731C354.969 181.31 354.956 178.993 353.491 177.557C352.026 176.12 349.664 176.107 348.216 177.528Z" fill="#D5435D" fill-opacity="0.6"/>
<path d="M337.724 187.817C336.276 189.237 336.289 191.554 337.754 192.991C339.219 194.427 341.581 194.44 343.029 193.02C344.478 191.599 344.465 189.283 343 187.846C341.535 186.409 339.173 186.396 337.724 187.817Z" fill="#D5435D" fill-opacity="0.6"/>
<path d="M327.233 198.106C325.785 199.526 325.798 201.843 327.263 203.28C328.728 204.716 331.09 204.729 332.538 203.309C333.987 201.888 333.974 199.572 332.509 198.135C331.044 196.698 328.682 196.685 327.233 198.106Z" fill="#D5435D" fill-opacity="0.6"/>
<path d="M411.047 95.094C409.598 96.5147 409.611 98.8311 411.076 100.268C412.541 101.705 414.903 101.718 416.352 100.297C417.8 98.8763 417.787 96.5599 416.322 95.1231C414.857 93.6863 412.495 93.6733 411.047 95.094Z" fill="#D5435D" fill-opacity="0.6"/>
<path d="M400.555 105.383C399.107 106.804 399.12 109.12 400.585 110.557C402.05 111.994 404.412 112.007 405.861 110.586C407.309 109.165 407.296 106.849 405.831 105.412C404.366 103.975 402.004 103.962 400.555 105.383Z" fill="#D5435D" fill-opacity="0.6"/>
<path d="M390.063 115.674C388.615 117.095 388.628 119.411 390.093 120.848C391.558 122.285 393.92 122.298 395.368 120.877C396.817 119.456 396.804 117.14 395.339 115.703C393.874 114.266 391.512 114.253 390.063 115.674Z" fill="#D5435D" fill-opacity="0.6"/>
<path d="M379.573 125.963C378.124 127.384 378.138 129.7 379.603 131.137C381.068 132.574 383.43 132.587 384.878 131.166C386.327 129.745 386.313 127.429 384.848 125.992C383.383 124.555 381.022 124.542 379.573 125.963Z" fill="#D5435D" fill-opacity="0.6"/>
<path d="M369.082 136.252C367.633 137.673 367.647 139.989 369.111 141.426C370.576 142.863 372.938 142.876 374.387 141.455C375.835 140.035 375.822 137.718 374.357 136.281C372.892 134.845 370.53 134.832 369.082 136.252Z" fill="#D5435D" fill-opacity="0.6"/>
<path d="M358.588 146.543C357.139 147.964 357.152 150.28 358.617 151.717C360.082 153.154 362.444 153.167 363.893 151.746C365.341 150.326 365.328 148.009 363.863 146.572C362.398 145.136 360.036 145.123 358.588 146.543Z" fill="#D5435D" fill-opacity="0.6"/>
<path d="M348.096 156.832C346.648 158.253 346.661 160.569 348.126 162.006C349.591 163.443 351.953 163.456 353.402 162.035C354.85 160.615 354.837 158.298 353.372 156.861C351.907 155.425 349.545 155.412 348.096 156.832Z" fill="#D5435D" fill-opacity="0.6"/>
<path d="M337.605 167.121C336.157 168.542 336.17 170.858 337.635 172.295C339.1 173.732 341.462 173.745 342.91 172.324C344.359 170.904 344.346 168.587 342.881 167.15C341.416 165.714 339.054 165.701 337.605 167.121Z" fill="#D5435D" fill-opacity="0.6"/>
<path d="M327.114 177.412C325.665 178.833 325.679 181.15 327.144 182.586C328.609 184.023 330.971 184.036 332.419 182.615C333.868 181.195 333.854 178.878 332.389 177.441C330.924 176.005 328.563 175.992 327.114 177.412Z" fill="#D5435D" fill-opacity="0.6"/>
<path d="M316.623 187.701C315.174 189.122 315.188 191.439 316.652 192.875C318.117 194.312 320.479 194.325 321.928 192.904C323.376 191.484 323.363 189.167 321.898 187.731C320.433 186.294 318.071 186.281 316.623 187.701Z" fill="#D5435D" fill-opacity="0.6"/>
</g>
<g opacity="0.7" clip-path="url(#clip1_311_7429)">
<path d="M156.898 105.752C154.556 105.752 152.658 106.818 152.658 108.134C152.658 109.449 154.556 110.516 156.898 110.516C159.24 110.516 161.139 109.449 161.139 108.134C161.139 106.818 159.24 105.752 156.898 105.752Z" fill="#E1EAF1"/>
<path d="M139.937 105.752C137.595 105.752 135.697 106.818 135.697 108.134C135.697 109.449 137.595 110.516 139.937 110.516C142.279 110.516 144.178 109.449 144.178 108.134C144.178 106.818 142.279 105.752 139.937 105.752Z" fill="#E1EAF1"/>
<path d="M122.975 105.752C120.633 105.752 118.735 106.818 118.735 108.134C118.735 109.449 120.633 110.516 122.975 110.516C125.317 110.516 127.216 109.449 127.216 108.134C127.216 106.818 125.317 105.752 122.975 105.752Z" fill="#E1EAF1"/>
<path d="M106.013 105.752C103.671 105.752 101.773 106.818 101.773 108.134C101.773 109.449 103.671 110.516 106.013 110.516C108.355 110.516 110.254 109.449 110.254 108.134C110.254 106.818 108.355 105.752 106.013 105.752Z" fill="#E1EAF1"/>
<path d="M89.0525 105.752C86.7105 105.752 84.812 106.818 84.812 108.134C84.812 109.449 86.7105 110.516 89.0525 110.516C91.3944 110.516 93.293 109.449 93.293 108.134C93.293 106.818 91.3944 105.752 89.0525 105.752Z" fill="#E1EAF1"/>
<path d="M72.0867 105.752C69.7447 105.752 67.8462 106.818 67.8462 108.134C67.8462 109.449 69.7447 110.516 72.0867 110.516C74.4286 110.516 76.3271 109.449 76.3271 108.134C76.3271 106.818 74.4286 105.752 72.0867 105.752Z" fill="#E1EAF1"/>
<path d="M55.1247 105.752C52.7828 105.752 50.8842 106.818 50.8842 108.134C50.8842 109.449 52.7828 110.516 55.1247 110.516C57.4667 110.516 59.3652 109.449 59.3652 108.134C59.3652 106.818 57.4667 105.752 55.1247 105.752Z" fill="#E1EAF1"/>
<path d="M38.1638 105.752C35.8218 105.752 33.9233 106.818 33.9233 108.134C33.9233 109.449 35.8218 110.516 38.1638 110.516C40.5058 110.516 42.4043 109.449 42.4043 108.134C42.4043 106.818 40.5058 105.752 38.1638 105.752Z" fill="#E1EAF1"/>
<path d="M21.2019 105.752C18.8599 105.752 16.9614 106.818 16.9614 108.134C16.9614 109.449 18.8599 110.516 21.2019 110.516C23.5438 110.516 25.4424 109.449 25.4424 108.134C25.4424 106.818 23.5438 105.752 21.2019 105.752Z" fill="#E1EAF1"/>
<path d="M4.24095 105.752C1.89899 105.752 0.000454903 106.818 0.000454903 108.134C0.000454903 109.449 1.89899 110.516 4.24095 110.516C6.58291 110.516 8.48145 109.449 8.48145 108.134C8.48145 106.818 6.58291 105.752 4.24095 105.752Z" fill="#E1EAF1"/>
<path d="M156.898 96.2243C154.556 96.2243 152.658 97.2907 152.658 98.6063C152.658 99.9218 154.556 100.988 156.898 100.988C159.24 100.988 161.139 99.9218 161.139 98.6063C161.139 97.2907 159.24 96.2243 156.898 96.2243Z" fill="#E1EAF1"/>
<path d="M139.937 96.2243C137.595 96.2243 135.697 97.2907 135.697 98.6063C135.697 99.9218 137.595 100.988 139.937 100.988C142.279 100.988 144.178 99.9218 144.178 98.6063C144.178 97.2907 142.279 96.2243 139.937 96.2243Z" fill="#E1EAF1"/>
<path d="M122.975 96.2243C120.633 96.2243 118.735 97.2907 118.735 98.6063C118.735 99.9218 120.633 100.988 122.975 100.988C125.317 100.988 127.216 99.9218 127.216 98.6063C127.216 97.2907 125.317 96.2243 122.975 96.2243Z" fill="#E1EAF1"/>
<path d="M106.013 96.2243C103.671 96.2243 101.773 97.2907 101.773 98.6063C101.773 99.9218 103.671 100.988 106.013 100.988C108.355 100.988 110.254 99.9218 110.254 98.6063C110.254 97.2907 108.355 96.2243 106.013 96.2243Z" fill="#E1EAF1"/>
<path d="M89.0525 96.2243C86.7105 96.2243 84.812 97.2907 84.812 98.6063C84.812 99.9218 86.7105 100.988 89.0525 100.988C91.3944 100.988 93.293 99.9218 93.293 98.6063C93.293 97.2907 91.3944 96.2243 89.0525 96.2243Z" fill="#E1EAF1"/>
<path d="M72.0867 96.2243C69.7447 96.2243 67.8462 97.2907 67.8462 98.6063C67.8462 99.9218 69.7447 100.988 72.0867 100.988C74.4286 100.988 76.3271 99.9218 76.3271 98.6063C76.3271 97.2907 74.4286 96.2243 72.0867 96.2243Z" fill="#E1EAF1"/>
<path d="M55.1247 96.2243C52.7828 96.2243 50.8842 97.2907 50.8842 98.6063C50.8842 99.9218 52.7828 100.988 55.1247 100.988C57.4667 100.988 59.3652 99.9218 59.3652 98.6063C59.3652 97.2907 57.4667 96.2243 55.1247 96.2243Z" fill="#E1EAF1"/>
<path d="M38.1638 96.2243C35.8218 96.2243 33.9233 97.2907 33.9233 98.6063C33.9233 99.9218 35.8218 100.988 38.1638 100.988C40.5058 100.988 42.4043 99.9218 42.4043 98.6063C42.4043 97.2907 40.5058 96.2243 38.1638 96.2243Z" fill="#E1EAF1"/>
<path d="M21.2019 96.2243C18.8599 96.2243 16.9614 97.2907 16.9614 98.6063C16.9614 99.9218 18.8599 100.988 21.2019 100.988C23.5438 100.988 25.4424 99.9218 25.4424 98.6063C25.4424 97.2907 23.5438 96.2243 21.2019 96.2243Z" fill="#E1EAF1"/>
<path d="M4.24095 96.2243C1.89899 96.2243 0.000454903 97.2907 0.000454903 98.6063C0.000454903 99.9218 1.89899 100.988 4.24095 100.988C6.58291 100.988 8.48145 99.9218 8.48145 98.6063C8.48145 97.2907 6.58291 96.2243 4.24095 96.2243Z" fill="#E1EAF1"/>
<path d="M156.898 86.6969C154.556 86.6969 152.658 87.7634 152.658 89.0789C152.658 90.3945 154.556 91.4609 156.898 91.4609C159.24 91.4609 161.139 90.3945 161.139 89.0789C161.139 87.7634 159.24 86.6969 156.898 86.6969Z" fill="#E1EAF1"/>
<path d="M139.937 86.6969C137.595 86.6969 135.697 87.7634 135.697 89.0789C135.697 90.3945 137.595 91.4609 139.937 91.4609C142.279 91.4609 144.178 90.3945 144.178 89.0789C144.178 87.7634 142.279 86.6969 139.937 86.6969Z" fill="#E1EAF1"/>
<path d="M122.975 86.6969C120.633 86.6969 118.735 87.7634 118.735 89.0789C118.735 90.3945 120.633 91.4609 122.975 91.4609C125.317 91.4609 127.216 90.3945 127.216 89.0789C127.216 87.7634 125.317 86.6969 122.975 86.6969Z" fill="#E1EAF1"/>
<path d="M106.013 86.6969C103.671 86.6969 101.773 87.7634 101.773 89.0789C101.773 90.3945 103.671 91.4609 106.013 91.4609C108.355 91.4609 110.254 90.3945 110.254 89.0789C110.254 87.7634 108.355 86.6969 106.013 86.6969Z" fill="#E1EAF1"/>
<path d="M89.0525 86.6969C86.7105 86.6969 84.812 87.7634 84.812 89.0789C84.812 90.3945 86.7105 91.4609 89.0525 91.4609C91.3944 91.4609 93.293 90.3945 93.293 89.0789C93.293 87.7634 91.3944 86.6969 89.0525 86.6969Z" fill="#E1EAF1"/>
<path d="M72.0867 86.6969C69.7447 86.6969 67.8462 87.7634 67.8462 89.0789C67.8462 90.3945 69.7447 91.4609 72.0867 91.4609C74.4286 91.4609 76.3271 90.3945 76.3271 89.0789C76.3271 87.7634 74.4286 86.6969 72.0867 86.6969Z" fill="#E1EAF1"/>
<path d="M55.1247 86.6969C52.7828 86.6969 50.8842 87.7634 50.8842 89.0789C50.8842 90.3945 52.7828 91.4609 55.1247 91.4609C57.4667 91.4609 59.3652 90.3945 59.3652 89.0789C59.3652 87.7634 57.4667 86.6969 55.1247 86.6969Z" fill="#E1EAF1"/>
<path d="M38.1638 86.6969C35.8218 86.6969 33.9233 87.7634 33.9233 89.0789C33.9233 90.3945 35.8218 91.4609 38.1638 91.4609C40.5058 91.4609 42.4043 90.3945 42.4043 89.0789C42.4043 87.7634 40.5058 86.6969 38.1638 86.6969Z" fill="#E1EAF1"/>
<path d="M21.2019 86.6969C18.8599 86.6969 16.9614 87.7634 16.9614 89.0789C16.9614 90.3945 18.8599 91.4609 21.2019 91.4609C23.5438 91.4609 25.4424 90.3945 25.4424 89.0789C25.4424 87.7634 23.5438 86.6969 21.2019 86.6969Z" fill="#E1EAF1"/>
<path d="M4.24095 86.6969C1.89899 86.6969 0.000454903 87.7634 0.000454903 89.0789C0.000454903 90.3945 1.89899 91.4609 4.24095 91.4609C6.58291 91.4609 8.48145 90.3945 8.48145 89.0789C8.48145 87.7634 6.58291 86.6969 4.24095 86.6969Z" fill="#E1EAF1"/>
<path d="M156.898 77.1676C154.556 77.1676 152.658 78.2341 152.658 79.5496C152.658 80.8652 154.556 81.9316 156.898 81.9316C159.24 81.9316 161.139 80.8652 161.139 79.5496C161.139 78.2341 159.24 77.1676 156.898 77.1676Z" fill="#E1EAF1"/>
<path d="M139.937 77.1676C137.595 77.1676 135.697 78.2341 135.697 79.5496C135.697 80.8652 137.595 81.9316 139.937 81.9316C142.279 81.9316 144.178 80.8652 144.178 79.5496C144.178 78.2341 142.279 77.1676 139.937 77.1676Z" fill="#E1EAF1"/>
<path d="M122.975 77.1676C120.633 77.1676 118.735 78.2341 118.735 79.5496C118.735 80.8652 120.633 81.9316 122.975 81.9316C125.317 81.9316 127.216 80.8652 127.216 79.5496C127.216 78.2341 125.317 77.1676 122.975 77.1676Z" fill="#E1EAF1"/>
<path d="M106.013 77.1676C103.671 77.1676 101.773 78.2341 101.773 79.5496C101.773 80.8652 103.671 81.9316 106.013 81.9316C108.355 81.9316 110.254 80.8652 110.254 79.5496C110.254 78.2341 108.355 77.1676 106.013 77.1676Z" fill="#E1EAF1"/>
<path d="M89.0525 77.1676C86.7105 77.1676 84.812 78.2341 84.812 79.5496C84.812 80.8652 86.7105 81.9316 89.0525 81.9316C91.3944 81.9316 93.293 80.8652 93.293 79.5496C93.293 78.2341 91.3944 77.1676 89.0525 77.1676Z" fill="#E1EAF1"/>
<path d="M72.0867 77.1676C69.7447 77.1676 67.8462 78.2341 67.8462 79.5496C67.8462 80.8652 69.7447 81.9316 72.0867 81.9316C74.4286 81.9316 76.3271 80.8652 76.3271 79.5496C76.3271 78.2341 74.4286 77.1676 72.0867 77.1676Z" fill="#E1EAF1"/>
<path d="M55.1247 77.1676C52.7828 77.1676 50.8842 78.2341 50.8842 79.5496C50.8842 80.8652 52.7828 81.9316 55.1247 81.9316C57.4667 81.9316 59.3652 80.8652 59.3652 79.5496C59.3652 78.2341 57.4667 77.1676 55.1247 77.1676Z" fill="#E1EAF1"/>
<path d="M38.1638 77.1676C35.8218 77.1676 33.9233 78.2341 33.9233 79.5496C33.9233 80.8652 35.8218 81.9316 38.1638 81.9316C40.5058 81.9316 42.4043 80.8652 42.4043 79.5496C42.4043 78.2341 40.5058 77.1676 38.1638 77.1676Z" fill="#E1EAF1"/>
<path d="M21.2019 77.1676C18.8599 77.1676 16.9614 78.2341 16.9614 79.5496C16.9614 80.8652 18.8599 81.9316 21.2019 81.9316C23.5438 81.9316 25.4424 80.8652 25.4424 79.5496C25.4424 78.2341 23.5438 77.1676 21.2019 77.1676Z" fill="#E1EAF1"/>
<path d="M4.24095 77.1676C1.89899 77.1676 0.000454903 78.2341 0.000454903 79.5496C0.000454903 80.8652 1.89899 81.9316 4.24095 81.9316C6.58291 81.9316 8.48145 80.8652 8.48145 79.5496C8.48145 78.2341 6.58291 77.1676 4.24095 77.1676Z" fill="#E1EAF1"/>
<path d="M156.898 67.6403C154.556 67.6403 152.658 68.7067 152.658 70.0223C152.658 71.3378 154.556 72.4043 156.898 72.4043C159.24 72.4043 161.139 71.3378 161.139 70.0223C161.139 68.7067 159.24 67.6403 156.898 67.6403Z" fill="#E1EAF1"/>
<path d="M139.937 67.6403C137.595 67.6403 135.697 68.7067 135.697 70.0223C135.697 71.3378 137.595 72.4043 139.937 72.4043C142.279 72.4043 144.178 71.3378 144.178 70.0223C144.178 68.7067 142.279 67.6403 139.937 67.6403Z" fill="#E1EAF1"/>
<path d="M122.975 67.6403C120.633 67.6403 118.735 68.7067 118.735 70.0223C118.735 71.3378 120.633 72.4043 122.975 72.4043C125.317 72.4043 127.216 71.3378 127.216 70.0223C127.216 68.7067 125.317 67.6403 122.975 67.6403Z" fill="#E1EAF1"/>
<path d="M106.013 67.6403C103.671 67.6403 101.773 68.7067 101.773 70.0223C101.773 71.3378 103.671 72.4043 106.013 72.4043C108.355 72.4043 110.254 71.3378 110.254 70.0223C110.254 68.7067 108.355 67.6403 106.013 67.6403Z" fill="#E1EAF1"/>
<path d="M89.0525 67.6403C86.7105 67.6403 84.812 68.7067 84.812 70.0223C84.812 71.3378 86.7105 72.4043 89.0525 72.4043C91.3944 72.4043 93.293 71.3378 93.293 70.0223C93.293 68.7067 91.3944 67.6403 89.0525 67.6403Z" fill="#E1EAF1"/>
<path d="M72.0867 67.6403C69.7447 67.6403 67.8462 68.7067 67.8462 70.0223C67.8462 71.3378 69.7447 72.4043 72.0867 72.4043C74.4286 72.4043 76.3271 71.3378 76.3271 70.0223C76.3271 68.7067 74.4286 67.6403 72.0867 67.6403Z" fill="#E1EAF1"/>
<path d="M55.1247 67.6403C52.7828 67.6403 50.8842 68.7067 50.8842 70.0223C50.8842 71.3378 52.7828 72.4043 55.1247 72.4043C57.4667 72.4043 59.3652 71.3378 59.3652 70.0223C59.3652 68.7067 57.4667 67.6403 55.1247 67.6403Z" fill="#E1EAF1"/>
<path d="M38.1638 67.6403C35.8218 67.6403 33.9233 68.7067 33.9233 70.0223C33.9233 71.3378 35.8218 72.4043 38.1638 72.4043C40.5058 72.4043 42.4043 71.3378 42.4043 70.0223C42.4043 68.7067 40.5058 67.6403 38.1638 67.6403Z" fill="#E1EAF1"/>
<path d="M21.2019 67.6403C18.8599 67.6403 16.9614 68.7067 16.9614 70.0223C16.9614 71.3378 18.8599 72.4043 21.2019 72.4043C23.5438 72.4043 25.4424 71.3378 25.4424 70.0223C25.4424 68.7067 23.5438 67.6403 21.2019 67.6403Z" fill="#E1EAF1"/>
<path d="M4.24095 67.6403C1.89899 67.6403 0.000454903 68.7067 0.000454903 70.0223C0.000454903 71.3378 1.89899 72.4043 4.24095 72.4043C6.58291 72.4043 8.48145 71.3378 8.48145 70.0223C8.48145 68.7067 6.58291 67.6403 4.24095 67.6403Z" fill="#E1EAF1"/>
<path d="M156.898 58.1129C154.556 58.1129 152.658 59.1794 152.658 60.4949C152.658 61.8105 154.556 62.877 156.898 62.877C159.24 62.877 161.139 61.8105 161.139 60.4949C161.139 59.1794 159.24 58.1129 156.898 58.1129Z" fill="#E1EAF1"/>
<path d="M139.937 58.1129C137.595 58.1129 135.697 59.1794 135.697 60.4949C135.697 61.8105 137.595 62.877 139.937 62.877C142.279 62.877 144.178 61.8105 144.178 60.4949C144.178 59.1794 142.279 58.1129 139.937 58.1129Z" fill="#E1EAF1"/>
<path d="M122.975 58.1129C120.633 58.1129 118.735 59.1794 118.735 60.4949C118.735 61.8105 120.633 62.877 122.975 62.877C125.317 62.877 127.216 61.8105 127.216 60.4949C127.216 59.1794 125.317 58.1129 122.975 58.1129Z" fill="#E1EAF1"/>
<path d="M106.013 58.1129C103.671 58.1129 101.773 59.1794 101.773 60.4949C101.773 61.8105 103.671 62.877 106.013 62.877C108.355 62.877 110.254 61.8105 110.254 60.4949C110.254 59.1794 108.355 58.1129 106.013 58.1129Z" fill="#E1EAF1"/>
<path d="M89.0525 58.1129C86.7105 58.1129 84.812 59.1794 84.812 60.4949C84.812 61.8105 86.7105 62.877 89.0525 62.877C91.3944 62.877 93.293 61.8105 93.293 60.4949C93.293 59.1794 91.3944 58.1129 89.0525 58.1129Z" fill="#E1EAF1"/>
<path d="M72.0867 58.1129C69.7447 58.1129 67.8462 59.1794 67.8462 60.4949C67.8462 61.8105 69.7447 62.877 72.0867 62.877C74.4286 62.877 76.3271 61.8105 76.3271 60.4949C76.3271 59.1794 74.4286 58.1129 72.0867 58.1129Z" fill="#E1EAF1"/>
<path d="M55.1247 58.1129C52.7828 58.1129 50.8842 59.1794 50.8842 60.4949C50.8842 61.8105 52.7828 62.877 55.1247 62.877C57.4667 62.877 59.3652 61.8105 59.3652 60.4949C59.3652 59.1794 57.4667 58.1129 55.1247 58.1129Z" fill="#E1EAF1"/>
<path d="M38.1638 58.1129C35.8218 58.1129 33.9233 59.1794 33.9233 60.4949C33.9233 61.8105 35.8218 62.877 38.1638 62.877C40.5058 62.877 42.4043 61.8105 42.4043 60.4949C42.4043 59.1794 40.5058 58.1129 38.1638 58.1129Z" fill="#E1EAF1"/>
<path d="M21.2019 58.1129C18.8599 58.1129 16.9614 59.1794 16.9614 60.4949C16.9614 61.8105 18.8599 62.877 21.2019 62.877C23.5438 62.877 25.4424 61.8105 25.4424 60.4949C25.4424 59.1794 23.5438 58.1129 21.2019 58.1129Z" fill="#E1EAF1"/>
<path d="M4.24095 58.1129C1.89899 58.1129 0.000454903 59.1794 0.000454903 60.4949C0.000454903 61.8105 1.89899 62.877 4.24095 62.877C6.58291 62.877 8.48145 61.8105 8.48145 60.4949C8.48145 59.1794 6.58291 58.1129 4.24095 58.1129Z" fill="#E1EAF1"/>
<path d="M156.898 48.5836C154.556 48.5836 152.658 49.6501 152.658 50.9657C152.658 52.2812 154.556 53.3477 156.898 53.3477C159.24 53.3477 161.139 52.2812 161.139 50.9657C161.139 49.6501 159.24 48.5836 156.898 48.5836Z" fill="#E1EAF1"/>
<path d="M139.937 48.5836C137.595 48.5836 135.697 49.6501 135.697 50.9657C135.697 52.2812 137.595 53.3477 139.937 53.3477C142.279 53.3477 144.178 52.2812 144.178 50.9657C144.178 49.6501 142.279 48.5836 139.937 48.5836Z" fill="#E1EAF1"/>
<path d="M122.975 48.5836C120.633 48.5836 118.735 49.6501 118.735 50.9657C118.735 52.2812 120.633 53.3477 122.975 53.3477C125.317 53.3477 127.216 52.2812 127.216 50.9657C127.216 49.6501 125.317 48.5836 122.975 48.5836Z" fill="#E1EAF1"/>
<path d="M106.013 48.5836C103.671 48.5836 101.773 49.6501 101.773 50.9657C101.773 52.2812 103.671 53.3477 106.013 53.3477C108.355 53.3477 110.254 52.2812 110.254 50.9657C110.254 49.6501 108.355 48.5836 106.013 48.5836Z" fill="#E1EAF1"/>
<path d="M89.0525 48.5836C86.7105 48.5836 84.812 49.6501 84.812 50.9657C84.812 52.2812 86.7105 53.3477 89.0525 53.3477C91.3944 53.3477 93.293 52.2812 93.293 50.9657C93.293 49.6501 91.3944 48.5836 89.0525 48.5836Z" fill="#E1EAF1"/>
<path d="M72.0867 48.5836C69.7447 48.5836 67.8462 49.6501 67.8462 50.9657C67.8462 52.2812 69.7447 53.3477 72.0867 53.3477C74.4286 53.3477 76.3271 52.2812 76.3271 50.9657C76.3271 49.6501 74.4286 48.5836 72.0867 48.5836Z" fill="#E1EAF1"/>
<path d="M55.1247 48.5836C52.7828 48.5836 50.8842 49.6501 50.8842 50.9657C50.8842 52.2812 52.7828 53.3477 55.1247 53.3477C57.4667 53.3477 59.3652 52.2812 59.3652 50.9657C59.3652 49.6501 57.4667 48.5836 55.1247 48.5836Z" fill="#E1EAF1"/>
<path d="M38.1638 48.5836C35.8218 48.5836 33.9233 49.6501 33.9233 50.9657C33.9233 52.2812 35.8218 53.3477 38.1638 53.3477C40.5058 53.3477 42.4043 52.2812 42.4043 50.9657C42.4043 49.6501 40.5058 48.5836 38.1638 48.5836Z" fill="#E1EAF1"/>
<path d="M21.2019 48.5836C18.8599 48.5836 16.9614 49.6501 16.9614 50.9657C16.9614 52.2812 18.8599 53.3477 21.2019 53.3477C23.5438 53.3477 25.4424 52.2812 25.4424 50.9657C25.4424 49.6501 23.5438 48.5836 21.2019 48.5836Z" fill="#E1EAF1"/>
<path d="M4.24095 48.5836C1.89899 48.5836 0.000454903 49.6501 0.000454903 50.9657C0.000454903 52.2812 1.89899 53.3477 4.24095 53.3477C6.58291 53.3477 8.48145 52.2812 8.48145 50.9657C8.48145 49.6501 6.58291 48.5836 4.24095 48.5836Z" fill="#E1EAF1"/>
<path d="M156.898 39.0563C154.556 39.0563 152.658 40.1228 152.658 41.4383C152.658 42.7539 154.556 43.8203 156.898 43.8203C159.24 43.8203 161.139 42.7539 161.139 41.4383C161.139 40.1228 159.24 39.0563 156.898 39.0563Z" fill="#E1EAF1"/>
<path d="M139.937 39.0563C137.595 39.0563 135.697 40.1228 135.697 41.4383C135.697 42.7539 137.595 43.8203 139.937 43.8203C142.279 43.8203 144.178 42.7539 144.178 41.4383C144.178 40.1228 142.279 39.0563 139.937 39.0563Z" fill="#E1EAF1"/>
<path d="M122.975 39.0563C120.633 39.0563 118.735 40.1228 118.735 41.4383C118.735 42.7539 120.633 43.8203 122.975 43.8203C125.317 43.8203 127.216 42.7539 127.216 41.4383C127.216 40.1228 125.317 39.0563 122.975 39.0563Z" fill="#E1EAF1"/>
<path d="M106.013 39.0563C103.671 39.0563 101.773 40.1228 101.773 41.4383C101.773 42.7539 103.671 43.8203 106.013 43.8203C108.355 43.8203 110.254 42.7539 110.254 41.4383C110.254 40.1228 108.355 39.0563 106.013 39.0563Z" fill="#E1EAF1"/>
<path d="M89.0525 39.0563C86.7105 39.0563 84.812 40.1228 84.812 41.4383C84.812 42.7539 86.7105 43.8203 89.0525 43.8203C91.3944 43.8203 93.293 42.7539 93.293 41.4383C93.293 40.1228 91.3944 39.0563 89.0525 39.0563Z" fill="#E1EAF1"/>
<path d="M72.0867 39.0563C69.7447 39.0563 67.8462 40.1228 67.8462 41.4383C67.8462 42.7539 69.7447 43.8203 72.0867 43.8203C74.4286 43.8203 76.3271 42.7539 76.3271 41.4383C76.3271 40.1228 74.4286 39.0563 72.0867 39.0563Z" fill="#E1EAF1"/>
<path d="M55.1247 39.0563C52.7828 39.0563 50.8842 40.1228 50.8842 41.4383C50.8842 42.7539 52.7828 43.8203 55.1247 43.8203C57.4667 43.8203 59.3652 42.7539 59.3652 41.4383C59.3652 40.1228 57.4667 39.0563 55.1247 39.0563Z" fill="#E1EAF1"/>
<path d="M38.1638 39.0563C35.8218 39.0563 33.9233 40.1228 33.9233 41.4383C33.9233 42.7539 35.8218 43.8203 38.1638 43.8203C40.5058 43.8203 42.4043 42.7539 42.4043 41.4383C42.4043 40.1228 40.5058 39.0563 38.1638 39.0563Z" fill="#E1EAF1"/>
<path d="M21.2019 39.0563C18.8599 39.0563 16.9614 40.1228 16.9614 41.4383C16.9614 42.7539 18.8599 43.8203 21.2019 43.8203C23.5438 43.8203 25.4424 42.7539 25.4424 41.4383C25.4424 40.1228 23.5438 39.0563 21.2019 39.0563Z" fill="#E1EAF1"/>
<path d="M4.24095 39.0563C1.89899 39.0563 0.000454903 40.1228 0.000454903 41.4383C0.000454903 42.7539 1.89899 43.8203 4.24095 43.8203C6.58291 43.8203 8.48145 42.7539 8.48145 41.4383C8.48145 40.1228 6.58291 39.0563 4.24095 39.0563Z" fill="#E1EAF1"/>
<path d="M156.898 29.527C154.556 29.527 152.658 30.5935 152.658 31.909C152.658 33.2246 154.556 34.291 156.898 34.291C159.24 34.291 161.139 33.2246 161.139 31.909C161.139 30.5935 159.24 29.527 156.898 29.527Z" fill="#E1EAF1"/>
<path d="M139.937 29.527C137.595 29.527 135.697 30.5935 135.697 31.909C135.697 33.2246 137.595 34.291 139.937 34.291C142.279 34.291 144.178 33.2246 144.178 31.909C144.178 30.5935 142.279 29.527 139.937 29.527Z" fill="#E1EAF1"/>
<path d="M122.975 29.527C120.633 29.527 118.735 30.5935 118.735 31.909C118.735 33.2246 120.633 34.291 122.975 34.291C125.317 34.291 127.216 33.2246 127.216 31.909C127.216 30.5935 125.317 29.527 122.975 29.527Z" fill="#E1EAF1"/>
<path d="M106.013 29.527C103.671 29.527 101.773 30.5935 101.773 31.909C101.773 33.2246 103.671 34.291 106.013 34.291C108.355 34.291 110.254 33.2246 110.254 31.909C110.254 30.5935 108.355 29.527 106.013 29.527Z" fill="#E1EAF1"/>
<path d="M89.0525 29.527C86.7105 29.527 84.812 30.5935 84.812 31.909C84.812 33.2246 86.7105 34.291 89.0525 34.291C91.3944 34.291 93.293 33.2246 93.293 31.909C93.293 30.5935 91.3944 29.527 89.0525 29.527Z" fill="#E1EAF1"/>
<path d="M72.0867 29.527C69.7447 29.527 67.8462 30.5935 67.8462 31.909C67.8462 33.2246 69.7447 34.291 72.0867 34.291C74.4286 34.291 76.3271 33.2246 76.3271 31.909C76.3271 30.5935 74.4286 29.527 72.0867 29.527Z" fill="#E1EAF1"/>
<path d="M55.1247 29.527C52.7828 29.527 50.8842 30.5935 50.8842 31.909C50.8842 33.2246 52.7828 34.291 55.1247 34.291C57.4667 34.291 59.3652 33.2246 59.3652 31.909C59.3652 30.5935 57.4667 29.527 55.1247 29.527Z" fill="#E1EAF1"/>
<path d="M38.1638 29.527C35.8218 29.527 33.9233 30.5935 33.9233 31.909C33.9233 33.2246 35.8218 34.291 38.1638 34.291C40.5058 34.291 42.4043 33.2246 42.4043 31.909C42.4043 30.5935 40.5058 29.527 38.1638 29.527Z" fill="#E1EAF1"/>
<path d="M21.2019 29.527C18.8599 29.527 16.9614 30.5935 16.9614 31.909C16.9614 33.2246 18.8599 34.291 21.2019 34.291C23.5438 34.291 25.4424 33.2246 25.4424 31.909C25.4424 30.5935 23.5438 29.527 21.2019 29.527Z" fill="#E1EAF1"/>
<path d="M4.24095 29.527C1.89899 29.527 0.000454903 30.5935 0.000454903 31.909C0.000454903 33.2246 1.89899 34.291 4.24095 34.291C6.58291 34.291 8.48145 33.2246 8.48145 31.909C8.48145 30.5935 6.58291 29.527 4.24095 29.527Z" fill="#E1EAF1"/>
<path d="M156.898 19.9997C154.556 19.9997 152.658 21.0661 152.658 22.3817C152.658 23.6972 154.556 24.7637 156.898 24.7637C159.24 24.7637 161.139 23.6972 161.139 22.3817C161.139 21.0661 159.24 19.9997 156.898 19.9997Z" fill="#E1EAF1"/>
<path d="M139.937 19.9997C137.595 19.9997 135.697 21.0661 135.697 22.3817C135.697 23.6972 137.595 24.7637 139.937 24.7637C142.279 24.7637 144.178 23.6972 144.178 22.3817C144.178 21.0661 142.279 19.9997 139.937 19.9997Z" fill="#E1EAF1"/>
<path d="M122.975 19.9997C120.633 19.9997 118.735 21.0661 118.735 22.3817C118.735 23.6972 120.633 24.7637 122.975 24.7637C125.317 24.7637 127.216 23.6972 127.216 22.3817C127.216 21.0661 125.317 19.9997 122.975 19.9997Z" fill="#E1EAF1"/>
<path d="M106.013 19.9997C103.671 19.9997 101.773 21.0661 101.773 22.3817C101.773 23.6972 103.671 24.7637 106.013 24.7637C108.355 24.7637 110.254 23.6972 110.254 22.3817C110.254 21.0661 108.355 19.9997 106.013 19.9997Z" fill="#E1EAF1"/>
<path d="M89.0525 19.9997C86.7105 19.9997 84.812 21.0661 84.812 22.3817C84.812 23.6972 86.7105 24.7637 89.0525 24.7637C91.3944 24.7637 93.293 23.6972 93.293 22.3817C93.293 21.0661 91.3944 19.9997 89.0525 19.9997Z" fill="#E1EAF1"/>
<path d="M72.0867 19.9997C69.7447 19.9997 67.8462 21.0661 67.8462 22.3817C67.8462 23.6972 69.7447 24.7637 72.0867 24.7637C74.4286 24.7637 76.3271 23.6972 76.3271 22.3817C76.3271 21.0661 74.4286 19.9997 72.0867 19.9997Z" fill="#E1EAF1"/>
<path d="M55.1247 19.9997C52.7828 19.9997 50.8842 21.0661 50.8842 22.3817C50.8842 23.6972 52.7828 24.7637 55.1247 24.7637C57.4667 24.7637 59.3652 23.6972 59.3652 22.3817C59.3652 21.0661 57.4667 19.9997 55.1247 19.9997Z" fill="#E1EAF1"/>
<path d="M38.1638 19.9997C35.8218 19.9997 33.9233 21.0661 33.9233 22.3817C33.9233 23.6972 35.8218 24.7637 38.1638 24.7637C40.5058 24.7637 42.4043 23.6972 42.4043 22.3817C42.4043 21.0661 40.5058 19.9997 38.1638 19.9997Z" fill="#E1EAF1"/>
<path d="M21.2019 19.9997C18.8599 19.9997 16.9614 21.0661 16.9614 22.3817C16.9614 23.6972 18.8599 24.7637 21.2019 24.7637C23.5438 24.7637 25.4424 23.6972 25.4424 22.3817C25.4424 21.0661 23.5438 19.9997 21.2019 19.9997Z" fill="#E1EAF1"/>
<path d="M4.24095 19.9997C1.89899 19.9997 0.000454903 21.0661 0.000454903 22.3817C0.000454903 23.6972 1.89899 24.7637 4.24095 24.7637C6.58291 24.7637 8.48145 23.6972 8.48145 22.3817C8.48145 21.0661 6.58291 19.9997 4.24095 19.9997Z" fill="#E1EAF1"/>
</g>
<path d="M615.29 16.7744L623.936 22.3376L620.258 30.5942L629.279 25.7758L637.925 31.3389L634.854 22.7978L643.875 17.9794L632.957 17.5192L629.886 8.97807L626.209 17.2347L615.29 16.7744Z" fill="#9FFFEA" fill-opacity="0.75"/>
<path d="M590.485 27.5998L596.757 31.6031L594.13 37.5007L600.633 34.0773L606.905 38.0806L604.653 31.9615L611.156 28.5381L603.26 28.1797L601.007 22.0606L598.381 27.9582L590.485 27.5998Z" fill="#9FFFEA" fill-opacity="0.75"/>
<path d="M621.114 48.5674L630.568 54.8977L626.234 64.6288L636.412 58.8101L645.867 65.1404L642.702 55.214L652.88 49.3953L640.746 49.0791L637.581 39.1526L633.247 48.8836L621.114 48.5674Z" fill="#9FFFEA" fill-opacity="0.75"/>
<path d="M179 250.426C179 253.96 176.136 256.824 172.602 256.824C169.069 256.824 166.204 253.96 166.204 250.426V242.117C166.204 238.583 169.069 235.719 172.602 235.719C176.136 235.719 179 238.583 179 242.117V250.426Z" fill="#9E97F3" fill-opacity="0.6"/>
<path d="M160.143 240.579C160.143 241.695 159.238 242.6 158.122 242.6C157.006 242.6 156.102 241.695 156.102 240.579V229.02C156.102 227.904 157.006 227 158.122 227C159.238 227 160.143 227.904 160.143 229.02V240.579Z" fill="#9E97F3" fill-opacity="0.6"/>
<path d="M162.163 258.2C162.163 262.508 158.671 266 154.363 266H153.8C149.492 266 146 262.508 146 258.2C146 253.892 149.492 250.4 153.8 250.4H154.363C158.671 250.4 162.163 253.892 162.163 258.2Z" fill="#9E97F3" fill-opacity="0.6"/>
<path d="M173 230.5C173 232.985 170.985 235 168.5 235H167.5C165.015 235 163 232.985 163 230.5C163 228.015 165.015 226 167.5 226H168.5C170.985 226 173 228.015 173 230.5Z" fill="#9E97F3" fill-opacity="0.6"/>
<path d="M152 243C152 244.657 150.657 246 149 246C147.343 246 146 244.657 146 243C146 241.343 147.343 240 149 240C150.657 240 152 241.343 152 243Z" fill="#9E97F3" fill-opacity="0.6"/>
<path d="M176 263C176 264.657 174.657 266 173 266C171.343 266 170 264.657 170 263C170 261.343 171.343 260 173 260C174.657 260 176 261.343 176 263Z" fill="#9E97F3" fill-opacity="0.6"/>
<defs>
<clipPath id="clip0_311_7429">
<rect width="140.35" height="141.938" fill="white" transform="matrix(0.713944 -0.700203 0.713944 0.700203 314 190.273)"/>
</clipPath>
<clipPath id="clip1_311_7429">
<rect width="162" height="91" fill="white" transform="translate(0 20)"/>
</clipPath>
</defs>
</svg>
