<svg width="684" height="503" viewBox="0 0 684 503" fill="none" xmlns="http://www.w3.org/2000/svg">
<g clip-path="url(#clip0_192_1684)">
<path d="M366.104 107.017C364.681 108.464 364.695 110.823 366.133 112.287C367.571 113.75 369.89 113.764 371.312 112.317C372.734 110.869 372.721 108.51 371.283 107.046C369.845 105.583 367.526 105.57 366.104 107.017Z" fill="#D5435D" fill-opacity="0.6"/>
<path d="M355.804 117.497C354.382 118.944 354.395 121.304 355.833 122.767C357.271 124.231 359.59 124.244 361.012 122.797C362.434 121.35 362.421 118.99 360.983 117.527C359.545 116.063 357.226 116.05 355.804 117.497Z" fill="#D5435D" fill-opacity="0.6"/>
<path d="M345.503 127.979C344.081 129.426 344.094 131.785 345.533 133.249C346.971 134.712 349.29 134.726 350.712 133.278C352.134 131.831 352.121 129.472 350.683 128.008C349.244 126.545 346.926 126.532 345.503 127.979Z" fill="#D5435D" fill-opacity="0.6"/>
<path d="M335.204 138.459C333.781 139.906 333.794 142.266 335.233 143.729C336.671 145.193 338.99 145.206 340.412 143.759C341.834 142.312 341.821 139.952 340.383 138.489C338.944 137.025 336.626 137.012 335.204 138.459Z" fill="#D5435D" fill-opacity="0.6"/>
<path d="M324.904 148.941C323.481 150.388 323.494 152.747 324.933 154.211C326.371 155.674 328.69 155.688 330.112 154.24C331.534 152.793 331.521 150.434 330.083 148.97C328.645 147.507 326.326 147.493 324.904 148.941Z" fill="#D5435D" fill-opacity="0.6"/>
<path d="M314.601 159.423C313.179 160.87 313.192 163.23 314.63 164.693C316.069 166.157 318.388 166.17 319.81 164.723C321.232 163.276 321.219 160.916 319.781 159.453C318.342 157.989 316.023 157.976 314.601 159.423Z" fill="#D5435D" fill-opacity="0.6"/>
<path d="M304.301 169.904C302.879 171.352 302.892 173.711 304.331 175.175C305.769 176.638 308.088 176.651 309.51 175.204C310.932 173.757 310.919 171.398 309.481 169.934C308.042 168.471 305.724 168.457 304.301 169.904Z" fill="#D5435D" fill-opacity="0.6"/>
<path d="M294.001 180.385C292.579 181.832 292.592 184.192 294.03 185.655C295.469 187.119 297.788 187.132 299.21 185.685C300.632 184.238 300.619 181.878 299.181 180.415C297.742 178.951 295.424 178.938 294.001 180.385Z" fill="#D5435D" fill-opacity="0.6"/>
<path d="M283.701 190.865C282.279 192.313 282.292 194.672 283.73 196.136C285.169 197.599 287.488 197.612 288.91 196.165C290.332 194.718 290.319 192.359 288.881 190.895C287.442 189.432 285.123 189.418 283.701 190.865Z" fill="#D5435D" fill-opacity="0.6"/>
<path d="M273.401 201.347C271.979 202.794 271.992 205.153 273.431 206.617C274.869 208.08 277.188 208.094 278.61 206.647C280.032 205.199 280.019 202.84 278.581 201.376C277.142 199.913 274.824 199.9 273.401 201.347Z" fill="#D5435D" fill-opacity="0.6"/>
<path d="M355.687 96.4171C354.265 97.8643 354.278 100.224 355.716 101.687C357.155 103.151 359.473 103.164 360.896 101.717C362.318 100.27 362.305 97.9103 360.866 96.4468C359.428 94.9833 357.109 94.97 355.687 96.4171Z" fill="#D5435D" fill-opacity="0.6"/>
<path d="M345.387 106.899C343.965 108.346 343.978 110.705 345.416 112.169C346.855 113.632 349.174 113.646 350.596 112.198C352.018 110.751 352.005 108.392 350.567 106.928C349.128 105.465 346.81 105.451 345.387 106.899Z" fill="#D5435D" fill-opacity="0.6"/>
<path d="M335.087 117.379C333.665 118.826 333.678 121.186 335.116 122.649C336.554 124.113 338.873 124.126 340.295 122.679C341.717 121.232 341.704 118.872 340.266 117.409C338.828 115.945 336.509 115.932 335.087 117.379Z" fill="#D5435D" fill-opacity="0.6"/>
<path d="M324.787 127.86C323.365 129.307 323.378 131.666 324.816 133.13C326.254 134.593 328.573 134.606 329.995 133.159C331.418 131.712 331.405 129.353 329.966 127.889C328.528 126.426 326.209 126.412 324.787 127.86Z" fill="#D5435D" fill-opacity="0.6"/>
<path d="M314.487 138.341C313.065 139.788 313.078 142.148 314.516 143.611C315.954 145.075 318.273 145.088 319.695 143.641C321.118 142.194 321.105 139.834 319.666 138.371C318.228 136.907 315.909 136.894 314.487 138.341Z" fill="#D5435D" fill-opacity="0.6"/>
<path d="M304.185 148.823C302.763 150.271 302.776 152.63 304.214 154.094C305.652 155.557 307.971 155.57 309.393 154.123C310.815 152.676 310.802 150.317 309.364 148.853C307.926 147.39 305.607 147.376 304.185 148.823Z" fill="#D5435D" fill-opacity="0.6"/>
<path d="M293.885 159.305C292.463 160.752 292.476 163.111 293.914 164.575C295.352 166.038 297.671 166.052 299.093 164.605C300.515 163.158 300.502 160.798 299.064 159.334C297.626 157.871 295.307 157.858 293.885 159.305Z" fill="#D5435D" fill-opacity="0.6"/>
<path d="M283.585 169.785C282.163 171.232 282.176 173.592 283.614 175.055C285.052 176.519 287.371 176.532 288.793 175.085C290.215 173.638 290.202 171.278 288.764 169.815C287.326 168.351 285.007 168.338 283.585 169.785Z" fill="#D5435D" fill-opacity="0.6"/>
<path d="M273.285 180.266C271.863 181.713 271.876 184.072 273.314 185.536C274.752 186.999 277.071 187.013 278.493 185.566C279.915 184.118 279.902 181.759 278.464 180.295C277.026 178.832 274.707 178.819 273.285 180.266Z" fill="#D5435D" fill-opacity="0.6"/>
<path d="M262.985 190.747C261.563 192.194 261.576 194.554 263.014 196.017C264.452 197.481 266.771 197.494 268.193 196.047C269.615 194.6 269.602 192.24 268.164 190.777C266.726 189.313 264.407 189.3 262.985 190.747Z" fill="#D5435D" fill-opacity="0.6"/>
<path d="M345.271 85.8185C343.848 87.2656 343.861 89.6252 345.3 91.0887C346.738 92.5522 349.057 92.5654 350.479 91.1183C351.901 89.6712 351.888 87.3116 350.45 85.8481C349.012 84.3846 346.693 84.3714 345.271 85.8185Z" fill="#D5435D" fill-opacity="0.6"/>
<path d="M334.971 96.299C333.549 97.7461 333.562 100.106 335 101.569C336.438 103.033 338.757 103.046 340.179 101.599C341.601 100.152 341.588 97.7921 340.15 96.3286C338.712 94.8651 336.393 94.8518 334.971 96.299Z" fill="#D5435D" fill-opacity="0.6"/>
<path d="M324.67 106.78C323.248 108.228 323.261 110.587 324.699 112.051C326.138 113.514 328.457 113.527 329.879 112.08C331.301 110.633 331.288 108.274 329.85 106.81C328.411 105.347 326.092 105.333 324.67 106.78Z" fill="#D5435D" fill-opacity="0.6"/>
<path d="M314.37 117.261C312.948 118.708 312.961 121.068 314.4 122.531C315.838 123.995 318.157 124.008 319.579 122.561C321.001 121.114 320.988 118.754 319.55 117.291C318.111 115.827 315.793 115.814 314.37 117.261Z" fill="#D5435D" fill-opacity="0.6"/>
<path d="M304.071 127.741C302.648 129.188 302.661 131.548 304.1 133.012C305.538 134.475 307.857 134.488 309.279 133.041C310.701 131.594 310.688 129.234 309.25 127.771C307.812 126.307 305.493 126.294 304.071 127.741Z" fill="#D5435D" fill-opacity="0.6"/>
<path d="M293.768 138.225C292.346 139.672 292.359 142.031 293.797 143.495C295.236 144.958 297.555 144.972 298.977 143.525C300.399 142.077 300.386 139.718 298.948 138.254C297.509 136.791 295.19 136.778 293.768 138.225Z" fill="#D5435D" fill-opacity="0.6"/>
<path d="M283.468 148.705C282.046 150.152 282.059 152.512 283.497 153.975C284.936 155.439 287.254 155.452 288.677 154.005C290.099 152.558 290.086 150.198 288.648 148.735C287.209 147.271 284.89 147.258 283.468 148.705Z" fill="#D5435D" fill-opacity="0.6"/>
<path d="M273.168 159.186C271.746 160.633 271.759 162.992 273.197 164.456C274.636 165.919 276.954 165.933 278.377 164.485C279.799 163.038 279.786 160.679 278.347 159.215C276.909 157.752 274.59 157.739 273.168 159.186Z" fill="#D5435D" fill-opacity="0.6"/>
<path d="M262.868 169.667C261.446 171.114 261.459 173.474 262.897 174.937C264.336 176.401 266.655 176.414 268.077 174.967C269.499 173.52 269.486 171.16 268.048 169.697C266.609 168.233 264.29 168.22 262.868 169.667Z" fill="#D5435D" fill-opacity="0.6"/>
<path d="M252.568 180.148C251.146 181.595 251.159 183.954 252.597 185.418C254.036 186.881 256.354 186.895 257.777 185.447C259.199 184 259.186 181.641 257.747 180.177C256.309 178.714 253.99 178.7 252.568 180.148Z" fill="#D5435D" fill-opacity="0.6"/>
<path d="M334.853 75.2179C333.431 76.6651 333.444 79.0246 334.882 80.4881C336.32 81.9516 338.639 81.9649 340.061 80.5177C341.484 79.0706 341.471 76.7111 340.032 75.2476C338.594 73.7841 336.275 73.7708 334.853 75.2179Z" fill="#D5435D" fill-opacity="0.6"/>
<path d="M324.553 85.6984C323.131 87.1455 323.144 89.5051 324.582 90.9686C326.021 92.4321 328.339 92.4453 329.762 90.9982C331.184 89.5511 331.171 87.1915 329.732 85.728C328.294 84.2645 325.975 84.2513 324.553 85.6984Z" fill="#D5435D" fill-opacity="0.6"/>
<path d="M314.253 96.1798C312.831 97.627 312.844 99.9865 314.282 101.45C315.72 102.913 318.039 102.927 319.461 101.48C320.883 100.033 320.87 97.673 319.432 96.2095C317.994 94.746 315.675 94.7327 314.253 96.1798Z" fill="#D5435D" fill-opacity="0.6"/>
<path d="M303.953 106.66C302.531 108.107 302.544 110.467 303.982 111.93C305.42 113.394 307.739 113.407 309.161 111.96C310.584 110.513 310.571 108.153 309.132 106.69C307.694 105.226 305.375 105.213 303.953 106.66Z" fill="#D5435D" fill-opacity="0.6"/>
<path d="M293.653 117.141C292.231 118.588 292.244 120.947 293.682 122.411C295.12 123.874 297.439 123.888 298.861 122.441C300.284 120.993 300.27 118.634 298.832 117.17C297.394 115.707 295.075 115.694 293.653 117.141Z" fill="#D5435D" fill-opacity="0.6"/>
<path d="M283.351 127.624C281.929 129.071 281.942 131.431 283.38 132.894C284.818 134.358 287.137 134.371 288.559 132.924C289.981 131.477 289.968 129.117 288.53 127.654C287.092 126.19 284.773 126.177 283.351 127.624Z" fill="#D5435D" fill-opacity="0.6"/>
<path d="M273.051 138.105C271.629 139.552 271.642 141.911 273.08 143.375C274.518 144.838 276.837 144.852 278.259 143.404C279.681 141.957 279.668 139.598 278.23 138.134C276.792 136.671 274.473 136.658 273.051 138.105Z" fill="#D5435D" fill-opacity="0.6"/>
<path d="M262.751 148.586C261.329 150.033 261.342 152.393 262.78 153.856C264.218 155.32 266.537 155.333 267.959 153.886C269.381 152.439 269.368 150.079 267.93 148.616C266.492 147.152 264.173 147.139 262.751 148.586Z" fill="#D5435D" fill-opacity="0.6"/>
<path d="M252.451 159.067C251.029 160.514 251.042 162.873 252.48 164.337C253.918 165.8 256.237 165.813 257.659 164.366C259.081 162.919 259.068 160.56 257.63 159.096C256.192 157.633 253.873 157.619 252.451 159.067Z" fill="#D5435D" fill-opacity="0.6"/>
<path d="M242.151 169.547C240.729 170.994 240.742 173.354 242.18 174.817C243.618 176.281 245.937 176.294 247.359 174.847C248.781 173.4 248.768 171.04 247.33 169.577C245.892 168.113 243.573 168.1 242.151 169.547Z" fill="#D5435D" fill-opacity="0.6"/>
<path d="M324.437 64.6183C323.014 66.0654 323.027 68.425 324.466 69.8885C325.904 71.352 328.223 71.3652 329.645 69.9181C331.067 68.471 331.054 66.1114 329.616 64.6479C328.178 63.1844 325.859 63.1712 324.437 64.6183Z" fill="#D5435D" fill-opacity="0.6"/>
<path d="M314.137 75.0988C312.714 76.5459 312.727 78.9054 314.166 80.3689C315.604 81.8324 317.923 81.8457 319.345 80.3986C320.767 78.9515 320.754 76.5919 319.316 75.1284C317.878 73.6649 315.559 73.6516 314.137 75.0988Z" fill="#D5435D" fill-opacity="0.6"/>
<path d="M303.836 85.5802C302.414 87.0274 302.427 89.3869 303.865 90.8504C305.304 92.3139 307.622 92.3272 309.045 90.88C310.467 89.4329 310.454 87.0734 309.015 85.6099C307.577 84.1464 305.258 84.1331 303.836 85.5802Z" fill="#D5435D" fill-opacity="0.6"/>
<path d="M293.536 96.0607C292.114 97.5078 292.127 99.8674 293.566 101.331C295.004 102.794 297.323 102.808 298.745 101.36C300.167 99.9134 300.154 97.5538 298.716 96.0903C297.277 94.6268 294.959 94.6136 293.536 96.0607Z" fill="#D5435D" fill-opacity="0.6"/>
<path d="M283.236 106.541C281.814 107.988 281.827 110.348 283.266 111.811C284.704 113.275 287.023 113.288 288.445 111.841C289.867 110.394 289.854 108.034 288.416 106.571C286.977 105.107 284.659 105.094 283.236 106.541Z" fill="#D5435D" fill-opacity="0.6"/>
<path d="M272.934 117.025C271.512 118.472 271.525 120.831 272.963 122.295C274.402 123.758 276.72 123.771 278.143 122.324C279.565 120.877 279.552 118.518 278.113 117.054C276.675 115.591 274.356 115.577 272.934 117.025Z" fill="#D5435D" fill-opacity="0.6"/>
<path d="M262.634 127.505C261.212 128.952 261.225 131.312 262.663 132.775C264.102 134.239 266.42 134.252 267.843 132.805C269.265 131.358 269.252 128.998 267.813 127.535C266.375 126.071 264.056 126.058 262.634 127.505Z" fill="#D5435D" fill-opacity="0.6"/>
<path d="M252.334 137.986C250.912 139.434 250.925 141.793 252.363 143.257C253.802 144.72 256.12 144.733 257.543 143.286C258.965 141.839 258.952 139.48 257.513 138.016C256.075 136.553 253.756 136.539 252.334 137.986Z" fill="#D5435D" fill-opacity="0.6"/>
<path d="M242.034 148.467C240.612 149.914 240.625 152.274 242.063 153.737C243.502 155.201 245.82 155.214 247.243 153.767C248.665 152.32 248.652 149.96 247.213 148.497C245.775 147.033 243.456 147.02 242.034 148.467Z" fill="#D5435D" fill-opacity="0.6"/>
<path d="M231.734 158.947C230.312 160.395 230.325 162.754 231.763 164.218C233.202 165.681 235.52 165.694 236.943 164.247C238.365 162.8 238.352 160.441 236.914 158.977C235.475 157.514 233.156 157.5 231.734 158.947Z" fill="#D5435D" fill-opacity="0.6"/>
<path d="M314.02 54.0187C312.598 55.4658 312.611 57.8254 314.049 59.2889C315.487 60.7524 317.806 60.7656 319.228 59.3185C320.651 57.8714 320.638 55.5118 319.199 54.0483C317.761 52.5848 315.442 52.5716 314.02 54.0187Z" fill="#D5435D" fill-opacity="0.6"/>
<path d="M303.72 64.4992C302.298 65.9463 302.311 68.3058 303.749 69.7693C305.187 71.2328 307.506 71.2461 308.928 69.799C310.351 68.3518 310.338 65.9923 308.899 64.5288C307.461 63.0653 305.142 63.052 303.72 64.4992Z" fill="#D5435D" fill-opacity="0.6"/>
<path d="M293.42 74.9806C291.998 76.4277 292.011 78.7873 293.449 80.2508C294.887 81.7143 297.206 81.7275 298.628 80.2804C300.05 78.8333 300.037 76.4738 298.599 75.0103C297.161 73.5468 294.842 73.5335 293.42 74.9806Z" fill="#D5435D" fill-opacity="0.6"/>
<path d="M283.12 85.4611C281.698 86.9082 281.711 89.2678 283.149 90.7313C284.587 92.1948 286.906 92.208 288.328 90.7609C289.75 89.3138 289.737 86.9542 288.299 85.4907C286.861 84.0272 284.542 84.014 283.12 85.4611Z" fill="#D5435D" fill-opacity="0.6"/>
<path d="M272.82 95.9425C271.398 97.3897 271.411 99.7492 272.849 101.213C274.287 102.676 276.606 102.689 278.028 101.242C279.451 99.7952 279.437 97.4357 277.999 95.9722C276.561 94.5087 274.242 94.4954 272.82 95.9425Z" fill="#D5435D" fill-opacity="0.6"/>
<path d="M262.518 106.425C261.096 107.872 261.109 110.232 262.547 111.695C263.985 113.159 266.304 113.172 267.726 111.725C269.148 110.278 269.135 107.918 267.697 106.455C266.259 104.991 263.94 104.978 262.518 106.425Z" fill="#D5435D" fill-opacity="0.6"/>
<path d="M252.218 116.906C250.795 118.354 250.809 120.713 252.247 122.177C253.685 123.64 256.004 123.653 257.426 122.206C258.848 120.759 258.835 118.4 257.397 116.936C255.959 115.473 253.64 115.459 252.218 116.906Z" fill="#D5435D" fill-opacity="0.6"/>
<path d="M241.918 127.387C240.496 128.834 240.509 131.194 241.947 132.657C243.385 134.121 245.704 134.134 247.126 132.687C248.548 131.24 248.535 128.88 247.097 127.417C245.659 125.953 243.34 125.94 241.918 127.387Z" fill="#D5435D" fill-opacity="0.6"/>
<path d="M231.618 137.867C230.196 139.314 230.209 141.674 231.647 143.137C233.085 144.601 235.404 144.614 236.826 143.167C238.248 141.72 238.235 139.36 236.797 137.897C235.359 136.433 233.04 136.42 231.618 137.867Z" fill="#D5435D" fill-opacity="0.6"/>
<path d="M221.318 148.349C219.895 149.796 219.909 152.155 221.347 153.619C222.785 155.082 225.104 155.096 226.526 153.649C227.948 152.201 227.935 149.842 226.497 148.378C225.059 146.915 222.74 146.902 221.318 148.349Z" fill="#D5435D" fill-opacity="0.6"/>
<path d="M303.603 43.4201C302.181 44.8672 302.194 47.2267 303.633 48.6902C305.071 50.1537 307.39 50.167 308.812 48.7199C310.234 47.2727 310.221 44.9132 308.783 43.4497C307.344 41.9862 305.026 41.9729 303.603 43.4201Z" fill="#D5435D" fill-opacity="0.6"/>
<path d="M293.304 53.9005C291.881 55.3477 291.894 57.7072 293.333 59.1707C294.771 60.6342 297.09 60.6475 298.512 59.2003C299.934 57.7532 299.921 55.3937 298.483 53.9302C297.045 52.4667 294.726 52.4534 293.304 53.9005Z" fill="#D5435D" fill-opacity="0.6"/>
<path d="M283.003 64.381C281.581 65.8281 281.594 68.1877 283.032 69.6512C284.471 71.1147 286.789 71.1279 288.212 69.6808C289.634 68.2337 289.621 65.8741 288.182 64.4106C286.744 62.9471 284.425 62.9339 283.003 64.381Z" fill="#D5435D" fill-opacity="0.6"/>
<path d="M272.703 74.8625C271.281 76.3096 271.294 78.6691 272.733 80.1326C274.171 81.5961 276.49 81.6094 277.912 80.1623C279.334 78.7151 279.321 76.3556 277.883 74.8921C276.444 73.4286 274.126 73.4153 272.703 74.8625Z" fill="#D5435D" fill-opacity="0.6"/>
<path d="M262.403 85.3429C260.981 86.7901 260.994 89.1496 262.433 90.6131C263.871 92.0766 266.19 92.0899 267.612 90.6427C269.034 89.1956 269.021 86.8361 267.583 85.3726C266.144 83.9091 263.826 83.8958 262.403 85.3429Z" fill="#D5435D" fill-opacity="0.6"/>
<path d="M252.101 95.8263C250.679 97.2734 250.692 99.633 252.13 101.096C253.569 102.56 255.887 102.573 257.31 101.126C258.732 99.679 258.719 97.3195 257.28 95.856C255.842 94.3925 253.523 94.3792 252.101 95.8263Z" fill="#D5435D" fill-opacity="0.6"/>
<path d="M241.801 106.307C240.379 107.754 240.392 110.113 241.83 111.577C243.269 113.04 245.587 113.054 247.01 111.607C248.432 110.159 248.419 107.8 246.98 106.336C245.542 104.873 243.223 104.86 241.801 106.307Z" fill="#D5435D" fill-opacity="0.6"/>
<path d="M231.501 116.787C230.079 118.234 230.092 120.594 231.53 122.057C232.968 123.521 235.287 123.534 236.709 122.087C238.132 120.64 238.119 118.28 236.68 116.817C235.242 115.353 232.923 115.34 231.501 116.787Z" fill="#D5435D" fill-opacity="0.6"/>
<path d="M221.201 127.269C219.779 128.716 219.792 131.075 221.23 132.539C222.669 134.002 224.987 134.016 226.41 132.569C227.832 131.121 227.819 128.762 226.38 127.298C224.942 125.835 222.623 125.822 221.201 127.269Z" fill="#D5435D" fill-opacity="0.6"/>
<path d="M210.901 137.749C209.479 139.196 209.492 141.556 210.93 143.019C212.369 144.483 214.687 144.496 216.11 143.049C217.532 141.602 217.519 139.242 216.08 137.779C214.642 136.315 212.323 136.302 210.901 137.749Z" fill="#D5435D" fill-opacity="0.6"/>
<path d="M293.186 32.8195C291.764 34.2666 291.777 36.6261 293.215 38.0896C294.653 39.5531 296.972 39.5664 298.394 38.1193C299.816 36.6722 299.803 34.3126 298.365 32.8491C296.927 31.3856 294.608 31.3724 293.186 32.8195Z" fill="#D5435D" fill-opacity="0.6"/>
<path d="M282.886 43.3C281.464 44.7471 281.477 47.1066 282.915 48.5701C284.353 50.0336 286.672 50.0469 288.094 48.5998C289.517 47.1526 289.503 44.7931 288.065 43.3296C286.627 41.8661 284.308 41.8528 282.886 43.3Z" fill="#D5435D" fill-opacity="0.6"/>
<path d="M272.586 53.7814C271.163 55.2285 271.176 57.5881 272.615 59.0516C274.053 60.5151 276.372 60.5283 277.794 59.0812C279.216 57.6341 279.203 55.2745 277.765 53.811C276.327 52.3475 274.008 52.3343 272.586 53.7814Z" fill="#D5435D" fill-opacity="0.6"/>
<path d="M262.286 64.2619C260.864 65.709 260.877 68.0685 262.315 69.532C263.753 70.9955 266.072 71.0088 267.494 69.5617C268.916 68.1145 268.903 65.755 267.465 64.2915C266.027 62.828 263.708 62.8147 262.286 64.2619Z" fill="#D5435D" fill-opacity="0.6"/>
<path d="M251.986 74.7423C250.564 76.1895 250.577 78.549 252.015 80.0125C253.453 81.476 255.772 81.4893 257.194 80.0421C258.616 78.595 258.603 76.2355 257.165 74.772C255.727 73.3085 253.408 73.2952 251.986 74.7423Z" fill="#D5435D" fill-opacity="0.6"/>
<path d="M241.684 85.2257C240.261 86.6729 240.274 89.0324 241.713 90.4959C243.151 91.9594 245.47 91.9727 246.892 90.5255C248.314 89.0784 248.301 86.7189 246.863 85.2554C245.425 83.7919 243.106 83.7786 241.684 85.2257Z" fill="#D5435D" fill-opacity="0.6"/>
<path d="M231.384 95.7062C229.961 97.1533 229.974 99.5129 231.413 100.976C232.851 102.44 235.17 102.453 236.592 101.006C238.014 99.5589 238.001 97.1993 236.563 95.7358C235.125 94.2723 232.806 94.2591 231.384 95.7062Z" fill="#D5435D" fill-opacity="0.6"/>
<path d="M221.084 106.187C219.661 107.634 219.674 109.993 221.113 111.457C222.551 112.92 224.87 112.934 226.292 111.486C227.714 110.039 227.701 107.68 226.263 106.216C224.824 104.753 222.506 104.74 221.084 106.187Z" fill="#D5435D" fill-opacity="0.6"/>
<path d="M210.784 116.668C209.361 118.115 209.374 120.475 210.813 121.938C212.251 123.402 214.57 123.415 215.992 121.968C217.414 120.521 217.401 118.161 215.963 116.698C214.525 115.234 212.206 115.221 210.784 116.668Z" fill="#D5435D" fill-opacity="0.6"/>
<path d="M200.484 127.149C199.061 128.596 199.074 130.955 200.513 132.419C201.951 133.882 204.27 133.896 205.692 132.448C207.114 131.001 207.101 128.642 205.663 127.178C204.225 125.715 201.906 125.701 200.484 127.149Z" fill="#D5435D" fill-opacity="0.6"/>
<path d="M282.769 22.2199C281.347 23.667 281.36 26.0265 282.798 27.49C284.237 28.9535 286.556 28.9668 287.978 27.5197C289.4 26.0725 289.387 23.713 287.949 22.2495C286.51 20.786 284.191 20.7727 282.769 22.2199Z" fill="#D5435D" fill-opacity="0.6"/>
<path d="M272.469 32.7003C271.047 34.1475 271.06 36.507 272.499 37.9705C273.937 39.434 276.256 39.4473 277.678 38.0001C279.1 36.553 279.087 34.1935 277.649 32.73C276.21 31.2665 273.892 31.2532 272.469 32.7003Z" fill="#D5435D" fill-opacity="0.6"/>
<path d="M262.169 43.1818C260.747 44.6289 260.76 46.9884 262.198 48.4519C263.636 49.9154 265.955 49.9287 267.377 48.4816C268.8 47.0345 268.787 44.6749 267.348 43.2114C265.91 41.7479 263.591 41.7347 262.169 43.1818Z" fill="#D5435D" fill-opacity="0.6"/>
<path d="M251.869 53.6623C250.447 55.1094 250.46 57.4689 251.898 58.9324C253.337 60.3959 255.655 60.4092 257.078 58.9621C258.5 57.5149 258.487 55.1554 257.049 53.6919C255.61 52.2284 253.291 52.2151 251.869 53.6623Z" fill="#D5435D" fill-opacity="0.6"/>
<path d="M241.569 64.1427C240.147 65.5899 240.16 67.9494 241.598 69.4129C243.037 70.8764 245.355 70.8897 246.778 69.4425C248.2 67.9954 248.187 65.6359 246.748 64.1724C245.31 62.7089 242.991 62.6956 241.569 64.1427Z" fill="#D5435D" fill-opacity="0.6"/>
<path d="M231.267 74.6261C229.845 76.0733 229.858 78.4328 231.296 79.8963C232.734 81.3598 235.053 81.3731 236.475 79.9259C237.898 78.4788 237.885 76.1193 236.446 74.6558C235.008 73.1923 232.689 73.179 231.267 74.6261Z" fill="#D5435D" fill-opacity="0.6"/>
<path d="M220.967 85.1066C219.545 86.5537 219.558 88.9133 220.996 90.3768C222.434 91.8403 224.753 91.8535 226.175 90.4064C227.598 88.9593 227.585 86.5997 226.146 85.1362C224.708 83.6727 222.389 83.6595 220.967 85.1066Z" fill="#D5435D" fill-opacity="0.6"/>
<path d="M210.667 95.588C209.245 97.0352 209.258 99.3947 210.696 100.858C212.134 102.322 214.453 102.335 215.875 100.888C217.298 99.4407 217.285 97.0812 215.846 95.6177C214.408 94.1542 212.089 94.1409 210.667 95.588Z" fill="#D5435D" fill-opacity="0.6"/>
<path d="M200.367 106.069C198.945 107.516 198.958 109.875 200.396 111.339C201.834 112.802 204.153 112.815 205.575 111.368C206.997 109.921 206.984 107.562 205.546 106.098C204.108 104.635 201.789 104.621 200.367 106.069Z" fill="#D5435D" fill-opacity="0.6"/>
<path d="M190.067 116.549C188.645 117.996 188.658 120.356 190.096 121.819C191.534 123.283 193.853 123.296 195.275 121.849C196.698 120.402 196.685 118.042 195.246 116.579C193.808 115.115 191.489 115.102 190.067 116.549Z" fill="#D5435D" fill-opacity="0.6"/>
<path d="M272.353 11.6203C270.931 13.0674 270.944 15.4269 272.382 16.8904C273.82 18.3539 276.139 18.3672 277.561 16.9201C278.983 15.4729 278.97 13.1134 277.532 11.6499C276.094 10.1864 273.775 10.1731 272.353 11.6203Z" fill="#D5435D" fill-opacity="0.6"/>
<path d="M262.053 22.1007C260.631 23.5479 260.644 25.9074 262.082 27.3709C263.52 28.8344 265.839 28.8477 267.261 27.4005C268.684 25.9534 268.67 23.5939 267.232 22.1304C265.794 20.6669 263.475 20.6536 262.053 22.1007Z" fill="#D5435D" fill-opacity="0.6"/>
<path d="M251.753 32.5822C250.33 34.0293 250.343 36.3888 251.782 37.8523C253.22 39.3158 255.539 39.3291 256.961 37.882C258.383 36.4348 258.37 34.0753 256.932 32.6118C255.494 31.1483 253.175 31.135 251.753 32.5822Z" fill="#D5435D" fill-opacity="0.6"/>
<path d="M241.453 43.0626C240.031 44.5098 240.044 46.8693 241.482 48.3328C242.92 49.7963 245.239 49.8096 246.661 48.3624C248.083 46.9153 248.07 44.5558 246.632 43.0923C245.194 41.6288 242.875 41.6155 241.453 43.0626Z" fill="#D5435D" fill-opacity="0.6"/>
<path d="M231.153 53.5441C229.731 54.9912 229.744 57.3508 231.182 58.8143C232.62 60.2778 234.939 60.291 236.361 58.8439C237.783 57.3968 237.77 55.0372 236.332 53.5737C234.894 52.1102 232.575 52.097 231.153 53.5441Z" fill="#D5435D" fill-opacity="0.6"/>
<path d="M220.85 64.0265C219.428 65.4736 219.441 67.8332 220.88 69.2967C222.318 70.7602 224.637 70.7734 226.059 69.3263C227.481 67.8792 227.468 65.5197 226.03 64.0562C224.591 62.5927 222.273 62.5794 220.85 64.0265Z" fill="#D5435D" fill-opacity="0.6"/>
<path d="M210.551 74.508C209.128 75.9551 209.141 78.3146 210.58 79.7781C212.018 81.2416 214.337 81.2549 215.759 79.8078C217.181 78.3606 217.168 76.0011 215.73 74.5376C214.292 73.0741 211.973 73.0608 210.551 74.508Z" fill="#D5435D" fill-opacity="0.6"/>
<path d="M200.25 84.9884C198.828 86.4356 198.841 88.7951 200.28 90.2586C201.718 91.7221 204.037 91.7354 205.459 90.2882C206.881 88.8411 206.868 86.4816 205.43 85.0181C203.991 83.5546 201.673 83.5413 200.25 84.9884Z" fill="#D5435D" fill-opacity="0.6"/>
<path d="M189.95 95.4689C188.528 96.916 188.541 99.2756 189.98 100.739C191.418 102.203 193.737 102.216 195.159 100.769C196.581 99.3216 196.568 96.962 195.13 95.4985C193.691 94.035 191.373 94.0218 189.95 95.4689Z" fill="#D5435D" fill-opacity="0.6"/>
<path d="M179.65 105.949C178.228 107.396 178.241 109.756 179.68 111.22C181.118 112.683 183.437 112.696 184.859 111.249C186.281 109.802 186.268 107.443 184.83 105.979C183.391 104.516 181.073 104.502 179.65 105.949Z" fill="#D5435D" fill-opacity="0.6"/>
</g>
<rect x="136" y="69" width="280" height="104.292" fill="white"/>
<ellipse cx="478" cy="400.5" rx="128" ry="102.5" fill="#218207" fill-opacity="0.5"/>
<ellipse cx="3.33336" cy="2.59261" rx="3.33336" ry="2.59261" transform="matrix(-0.691434 0.72244 -0.691434 -0.72244 79.4995 58.7871)" fill="#00FF01" fill-opacity="0.2"/>
<ellipse cx="3.33336" cy="2.59261" rx="3.33336" ry="2.59261" transform="matrix(-0.691434 0.72244 -0.691434 -0.72244 68.6346 58.7734)" fill="#00FF01" fill-opacity="0.2"/>
<ellipse cx="3.33336" cy="2.59261" rx="3.33336" ry="2.59261" transform="matrix(-0.691434 0.72244 -0.691434 -0.72244 57.7699 58.7598)" fill="#00FF01" fill-opacity="0.2"/>
<ellipse cx="3.33336" cy="2.59261" rx="3.33336" ry="2.59261" transform="matrix(-0.691434 0.72244 -0.691434 -0.72244 46.905 58.7461)" fill="#00FF01" fill-opacity="0.2"/>
<ellipse cx="3.33336" cy="2.96298" rx="3.33336" ry="2.96298" transform="matrix(-0.691434 0.72244 -0.691434 -0.72244 90.2435 71.9326)" fill="#00FF01" fill-opacity="0.2"/>
<ellipse cx="3.33336" cy="2.59261" rx="3.33336" ry="2.59261" transform="matrix(-0.691434 0.72244 -0.691434 -0.72244 79.4849 71.6523)" fill="#00FF01" fill-opacity="0.2"/>
<ellipse cx="3.33336" cy="2.59261" rx="3.33336" ry="2.59261" transform="matrix(-0.691434 0.72244 -0.691434 -0.72244 68.62 71.6387)" fill="#00FF01" fill-opacity="0.2"/>
<ellipse cx="3.33336" cy="2.59261" rx="3.33336" ry="2.59261" transform="matrix(-0.691434 0.72244 -0.691434 -0.72244 57.755 71.625)" fill="#00FF01" fill-opacity="0.2"/>
<ellipse cx="3.33336" cy="2.59261" rx="3.33336" ry="2.59261" transform="matrix(-0.691434 0.72244 -0.691434 -0.72244 46.8901 71.6113)" fill="#00FF01" fill-opacity="0.2"/>
<ellipse cx="3.33336" cy="2.96298" rx="3.33336" ry="2.96298" transform="matrix(-0.691434 0.72244 -0.691434 -0.72244 36.6433 71.8662)" fill="#00FF01" fill-opacity="0.2"/>
<ellipse cx="3.33336" cy="2.96298" rx="3.33336" ry="2.96298" transform="matrix(-0.691434 0.72244 -0.691434 -0.72244 90.2295 84.041)" fill="#00FF01" fill-opacity="0.2"/>
<ellipse cx="3.33336" cy="2.59261" rx="3.33336" ry="2.59261" transform="matrix(-0.691434 0.72244 -0.691434 -0.72244 79.4708 83.7617)" fill="#00FF01" fill-opacity="0.2"/>
<ellipse cx="3.33336" cy="2.59261" rx="3.33336" ry="2.59261" transform="matrix(-0.691434 0.72244 -0.691434 -0.72244 68.606 83.748)" fill="#00FF01" fill-opacity="0.2"/>
<ellipse cx="3.33336" cy="2.59261" rx="3.33336" ry="2.59261" transform="matrix(-0.691434 0.72244 -0.691434 -0.72244 57.7411 83.7344)" fill="#00FF01" fill-opacity="0.2"/>
<ellipse cx="3.33336" cy="2.59261" rx="3.33336" ry="2.59261" transform="matrix(-0.691434 0.72244 -0.691434 -0.72244 46.8761 83.7207)" fill="#00FF01" fill-opacity="0.2"/>
<ellipse cx="3.33336" cy="2.96298" rx="3.33336" ry="2.96298" transform="matrix(-0.691434 0.72244 -0.691434 -0.72244 36.6294 83.9746)" fill="#00FF01" fill-opacity="0.2"/>
<ellipse cx="3.33336" cy="2.96298" rx="3.33336" ry="2.96298" transform="matrix(-0.691434 0.72244 -0.691434 -0.72244 101.08 96.9219)" fill="#00FF01" fill-opacity="0.2"/>
<ellipse cx="3.33336" cy="2.96298" rx="3.33336" ry="2.96298" transform="matrix(-0.691434 0.72244 -0.691434 -0.72244 90.2146 96.9072)" fill="#00FF01" fill-opacity="0.2"/>
<ellipse cx="3.33336" cy="2.59261" rx="3.33336" ry="2.59261" transform="matrix(-0.691434 0.72244 -0.691434 -0.72244 79.4561 96.627)" fill="#00FF01" fill-opacity="0.2"/>
<ellipse cx="3.33336" cy="2.59261" rx="3.33336" ry="2.59261" transform="matrix(-0.691434 0.72244 -0.691434 -0.72244 68.5911 96.6143)" fill="#00FF01" fill-opacity="0.2"/>
<ellipse cx="3.33336" cy="2.59261" rx="3.33336" ry="2.59261" transform="matrix(-0.691434 0.72244 -0.691434 -0.72244 57.7262 96.5996)" fill="#00FF01" fill-opacity="0.2"/>
<ellipse cx="3.33336" cy="2.59261" rx="3.33336" ry="2.59261" transform="matrix(-0.691434 0.72244 -0.691434 -0.72244 46.8613 96.5859)" fill="#00FF01" fill-opacity="0.2"/>
<ellipse cx="3.33336" cy="2.96298" rx="3.33336" ry="2.96298" transform="matrix(-0.691434 0.72244 -0.691434 -0.72244 36.6145 96.8408)" fill="#00FF01" fill-opacity="0.2"/>
<ellipse cx="3.33336" cy="2.96298" rx="3.33336" ry="2.96298" transform="matrix(-0.691434 0.72244 -0.691434 -0.72244 101.066 109.031)" fill="#00FF01" fill-opacity="0.2"/>
<ellipse cx="3.33336" cy="2.96298" rx="3.33336" ry="2.96298" transform="matrix(-0.691434 0.72244 -0.691434 -0.72244 90.2007 109.017)" fill="#00FF01" fill-opacity="0.2"/>
<ellipse cx="3.33336" cy="2.59261" rx="3.33336" ry="2.59261" transform="matrix(-0.691434 0.72244 -0.691434 -0.72244 79.442 108.736)" fill="#00FF01" fill-opacity="0.2"/>
<ellipse cx="3.33336" cy="2.59261" rx="3.33336" ry="2.59261" transform="matrix(-0.691434 0.72244 -0.691434 -0.72244 68.5771 108.723)" fill="#00FF01" fill-opacity="0.2"/>
<ellipse cx="3.33336" cy="2.59261" rx="3.33336" ry="2.59261" transform="matrix(-0.691434 0.72244 -0.691434 -0.72244 57.7123 108.709)" fill="#00FF01" fill-opacity="0.2"/>
<ellipse cx="3.33336" cy="2.59261" rx="3.33336" ry="2.59261" transform="matrix(-0.691434 0.72244 -0.691434 -0.72244 46.8473 108.694)" fill="#00FF01" fill-opacity="0.2"/>
<ellipse cx="3.33336" cy="2.96298" rx="3.33336" ry="2.96298" transform="matrix(-0.691434 0.72244 -0.691434 -0.72244 36.6006 108.949)" fill="#00FF01" fill-opacity="0.2"/>
<ellipse cx="3.33336" cy="2.96298" rx="3.33336" ry="2.96298" transform="matrix(-0.691434 0.72244 -0.691434 -0.72244 101.051 121.896)" fill="#00FF01" fill-opacity="0.2"/>
<ellipse cx="3.33336" cy="2.96298" rx="3.33336" ry="2.96298" transform="matrix(-0.691434 0.72244 -0.691434 -0.72244 90.1858 121.882)" fill="#00FF01" fill-opacity="0.2"/>
<ellipse cx="3.33336" cy="2.59261" rx="3.33336" ry="2.59261" transform="matrix(-0.691434 0.72244 -0.691434 -0.72244 79.4272 121.602)" fill="#00FF01" fill-opacity="0.2"/>
<ellipse cx="3.33336" cy="2.59261" rx="3.33336" ry="2.59261" transform="matrix(-0.691434 0.72244 -0.691434 -0.72244 68.5623 121.589)" fill="#00FF01" fill-opacity="0.2"/>
<ellipse cx="3.33336" cy="2.59261" rx="3.33336" ry="2.59261" transform="matrix(-0.691434 0.72244 -0.691434 -0.72244 57.6974 121.574)" fill="#00FF01" fill-opacity="0.2"/>
<ellipse cx="3.33336" cy="2.59261" rx="3.33336" ry="2.59261" transform="matrix(-0.691434 0.72244 -0.691434 -0.72244 46.8325 121.561)" fill="#00FF01" fill-opacity="0.2"/>
<ellipse cx="3.33336" cy="2.96298" rx="3.33336" ry="2.96298" transform="matrix(-0.691434 0.72244 -0.691434 -0.72244 36.5859 121.815)" fill="#00FF01" fill-opacity="0.2"/>
<ellipse cx="3.33336" cy="2.96298" rx="3.33336" ry="2.96298" transform="matrix(-0.691434 0.72244 -0.691434 -0.72244 101.037 134.006)" fill="#00FF01" fill-opacity="0.2"/>
<ellipse cx="3.33336" cy="2.96298" rx="3.33336" ry="2.96298" transform="matrix(-0.691434 0.72244 -0.691434 -0.72244 90.1719 133.991)" fill="#00FF01" fill-opacity="0.2"/>
<ellipse cx="3.33336" cy="2.59261" rx="3.33336" ry="2.59261" transform="matrix(-0.691434 0.72244 -0.691434 -0.72244 79.4132 133.711)" fill="#00FF01" fill-opacity="0.2"/>
<ellipse cx="3.33336" cy="2.59261" rx="3.33336" ry="2.59261" transform="matrix(-0.691434 0.72244 -0.691434 -0.72244 68.5483 133.697)" fill="#00FF01" fill-opacity="0.2"/>
<ellipse cx="3.33336" cy="2.59261" rx="3.33336" ry="2.59261" transform="matrix(-0.691434 0.72244 -0.691434 -0.72244 57.6835 133.684)" fill="#00FF01" fill-opacity="0.2"/>
<ellipse cx="3.33336" cy="2.59261" rx="3.33336" ry="2.59261" transform="matrix(-0.691434 0.72244 -0.691434 -0.72244 46.8185 133.669)" fill="#00FF01" fill-opacity="0.2"/>
<ellipse cx="3.33336" cy="2.96298" rx="3.33336" ry="2.96298" transform="matrix(-0.691434 0.72244 -0.691434 -0.72244 36.5719 133.924)" fill="#00FF01" fill-opacity="0.2"/>
<ellipse cx="3.33336" cy="2.96298" rx="3.33336" ry="2.96298" transform="matrix(-0.691434 0.72244 -0.691434 -0.72244 90.157 146.856)" fill="#00FF01" fill-opacity="0.2"/>
<ellipse cx="3.33336" cy="2.59261" rx="3.33336" ry="2.59261" transform="matrix(-0.691434 0.72244 -0.691434 -0.72244 79.3984 146.576)" fill="#00FF01" fill-opacity="0.2"/>
<ellipse cx="3.33336" cy="2.59261" rx="3.33336" ry="2.59261" transform="matrix(-0.691434 0.72244 -0.691434 -0.72244 68.5334 146.563)" fill="#00FF01" fill-opacity="0.2"/>
<ellipse cx="3.33336" cy="2.59261" rx="3.33336" ry="2.59261" transform="matrix(-0.691434 0.72244 -0.691434 -0.72244 57.6686 146.549)" fill="#00FF01" fill-opacity="0.2"/>
<ellipse cx="3.33336" cy="2.59261" rx="3.33336" ry="2.59261" transform="matrix(-0.691434 0.72244 -0.691434 -0.72244 46.8037 146.535)" fill="#00FF01" fill-opacity="0.2"/>
<ellipse cx="3.33336" cy="2.96298" rx="3.33336" ry="2.96298" transform="matrix(-0.691434 0.72244 -0.691434 -0.72244 36.557 146.79)" fill="#00FF01" fill-opacity="0.2"/>
<ellipse cx="3.33336" cy="2.96298" rx="3.33336" ry="2.96298" transform="matrix(-0.691434 0.72244 -0.691434 -0.72244 25.7496 96.8262)" fill="#00FF01" fill-opacity="0.2"/>
<ellipse cx="3.33336" cy="2.96298" rx="3.33336" ry="2.96298" transform="matrix(-0.691434 0.72244 -0.691434 -0.72244 25.7356 108.935)" fill="#00FF01" fill-opacity="0.2"/>
<ellipse cx="3.33336" cy="2.96298" rx="3.33336" ry="2.96298" transform="matrix(-0.691434 0.72244 -0.691434 -0.72244 25.7209 121.801)" fill="#00FF01" fill-opacity="0.2"/>
<ellipse cx="3.33336" cy="2.96298" rx="3.33336" ry="2.96298" transform="matrix(-0.691434 0.72244 -0.691434 -0.72244 25.707 133.909)" fill="#00FF01" fill-opacity="0.2"/>
<ellipse cx="3.33336" cy="2.96298" rx="3.33336" ry="2.96298" transform="matrix(-0.691434 0.72244 -0.691434 -0.72244 90.1431 158.966)" fill="#00FF01" fill-opacity="0.2"/>
<ellipse cx="3.33336" cy="2.59261" rx="3.33336" ry="2.59261" transform="matrix(-0.691434 0.72244 -0.691434 -0.72244 79.3844 158.686)" fill="#00FF01" fill-opacity="0.2"/>
<ellipse cx="3.33336" cy="2.59261" rx="3.33336" ry="2.59261" transform="matrix(-0.691434 0.72244 -0.691434 -0.72244 68.5195 158.672)" fill="#00FF01" fill-opacity="0.2"/>
<ellipse cx="3.33336" cy="2.59261" rx="3.33336" ry="2.59261" transform="matrix(-0.691434 0.72244 -0.691434 -0.72244 57.6545 158.658)" fill="#00FF01" fill-opacity="0.2"/>
<ellipse cx="3.33336" cy="2.59261" rx="3.33336" ry="2.59261" transform="matrix(-0.691434 0.72244 -0.691434 -0.72244 46.7897 158.644)" fill="#00FF01" fill-opacity="0.2"/>
<ellipse cx="3.33336" cy="2.96298" rx="3.33336" ry="2.96298" transform="matrix(-0.691434 0.72244 -0.691434 -0.72244 36.5431 158.899)" fill="#00FF01" fill-opacity="0.2"/>
<ellipse cx="3.33336" cy="2.59261" rx="3.33336" ry="2.59261" transform="matrix(-0.691434 0.72244 -0.691434 -0.72244 79.3695 171.551)" fill="#00FF01" fill-opacity="0.2"/>
<ellipse cx="3.33336" cy="2.59261" rx="3.33336" ry="2.59261" transform="matrix(-0.691434 0.72244 -0.691434 -0.72244 68.5046 171.538)" fill="#00FF01" fill-opacity="0.2"/>
<ellipse cx="3.33336" cy="2.59261" rx="3.33336" ry="2.59261" transform="matrix(-0.691434 0.72244 -0.691434 -0.72244 57.6398 171.523)" fill="#00FF01" fill-opacity="0.2"/>
<ellipse cx="3.33336" cy="2.59261" rx="3.33336" ry="2.59261" transform="matrix(-0.691434 0.72244 -0.691434 -0.72244 46.7748 171.51)" fill="#00FF01" fill-opacity="0.2"/>
<g clip-path="url(#clip1_192_1684)">
<path d="M167.552 461.023C165.051 461.023 163.024 463.051 163.024 465.552C163.024 468.053 165.051 470.08 167.552 470.08C170.053 470.08 172.08 468.053 172.08 465.552C172.08 463.051 170.053 461.023 167.552 461.023Z" fill="#E1EAF1"/>
<path d="M149.439 461.023C146.938 461.023 144.911 463.051 144.911 465.552C144.911 468.053 146.938 470.08 149.439 470.08C151.94 470.08 153.967 468.053 153.967 465.552C153.967 463.051 151.94 461.023 149.439 461.023Z" fill="#E1EAF1"/>
<path d="M131.325 461.023C128.824 461.023 126.797 463.051 126.797 465.552C126.797 468.053 128.824 470.08 131.325 470.08C133.826 470.08 135.853 468.053 135.853 465.552C135.853 463.051 133.826 461.023 131.325 461.023Z" fill="#E1EAF1"/>
<path d="M113.212 461.023C110.711 461.023 108.684 463.051 108.684 465.552C108.684 468.053 110.711 470.08 113.212 470.08C115.713 470.08 117.74 468.053 117.74 465.552C117.74 463.051 115.713 461.023 113.212 461.023Z" fill="#E1EAF1"/>
<path d="M95.0988 461.023C92.5978 461.023 90.5703 463.051 90.5703 465.552C90.5703 468.053 92.5978 470.08 95.0988 470.08C97.5998 470.08 99.6272 468.053 99.6272 465.552C99.6272 463.051 97.5998 461.023 95.0988 461.023Z" fill="#E1EAF1"/>
<path d="M76.9816 461.023C74.4806 461.023 72.4531 463.051 72.4531 465.552C72.4531 468.053 74.4806 470.08 76.9816 470.08C79.4826 470.08 81.51 468.053 81.51 465.552C81.51 463.051 79.4826 461.023 76.9816 461.023Z" fill="#E1EAF1"/>
<path d="M58.8683 461.023C56.3673 461.023 54.3399 463.051 54.3399 465.552C54.3399 468.053 56.3673 470.08 58.8683 470.08C61.3693 470.08 63.3967 468.053 63.3967 465.552C63.3967 463.051 61.3693 461.023 58.8683 461.023Z" fill="#E1EAF1"/>
<path d="M40.755 461.023C38.254 461.023 36.2266 463.051 36.2266 465.552C36.2266 468.053 38.254 470.08 40.755 470.08C43.256 470.08 45.2834 468.053 45.2834 465.552C45.2834 463.051 43.256 461.023 40.755 461.023Z" fill="#E1EAF1"/>
<path d="M22.6417 461.023C20.1408 461.023 18.1133 463.051 18.1133 465.552C18.1133 468.053 20.1408 470.08 22.6417 470.08C25.1427 470.08 27.1702 468.053 27.1702 465.552C27.1702 463.051 25.1427 461.023 22.6417 461.023Z" fill="#E1EAF1"/>
<path d="M4.52845 461.023C2.02747 461.023 2.47955e-05 463.051 2.47955e-05 465.552C2.47955e-05 468.053 2.02747 470.08 4.52845 470.08C7.02944 470.08 9.05688 468.053 9.05688 465.552C9.05688 463.051 7.02944 461.023 4.52845 461.023Z" fill="#E1EAF1"/>
<path d="M167.552 442.91C165.051 442.91 163.024 444.937 163.024 447.438C163.024 449.939 165.051 451.967 167.552 451.967C170.053 451.967 172.08 449.939 172.08 447.438C172.08 444.937 170.053 442.91 167.552 442.91Z" fill="#E1EAF1"/>
<path d="M149.439 442.91C146.938 442.91 144.911 444.937 144.911 447.438C144.911 449.939 146.938 451.967 149.439 451.967C151.94 451.967 153.967 449.939 153.967 447.438C153.967 444.937 151.94 442.91 149.439 442.91Z" fill="#E1EAF1"/>
<path d="M131.325 442.91C128.824 442.91 126.797 444.937 126.797 447.438C126.797 449.939 128.824 451.967 131.325 451.967C133.826 451.967 135.853 449.939 135.853 447.438C135.853 444.937 133.826 442.91 131.325 442.91Z" fill="#E1EAF1"/>
<path d="M113.212 442.91C110.711 442.91 108.684 444.937 108.684 447.438C108.684 449.939 110.711 451.967 113.212 451.967C115.713 451.967 117.74 449.939 117.74 447.438C117.74 444.937 115.713 442.91 113.212 442.91Z" fill="#E1EAF1"/>
<path d="M95.0988 442.91C92.5978 442.91 90.5703 444.937 90.5703 447.438C90.5703 449.939 92.5978 451.967 95.0988 451.967C97.5998 451.967 99.6272 449.939 99.6272 447.438C99.6272 444.937 97.5998 442.91 95.0988 442.91Z" fill="#E1EAF1"/>
<path d="M76.9816 442.91C74.4806 442.91 72.4531 444.937 72.4531 447.438C72.4531 449.939 74.4806 451.967 76.9816 451.967C79.4826 451.967 81.51 449.939 81.51 447.438C81.51 444.937 79.4826 442.91 76.9816 442.91Z" fill="#E1EAF1"/>
<path d="M58.8683 442.91C56.3673 442.91 54.3399 444.937 54.3399 447.438C54.3399 449.939 56.3673 451.967 58.8683 451.967C61.3693 451.967 63.3967 449.939 63.3967 447.438C63.3967 444.937 61.3693 442.91 58.8683 442.91Z" fill="#E1EAF1"/>
<path d="M40.755 442.91C38.254 442.91 36.2266 444.937 36.2266 447.438C36.2266 449.939 38.254 451.967 40.755 451.967C43.256 451.967 45.2834 449.939 45.2834 447.438C45.2834 444.937 43.256 442.91 40.755 442.91Z" fill="#E1EAF1"/>
<path d="M22.6417 442.91C20.1408 442.91 18.1133 444.937 18.1133 447.438C18.1133 449.939 20.1408 451.967 22.6417 451.967C25.1427 451.967 27.1702 449.939 27.1702 447.438C27.1702 444.937 25.1427 442.91 22.6417 442.91Z" fill="#E1EAF1"/>
<path d="M4.52845 442.91C2.02747 442.91 2.47955e-05 444.937 2.47955e-05 447.438C2.47955e-05 449.939 2.02747 451.967 4.52845 451.967C7.02944 451.967 9.05688 449.939 9.05688 447.438C9.05688 444.937 7.02944 442.91 4.52845 442.91Z" fill="#E1EAF1"/>
<path d="M167.552 424.797C165.051 424.797 163.024 426.824 163.024 429.325C163.024 431.826 165.051 433.854 167.552 433.854C170.053 433.854 172.08 431.826 172.08 429.325C172.08 426.824 170.053 424.797 167.552 424.797Z" fill="#E1EAF1"/>
<path d="M149.439 424.797C146.938 424.797 144.911 426.824 144.911 429.325C144.911 431.826 146.938 433.854 149.439 433.854C151.94 433.854 153.967 431.826 153.967 429.325C153.967 426.824 151.94 424.797 149.439 424.797Z" fill="#E1EAF1"/>
<path d="M131.325 424.797C128.824 424.797 126.797 426.824 126.797 429.325C126.797 431.826 128.824 433.854 131.325 433.854C133.826 433.854 135.853 431.826 135.853 429.325C135.853 426.824 133.826 424.797 131.325 424.797Z" fill="#E1EAF1"/>
<path d="M113.212 424.797C110.711 424.797 108.684 426.824 108.684 429.325C108.684 431.826 110.711 433.854 113.212 433.854C115.713 433.854 117.74 431.826 117.74 429.325C117.74 426.824 115.713 424.797 113.212 424.797Z" fill="#E1EAF1"/>
<path d="M95.0988 424.797C92.5978 424.797 90.5703 426.824 90.5703 429.325C90.5703 431.826 92.5978 433.854 95.0988 433.854C97.5998 433.854 99.6272 431.826 99.6272 429.325C99.6272 426.824 97.5998 424.797 95.0988 424.797Z" fill="#E1EAF1"/>
<path d="M76.9816 424.797C74.4806 424.797 72.4531 426.824 72.4531 429.325C72.4531 431.826 74.4806 433.854 76.9816 433.854C79.4826 433.854 81.51 431.826 81.51 429.325C81.51 426.824 79.4826 424.797 76.9816 424.797Z" fill="#E1EAF1"/>
<path d="M58.8683 424.797C56.3673 424.797 54.3399 426.824 54.3399 429.325C54.3399 431.826 56.3673 433.854 58.8683 433.854C61.3693 433.854 63.3967 431.826 63.3967 429.325C63.3967 426.824 61.3693 424.797 58.8683 424.797Z" fill="#E1EAF1"/>
<path d="M40.755 424.797C38.254 424.797 36.2266 426.824 36.2266 429.325C36.2266 431.826 38.254 433.854 40.755 433.854C43.256 433.854 45.2834 431.826 45.2834 429.325C45.2834 426.824 43.256 424.797 40.755 424.797Z" fill="#E1EAF1"/>
<path d="M22.6417 424.797C20.1408 424.797 18.1133 426.824 18.1133 429.325C18.1133 431.826 20.1408 433.854 22.6417 433.854C25.1427 433.854 27.1702 431.826 27.1702 429.325C27.1702 426.824 25.1427 424.797 22.6417 424.797Z" fill="#E1EAF1"/>
<path d="M4.52845 424.797C2.02747 424.797 2.47955e-05 426.824 2.47955e-05 429.325C2.47955e-05 431.826 2.02747 433.854 4.52845 433.854C7.02944 433.854 9.05688 431.826 9.05688 429.325C9.05688 426.824 7.02944 424.797 4.52845 424.797Z" fill="#E1EAF1"/>
<path d="M167.552 406.681C165.051 406.681 163.024 408.709 163.024 411.21C163.024 413.711 165.051 415.738 167.552 415.738C170.053 415.738 172.08 413.711 172.08 411.21C172.08 408.709 170.053 406.681 167.552 406.681Z" fill="#E1EAF1"/>
<path d="M149.439 406.681C146.938 406.681 144.911 408.709 144.911 411.21C144.911 413.711 146.938 415.738 149.439 415.738C151.94 415.738 153.967 413.711 153.967 411.21C153.967 408.709 151.94 406.681 149.439 406.681Z" fill="#E1EAF1"/>
<path d="M131.325 406.681C128.824 406.681 126.797 408.709 126.797 411.21C126.797 413.711 128.824 415.738 131.325 415.738C133.826 415.738 135.853 413.711 135.853 411.21C135.853 408.709 133.826 406.681 131.325 406.681Z" fill="#E1EAF1"/>
<path d="M113.212 406.681C110.711 406.681 108.684 408.709 108.684 411.21C108.684 413.711 110.711 415.738 113.212 415.738C115.713 415.738 117.74 413.711 117.74 411.21C117.74 408.709 115.713 406.681 113.212 406.681Z" fill="#E1EAF1"/>
<path d="M95.0988 406.681C92.5978 406.681 90.5703 408.709 90.5703 411.21C90.5703 413.711 92.5978 415.738 95.0988 415.738C97.5998 415.738 99.6272 413.711 99.6272 411.21C99.6272 408.709 97.5998 406.681 95.0988 406.681Z" fill="#E1EAF1"/>
<path d="M76.9816 406.681C74.4806 406.681 72.4531 408.709 72.4531 411.21C72.4531 413.711 74.4806 415.738 76.9816 415.738C79.4826 415.738 81.51 413.711 81.51 411.21C81.51 408.709 79.4826 406.681 76.9816 406.681Z" fill="#E1EAF1"/>
<path d="M58.8683 406.681C56.3673 406.681 54.3399 408.709 54.3399 411.21C54.3399 413.711 56.3673 415.738 58.8683 415.738C61.3693 415.738 63.3967 413.711 63.3967 411.21C63.3967 408.709 61.3693 406.681 58.8683 406.681Z" fill="#E1EAF1"/>
<path d="M40.755 406.681C38.254 406.681 36.2266 408.709 36.2266 411.21C36.2266 413.711 38.254 415.738 40.755 415.738C43.256 415.738 45.2834 413.711 45.2834 411.21C45.2834 408.709 43.256 406.681 40.755 406.681Z" fill="#E1EAF1"/>
<path d="M22.6417 406.681C20.1408 406.681 18.1133 408.709 18.1133 411.21C18.1133 413.711 20.1408 415.738 22.6417 415.738C25.1427 415.738 27.1702 413.711 27.1702 411.21C27.1702 408.709 25.1427 406.681 22.6417 406.681Z" fill="#E1EAF1"/>
<path d="M4.52845 406.681C2.02747 406.681 2.47955e-05 408.709 2.47955e-05 411.21C2.47955e-05 413.711 2.02747 415.738 4.52845 415.738C7.02944 415.738 9.05688 413.711 9.05688 411.21C9.05688 408.709 7.02944 406.681 4.52845 406.681Z" fill="#E1EAF1"/>
<path d="M167.552 388.568C165.051 388.568 163.024 390.596 163.024 393.097C163.024 395.598 165.051 397.625 167.552 397.625C170.053 397.625 172.08 395.598 172.08 393.097C172.08 390.596 170.053 388.568 167.552 388.568Z" fill="#E1EAF1"/>
<path d="M149.439 388.568C146.938 388.568 144.911 390.596 144.911 393.097C144.911 395.598 146.938 397.625 149.439 397.625C151.94 397.625 153.967 395.598 153.967 393.097C153.967 390.596 151.94 388.568 149.439 388.568Z" fill="#E1EAF1"/>
<path d="M131.325 388.568C128.824 388.568 126.797 390.596 126.797 393.097C126.797 395.598 128.824 397.625 131.325 397.625C133.826 397.625 135.853 395.598 135.853 393.097C135.853 390.596 133.826 388.568 131.325 388.568Z" fill="#E1EAF1"/>
<path d="M113.212 388.568C110.711 388.568 108.684 390.596 108.684 393.097C108.684 395.598 110.711 397.625 113.212 397.625C115.713 397.625 117.74 395.598 117.74 393.097C117.74 390.596 115.713 388.568 113.212 388.568Z" fill="#E1EAF1"/>
<path d="M95.0988 388.568C92.5978 388.568 90.5703 390.596 90.5703 393.097C90.5703 395.598 92.5978 397.625 95.0988 397.625C97.5998 397.625 99.6272 395.598 99.6272 393.097C99.6272 390.596 97.5998 388.568 95.0988 388.568Z" fill="#E1EAF1"/>
<path d="M76.9816 388.568C74.4806 388.568 72.4531 390.596 72.4531 393.097C72.4531 395.598 74.4806 397.625 76.9816 397.625C79.4826 397.625 81.51 395.598 81.51 393.097C81.51 390.596 79.4826 388.568 76.9816 388.568Z" fill="#E1EAF1"/>
<path d="M58.8683 388.568C56.3673 388.568 54.3399 390.596 54.3399 393.097C54.3399 395.598 56.3673 397.625 58.8683 397.625C61.3693 397.625 63.3967 395.598 63.3967 393.097C63.3967 390.596 61.3693 388.568 58.8683 388.568Z" fill="#E1EAF1"/>
<path d="M40.755 388.568C38.254 388.568 36.2266 390.596 36.2266 393.097C36.2266 395.598 38.254 397.625 40.755 397.625C43.256 397.625 45.2834 395.598 45.2834 393.097C45.2834 390.596 43.256 388.568 40.755 388.568Z" fill="#E1EAF1"/>
<path d="M22.6417 388.568C20.1408 388.568 18.1133 390.596 18.1133 393.097C18.1133 395.598 20.1408 397.625 22.6417 397.625C25.1427 397.625 27.1702 395.598 27.1702 393.097C27.1702 390.596 25.1427 388.568 22.6417 388.568Z" fill="#E1EAF1"/>
<path d="M4.52845 388.568C2.02747 388.568 2.47955e-05 390.596 2.47955e-05 393.097C2.47955e-05 395.598 2.02747 397.625 4.52845 397.625C7.02944 397.625 9.05688 395.598 9.05688 393.097C9.05688 390.596 7.02944 388.568 4.52845 388.568Z" fill="#E1EAF1"/>
<path d="M167.552 370.455C165.051 370.455 163.024 372.482 163.024 374.983C163.024 377.484 165.051 379.512 167.552 379.512C170.053 379.512 172.08 377.484 172.08 374.983C172.08 372.482 170.053 370.455 167.552 370.455Z" fill="#E1EAF1"/>
<path d="M149.439 370.455C146.938 370.455 144.911 372.482 144.911 374.983C144.911 377.484 146.938 379.512 149.439 379.512C151.94 379.512 153.967 377.484 153.967 374.983C153.967 372.482 151.94 370.455 149.439 370.455Z" fill="#E1EAF1"/>
<path d="M131.325 370.455C128.824 370.455 126.797 372.482 126.797 374.983C126.797 377.484 128.824 379.512 131.325 379.512C133.826 379.512 135.853 377.484 135.853 374.983C135.853 372.482 133.826 370.455 131.325 370.455Z" fill="#E1EAF1"/>
<path d="M113.212 370.455C110.711 370.455 108.684 372.482 108.684 374.983C108.684 377.484 110.711 379.512 113.212 379.512C115.713 379.512 117.74 377.484 117.74 374.983C117.74 372.482 115.713 370.455 113.212 370.455Z" fill="#E1EAF1"/>
<path d="M95.0988 370.455C92.5978 370.455 90.5703 372.482 90.5703 374.983C90.5703 377.484 92.5978 379.512 95.0988 379.512C97.5998 379.512 99.6272 377.484 99.6272 374.983C99.6272 372.482 97.5998 370.455 95.0988 370.455Z" fill="#E1EAF1"/>
<path d="M76.9816 370.455C74.4806 370.455 72.4531 372.482 72.4531 374.983C72.4531 377.484 74.4806 379.512 76.9816 379.512C79.4826 379.512 81.51 377.484 81.51 374.983C81.51 372.482 79.4826 370.455 76.9816 370.455Z" fill="#E1EAF1"/>
<path d="M58.8683 370.455C56.3673 370.455 54.3399 372.482 54.3399 374.983C54.3399 377.484 56.3673 379.512 58.8683 379.512C61.3693 379.512 63.3967 377.484 63.3967 374.983C63.3967 372.482 61.3693 370.455 58.8683 370.455Z" fill="#E1EAF1"/>
<path d="M40.755 370.455C38.254 370.455 36.2266 372.482 36.2266 374.983C36.2266 377.484 38.254 379.512 40.755 379.512C43.256 379.512 45.2834 377.484 45.2834 374.983C45.2834 372.482 43.256 370.455 40.755 370.455Z" fill="#E1EAF1"/>
<path d="M22.6417 370.455C20.1408 370.455 18.1133 372.482 18.1133 374.983C18.1133 377.484 20.1408 379.512 22.6417 379.512C25.1427 379.512 27.1702 377.484 27.1702 374.983C27.1702 372.482 25.1427 370.455 22.6417 370.455Z" fill="#E1EAF1"/>
<path d="M4.52845 370.455C2.02747 370.455 2.47955e-05 372.482 2.47955e-05 374.983C2.47955e-05 377.484 2.02747 379.512 4.52845 379.512C7.02944 379.512 9.05688 377.484 9.05688 374.983C9.05688 372.482 7.02944 370.455 4.52845 370.455Z" fill="#E1EAF1"/>
<path d="M167.552 352.342C165.051 352.342 163.024 354.369 163.024 356.87C163.024 359.371 165.051 361.398 167.552 361.398C170.053 361.398 172.08 359.371 172.08 356.87C172.08 354.369 170.053 352.342 167.552 352.342Z" fill="#E1EAF1"/>
<path d="M149.439 352.342C146.938 352.342 144.911 354.369 144.911 356.87C144.911 359.371 146.938 361.398 149.439 361.398C151.94 361.398 153.967 359.371 153.967 356.87C153.967 354.369 151.94 352.342 149.439 352.342Z" fill="#E1EAF1"/>
<path d="M131.325 352.342C128.824 352.342 126.797 354.369 126.797 356.87C126.797 359.371 128.824 361.398 131.325 361.398C133.826 361.398 135.853 359.371 135.853 356.87C135.853 354.369 133.826 352.342 131.325 352.342Z" fill="#E1EAF1"/>
<path d="M113.212 352.342C110.711 352.342 108.684 354.369 108.684 356.87C108.684 359.371 110.711 361.398 113.212 361.398C115.713 361.398 117.74 359.371 117.74 356.87C117.74 354.369 115.713 352.342 113.212 352.342Z" fill="#E1EAF1"/>
<path d="M95.0988 352.342C92.5978 352.342 90.5703 354.369 90.5703 356.87C90.5703 359.371 92.5978 361.398 95.0988 361.398C97.5998 361.398 99.6272 359.371 99.6272 356.87C99.6272 354.369 97.5998 352.342 95.0988 352.342Z" fill="#E1EAF1"/>
<path d="M76.9816 352.342C74.4806 352.342 72.4531 354.369 72.4531 356.87C72.4531 359.371 74.4806 361.398 76.9816 361.398C79.4826 361.398 81.51 359.371 81.51 356.87C81.51 354.369 79.4826 352.342 76.9816 352.342Z" fill="#E1EAF1"/>
<path d="M58.8683 352.342C56.3673 352.342 54.3399 354.369 54.3399 356.87C54.3399 359.371 56.3673 361.398 58.8683 361.398C61.3693 361.398 63.3967 359.371 63.3967 356.87C63.3967 354.369 61.3693 352.342 58.8683 352.342Z" fill="#E1EAF1"/>
<path d="M40.755 352.342C38.254 352.342 36.2266 354.369 36.2266 356.87C36.2266 359.371 38.254 361.398 40.755 361.398C43.256 361.398 45.2834 359.371 45.2834 356.87C45.2834 354.369 43.256 352.342 40.755 352.342Z" fill="#E1EAF1"/>
<path d="M22.6417 352.342C20.1408 352.342 18.1133 354.369 18.1133 356.87C18.1133 359.371 20.1408 361.398 22.6417 361.398C25.1427 361.398 27.1702 359.371 27.1702 356.87C27.1702 354.369 25.1427 352.342 22.6417 352.342Z" fill="#E1EAF1"/>
<path d="M4.52845 352.342C2.02747 352.342 2.47955e-05 354.369 2.47955e-05 356.87C2.47955e-05 359.371 2.02747 361.398 4.52845 361.398C7.02944 361.398 9.05688 359.371 9.05688 356.87C9.05688 354.369 7.02944 352.342 4.52845 352.342Z" fill="#E1EAF1"/>
<path d="M167.552 334.226C165.051 334.226 163.024 336.254 163.024 338.755C163.024 341.256 165.051 343.283 167.552 343.283C170.053 343.283 172.08 341.256 172.08 338.755C172.08 336.254 170.053 334.226 167.552 334.226Z" fill="#E1EAF1"/>
<path d="M149.439 334.226C146.938 334.226 144.911 336.254 144.911 338.755C144.911 341.256 146.938 343.283 149.439 343.283C151.94 343.283 153.967 341.256 153.967 338.755C153.967 336.254 151.94 334.226 149.439 334.226Z" fill="#E1EAF1"/>
<path d="M131.325 334.226C128.824 334.226 126.797 336.254 126.797 338.755C126.797 341.256 128.824 343.283 131.325 343.283C133.826 343.283 135.853 341.256 135.853 338.755C135.853 336.254 133.826 334.226 131.325 334.226Z" fill="#E1EAF1"/>
<path d="M113.212 334.226C110.711 334.226 108.684 336.254 108.684 338.755C108.684 341.256 110.711 343.283 113.212 343.283C115.713 343.283 117.74 341.256 117.74 338.755C117.74 336.254 115.713 334.226 113.212 334.226Z" fill="#E1EAF1"/>
<path d="M95.0988 334.226C92.5978 334.226 90.5703 336.254 90.5703 338.755C90.5703 341.256 92.5978 343.283 95.0988 343.283C97.5998 343.283 99.6272 341.256 99.6272 338.755C99.6272 336.254 97.5998 334.226 95.0988 334.226Z" fill="#E1EAF1"/>
<path d="M76.9816 334.226C74.4806 334.226 72.4531 336.254 72.4531 338.755C72.4531 341.256 74.4806 343.283 76.9816 343.283C79.4826 343.283 81.51 341.256 81.51 338.755C81.51 336.254 79.4826 334.226 76.9816 334.226Z" fill="#E1EAF1"/>
<path d="M58.8683 334.226C56.3673 334.226 54.3399 336.254 54.3399 338.755C54.3399 341.256 56.3673 343.283 58.8683 343.283C61.3693 343.283 63.3967 341.256 63.3967 338.755C63.3967 336.254 61.3693 334.226 58.8683 334.226Z" fill="#E1EAF1"/>
<path d="M40.755 334.226C38.254 334.226 36.2266 336.254 36.2266 338.755C36.2266 341.256 38.254 343.283 40.755 343.283C43.256 343.283 45.2834 341.256 45.2834 338.755C45.2834 336.254 43.256 334.226 40.755 334.226Z" fill="#E1EAF1"/>
<path d="M22.6417 334.226C20.1408 334.226 18.1133 336.254 18.1133 338.755C18.1133 341.256 20.1408 343.283 22.6417 343.283C25.1427 343.283 27.1702 341.256 27.1702 338.755C27.1702 336.254 25.1427 334.226 22.6417 334.226Z" fill="#E1EAF1"/>
<path d="M4.52845 334.226C2.02747 334.226 2.47955e-05 336.254 2.47955e-05 338.755C2.47955e-05 341.256 2.02747 343.283 4.52845 343.283C7.02944 343.283 9.05688 341.256 9.05688 338.755C9.05688 336.254 7.02944 334.226 4.52845 334.226Z" fill="#E1EAF1"/>
<path d="M167.552 316.113C165.051 316.113 163.024 318.141 163.024 320.641C163.024 323.142 165.051 325.17 167.552 325.17C170.053 325.17 172.08 323.142 172.08 320.641C172.08 318.141 170.053 316.113 167.552 316.113Z" fill="#E1EAF1"/>
<path d="M149.439 316.113C146.938 316.113 144.911 318.141 144.911 320.641C144.911 323.142 146.938 325.17 149.439 325.17C151.94 325.17 153.967 323.142 153.967 320.641C153.967 318.141 151.94 316.113 149.439 316.113Z" fill="#E1EAF1"/>
<path d="M131.325 316.113C128.824 316.113 126.797 318.141 126.797 320.641C126.797 323.142 128.824 325.17 131.325 325.17C133.826 325.17 135.853 323.142 135.853 320.641C135.853 318.141 133.826 316.113 131.325 316.113Z" fill="#E1EAF1"/>
<path d="M113.212 316.113C110.711 316.113 108.684 318.141 108.684 320.641C108.684 323.142 110.711 325.17 113.212 325.17C115.713 325.17 117.74 323.142 117.74 320.641C117.74 318.141 115.713 316.113 113.212 316.113Z" fill="#E1EAF1"/>
<path d="M95.0988 316.113C92.5978 316.113 90.5703 318.141 90.5703 320.641C90.5703 323.142 92.5978 325.17 95.0988 325.17C97.5998 325.17 99.6272 323.142 99.6272 320.641C99.6272 318.141 97.5998 316.113 95.0988 316.113Z" fill="#E1EAF1"/>
<path d="M76.9816 316.113C74.4806 316.113 72.4531 318.141 72.4531 320.641C72.4531 323.142 74.4806 325.17 76.9816 325.17C79.4826 325.17 81.51 323.142 81.51 320.641C81.51 318.141 79.4826 316.113 76.9816 316.113Z" fill="#E1EAF1"/>
<path d="M58.8683 316.113C56.3673 316.113 54.3399 318.141 54.3399 320.641C54.3399 323.142 56.3673 325.17 58.8683 325.17C61.3693 325.17 63.3967 323.142 63.3967 320.641C63.3967 318.141 61.3693 316.113 58.8683 316.113Z" fill="#E1EAF1"/>
<path d="M40.755 316.113C38.254 316.113 36.2266 318.141 36.2266 320.641C36.2266 323.142 38.254 325.17 40.755 325.17C43.256 325.17 45.2834 323.142 45.2834 320.641C45.2834 318.141 43.256 316.113 40.755 316.113Z" fill="#E1EAF1"/>
<path d="M22.6417 316.113C20.1408 316.113 18.1133 318.141 18.1133 320.641C18.1133 323.142 20.1408 325.17 22.6417 325.17C25.1427 325.17 27.1702 323.142 27.1702 320.641C27.1702 318.141 25.1427 316.113 22.6417 316.113Z" fill="#E1EAF1"/>
<path d="M4.52845 316.113C2.02747 316.113 2.47955e-05 318.141 2.47955e-05 320.641C2.47955e-05 323.142 2.02747 325.17 4.52845 325.17C7.02944 325.17 9.05688 323.142 9.05688 320.641C9.05688 318.141 7.02944 316.113 4.52845 316.113Z" fill="#E1EAF1"/>
<path d="M167.552 298C165.051 298 163.024 300.027 163.024 302.528C163.024 305.029 165.051 307.057 167.552 307.057C170.053 307.057 172.08 305.029 172.08 302.528C172.08 300.027 170.053 298 167.552 298Z" fill="#E1EAF1"/>
<path d="M149.439 298C146.938 298 144.911 300.027 144.911 302.528C144.911 305.029 146.938 307.057 149.439 307.057C151.94 307.057 153.967 305.029 153.967 302.528C153.967 300.027 151.94 298 149.439 298Z" fill="#E1EAF1"/>
<path d="M131.325 298C128.824 298 126.797 300.027 126.797 302.528C126.797 305.029 128.824 307.057 131.325 307.057C133.826 307.057 135.853 305.029 135.853 302.528C135.853 300.027 133.826 298 131.325 298Z" fill="#E1EAF1"/>
<path d="M113.212 298C110.711 298 108.684 300.027 108.684 302.528C108.684 305.029 110.711 307.057 113.212 307.057C115.713 307.057 117.74 305.029 117.74 302.528C117.74 300.027 115.713 298 113.212 298Z" fill="#E1EAF1"/>
<path d="M95.0988 298C92.5978 298 90.5703 300.027 90.5703 302.528C90.5703 305.029 92.5978 307.057 95.0988 307.057C97.5998 307.057 99.6272 305.029 99.6272 302.528C99.6272 300.027 97.5998 298 95.0988 298Z" fill="#E1EAF1"/>
<path d="M76.9816 298C74.4806 298 72.4531 300.027 72.4531 302.528C72.4531 305.029 74.4806 307.057 76.9816 307.057C79.4826 307.057 81.51 305.029 81.51 302.528C81.51 300.027 79.4826 298 76.9816 298Z" fill="#E1EAF1"/>
<path d="M58.8683 298C56.3673 298 54.3399 300.027 54.3399 302.528C54.3399 305.029 56.3673 307.057 58.8683 307.057C61.3693 307.057 63.3967 305.029 63.3967 302.528C63.3967 300.027 61.3693 298 58.8683 298Z" fill="#E1EAF1"/>
<path d="M40.755 298C38.254 298 36.2266 300.027 36.2266 302.528C36.2266 305.029 38.254 307.057 40.755 307.057C43.256 307.057 45.2834 305.029 45.2834 302.528C45.2834 300.027 43.256 298 40.755 298Z" fill="#E1EAF1"/>
<path d="M22.6417 298C20.1408 298 18.1133 300.027 18.1133 302.528C18.1133 305.029 20.1408 307.057 22.6417 307.057C25.1427 307.057 27.1702 305.029 27.1702 302.528C27.1702 300.027 25.1427 298 22.6417 298Z" fill="#E1EAF1"/>
<path d="M4.52845 298C2.02747 298 2.47955e-05 300.027 2.47955e-05 302.528C2.47955e-05 305.029 2.02747 307.057 4.52845 307.057C7.02944 307.057 9.05688 305.029 9.05688 302.528C9.05688 300.027 7.02944 298 4.52845 298Z" fill="#E1EAF1"/>
</g>
<g clip-path="url(#clip2_192_1684)">
<path d="M678.552 209.023C676.051 209.023 674.024 211.051 674.024 213.552C674.024 216.053 676.051 218.08 678.552 218.08C681.053 218.08 683.08 216.053 683.08 213.552C683.08 211.051 681.053 209.023 678.552 209.023Z" fill="#E1EAF1"/>
<path d="M660.439 209.023C657.938 209.023 655.911 211.051 655.911 213.552C655.911 216.053 657.938 218.08 660.439 218.08C662.94 218.08 664.967 216.053 664.967 213.552C664.967 211.051 662.94 209.023 660.439 209.023Z" fill="#E1EAF1"/>
<path d="M642.325 209.023C639.824 209.023 637.797 211.051 637.797 213.552C637.797 216.053 639.824 218.08 642.325 218.08C644.826 218.08 646.853 216.053 646.853 213.552C646.853 211.051 644.826 209.023 642.325 209.023Z" fill="#E1EAF1"/>
<path d="M624.212 209.023C621.711 209.023 619.684 211.051 619.684 213.552C619.684 216.053 621.711 218.08 624.212 218.08C626.713 218.08 628.74 216.053 628.74 213.552C628.74 211.051 626.713 209.023 624.212 209.023Z" fill="#E1EAF1"/>
<path d="M606.099 209.023C603.598 209.023 601.57 211.051 601.57 213.552C601.57 216.053 603.598 218.08 606.099 218.08C608.6 218.08 610.627 216.053 610.627 213.552C610.627 211.051 608.6 209.023 606.099 209.023Z" fill="#E1EAF1"/>
<path d="M587.982 209.023C585.481 209.023 583.453 211.051 583.453 213.552C583.453 216.053 585.481 218.08 587.982 218.08C590.483 218.08 592.51 216.053 592.51 213.552C592.51 211.051 590.483 209.023 587.982 209.023Z" fill="#E1EAF1"/>
<path d="M569.868 209.023C567.367 209.023 565.34 211.051 565.34 213.552C565.34 216.053 567.367 218.08 569.868 218.08C572.369 218.08 574.397 216.053 574.397 213.552C574.397 211.051 572.369 209.023 569.868 209.023Z" fill="#E1EAF1"/>
<path d="M551.755 209.023C549.254 209.023 547.227 211.051 547.227 213.552C547.227 216.053 549.254 218.08 551.755 218.08C554.256 218.08 556.283 216.053 556.283 213.552C556.283 211.051 554.256 209.023 551.755 209.023Z" fill="#E1EAF1"/>
<path d="M533.642 209.023C531.141 209.023 529.113 211.051 529.113 213.552C529.113 216.053 531.141 218.08 533.642 218.08C536.143 218.08 538.17 216.053 538.17 213.552C538.17 211.051 536.143 209.023 533.642 209.023Z" fill="#E1EAF1"/>
<path d="M515.528 209.023C513.027 209.023 511 211.051 511 213.552C511 216.053 513.027 218.08 515.528 218.08C518.029 218.08 520.057 216.053 520.057 213.552C520.057 211.051 518.029 209.023 515.528 209.023Z" fill="#E1EAF1"/>
<path d="M678.552 190.91C676.051 190.91 674.024 192.937 674.024 195.438C674.024 197.939 676.051 199.967 678.552 199.967C681.053 199.967 683.08 197.939 683.08 195.438C683.08 192.937 681.053 190.91 678.552 190.91Z" fill="#E1EAF1"/>
<path d="M660.439 190.91C657.938 190.91 655.911 192.937 655.911 195.438C655.911 197.939 657.938 199.967 660.439 199.967C662.94 199.967 664.967 197.939 664.967 195.438C664.967 192.937 662.94 190.91 660.439 190.91Z" fill="#E1EAF1"/>
<path d="M642.325 190.91C639.824 190.91 637.797 192.937 637.797 195.438C637.797 197.939 639.824 199.967 642.325 199.967C644.826 199.967 646.853 197.939 646.853 195.438C646.853 192.937 644.826 190.91 642.325 190.91Z" fill="#E1EAF1"/>
<path d="M624.212 190.91C621.711 190.91 619.684 192.937 619.684 195.438C619.684 197.939 621.711 199.967 624.212 199.967C626.713 199.967 628.74 197.939 628.74 195.438C628.74 192.937 626.713 190.91 624.212 190.91Z" fill="#E1EAF1"/>
<path d="M606.099 190.91C603.598 190.91 601.57 192.937 601.57 195.438C601.57 197.939 603.598 199.967 606.099 199.967C608.6 199.967 610.627 197.939 610.627 195.438C610.627 192.937 608.6 190.91 606.099 190.91Z" fill="#E1EAF1"/>
<path d="M587.982 190.91C585.481 190.91 583.453 192.937 583.453 195.438C583.453 197.939 585.481 199.967 587.982 199.967C590.483 199.967 592.51 197.939 592.51 195.438C592.51 192.937 590.483 190.91 587.982 190.91Z" fill="#E1EAF1"/>
<path d="M569.868 190.91C567.367 190.91 565.34 192.937 565.34 195.438C565.34 197.939 567.367 199.967 569.868 199.967C572.369 199.967 574.397 197.939 574.397 195.438C574.397 192.937 572.369 190.91 569.868 190.91Z" fill="#E1EAF1"/>
<path d="M551.755 190.91C549.254 190.91 547.227 192.937 547.227 195.438C547.227 197.939 549.254 199.967 551.755 199.967C554.256 199.967 556.283 197.939 556.283 195.438C556.283 192.937 554.256 190.91 551.755 190.91Z" fill="#E1EAF1"/>
<path d="M533.642 190.91C531.141 190.91 529.113 192.937 529.113 195.438C529.113 197.939 531.141 199.967 533.642 199.967C536.143 199.967 538.17 197.939 538.17 195.438C538.17 192.937 536.143 190.91 533.642 190.91Z" fill="#E1EAF1"/>
<path d="M515.528 190.91C513.027 190.91 511 192.937 511 195.438C511 197.939 513.027 199.967 515.528 199.967C518.029 199.967 520.057 197.939 520.057 195.438C520.057 192.937 518.029 190.91 515.528 190.91Z" fill="#E1EAF1"/>
<path d="M678.552 172.797C676.051 172.797 674.024 174.824 674.024 177.325C674.024 179.826 676.051 181.854 678.552 181.854C681.053 181.854 683.08 179.826 683.08 177.325C683.08 174.824 681.053 172.797 678.552 172.797Z" fill="#E1EAF1"/>
<path d="M660.439 172.797C657.938 172.797 655.911 174.824 655.911 177.325C655.911 179.826 657.938 181.854 660.439 181.854C662.94 181.854 664.967 179.826 664.967 177.325C664.967 174.824 662.94 172.797 660.439 172.797Z" fill="#E1EAF1"/>
<path d="M642.325 172.797C639.824 172.797 637.797 174.824 637.797 177.325C637.797 179.826 639.824 181.854 642.325 181.854C644.826 181.854 646.853 179.826 646.853 177.325C646.853 174.824 644.826 172.797 642.325 172.797Z" fill="#E1EAF1"/>
<path d="M624.212 172.797C621.711 172.797 619.684 174.824 619.684 177.325C619.684 179.826 621.711 181.854 624.212 181.854C626.713 181.854 628.74 179.826 628.74 177.325C628.74 174.824 626.713 172.797 624.212 172.797Z" fill="#E1EAF1"/>
<path d="M606.099 172.797C603.598 172.797 601.57 174.824 601.57 177.325C601.57 179.826 603.598 181.854 606.099 181.854C608.6 181.854 610.627 179.826 610.627 177.325C610.627 174.824 608.6 172.797 606.099 172.797Z" fill="#E1EAF1"/>
<path d="M587.982 172.797C585.481 172.797 583.453 174.824 583.453 177.325C583.453 179.826 585.481 181.854 587.982 181.854C590.483 181.854 592.51 179.826 592.51 177.325C592.51 174.824 590.483 172.797 587.982 172.797Z" fill="#E1EAF1"/>
<path d="M569.868 172.797C567.367 172.797 565.34 174.824 565.34 177.325C565.34 179.826 567.367 181.854 569.868 181.854C572.369 181.854 574.397 179.826 574.397 177.325C574.397 174.824 572.369 172.797 569.868 172.797Z" fill="#E1EAF1"/>
<path d="M551.755 172.797C549.254 172.797 547.227 174.824 547.227 177.325C547.227 179.826 549.254 181.854 551.755 181.854C554.256 181.854 556.283 179.826 556.283 177.325C556.283 174.824 554.256 172.797 551.755 172.797Z" fill="#E1EAF1"/>
<path d="M533.642 172.797C531.141 172.797 529.113 174.824 529.113 177.325C529.113 179.826 531.141 181.854 533.642 181.854C536.143 181.854 538.17 179.826 538.17 177.325C538.17 174.824 536.143 172.797 533.642 172.797Z" fill="#E1EAF1"/>
<path d="M515.528 172.797C513.027 172.797 511 174.824 511 177.325C511 179.826 513.027 181.854 515.528 181.854C518.029 181.854 520.057 179.826 520.057 177.325C520.057 174.824 518.029 172.797 515.528 172.797Z" fill="#E1EAF1"/>
<path d="M678.552 154.681C676.051 154.681 674.024 156.709 674.024 159.21C674.024 161.711 676.051 163.738 678.552 163.738C681.053 163.738 683.08 161.711 683.08 159.21C683.08 156.709 681.053 154.681 678.552 154.681Z" fill="#E1EAF1"/>
<path d="M660.439 154.681C657.938 154.681 655.911 156.709 655.911 159.21C655.911 161.711 657.938 163.738 660.439 163.738C662.94 163.738 664.967 161.711 664.967 159.21C664.967 156.709 662.94 154.681 660.439 154.681Z" fill="#E1EAF1"/>
<path d="M642.325 154.681C639.824 154.681 637.797 156.709 637.797 159.21C637.797 161.711 639.824 163.738 642.325 163.738C644.826 163.738 646.853 161.711 646.853 159.21C646.853 156.709 644.826 154.681 642.325 154.681Z" fill="#E1EAF1"/>
<path d="M624.212 154.681C621.711 154.681 619.684 156.709 619.684 159.21C619.684 161.711 621.711 163.738 624.212 163.738C626.713 163.738 628.74 161.711 628.74 159.21C628.74 156.709 626.713 154.681 624.212 154.681Z" fill="#E1EAF1"/>
<path d="M606.099 154.681C603.598 154.681 601.57 156.709 601.57 159.21C601.57 161.711 603.598 163.738 606.099 163.738C608.6 163.738 610.627 161.711 610.627 159.21C610.627 156.709 608.6 154.681 606.099 154.681Z" fill="#E1EAF1"/>
<path d="M587.982 154.681C585.481 154.681 583.453 156.709 583.453 159.21C583.453 161.711 585.481 163.738 587.982 163.738C590.483 163.738 592.51 161.711 592.51 159.21C592.51 156.709 590.483 154.681 587.982 154.681Z" fill="#E1EAF1"/>
<path d="M569.868 154.681C567.367 154.681 565.34 156.709 565.34 159.21C565.34 161.711 567.367 163.738 569.868 163.738C572.369 163.738 574.397 161.711 574.397 159.21C574.397 156.709 572.369 154.681 569.868 154.681Z" fill="#E1EAF1"/>
<path d="M551.755 154.681C549.254 154.681 547.227 156.709 547.227 159.21C547.227 161.711 549.254 163.738 551.755 163.738C554.256 163.738 556.283 161.711 556.283 159.21C556.283 156.709 554.256 154.681 551.755 154.681Z" fill="#E1EAF1"/>
<path d="M533.642 154.681C531.141 154.681 529.113 156.709 529.113 159.21C529.113 161.711 531.141 163.738 533.642 163.738C536.143 163.738 538.17 161.711 538.17 159.21C538.17 156.709 536.143 154.681 533.642 154.681Z" fill="#E1EAF1"/>
<path d="M515.528 154.681C513.027 154.681 511 156.709 511 159.21C511 161.711 513.027 163.738 515.528 163.738C518.029 163.738 520.057 161.711 520.057 159.21C520.057 156.709 518.029 154.681 515.528 154.681Z" fill="#E1EAF1"/>
<path d="M678.552 136.568C676.051 136.568 674.024 138.596 674.024 141.097C674.024 143.598 676.051 145.625 678.552 145.625C681.053 145.625 683.08 143.598 683.08 141.097C683.08 138.596 681.053 136.568 678.552 136.568Z" fill="#E1EAF1"/>
<path d="M660.439 136.568C657.938 136.568 655.911 138.596 655.911 141.097C655.911 143.598 657.938 145.625 660.439 145.625C662.94 145.625 664.967 143.598 664.967 141.097C664.967 138.596 662.94 136.568 660.439 136.568Z" fill="#E1EAF1"/>
<path d="M642.325 136.568C639.824 136.568 637.797 138.596 637.797 141.097C637.797 143.598 639.824 145.625 642.325 145.625C644.826 145.625 646.853 143.598 646.853 141.097C646.853 138.596 644.826 136.568 642.325 136.568Z" fill="#E1EAF1"/>
<path d="M624.212 136.568C621.711 136.568 619.684 138.596 619.684 141.097C619.684 143.598 621.711 145.625 624.212 145.625C626.713 145.625 628.74 143.598 628.74 141.097C628.74 138.596 626.713 136.568 624.212 136.568Z" fill="#E1EAF1"/>
<path d="M606.099 136.568C603.598 136.568 601.57 138.596 601.57 141.097C601.57 143.598 603.598 145.625 606.099 145.625C608.6 145.625 610.627 143.598 610.627 141.097C610.627 138.596 608.6 136.568 606.099 136.568Z" fill="#E1EAF1"/>
<path d="M587.982 136.568C585.481 136.568 583.453 138.596 583.453 141.097C583.453 143.598 585.481 145.625 587.982 145.625C590.483 145.625 592.51 143.598 592.51 141.097C592.51 138.596 590.483 136.568 587.982 136.568Z" fill="#E1EAF1"/>
<path d="M569.868 136.568C567.367 136.568 565.34 138.596 565.34 141.097C565.34 143.598 567.367 145.625 569.868 145.625C572.369 145.625 574.397 143.598 574.397 141.097C574.397 138.596 572.369 136.568 569.868 136.568Z" fill="#E1EAF1"/>
<path d="M551.755 136.568C549.254 136.568 547.227 138.596 547.227 141.097C547.227 143.598 549.254 145.625 551.755 145.625C554.256 145.625 556.283 143.598 556.283 141.097C556.283 138.596 554.256 136.568 551.755 136.568Z" fill="#E1EAF1"/>
<path d="M533.642 136.568C531.141 136.568 529.113 138.596 529.113 141.097C529.113 143.598 531.141 145.625 533.642 145.625C536.143 145.625 538.17 143.598 538.17 141.097C538.17 138.596 536.143 136.568 533.642 136.568Z" fill="#E1EAF1"/>
<path d="M515.528 136.568C513.027 136.568 511 138.596 511 141.097C511 143.598 513.027 145.625 515.528 145.625C518.029 145.625 520.057 143.598 520.057 141.097C520.057 138.596 518.029 136.568 515.528 136.568Z" fill="#E1EAF1"/>
<path d="M678.552 118.455C676.051 118.455 674.024 120.482 674.024 122.983C674.024 125.484 676.051 127.512 678.552 127.512C681.053 127.512 683.08 125.484 683.08 122.983C683.08 120.482 681.053 118.455 678.552 118.455Z" fill="#E1EAF1"/>
<path d="M660.439 118.455C657.938 118.455 655.911 120.482 655.911 122.983C655.911 125.484 657.938 127.512 660.439 127.512C662.94 127.512 664.967 125.484 664.967 122.983C664.967 120.482 662.94 118.455 660.439 118.455Z" fill="#E1EAF1"/>
<path d="M642.325 118.455C639.824 118.455 637.797 120.482 637.797 122.983C637.797 125.484 639.824 127.512 642.325 127.512C644.826 127.512 646.853 125.484 646.853 122.983C646.853 120.482 644.826 118.455 642.325 118.455Z" fill="#E1EAF1"/>
<path d="M624.212 118.455C621.711 118.455 619.684 120.482 619.684 122.983C619.684 125.484 621.711 127.512 624.212 127.512C626.713 127.512 628.74 125.484 628.74 122.983C628.74 120.482 626.713 118.455 624.212 118.455Z" fill="#E1EAF1"/>
<path d="M606.099 118.455C603.598 118.455 601.57 120.482 601.57 122.983C601.57 125.484 603.598 127.512 606.099 127.512C608.6 127.512 610.627 125.484 610.627 122.983C610.627 120.482 608.6 118.455 606.099 118.455Z" fill="#E1EAF1"/>
<path d="M587.982 118.455C585.481 118.455 583.453 120.482 583.453 122.983C583.453 125.484 585.481 127.512 587.982 127.512C590.483 127.512 592.51 125.484 592.51 122.983C592.51 120.482 590.483 118.455 587.982 118.455Z" fill="#E1EAF1"/>
<path d="M569.868 118.455C567.367 118.455 565.34 120.482 565.34 122.983C565.34 125.484 567.367 127.512 569.868 127.512C572.369 127.512 574.397 125.484 574.397 122.983C574.397 120.482 572.369 118.455 569.868 118.455Z" fill="#E1EAF1"/>
<path d="M551.755 118.455C549.254 118.455 547.227 120.482 547.227 122.983C547.227 125.484 549.254 127.512 551.755 127.512C554.256 127.512 556.283 125.484 556.283 122.983C556.283 120.482 554.256 118.455 551.755 118.455Z" fill="#E1EAF1"/>
<path d="M533.642 118.455C531.141 118.455 529.113 120.482 529.113 122.983C529.113 125.484 531.141 127.512 533.642 127.512C536.143 127.512 538.17 125.484 538.17 122.983C538.17 120.482 536.143 118.455 533.642 118.455Z" fill="#E1EAF1"/>
<path d="M515.528 118.455C513.027 118.455 511 120.482 511 122.983C511 125.484 513.027 127.512 515.528 127.512C518.029 127.512 520.057 125.484 520.057 122.983C520.057 120.482 518.029 118.455 515.528 118.455Z" fill="#E1EAF1"/>
<path d="M678.552 100.342C676.051 100.342 674.024 102.369 674.024 104.87C674.024 107.371 676.051 109.398 678.552 109.398C681.053 109.398 683.08 107.371 683.08 104.87C683.08 102.369 681.053 100.342 678.552 100.342Z" fill="#E1EAF1"/>
<path d="M660.439 100.342C657.938 100.342 655.911 102.369 655.911 104.87C655.911 107.371 657.938 109.398 660.439 109.398C662.94 109.398 664.967 107.371 664.967 104.87C664.967 102.369 662.94 100.342 660.439 100.342Z" fill="#E1EAF1"/>
<path d="M642.325 100.342C639.824 100.342 637.797 102.369 637.797 104.87C637.797 107.371 639.824 109.398 642.325 109.398C644.826 109.398 646.853 107.371 646.853 104.87C646.853 102.369 644.826 100.342 642.325 100.342Z" fill="#E1EAF1"/>
<path d="M624.212 100.342C621.711 100.342 619.684 102.369 619.684 104.87C619.684 107.371 621.711 109.398 624.212 109.398C626.713 109.398 628.74 107.371 628.74 104.87C628.74 102.369 626.713 100.342 624.212 100.342Z" fill="#E1EAF1"/>
<path d="M606.099 100.342C603.598 100.342 601.57 102.369 601.57 104.87C601.57 107.371 603.598 109.398 606.099 109.398C608.6 109.398 610.627 107.371 610.627 104.87C610.627 102.369 608.6 100.342 606.099 100.342Z" fill="#E1EAF1"/>
<path d="M587.982 100.342C585.481 100.342 583.453 102.369 583.453 104.87C583.453 107.371 585.481 109.398 587.982 109.398C590.483 109.398 592.51 107.371 592.51 104.87C592.51 102.369 590.483 100.342 587.982 100.342Z" fill="#E1EAF1"/>
<path d="M569.868 100.342C567.367 100.342 565.34 102.369 565.34 104.87C565.34 107.371 567.367 109.398 569.868 109.398C572.369 109.398 574.397 107.371 574.397 104.87C574.397 102.369 572.369 100.342 569.868 100.342Z" fill="#E1EAF1"/>
<path d="M551.755 100.342C549.254 100.342 547.227 102.369 547.227 104.87C547.227 107.371 549.254 109.398 551.755 109.398C554.256 109.398 556.283 107.371 556.283 104.87C556.283 102.369 554.256 100.342 551.755 100.342Z" fill="#E1EAF1"/>
<path d="M533.642 100.342C531.141 100.342 529.113 102.369 529.113 104.87C529.113 107.371 531.141 109.398 533.642 109.398C536.143 109.398 538.17 107.371 538.17 104.87C538.17 102.369 536.143 100.342 533.642 100.342Z" fill="#E1EAF1"/>
<path d="M515.528 100.342C513.027 100.342 511 102.369 511 104.87C511 107.371 513.027 109.398 515.528 109.398C518.029 109.398 520.057 107.371 520.057 104.87C520.057 102.369 518.029 100.342 515.528 100.342Z" fill="#E1EAF1"/>
<path d="M678.552 82.2263C676.051 82.2263 674.024 84.2538 674.024 86.7548C674.024 89.2558 676.051 91.2832 678.552 91.2832C681.053 91.2832 683.08 89.2558 683.08 86.7548C683.08 84.2538 681.053 82.2263 678.552 82.2263Z" fill="#E1EAF1"/>
<path d="M660.439 82.2263C657.938 82.2263 655.911 84.2538 655.911 86.7548C655.911 89.2558 657.938 91.2832 660.439 91.2832C662.94 91.2832 664.967 89.2558 664.967 86.7548C664.967 84.2538 662.94 82.2263 660.439 82.2263Z" fill="#E1EAF1"/>
<path d="M642.325 82.2263C639.824 82.2263 637.797 84.2538 637.797 86.7548C637.797 89.2558 639.824 91.2832 642.325 91.2832C644.826 91.2832 646.853 89.2558 646.853 86.7548C646.853 84.2538 644.826 82.2263 642.325 82.2263Z" fill="#E1EAF1"/>
<path d="M624.212 82.2263C621.711 82.2263 619.684 84.2538 619.684 86.7548C619.684 89.2558 621.711 91.2832 624.212 91.2832C626.713 91.2832 628.74 89.2558 628.74 86.7548C628.74 84.2538 626.713 82.2263 624.212 82.2263Z" fill="#E1EAF1"/>
<path d="M606.099 82.2263C603.598 82.2263 601.57 84.2538 601.57 86.7548C601.57 89.2558 603.598 91.2832 606.099 91.2832C608.6 91.2832 610.627 89.2558 610.627 86.7548C610.627 84.2538 608.6 82.2263 606.099 82.2263Z" fill="#E1EAF1"/>
<path d="M587.982 82.2263C585.481 82.2263 583.453 84.2538 583.453 86.7548C583.453 89.2558 585.481 91.2832 587.982 91.2832C590.483 91.2832 592.51 89.2558 592.51 86.7548C592.51 84.2538 590.483 82.2263 587.982 82.2263Z" fill="#E1EAF1"/>
<path d="M569.868 82.2263C567.367 82.2263 565.34 84.2538 565.34 86.7548C565.34 89.2558 567.367 91.2832 569.868 91.2832C572.369 91.2832 574.397 89.2558 574.397 86.7548C574.397 84.2538 572.369 82.2263 569.868 82.2263Z" fill="#E1EAF1"/>
<path d="M551.755 82.2263C549.254 82.2263 547.227 84.2538 547.227 86.7548C547.227 89.2558 549.254 91.2832 551.755 91.2832C554.256 91.2832 556.283 89.2558 556.283 86.7548C556.283 84.2538 554.256 82.2263 551.755 82.2263Z" fill="#E1EAF1"/>
<path d="M533.642 82.2263C531.141 82.2263 529.113 84.2538 529.113 86.7548C529.113 89.2558 531.141 91.2832 533.642 91.2832C536.143 91.2832 538.17 89.2558 538.17 86.7548C538.17 84.2538 536.143 82.2263 533.642 82.2263Z" fill="#E1EAF1"/>
<path d="M515.528 82.2263C513.027 82.2263 511 84.2538 511 86.7548C511 89.2558 513.027 91.2832 515.528 91.2832C518.029 91.2832 520.057 89.2558 520.057 86.7548C520.057 84.2538 518.029 82.2263 515.528 82.2263Z" fill="#E1EAF1"/>
<path d="M678.552 64.1131C676.051 64.1131 674.024 66.1405 674.024 68.6415C674.024 71.1425 676.051 73.1699 678.552 73.1699C681.053 73.1699 683.08 71.1425 683.08 68.6415C683.08 66.1405 681.053 64.1131 678.552 64.1131Z" fill="#E1EAF1"/>
<path d="M660.439 64.1131C657.938 64.1131 655.911 66.1405 655.911 68.6415C655.911 71.1425 657.938 73.1699 660.439 73.1699C662.94 73.1699 664.967 71.1425 664.967 68.6415C664.967 66.1405 662.94 64.1131 660.439 64.1131Z" fill="#E1EAF1"/>
<path d="M642.325 64.1131C639.824 64.1131 637.797 66.1405 637.797 68.6415C637.797 71.1425 639.824 73.1699 642.325 73.1699C644.826 73.1699 646.853 71.1425 646.853 68.6415C646.853 66.1405 644.826 64.1131 642.325 64.1131Z" fill="#E1EAF1"/>
<path d="M624.212 64.1131C621.711 64.1131 619.684 66.1405 619.684 68.6415C619.684 71.1425 621.711 73.1699 624.212 73.1699C626.713 73.1699 628.74 71.1425 628.74 68.6415C628.74 66.1405 626.713 64.1131 624.212 64.1131Z" fill="#E1EAF1"/>
<path d="M606.099 64.1131C603.598 64.1131 601.57 66.1405 601.57 68.6415C601.57 71.1425 603.598 73.1699 606.099 73.1699C608.6 73.1699 610.627 71.1425 610.627 68.6415C610.627 66.1405 608.6 64.1131 606.099 64.1131Z" fill="#E1EAF1"/>
<path d="M587.982 64.1131C585.481 64.1131 583.453 66.1405 583.453 68.6415C583.453 71.1425 585.481 73.1699 587.982 73.1699C590.483 73.1699 592.51 71.1425 592.51 68.6415C592.51 66.1405 590.483 64.1131 587.982 64.1131Z" fill="#E1EAF1"/>
<path d="M569.868 64.1131C567.367 64.1131 565.34 66.1405 565.34 68.6415C565.34 71.1425 567.367 73.1699 569.868 73.1699C572.369 73.1699 574.397 71.1425 574.397 68.6415C574.397 66.1405 572.369 64.1131 569.868 64.1131Z" fill="#E1EAF1"/>
<path d="M551.755 64.1131C549.254 64.1131 547.227 66.1405 547.227 68.6415C547.227 71.1425 549.254 73.1699 551.755 73.1699C554.256 73.1699 556.283 71.1425 556.283 68.6415C556.283 66.1405 554.256 64.1131 551.755 64.1131Z" fill="#E1EAF1"/>
<path d="M533.642 64.1131C531.141 64.1131 529.113 66.1405 529.113 68.6415C529.113 71.1425 531.141 73.1699 533.642 73.1699C536.143 73.1699 538.17 71.1425 538.17 68.6415C538.17 66.1405 536.143 64.1131 533.642 64.1131Z" fill="#E1EAF1"/>
<path d="M515.528 64.1131C513.027 64.1131 511 66.1405 511 68.6415C511 71.1425 513.027 73.1699 515.528 73.1699C518.029 73.1699 520.057 71.1425 520.057 68.6415C520.057 66.1405 518.029 64.1131 515.528 64.1131Z" fill="#E1EAF1"/>
<path d="M678.552 45.9998C676.051 45.9998 674.024 48.0272 674.024 50.5282C674.024 53.0292 676.051 55.0566 678.552 55.0566C681.053 55.0566 683.08 53.0292 683.08 50.5282C683.08 48.0272 681.053 45.9998 678.552 45.9998Z" fill="#E1EAF1"/>
<path d="M660.439 45.9998C657.938 45.9998 655.911 48.0272 655.911 50.5282C655.911 53.0292 657.938 55.0566 660.439 55.0566C662.94 55.0566 664.967 53.0292 664.967 50.5282C664.967 48.0272 662.94 45.9998 660.439 45.9998Z" fill="#E1EAF1"/>
<path d="M642.325 45.9998C639.824 45.9998 637.797 48.0272 637.797 50.5282C637.797 53.0292 639.824 55.0566 642.325 55.0566C644.826 55.0566 646.853 53.0292 646.853 50.5282C646.853 48.0272 644.826 45.9998 642.325 45.9998Z" fill="#E1EAF1"/>
<path d="M624.212 45.9998C621.711 45.9998 619.684 48.0272 619.684 50.5282C619.684 53.0292 621.711 55.0566 624.212 55.0566C626.713 55.0566 628.74 53.0292 628.74 50.5282C628.74 48.0272 626.713 45.9998 624.212 45.9998Z" fill="#E1EAF1"/>
<path d="M606.099 45.9998C603.598 45.9998 601.57 48.0272 601.57 50.5282C601.57 53.0292 603.598 55.0566 606.099 55.0566C608.6 55.0566 610.627 53.0292 610.627 50.5282C610.627 48.0272 608.6 45.9998 606.099 45.9998Z" fill="#E1EAF1"/>
<path d="M587.982 45.9998C585.481 45.9998 583.453 48.0272 583.453 50.5282C583.453 53.0292 585.481 55.0566 587.982 55.0566C590.483 55.0566 592.51 53.0292 592.51 50.5282C592.51 48.0272 590.483 45.9998 587.982 45.9998Z" fill="#E1EAF1"/>
<path d="M569.868 45.9998C567.367 45.9998 565.34 48.0272 565.34 50.5282C565.34 53.0292 567.367 55.0566 569.868 55.0566C572.369 55.0566 574.397 53.0292 574.397 50.5282C574.397 48.0272 572.369 45.9998 569.868 45.9998Z" fill="#E1EAF1"/>
<path d="M551.755 45.9998C549.254 45.9998 547.227 48.0272 547.227 50.5282C547.227 53.0292 549.254 55.0566 551.755 55.0566C554.256 55.0566 556.283 53.0292 556.283 50.5282C556.283 48.0272 554.256 45.9998 551.755 45.9998Z" fill="#E1EAF1"/>
<path d="M533.642 45.9998C531.141 45.9998 529.113 48.0272 529.113 50.5282C529.113 53.0292 531.141 55.0566 533.642 55.0566C536.143 55.0566 538.17 53.0292 538.17 50.5282C538.17 48.0272 536.143 45.9998 533.642 45.9998Z" fill="#E1EAF1"/>
<path d="M515.528 45.9998C513.027 45.9998 511 48.0272 511 50.5282C511 53.0292 513.027 55.0566 515.528 55.0566C518.029 55.0566 520.057 53.0292 520.057 50.5282C520.057 48.0272 518.029 45.9998 515.528 45.9998Z" fill="#E1EAF1"/>
</g>
<defs>
<clipPath id="clip0_192_1684">
<rect width="140.35" height="141.938" fill="white" transform="matrix(0.700928 -0.713232 0.700928 0.713232 177.076 108.57)"/>
</clipPath>
<clipPath id="clip1_192_1684">
<rect width="173" height="173" fill="white" transform="translate(0 298)"/>
</clipPath>
<clipPath id="clip2_192_1684">
<rect width="173" height="173" fill="white" transform="translate(511 46)"/>
</clipPath>
</defs>
</svg>
