<svg width="698" height="620" viewBox="0 0 698 620" fill="none" xmlns="http://www.w3.org/2000/svg">
<rect x="536.145" y="513.917" width="100.822" height="86.013" rx="15" fill="#87E2FF" fill-opacity="0.75"/>
<ellipse cx="128.521" cy="258.516" rx="128.521" ry="97.9592" fill="#218207" fill-opacity="0.5"/>
<ellipse cx="4.6558" cy="3.62118" rx="4.6558" ry="3.62118" transform="matrix(0.757213 0.653168 -0.757213 0.653168 352.328 28.4756)" fill="#00FF01"/>
<ellipse cx="4.6558" cy="3.62118" rx="4.6558" ry="3.62118" transform="matrix(0.757213 0.653168 -0.757213 0.653168 352.308 42.8115)" fill="#00FF01"/>
<ellipse cx="4.6558" cy="3.62118" rx="4.6558" ry="3.62118" transform="matrix(0.757213 0.653168 -0.757213 0.653168 352.288 57.1465)" fill="#00FF01"/>
<ellipse cx="4.6558" cy="3.62118" rx="4.6558" ry="3.62118" transform="matrix(0.757213 0.653168 -0.757213 0.653168 352.269 71.4824)" fill="#00FF01"/>
<ellipse cx="4.6558" cy="4.13849" rx="4.6558" ry="4.13849" transform="matrix(0.757213 0.653168 -0.757213 0.653168 371.573 14.3008)" fill="#00FF01"/>
<ellipse cx="4.6558" cy="3.62118" rx="4.6558" ry="3.62118" transform="matrix(0.757213 0.653168 -0.757213 0.653168 371.163 28.4951)" fill="#00FF01"/>
<ellipse cx="4.6558" cy="3.62118" rx="4.6558" ry="3.62118" transform="matrix(0.757213 0.653168 -0.757213 0.653168 371.144 42.8301)" fill="#00FF01"/>
<ellipse cx="4.6558" cy="3.62118" rx="4.6558" ry="3.62118" transform="matrix(0.757213 0.653168 -0.757213 0.653168 371.123 57.166)" fill="#00FF01"/>
<ellipse cx="4.6558" cy="3.62118" rx="4.6558" ry="3.62118" transform="matrix(0.757213 0.653168 -0.757213 0.653168 371.103 71.502)" fill="#00FF01"/>
<ellipse cx="4.6558" cy="4.13849" rx="4.6558" ry="4.13849" transform="matrix(0.757213 0.653168 -0.757213 0.653168 371.476 85.0215)" fill="#00FF01"/>
<ellipse cx="4.6558" cy="4.13849" rx="4.6558" ry="4.13849" transform="matrix(0.757213 0.653168 -0.757213 0.653168 389.3 14.3174)" fill="#00FF01"/>
<ellipse cx="4.6558" cy="3.62118" rx="4.6558" ry="3.62118" transform="matrix(0.757213 0.653168 -0.757213 0.653168 388.89 28.5137)" fill="#00FF01"/>
<ellipse cx="4.6558" cy="3.62118" rx="4.6558" ry="3.62118" transform="matrix(0.757213 0.653168 -0.757213 0.653168 388.87 42.8486)" fill="#00FF01"/>
<ellipse cx="4.6558" cy="3.62118" rx="4.6558" ry="3.62118" transform="matrix(0.757213 0.653168 -0.757213 0.653168 388.85 57.1836)" fill="#00FF01"/>
<ellipse cx="4.6558" cy="3.62118" rx="4.6558" ry="3.62118" transform="matrix(0.757213 0.653168 -0.757213 0.653168 388.831 71.5195)" fill="#00FF01"/>
<ellipse cx="4.6558" cy="4.13849" rx="4.6558" ry="4.13849" transform="matrix(0.757213 0.653168 -0.757213 0.653168 389.202 85.04)" fill="#00FF01"/>
<ellipse cx="4.6558" cy="4.13849" rx="4.6558" ry="4.13849" transform="matrix(0.757213 0.653168 -0.757213 0.653168 408.157 0)" fill="#00FF01"/>
<ellipse cx="4.6558" cy="4.13849" rx="4.6558" ry="4.13849" transform="matrix(0.757213 0.653168 -0.757213 0.653168 408.135 14.3379)" fill="#00FF01"/>
<ellipse cx="4.6558" cy="3.62118" rx="4.6558" ry="3.62118" transform="matrix(0.757213 0.653168 -0.757213 0.653168 407.725 28.5332)" fill="#00FF01"/>
<ellipse cx="4.6558" cy="3.62118" rx="4.6558" ry="3.62118" transform="matrix(0.757213 0.653168 -0.757213 0.653168 407.705 42.8672)" fill="#00FF01"/>
<ellipse cx="4.6558" cy="3.62118" rx="4.6558" ry="3.62118" transform="matrix(0.757213 0.653168 -0.757213 0.653168 407.685 57.2051)" fill="#00FF01"/>
<ellipse cx="4.6558" cy="3.62118" rx="4.6558" ry="3.62118" transform="matrix(0.757213 0.653168 -0.757213 0.653168 407.664 71.5391)" fill="#00FF01"/>
<ellipse cx="4.6558" cy="4.13849" rx="4.6558" ry="4.13849" transform="matrix(0.757213 0.653168 -0.757213 0.653168 408.038 85.0586)" fill="#00FF01"/>
<ellipse cx="4.6558" cy="4.13849" rx="4.6558" ry="4.13849" transform="matrix(0.757213 0.653168 -0.757213 0.653168 425.883 0.0195312)" fill="#00FF01"/>
<ellipse cx="4.6558" cy="4.13849" rx="4.6558" ry="4.13849" transform="matrix(0.757213 0.653168 -0.757213 0.653168 425.862 14.3564)" fill="#00FF01"/>
<ellipse cx="4.6558" cy="3.62118" rx="4.6558" ry="3.62118" transform="matrix(0.757213 0.653168 -0.757213 0.653168 425.452 28.5508)" fill="#00FF01"/>
<ellipse cx="4.6558" cy="3.62118" rx="4.6558" ry="3.62118" transform="matrix(0.757213 0.653168 -0.757213 0.653168 425.432 42.8877)" fill="#00FF01"/>
<ellipse cx="4.6558" cy="3.62118" rx="4.6558" ry="3.62118" transform="matrix(0.757213 0.653168 -0.757213 0.653168 425.412 57.2227)" fill="#00FF01"/>
<ellipse cx="4.6558" cy="3.62118" rx="4.6558" ry="3.62118" transform="matrix(0.757213 0.653168 -0.757213 0.653168 425.391 71.5586)" fill="#00FF01"/>
<ellipse cx="4.6558" cy="4.13849" rx="4.6558" ry="4.13849" transform="matrix(0.757213 0.653168 -0.757213 0.653168 425.764 85.0781)" fill="#00FF01"/>
<ellipse cx="4.6558" cy="4.13849" rx="4.6558" ry="4.13849" transform="matrix(0.757213 0.653168 -0.757213 0.653168 444.719 0.0390625)" fill="#00FF01"/>
<ellipse cx="4.6558" cy="4.13849" rx="4.6558" ry="4.13849" transform="matrix(0.757213 0.653168 -0.757213 0.653168 444.697 14.375)" fill="#00FF01"/>
<ellipse cx="4.6558" cy="3.62118" rx="4.6558" ry="3.62118" transform="matrix(0.757213 0.653168 -0.757213 0.653168 444.287 28.5713)" fill="#00FF01"/>
<ellipse cx="4.6558" cy="3.62118" rx="4.6558" ry="3.62118" transform="matrix(0.757213 0.653168 -0.757213 0.653168 444.267 42.9053)" fill="#00FF01"/>
<ellipse cx="4.6558" cy="3.62118" rx="4.6558" ry="3.62118" transform="matrix(0.757213 0.653168 -0.757213 0.653168 444.247 57.2432)" fill="#00FF01"/>
<ellipse cx="4.6558" cy="3.62118" rx="4.6558" ry="3.62118" transform="matrix(0.757213 0.653168 -0.757213 0.653168 444.226 71.5771)" fill="#00FF01"/>
<ellipse cx="4.6558" cy="4.13849" rx="4.6558" ry="4.13849" transform="matrix(0.757213 0.653168 -0.757213 0.653168 444.599 85.0977)" fill="#00FF01"/>
<ellipse cx="4.6558" cy="4.13849" rx="4.6558" ry="4.13849" transform="matrix(0.757213 0.653168 -0.757213 0.653168 462.445 0.0576172)" fill="#00FF01"/>
<ellipse cx="4.6558" cy="4.13849" rx="4.6558" ry="4.13849" transform="matrix(0.757213 0.653168 -0.757213 0.653168 462.424 14.3945)" fill="#00FF01"/>
<ellipse cx="4.6558" cy="3.62118" rx="4.6558" ry="3.62118" transform="matrix(0.757213 0.653168 -0.757213 0.653168 462.014 28.5898)" fill="#00FF01"/>
<ellipse cx="4.6558" cy="3.62118" rx="4.6558" ry="3.62118" transform="matrix(0.757213 0.653168 -0.757213 0.653168 461.994 42.9248)" fill="#00FF01"/>
<ellipse cx="4.6558" cy="3.62118" rx="4.6558" ry="3.62118" transform="matrix(0.757213 0.653168 -0.757213 0.653168 461.974 57.2617)" fill="#00FF01"/>
<ellipse cx="4.6558" cy="3.62118" rx="4.6558" ry="3.62118" transform="matrix(0.757213 0.653168 -0.757213 0.653168 461.953 71.5967)" fill="#00FF01"/>
<ellipse cx="4.6558" cy="4.13849" rx="4.6558" ry="4.13849" transform="matrix(0.757213 0.653168 -0.757213 0.653168 462.326 85.1162)" fill="#00FF01"/>
<ellipse cx="4.6558" cy="4.13849" rx="4.6558" ry="4.13849" transform="matrix(0.757213 0.653168 -0.757213 0.653168 481.259 14.4141)" fill="#00FF01"/>
<ellipse cx="4.6558" cy="3.62118" rx="4.6558" ry="3.62118" transform="matrix(0.757213 0.653168 -0.757213 0.653168 480.849 28.6094)" fill="#00FF01"/>
<ellipse cx="4.6558" cy="3.62118" rx="4.6558" ry="3.62118" transform="matrix(0.757213 0.653168 -0.757213 0.653168 480.829 42.9443)" fill="#00FF01"/>
<ellipse cx="4.6558" cy="3.62118" rx="4.6558" ry="3.62118" transform="matrix(0.757213 0.653168 -0.757213 0.653168 480.809 57.2803)" fill="#00FF01"/>
<ellipse cx="4.6558" cy="3.62118" rx="4.6558" ry="3.62118" transform="matrix(0.757213 0.653168 -0.757213 0.653168 480.788 71.6162)" fill="#00FF01"/>
<ellipse cx="4.6558" cy="4.13849" rx="4.6558" ry="4.13849" transform="matrix(0.757213 0.653168 -0.757213 0.653168 481.162 85.1357)" fill="#00FF01"/>
<ellipse cx="4.6558" cy="4.13849" rx="4.6558" ry="4.13849" transform="matrix(0.757213 0.653168 -0.757213 0.653168 408.016 99.3945)" fill="#00FF01"/>
<ellipse cx="4.6558" cy="4.13849" rx="4.6558" ry="4.13849" transform="matrix(0.757213 0.653168 -0.757213 0.653168 425.743 99.4121)" fill="#00FF01"/>
<ellipse cx="4.6558" cy="4.13849" rx="4.6558" ry="4.13849" transform="matrix(0.757213 0.653168 -0.757213 0.653168 444.578 99.4326)" fill="#00FF01"/>
<ellipse cx="4.6558" cy="4.13849" rx="4.6558" ry="4.13849" transform="matrix(0.757213 0.653168 -0.757213 0.653168 462.305 99.4512)" fill="#00FF01"/>
<ellipse cx="4.6558" cy="4.13849" rx="4.6558" ry="4.13849" transform="matrix(0.757213 0.653168 -0.757213 0.653168 498.986 14.4316)" fill="#00FF01"/>
<ellipse cx="4.6558" cy="3.62118" rx="4.6558" ry="3.62118" transform="matrix(0.757213 0.653168 -0.757213 0.653168 498.575 28.6279)" fill="#00FF01"/>
<ellipse cx="4.6558" cy="3.62118" rx="4.6558" ry="3.62118" transform="matrix(0.757213 0.653168 -0.757213 0.653168 498.556 42.9629)" fill="#00FF01"/>
<ellipse cx="4.6558" cy="3.62118" rx="4.6558" ry="3.62118" transform="matrix(0.757213 0.653168 -0.757213 0.653168 498.535 57.2988)" fill="#00FF01"/>
<ellipse cx="4.6558" cy="3.62118" rx="4.6558" ry="3.62118" transform="matrix(0.757213 0.653168 -0.757213 0.653168 498.515 71.6338)" fill="#00FF01"/>
<ellipse cx="4.6558" cy="4.13849" rx="4.6558" ry="4.13849" transform="matrix(0.757213 0.653168 -0.757213 0.653168 498.888 85.1533)" fill="#00FF01"/>
<ellipse cx="4.6558" cy="3.62118" rx="4.6558" ry="3.62118" transform="matrix(0.757213 0.653168 -0.757213 0.653168 517.411 28.6484)" fill="#00FF01"/>
<ellipse cx="4.6558" cy="3.62118" rx="4.6558" ry="3.62118" transform="matrix(0.757213 0.653168 -0.757213 0.653168 517.391 42.9824)" fill="#00FF01"/>
<ellipse cx="4.6558" cy="3.62118" rx="4.6558" ry="3.62118" transform="matrix(0.757213 0.653168 -0.757213 0.653168 517.371 57.3193)" fill="#00FF01"/>
<ellipse cx="4.6558" cy="3.62118" rx="4.6558" ry="3.62118" transform="matrix(0.757213 0.653168 -0.757213 0.653168 517.35 71.6533)" fill="#00FF01"/>
<g clip-path="url(#clip0_174_7901)">
<path d="M66.9738 494.235C69.1867 493.936 71.2766 492.096 71.6418 490.126C72.007 488.156 70.5092 486.802 68.2963 487.101C66.0834 487.401 63.9935 489.241 63.6283 491.211C63.2631 493.181 64.7609 494.535 66.9738 494.235Z" fill="#D5435D" fill-opacity="0.5"/>
<path d="M64.3288 508.504C66.5417 508.205 68.6316 506.365 68.9968 504.395C69.362 502.425 67.8642 501.07 65.6513 501.37C63.4384 501.669 61.3485 503.509 60.9833 505.479C60.6181 507.449 62.1159 508.803 64.3288 508.504Z" fill="#D5435D" fill-opacity="0.5"/>
<path d="M80.3552 506.335C82.5681 506.036 84.658 504.196 85.0232 502.226C85.3884 500.256 83.8905 498.902 81.6777 499.201C79.4648 499.5 77.3748 501.34 77.0097 503.31C76.6445 505.28 78.1423 506.635 80.3552 506.335Z" fill="#D5435D" fill-opacity="0.5"/>
<path d="M61.6835 522.773C63.8964 522.473 65.9864 520.633 66.3516 518.663C66.7168 516.693 65.2189 515.339 63.006 515.638C60.7932 515.938 58.7032 517.778 58.338 519.748C57.9728 521.718 59.4707 523.072 61.6835 522.773Z" fill="#D5435D" fill-opacity="0.5"/>
<path d="M77.7102 520.605C79.923 520.305 82.013 518.465 82.3782 516.495C82.7434 514.525 81.2455 513.171 79.0326 513.47C76.8198 513.77 74.7298 515.61 74.3646 517.58C73.9994 519.55 75.4973 520.904 77.7102 520.605Z" fill="#D5435D" fill-opacity="0.5"/>
<path d="M93.7375 518.436C95.9504 518.136 98.0403 516.296 98.4055 514.326C98.7707 512.356 97.2729 511.002 95.06 511.302C92.8471 511.601 90.7572 513.441 90.392 515.411C90.0268 517.381 91.5246 518.735 93.7375 518.436Z" fill="#D5435D" fill-opacity="0.5"/>
<path d="M59.0388 537.041C61.2516 536.742 63.3416 534.902 63.7068 532.932C64.072 530.962 62.5741 529.608 60.3613 529.907C58.1484 530.206 56.0584 532.046 55.6932 534.016C55.328 535.986 56.8259 537.341 59.0388 537.041Z" fill="#D5435D" fill-opacity="0.5"/>
<path d="M75.0651 534.872C77.278 534.573 79.368 532.733 79.7332 530.763C80.0983 528.793 78.6005 527.439 76.3876 527.738C74.1748 528.038 72.0848 529.877 71.7196 531.847C71.3544 533.817 72.8523 535.172 75.0651 534.872Z" fill="#D5435D" fill-opacity="0.5"/>
<path d="M91.0925 532.703C93.3054 532.404 95.3953 530.564 95.7605 528.594C96.1257 526.624 94.6279 525.27 92.415 525.569C90.2021 525.869 88.1122 527.708 87.747 529.678C87.3818 531.648 88.8796 533.003 91.0925 532.703Z" fill="#D5435D" fill-opacity="0.5"/>
<path d="M107.119 530.534C109.332 530.235 111.422 528.395 111.787 526.425C112.152 524.455 110.654 523.101 108.441 523.4C106.228 523.7 104.139 525.539 103.773 527.509C103.408 529.479 104.906 530.834 107.119 530.534Z" fill="#D5435D" fill-opacity="0.5"/>
<path d="M56.3937 551.309C58.6066 551.009 60.6966 549.169 61.0618 547.199C61.427 545.229 59.9291 543.875 57.7162 544.175C55.5034 544.474 53.4134 546.314 53.0482 548.284C52.683 550.254 54.1809 551.608 56.3937 551.309Z" fill="#D5435D" fill-opacity="0.5"/>
<path d="M72.4201 549.14C74.633 548.84 76.7229 547.001 77.0881 545.031C77.4533 543.06 75.9555 541.706 73.7426 542.006C71.5297 542.305 69.4398 544.145 69.0746 546.115C68.7094 548.085 70.2072 549.439 72.4201 549.14Z" fill="#D5435D" fill-opacity="0.5"/>
<path d="M88.4475 546.972C90.6603 546.672 92.7503 544.833 93.1155 542.863C93.4807 540.892 91.9828 539.538 89.77 539.838C87.5571 540.137 85.4671 541.977 85.1019 543.947C84.7367 545.917 86.2346 547.271 88.4475 546.972Z" fill="#D5435D" fill-opacity="0.5"/>
<path d="M104.474 544.803C106.687 544.503 108.777 542.664 109.142 540.694C109.507 538.724 108.009 537.369 105.797 537.669C103.584 537.968 101.494 539.808 101.129 541.778C100.763 543.748 102.261 545.102 104.474 544.803Z" fill="#D5435D" fill-opacity="0.5"/>
<path d="M120.501 542.634C122.714 542.334 124.804 540.495 125.169 538.525C125.534 536.555 124.036 535.2 121.823 535.5C119.61 535.799 117.52 537.639 117.155 539.609C116.79 541.579 118.288 542.933 120.501 542.634Z" fill="#D5435D" fill-opacity="0.5"/>
<path d="M53.7487 565.577C55.9616 565.278 58.0515 563.438 58.4167 561.468C58.7819 559.498 57.2841 558.144 55.0712 558.443C52.8583 558.743 50.7684 560.582 50.4032 562.552C50.038 564.522 51.5358 565.877 53.7487 565.577Z" fill="#D5435D" fill-opacity="0.5"/>
<path d="M69.7753 563.408C71.9882 563.109 74.0782 561.269 74.4434 559.299C74.8086 557.329 73.3107 555.975 71.0978 556.274C68.885 556.574 66.795 558.413 66.4298 560.383C66.0646 562.353 67.5625 563.708 69.7753 563.408Z" fill="#D5435D" fill-opacity="0.5"/>
<path d="M85.8027 561.239C88.0156 560.94 90.1055 559.1 90.4707 557.13C90.8359 555.16 89.3381 553.806 87.1252 554.105C84.9123 554.405 82.8224 556.244 82.4572 558.215C82.092 560.185 83.5898 561.539 85.8027 561.239Z" fill="#D5435D" fill-opacity="0.5"/>
<path d="M101.829 559.07C104.042 558.771 106.132 556.931 106.497 554.961C106.862 552.991 105.364 551.637 103.152 551.936C100.939 552.236 98.8487 554.076 98.4835 556.046C98.1183 558.016 99.6162 559.37 101.829 559.07Z" fill="#D5435D" fill-opacity="0.5"/>
<path d="M117.856 556.901C120.069 556.602 122.158 554.762 122.524 552.792C122.889 550.822 121.391 549.468 119.178 549.767C116.965 550.067 114.875 551.907 114.51 553.877C114.145 555.847 115.643 557.201 117.856 556.901Z" fill="#D5435D" fill-opacity="0.5"/>
<path d="M133.886 554.733C136.099 554.433 138.189 552.593 138.554 550.623C138.919 548.653 137.421 547.299 135.208 547.598C132.996 547.898 130.906 549.738 130.54 551.708C130.175 553.678 131.673 555.032 133.886 554.733Z" fill="#D5435D" fill-opacity="0.5"/>
<path d="M51.1035 579.846C53.3163 579.546 55.4063 577.707 55.7715 575.737C56.1367 573.767 54.6388 572.412 52.426 572.712C50.2131 573.011 48.1231 574.851 47.7579 576.821C47.3927 578.791 48.8906 580.145 51.1035 579.846Z" fill="#D5435D" fill-opacity="0.5"/>
<path d="M67.1301 577.678C69.343 577.378 71.4329 575.539 71.7981 573.569C72.1633 571.599 70.6654 570.244 68.4526 570.544C66.2397 570.843 64.1498 572.683 63.7846 574.653C63.4194 576.623 64.9172 577.977 67.1301 577.678Z" fill="#D5435D" fill-opacity="0.5"/>
<path d="M83.1574 575.509C85.3703 575.209 87.4602 573.37 87.8254 571.4C88.1906 569.43 86.6928 568.075 84.4799 568.375C82.267 568.674 80.1771 570.514 79.8119 572.484C79.4467 574.454 80.9445 575.808 83.1574 575.509Z" fill="#D5435D" fill-opacity="0.5"/>
<path d="M99.1838 573.34C101.397 573.041 103.487 571.201 103.852 569.231C104.217 567.261 102.719 565.906 100.506 566.206C98.2934 566.505 96.2035 568.345 95.8383 570.315C95.4731 572.285 96.9709 573.639 99.1838 573.34Z" fill="#D5435D" fill-opacity="0.5"/>
<path d="M115.21 571.171C117.423 570.872 119.513 569.032 119.878 567.062C120.244 565.092 118.746 563.737 116.533 564.037C114.32 564.336 112.23 566.176 111.865 568.146C111.5 570.116 112.998 571.47 115.21 571.171Z" fill="#D5435D" fill-opacity="0.5"/>
<path d="M131.241 569.002C133.454 568.703 135.543 566.863 135.909 564.893C136.274 562.923 134.776 561.569 132.563 561.868C130.35 562.167 128.26 564.007 127.895 565.977C127.53 567.947 129.028 569.302 131.241 569.002Z" fill="#D5435D" fill-opacity="0.5"/>
<path d="M147.267 566.833C149.48 566.534 151.57 564.694 151.935 562.724C152.301 560.754 150.803 559.4 148.59 559.699C146.377 559.998 144.287 561.838 143.922 563.808C143.557 565.778 145.054 567.133 147.267 566.833Z" fill="#D5435D" fill-opacity="0.5"/>
<path d="M48.4587 594.114C50.6716 593.815 52.7615 591.975 53.1267 590.005C53.4919 588.035 51.9941 586.681 49.7812 586.98C47.5683 587.28 45.4784 589.119 45.1132 591.09C44.748 593.06 46.2458 594.414 48.4587 594.114Z" fill="#D5435D" fill-opacity="0.5"/>
<path d="M64.4851 591.945C66.6979 591.646 68.7879 589.806 69.1531 587.836C69.5183 585.866 68.0204 584.512 65.8076 584.811C63.5947 585.111 61.5047 586.951 61.1395 588.921C60.7743 590.891 62.2722 592.245 64.4851 591.945Z" fill="#D5435D" fill-opacity="0.5"/>
<path d="M80.5124 589.776C82.7253 589.477 84.8152 587.637 85.1804 585.667C85.5456 583.697 84.0478 582.343 81.8349 582.642C79.622 582.942 77.5321 584.782 77.1669 586.752C76.8017 588.722 78.2995 590.076 80.5124 589.776Z" fill="#D5435D" fill-opacity="0.5"/>
<path d="M96.539 587.608C98.7519 587.308 100.842 585.468 101.207 583.498C101.572 581.528 100.074 580.174 97.8615 580.473C95.6486 580.773 93.5587 582.613 93.1935 584.583C92.8283 586.553 94.3261 587.907 96.539 587.608Z" fill="#D5435D" fill-opacity="0.5"/>
<path d="M112.566 585.44C114.778 585.14 116.868 583.3 117.234 581.33C117.599 579.36 116.101 578.006 113.888 578.305C111.675 578.605 109.585 580.445 109.22 582.415C108.855 584.385 110.353 585.739 112.566 585.44Z" fill="#D5435D" fill-opacity="0.5"/>
<path d="M128.596 583.27C130.809 582.97 132.898 581.13 133.264 579.16C133.629 577.19 132.131 575.836 129.918 576.136C127.705 576.435 125.615 578.275 125.25 580.245C124.885 582.215 126.383 583.569 128.596 583.27Z" fill="#D5435D" fill-opacity="0.5"/>
<path d="M144.623 581.101C146.835 580.801 148.925 578.961 149.291 576.991C149.656 575.021 148.158 573.667 145.945 573.967C143.732 574.266 141.642 576.106 141.277 578.076C140.912 580.046 142.41 581.4 144.623 581.101Z" fill="#D5435D" fill-opacity="0.5"/>
<path d="M160.649 578.933C162.862 578.633 164.952 576.794 165.317 574.823C165.682 572.853 164.184 571.499 161.972 571.799C159.759 572.098 157.669 573.938 157.304 575.908C156.938 577.878 158.436 579.232 160.649 578.933Z" fill="#D5435D" fill-opacity="0.5"/>
<path d="M45.8137 608.382C48.0265 608.083 50.1165 606.243 50.4817 604.273C50.8469 602.303 49.349 600.948 47.1362 601.248C44.9233 601.547 42.8333 603.387 42.4681 605.357C42.1029 607.327 43.6008 608.681 45.8137 608.382Z" fill="#D5435D" fill-opacity="0.5"/>
<path d="M61.8403 606.213C64.0532 605.914 66.1431 604.074 66.5083 602.104C66.8735 600.134 65.3757 598.779 63.1628 599.079C60.9499 599.378 58.86 601.218 58.4948 603.188C58.1296 605.158 59.6274 606.512 61.8403 606.213Z" fill="#D5435D" fill-opacity="0.5"/>
<path d="M77.8676 604.044C80.0805 603.745 82.1704 601.905 82.5356 599.935C82.9008 597.965 81.403 596.61 79.1901 596.91C76.9772 597.209 74.8873 599.049 74.5221 601.019C74.1569 602.989 75.6547 604.344 77.8676 604.044Z" fill="#D5435D" fill-opacity="0.5"/>
<path d="M93.894 601.876C96.1069 601.577 98.1968 599.737 98.562 597.767C98.9272 595.797 97.4294 594.443 95.2165 594.742C93.0036 595.041 90.9137 596.881 90.5485 598.851C90.1833 600.821 91.6811 602.176 93.894 601.876Z" fill="#D5435D" fill-opacity="0.5"/>
<path d="M109.921 599.707C112.133 599.408 114.223 597.568 114.589 595.598C114.954 593.628 113.456 592.274 111.243 592.573C109.03 592.872 106.94 594.712 106.575 596.682C106.21 598.652 107.708 600.007 109.921 599.707Z" fill="#D5435D" fill-opacity="0.5"/>
<path d="M125.951 597.538C128.164 597.239 130.254 595.399 130.619 593.429C130.984 591.459 129.486 590.105 127.273 590.404C125.06 590.704 122.971 592.543 122.605 594.513C122.24 596.483 123.738 597.838 125.951 597.538Z" fill="#D5435D" fill-opacity="0.5"/>
<path d="M141.977 595.369C144.19 595.07 146.28 593.23 146.646 591.26C147.011 589.29 145.513 587.936 143.3 588.235C141.087 588.535 138.997 590.374 138.632 592.344C138.267 594.314 139.765 595.669 141.977 595.369Z" fill="#D5435D" fill-opacity="0.5"/>
<path d="M158.004 593.2C160.217 592.901 162.307 591.061 162.672 589.091C163.038 587.121 161.54 585.767 159.327 586.066C157.114 586.366 155.024 588.205 154.659 590.175C154.294 592.145 155.791 593.5 158.004 593.2Z" fill="#D5435D" fill-opacity="0.5"/>
<path d="M174.031 591.031C176.244 590.732 178.334 588.892 178.699 586.922C179.064 584.952 177.566 583.598 175.353 583.897C173.141 584.197 171.051 586.036 170.685 588.007C170.32 589.977 171.818 591.331 174.031 591.031Z" fill="#D5435D" fill-opacity="0.5"/>
</g>
<path d="M643.711 359.344L647.194 368.919H658.463L649.346 374.837L652.829 384.412L643.711 378.495L634.594 384.412L638.077 374.837L628.959 368.919H640.229L643.711 359.344Z" fill="#9DE8B2"/>
<path d="M665.87 342.142L668.357 349.076H676.407L669.895 353.361L672.382 360.295L665.87 356.009L659.358 360.295L661.845 353.361L655.333 349.076H663.382L665.87 342.142Z" fill="#9DE8B2"/>
<path d="M679.719 376.547L683.824 387.113H697.105L686.36 393.643L690.464 404.209L679.719 397.679L668.974 404.209L673.078 393.643L662.333 387.113H675.615L679.719 376.547Z" fill="#9DE8B2"/>
<path d="M77.279 26.1663L68.0785 32.3085L71.9919 41.4245L62.3922 36.1046L53.1917 42.2468L56.4593 32.8166L46.8595 27.4967L58.4787 26.9885L61.7463 17.5584L65.6598 26.6745L77.279 26.1663Z" fill="#9FFFEA" fill-opacity="0.75"/>
<path d="M103.675 38.1185L97.001 42.5385L99.7963 49.05L92.876 45.2703L86.2016 49.6903L88.599 42.9343L81.6786 39.1546L90.0806 38.7588L92.478 32.0028L95.2733 38.5142L103.675 38.1185Z" fill="#9FFFEA" fill-opacity="0.75"/>
<path d="M71.0812 61.2682L61.0197 68.2574L65.632 79.0013L54.8014 72.577L44.7399 79.5662L48.1077 68.6065L37.2771 62.1822L50.1891 61.8331L53.5569 50.8734L58.1692 61.6173L71.0812 61.2682Z" fill="#9FFFEA" fill-opacity="0.75"/>
<rect x="331.728" y="584.888" width="5.82076" height="26.1702" fill="#F6FCB1" fill-opacity="0.75"/>
<rect x="342.538" y="602.553" width="17.4623" height="17.0107" fill="#F6FCB1" fill-opacity="0.75"/>
<rect x="349.19" y="579" width="7.48383" height="18.9734" fill="#F6FCB1" fill-opacity="0.75"/>
<path d="M628.2 113.742C628.2 107.929 632.912 103.217 638.725 103.217C644.538 103.217 649.25 107.929 649.25 113.742V136.654C649.25 142.467 644.538 147.179 638.725 147.179C632.912 147.179 628.2 142.467 628.2 136.654V113.742Z" fill="#9E97F3" fill-opacity="0.6"/>
<path d="M659.222 136.167C659.222 134.331 660.71 132.843 662.546 132.843C664.382 132.843 665.87 134.331 665.87 136.167V162.013C665.87 163.848 664.382 165.337 662.546 165.337C660.71 165.337 659.222 163.848 659.222 162.013V136.167Z" fill="#9E97F3" fill-opacity="0.6"/>
<path d="M655.898 97.3968C655.898 90.054 661.851 84.1016 669.193 84.1016C676.536 84.1016 682.489 90.054 682.489 97.3968V103.3C682.489 110.643 676.536 116.595 669.193 116.595C661.851 116.595 655.898 110.643 655.898 103.3V97.3968Z" fill="#9E97F3" fill-opacity="0.6"/>
<defs>
<clipPath id="clip0_174_7901">
<rect width="154.466" height="138.594" fill="white" transform="matrix(-0.990968 0.1341 0.182271 -0.983248 194.064 588.32)"/>
</clipPath>
</defs>
</svg>
