<svg width="1070" height="607" viewBox="0 0 1070 607" fill="none" xmlns="http://www.w3.org/2000/svg">
<g opacity="0.2" clip-path="url(#clip0_644_3360)">
<path d="M823.552 458.486C867.564 359.336 854.25 248.624 797.486 163.595L203.288 237.73L772.72 130.796C532.728 -138.871 65.6195 39.9961 110.646 380.47L823.552 458.486Z" fill="#E6E6E6"/>
<path d="M849.757 348.885H92.7393V561.295H849.757V348.885Z" fill="#00FF01"/>
<path d="M303.864 322.98C310.656 327.733 313.14 329.268 314.586 329.073C384.666 347.462 323.231 369.012 289.181 332.431L303.864 322.98Z" fill="#FFB8B8"/>
<path d="M72.6162 517.258V560.432L107.113 558.705L97.5309 513.805L72.6162 517.258Z" fill="#FFB8B8"/>
<path d="M264.266 517.258V560.432L229.769 558.705L239.351 513.805L264.266 517.258Z" fill="#FFB8B8"/>
<path d="M158.858 294.487L210.604 292.76C329.974 405.523 284.83 379.804 281.514 534.528L218.27 517.259L231.685 410.19C231.692 410.186 235.224 408.064 232.288 408.015C213.926 413.701 200.529 343.303 160.775 351.475C115.536 349.525 108.171 409.996 89.8641 410.19L103.28 517.259L40.0352 534.528C32.9541 364.502 -1.75069 402.911 110.946 292.76L158.858 294.487Z" fill="#2F2E41"/>
<path d="M82.1985 546.617C82.1985 546.617 74.5325 532.802 64.95 539.71C55.3675 546.617 32.3695 567.34 32.3695 567.34C32.3695 567.34 -23.209 589.79 11.288 603.605C45.785 617.421 74.5325 584.609 74.5325 584.609C107.39 578.435 126.343 574.483 108.918 542.187C99.025 546.045 85.025 550.511 82.1985 546.617Z" fill="#2F2E41"/>
<path d="M254.683 546.617C254.683 546.617 262.349 532.802 271.932 539.71C281.514 546.617 304.512 567.34 304.512 567.34C304.512 567.34 360.091 589.79 325.594 603.605C291.097 617.421 262.349 584.609 262.349 584.609C229.491 578.435 210.539 574.483 227.964 542.187C237.857 546.045 251.857 550.511 254.683 546.617Z" fill="#2F2E41"/>
<path d="M210.604 99.3454C207.754 142.335 142.641 138.55 141.61 99.345C144.46 56.3554 209.573 60.1403 210.604 99.3454Z" fill="#FFB8B8"/>
<path d="M160.775 121.795C177.541 167.455 137.958 142.596 193.356 178.783L214.437 140.791C214.437 140.791 199.105 135.61 201.022 116.614L160.775 121.795Z" fill="#FFB8B8"/>
<path d="M264.266 147.699L207.135 135.949C208.742 166.989 171.98 160.742 165.566 145.128L110.946 173.603C133.871 250.542 128.061 253.716 97.5302 303.122C85.8783 312.709 103.304 318.204 118.474 312.958C130.044 306.523 135.92 300.805 148.318 302.26C206.902 313.252 255.672 315.846 263.39 311.551C266.152 307.989 263.31 148.318 264.266 147.699Z" fill="#575A89"/>
<path d="M248.934 151.153C250.85 151.153 260.722 146.971 260.722 146.971C289.444 146.534 308.719 320.623 310.262 325.572L291.097 337.66L260.433 266.857L248.934 151.153Z" fill="#575A89"/>
<path d="M114.779 353.202C115.759 359.719 117.427 432.91 146.524 398.721C150.341 373.778 137.362 366.332 133.944 349.748L114.779 353.202Z" fill="#FFB8B8"/>
<path d="M122.445 173.603L116.573 170.669C100.83 170.203 105.792 207.753 99.1312 235.253C93.6898 267.289 95.2391 302.614 101.623 349.841C102.181 367.172 136.63 356.254 141.61 354.929C141.61 354.929 130.111 284.125 135.861 272.037C141.61 259.949 122.445 173.603 122.445 173.603Z" fill="#575A89"/>
<path d="M209.096 69.2117C203.774 61.4241 195.444 55.6855 185.708 53.1003L178.557 58.2551L181.337 52.2426C178.999 51.9212 176.633 51.798 174.269 51.8745L167.835 59.3285L170.498 52.1299C142.89 54.801 126.556 83.3588 140.889 103.346C143.1 97.2234 145.783 91.4786 147.994 85.3562C149.732 85.5697 151.493 85.5774 153.233 85.3792L155.923 79.7237L156.674 85.14C165.011 84.4855 177.378 83.0485 185.282 81.7319L184.513 77.5768L189.112 81.0297C191.533 80.5273 192.971 80.0718 192.852 79.7237C198.731 88.263 204.555 93.7172 210.433 102.256C212.665 90.2115 216.604 80.1994 209.096 69.2117Z" fill="#2F2E41"/>
<path d="M804.446 374.508H637.26V445.969H804.446V374.508Z" fill="white"/>
<path d="M772.83 389.477H668.875V398.045H772.83V389.477Z" fill="#E6E6E6"/>
<path d="M772.83 405.955H668.875V414.524H772.83V405.955Z" fill="#E6E6E6"/>
<path d="M772.83 422.432H668.875V431H772.83V422.432Z" fill="#E6E6E6"/>
<path d="M491.668 391.483L486.229 382.996L480.792 374.508L475.354 382.996L469.915 391.483H475.758V416.06H485.824V391.483H491.668Z" fill="white"/>
<path d="M860.158 566.363C884.889 566.363 904.937 548.298 904.937 526.013C904.937 503.729 884.889 485.664 860.158 485.664C835.427 485.664 815.379 503.729 815.379 526.013C815.379 548.298 835.427 566.363 860.158 566.363Z" fill="#3F3D56"/>
<path d="M868.3 543.895C879.26 543.895 888.145 535.889 888.145 526.013C888.145 516.137 879.26 508.131 868.3 508.131C857.34 508.131 848.455 516.137 848.455 526.013C848.455 535.889 857.34 543.895 868.3 543.895Z" fill="#E6E6E6"/>
<path d="M831.917 554.211L929.617 590.892L926.564 599.604L870.335 593.872L775.18 555.816L828.1 561.318L831.917 554.211Z" fill="#3F3D56"/>
<path d="M918.278 589.239L1039.79 230.074L1069.38 182.723L1069.48 182.266C1069.58 181.848 1071.75 171.951 1066.41 164.784C1065.06 163.002 1063.32 161.49 1061.3 160.341C1059.27 159.191 1057.01 158.43 1054.64 158.105C1038.31 155.346 1001.77 153.986 1000.23 153.93L999.935 153.919L999.646 153.955C998.647 154.077 975.298 157.153 970.019 175.525L944.616 217.185L944.516 217.481L829.516 558.158L835.844 559.892L950.745 219.512L976.233 177.712L976.337 177.328C980.069 163.502 997.913 160.268 1000.29 159.898C1004.02 160.041 1038.36 161.418 1053.42 163.963C1054.92 164.147 1056.35 164.609 1057.64 165.319C1058.93 166.029 1060.04 166.972 1060.9 168.089C1064.19 172.483 1063.37 178.953 1063.08 180.654L1033.67 227.715L1033.57 228.025L911.95 587.501L918.278 589.239Z" fill="#3F3D56"/>
<path d="M936.045 251.629L934.869 257.495L1022.63 271.777L1023.8 265.911L936.045 251.629Z" fill="#3F3D56"/>
<path d="M919.655 300.412L918.332 306.252L1005.46 322.276L1006.79 316.436L919.655 300.412Z" fill="#3F3D56"/>
<path d="M890.472 387.656L888.652 393.387L973.72 415.32L975.54 409.589L890.472 387.656Z" fill="#3F3D56"/>
<path d="M948.002 556.758L950.414 551.206L867.845 522.073L863.79 482.515L940.856 508.452L965.823 541.003L971.266 537.615L945.116 503.522L856.234 473.607L861.633 526.283L948.002 556.758Z" fill="#3F3D56"/>
<path d="M976.685 604.876C1001.42 604.876 1021.46 586.811 1021.46 564.527C1021.46 542.243 1001.42 524.178 976.685 524.178C951.954 524.178 931.906 542.243 931.906 564.527C931.906 586.811 951.954 604.876 976.685 604.876Z" fill="#3F3D56"/>
<path d="M988.388 584.245C999.348 584.245 1008.23 576.239 1008.23 566.363C1008.23 556.487 999.348 548.48 988.388 548.48C977.428 548.48 968.543 556.487 968.543 566.363C968.543 576.239 977.428 584.245 988.388 584.245Z" fill="#E6E6E6"/>
</g>
<defs>
<clipPath id="clip0_644_3360">
<rect width="1070" height="607" fill="white"/>
</clipPath>
</defs>
</svg>
