<svg width="473" height="456" viewBox="0 0 473 456" fill="none" xmlns="http://www.w3.org/2000/svg">
<ellipse cx="363.711" cy="359.5" rx="97.7107" ry="57.5" fill="#6994F4" fill-opacity="0.5"/>
<path d="M124.526 431.096C124.526 436.613 120.053 441.086 114.536 441.086V441.086C109.019 441.086 104.546 436.613 104.546 431.096V417.755C104.546 412.238 109.019 407.765 114.536 407.765V407.765C120.053 407.765 124.526 412.238 124.526 417.755V431.096Z" fill="#9E97F3" fill-opacity="0.6"/>
<path d="M95.082 415.474C95.082 417.217 93.6696 418.629 91.9274 418.629V418.629C90.1851 418.629 88.7727 417.217 88.7727 415.474V397.155C88.7727 395.413 90.1851 394.001 91.9274 394.001V394.001C93.6696 394.001 95.082 395.413 95.082 397.155V415.474Z" fill="#9E97F3" fill-opacity="0.6"/>
<path d="M98.2373 443.26C98.2373 450.061 92.7241 455.574 85.9232 455.574H85.3143C78.5134 455.574 73.0001 450.061 73.0001 443.26V443.26C73.0001 436.459 78.5134 430.946 85.3143 430.946H85.9232C92.7241 430.946 98.2373 436.459 98.2373 443.26V443.26Z" fill="#9E97F3" fill-opacity="0.6"/>
<path d="M369.535 25.115C369.535 21.4314 372.521 18.4453 376.205 18.4453V18.4453C379.888 18.4453 382.874 21.4314 382.874 25.115V28.8613C382.874 32.5448 379.888 35.5309 376.205 35.5309V35.5309C372.521 35.5309 369.535 32.5448 369.535 28.8613V25.115Z" fill="#00FF01" fill-opacity="0.4"/>
<path d="M389.193 32.0652C389.193 30.902 390.136 29.959 391.3 29.959V29.959C392.463 29.959 393.406 30.902 393.406 32.0652V40.4813C393.406 41.6445 392.463 42.5875 391.3 42.5875V42.5875C390.136 42.5875 389.193 41.6445 389.193 40.4813V32.0652Z" fill="#00FF01" fill-opacity="0.4"/>
<path d="M387.087 17.3299C387.087 13.8426 389.914 11.0156 393.401 11.0156H397.622C401.109 11.0156 403.936 13.8426 403.936 17.3299V17.3299C403.936 20.8171 401.109 23.6441 397.622 23.6441H393.401C389.914 23.6441 387.087 20.8171 387.087 17.3299V17.3299Z" fill="#00FF01" fill-opacity="0.4"/>
<path d="M55.2717 14.0529L46.5394 18.7083L50.2537 25.6177L41.1426 21.5855L32.4103 26.2409L35.5116 19.0935L26.4004 15.0613L37.4283 14.6761L40.5296 7.5287L44.2439 14.4381L55.2717 14.0529Z" fill="#9FFFEA" fill-opacity="0.75"/>
<path d="M80.3247 23.1112L73.99 26.4613L76.6431 31.3966L70.075 28.5318L63.7403 31.8819L66.0157 26.7613L59.4476 23.8965L67.4219 23.5965L69.6973 18.4759L72.3504 23.4111L80.3247 23.1112Z" fill="#9FFFEA" fill-opacity="0.75"/>
<path d="M49.3897 40.6593L39.8403 45.9567L44.2179 54.1L33.9384 49.2307L24.389 54.5281L27.5854 46.2213L17.306 41.3521L29.5609 41.0875L32.7573 32.7807L37.1348 40.924L49.3897 40.6593Z" fill="#9FFFEA" fill-opacity="0.75"/>
<path d="M265.52 61C265.52 85.8528 233.5 106 194 106C194 106 194 85.8528 194 61C194 36.1472 194 16 194 16C233.5 16 265.52 36.1472 265.52 61Z" fill="#FF9900" fill-opacity="0.5"/>
</svg>
