<svg width="473" height="393" viewBox="0 0 473 393" fill="none" xmlns="http://www.w3.org/2000/svg">
<g opacity="0.7" clip-path="url(#clip0_319_10165)">
<path d="M445.935 95.1754C444.229 95.1754 442.846 96.359 442.846 97.8191C442.846 99.2792 444.229 100.463 445.935 100.463C447.641 100.463 449.024 99.2792 449.024 97.8191C449.024 96.359 447.641 95.1754 445.935 95.1754Z" fill="#E1EAF1"/>
<path d="M433.619 95.1754C431.913 95.1754 430.53 96.359 430.53 97.8191C430.53 99.2792 431.913 100.463 433.619 100.463C435.325 100.463 436.708 99.2792 436.708 97.8191C436.708 96.359 435.325 95.1754 433.619 95.1754Z" fill="#E1EAF1"/>
<path d="M421.303 95.1754C419.597 95.1754 418.214 96.359 418.214 97.8191C418.214 99.2792 419.597 100.463 421.303 100.463C423.008 100.463 424.391 99.2792 424.391 97.8191C424.391 96.359 423.008 95.1754 421.303 95.1754Z" fill="#E1EAF1"/>
<path d="M408.986 95.1754C407.28 95.1754 405.897 96.359 405.897 97.8191C405.897 99.2792 407.28 100.463 408.986 100.463C410.692 100.463 412.075 99.2792 412.075 97.8191C412.075 96.359 410.692 95.1754 408.986 95.1754Z" fill="#E1EAF1"/>
<path d="M396.67 95.1754C394.964 95.1754 393.581 96.359 393.581 97.8191C393.581 99.2792 394.964 100.463 396.67 100.463C398.376 100.463 399.759 99.2792 399.759 97.8191C399.759 96.359 398.376 95.1754 396.67 95.1754Z" fill="#E1EAF1"/>
<path d="M384.354 95.1754C382.648 95.1754 381.265 96.359 381.265 97.8191C381.265 99.2792 382.648 100.463 384.354 100.463C386.06 100.463 387.443 99.2792 387.443 97.8191C387.443 96.359 386.06 95.1754 384.354 95.1754Z" fill="#E1EAF1"/>
<path d="M372.037 95.1754C370.332 95.1754 368.949 96.359 368.949 97.8191C368.949 99.2792 370.332 100.463 372.037 100.463C373.743 100.463 375.126 99.2792 375.126 97.8191C375.126 96.359 373.743 95.1754 372.037 95.1754Z" fill="#E1EAF1"/>
<path d="M359.721 95.1754C358.015 95.1754 356.633 96.359 356.633 97.8191C356.633 99.2792 358.015 100.463 359.721 100.463C361.427 100.463 362.81 99.2792 362.81 97.8191C362.81 96.359 361.427 95.1754 359.721 95.1754Z" fill="#E1EAF1"/>
<path d="M347.405 95.1754C345.699 95.1754 344.316 96.359 344.316 97.8191C344.316 99.2792 345.699 100.463 347.405 100.463C349.111 100.463 350.494 99.2792 350.494 97.8191C350.494 96.359 349.111 95.1754 347.405 95.1754Z" fill="#E1EAF1"/>
<path d="M335.089 95.1754C333.383 95.1754 332 96.359 332 97.8191C332 99.2792 333.383 100.463 335.089 100.463C336.795 100.463 338.177 99.2792 338.177 97.8191C338.177 96.359 336.795 95.1754 335.089 95.1754Z" fill="#E1EAF1"/>
<path d="M445.935 84.6011C444.229 84.6011 442.846 85.7848 442.846 87.2449C442.846 88.705 444.229 89.8887 445.935 89.8887C447.641 89.8887 449.024 88.705 449.024 87.2449C449.024 85.7848 447.641 84.6011 445.935 84.6011Z" fill="#E1EAF1"/>
<path d="M433.619 84.6011C431.913 84.6011 430.53 85.7848 430.53 87.2449C430.53 88.705 431.913 89.8887 433.619 89.8887C435.325 89.8887 436.708 88.705 436.708 87.2449C436.708 85.7848 435.325 84.6011 433.619 84.6011Z" fill="#E1EAF1"/>
<path d="M421.303 84.6011C419.597 84.6011 418.214 85.7848 418.214 87.2449C418.214 88.705 419.597 89.8887 421.303 89.8887C423.008 89.8887 424.391 88.705 424.391 87.2449C424.391 85.7848 423.008 84.6011 421.303 84.6011Z" fill="#E1EAF1"/>
<path d="M408.986 84.6011C407.28 84.6011 405.897 85.7848 405.897 87.2449C405.897 88.705 407.28 89.8887 408.986 89.8887C410.692 89.8887 412.075 88.705 412.075 87.2449C412.075 85.7848 410.692 84.6011 408.986 84.6011Z" fill="#E1EAF1"/>
<path d="M396.67 84.6011C394.964 84.6011 393.581 85.7848 393.581 87.2449C393.581 88.705 394.964 89.8887 396.67 89.8887C398.376 89.8887 399.759 88.705 399.759 87.2449C399.759 85.7848 398.376 84.6011 396.67 84.6011Z" fill="#E1EAF1"/>
<path d="M384.354 84.6011C382.648 84.6011 381.265 85.7848 381.265 87.2449C381.265 88.705 382.648 89.8887 384.354 89.8887C386.06 89.8887 387.443 88.705 387.443 87.2449C387.443 85.7848 386.06 84.6011 384.354 84.6011Z" fill="#E1EAF1"/>
<path d="M372.037 84.6011C370.332 84.6011 368.949 85.7848 368.949 87.2449C368.949 88.705 370.332 89.8887 372.037 89.8887C373.743 89.8887 375.126 88.705 375.126 87.2449C375.126 85.7848 373.743 84.6011 372.037 84.6011Z" fill="#E1EAF1"/>
<path d="M359.721 84.6011C358.015 84.6011 356.633 85.7848 356.633 87.2449C356.633 88.705 358.015 89.8887 359.721 89.8887C361.427 89.8887 362.81 88.705 362.81 87.2449C362.81 85.7848 361.427 84.6011 359.721 84.6011Z" fill="#E1EAF1"/>
<path d="M347.405 84.6011C345.699 84.6011 344.316 85.7848 344.316 87.2449C344.316 88.705 345.699 89.8887 347.405 89.8887C349.111 89.8887 350.494 88.705 350.494 87.2449C350.494 85.7848 349.111 84.6011 347.405 84.6011Z" fill="#E1EAF1"/>
<path d="M335.089 84.6011C333.383 84.6011 332 85.7848 332 87.2449C332 88.705 333.383 89.8887 335.089 89.8887C336.795 89.8887 338.177 88.705 338.177 87.2449C338.177 85.7848 336.795 84.6011 335.089 84.6011Z" fill="#E1EAF1"/>
<path d="M445.935 74.025C444.229 74.025 442.846 75.2086 442.846 76.6687C442.846 78.1288 444.229 79.3125 445.935 79.3125C447.641 79.3125 449.024 78.1288 449.024 76.6687C449.024 75.2086 447.641 74.025 445.935 74.025Z" fill="#E1EAF1"/>
<path d="M433.619 74.025C431.913 74.025 430.53 75.2086 430.53 76.6687C430.53 78.1288 431.913 79.3125 433.619 79.3125C435.325 79.3125 436.708 78.1288 436.708 76.6687C436.708 75.2086 435.325 74.025 433.619 74.025Z" fill="#E1EAF1"/>
<path d="M421.303 74.025C419.597 74.025 418.214 75.2086 418.214 76.6687C418.214 78.1288 419.597 79.3125 421.303 79.3125C423.008 79.3125 424.391 78.1288 424.391 76.6687C424.391 75.2086 423.008 74.025 421.303 74.025Z" fill="#E1EAF1"/>
<path d="M408.986 74.025C407.28 74.025 405.897 75.2086 405.897 76.6687C405.897 78.1288 407.28 79.3125 408.986 79.3125C410.692 79.3125 412.075 78.1288 412.075 76.6687C412.075 75.2086 410.692 74.025 408.986 74.025Z" fill="#E1EAF1"/>
<path d="M396.67 74.025C394.964 74.025 393.581 75.2086 393.581 76.6687C393.581 78.1288 394.964 79.3125 396.67 79.3125C398.376 79.3125 399.759 78.1288 399.759 76.6687C399.759 75.2086 398.376 74.025 396.67 74.025Z" fill="#E1EAF1"/>
<path d="M384.354 74.025C382.648 74.025 381.265 75.2086 381.265 76.6687C381.265 78.1288 382.648 79.3125 384.354 79.3125C386.06 79.3125 387.443 78.1288 387.443 76.6687C387.443 75.2086 386.06 74.025 384.354 74.025Z" fill="#E1EAF1"/>
<path d="M372.037 74.025C370.332 74.025 368.949 75.2086 368.949 76.6687C368.949 78.1288 370.332 79.3125 372.037 79.3125C373.743 79.3125 375.126 78.1288 375.126 76.6687C375.126 75.2086 373.743 74.025 372.037 74.025Z" fill="#E1EAF1"/>
<path d="M359.721 74.025C358.015 74.025 356.633 75.2086 356.633 76.6687C356.633 78.1288 358.015 79.3125 359.721 79.3125C361.427 79.3125 362.81 78.1288 362.81 76.6687C362.81 75.2086 361.427 74.025 359.721 74.025Z" fill="#E1EAF1"/>
<path d="M347.405 74.025C345.699 74.025 344.316 75.2086 344.316 76.6687C344.316 78.1288 345.699 79.3125 347.405 79.3125C349.111 79.3125 350.494 78.1288 350.494 76.6687C350.494 75.2086 349.111 74.025 347.405 74.025Z" fill="#E1EAF1"/>
<path d="M335.089 74.025C333.383 74.025 332 75.2086 332 76.6687C332 78.1288 333.383 79.3125 335.089 79.3125C336.795 79.3125 338.177 78.1288 338.177 76.6687C338.177 75.2086 336.795 74.025 335.089 74.025Z" fill="#E1EAF1"/>
<path d="M445.935 63.4508C444.229 63.4508 442.846 64.6344 442.846 66.0945C442.846 67.5546 444.229 68.7383 445.935 68.7383C447.641 68.7383 449.024 67.5546 449.024 66.0945C449.024 64.6344 447.641 63.4508 445.935 63.4508Z" fill="#E1EAF1"/>
<path d="M433.619 63.4508C431.913 63.4508 430.53 64.6344 430.53 66.0945C430.53 67.5546 431.913 68.7383 433.619 68.7383C435.325 68.7383 436.708 67.5546 436.708 66.0945C436.708 64.6344 435.325 63.4508 433.619 63.4508Z" fill="#E1EAF1"/>
<path d="M421.303 63.4508C419.597 63.4508 418.214 64.6344 418.214 66.0945C418.214 67.5546 419.597 68.7383 421.303 68.7383C423.008 68.7383 424.391 67.5546 424.391 66.0945C424.391 64.6344 423.008 63.4508 421.303 63.4508Z" fill="#E1EAF1"/>
<path d="M408.986 63.4508C407.28 63.4508 405.897 64.6344 405.897 66.0945C405.897 67.5546 407.28 68.7383 408.986 68.7383C410.692 68.7383 412.075 67.5546 412.075 66.0945C412.075 64.6344 410.692 63.4508 408.986 63.4508Z" fill="#E1EAF1"/>
<path d="M396.67 63.4508C394.964 63.4508 393.581 64.6344 393.581 66.0945C393.581 67.5546 394.964 68.7383 396.67 68.7383C398.376 68.7383 399.759 67.5546 399.759 66.0945C399.759 64.6344 398.376 63.4508 396.67 63.4508Z" fill="#E1EAF1"/>
<path d="M384.354 63.4508C382.648 63.4508 381.265 64.6344 381.265 66.0945C381.265 67.5546 382.648 68.7383 384.354 68.7383C386.06 68.7383 387.443 67.5546 387.443 66.0945C387.443 64.6344 386.06 63.4508 384.354 63.4508Z" fill="#E1EAF1"/>
<path d="M372.037 63.4508C370.332 63.4508 368.949 64.6344 368.949 66.0945C368.949 67.5546 370.332 68.7383 372.037 68.7383C373.743 68.7383 375.126 67.5546 375.126 66.0945C375.126 64.6344 373.743 63.4508 372.037 63.4508Z" fill="#E1EAF1"/>
<path d="M359.721 63.4508C358.015 63.4508 356.633 64.6344 356.633 66.0945C356.633 67.5546 358.015 68.7383 359.721 68.7383C361.427 68.7383 362.81 67.5546 362.81 66.0945C362.81 64.6344 361.427 63.4508 359.721 63.4508Z" fill="#E1EAF1"/>
<path d="M347.405 63.4508C345.699 63.4508 344.316 64.6344 344.316 66.0945C344.316 67.5546 345.699 68.7383 347.405 68.7383C349.111 68.7383 350.494 67.5546 350.494 66.0945C350.494 64.6344 349.111 63.4508 347.405 63.4508Z" fill="#E1EAF1"/>
<path d="M335.089 63.4508C333.383 63.4508 332 64.6344 332 66.0945C332 67.5546 333.383 68.7383 335.089 68.7383C336.795 68.7383 338.177 67.5546 338.177 66.0945C338.177 64.6344 336.795 63.4508 335.089 63.4508Z" fill="#E1EAF1"/>
<path d="M445.935 52.8746C444.229 52.8746 442.846 54.0582 442.846 55.5183C442.846 56.9785 444.229 58.1621 445.935 58.1621C447.641 58.1621 449.024 56.9785 449.024 55.5183C449.024 54.0582 447.641 52.8746 445.935 52.8746Z" fill="#E1EAF1"/>
<path d="M433.619 52.8746C431.913 52.8746 430.53 54.0582 430.53 55.5183C430.53 56.9785 431.913 58.1621 433.619 58.1621C435.325 58.1621 436.708 56.9785 436.708 55.5183C436.708 54.0582 435.325 52.8746 433.619 52.8746Z" fill="#E1EAF1"/>
<path d="M421.303 52.8746C419.597 52.8746 418.214 54.0582 418.214 55.5183C418.214 56.9785 419.597 58.1621 421.303 58.1621C423.008 58.1621 424.391 56.9785 424.391 55.5183C424.391 54.0582 423.008 52.8746 421.303 52.8746Z" fill="#E1EAF1"/>
<path d="M408.986 52.8746C407.28 52.8746 405.897 54.0582 405.897 55.5183C405.897 56.9785 407.28 58.1621 408.986 58.1621C410.692 58.1621 412.075 56.9785 412.075 55.5183C412.075 54.0582 410.692 52.8746 408.986 52.8746Z" fill="#E1EAF1"/>
<path d="M396.67 52.8746C394.964 52.8746 393.581 54.0582 393.581 55.5183C393.581 56.9785 394.964 58.1621 396.67 58.1621C398.376 58.1621 399.759 56.9785 399.759 55.5183C399.759 54.0582 398.376 52.8746 396.67 52.8746Z" fill="#E1EAF1"/>
<path d="M384.354 52.8746C382.648 52.8746 381.265 54.0582 381.265 55.5183C381.265 56.9785 382.648 58.1621 384.354 58.1621C386.06 58.1621 387.443 56.9785 387.443 55.5183C387.443 54.0582 386.06 52.8746 384.354 52.8746Z" fill="#E1EAF1"/>
<path d="M372.037 52.8746C370.332 52.8746 368.949 54.0582 368.949 55.5183C368.949 56.9785 370.332 58.1621 372.037 58.1621C373.743 58.1621 375.126 56.9785 375.126 55.5183C375.126 54.0582 373.743 52.8746 372.037 52.8746Z" fill="#E1EAF1"/>
<path d="M359.721 52.8746C358.015 52.8746 356.633 54.0582 356.633 55.5183C356.633 56.9785 358.015 58.1621 359.721 58.1621C361.427 58.1621 362.81 56.9785 362.81 55.5183C362.81 54.0582 361.427 52.8746 359.721 52.8746Z" fill="#E1EAF1"/>
<path d="M347.405 52.8746C345.699 52.8746 344.316 54.0582 344.316 55.5183C344.316 56.9785 345.699 58.1621 347.405 58.1621C349.111 58.1621 350.494 56.9785 350.494 55.5183C350.494 54.0582 349.111 52.8746 347.405 52.8746Z" fill="#E1EAF1"/>
<path d="M335.089 52.8746C333.383 52.8746 332 54.0582 332 55.5183C332 56.9785 333.383 58.1621 335.089 58.1621C336.795 58.1621 338.177 56.9785 338.177 55.5183C338.177 54.0582 336.795 52.8746 335.089 52.8746Z" fill="#E1EAF1"/>
<path d="M445.935 42.3004C444.229 42.3004 442.846 43.484 442.846 44.9441C442.846 46.4042 444.229 47.5879 445.935 47.5879C447.641 47.5879 449.024 46.4042 449.024 44.9441C449.024 43.484 447.641 42.3004 445.935 42.3004Z" fill="#E1EAF1"/>
<path d="M433.619 42.3004C431.913 42.3004 430.53 43.484 430.53 44.9441C430.53 46.4042 431.913 47.5879 433.619 47.5879C435.325 47.5879 436.708 46.4042 436.708 44.9441C436.708 43.484 435.325 42.3004 433.619 42.3004Z" fill="#E1EAF1"/>
<path d="M421.303 42.3004C419.597 42.3004 418.214 43.484 418.214 44.9441C418.214 46.4042 419.597 47.5879 421.303 47.5879C423.008 47.5879 424.391 46.4042 424.391 44.9441C424.391 43.484 423.008 42.3004 421.303 42.3004Z" fill="#E1EAF1"/>
<path d="M408.986 42.3004C407.28 42.3004 405.897 43.484 405.897 44.9441C405.897 46.4042 407.28 47.5879 408.986 47.5879C410.692 47.5879 412.075 46.4042 412.075 44.9441C412.075 43.484 410.692 42.3004 408.986 42.3004Z" fill="#E1EAF1"/>
<path d="M396.67 42.3004C394.964 42.3004 393.581 43.484 393.581 44.9441C393.581 46.4042 394.964 47.5879 396.67 47.5879C398.376 47.5879 399.759 46.4042 399.759 44.9441C399.759 43.484 398.376 42.3004 396.67 42.3004Z" fill="#E1EAF1"/>
<path d="M384.354 42.3004C382.648 42.3004 381.265 43.484 381.265 44.9441C381.265 46.4042 382.648 47.5879 384.354 47.5879C386.06 47.5879 387.443 46.4042 387.443 44.9441C387.443 43.484 386.06 42.3004 384.354 42.3004Z" fill="#E1EAF1"/>
<path d="M372.037 42.3004C370.332 42.3004 368.949 43.484 368.949 44.9441C368.949 46.4042 370.332 47.5879 372.037 47.5879C373.743 47.5879 375.126 46.4042 375.126 44.9441C375.126 43.484 373.743 42.3004 372.037 42.3004Z" fill="#E1EAF1"/>
<path d="M359.721 42.3004C358.015 42.3004 356.633 43.484 356.633 44.9441C356.633 46.4042 358.015 47.5879 359.721 47.5879C361.427 47.5879 362.81 46.4042 362.81 44.9441C362.81 43.484 361.427 42.3004 359.721 42.3004Z" fill="#E1EAF1"/>
<path d="M347.405 42.3004C345.699 42.3004 344.316 43.484 344.316 44.9441C344.316 46.4042 345.699 47.5879 347.405 47.5879C349.111 47.5879 350.494 46.4042 350.494 44.9441C350.494 43.484 349.111 42.3004 347.405 42.3004Z" fill="#E1EAF1"/>
<path d="M335.089 42.3004C333.383 42.3004 332 43.484 332 44.9441C332 46.4042 333.383 47.5879 335.089 47.5879C336.795 47.5879 338.177 46.4042 338.177 44.9441C338.177 43.484 336.795 42.3004 335.089 42.3004Z" fill="#E1EAF1"/>
<path d="M445.935 31.7261C444.229 31.7261 442.846 32.9098 442.846 34.3699C442.846 35.83 444.229 37.0137 445.935 37.0137C447.641 37.0137 449.024 35.83 449.024 34.3699C449.024 32.9098 447.641 31.7261 445.935 31.7261Z" fill="#E1EAF1"/>
<path d="M433.619 31.7261C431.913 31.7261 430.53 32.9098 430.53 34.3699C430.53 35.83 431.913 37.0137 433.619 37.0137C435.325 37.0137 436.708 35.83 436.708 34.3699C436.708 32.9098 435.325 31.7261 433.619 31.7261Z" fill="#E1EAF1"/>
<path d="M421.303 31.7261C419.597 31.7261 418.214 32.9098 418.214 34.3699C418.214 35.83 419.597 37.0137 421.303 37.0137C423.008 37.0137 424.391 35.83 424.391 34.3699C424.391 32.9098 423.008 31.7261 421.303 31.7261Z" fill="#E1EAF1"/>
<path d="M408.986 31.7261C407.28 31.7261 405.897 32.9098 405.897 34.3699C405.897 35.83 407.28 37.0137 408.986 37.0137C410.692 37.0137 412.075 35.83 412.075 34.3699C412.075 32.9098 410.692 31.7261 408.986 31.7261Z" fill="#E1EAF1"/>
<path d="M396.67 31.7261C394.964 31.7261 393.581 32.9098 393.581 34.3699C393.581 35.83 394.964 37.0137 396.67 37.0137C398.376 37.0137 399.759 35.83 399.759 34.3699C399.759 32.9098 398.376 31.7261 396.67 31.7261Z" fill="#E1EAF1"/>
<path d="M384.354 31.7261C382.648 31.7261 381.265 32.9098 381.265 34.3699C381.265 35.83 382.648 37.0137 384.354 37.0137C386.06 37.0137 387.443 35.83 387.443 34.3699C387.443 32.9098 386.06 31.7261 384.354 31.7261Z" fill="#E1EAF1"/>
<path d="M372.037 31.7261C370.332 31.7261 368.949 32.9098 368.949 34.3699C368.949 35.83 370.332 37.0137 372.037 37.0137C373.743 37.0137 375.126 35.83 375.126 34.3699C375.126 32.9098 373.743 31.7261 372.037 31.7261Z" fill="#E1EAF1"/>
<path d="M359.721 31.7261C358.015 31.7261 356.633 32.9098 356.633 34.3699C356.633 35.83 358.015 37.0137 359.721 37.0137C361.427 37.0137 362.81 35.83 362.81 34.3699C362.81 32.9098 361.427 31.7261 359.721 31.7261Z" fill="#E1EAF1"/>
<path d="M347.405 31.7261C345.699 31.7261 344.316 32.9098 344.316 34.3699C344.316 35.83 345.699 37.0137 347.405 37.0137C349.111 37.0137 350.494 35.83 350.494 34.3699C350.494 32.9098 349.111 31.7261 347.405 31.7261Z" fill="#E1EAF1"/>
<path d="M335.089 31.7261C333.383 31.7261 332 32.9098 332 34.3699C332 35.83 333.383 37.0137 335.089 37.0137C336.795 37.0137 338.177 35.83 338.177 34.3699C338.177 32.9098 336.795 31.7261 335.089 31.7261Z" fill="#E1EAF1"/>
<path d="M445.935 21.15C444.229 21.15 442.846 22.3336 442.846 23.7937C442.846 25.2538 444.229 26.4375 445.935 26.4375C447.641 26.4375 449.024 25.2538 449.024 23.7937C449.024 22.3336 447.641 21.15 445.935 21.15Z" fill="#E1EAF1"/>
<path d="M433.619 21.15C431.913 21.15 430.53 22.3336 430.53 23.7937C430.53 25.2538 431.913 26.4375 433.619 26.4375C435.325 26.4375 436.708 25.2538 436.708 23.7937C436.708 22.3336 435.325 21.15 433.619 21.15Z" fill="#E1EAF1"/>
<path d="M421.303 21.15C419.597 21.15 418.214 22.3336 418.214 23.7937C418.214 25.2538 419.597 26.4375 421.303 26.4375C423.008 26.4375 424.391 25.2538 424.391 23.7937C424.391 22.3336 423.008 21.15 421.303 21.15Z" fill="#E1EAF1"/>
<path d="M408.986 21.15C407.28 21.15 405.897 22.3336 405.897 23.7937C405.897 25.2538 407.28 26.4375 408.986 26.4375C410.692 26.4375 412.075 25.2538 412.075 23.7937C412.075 22.3336 410.692 21.15 408.986 21.15Z" fill="#E1EAF1"/>
<path d="M396.67 21.15C394.964 21.15 393.581 22.3336 393.581 23.7937C393.581 25.2538 394.964 26.4375 396.67 26.4375C398.376 26.4375 399.759 25.2538 399.759 23.7937C399.759 22.3336 398.376 21.15 396.67 21.15Z" fill="#E1EAF1"/>
<path d="M384.354 21.15C382.648 21.15 381.265 22.3336 381.265 23.7937C381.265 25.2538 382.648 26.4375 384.354 26.4375C386.06 26.4375 387.443 25.2538 387.443 23.7937C387.443 22.3336 386.06 21.15 384.354 21.15Z" fill="#E1EAF1"/>
<path d="M372.037 21.15C370.332 21.15 368.949 22.3336 368.949 23.7937C368.949 25.2538 370.332 26.4375 372.037 26.4375C373.743 26.4375 375.126 25.2538 375.126 23.7937C375.126 22.3336 373.743 21.15 372.037 21.15Z" fill="#E1EAF1"/>
<path d="M359.721 21.15C358.015 21.15 356.633 22.3336 356.633 23.7937C356.633 25.2538 358.015 26.4375 359.721 26.4375C361.427 26.4375 362.81 25.2538 362.81 23.7937C362.81 22.3336 361.427 21.15 359.721 21.15Z" fill="#E1EAF1"/>
<path d="M347.405 21.15C345.699 21.15 344.316 22.3336 344.316 23.7937C344.316 25.2538 345.699 26.4375 347.405 26.4375C349.111 26.4375 350.494 25.2538 350.494 23.7937C350.494 22.3336 349.111 21.15 347.405 21.15Z" fill="#E1EAF1"/>
<path d="M335.089 21.15C333.383 21.15 332 22.3336 332 23.7937C332 25.2538 333.383 26.4375 335.089 26.4375C336.795 26.4375 338.177 25.2538 338.177 23.7937C338.177 22.3336 336.795 21.15 335.089 21.15Z" fill="#E1EAF1"/>
<path d="M445.935 10.5738C444.229 10.5738 442.846 11.7575 442.846 13.2176C442.846 14.6777 444.229 15.8613 445.935 15.8613C447.641 15.8613 449.024 14.6777 449.024 13.2176C449.024 11.7575 447.641 10.5738 445.935 10.5738Z" fill="#E1EAF1"/>
<path d="M433.619 10.5738C431.913 10.5738 430.53 11.7575 430.53 13.2176C430.53 14.6777 431.913 15.8613 433.619 15.8613C435.325 15.8613 436.708 14.6777 436.708 13.2176C436.708 11.7575 435.325 10.5738 433.619 10.5738Z" fill="#E1EAF1"/>
<path d="M421.303 10.5738C419.597 10.5738 418.214 11.7575 418.214 13.2176C418.214 14.6777 419.597 15.8613 421.303 15.8613C423.008 15.8613 424.391 14.6777 424.391 13.2176C424.391 11.7575 423.008 10.5738 421.303 10.5738Z" fill="#E1EAF1"/>
<path d="M408.986 10.5738C407.28 10.5738 405.897 11.7575 405.897 13.2176C405.897 14.6777 407.28 15.8613 408.986 15.8613C410.692 15.8613 412.075 14.6777 412.075 13.2176C412.075 11.7575 410.692 10.5738 408.986 10.5738Z" fill="#E1EAF1"/>
<path d="M396.67 10.5738C394.964 10.5738 393.581 11.7575 393.581 13.2176C393.581 14.6777 394.964 15.8613 396.67 15.8613C398.376 15.8613 399.759 14.6777 399.759 13.2176C399.759 11.7575 398.376 10.5738 396.67 10.5738Z" fill="#E1EAF1"/>
<path d="M384.354 10.5738C382.648 10.5738 381.265 11.7575 381.265 13.2176C381.265 14.6777 382.648 15.8613 384.354 15.8613C386.06 15.8613 387.443 14.6777 387.443 13.2176C387.443 11.7575 386.06 10.5738 384.354 10.5738Z" fill="#E1EAF1"/>
<path d="M372.037 10.5738C370.332 10.5738 368.949 11.7575 368.949 13.2176C368.949 14.6777 370.332 15.8613 372.037 15.8613C373.743 15.8613 375.126 14.6777 375.126 13.2176C375.126 11.7575 373.743 10.5738 372.037 10.5738Z" fill="#E1EAF1"/>
<path d="M359.721 10.5738C358.015 10.5738 356.633 11.7575 356.633 13.2176C356.633 14.6777 358.015 15.8613 359.721 15.8613C361.427 15.8613 362.81 14.6777 362.81 13.2176C362.81 11.7575 361.427 10.5738 359.721 10.5738Z" fill="#E1EAF1"/>
<path d="M347.405 10.5738C345.699 10.5738 344.316 11.7575 344.316 13.2176C344.316 14.6777 345.699 15.8613 347.405 15.8613C349.111 15.8613 350.494 14.6777 350.494 13.2176C350.494 11.7575 349.111 10.5738 347.405 10.5738Z" fill="#E1EAF1"/>
<path d="M335.089 10.5738C333.383 10.5738 332 11.7575 332 13.2176C332 14.6777 333.383 15.8613 335.089 15.8613C336.795 15.8613 338.177 14.6777 338.177 13.2176C338.177 11.7575 336.795 10.5738 335.089 10.5738Z" fill="#E1EAF1"/>
<path d="M445.935 -0.000421524C444.229 -0.000421524 442.846 1.18323 442.846 2.64334C442.846 4.10346 444.229 5.28711 445.935 5.28711C447.641 5.28711 449.024 4.10346 449.024 2.64334C449.024 1.18323 447.641 -0.000421524 445.935 -0.000421524Z" fill="#E1EAF1"/>
<path d="M433.619 -0.000421524C431.913 -0.000421524 430.53 1.18323 430.53 2.64334C430.53 4.10346 431.913 5.28711 433.619 5.28711C435.325 5.28711 436.708 4.10346 436.708 2.64334C436.708 1.18323 435.325 -0.000421524 433.619 -0.000421524Z" fill="#E1EAF1"/>
<path d="M421.303 -0.000421524C419.597 -0.000421524 418.214 1.18323 418.214 2.64334C418.214 4.10346 419.597 5.28711 421.303 5.28711C423.008 5.28711 424.391 4.10346 424.391 2.64334C424.391 1.18323 423.008 -0.000421524 421.303 -0.000421524Z" fill="#E1EAF1"/>
<path d="M408.986 -0.000421524C407.28 -0.000421524 405.897 1.18323 405.897 2.64334C405.897 4.10346 407.28 5.28711 408.986 5.28711C410.692 5.28711 412.075 4.10346 412.075 2.64334C412.075 1.18323 410.692 -0.000421524 408.986 -0.000421524Z" fill="#E1EAF1"/>
<path d="M396.67 -0.000421524C394.964 -0.000421524 393.581 1.18323 393.581 2.64334C393.581 4.10346 394.964 5.28711 396.67 5.28711C398.376 5.28711 399.759 4.10346 399.759 2.64334C399.759 1.18323 398.376 -0.000421524 396.67 -0.000421524Z" fill="#E1EAF1"/>
<path d="M384.354 -0.000421524C382.648 -0.000421524 381.265 1.18323 381.265 2.64334C381.265 4.10346 382.648 5.28711 384.354 5.28711C386.06 5.28711 387.443 4.10346 387.443 2.64334C387.443 1.18323 386.06 -0.000421524 384.354 -0.000421524Z" fill="#E1EAF1"/>
<path d="M372.037 -0.000421524C370.332 -0.000421524 368.949 1.18323 368.949 2.64334C368.949 4.10346 370.332 5.28711 372.037 5.28711C373.743 5.28711 375.126 4.10346 375.126 2.64334C375.126 1.18323 373.743 -0.000421524 372.037 -0.000421524Z" fill="#E1EAF1"/>
<path d="M359.721 -0.000421524C358.015 -0.000421524 356.633 1.18323 356.633 2.64334C356.633 4.10346 358.015 5.28711 359.721 5.28711C361.427 5.28711 362.81 4.10346 362.81 2.64334C362.81 1.18323 361.427 -0.000421524 359.721 -0.000421524Z" fill="#E1EAF1"/>
<path d="M347.405 -0.000421524C345.699 -0.000421524 344.316 1.18323 344.316 2.64334C344.316 4.10346 345.699 5.28711 347.405 5.28711C349.111 5.28711 350.494 4.10346 350.494 2.64334C350.494 1.18323 349.111 -0.000421524 347.405 -0.000421524Z" fill="#E1EAF1"/>
<path d="M335.089 -0.000421524C333.383 -0.000421524 332 1.18323 332 2.64334C332 4.10346 333.383 5.28711 335.089 5.28711C336.795 5.28711 338.177 4.10346 338.177 2.64334C338.177 1.18323 336.795 -0.000421524 335.089 -0.000421524Z" fill="#E1EAF1"/>
</g>
<ellipse cx="2.86103" cy="2.22524" rx="2.86103" ry="2.22524" transform="matrix(0.807082 0.590439 -0.807082 0.590439 22.6333 327.816)" fill="#00FF01" fill-opacity="0.2"/>
<ellipse cx="2.86103" cy="2.22524" rx="2.86103" ry="2.22524" transform="matrix(0.807082 0.590439 -0.807082 0.590439 22.6194 335.779)" fill="#00FF01" fill-opacity="0.2"/>
<ellipse cx="2.86103" cy="2.22524" rx="2.86103" ry="2.22524" transform="matrix(0.807082 0.590439 -0.807082 0.590439 22.6057 343.742)" fill="#00FF01" fill-opacity="0.2"/>
<ellipse cx="2.86103" cy="2.22524" rx="2.86103" ry="2.22524" transform="matrix(0.807082 0.590439 -0.807082 0.590439 22.5918 351.705)" fill="#00FF01" fill-opacity="0.2"/>
<ellipse cx="2.86103" cy="2.54314" rx="2.86103" ry="2.54314" transform="matrix(0.807082 0.590439 -0.807082 0.590439 35.2356 319.941)" fill="#00FF01" fill-opacity="0.2"/>
<ellipse cx="2.86103" cy="2.22524" rx="2.86103" ry="2.22524" transform="matrix(0.807082 0.590439 -0.807082 0.590439 34.9685 327.828)" fill="#00FF01" fill-opacity="0.2"/>
<ellipse cx="2.86103" cy="2.22524" rx="2.86103" ry="2.22524" transform="matrix(0.807082 0.590439 -0.807082 0.590439 34.9548 335.789)" fill="#00FF01" fill-opacity="0.2"/>
<ellipse cx="2.86103" cy="2.22524" rx="2.86103" ry="2.22524" transform="matrix(0.807082 0.590439 -0.807082 0.590439 34.9409 343.754)" fill="#00FF01" fill-opacity="0.2"/>
<ellipse cx="2.86103" cy="2.22524" rx="2.86103" ry="2.22524" transform="matrix(0.807082 0.590439 -0.807082 0.590439 34.9272 351.717)" fill="#00FF01" fill-opacity="0.2"/>
<ellipse cx="2.86103" cy="2.54314" rx="2.86103" ry="2.54314" transform="matrix(0.807082 0.590439 -0.807082 0.590439 35.1694 359.227)" fill="#00FF01" fill-opacity="0.2"/>
<ellipse cx="2.86103" cy="2.54314" rx="2.86103" ry="2.54314" transform="matrix(0.807082 0.590439 -0.807082 0.590439 46.8496 319.953)" fill="#00FF01" fill-opacity="0.2"/>
<ellipse cx="2.86103" cy="2.22524" rx="2.86103" ry="2.22524" transform="matrix(0.807082 0.590439 -0.807082 0.590439 46.5769 327.838)" fill="#00FF01" fill-opacity="0.2"/>
<ellipse cx="2.86103" cy="2.22524" rx="2.86103" ry="2.22524" transform="matrix(0.807082 0.590439 -0.807082 0.590439 46.5659 335.801)" fill="#00FF01" fill-opacity="0.2"/>
<ellipse cx="2.86103" cy="2.22524" rx="2.86103" ry="2.22524" transform="matrix(0.807082 0.590439 -0.807082 0.590439 46.5522 343.764)" fill="#00FF01" fill-opacity="0.2"/>
<ellipse cx="2.86103" cy="2.22524" rx="2.86103" ry="2.22524" transform="matrix(0.807082 0.590439 -0.807082 0.590439 46.541 351.729)" fill="#00FF01" fill-opacity="0.2"/>
<ellipse cx="2.86103" cy="2.54314" rx="2.86103" ry="2.54314" transform="matrix(0.807082 0.590439 -0.807082 0.590439 46.7834 359.238)" fill="#00FF01" fill-opacity="0.2"/>
<ellipse cx="2.86103" cy="2.54314" rx="2.86103" ry="2.54314" transform="matrix(0.807082 0.590439 -0.807082 0.590439 59.1958 312)" fill="#00FF01" fill-opacity="0.2"/>
<ellipse cx="2.86103" cy="2.54314" rx="2.86103" ry="2.54314" transform="matrix(0.807082 0.590439 -0.807082 0.590439 59.1821 319.963)" fill="#00FF01" fill-opacity="0.2"/>
<ellipse cx="2.86103" cy="2.22524" rx="2.86103" ry="2.22524" transform="matrix(0.807082 0.590439 -0.807082 0.590439 58.9177 327.85)" fill="#00FF01" fill-opacity="0.2"/>
<ellipse cx="2.86103" cy="2.22524" rx="2.86103" ry="2.22524" transform="matrix(0.807082 0.590439 -0.807082 0.590439 58.9011 335.812)" fill="#00FF01" fill-opacity="0.2"/>
<ellipse cx="2.86103" cy="2.22524" rx="2.86103" ry="2.22524" transform="matrix(0.807082 0.590439 -0.807082 0.590439 58.8875 343.775)" fill="#00FF01" fill-opacity="0.2"/>
<ellipse cx="2.86103" cy="2.22524" rx="2.86103" ry="2.22524" transform="matrix(0.807082 0.590439 -0.807082 0.590439 58.8765 351.738)" fill="#00FF01" fill-opacity="0.2"/>
<ellipse cx="2.86103" cy="2.54314" rx="2.86103" ry="2.54314" transform="matrix(0.807082 0.590439 -0.807082 0.590439 59.1187 359.248)" fill="#00FF01" fill-opacity="0.2"/>
<ellipse cx="2.86103" cy="2.54314" rx="2.86103" ry="2.54314" transform="matrix(0.807082 0.590439 -0.807082 0.590439 70.8069 312.01)" fill="#00FF01" fill-opacity="0.2"/>
<ellipse cx="2.86103" cy="2.54314" rx="2.86103" ry="2.54314" transform="matrix(0.807082 0.590439 -0.807082 0.590439 70.7932 319.975)" fill="#00FF01" fill-opacity="0.2"/>
<ellipse cx="2.86103" cy="2.22524" rx="2.86103" ry="2.22524" transform="matrix(0.807082 0.590439 -0.807082 0.590439 70.5261 327.857)" fill="#00FF01" fill-opacity="0.2"/>
<ellipse cx="2.86103" cy="2.22524" rx="2.86103" ry="2.22524" transform="matrix(0.807082 0.590439 -0.807082 0.590439 70.5151 335.822)" fill="#00FF01" fill-opacity="0.2"/>
<ellipse cx="2.86103" cy="2.22524" rx="2.86103" ry="2.22524" transform="matrix(0.807082 0.590439 -0.807082 0.590439 70.4985 343.785)" fill="#00FF01" fill-opacity="0.2"/>
<ellipse cx="2.86103" cy="2.22524" rx="2.86103" ry="2.22524" transform="matrix(0.807082 0.590439 -0.807082 0.590439 70.4875 351.748)" fill="#00FF01" fill-opacity="0.2"/>
<ellipse cx="2.86103" cy="2.54314" rx="2.86103" ry="2.54314" transform="matrix(0.807082 0.590439 -0.807082 0.590439 70.73 359.258)" fill="#00FF01" fill-opacity="0.2"/>
<ellipse cx="2.86103" cy="2.54314" rx="2.86103" ry="2.54314" transform="matrix(0.807082 0.590439 -0.807082 0.590439 83.1477 312.021)" fill="#00FF01" fill-opacity="0.2"/>
<ellipse cx="2.86103" cy="2.54314" rx="2.86103" ry="2.54314" transform="matrix(0.807082 0.590439 -0.807082 0.590439 83.1313 319.984)" fill="#00FF01" fill-opacity="0.2"/>
<ellipse cx="2.86103" cy="2.22524" rx="2.86103" ry="2.22524" transform="matrix(0.807082 0.590439 -0.807082 0.590439 82.8613 327.869)" fill="#00FF01" fill-opacity="0.2"/>
<ellipse cx="2.86103" cy="2.22524" rx="2.86103" ry="2.22524" transform="matrix(0.807082 0.590439 -0.807082 0.590439 82.8503 335.832)" fill="#00FF01" fill-opacity="0.2"/>
<ellipse cx="2.86103" cy="2.22524" rx="2.86103" ry="2.22524" transform="matrix(0.807082 0.590439 -0.807082 0.590439 82.8367 343.797)" fill="#00FF01" fill-opacity="0.2"/>
<ellipse cx="2.86103" cy="2.22524" rx="2.86103" ry="2.22524" transform="matrix(0.807082 0.590439 -0.807082 0.590439 82.8228 351.76)" fill="#00FF01" fill-opacity="0.2"/>
<ellipse cx="2.86103" cy="2.54314" rx="2.86103" ry="2.54314" transform="matrix(0.807082 0.590439 -0.807082 0.590439 83.0652 359.27)" fill="#00FF01" fill-opacity="0.2"/>
<ellipse cx="2.86103" cy="2.54314" rx="2.86103" ry="2.54314" transform="matrix(0.807082 0.590439 -0.807082 0.590439 94.7561 312.031)" fill="#00FF01" fill-opacity="0.2"/>
<ellipse cx="2.86103" cy="2.54314" rx="2.86103" ry="2.54314" transform="matrix(0.807082 0.590439 -0.807082 0.590439 94.7397 319.994)" fill="#00FF01" fill-opacity="0.2"/>
<ellipse cx="2.86103" cy="2.22524" rx="2.86103" ry="2.22524" transform="matrix(0.807082 0.590439 -0.807082 0.590439 94.4727 327.881)" fill="#00FF01" fill-opacity="0.2"/>
<ellipse cx="2.86103" cy="2.22524" rx="2.86103" ry="2.22524" transform="matrix(0.807082 0.590439 -0.807082 0.590439 94.4617 335.842)" fill="#00FF01" fill-opacity="0.2"/>
<ellipse cx="2.86103" cy="2.22524" rx="2.86103" ry="2.22524" transform="matrix(0.807082 0.590439 -0.807082 0.590439 94.4478 343.807)" fill="#00FF01" fill-opacity="0.2"/>
<ellipse cx="2.86103" cy="2.22524" rx="2.86103" ry="2.22524" transform="matrix(0.807082 0.590439 -0.807082 0.590439 94.4341 351.77)" fill="#00FF01" fill-opacity="0.2"/>
<ellipse cx="2.86103" cy="2.54314" rx="2.86103" ry="2.54314" transform="matrix(0.807082 0.590439 -0.807082 0.590439 94.679 359.279)" fill="#00FF01" fill-opacity="0.2"/>
<ellipse cx="2.86103" cy="2.54314" rx="2.86103" ry="2.54314" transform="matrix(0.807082 0.590439 -0.807082 0.590439 107.078 320.006)" fill="#00FF01" fill-opacity="0.2"/>
<ellipse cx="2.86103" cy="2.22524" rx="2.86103" ry="2.22524" transform="matrix(0.807082 0.590439 -0.807082 0.590439 106.811 327.891)" fill="#00FF01" fill-opacity="0.2"/>
<ellipse cx="2.86103" cy="2.22524" rx="2.86103" ry="2.22524" transform="matrix(0.807082 0.590439 -0.807082 0.590439 106.797 335.855)" fill="#00FF01" fill-opacity="0.2"/>
<ellipse cx="2.86103" cy="2.22524" rx="2.86103" ry="2.22524" transform="matrix(0.807082 0.590439 -0.807082 0.590439 106.783 343.816)" fill="#00FF01" fill-opacity="0.2"/>
<ellipse cx="2.86103" cy="2.22524" rx="2.86103" ry="2.22524" transform="matrix(0.807082 0.590439 -0.807082 0.590439 106.769 351.781)" fill="#00FF01" fill-opacity="0.2"/>
<ellipse cx="2.86103" cy="2.54314" rx="2.86103" ry="2.54314" transform="matrix(0.807082 0.590439 -0.807082 0.590439 107.009 359.291)" fill="#00FF01" fill-opacity="0.2"/>
<ellipse cx="2.86103" cy="2.54314" rx="2.86103" ry="2.54314" transform="matrix(0.807082 0.590439 -0.807082 0.590439 59.1077 367.211)" fill="#00FF01" fill-opacity="0.2"/>
<ellipse cx="2.86103" cy="2.54314" rx="2.86103" ry="2.54314" transform="matrix(0.807082 0.590439 -0.807082 0.590439 70.7161 367.223)" fill="#00FF01" fill-opacity="0.2"/>
<ellipse cx="2.86103" cy="2.54314" rx="2.86103" ry="2.54314" transform="matrix(0.807082 0.590439 -0.807082 0.590439 83.0515 367.232)" fill="#00FF01" fill-opacity="0.2"/>
<ellipse cx="2.86103" cy="2.54314" rx="2.86103" ry="2.54314" transform="matrix(0.807082 0.590439 -0.807082 0.590439 94.6653 367.244)" fill="#00FF01" fill-opacity="0.2"/>
<ellipse cx="2.86103" cy="2.54314" rx="2.86103" ry="2.54314" transform="matrix(0.807082 0.590439 -0.807082 0.590439 118.689 320.016)" fill="#00FF01" fill-opacity="0.2"/>
<ellipse cx="2.86103" cy="2.22524" rx="2.86103" ry="2.22524" transform="matrix(0.807082 0.590439 -0.807082 0.590439 118.419 327.9)" fill="#00FF01" fill-opacity="0.2"/>
<ellipse cx="2.86103" cy="2.22524" rx="2.86103" ry="2.22524" transform="matrix(0.807082 0.590439 -0.807082 0.590439 118.405 335.863)" fill="#00FF01" fill-opacity="0.2"/>
<ellipse cx="2.86103" cy="2.22524" rx="2.86103" ry="2.22524" transform="matrix(0.807082 0.590439 -0.807082 0.590439 118.394 343.828)" fill="#00FF01" fill-opacity="0.2"/>
<ellipse cx="2.86103" cy="2.22524" rx="2.86103" ry="2.22524" transform="matrix(0.807082 0.590439 -0.807082 0.590439 118.38 351.791)" fill="#00FF01" fill-opacity="0.2"/>
<ellipse cx="2.86103" cy="2.54314" rx="2.86103" ry="2.54314" transform="matrix(0.807082 0.590439 -0.807082 0.590439 118.623 359.301)" fill="#00FF01" fill-opacity="0.2"/>
<ellipse cx="2.86103" cy="2.22524" rx="2.86103" ry="2.22524" transform="matrix(0.807082 0.590439 -0.807082 0.590439 130.757 327.912)" fill="#00FF01" fill-opacity="0.2"/>
<ellipse cx="2.86103" cy="2.22524" rx="2.86103" ry="2.22524" transform="matrix(0.807082 0.590439 -0.807082 0.590439 130.743 335.875)" fill="#00FF01" fill-opacity="0.2"/>
<ellipse cx="2.86103" cy="2.22524" rx="2.86103" ry="2.22524" transform="matrix(0.807082 0.590439 -0.807082 0.590439 130.729 343.838)" fill="#00FF01" fill-opacity="0.2"/>
<ellipse cx="2.86103" cy="2.22524" rx="2.86103" ry="2.22524" transform="matrix(0.807082 0.590439 -0.807082 0.590439 130.716 351.801)" fill="#00FF01" fill-opacity="0.2"/>
<path d="M418.988 378.881L427.72 374.225L424.006 367.316L433.117 371.348L441.849 366.693L438.748 373.84L447.859 377.872L436.831 378.257L433.73 385.405L430.016 378.495L418.988 378.881Z" fill="#9FFFEA" fill-opacity="0.75"/>
<path d="M393.935 369.822L400.269 366.472L397.616 361.537L404.185 364.402L410.519 361.052L408.244 366.172L414.812 369.037L406.838 369.337L404.562 374.458L401.909 369.522L393.935 369.822Z" fill="#9FFFEA" fill-opacity="0.75"/>
<path d="M424.87 352.274L434.419 346.977L430.042 338.834L440.321 343.703L449.87 338.405L446.674 346.712L456.954 351.581L444.699 351.846L441.502 360.153L437.125 352.01L424.87 352.274Z" fill="#9FFFEA" fill-opacity="0.75"/>
<rect x="27.1208" y="93.1484" width="5.52452" height="19.8354" transform="rotate(180 27.1208 93.1484)" fill="#F6FCB1" fill-opacity="0.75"/>
<rect x="16.8611" y="79.7598" width="16.5735" height="12.893" transform="rotate(180 16.8611 79.7598)" fill="#F6FCB1" fill-opacity="0.75"/>
<rect x="10.5476" y="97.6113" width="7.10295" height="14.3807" transform="rotate(180 10.5476 97.6113)" fill="#F6FCB1" fill-opacity="0.75"/>
<defs>
<clipPath id="clip0_319_10165">
<rect width="118" height="101" fill="white" transform="translate(332)"/>
</clipPath>
</defs>
</svg>
