<svg version="1.2" xmlns="http://www.w3.org/2000/svg" viewBox="0 0 446 248" width="446" height="248"><style>.a{fill:#dce2e8}.b{fill:#edf1f5}.c{fill:#c5ced4}.d{fill:#c79d80}.e{fill:#d0d8df}.f{fill:#b1bdc6}.g{fill:#101413}.h{fill:#c8b6b0}.i{opacity:1;fill:#a7a7ab}.j{fill:#163138}.k{fill:#b08670}.l{fill:#ae7455}.m{fill:#6c5947}.n{fill:#145b75}.o{opacity:1;fill:#a99893}.p{opacity:1;fill:#264350}.q{fill:#1e84a7}.r{fill:#403426}.s{fill:#837e7c}.t{fill:#927265}.u{opacity:1;fill:#86939d}.v{fill:#3990b0}.w{fill:#f64137}.x{opacity:.5;fill:#eaedf1}.y{opacity:.9;fill:#959143}.z{opacity:.9;fill:#49561b}.A{opacity:.1;fill:#bfc2c1}.B{opacity:.9;fill:#bfbaba}.C{opacity:.2;fill:#5d6147}</style><path fill-rule="evenodd" class="a" d="m221 37l-5-7v-7l4-3h-3l-1-4-3 1 4-6-2-7-8-1-1 9h-3l-1 5 3 4 7-3 2 7h-8l-2 4-7-2v-3l-9 1-5 6h-6l-3-9-5-2 2-9 4 1v-3l-2-6-6 3 1-5h60l-2 2 5 5-2 5-7 1 2 5 5-1v4l-2 4-4-1-1 4 9 1-1-5 3 4v1l-1 8-1 4h-7v-5zm84-26l-4-10h8l-3 6 7 1 2 7 7-3 5 4-7 1 1 6-4 4 6 3v-3h3l-1 11-4 5 3 5h20l10 8h4l1-5 5 4 3-2-1 14h9l3 3-2 6 2 3 5-5 2 12h6l-5 7 6 12-2 6 4 9 9-1 2 6 7 3v-3h6l2 5 1-10 5 2 7-7-2-13 10 1-3-8 3-2-4-3-6-2-0.5 3.8-8.5-2.8 1-9 6-6-4 1v-3h-3l-2-7 2-7 4 3 6-4 4 2-3 7 3 1-5 2v3l14-1v68l-10-2-8 3-1 15 6 5v6l-5-2 1 5-8-2v3l5 2-3 11v4l-3 3-4-2 1-7-8-6-6 4v9l-3-4-3 2v-5l-6 5 4 14-3 7-5-1-1-4-8-2h-1l-3-8 6-1-1-5v-5l7-6-5-1-3 3-4-6v-1l4-7-2-2-8 2 3-13h7l2-8 4 4 2-3 6 1 1-6-6-3v3l-5 1v-3h-5l-4 7-5-4 3-7-5-5-3 1-1 20-9-1-2-8 7-1-3-9 1-11-3 1-1-5 4 1 1-6-9-4 1-3 4-2-3-6v-6l6 1 10-10v-7h-4l-2 7h-4l-1-6-5-2-2 2 3 1v5h-4v-1l-10-10 1-11h-4l-2-5-13-2-5 4-7-2-1-5v-3l1-2 6-2v-5l3-1-5-1 2-8-2-2-4-11zm125.5 80.8l0.5 0.2-1 3zm-111.5-90.8l-2 5h-4l-1-5zm35 0l2 5h-13l-1-5zm29 0v4l-8 1 2 7-4 6h-5l-3-4 6-4-4-7-2 3-4-1 2-5zm-346 9l8 2v-3h15l6 4v-4h1v5h3l-2 18 2 8 3 35-1 10h23l1-9-4-6-2-13 1-11-4-5-1-10v-6l10-1v-5h3l8 6 1-6h6l1 5 5 2h7l4-5h4l6 1h1l4 1 7-2-1 5 3 1v13l-5 4v4l-6-1 2 4-3 2 3 1-3 1 6 1 2 3h-3l-6 4 7 1-1 2h-4l-12-2 1-7h-7v4h-6l8 3 16 2 6 2-3 2 2 6-6-1h-30l1 11h5l1 7h-13l-37-1h-29l1-7 23-1 1-15 4-3v-5l-5-2 2-21-5-12-12-3-4-10-5 1-2 6zm102 74h-8l1-9 11 1 4 1-1 2-7 1h7l-2 2 3 1zm-12 9l4-6 12-1 5 3h6l6 1h3l3 1-1 5-27-2h-4zm-12 12l1-8 4-2 9 1v51l-5-1-1-8 2-4-4-6v-20l-5 1zm-114 65l11-2 7-11 5 1 2-13 10-2v-15l4-7-4-11 4-2 3 6-1 51 6 5-1 3 4-1 6 4h-17v3l-4 2 1 6-6 9 1 4 4 1v10h-6l-1 6-6-1 2 7h6l-1 11-5 1-1 6h-5l-3 7h-15v-8l5-2v-3l-5-2v-8l6-7-2-5 3-4-1-5-5 3h-1zm138-19l16-1v3l-6 11h-12l-6-1v-5l7-7zm300 13l-4-1 1-4 5 1zm-77 38l-1-7h6v7zm-209-4l2-1 24 44-1 4-6 3h-6l4-3-2-4-2 1-3-2-1-2 2-11-2-4-1-6-5-1-2 3-9-4-2 19 7-3 6 13 2 3-2 1h-14l-9-17-1-3-4-8 1-2 4-1 4-3h1l3-1-1-4 5 2-2-5h2l1 3 3-1 7-3-1-5z"/><path fill-rule="evenodd" class="b" d="m1 170v-169h32v7l4 2 2 10 2-6 5-1 4 10 12 3 5 12-2 21 5 2v5l-4 3-1 15-23 1-1 7h-2l-3 2 4 14-4 2 4 11-4 7v15l-10 2-2 13-5-1-7 11zm444-99l-14 1v-3l5-2-3-1 3-7-4-2-6 4-4-3-2 7 2 7h3v3l4-1-6 6-1 9 8.5 2.8 0.5-3.8 6 2 4 3-3 2 3 8-10-1 2 13-7 7-5-2-1 10-2-5h-6v3l-7-3-2-6-9 1-4-9 2-6-6-12 5-7h-6l-2-12-5 5-2-3 2-6-3-3h-9l1-14-3 2-5-4-1 5h-4l-10-8h-20l-3-5 4-5 1-11h-3v3l-6-3 4-4-1-6 7-1-5-4-7 3-2-7-7-1 3-6h3l1 5h4l2-5h23l1 5h13l-2-5h9l-2 5 4 1 2-3 4 7-6 4 3 4h5l4-6-2-7 8-1v-4h62zm-14.5 20.8l-0.5 3.2 1-3zm-364.5-82.8v4l-6-4zm62 55l-8-3h6v-4h7l-1 7zm-8 29l-1-7h-5l-1-11h19l-1 9h8l8 1-4 1-12 1-4 6zm-118 114l5-3 1 5-3 4z"/><path fill-rule="evenodd" class="c" d="m148 8l2-1h5l-2 10-6-2 3 7-4 1-4-1v-9h-4l1-2 1-1 2-1 3-1 3 6h3zm-80 24l3-11 2 21-3-2zm238 10l3-8-1-11h2l2 2-2 8 5 1-3 1v5zm-157 14h3l2-14 6 2 4-5 2 5-7 4-4 9h3l2 6 8-2-2 6 2 2 3-1 1-6 3 1 1-10-4-2-1 4-4-2 3-7 12 4 1 6 15-3 12 2 3-2-2-4h8l-1-3 8 3-4 8 3 4 3-7h5l5 6 2 12-6 2-4-2-1 4-1 2-2 2-2-4-1 5-8-4 4-3-5-3 7-3-6-5 2-5-6-2-3 8 5 1-3 5 3 4-10-2 2-4-8-1v5l7 6-7 1-1 11-17-8 8 12-7 2-1 7 9 5-5 3-7-4 2-4-6-1 3-2-2-5h4l-3-7 1-6 4-1-1-4-4 1-2 8-9-1-3 5-6-1 4-4-5-3 4-8-7-2-1 4-2-6 3-2-6-2h7l-3-7h3zm146 6l8-1 1 4-5 1h-1l-2-2zm-222 13l3-2 1 12h-5zm70 1v-1l6 1v6l-1 7-5-3 4-1-8-1 8-1-3-1 2-2h-7l7-1 1-2zm20 14l7-1 1 4-3 2 3 2-4 6 2 7-9 1 5-15 1-5zm-114 16l-2-10-8-4h6l4 2zm66 26l-1-39h7l-1 2-4 2-1 8 5 29h-1zm-53 44l1-3-11-2-4-14v-17l-4-8 1-17 4-9h1v2l-2 20 3 7v2l2 16 3 11-1 6 17-1 6-3h6l9 2 4 1v5l4 1 3-2-1-4h4l14 3v3l-6 9-15 3-7 4-6-1-3-1-4-1-4-2-8-2-11-6-3 3 5 2h-19v-7zm225-59l2 4-5 3-3-4 4-3zm58 12l2-3 2 8-5-2zm-221 17l5 1v-14l1 2 1 16-2 4-1-3-2-2zm308 3l3-4 10 2v12l-6-4-3 4-1 4 4 1 2 3-5 1-1 4-2 2v-3h-3l2-5v-6l-1-4 3-3zm-95 9l5-1 3-7 6 13 2-3 6 1-4 19-4 1-3 7v17l3 3-9 18v-3l-9 1 1-16 1 3 5-1 2-11 2 5 2-3-4-3-10 3v-15l-3-4v-1zm-206 5l6 1 2 5 6 2-6 2h-4l-1-5-9 1-2-2zm230 32l-2-17 6 2 1-4h3l-2-4 2-6 4 4v11h5v5zm76-22h4v3l4-1v11l-2-4zm-14 9l4-6h5v3l-4 2v5l5 4-1-8 3 2-2 3 6-1-3 14-11-2 3-8-7 3 3-2-2-4v-4h1l1 5h3l-1-6zm-31 11l7-1 1 5 2-7 2 4 6-1-2-8 7 3 4 2-2 9 8-1 1 7h5l2 5 1 7-3 1 3 6h-3v7l14 4v13h-80v-1l2-7-3-2-7 9-4 1h-7v-1l3-5-2-2 5-1v-3l-4-1 1-3-16 3-1-1 10-8-1 6 7-4 3 1v5l5-1-3-7 6-3v-4l2 4 8 3v4l4-6h4l-8-16h-4l-2 6h-3l2-12 8 4v-3l6-3h1v13l3 2-2 12 4 2 4-2 1 7-6-2-1 2 5 2-1 3 8 2 1-8-4 1v-5l4 2-2-5 2-4 4 5 4-3 2-5 5 3v9l7-3-2-6 6 2v-2l-6-5 4-1-3-8 5-1 3-5h-5l-3 4-4 6h-3v-3l1-7-5-3-2 6-6-1-1 11-3 2-7-6-1-6 3 1 5 1 3-7zm-349 55l-1-50 1 4 4 31 7 14v1zm360-30l-6-2 4-6zm-402 22v-7l5 2v3z"/><path fill-rule="evenodd" class="d" d="m37 7v-6h3v6l3 1zm224 31l1-2 2 2h4l2 5 3 12-2 5-8-2-1-9-3-3zm15 7l7-5 6 7 3 10-2 8h-2v-5l-6-2-1 2h-1zm-25 20l-3-4 3-1 4 3zm13 60l6-4-3-4 3-5 4 3-2 3 8-5-1 3-6 6v4l6 1-1 3-24 5-2-4 1-1 3-1h1l4 2 4-2zm-14 13v5l4 2h4v-4l3-1 12 5 23 2-1-6-6-4 2-5 6-1 2 3 6-2 2 2-1 12-8-4-2 8-6 2-3-3-8 3h-5l-3-4-8 2-2-2-12 3-3-3-1 3-8-1-11 6-6 4h-3l-1-3 10-8 1-1 3-2 2-1 9 2v-8l2-1zm-94 27l-3-2 8-7 3-12 4 8-6 7zm110-4l9-5h2v4l-8 5h-4v-3zm-121 10l3-4 4 2-4 8-5 1v-3l-2-2h-2zm99 4l8-1 3 2-4 4-5 4-3 3-2 61h-69l6-3 1-4-24-44 18-4 2-11 5-3 4-1 8 2h10l21-2h4l7 1zm-75 8v-3h2l2 1-4 6 1 4-20 2 1 5-25 13 1-5 6-2 2-4 3 4 5-10-23-1v-9h2l7 1 13-1 11-1zm-69 4l10-2-1 24-2-8v-2l-1-4h-5v-2h6zm47 17l8-4 1 5-7 3zm-15 7l5 3-4 3zm-6 7l-7-1 2-6h5l-2 3zm6 10l-7-1 2-7h1zm0 20l1-17 9 17z"/><path fill-rule="evenodd" class="e" d="m157 6l8-5h3l-1 5 6-3 2 6v3l-4-1-2 9 5 2 3 9h6l5-6 9-1v3l7 2 2-4h8l-2-7-7 3-3-4 1-5h3l1-9 8 1 2 7-4 6 3-1 1 4h3l-4 3v7l5 7h3v5h7l1-4 1 13v3h-5l-3 7-3-4 4-8-8-3 1 3h-8l2 4-3 2-12-2-15 3-1-6-12-4-3 7 4 2 1-4 4 2-1 10-3-1-1 6-3 1-2-2 2-6-8 2-2-6h-3l4-9 7-4-2-5-4 5-6-2-2 14h-3l-6-1 3-1-3-1 3-2-2-4 6 1v-4l5-4v-13l-3-1 1-5-3.1 0.9-2.9-6.9 6 2 2-10zm-7.1 15.9l0.1 0.1-4 1zm81.1-13.9l-5-5 2-2h8zm-83 0l3 6h-3l-3-6zm-78 6h-3v-5h3zm159 4l-5 1-2-5 7-1zm-161 14l2-18 1 7zm17-2v-8l7-4h4v6l-10 1v6zm14-11l3-1h15l3 1h5l3 1 7-2v3h-4l-4 5h-7l-5-2-1-5h-6l-1 6zm131 6l1 5-9-1 1-4 4 1 2-4zm-157 50l-3-35 3 2v2l3 25v4zm14-32v-2l4 5-1 11zm214 6l4-2 1 5 7 2 5-4 13 2 2 5h4l-1 11-11-4h-15l-6 1-1-4-8 1-2-5zm-153 17l1-2-7-1 6-4 3 7zm-4 0l-16-2h4zm-49 19l-3-15 4 6zm252-6h3v-5l-3-1 2-2 5 2 1 6h4l2-7h4v7l-10 10-6-1zm-204-4v1l-11-1zm-103 33l-4-14 3-2 8 4 2 10-4 9-1 17 4 8v17l4 14 11 2-1 3h-5l-6-4-4 1 1-3-6-5 1-51zm80-13l1-2h6l7 1-5 2zm228 7l1-8 3 6zm-228 32l-5-29 1 4 5-1v20l4 6-2 4-1-1zm226-17l1-12 9 4-1 6-4-1 1 5 3-1-1 11 3 9-7 1 2 8 9 1 1-20 3-1 5 5-3 7 5 4 4-7h5v3l5-1v-3l6 3-1 6-6-1-2 3-4-4-2 8h-7l-3 13 8-2 2 2-4 7-4-4-2 6 2 4h-3l-1 4-6-2 2 17 1 7-2 12-1 5v4l-6 3 3 7-5 1v-5l-3-1-7 4 1-6 9-18-3-3v-17l3-7 4-1 4-19-6-1-2 3-6-13-3 7-5 1v-3l4-11 3-12 5 2-2-8-1-8zm86 43l-6-5 1-15 8-3 10 2v3l-13-1-3 8h3l2 4-3 3zm-303-5l2-4h7l-7 7zm307 4l3-4 6 4 1 10v6h-1l-4 1v-9l-2-3 2-4zm-14 24l3-11-5-2v-3l8 2-1-5 5 2-2 5h3v3l2-2 2 1 6 9-3-1v4l-1 1-6 1 2-3-3-2v-6h-5l-4 6v1zm-315-14l11-2h5l2 2-3 3h-1zm271 12h-5v-10l4 6 3-3 5 1zm14 12l-2-7 6-5v5l3-2 3 4v-9l6-4 8 6-1 7-7-3 2 8-6 1-2-4-2 7-1-5zm-376 55l3-7h5l1-6 5-1 1-11h-6l-2-7 6 1 1-6h6v-10l-4-1-1-4 6-9-1-6 4-2v4l1 5 1 10 1 50zm345-53l17-9 1 5-6 1 3 8-6 3v3l-8-4h5v-7zm58-5l3-3 2 4-3 2 7-3-3 8-8 1zm-293 21l25-13h2l2 2-8 4-2 2h-2l-8 3 3 5h-1l-5-3-5 2 2 5-1 2h-1l-3-6zm216-12v-1l4 3-2 3zm35 1l8 2 1 4-3-1 1 6 7 6 3-2 1-11 6 1 2-6 5 3-1 7-6 1-4 6 6 2v1l-2 5-4 3-4-5-2 4 2 5-4-2v5h-2l-1-7-4 2-4-2 2-12-3-2zm37 6l3-4h5l-3 5-5 1zm-413 19v-18h1l3 6 2 5zm153-6l2-3 5 1 1 6zm8 19l-6-10 6-5 2 4zm-6 6l7-4 3 2-7 3 1 3h-4l2-1z"/><path fill-rule="evenodd" class="f" d="m308 23l-2-11 4 11zm-7 26l3-5h1v3zm-113 59l-9-5 1-7 7-2-8-12 17 8 1-11 7-1-7-6v-5l8 1-2 4 10 2-3-4 3-5-5-1 3-8 6 2-2 5 6 5-7 3 5 3-4 3 8 4 1-5 2 4-10 9-1 1-12 6-3-4-2 5 2 1zm41-32l1-4 4 2zm-69 14l3-5 9 1 2-8 4-1 1 4-4 1-1 6 3 7h-4l2 5-3 2 6 1-2 4 7 4-3 4-3 3-15 14-9 1v3l4-2 1 6v1l-8-1-4 3-5-2-1-16 7 3 1-3-9-7-1-23v-1l27 2-5 15 9-1-2-7 4-6-3-2 3-2-1-4-7 1zm-12-1l1-7 3 2 1-2 5 3-4 4zm-55 21l6-9h3v7h4l4-11-3-4h7l1 39-8-1h-1l-5-1-2-8-5-5-5 1v-3l4 1zm-32 5l-2-13 4 1 2-3 1 6v7zm-11-13h3v6h-3zm79 2l4-2v4l-3 15h-1zm-51 17l-7-3 1-7 6 4zm223-4l-3 6-6-4 7-3zm-212 6l5 3v-4h5l-2 9-6 2-2-1zm40 10v-11l5 6v11l-4-4zm95 4l4-6 3 2v3zm-171 16l-2-16 4 12zm379-4h-3l3-8 13 1v5l-10-2zm-233-4l3-2 5 2 1 3-3 2zm28 3v-5l3 1v2zm-32 14l3-7 8 6v1zm240 10l1-4 5-1v6h-4zm-3 10l1 8-5-4v-5l4-2zm-9 1v-1h3l1 6h-3zm16 3l1-1 5 9v12l-4-4-1 5 5 1v2l-1 7h-3l-1-5-4-4-3 2-2-5h-5l-1-7 11 2zm-107 15l10-3v1l-2 11-5 1-1-3zm-278 46l-7-14-4-31 9 24zm353-38v3h3l4-6v2l3 8-4 1 6 5v2l-6-2 2 6-7 3v-9l-5-3v-1l-2-8zm-47 5h3l2-6h4l8 16h-4l-4 6v-4l-8-3-2-4zm85 21l-14-4v-7h3l-3-6 3-1 3 2 1-2 2 4h-3l1 3 2 4 1-4 4 3zm-353-5v-9l2 1h3l1 1v17l5 3 4-10 2 2-1 10-12 2zm241-6l9-1v3l-10 8zm-267 20l-3-16 4-4 3 1 4 18-2 4h-5zm267-9l16-3-1 3 4 1v3l-5 1 2 2-3 5h-12zm56-1l4-1-1 8-8-2 1-3-5-2 1-2 6 2zm-32 13l7-9 3 2-2 7z"/><path class="g" d="m248 11l3 1v-3l5-2h1l3 6-2 5 3 3 5-6 4 1-2 5-1-3-3 3 4 2 2-3 4 5 8 5-4 2-1 7-2-3-4 3 1-11-5 3 2 5-6-1-4-11-13 4-5 1-3-1 2-3-6 1 1-5 4 1-1-4 5 1v-4l2 2 3-2-1-3zm38 27l-1-3 7-4 3 9 4-3v3l-6 17h-1l-3-10v-8zm-39 46h4l-1 3 9-1 3-12 9-8h5v4l6-1-2 6 5 6v1 2l-8 15-8 2-3 7-2 12-3-3-1 4-2-2-2 10-3 1v-13l5-6h-4l-2-5-2 26-7 6-2 1-4 2h-3v-14l8-27-2-1-1 4-2-3-4 22-5 1-8 4-2 1-4-6-2-2-2-4 3-2-1-15 1-3 6 5 1 10 3-4 2-21 2-2 1 2v-6l3 10 2-10 4-4-1 4v6h5l1-9h1l1 3zm57 34v-1l15 11 7 13-6 6h-8l3-3 2-11-4-7h-1l-2-3-5-4zm1 32l4-1 8 17 8 12v4l-5-4-1-1-10-11zm-23 13l6-4 2 6-6 17h-2l-11-9zm-37 25l15-1h24l-7 31-8 15-6 5 9-2 8-9 4 6v9l7-2v8h-46z"/><path class="h" d="m40 1l44-1h8l-4 1h-3v3 2 4 6l-4 14h4l1 1 1 10v2 42h-10l-1-12v-4l-3-25v-2l-2-21-1-7v-5h-3-1-6-15l-2-1-3-1zm-3 9l-4-2v-7h4v6zm12 96v-12l-4-2h7l2 5h4l3-3-2-2h11l-6 1 8 6-6 7-1-6-2 3-4-1 2 13v2l-2-3-3 1-2-6-3 26-3-7 2-20h3v-6h-3v4zm29 9v-19h6l1 13v6 5l-7 1zm209 2l7-3 5 2-7 3 6 4 3-6 3 1 1 1v3l-4 1 3 5 1 4-6 2-2-3-6 1-2 5 6 4 1 6-23-2-12-5-3 1v4h-4l-4-2v-5l4-3 24-5 1-3-6-1v-4l6-6 6 1-4 3 3 4 5-3zm-172 21l-1-3 5-1h1l2 3-1 7-3 1v-2zm-62 15l2-4 4 8-3 7zm50 4l7-6 5 2-3 3-3 2zm-6 4l-1-3 5-2h1v2l1 4 4-2 2 4-3 3zm65-2l4-1-2 10-3 3-3-1 1-4h-3v-1zm20 5l3-1h3l12 4-10 3h-3l-16 1 5-6zm-37 7l-6-2-2-5h12l-1 3zm-20-2l9-1 1 5h-13v-1zm-22 0l1 4-3 2-4-1v-5h1zm-10 22l7-4 7 6h-6zm148 57l2-61 2 1v60zm-96-42l2-2 2 4-3 1zm-7 8l-3-5 8-3 2 5-5-2 1 4zm-9 4l-2-5 5-2 1 6zm37 24l2-1 2 4-4 3h-6l-1-3z"/><path fill-rule="evenodd" class="i" d="m135 18l3-5h4l-1 9-6-1zm-50 12h-4l4-14 7 2-7 4zm2 55v-42l3 14 2 13 3 15zm62-9l1-4 7 2-5 10-3-2zm-83 30l6-7-8-6 6-1 37 1 3 4-4 11h-4v-7h-3l-6 9v-4h-5v-11l-4 1h-6v19l-6-4-1 7 7 3 7-1v38l-6 3v-12l-2 2-3-13-10 4-4 8 1 18 11 1-17 1 1-6 3-7-4-8-4-12v-2l3-26 2 6 3-1 2 3v-2l5-2zm-7-14l2 2-3 3h-4l-2-5zm141 6l-2-1 2-5 3 4zm-71-2l5-2h4v1h-6l1 7-4 2zm151 17l2-1 12 2-7 3h-2l-6-1zm-191 5l5-1 5 5h-5v4l-5-3-1-1zm50 0l9 7-1 3-7-3 1 16 5 2 4-3 8 1-3 9-16 1zm165 10l-3-5 4-1v-3l5 4v4zm-174-7l4-1v8l-5-6v-1zm98 2l5-1-1 5h-3zm-70 17l-1-6-4 2v-3l9-1v2zm-27 11l-1-16 4 4v12zm93-14l7-1-1 8-3-1v5l-1 1-4-5 2-3-4 2-3-2v-5l5 4zm-30 7l-3-1 4-5 5 5-3 3 2-1 6 5 2 4-4 2 3 5-8-6v-7zm-7 6l1-1 5 1-1 5h-3zm-62 6l-3-6h4l2 2zm-10 1l3-2 2 3-2 1h5l-5 3-3-1 2-3zm67 7l-8-2 9-7 5 4-3 4zm6-1l7-1h10l-5 5zm-104 3l8-4h3l-2 6zm356 19v-4l3 1 2 4v8zm-364 31l-5-1v-10l-3-2v-4l4-1v-9l4-3 4 2-2 1 3 6v16l-7 3 6 2zm-34-18l-1-10 11 29 7 31h-5v-1l-2-21-9-24zm391 12l3-2 4 4-2 5-1 2-3-2zm-341 8l15-4 1 3-10 2-4 3-2-1zm346 6l7-5v8l-4-3-1 4zm-372-1l16-2v16l-7 11h-8v-1h5l2-4-4-18-3-1-4 4 3 16-4-14v-6zm37-1l6-1v14l-2-2-4 10-5-3v-17l6 4z"/><path fill-rule="evenodd" class="j" d="m248 11l1-6 2 3 1-4 4 1v2l-5 2v3zm9-4l4-1 10 9 1 4h6l-4 6-4-5-2 3-4-2 3-3 1 3 2-5-4-1-6-2zm-22 14l-2-4 3-3 5-3 6 1 1 3-3 2-2-2v4l-5-1 1 4zm59 49l1 3-10 9v-1l3-5zm-58 10l6-4v1l-1 9h-5zm41 19l8-15 1 6 2-4h4l1 3 4-5-9 15-5 4v-4zm-61-10l8 2 1-5-2 21-3 4-1-10-6-5 2-6zm-20 15l12-7 1 4 3-2 1 15-3 2-3-2zm37 18l4-22 2 3 1-4 2 1-8 27v14h3l-5 4-2 1v-2l1-8v-3l1-6zm17 10l2-26 2 5h4l-5 6v13l-1 1zm6-3l2-10 2 2 1-4 3 3-1 5-6 4zm84-9l3-1v8l-1 4h-1v-5l-2 3-5 2zm-9 16l4 1 1 2-8 7-2-4zm-22 13l3-2h8l6 9-5 14-4-4zm-6 2l2-1 4 16 10 11-3-1-3 4-3-6zm-9 3l6-2 2 11-3 13 2-1 4 7 1 6v3l-5-1-7 7 6 24 3 17 1 10h-13v-8l-7 2v-9l-4-6-8 9-9 2 6-5 8-15 7-31h5l-5-5 6-17-2-6zm29 34l-4-5 1-5 5 4v-4l4 3v11zm-13 15l-9-4 6-3zm-3 12l3-6 1 6 9 5 7 9 1 5-4 4-5-2-2-7-7-6z"/><path fill-rule="evenodd" class="k" d="m129 0h6v1l-5 12-1 2zm-44 6v-2l7 1 3 3 2 8-2-1zm-48 4v-3l6 1 2 1v3zm209 18l6 2 6-3 1 3-1 6h-14l-4 7 4 6-3 2-2 2-6-2-1-13 1-8 8-1zm9 19l3-9h3l-2 8 2 2h-5zm3 9l4-1v-6l1 9 8 2-3 6-8 1-1-7-5 7-3-2 4-2-4-3 1-1zm-20 4l2-4 6 6-1 4h4v3h-3l-3 4-3-1zm43 0l1-2 6 2v5l-4 1zm-37 20l8-1-3 4-2 1zm-56 28l6-5 2 1 11 10-6 1-2-3-2 2-13 2 3 6-4-1-3 5h-4l-12 18-3 12-8 7 3 2v1l-4 3-4-2 1-3 6-11 6-3 1-16v-2l15-14-4 5 7 1v-9l3-4zm-15 39l1-12 11-6v4l-6 3 2 5-4 3-2-2zm-88-9v-6h4l2 1-2 6zm20 2l2-2 2 2 6-2 3 5-8 1-10 8-1-2 8-6 1-3zm185 12l6-2 2-8 8 4-3 5-9 3zm-64 4l11-6 8 1 1-3 3 3 12-3 2 2-23 8-6-3zm39 6v3h4l8-5v-4l1 6 4 1-11 10v5l-10 2h-1l2-2-7-2-3-2-1-6h9l-5-9zm1-1l1-4 8-1zm-56 0l2 3 5-4h3l-6 8-4 1-18 11-8-2 3-2 7-4-4-2 10-3 5-5h1zm-46 7l4-5h1v2l-2 8h-5l1 6-5 4h-3l2-9 4-3zm7 3l16-1-4 4h-1l-11-2zm-36 11l8-7v3l5-1-1 5-5 2-13 1zm92-4l17-3-10 4zm-22-1h11l7 1-21 2zm-34 3l9-1-5 3-2 11-18 4-2 1h-2l-1-5 20-2-1-4 4-6zm75 4l5-4 1 3zm18 1l18-3h2l5 5h-29l-14-1zm-154 0l10-1v9l23 1-5 10-3-4-2 4-6 2-1 5h-5l-2 6 7 1 1 2-2 7 7 1 1 3-1 17h-39l3-1 12-2 1-10v-26z"/><path class="l" d="m246 28l13-4 4 11 1 3-2-2-1 2h-3l-3 9-11 2-4-6 4-7h14l1-6-1-3-6 3zm37 12l3-2 3 1v8zm-37 12l10-4h5l1 1v6l-4 1 1-4-5 2h-8zm-6 4l7 2h1l4 1-1 1-3 1 3 4 3 2 5-7 1 7 8-1-8 10-14-7h3v-3h-4l1-4zm-43 58l2-2 2 3 6-1 3 2 2 4h-9l-7-4zm-90 30l-6-2 3-2h1l3 1zm156 6l8-2 3 4h5l8-3 3 3 4 2-6 5-6 4-4-1-1-6h-2l-8 1-1 4-1 1-10-3 5 9h-9l1 6-8 1-17 3h-4l-7-1 5-1 1-7-8-1 6-8 6-4 8-1 6 3zm-12 30l4-4 7 2-2 2-8 3z"/><path class="m" d="m88 1l4-1h9v1l-8 1 8 6 3 5-2 2 3 3h-3l-7-10-3-3zm14 4l-1-4h5l5 7v4l-4-1zm14 6l2-10h2l1 12-1 6-3-1zm36-9v-1h13l-8 5v-4zm130 6l4-1-2-6h10l4 3v6l6 10-1 7-4-4 1-5-3-1-1 3-5-17-2 5zm-48 1v-3l4 1 2-3 4 3-7 1-1 5zm-149 1v-4l10 9zm45 3l3-3 6 1-1 2-3 5-7 2 1-5zm143 42l-3-12 3 6 3-4 4 15-4 1v-6zm-40-1v-3l6 2 2-2 5 1v2l1 4-7-2-2 4zm21 0l5-2-1 4-6 3-4-1h4zm34 22l-3-9 4 1 2 5zm-45 1l7-3 3 2-4 1 6 2-6 4 3-4-8 1zm-158 32h3v-3h5v4 6l-4-1h-4zm49 0l4-1v11 18l-1 2-3-2v-9-8zm35 54l3-9 15-17-2-1 2-7 7-4 2-9 7 4h9l2 2-9 8-8-6-2 5 2-1v7l-2 3-4 5 3 1-6 5-1 1-4 5-9 7 8 2-6 1-5 6v1l1 4 4-3 6 1h1l4 2-3 2-4 1-9 1h-2-3l3-15zm146-19l-2-18 4 7zm-224-11l6-2h6l1 3-9 2-2 4-4-1zm27 12l3-1 1 6 3 6-2 3h-5l2-1-2-3-3 2-3-1 3-3-5-2-7 6-1 1v-2l4-6zm-26 13l5-1-3-7h5l1 2 1 4-5 2 1 3-2 1h-3zm-28 9l2-3 10-2-10 5zm54 0l-7-1 3-2 13 1-4 2zm92 2l4-1 8 1-1 7-5 1h-11l6-5zm-89 6v-3h1v1l9 9h-9l-1-3zm14 7h-3v-8l9-1 2 2zm117 1l8-3h1l5 2-2 3-18 1 14 1-15 1-2-1 3-3zm-151 18l-7-6h7 5l1 4zm-14 4v-9l4 5v5l1 12v3 9h-3l1 18h-7v-11-8l5 1zm-26 33l1-8 4 14 1 3v1h-7z"/><path fill-rule="evenodd" class="n" d="m299 66l4 2-7 5 2 1 12-6-2-1 2-3h5l-1 2 5 2-10 3 4 2-6 1 2 2-2 1 19-5h2l1 2-11 1-14 6-9 9 22-8 8-1-4 3-9 2-13 6 16-5 12-2 6 1-17 4-12 2-13 8-3-1 9-15-4 5-1-3h-4l-2 4-1-6v-2l10-9-1-3 4-4zm-73 14l2-2v8l-1-2-2 2-1 5-8-2zm120 24l-4-13 1-7zm-143-8l12-6-3 9-3 2-1-4-12 7-2-1 6-5zm120 0l11-3h4l-2 3-11 1h-1zm-53 16l5-3h5l2 2v1l-2 1-8 5 2-3zm73 15l1-1 1 3-1 3-3 12-4 1v13l-8 23-4-3-8-12 4 4 7 3 3-4 1-6-3-2 7-22-1-2 7-6zm-4 2l2-3v5l-2 1zm-34 53l-1-7 3-3 3 2 3 13 2-3v3l8 1 6 4v-10l3 4v15l2 7-1 16-1 10 1 1 1 12v1h-19l14-9 1-7-3-3-7-9v-1l5 3-3-11h-3l1 6-10-14-3-7-1-8zm-6 35l3-6 5 4 3 8 7 6v5h-10l2 4 9-2-4 10h-7l-4-8 1-15-4-2z"/><path class="o" d="m101 8l-8-6 8-1 1 4zm189 57l2-8h1l2 5 1 2zm-126 79l12-18h4l3-5 4 1-2 7-11 6-1 12-5 16-4 5 2-10-4 1 6-7zm-79-19l3 4v-7l1 1v9h-4zm219 3l6-1v-4l2 3v4l-5 4-2-2zm-47 1l6-4h1l1 4-4 2zm-150 9l3-1-3-6 8 1 4 2-5 1 1 3-6 2zm143-6l2-1 2 4-4 3h-7zm-129 12l1-7 1 1 1 8 2 4h-4zm-49 25l-11-1-1-18 4-8 10-4 3 13 2-2v12l-5-15-7-1-4 20 1 2h2l8 1zm7-8l6-3v-20l4 1 4 1v1l-1 17v4l-8 4h-6zm158-20l4-2v8l-9-2zm-112 15l3-4 1 3 2 3v5l-4 2-13-1 2-2-7 2-2-4 2-2 3-2 3 1 2 1-2 3 3 1 5-3zm85 5l6-4 1 3-5 4zm-115 1l2-1 9 6-8 2h-1l-4-1zm57 7l4-3h3l-1 4 3 1-4 3-2 9h-2l-6-1 1-5zm-42 16l5-1 6-9v4l1 5h-2zm-50 10l1-7 7-4 8 2-4 3v9l-4 1v4l3 2v10l5 1-10 4v3l-4 1-1-4 4-20zm21 0l-3-6 2-1 4 1zm26 19v-13l2 8v12l-6 1-1-3h-4l10-2zm-9 9l-1-1h6l1 5z"/><path class="p" d="m240 4l-1-3h40l-3 4 6 3h7l2-5 5 17 1-3 3 1-1 5 4 4 2 3-2 4-5 1 1-8-4 2-2-13-6 5-3-3-4 1-1-6-5-1-3 3-10-9 2-1-2-2-5 2-4-1-1 4-2-3-1 6-1 1-6-1-5 3-3 3 2 4-1 5-1 3-3-4-1-3v-3l5-10 2 4 1-5 7-1zm59 36l4-3 1 7-3 5-8 8zm-65 34l6-2 3 1 2 1-3 2-6 4 1-4-4 4-2 10-3-10v-2l1-2zm48 37l9-1 7 2 6 5v1l-3-1-2-1-5-2-12-2zm60 3l1-2 3 5v1l-2 8-1 1v-8l-3 1zm-8 17l5-2v3l2-1h1l-7 6-4-1zm-8 11l2 4 8-7-7 22 3 2-1 6-3 4-7-3 5-14-6-9 6-6zm-26 10l3-1 7 23-3-2-3 3 1 7-4-7-2 1 3-13zm23 36l-8-1v-3l-2 3-3-13 3 6 3-4 3 1 1 1-1 5zm-24 29l-5-20 7-7 5 1v-3l1 8-6 3 9 4 10 14v2 1l-9-5-1-6-3 6-5-4zm4 21l-3-17 4 2zm0 0l4 8h7l4-10-9 2-2-4h10v-5l2 7 5 2 4-4-1-5 3 3-1 7-14 9h-11z"/><path fill-rule="evenodd" class="q" d="m304 65l6-1-2 3 2 1-12 6-2-1 7-5-4-2zm22 7l-19 5 2-1-2-2 6-1-4-2 10-3-5-2 1-2h10zm3 2l-1-2 8 4-8 2zm-12 8l-22 8 9-9 14-6zm10 3l9-1 1-6 4 3v-3h5v6h-3l-1 7 4 13-3 8-1 2-5-2-1 4-2-1 2 3-2 4-4-4-6 1 3 11-4-5-4 3-15-11-6-5 3-2-3-3h-7v3l-9 1-2-2 3-6 5-4 3 1 13-8 6 2-6 4 4 4 4-1-2-4 13-1 1 1-10 6 1 5h3l4-6 9 5-1-9-5-1 11-1 2-3h-4l5-3-17 3-6-3 17-4zm-2-4h10l-14 3zm-10 6l-16 5 13-6zm-46 14l8-2h6v3l-9 2 4 3-3 2-5 3-3 5 3 4-6 4h-1l1-5 2-12 8-5zm68 54v-10l4-1zm-17 62l-1-6h3l3 11-5-3z"/><path class="r" d="m107 11l4 1v-4l-5-7h9l1 10 1 7h-6zm175-3l-6-3 3-4h5l2 6zm-132-1l-4-1 6-4h5v4l-2 1zm106-2l5-2 2 2-2 1-4 1h-1zm-123 5l5-5 2 5-1 1zm-48 6v-6l10 5 2 1-1 2h-4zm36-3l3-1v7h-4zm150 2l3-3 5 1 1 6 4-1 3 3 6-5 2 13 4-2-1 8 5-1v3l-4 3v-3l-4 3-3-9-7 4 1 3-3 2-7 5-3 4-3-6-2-5h-4l-1-3 6 1-2-5 5-3-1 11 4-3 2 3 1-7 4-2-8-5 4-6h-6zm-166 3l-3-3 2-2 4 5zm161-3l-5 6-3-3 2-5zm-32 11l6-1-2 3 3 1-8 1v-1zm10 23l11-2 1 1-10 4-5-1zm3 9l-1-4h8l-2 4h-4zm24 2l2-5h3v6l4-1h1l3 6 1 1 3 9-3 5-5-6 2-6-6 1v-4h-5l-9 8-3 12-9 1 1-3h-4l2-1 6-4-6-2 4-1-3-2h-5l-2-1 3-4 14 7 8-10zm-74 75v-7l-2 1 2-5 8 6 9-8 4 6zm-104 6l4-3 7 2-3 2 6 2-8 6h-5l3 7-5 1zm7 11l10-8 8-1v2l-12 5-4 6h-1zm9 12l7-2-2 2-3 2 7 1-11 2h-4-5l8-2zm-17 34v-4l2 1 7 6h-5z"/><path fill-rule="evenodd" class="s" d="m231 8l5-7h3l1 3-2 3-4-1v3l-5 10v-6zm67-4l-4-3h5zm5 23l1-7-6-10v-6l4 2-1 6 4-1 1 1 2 11 1 11-3 8-1 2h-1l-1-7v-3l2-4zm-13 38l6-1 2 2-7 7-2-5-4-1-1-1 4-1zm-206 31l4-1v14h-3zm182 12l3-7 5 2zm-181 7h4v3l-1 4v7l-3-4zm53 4h1v32h-5v-9l4 1zm64 24v-4l-3-1 6-5 2 5 3-2-3 9zm-139 22l4-20 7 1 5 15-1 5-4 2-8-1 10-5-2-9-6-4zm39-7l1-1 6 1-2 2-4 2zm-62 25h19l-5-2 3-3 11 6-7 4-1 7-3-4-2 6 3 2v17l-6 1-11-29zm41 12l3-6 3 1v15l-6 1zm20 6l6-2v15l-15 4-1-12 5-1v-4zm-20 10v-2l1 12-16 2v-3l10-4h4zm-20 27l-5-11v-4l5-3 1 4v6zm29 10l-1-18h3l4 17-3 1z"/><path fill-rule="evenodd" class="t" d="m142 9l4-8h6v1l-6 4 4 1-2 1h-3zm-1 13l1-9v9zm101 54l3-2h5l-7 3h-1zm-109 26l-1-7h6l1 23v1h-1v-11l-4 1-1-3zm54 20l-3-6 13-2-1 2-2 9-7 4-2 7 2 1-15 17-3 9h-1l5-16 2-5 2 2 4-3-2-5 6-3v-4zm-10-4l3-3v9l-7-1zm130 16l5-4v-4h1l2 18-3 3-3 2-4 1-2 1 3-5zm-214 6l2-4 9-2-1-3h4l3 6-3 1-2 2h-1l-7-2-4 3zm65 0l4-6-1 16-6 3v-3l3-9zm-24-3l3 2 1-2v6l-4-1zm-71 28l5-16 6 4 2 9-10 2-2 3zm95 18l5-4-1-6h5l2-8-3 15h3v3zm34-3l18-11 1 3-6 5-3 3zm-9-6l4-4h3l4 2-7 4zm-1 0l-6-1-4 3-1-4zm-61 5l1 3h9l-9-9h19l-9 1v8h3l-6 3-7-1zm140 1l10-2v-5l11 9-18 3 2-3zm-114 2l6 1-11 1zm-60 14v-6l6 1 8 2v2h-7l-2-1v4l-1 3zm-6 10l6-1 1 25-5-1v8h-1v-16l-1-12z"/><path class="u" d="m298 4l1-3h2l4 10-4 1 1-6zm-168 117l3-15 1 3v11zm-33 10l2-9 2 8 5 1h-3zm123-4l8-4 1 4h3l-1 6-3-2-4 6-2 3-5-4v5l3 2 4-2-2 3 4 5-10 8-6 4-4 1v-1l-3-5 4-2-2-4 3-2-1-3 3-9-3 2-2-5-6 5 3 1v4l-3 2-2 1 3-3-5-5 2-3 21-7zm-32 22l6-5 4 4v7l-3 7-7 1h-3l3-4-5-4 4-5 2 5h3l1-5zm-136 68l6-1v-17l-3-2 2-6 3 4 5 5-4 20-5 3v4l5 11-1 10h-1zm39-16l1-3 4 3v4l-5 1zm354 7l-5-1 1-5 4 4zm-5 4l1 5h3l1-7v9l-7 5-1-3h3l-2-4zm-360 4l-6-2 7-3zm14 6l4-3h4l1 3h-6zm-19 26l7-11h1v11z"/><path class="v" d="m326 72l-1-8 11 4 10 10h-5v3l-4-3-1 6-9 1-12 2-3-1 9-2 14-3h-10l-8 1 1-7 11-1-1 4 8-2-8-4zm17 12h3v-5h1l2 9v6l-1 8-1 3-1 12-3-5 3-8zm-39 8l12-2 6 3 17-3-5 3-11 3-13 1 2 4-4 1-4-4 6-4zm21 5l5 1 1 9-9-5-4 6h-3l-1-5 10-6zm-50 12l3-2-4-3 9-2v1l-3 6zm16 1v-3h7l3 3-3 2zm28 18l4-3 4 5-3-11 6-1 4 4 2-4-2-3 2 1 1-4 5 2-2 6-6 11-3 5-5 6v-1zm25-2l2-8 1 8-2 3z"/><path class="w" d="m156 244l-6-13-7 3 2-19 9 4 8 4-6 5 6 10 1 2z"/><path class="x" d="m0 227v-227h1v1 169 37 18 2z"/><path class="y" d="m85 4v-3h3l4 4zm31 7l-1-10h3zm14 2l5-12h5l-2 4-5 5zm-5 6l4-17v13l-1 5zm-24-11l1-3 5 6 4 7h-3l-4-5zm-4 8l-2-8 7 10-3 1h-3v-1z"/><path class="z" d="m121 13l-1-12h9v1l-4 17h-1v-7zm17-8l2-4h6l-4 8-2 1z"/><path class="A" d="m33 1v-1h51l-44 1h-3zm412 146v-4h1v26l-1-10zm0 39v-11h1v73h-1v-13-8-8-9-2-2-12zm-445 62v-21h1v6 7 8z"/><path class="B" d="m334 248v-1h12v1zm19 0l4-1h8v1z"/><path class="C" d="m101 1v-1h28v1h-9-2-3-9zm34 0v-1h31v1h-1-13-6-6zm102 0v-1h62v1h-5-10-5-40z"/><path fill-rule="evenodd" class="a" d="m337 19h5l1 5-4 1zm30 6h5v5l-5 1v-3h-3zm-166 6l10 2 1 3-9 3-4-4zm167 2l8 3-10 2zm0 7l9 3 2 4-12 1-2-3zm47 6l6 4-2 4h-4v7h-7l2-7-4-4zm-36 8l4 6 1 11-3 1-2-3zm37 32h4v6l-5 14-6-4-4 1-2-4 2-5 6 3v-5zm-20 9l6 2v5l-5 3z"/><path class="b" d="m127 42h5v8l-8-5zm252 47l4 1v4l-3 3v-5h-4zm55 27h5l-1 13-7 7-8-4 5-8 4 1-1-6zm-39 15l1-6 8 2-8 4zm15 3l4 2-3 4z"/><path fill-rule="evenodd" class="c" d="m180 37l-1 7-7-3zm41 0l-2 8-3-3 2-5zm181 168h4l1 3h-5z"/><path fill-rule="evenodd" class="e" d="m181 10l5 1-2 3 4 5-4 2-4-4zm48 48l6 2 1 6-7-2zm-90 10l6 1-11 2zm33 1h6l-4 7-4-3zm260 10h7l1 3-10 3zm-68 11h3v4l-4 3-5-3zm-5 10l4 9-7-3zm37 31l14 16h3l-2 7 5 2-4 7-11-7-7 7h-4l-1-3-6 3-7-7 1-3 10-1 1-5h4l-3 10h6v-9l3 4 3-4-1 3 7 2 1-4-6-4-2-6-9-3v-8l4 3zm21 9l3 7-6-3zm-12 29h3l1 4-6 2zm-71 5l3 1-2 6h-3zm15 2h3v4zm20 5l2 4-4 1zm38 54h6v3l4 1-9 6-5-4zm-32 2l2 5-7 1z"/><path class="f" d="m182 60l7 5-8 1-2-5zm38 67l5-1 3 4-5 1-2 4zm181 97l5 4-4 3v5h-4l-2-6 5-2zm-42 2l3 4h5v3l-4 2-6-4z"/><path class="g" d="m112 7l3 1v8z"/><path fill-rule="evenodd" class="h" d="m283 50l3-1-2 6zm-204 88l5 5-5 4zm93 100h3l-2 6-4-3z"/><path fill-rule="evenodd" class="i" d="m158 116l5 2-1 9-6-2-5 2-1-6zm55 18l3 4h-5z"/><path class="j" d="m243 109l3 21-2 5-1-3h-4z"/><path class="m" d="m283 50l-1 3-2-2 2-8 4 1v5z"/><path class="p" d="m290 212l2 3-3 9h-3v-9z"/><path class="q" d="m311 193l4 3 2 8-3 2z"/><path fill-rule="evenodd" class="s" d="m212 148l3 2-2-7zm-126 2l3 3-2-8zm131 0l4-4-4-1z"/></svg>