<svg width="32" height="36" viewBox="0 0 32 36" fill="none" xmlns="http://www.w3.org/2000/svg">
<path d="M16.2876 0C7.81761 0 0.92627 7.86669 0.92627 17.5355C0.92627 27.2043 7.81761 35.071 16.2876 35.071C24.7577 35.071 31.649 27.2043 31.649 17.5355C31.649 7.86669 24.7577 0 16.2876 0ZM12.3481 5.39554H20.2249C23.9175 5.39554 26.9224 8.82442 26.9224 13.0383V22.03C26.9224 26.2453 23.9187 29.6755 20.2272 29.6755H12.3504C8.65773 29.6755 5.65284 26.2466 5.65284 22.0327V13.041C5.65284 8.82571 8.6566 5.39554 12.3481 5.39554ZM12.3481 8.09331C9.95995 8.09331 8.01613 10.3135 8.01613 13.041V22.0327C8.01613 24.7588 9.96108 26.9777 12.3504 26.9777H20.2272C22.6153 26.9777 24.5591 24.7575 24.5591 22.03V13.0383C24.5591 10.3122 22.6142 8.09331 20.2249 8.09331H12.3481ZM21.8035 10.3406C22.2384 10.3406 22.5905 10.7426 22.5905 11.2389C22.5905 11.7353 22.2384 12.14 21.8035 12.14C21.3687 12.14 21.0142 11.7353 21.0142 11.2389C21.0142 10.7426 21.3687 10.3406 21.8035 10.3406ZM16.2876 10.7911C19.5454 10.7911 22.1959 13.8166 22.1959 17.5355C22.1959 21.2544 19.5454 24.2799 16.2876 24.2799C13.0298 24.2799 10.3794 21.2544 10.3794 17.5355C10.3794 13.8166 13.0298 10.7911 16.2876 10.7911ZM16.2876 13.4888C15.3475 13.4888 14.4458 13.9152 13.781 14.6741C13.1162 15.433 12.7427 16.4623 12.7427 17.5355C12.7427 18.6087 13.1162 19.638 13.781 20.3969C14.4458 21.1558 15.3475 21.5822 16.2876 21.5822C17.2278 21.5822 18.1295 21.1558 18.7943 20.3969C19.4591 19.638 19.8326 18.6087 19.8326 17.5355C19.8326 16.4623 19.4591 15.433 18.7943 14.6741C18.1295 13.9152 17.2278 13.4888 16.2876 13.4888Z" fill="black"/>
</svg>
