<svg width="29" height="33" viewBox="0 0 29 33" fill="none" xmlns="http://www.w3.org/2000/svg">
<path d="M14.1885 0.347656C6.35776 0.347656 0.00878906 7.59521 0.00878906 16.5343C0.00878906 25.4733 6.35776 32.7209 14.1885 32.7209C22.0193 32.7209 28.3682 25.4733 28.3682 16.5343C28.3682 7.59521 22.0193 0.347656 14.1885 0.347656ZM8.86639 7.63568C9.86133 7.63568 10.5242 8.3924 10.5242 9.40137C10.5242 10.4103 9.86133 11.1671 8.7565 11.1671C7.76155 11.1684 7.09865 10.4103 7.09865 9.40137C7.09865 8.3924 7.76155 7.63568 8.86639 7.63568ZM10.6436 23.2787H7.09865V12.4876H10.6436V23.2787ZM22.46 23.2787H19.1231V17.3814C19.1231 15.7506 18.2333 15.3742 17.9001 15.3742C17.5668 15.3742 16.4537 15.6251 16.4537 17.3814C16.4537 17.6323 16.4537 23.2787 16.4537 23.2787H13.0069V12.4876H16.4549V13.993C16.8992 13.1148 17.789 12.4876 19.4575 12.4876C21.1259 12.4876 22.46 13.993 22.46 17.3814V23.2787Z" fill="black"/>
</svg>
