<svg width="29" height="33" viewBox="0 0 29 33" fill="none" xmlns="http://www.w3.org/2000/svg">
<path d="M14.3872 0.347656C6.55649 0.347656 0.20752 7.59521 0.20752 16.5343C0.20752 25.4733 6.55649 32.7209 14.3872 32.7209C22.218 32.7209 28.567 25.4733 28.567 16.5343C28.567 7.59521 22.218 0.347656 14.3872 0.347656ZM22.0254 13.2093C22.0325 13.3887 22.036 13.5667 22.036 13.7448C22.036 19.232 18.3788 25.5556 11.6896 25.5556C9.63467 25.5556 7.72395 24.869 6.11574 23.6901C6.40051 23.7292 6.69002 23.7468 6.98425 23.7468C8.68936 23.7468 10.2562 23.0845 11.4993 21.9689C9.90763 21.9352 8.5641 20.7347 8.10208 19.0864C8.32423 19.1349 8.55229 19.1605 8.78625 19.1605C9.11829 19.1605 9.44088 19.1093 9.74457 19.0149C8.08081 18.6345 6.82709 16.9565 6.82709 14.9453C6.82709 14.9277 6.82709 14.9102 6.82709 14.8927C7.31747 15.2043 7.87757 15.3904 8.4743 15.412C7.49944 14.6688 6.85663 13.3968 6.85663 11.9575C6.85663 11.1954 7.03506 10.4818 7.34819 9.87078C9.14193 12.3824 11.8219 14.0361 14.8434 14.2088C14.7819 13.9053 14.75 13.5883 14.75 13.2632C14.75 10.9715 16.3783 9.11136 18.3859 9.11136C19.4317 9.11136 20.377 9.61584 21.0399 10.4225C21.8682 10.235 22.6469 9.89101 23.35 9.41486C23.0782 10.3847 22.5016 11.1967 21.7501 11.712C22.485 11.6122 23.1858 11.3896 23.8392 11.0591C23.3536 11.8928 22.7379 12.6225 22.0254 13.2093Z" fill="black"/>
</svg>
