<svg width="34" height="34" viewBox="0 0 34 34" fill="none" xmlns="http://www.w3.org/2000/svg">
<path d="M19.9497 0.347656C12.119 0.347656 5.77002 7.59521 5.77002 16.5343C5.77002 25.4733 12.119 32.7209 19.9497 32.7209C27.7805 32.7209 34.1295 25.4733 34.1295 16.5343C34.1295 7.59521 27.7805 0.347656 19.9497 0.347656ZM16.4048 24.6276C12.4888 24.6276 23.3481 15.033 23.3481 10.5628C23.3481 6.09256 12.4888 8.44096 16.4048 8.44096C18.2482 8.44096 19.9273 9.2449 21.1869 10.5628L19.4924 12.4566C18.6641 11.6365 17.5865 11.1387 16.4048 11.1387C13.7946 11.1387 8.5 18.9501 8.5 21.9298C8.5 24.9095 13.7946 21.9298 16.4048 21.9298C18.7456 21.9298 20.6847 19.9847 21.0605 17.434H16.4048L11 24L24.6763 27.5L24 14.5C24.0945 15.0234 23.4947 15.9799 23.4947 16.5343C23.4947 21.0045 20.3208 24.6276 16.4048 24.6276ZM29.4029 17.8832V20.5809H27.0396V17.8832H24.6763V15.1854L24.6763 24.6276L33.5 17.434L32.5 14.9156L29.4029 12.4876V15.1854H31.7662V17.8832H29.4029Z" fill="black"/>
<path d="M27.8936 11.6788C27.7916 11.3069 27.4641 11.0302 27.0643 10.9781C24.5548 10.6505 22.0095 10.4844 19.499 10.4844C16.9885 10.4844 14.4438 10.6505 11.9357 10.9781C11.5358 11.0303 11.2085 11.307 11.1064 11.6789C10.124 15.2593 10.124 18.7402 11.1064 22.3206C11.2085 22.6924 11.5359 22.9692 11.9358 23.0213C14.4456 23.3489 16.9911 23.515 19.5015 23.515C22.012 23.515 24.5565 23.3489 27.0643 23.0213C27.4641 22.9691 27.7915 22.6924 27.8935 22.3206C28.8761 18.7407 28.8761 15.2597 27.8936 11.6788ZM22.6928 17.6707L18.9855 20.3835C18.8273 20.4993 18.6362 20.5587 18.444 20.5587C18.3103 20.5587 18.1761 20.5299 18.0513 20.4715C17.7478 20.3291 17.5556 20.0348 17.5556 19.7124V14.2869C17.5556 13.9645 17.7478 13.6702 18.0513 13.5278C18.355 13.3854 18.717 13.4195 18.9855 13.6159L22.6928 16.3286C22.9118 16.4888 23.04 16.7368 23.04 16.9997C23.04 17.2625 22.9117 17.5105 22.6928 17.6707Z" fill="white"/>
</svg>
