<svg width="510" height="648" viewBox="0 0 510 648" fill="none" xmlns="http://www.w3.org/2000/svg">
<g opacity="0.7" clip-path="url(#clip0_195_1681)">
<path d="M504.552 195.023C502.051 195.023 500.023 197.051 500.023 199.552C500.023 202.053 502.051 204.08 504.552 204.08C507.053 204.08 509.08 202.053 509.08 199.552C509.08 197.051 507.053 195.023 504.552 195.023Z" fill="#E1EAF1"/>
<path d="M486.439 195.023C483.938 195.023 481.911 197.051 481.911 199.552C481.911 202.053 483.938 204.08 486.439 204.08C488.94 204.08 490.968 202.053 490.968 199.552C490.968 197.051 488.94 195.023 486.439 195.023Z" fill="#E1EAF1"/>
<path d="M468.325 195.023C465.824 195.023 463.797 197.051 463.797 199.552C463.797 202.053 465.824 204.08 468.325 204.08C470.826 204.08 472.854 202.053 472.854 199.552C472.854 197.051 470.826 195.023 468.325 195.023Z" fill="#E1EAF1"/>
<path d="M450.212 195.023C447.711 195.023 445.683 197.051 445.683 199.552C445.683 202.053 447.711 204.08 450.212 204.08C452.713 204.08 454.74 202.053 454.74 199.552C454.74 197.051 452.713 195.023 450.212 195.023Z" fill="#E1EAF1"/>
<path d="M432.099 195.023C429.598 195.023 427.57 197.051 427.57 199.552C427.57 202.053 429.598 204.08 432.099 204.08C434.6 204.08 436.627 202.053 436.627 199.552C436.627 197.051 434.6 195.023 432.099 195.023Z" fill="#E1EAF1"/>
<path d="M413.981 195.023C411.48 195.023 409.453 197.051 409.453 199.552C409.453 202.053 411.48 204.08 413.981 204.08C416.482 204.08 418.51 202.053 418.51 199.552C418.51 197.051 416.482 195.023 413.981 195.023Z" fill="#E1EAF1"/>
<path d="M395.868 195.023C393.367 195.023 391.34 197.051 391.34 199.552C391.34 202.053 393.367 204.08 395.868 204.08C398.369 204.08 400.396 202.053 400.396 199.552C400.396 197.051 398.369 195.023 395.868 195.023Z" fill="#E1EAF1"/>
<path d="M377.755 195.023C375.254 195.023 373.226 197.051 373.226 199.552C373.226 202.053 375.254 204.08 377.755 204.08C380.256 204.08 382.283 202.053 382.283 199.552C382.283 197.051 380.256 195.023 377.755 195.023Z" fill="#E1EAF1"/>
<path d="M359.641 195.023C357.141 195.023 355.113 197.051 355.113 199.552C355.113 202.053 357.141 204.08 359.641 204.08C362.142 204.08 364.17 202.053 364.17 199.552C364.17 197.051 362.142 195.023 359.641 195.023Z" fill="#E1EAF1"/>
<path d="M341.528 195.023C339.027 195.023 337 197.051 337 199.552C337 202.053 339.027 204.08 341.528 204.08C344.029 204.08 346.057 202.053 346.057 199.552C346.057 197.051 344.029 195.023 341.528 195.023Z" fill="#E1EAF1"/>
<path d="M504.552 176.91C502.051 176.91 500.023 178.937 500.023 181.438C500.023 183.939 502.051 185.967 504.552 185.967C507.053 185.967 509.08 183.939 509.08 181.438C509.08 178.937 507.053 176.91 504.552 176.91Z" fill="#E1EAF1"/>
<path d="M486.439 176.91C483.938 176.91 481.911 178.937 481.911 181.438C481.911 183.939 483.938 185.967 486.439 185.967C488.94 185.967 490.968 183.939 490.968 181.438C490.968 178.937 488.94 176.91 486.439 176.91Z" fill="#E1EAF1"/>
<path d="M468.325 176.91C465.824 176.91 463.797 178.937 463.797 181.438C463.797 183.939 465.824 185.967 468.325 185.967C470.826 185.967 472.854 183.939 472.854 181.438C472.854 178.937 470.826 176.91 468.325 176.91Z" fill="#E1EAF1"/>
<path d="M450.212 176.91C447.711 176.91 445.683 178.937 445.683 181.438C445.683 183.939 447.711 185.967 450.212 185.967C452.713 185.967 454.74 183.939 454.74 181.438C454.74 178.937 452.713 176.91 450.212 176.91Z" fill="#E1EAF1"/>
<path d="M432.099 176.91C429.598 176.91 427.57 178.937 427.57 181.438C427.57 183.939 429.598 185.967 432.099 185.967C434.6 185.967 436.627 183.939 436.627 181.438C436.627 178.937 434.6 176.91 432.099 176.91Z" fill="#E1EAF1"/>
<path d="M413.981 176.91C411.48 176.91 409.453 178.937 409.453 181.438C409.453 183.939 411.48 185.967 413.981 185.967C416.482 185.967 418.51 183.939 418.51 181.438C418.51 178.937 416.482 176.91 413.981 176.91Z" fill="#E1EAF1"/>
<path d="M395.868 176.91C393.367 176.91 391.34 178.937 391.34 181.438C391.34 183.939 393.367 185.967 395.868 185.967C398.369 185.967 400.396 183.939 400.396 181.438C400.396 178.937 398.369 176.91 395.868 176.91Z" fill="#E1EAF1"/>
<path d="M377.755 176.91C375.254 176.91 373.226 178.937 373.226 181.438C373.226 183.939 375.254 185.967 377.755 185.967C380.256 185.967 382.283 183.939 382.283 181.438C382.283 178.937 380.256 176.91 377.755 176.91Z" fill="#E1EAF1"/>
<path d="M359.641 176.91C357.141 176.91 355.113 178.937 355.113 181.438C355.113 183.939 357.141 185.967 359.641 185.967C362.142 185.967 364.17 183.939 364.17 181.438C364.17 178.937 362.142 176.91 359.641 176.91Z" fill="#E1EAF1"/>
<path d="M341.528 176.91C339.027 176.91 337 178.937 337 181.438C337 183.939 339.027 185.967 341.528 185.967C344.029 185.967 346.057 183.939 346.057 181.438C346.057 178.937 344.029 176.91 341.528 176.91Z" fill="#E1EAF1"/>
<path d="M504.552 158.797C502.051 158.797 500.023 160.824 500.023 163.325C500.023 165.826 502.051 167.854 504.552 167.854C507.053 167.854 509.08 165.826 509.08 163.325C509.08 160.824 507.053 158.797 504.552 158.797Z" fill="#E1EAF1"/>
<path d="M486.439 158.797C483.938 158.797 481.911 160.824 481.911 163.325C481.911 165.826 483.938 167.854 486.439 167.854C488.94 167.854 490.968 165.826 490.968 163.325C490.968 160.824 488.94 158.797 486.439 158.797Z" fill="#E1EAF1"/>
<path d="M468.325 158.797C465.824 158.797 463.797 160.824 463.797 163.325C463.797 165.826 465.824 167.854 468.325 167.854C470.826 167.854 472.854 165.826 472.854 163.325C472.854 160.824 470.826 158.797 468.325 158.797Z" fill="#E1EAF1"/>
<path d="M450.212 158.797C447.711 158.797 445.683 160.824 445.683 163.325C445.683 165.826 447.711 167.854 450.212 167.854C452.713 167.854 454.74 165.826 454.74 163.325C454.74 160.824 452.713 158.797 450.212 158.797Z" fill="#E1EAF1"/>
<path d="M432.099 158.797C429.598 158.797 427.57 160.824 427.57 163.325C427.57 165.826 429.598 167.854 432.099 167.854C434.6 167.854 436.627 165.826 436.627 163.325C436.627 160.824 434.6 158.797 432.099 158.797Z" fill="#E1EAF1"/>
<path d="M413.981 158.797C411.48 158.797 409.453 160.824 409.453 163.325C409.453 165.826 411.48 167.854 413.981 167.854C416.482 167.854 418.51 165.826 418.51 163.325C418.51 160.824 416.482 158.797 413.981 158.797Z" fill="#E1EAF1"/>
<path d="M395.868 158.797C393.367 158.797 391.34 160.824 391.34 163.325C391.34 165.826 393.367 167.854 395.868 167.854C398.369 167.854 400.396 165.826 400.396 163.325C400.396 160.824 398.369 158.797 395.868 158.797Z" fill="#E1EAF1"/>
<path d="M377.755 158.797C375.254 158.797 373.226 160.824 373.226 163.325C373.226 165.826 375.254 167.854 377.755 167.854C380.256 167.854 382.283 165.826 382.283 163.325C382.283 160.824 380.256 158.797 377.755 158.797Z" fill="#E1EAF1"/>
<path d="M359.641 158.797C357.141 158.797 355.113 160.824 355.113 163.325C355.113 165.826 357.141 167.854 359.641 167.854C362.142 167.854 364.17 165.826 364.17 163.325C364.17 160.824 362.142 158.797 359.641 158.797Z" fill="#E1EAF1"/>
<path d="M341.528 158.797C339.027 158.797 337 160.824 337 163.325C337 165.826 339.027 167.854 341.528 167.854C344.029 167.854 346.057 165.826 346.057 163.325C346.057 160.824 344.029 158.797 341.528 158.797Z" fill="#E1EAF1"/>
<path d="M504.552 140.681C502.051 140.681 500.023 142.709 500.023 145.21C500.023 147.711 502.051 149.738 504.552 149.738C507.053 149.738 509.08 147.711 509.08 145.21C509.08 142.709 507.053 140.681 504.552 140.681Z" fill="#E1EAF1"/>
<path d="M486.439 140.681C483.938 140.681 481.911 142.709 481.911 145.21C481.911 147.711 483.938 149.738 486.439 149.738C488.94 149.738 490.968 147.711 490.968 145.21C490.968 142.709 488.94 140.681 486.439 140.681Z" fill="#E1EAF1"/>
<path d="M468.325 140.681C465.824 140.681 463.797 142.709 463.797 145.21C463.797 147.711 465.824 149.738 468.325 149.738C470.826 149.738 472.854 147.711 472.854 145.21C472.854 142.709 470.826 140.681 468.325 140.681Z" fill="#E1EAF1"/>
<path d="M450.212 140.681C447.711 140.681 445.683 142.709 445.683 145.21C445.683 147.711 447.711 149.738 450.212 149.738C452.713 149.738 454.74 147.711 454.74 145.21C454.74 142.709 452.713 140.681 450.212 140.681Z" fill="#E1EAF1"/>
<path d="M432.099 140.681C429.598 140.681 427.57 142.709 427.57 145.21C427.57 147.711 429.598 149.738 432.099 149.738C434.6 149.738 436.627 147.711 436.627 145.21C436.627 142.709 434.6 140.681 432.099 140.681Z" fill="#E1EAF1"/>
<path d="M413.981 140.681C411.48 140.681 409.453 142.709 409.453 145.21C409.453 147.711 411.48 149.738 413.981 149.738C416.482 149.738 418.51 147.711 418.51 145.21C418.51 142.709 416.482 140.681 413.981 140.681Z" fill="#E1EAF1"/>
<path d="M395.868 140.681C393.367 140.681 391.34 142.709 391.34 145.21C391.34 147.711 393.367 149.738 395.868 149.738C398.369 149.738 400.396 147.711 400.396 145.21C400.396 142.709 398.369 140.681 395.868 140.681Z" fill="#E1EAF1"/>
<path d="M377.755 140.681C375.254 140.681 373.226 142.709 373.226 145.21C373.226 147.711 375.254 149.738 377.755 149.738C380.256 149.738 382.283 147.711 382.283 145.21C382.283 142.709 380.256 140.681 377.755 140.681Z" fill="#E1EAF1"/>
<path d="M359.641 140.681C357.141 140.681 355.113 142.709 355.113 145.21C355.113 147.711 357.141 149.738 359.641 149.738C362.142 149.738 364.17 147.711 364.17 145.21C364.17 142.709 362.142 140.681 359.641 140.681Z" fill="#E1EAF1"/>
<path d="M341.528 140.681C339.027 140.681 337 142.709 337 145.21C337 147.711 339.027 149.738 341.528 149.738C344.029 149.738 346.057 147.711 346.057 145.21C346.057 142.709 344.029 140.681 341.528 140.681Z" fill="#E1EAF1"/>
<path d="M504.552 122.568C502.051 122.568 500.023 124.596 500.023 127.097C500.023 129.598 502.051 131.625 504.552 131.625C507.053 131.625 509.08 129.598 509.08 127.097C509.08 124.596 507.053 122.568 504.552 122.568Z" fill="#E1EAF1"/>
<path d="M486.439 122.568C483.938 122.568 481.911 124.596 481.911 127.097C481.911 129.598 483.938 131.625 486.439 131.625C488.94 131.625 490.968 129.598 490.968 127.097C490.968 124.596 488.94 122.568 486.439 122.568Z" fill="#E1EAF1"/>
<path d="M468.325 122.568C465.824 122.568 463.797 124.596 463.797 127.097C463.797 129.598 465.824 131.625 468.325 131.625C470.826 131.625 472.854 129.598 472.854 127.097C472.854 124.596 470.826 122.568 468.325 122.568Z" fill="#E1EAF1"/>
<path d="M450.212 122.568C447.711 122.568 445.683 124.596 445.683 127.097C445.683 129.598 447.711 131.625 450.212 131.625C452.713 131.625 454.74 129.598 454.74 127.097C454.74 124.596 452.713 122.568 450.212 122.568Z" fill="#E1EAF1"/>
<path d="M432.099 122.568C429.598 122.568 427.57 124.596 427.57 127.097C427.57 129.598 429.598 131.625 432.099 131.625C434.6 131.625 436.627 129.598 436.627 127.097C436.627 124.596 434.6 122.568 432.099 122.568Z" fill="#E1EAF1"/>
<path d="M413.981 122.568C411.48 122.568 409.453 124.596 409.453 127.097C409.453 129.598 411.48 131.625 413.981 131.625C416.482 131.625 418.51 129.598 418.51 127.097C418.51 124.596 416.482 122.568 413.981 122.568Z" fill="#E1EAF1"/>
<path d="M395.868 122.568C393.367 122.568 391.34 124.596 391.34 127.097C391.34 129.598 393.367 131.625 395.868 131.625C398.369 131.625 400.396 129.598 400.396 127.097C400.396 124.596 398.369 122.568 395.868 122.568Z" fill="#E1EAF1"/>
<path d="M377.755 122.568C375.254 122.568 373.226 124.596 373.226 127.097C373.226 129.598 375.254 131.625 377.755 131.625C380.256 131.625 382.283 129.598 382.283 127.097C382.283 124.596 380.256 122.568 377.755 122.568Z" fill="#E1EAF1"/>
<path d="M359.641 122.568C357.141 122.568 355.113 124.596 355.113 127.097C355.113 129.598 357.141 131.625 359.641 131.625C362.142 131.625 364.17 129.598 364.17 127.097C364.17 124.596 362.142 122.568 359.641 122.568Z" fill="#E1EAF1"/>
<path d="M341.528 122.568C339.027 122.568 337 124.596 337 127.097C337 129.598 339.027 131.625 341.528 131.625C344.029 131.625 346.057 129.598 346.057 127.097C346.057 124.596 344.029 122.568 341.528 122.568Z" fill="#E1EAF1"/>
<path d="M504.552 104.455C502.051 104.455 500.023 106.482 500.023 108.983C500.023 111.484 502.051 113.512 504.552 113.512C507.053 113.512 509.08 111.484 509.08 108.983C509.08 106.482 507.053 104.455 504.552 104.455Z" fill="#E1EAF1"/>
<path d="M486.439 104.455C483.938 104.455 481.911 106.482 481.911 108.983C481.911 111.484 483.938 113.512 486.439 113.512C488.94 113.512 490.968 111.484 490.968 108.983C490.968 106.482 488.94 104.455 486.439 104.455Z" fill="#E1EAF1"/>
<path d="M468.325 104.455C465.824 104.455 463.797 106.482 463.797 108.983C463.797 111.484 465.824 113.512 468.325 113.512C470.826 113.512 472.854 111.484 472.854 108.983C472.854 106.482 470.826 104.455 468.325 104.455Z" fill="#E1EAF1"/>
<path d="M450.212 104.455C447.711 104.455 445.683 106.482 445.683 108.983C445.683 111.484 447.711 113.512 450.212 113.512C452.713 113.512 454.74 111.484 454.74 108.983C454.74 106.482 452.713 104.455 450.212 104.455Z" fill="#E1EAF1"/>
<path d="M432.099 104.455C429.598 104.455 427.57 106.482 427.57 108.983C427.57 111.484 429.598 113.512 432.099 113.512C434.6 113.512 436.627 111.484 436.627 108.983C436.627 106.482 434.6 104.455 432.099 104.455Z" fill="#E1EAF1"/>
<path d="M413.981 104.455C411.48 104.455 409.453 106.482 409.453 108.983C409.453 111.484 411.48 113.512 413.981 113.512C416.482 113.512 418.51 111.484 418.51 108.983C418.51 106.482 416.482 104.455 413.981 104.455Z" fill="#E1EAF1"/>
<path d="M395.868 104.455C393.367 104.455 391.34 106.482 391.34 108.983C391.34 111.484 393.367 113.512 395.868 113.512C398.369 113.512 400.396 111.484 400.396 108.983C400.396 106.482 398.369 104.455 395.868 104.455Z" fill="#E1EAF1"/>
<path d="M377.755 104.455C375.254 104.455 373.226 106.482 373.226 108.983C373.226 111.484 375.254 113.512 377.755 113.512C380.256 113.512 382.283 111.484 382.283 108.983C382.283 106.482 380.256 104.455 377.755 104.455Z" fill="#E1EAF1"/>
<path d="M359.641 104.455C357.141 104.455 355.113 106.482 355.113 108.983C355.113 111.484 357.141 113.512 359.641 113.512C362.142 113.512 364.17 111.484 364.17 108.983C364.17 106.482 362.142 104.455 359.641 104.455Z" fill="#E1EAF1"/>
<path d="M341.528 104.455C339.027 104.455 337 106.482 337 108.983C337 111.484 339.027 113.512 341.528 113.512C344.029 113.512 346.057 111.484 346.057 108.983C346.057 106.482 344.029 104.455 341.528 104.455Z" fill="#E1EAF1"/>
<path d="M504.552 86.3416C502.051 86.3416 500.023 88.369 500.023 90.87C500.023 93.371 502.051 95.3984 504.552 95.3984C507.053 95.3984 509.08 93.371 509.08 90.87C509.08 88.369 507.053 86.3416 504.552 86.3416Z" fill="#E1EAF1"/>
<path d="M486.439 86.3416C483.938 86.3416 481.911 88.369 481.911 90.87C481.911 93.371 483.938 95.3984 486.439 95.3984C488.94 95.3984 490.968 93.371 490.968 90.87C490.968 88.369 488.94 86.3416 486.439 86.3416Z" fill="#E1EAF1"/>
<path d="M468.325 86.3416C465.824 86.3416 463.797 88.369 463.797 90.87C463.797 93.371 465.824 95.3984 468.325 95.3984C470.826 95.3984 472.854 93.371 472.854 90.87C472.854 88.369 470.826 86.3416 468.325 86.3416Z" fill="#E1EAF1"/>
<path d="M450.212 86.3416C447.711 86.3416 445.683 88.369 445.683 90.87C445.683 93.371 447.711 95.3984 450.212 95.3984C452.713 95.3984 454.74 93.371 454.74 90.87C454.74 88.369 452.713 86.3416 450.212 86.3416Z" fill="#E1EAF1"/>
<path d="M432.099 86.3416C429.598 86.3416 427.57 88.369 427.57 90.87C427.57 93.371 429.598 95.3984 432.099 95.3984C434.6 95.3984 436.627 93.371 436.627 90.87C436.627 88.369 434.6 86.3416 432.099 86.3416Z" fill="#E1EAF1"/>
<path d="M413.981 86.3416C411.48 86.3416 409.453 88.369 409.453 90.87C409.453 93.371 411.48 95.3984 413.981 95.3984C416.482 95.3984 418.51 93.371 418.51 90.87C418.51 88.369 416.482 86.3416 413.981 86.3416Z" fill="#E1EAF1"/>
<path d="M395.868 86.3416C393.367 86.3416 391.34 88.369 391.34 90.87C391.34 93.371 393.367 95.3984 395.868 95.3984C398.369 95.3984 400.396 93.371 400.396 90.87C400.396 88.369 398.369 86.3416 395.868 86.3416Z" fill="#E1EAF1"/>
<path d="M377.755 86.3416C375.254 86.3416 373.226 88.369 373.226 90.87C373.226 93.371 375.254 95.3984 377.755 95.3984C380.256 95.3984 382.283 93.371 382.283 90.87C382.283 88.369 380.256 86.3416 377.755 86.3416Z" fill="#E1EAF1"/>
<path d="M359.641 86.3416C357.141 86.3416 355.113 88.369 355.113 90.87C355.113 93.371 357.141 95.3984 359.641 95.3984C362.142 95.3984 364.17 93.371 364.17 90.87C364.17 88.369 362.142 86.3416 359.641 86.3416Z" fill="#E1EAF1"/>
<path d="M341.528 86.3416C339.027 86.3416 337 88.369 337 90.87C337 93.371 339.027 95.3984 341.528 95.3984C344.029 95.3984 346.057 93.371 346.057 90.87C346.057 88.369 344.029 86.3416 341.528 86.3416Z" fill="#E1EAF1"/>
<path d="M504.552 68.2263C502.051 68.2263 500.023 70.2538 500.023 72.7548C500.023 75.2558 502.051 77.2832 504.552 77.2832C507.053 77.2832 509.08 75.2558 509.08 72.7548C509.08 70.2538 507.053 68.2263 504.552 68.2263Z" fill="#E1EAF1"/>
<path d="M486.439 68.2263C483.938 68.2263 481.911 70.2538 481.911 72.7548C481.911 75.2558 483.938 77.2832 486.439 77.2832C488.94 77.2832 490.968 75.2558 490.968 72.7548C490.968 70.2538 488.94 68.2263 486.439 68.2263Z" fill="#E1EAF1"/>
<path d="M468.325 68.2263C465.824 68.2263 463.797 70.2538 463.797 72.7548C463.797 75.2558 465.824 77.2832 468.325 77.2832C470.826 77.2832 472.854 75.2558 472.854 72.7548C472.854 70.2538 470.826 68.2263 468.325 68.2263Z" fill="#E1EAF1"/>
<path d="M450.212 68.2263C447.711 68.2263 445.683 70.2538 445.683 72.7548C445.683 75.2558 447.711 77.2832 450.212 77.2832C452.713 77.2832 454.74 75.2558 454.74 72.7548C454.74 70.2538 452.713 68.2263 450.212 68.2263Z" fill="#E1EAF1"/>
<path d="M432.099 68.2263C429.598 68.2263 427.57 70.2538 427.57 72.7548C427.57 75.2558 429.598 77.2832 432.099 77.2832C434.6 77.2832 436.627 75.2558 436.627 72.7548C436.627 70.2538 434.6 68.2263 432.099 68.2263Z" fill="#E1EAF1"/>
<path d="M413.981 68.2263C411.48 68.2263 409.453 70.2538 409.453 72.7548C409.453 75.2558 411.48 77.2832 413.981 77.2832C416.482 77.2832 418.51 75.2558 418.51 72.7548C418.51 70.2538 416.482 68.2263 413.981 68.2263Z" fill="#E1EAF1"/>
<path d="M395.868 68.2263C393.367 68.2263 391.34 70.2538 391.34 72.7548C391.34 75.2558 393.367 77.2832 395.868 77.2832C398.369 77.2832 400.396 75.2558 400.396 72.7548C400.396 70.2538 398.369 68.2263 395.868 68.2263Z" fill="#E1EAF1"/>
<path d="M377.755 68.2263C375.254 68.2263 373.226 70.2538 373.226 72.7548C373.226 75.2558 375.254 77.2832 377.755 77.2832C380.256 77.2832 382.283 75.2558 382.283 72.7548C382.283 70.2538 380.256 68.2263 377.755 68.2263Z" fill="#E1EAF1"/>
<path d="M359.641 68.2263C357.141 68.2263 355.113 70.2538 355.113 72.7548C355.113 75.2558 357.141 77.2832 359.641 77.2832C362.142 77.2832 364.17 75.2558 364.17 72.7548C364.17 70.2538 362.142 68.2263 359.641 68.2263Z" fill="#E1EAF1"/>
<path d="M341.528 68.2263C339.027 68.2263 337 70.2538 337 72.7548C337 75.2558 339.027 77.2832 341.528 77.2832C344.029 77.2832 346.057 75.2558 346.057 72.7548C346.057 70.2538 344.029 68.2263 341.528 68.2263Z" fill="#E1EAF1"/>
<path d="M504.552 50.1131C502.051 50.1131 500.023 52.1405 500.023 54.6415C500.023 57.1425 502.051 59.1699 504.552 59.1699C507.053 59.1699 509.08 57.1425 509.08 54.6415C509.08 52.1405 507.053 50.1131 504.552 50.1131Z" fill="#E1EAF1"/>
<path d="M486.439 50.1131C483.938 50.1131 481.911 52.1405 481.911 54.6415C481.911 57.1425 483.938 59.1699 486.439 59.1699C488.94 59.1699 490.968 57.1425 490.968 54.6415C490.968 52.1405 488.94 50.1131 486.439 50.1131Z" fill="#E1EAF1"/>
<path d="M468.325 50.1131C465.824 50.1131 463.797 52.1405 463.797 54.6415C463.797 57.1425 465.824 59.1699 468.325 59.1699C470.826 59.1699 472.854 57.1425 472.854 54.6415C472.854 52.1405 470.826 50.1131 468.325 50.1131Z" fill="#E1EAF1"/>
<path d="M450.212 50.1131C447.711 50.1131 445.683 52.1405 445.683 54.6415C445.683 57.1425 447.711 59.1699 450.212 59.1699C452.713 59.1699 454.74 57.1425 454.74 54.6415C454.74 52.1405 452.713 50.1131 450.212 50.1131Z" fill="#E1EAF1"/>
<path d="M432.099 50.1131C429.598 50.1131 427.57 52.1405 427.57 54.6415C427.57 57.1425 429.598 59.1699 432.099 59.1699C434.6 59.1699 436.627 57.1425 436.627 54.6415C436.627 52.1405 434.6 50.1131 432.099 50.1131Z" fill="#E1EAF1"/>
<path d="M413.981 50.1131C411.48 50.1131 409.453 52.1405 409.453 54.6415C409.453 57.1425 411.48 59.1699 413.981 59.1699C416.482 59.1699 418.51 57.1425 418.51 54.6415C418.51 52.1405 416.482 50.1131 413.981 50.1131Z" fill="#E1EAF1"/>
<path d="M395.868 50.1131C393.367 50.1131 391.34 52.1405 391.34 54.6415C391.34 57.1425 393.367 59.1699 395.868 59.1699C398.369 59.1699 400.396 57.1425 400.396 54.6415C400.396 52.1405 398.369 50.1131 395.868 50.1131Z" fill="#E1EAF1"/>
<path d="M377.755 50.1131C375.254 50.1131 373.226 52.1405 373.226 54.6415C373.226 57.1425 375.254 59.1699 377.755 59.1699C380.256 59.1699 382.283 57.1425 382.283 54.6415C382.283 52.1405 380.256 50.1131 377.755 50.1131Z" fill="#E1EAF1"/>
<path d="M359.641 50.1131C357.141 50.1131 355.113 52.1405 355.113 54.6415C355.113 57.1425 357.141 59.1699 359.641 59.1699C362.142 59.1699 364.17 57.1425 364.17 54.6415C364.17 52.1405 362.142 50.1131 359.641 50.1131Z" fill="#E1EAF1"/>
<path d="M341.528 50.1131C339.027 50.1131 337 52.1405 337 54.6415C337 57.1425 339.027 59.1699 341.528 59.1699C344.029 59.1699 346.057 57.1425 346.057 54.6415C346.057 52.1405 344.029 50.1131 341.528 50.1131Z" fill="#E1EAF1"/>
<path d="M504.552 31.9998C502.051 31.9998 500.023 34.0272 500.023 36.5282C500.023 39.0292 502.051 41.0566 504.552 41.0566C507.053 41.0566 509.08 39.0292 509.08 36.5282C509.08 34.0272 507.053 31.9998 504.552 31.9998Z" fill="#E1EAF1"/>
<path d="M486.439 31.9998C483.938 31.9998 481.911 34.0272 481.911 36.5282C481.911 39.0292 483.938 41.0566 486.439 41.0566C488.94 41.0566 490.968 39.0292 490.968 36.5282C490.968 34.0272 488.94 31.9998 486.439 31.9998Z" fill="#E1EAF1"/>
<path d="M468.325 31.9998C465.824 31.9998 463.797 34.0272 463.797 36.5282C463.797 39.0292 465.824 41.0566 468.325 41.0566C470.826 41.0566 472.854 39.0292 472.854 36.5282C472.854 34.0272 470.826 31.9998 468.325 31.9998Z" fill="#E1EAF1"/>
<path d="M450.212 31.9998C447.711 31.9998 445.683 34.0272 445.683 36.5282C445.683 39.0292 447.711 41.0566 450.212 41.0566C452.713 41.0566 454.74 39.0292 454.74 36.5282C454.74 34.0272 452.713 31.9998 450.212 31.9998Z" fill="#E1EAF1"/>
<path d="M432.099 31.9998C429.598 31.9998 427.57 34.0272 427.57 36.5282C427.57 39.0292 429.598 41.0566 432.099 41.0566C434.6 41.0566 436.627 39.0292 436.627 36.5282C436.627 34.0272 434.6 31.9998 432.099 31.9998Z" fill="#E1EAF1"/>
<path d="M413.981 31.9998C411.48 31.9998 409.453 34.0272 409.453 36.5282C409.453 39.0292 411.48 41.0566 413.981 41.0566C416.482 41.0566 418.51 39.0292 418.51 36.5282C418.51 34.0272 416.482 31.9998 413.981 31.9998Z" fill="#E1EAF1"/>
<path d="M395.868 31.9998C393.367 31.9998 391.34 34.0272 391.34 36.5282C391.34 39.0292 393.367 41.0566 395.868 41.0566C398.369 41.0566 400.396 39.0292 400.396 36.5282C400.396 34.0272 398.369 31.9998 395.868 31.9998Z" fill="#E1EAF1"/>
<path d="M377.755 31.9998C375.254 31.9998 373.226 34.0272 373.226 36.5282C373.226 39.0292 375.254 41.0566 377.755 41.0566C380.256 41.0566 382.283 39.0292 382.283 36.5282C382.283 34.0272 380.256 31.9998 377.755 31.9998Z" fill="#E1EAF1"/>
<path d="M359.641 31.9998C357.141 31.9998 355.113 34.0272 355.113 36.5282C355.113 39.0292 357.141 41.0566 359.641 41.0566C362.142 41.0566 364.17 39.0292 364.17 36.5282C364.17 34.0272 362.142 31.9998 359.641 31.9998Z" fill="#E1EAF1"/>
<path d="M341.528 31.9998C339.027 31.9998 337 34.0272 337 36.5282C337 39.0292 339.027 41.0566 341.528 41.0566C344.029 41.0566 346.057 39.0292 346.057 36.5282C346.057 34.0272 344.029 31.9998 341.528 31.9998Z" fill="#E1EAF1"/>
</g>
<ellipse cx="120.283" cy="433.837" rx="120.283" ry="92.8369" fill="#218207" fill-opacity="0.5"/>
<path d="M225.016 620.375C225.016 625.837 220.587 630.266 215.125 630.266V630.266C209.662 630.266 205.234 625.837 205.234 620.375V600.339C205.234 594.876 209.662 590.448 215.125 590.448V590.448C220.587 590.448 225.016 594.876 225.016 600.339V620.375Z" fill="#9E97F3" fill-opacity="0.6"/>
<path d="M195.863 600.306C195.863 602.031 194.465 603.43 192.74 603.43V603.43C191.015 603.43 189.616 602.031 189.616 600.306V577.123C189.616 575.398 191.015 573.999 192.74 573.999V573.999C194.465 573.999 195.863 575.398 195.863 577.123V600.306Z" fill="#9E97F3" fill-opacity="0.6"/>
<path d="M198.987 635.084C198.987 641.985 193.394 647.578 186.494 647.578V647.578C179.594 647.578 174 641.985 174 635.084V630.641C174 623.741 179.594 618.148 186.494 618.148V618.148C193.394 618.148 198.987 623.741 198.987 630.641V635.084Z" fill="#9E97F3" fill-opacity="0.6"/>
<path d="M13 27.2033C13 21.7408 17.4283 17.3125 22.8908 17.3125V17.3125C28.3534 17.3125 32.7816 21.7408 32.7816 27.2033V47.2394C32.7816 52.7019 28.3534 57.1302 22.8908 57.1302V57.1302C17.4283 57.1302 13 52.7019 13 47.2394V27.2033Z" fill="#9E97F3" fill-opacity="0.6"/>
<path d="M42.1523 47.2699C42.1523 45.5449 43.5507 44.1465 45.2758 44.1465V44.1465C47.0008 44.1465 48.3992 45.5449 48.3992 47.2699V70.4535C48.3992 72.1786 47.0008 73.577 45.2758 73.577V73.577C43.5507 73.577 42.1523 72.1786 42.1523 70.4535V47.2699Z" fill="#9E97F3" fill-opacity="0.6"/>
<path d="M39.0283 12.4937C39.0283 5.5936 44.6219 0 51.522 0V0C58.422 0 64.0157 5.5936 64.0157 12.4937V16.9368C64.0157 23.8369 58.422 29.4305 51.522 29.4305V29.4305C44.6219 29.4305 39.0283 23.8369 39.0283 16.9368V12.4937Z" fill="#9E97F3" fill-opacity="0.6"/>
<defs>
<clipPath id="clip0_195_1681">
<rect width="173" height="173" fill="white" transform="translate(337 32)"/>
</clipPath>
</defs>
</svg>
